<svg xmlns="http://www.w3.org/2000/svg" width="512" height="512"><path xmlns="http://www.w3.org/2000/svg" d="M57 228c-8-8-8-21 0-29L174 82c8-7 21-7 29 0l73 74L392 40h-51a20 20 0 110-40h100c11 0 20 9 20 20v100a20 20 0 11-40 0V68L290 198c-7 8-20 8-28 0l-73-73L86 228c-8 8-21 8-29 0zm86 146v118c0 11-9 20-20 20H20c-11 0-20-9-20-20V374c0-11 9-20 20-20h103c11 0 20 9 20 20zm-40 20H40v78h63zm224-96v194c0 11-9 20-20 20H205c-11 0-20-9-20-20V298c0-11 9-20 20-20h102c11 0 20 9 20 20zm-40 20h-62v154h62zm225-96v270c0 11-9 20-20 20H389c-11 0-20-9-20-20V222c0-11 9-20 20-20h103c11 0 20 9 20 20zm-40 20h-63v230h63z" fill="#f1543e" data-original="#000000"/></svg>
