<svg xmlns="http://www.w3.org/2000/svg" width="512" height="512"><g xmlns="http://www.w3.org/2000/svg"><path d="M471 263c23-2 41-22 41-45V78c0-25-20-45-45-45H318c-25 0-45 20-45 45v59H86c-25 0-45 20-45 45v180l3 15H27c-15 0-27 12-27 27 0 41 34 75 75 75h362c41 0 75-34 75-75 0-15-12-27-27-27h-17l3-15zM303 78c0-8 7-15 15-15h149c8 0 15 7 15 15v140c0 8-7 15-15 15H328l-8 2-30 19 12-42 1-4zm134 371H75c-24 0-43-19-45-42h452c-2 23-21 42-45 42zM143 264a17 17 0 1134 0 17 17 0 01-34 0zm-8 64c0-9 12-17 25-17 7 0 14 2 19 6 2 2 6 6 6 11v49h-50zm80 49v-49c0-13-6-25-17-34l-1-1a47 47 0 10-74 0c-11 9-18 21-18 35v49H86c-8 0-15-7-15-15V182c0-8 7-15 15-15h187v39l-12 40c-4 12 1 24 11 32a30 30 0 0034 2l26-17h109v99c0 8-7 15-15 15z" fill="#f1543e" data-original="#000000"/><path d="M408 169h-32a15 15 0 000 30h32a15 15 0 000-30zM352 127h80a15 15 0 000-30h-80a15 15 0 000 30z" fill="#f1543e" data-original="#000000"/></g></svg>
