<svg xmlns="http://www.w3.org/2000/svg" width="512" height="512" viewBox="0 0 511.9 511.9"><g xmlns="http://www.w3.org/2000/svg" fill="#f1543e"><path d="M497 68h-81L261 16h-10L103 68H15C7 68 0 74 0 83v339c0 8 7 15 15 15h136v30h-46a15 15 0 000 30h302a15 15 0 000-30h-46v-30h136c8 0 15-7 15-15V83c0-9-7-15-15-15zm-324 54c80 29 79 28 83 28 3 0 2 1 83-26v39l-83 32-83-32zm83-76l111 37-111 37-105-37zm75 421H181v-30h150v30zm151-60H30V98h73l40 14v61c0 6 4 12 10 14 100 39 99 39 103 39s3 0 103-39c6-2 10-8 10-14v-59l30-10v84a15 15 0 0030 0V98h53z" data-original="#000000"/><path d="M135 271H75c-8 0-15 7-15 15v60c0 9 7 15 15 15h60c9 0 15-6 15-15v-60c0-8-6-15-15-15zm-15 60H90v-30h30zM196 271a15 15 0 000 30h241a15 15 0 000-30zM437 331H196a15 15 0 000 30h241a15 15 0 000-30z" data-original="#000000"/></g></svg>
