<svg xmlns="http://www.w3.org/2000/svg" viewBox="0 0 750 500"><path fill="#ebebeb" d="M57 376h55.3v14.6H57z"/><path d="M88.9 406v-.2-.7-3l-.1-10.7.2.2-55.4.1c.2 0-.3.3.3-.2V406l-.3-.3 39.5.1 11.6.1H89a1 1 0 01-.3 0H73.3l-39.7.2h-.2v-.3V391.3c.5-.5.1-.1.2-.3l55.4.1h.1V405.7l-.2.4zM512.4 178.2a1.3 1.3 0 010-.3v-.7-2.9-10.7l.1.1-55.3.1.2-.2V178.2l-.2-.3 39.4.1 11.7.1h4.2a1.2 1.2 0 01-.2 0H508.4l-11.6.1-39.6.1h-.3v-14.7l.3-.3 55.3.1h.2v.2l-.1 10.8V178c0 .2-.2.2-.2.2z" fill="#e0e0e0"/><path fill="#ebebeb" d="M589.6 47.9h55.3v14.6h-55.3z"/><path d="M621.6 78v-1V74l-.1-10.7.2.1-55.4.1.3-.2V78l-.3-.3 39.5.1 11.6.1h4a1.6 1.6 0 01.3 0 1 1 0 01-.3 0h-3.8l-11.7.1-39.6.1h-.3V78 63.3l.3-.3 55.3.1h.2V77.8c0 .2-.2.3-.2.3z" fill="#e0e0e0"/><path fill="#ebebeb" d="M359.2 410.7h55.3v14.6h-55.3z"/><path d="M391.1 440.7v-.2-.8-2.9-10.7l.1.2H336c.1 0-.3.4.3-.2v14.7l-.3-.3 39.4.1H391a1 1 0 01.3 0h-4.1l-11.6.2-39.7.2h-.3v-.3V426.1l.3-.3 55.4.1h.1v14.6a1.1 1.1 0 01-.2.2zM700.6 175.8v-1-2.9-10.7.1l-55.2.1.2-.2V175.8l-.2-.3 39.4.1 11.6.1h4.3-4.1l-11.6.1-39.6.1h-.4v-7.5-7.4l.3-.3 55.3.2h.2v.1l-.1 10.9v3.9z" fill="#e0e0e0"/><path d="M708.1 161.2a1 1 0 010-.3v-.8-3l-.1-10.6.2.2-33.3.1.3-.3v14.6l-.3-.2 23.8.1h9.5a4.4 4.4 0 01-.6 0h-1.8l-7 .2h-24.2v-.2-14.6l.3-.3h33.4V157.3l-.1 2.8a8.7 8.7 0 010 1.2zM700.6 426.6v-1-3V412v.2l-55.2.1.2-.3v14.7l-.2-.3 39.4.1H700.4h-3.8l-11.6.2h-40v-7.4-7.2l.3-.3 55.3.1h.2v.2l-.1 10.9v3.7z" fill="#e0e0e0"/><path d="M708.1 412a.8.8 0 010-.3v-.8-3l-.1-10.6.2.2h-33.3l.3-.2V412l-.3-.2h23.8l7 .2h2.5a3.3 3.3 0 01-.6 0h-8.8l-24 .2h-.2v-.3-14.6l.3-.3h33.4V408l-.1 2.8a8.3 8.3 0 010 1.1zM166.2 77.7v-1-2.9l-.1-10.7.2.1-55.4.2.3-.3V77.7l-.3-.3 39.5.1 11.6.1h4.3-15.7l-39.8.4h-.2v-.3V63.1l.3-.3 55.3.1h.2v.2l-.1 10.8V77.5l-.1.2zM403.4 49.5a.8.8 0 010-.3v-.7-3l-.1-10.7.1.2-55.4.1.3-.3v14.7l-.3-.3 39.4.1 11.7.1h4.2a1.3 1.3 0 01-.2 0h-15.5l-39.6.4h-.3v-7.5-7.5l.3-.2h55.5v14.7a1.7 1.7 0 01-.1.2zM106.2 224.8a.8.8 0 010-.3v-.8-2.8V210l.1.2-55.3.1.3-.3v14.7l-.3-.3 39.4.1h15.9a1.2 1.2 0 01-.2 0H102.2l-11.6.2-39.7.2h-.3v-7.5-7.4l.3-.3 55.4.1h.1v14.6a1.7 1.7 0 01-.2.3z" fill="#e0e0e0"/><path d="M113.7 210.1a.9.9 0 010-.3v-.7-3-10.6l.1.2H80.6l.3-.2V210l-.3-.3 23.8.2h9.4a5.2 5.2 0 01-.6 0h-1.8l-6.8.1-24 .1h-.3v-.2-14.6l.3-.3H114v14a8.3 8.3 0 01-.3 1zM375.5 235.9a1.3 1.3 0 010-.3v-.7-2.9l-.1-10.7.2.1-55.4.2.3-.3V235.9l-.3-.3 39.5.1 11.6.1h4.3a.7.7 0 01-.3 0H359.9l-39.7.2h-.3v-14.7l.3-.3 55.4.1h.1v14.6l-.2.2z" fill="#e0e0e0"/><path d="M383 221.3a1.5 1.5 0 010-.3v-.8-3l-.2-10.6.2.2-33.2.1.3-.3v14.6l-.3-.2 23.8.1h9.5a2.3 2.3 0 01-.7 0h-1.8l-6.8.2h-24.3v-.2-14.6l.3-.3H383.2V217.4l-.1 2.9a6.1 6.1 0 01-.1 1z" fill="#e0e0e0"/><path fill="#ebebeb" d="M93.4 77.9h34.3v14.6H93.4zM468.2 338.6h55.3v14.6h-55.3z"/><path d="M500.2 368.7v-1.1-2.8L500 354l.1.2-55.3.1.3-.3v14.6l-.3-.2h39.5l11.6.2h4a1.6 1.6 0 01.3 0h-15.7l-39.7.2h-.2v-.3V354l.2-.3 55.4.1h.2v.2l-.1 10.8V368.4a1 1 0 01-.2.3z" fill="#e0e0e0"/><g><path d="M704.5 465.9c0 .1-147.5.3-329.5.3s-329.5-.2-329.5-.3 147.5-.3 329.5-.3 329.5.1 329.5.3z" fill="#263238"/></g><g fill="#263238"><path d="M373.4 395.4c-.1 0-.2-10.3-.2-23.1s.2-23.1.4-23.1.2 10.3.2 23-.2 23.2-.4 23.2zM352 374.6c-.1 0 2-6.1 4.8-13.6s5-13.5 5.2-13.5-2 6.2-4.7 13.7-5.2 13.5-5.3 13.4zM332.6 350.8a18.4 18.4 0 012.5-1.5c1.6-.8 3.7-2 6-3.5l5.8-3.8a19.3 19.3 0 012.4-1.6 13.5 13.5 0 01-2.2 1.9 65.3 65.3 0 01-5.7 4 67.2 67.2 0 01-6.2 3.4 14 14 0 01-2.6 1zM401.6 365.9a18.4 18.4 0 01-2.3-2.5 112 112 0 01-9.3-13 18.4 18.4 0 01-1.6-2.8 23 23 0 012 2.7 337 337 0 009.2 12.9 22.7 22.7 0 012 2.7zM419 344.4l-12-2c-6.6-1.2-11.8-2.4-11.8-2.5s5.4.7 12 2 12 2.3 11.9 2.5z"/></g><g><path d="M437.5 152.8l-6.7-11.4a41.9 41.9 0 10-7.3 13.1z" fill="#fff"/><path d="M437.5 152.8h-.9l-2.6.4-10.5 1.5h-.2l.1-.2h.2A41.7 41.7 0 01407 167a40.8 40.8 0 01-6.2 2 47 47 0 01-6.9 1 41.9 41.9 0 01-44.7-42.5 41.3 41.3 0 015-19.3l1.3-2.3 1.5-2.1a40 40 0 013.2-4c.5-.7 1.2-1.2 1.8-1.8l1.8-1.8 2-1.5 1-.8 1-.7a42.6 42.6 0 0118.1-6.8A41.8 41.8 0 01404 88a42.4 42.4 0 0114.7 8.2 42 42 0 019.5 12l.8 1.5.4.8.3.9 1.3 3.2a55.8 55.8 0 011.6 6.3 41.7 41.7 0 01-1.7 20.5l5 8.4 1.2 2.2.4.7-.5-.7-1.3-2.2-5-8.4a41.6 41.6 0 001.6-20.4 56.6 56.6 0 00-1.7-6.3l-1.2-3.1-.3-.9-.4-.7-.8-1.6A41.7 41.7 0 00386 86.8a42.3 42.3 0 00-17.8 6.7l-1 .7-1 .8-2 1.5a24.3 24.3 0 00-1.8 1.7 25 25 0 00-1.8 1.8 40.5 40.5 0 00-3.1 4l-1.5 2.1-1.2 2.3a41.6 41.6 0 00-1 37.4 41.5 41.5 0 0040.2 23.7 47.6 47.6 0 006.8-1 40.2 40.2 0 006.1-2 41.8 41.8 0 0016.6-12l.5-.7-.3.8-.1-.2 10.3-1.2 2.7-.4z" fill="#263238"/><path d="M345.3 137.7c-5-21.9 6-44.1 27.4-50a41.8 41.8 0 00-48.9 54l-6.7 11.4 14 1.8a41.5 41.5 0 0023 14.2c7.1 1.7 13 1.7 19.4-.1a40.9 40.9 0 01-28.2-31.3z" fill="#ebebeb"/><path d="M391.4 119.3v19.2H387v-7.9h-8.7v7.9H374v-19.2h4.4v7.6h8.7v-7.6zM395.8 121a2.3 2.3 0 010-3.4 2.7 2.7 0 012-.7 2.8 2.8 0 011.9.7 2 2 0 01.7 1.6 2.3 2.3 0 01-.7 1.8 3 3 0 01-3.9 0zm-.2 2.7h4.3v14.7h-4.3zM404 138a2.4 2.4 0 01-.8-1.8 2.3 2.3 0 01.8-1.7 2.9 2.9 0 013.8 0 2.4 2.4 0 010 3.5 2.8 2.8 0 01-3.8 0zm-.7-18.6h5.1l-.8 12.5h-3.4z" fill="#263238"/></g><g><path d="M630.5 284.6a8.5 8.5 0 009.5-6c-2.9 2-7.2.2-9-2.9s-1.4-6.9-.6-10.3 2.2-6.8 2.5-10.4c.7-9.5-6.4-17.6-10-26.5-7.4-17.7-.7-38.1-3.4-57.2-1-7.2-3.6-14.5-8.9-19.5s-13.7-7.2-20.1-3.7l-9.8 18c2.6 7 1 15-1 22.2s-4.6 14.7-3.5 22.1c1.3 8.6 7.3 16.6 6 25.3-.8 5.7-4.7 10.6-6.1 16.2-2.2 8.6 1.7 17.8 7.3 24.7a54.7 54.7 0 0045.7 19.8c4.8-.3 10.5-2.2 11.3-7a17 17 0 01-9.9-4.8z" fill="#263238"/><path d="M604.5 151.2a13.7 13.7 0 00-6.6-7.9 9.8 9.8 0 00-10 .7l-3.9-.2c-.8 6.5 2.3 12.8 5.3 18.6a21.1 21.1 0 003.8 5.9 7.2 7.2 0 006.5 2.1 6.8 6.8 0 004.1-3.4 14.7 14.7 0 001.5-5.3 23.3 23.3 0 00-.8-10.5z" fill="#ff725e"/><path d="M593 181.2l-32.5 20.2 7.3 28c4.9-3.8 8-8 13.5-12.5 9.6-8 11-23.2 11.6-35.7z" fill="#263238"/><path d="M526.2 121.1c8.4-3.8 18.3-3.6 27.2-1s17 7.3 24.6 12.5c4.3 3 8.5 6.2 11.4 10.5a59.4 59.4 0 0110 30c-.2 7.7-4.7 26.5-8.5 33.2-3.5 6.1-17.7 9.8-24.7 10.9l-56.8-78a31.9 31.9 0 0116.8-18z" fill="#263238"/><path d="M514.6 130l15.2-1.4c-9.8 19-15.6 63.5-22 83.8-4.9-8.5-15.7-34-14.3-43.7s3.4-41.7 21-38.6z" fill="#263238"/><path d="M503.4 161.3c2.2-15 13.7-32.6 28.5-29.7l34 11.6a25.7 25.7 0 0117.3 25.2v.3l-11.7 88-63.8 48 11.5-48.2 1.4-18.3s-18.9-4.8-20.8-30.2c-1-12.6 1.2-30.1 3.6-46.7z" fill="#ae7461"/><path d="M507 180.2a3.2 3.2 0 002.8 3.5 3 3 0 003.6-2.6 3.2 3.2 0 00-2.8-3.5 3.1 3.1 0 00-3.6 2.6zM506.4 171.4c.3.5 3-1.1 6.4-.8s5.8 2.2 6.2 1.8c.2-.2-.1-1-1.2-1.9a8.8 8.8 0 00-5-2 8.6 8.6 0 00-5.1 1.2c-1 .8-1.5 1.5-1.3 1.7zM536.4 182.5a3.2 3.2 0 002.8 3.5 3 3 0 003.5-2.6 3.2 3.2 0 00-2.8-3.5 3 3 0 00-3.5 2.6zM539.2 174c.3.5 3-1 6.4-.8s5.8 2.2 6.2 1.8c.2-.1-.1-1-1.2-1.8a8.8 8.8 0 00-5-2 8.6 8.6 0 00-5 1.2c-1.2.7-1.6 1.4-1.4 1.7zM526.2 200.3c0-.2-2.1-.7-5.5-1.5-1-.1-1.7-.4-1.8-1a4.5 4.5 0 01.8-2.5l3.1-6.5c4.5-9.3 7.7-17 7.4-17.1s-4.3 7.2-8.7 16.5l-3 6.5a5 5 0 00-.8 3.4 2.2 2.2 0 001.3 1.4 5.8 5.8 0 001.5.3c3.5.5 5.7.7 5.7.5z" fill="#263238"/><path d="M554.6 232s-9.6 16.5-34.4 12.1l.4-5.9a63.2 63.2 0 0034-6.2z" fill="#6f4439"/><path d="M541.3 161.7c.2 1 3.7.8 7.7 1.6s7.2 2.2 7.8 1.4c.3-.4-.2-1.3-1.4-2.3a13.8 13.8 0 00-11.9-2.4c-1.5.5-2.3 1.2-2.2 1.7zM508.4 161c.5.8 3 .1 5.8.3s5.2 1 5.9.2c.3-.4 0-1.2-1-2a8.5 8.5 0 00-9.5-.5c-1 .7-1.5 1.5-1.3 2z" fill="#263238"/><path d="M512 139c1.9-3.6 6.2-5.6 10.3-5.5s7.9 2 11.3 4.4c14.2 9.8 20.1 31.2 34.2 41.3 3.4 2.5 8.3.9 11.1 4s4.5 8 2.5 11.7a35.3 35.3 0 005.8-8.2 12 12 0 00.4-9.8c-1.1-2.3-3.2-4.2-3.7-6.7-.3-2.2.7-4.4.8-6.7a14.7 14.7 0 00-1.8-6.6 65.2 65.2 0 00-21.9-27 42.5 42.5 0 00-21.5-7.5A32.5 32.5 0 00518 129c-3.5 2.8-7.2 5.7-5.8 10" fill="#263238"/><path d="M578.3 186.3c.4-.7 13.8-4.4 12.8 9.5-.9 13.5-14.3 9.8-14.3 9.4l1.5-19z" fill="#ae7461"/><path d="M581.4 200.4l.6.4a2.4 2.4 0 001.7.1c1.5-.4 2.8-2.6 3-5a7.8 7.8 0 00-.3-3.4 2.7 2.7 0 00-1.7-2 1.2 1.2 0 00-1.4.6l-.2.7c-.1 0-.3-.3-.2-.8a1.5 1.5 0 01.6-.8 1.8 1.8 0 011.4-.3 3.3 3.3 0 012.3 2.3 8 8 0 01.5 3.8c-.3 2.7-1.8 5.2-3.8 5.6a2.5 2.5 0 01-2.2-.5c-.3-.4-.4-.7-.3-.7z" fill="#6f4439"/><path d="M584.3 179.8a5 5 0 01-.8-.5l-2.2-1.7a46.5 46.5 0 01-6.7-7.2 130.2 130.2 0 01-8-12.3 106.5 106.5 0 00-10-14.7 42.4 42.4 0 00-6.7-6.3 34.6 34.6 0 00-7.5-4.1 38.5 38.5 0 00-14.2-3 37 37 0 00-9.7 1.2l-2.6.7a6.4 6.4 0 01-.9.2 4.5 4.5 0 01.9-.3 22.3 22.3 0 012.5-.9 35.1 35.1 0 019.8-1.3 38.5 38.5 0 0114.4 2.8 35.7 35.7 0 017.6 4.2 42.4 42.4 0 016.8 6.4 101.7 101.7 0 0110 14.8 141.1 141.1 0 007.9 12.4 50.5 50.5 0 006.5 7.3l2 1.7a5.4 5.4 0 01.9.6z" fill="#455a64"/><path d="M580.5 183.3c0 3.7-.2 7.6-2.2 10.8s-6.4 5-9.4 2.9c-2.5-1.7-3-5.1-3.2-8.1-.6-8.7-.5-17.5-1.2-26.2z" fill="#263238"/><path d="M534.1 207.6a6.7 6.7 0 01-4.1 10.1 4 4 0 01-2.5-.1c-1.4-.7-2-2.3-2.4-3.7l-1.1-3.6a1.2 1.2 0 011.1-1.8l8.8-1.4" fill="#6f4439"/><path d="M527.7 217.2a8 8 0 004-.2 6.2 6.2 0 003.6-2.5 4.6 4.6 0 00.8-2.7 7.8 7.8 0 00-.5-2.8 7.2 7.2 0 00-1.4-2.4l-.2-.2h-.3c-6 1.6-10.5 2.3-10.5 2.5s4.7 0 10.7-1.4l-.5-.2a6.5 6.5 0 011.2 2c.6 1.7.7 3.5 0 4.7a5.8 5.8 0 01-3.2 2.3c-2.2.7-3.8.7-3.7.9z" fill="#263238"/><path d="M515.9 132.8h3.4a23.3 23.3 0 018.8 2.4 30.1 30.1 0 015.3 3.3 63.7 63.7 0 015.4 4.9 69.6 69.6 0 0110.3 13c1.6 2.6 2.9 5.2 4.3 7.6a34.4 34.4 0 005 6.5 59.8 59.8 0 0010.7 8.6l8 4.6 2.3 1.2a4 4 0 00.8.4 4.3 4.3 0 00-.8-.5l-2.1-1.3c-1.9-1.1-4.6-2.7-7.9-4.9A62.5 62.5 0 01559 170a34.4 34.4 0 01-4.8-6.4c-1.5-2.4-2.8-5-4.3-7.6a68 68 0 00-10.5-13.2 59 59 0 00-5.5-4.8 29.6 29.6 0 00-5.5-3.3 22.2 22.2 0 00-9-2.2 16.2 16.2 0 00-2.5.2 4.7 4.7 0 00-1 .1zM581.6 175a5.4 5.4 0 001.1.9l3.3 2.3 1 .8a3.6 3.6 0 001.5.6 1.4 1.4 0 001-.2 1.2 1.2 0 00.5-.8 3.1 3.1 0 00-.5-1.8l-3.4-6.6-.6.4a14.2 14.2 0 009 3.5 4 4 0 001.2-.1 1.7 1.7 0 001.1-.9 1.5 1.5 0 00-.1-1.3 6.3 6.3 0 00-.7-1 28.5 28.5 0 01-4.1-6.1 49.4 49.4 0 01-2.4-6.5 7.4 7.4 0 00.2 1.9 24.8 24.8 0 001.7 4.8 27 27 0 004 6.4c.5.5 1 1.1.8 1.5s-1 .6-1.7.5a13.6 13.6 0 01-8.5-3.3l-1.5-1.3 1 1.8 3.5 6.6a2.5 2.5 0 01.4 1.3.6.6 0 01-.8.6 6.9 6.9 0 01-2.3-1.2l-3.4-2.1a6.5 6.5 0 00-1.3-.7z" fill="#455a64"/><path d="M561 200.5l7.7 12.3s-12.6 32-47.6 26c-22.4-3.8-22.6-37.6-22.6-37.6 3 .8 10.1-3 15.5-6.2a11.4 11.4 0 0110-.7c8.7 3.6 26.6 9.9 37 6.2z" fill="#ebebeb"/><path d="M541.9 215a6 6 0 01-1.3 0l-3.3-.2a148.4 148.4 0 00-22 .3l-3.3.3a6 6 0 01-1.3 0 5.5 5.5 0 011.2-.2l3.3-.5a104.3 104.3 0 0111.1-.7 106.5 106.5 0 0111.1.4l3.3.4a5 5 0 011.2.2zM534.2 220.8a48.5 48.5 0 01-7.2 0 47.5 47.5 0 01-7.2-.3 52 52 0 017.2-.1 50.8 50.8 0 017.2.4zM527.5 209.6c0 .2-2.4-.1-5.4 0s-5.4.6-5.4.5a19.9 19.9 0 0110.8-.5zM556.3 202.1a81.5 81.5 0 015.2 7.6 81.4 81.4 0 014.8 7.9 81.5 81.5 0 01-5.2-7.6 81.4 81.4 0 01-4.8-7.9z" fill="#263238"/><path d="M580 183.1c.1.1-4.2 4.4-9.6 9.6s-9.8 9.3-9.9 9.2 4.2-4.4 9.6-9.6 9.8-9.3 9.9-9.2zM580 205.2a37.5 37.5 0 01-5.6 4 54.5 54.5 0 01-5.9 3.4 37.3 37.3 0 015.6-4 58.3 58.3 0 015.9-3.4z" fill="#e0e0e0"/><path d="M599.1 168.8a3.5 3.5 0 01.1.6l.2 1.7.2 1.2v7l-.3 2.3c-.1 1.5-.4 3.2-.7 4.9a56.6 56.6 0 01-8.8 20.8l-3 3.9-1.4 1.7-1.4 1.5-2.5 2.5-1.1 1-1 .7-1.4 1a2.6 2.6 0 01-.5.4 2.6 2.6 0 01.5-.4l1.2-1.1 1-.8 1-1c.7-.8 1.6-1.5 2.4-2.5l1.4-1.6c.5-.5 1-1 1.4-1.7l3-4a63.6 63.6 0 005.3-9.8 64.4 64.4 0 003.3-10.7l.8-4.9.2-2.2.1-2c.2-1.3 0-2.5 0-3.5v-1.5-1.2l-.1-1.7a2.6 2.6 0 01.1-.6z" fill="#455a64"/><path d="M558.7 207.3h-.6l-1.8.1a59.3 59.3 0 01-6.7-.3 65.6 65.6 0 01-9.7-1.6c-1.8-.5-3.7-1-5.6-1.7l-5.8-2.2a21.4 21.4 0 00-6-1.5 16 16 0 00-5.7.7 82.1 82.1 0 00-9 3.8 26.3 26.3 0 01-6.3 2 10.6 10.6 0 01-1.8.3 2.6 2.6 0 01-.7 0 3 3 0 01.7-.1 16.4 16.4 0 001.7-.3 29.5 29.5 0 006.3-2.2 75.2 75.2 0 019-4 16.6 16.6 0 015.8-.8 21.4 21.4 0 016.2 1.6l5.8 2.2c1.9.7 3.7 1.2 5.5 1.7a71.7 71.7 0 009.7 1.7l6.6.5h1.8a2.4 2.4 0 01.6.1z" fill="#263238"/><path d="M413 227.2l15.5-21 3.9-5.8a7.2 7.2 0 017.4-6 6.2 6.2 0 016.6.3s14.6 4.8 15.5 6.1 1.5 5.3 1.5 5.3 5.3.6 6.4 3.4-1.6 4.7-4.3 6.7l-.8 8.4s-6.5 1.4-6.7-4c0 0-1.6 2.9-3.6 2.7a5.4 5.4 0 01-5.3 3.2s-6.8 6.6-12.8 6.8c0 0-7 4.7-12.2 4s-14-6.9-14-6.9z" fill="#ae7461"/><path d="M437.7 206a2.9 2.9 0 01.6.5l1.6 1 6.4 3.8 1 .6a5.4 5.4 0 011 .7 3.9 3.9 0 011.3 2.5l.4 5.8.1 1.6v.4a1.4 1.4 0 010 .3v.2a4.8 4.8 0 01-.4.7 6.8 6.8 0 01-2.6 2.2 24.2 24.2 0 01-3.2 1.4 5 5 0 01-1.8.4 1.9 1.9 0 01-1.7-1 2.1 2.1 0 01-.1-1.5 3.4 3.4 0 01.7-1.4 7.3 7.3 0 012.4-1.5l-.1.4a15.6 15.6 0 01-.8-5.4l.3.2a5.8 5.8 0 01-4.7-2.6l.4-.2a2.4 2.4 0 01-1 2.4 2.4 2.4 0 01-2.5 0l.3-.3a9.2 9.2 0 011.7 5.3 9 9 0 01-1 4.1 8.8 8.8 0 01-1.6 2.2l-.5.5a1 1 0 01-.2.1 11.1 11.1 0 002-2.9 8.9 8.9 0 001-4 9 9 0 00-1.8-5l-.6-.9.9.5a2 2 0 002 0 2 2 0 00.9-1.9l-.2-1 .6 1a5.3 5.3 0 004.3 2.3h.2v.3a15.3 15.3 0 00.8 5.2v.2l-.2.1a6.7 6.7 0 00-2.2 1.4 2 2 0 00-.5 2.3 1.4 1.4 0 001.2.7 4.7 4.7 0 001.6-.4 28.3 28.3 0 003.1-1.3 6.3 6.3 0 002.4-2 3.5 3.5 0 00.4-.8v-.1a.4.4 0 000-.2v-.4-1.5l-.4-5.8a3.4 3.4 0 00-1-2.2 5.5 5.5 0 00-1-.7l-1-.6a87.6 87.6 0 01-8-5.1 3.6 3.6 0 01-.5-.5z" fill="#6f4439"/><path d="M453.9 223.8a18.2 18.2 0 011-3.8 21.8 21.8 0 00.9-4.1 8 8 0 00-1-4.9 11 11 0 00-3.7-3.3l-3.7-2.3-2.4-1.6a3.9 3.9 0 01-.8-.6 4.2 4.2 0 011 .4l2.5 1.5 3.7 2.2a11.2 11.2 0 014 3.4 8.3 8.3 0 011 5.2 19.3 19.3 0 01-1 4.2c-.5 1-.8 2-1 2.8a5.8 5.8 0 01-.5 1z" fill="#6f4439"/><path d="M457.5 221.5s.8-1.7 1.6-4.4a27.2 27.2 0 001-5 20.5 20.5 0 000-3 4 4 0 00-1.2-2.7 18.6 18.6 0 00-2.5-1.9 76.1 76.1 0 00-9.8-5.9 5.4 5.4 0 01-1.1-.6 5.6 5.6 0 011.2.4 59.1 59.1 0 017.5 4l2.5 1.7a19 19 0 012.6 2 4.1 4.1 0 011 1.4 5.6 5.6 0 01.3 1.6 19.9 19.9 0 010 3 25 25 0 01-1.1 5 21.9 21.9 0 01-1.3 3.2 5.6 5.6 0 01-.7 1.2zM465.5 217.1c-.2 0-.2-2.6-.8-5.7s-1.7-5.5-1.6-5.6a19.8 19.8 0 012.4 11.3z" fill="#6f4439"/><path d="M407.2 226.5c-1.3 2.3-33.3 56.3-36.5 67.6-3.4 11.7-3.9 25.7 2.9 32s21.4 10.4 26.2 9.7l70.5-9.6 36.3-72a71.6 71.6 0 00-19.5 3.4c-6.1 2.1-21.3 10.1-26.7 13S413.9 288 413.9 288l20.6-52.3z" fill="#ff725e"/><path d="M384 332.4s13.3-14.2 15.4-23.7c3.4-14.5-15.8-41-15.8-41l-4.2 7.6c-5 9.3-9.2 18-10.2 24.8l9.8 20.7-3.5 7.1a32.7 32.7 0 008.5 4.5z" opacity=".3"/><path d="M610 449.4c-1.8-5.8-5.8-15.5-5.8-15.5l-14.8-39 8.2-44.3-6.7-24.5 13-64-31.7-12.2s-10 20.5-37.5 16.3c-16-2.4-14.8-13.7-14.8-13.7l-10.1 1.2-6 .8-28.7 47.2a125.3 125.3 0 00-1.6 64.6c2.2 9.4 2.4 29.3 2.8 32.2 1.1 7.5-8.7 60.7-6.5 67.4h144.5s-3-12.2-4.3-16.5z" fill="#ff725e"/><path d="M600.5 261s18.8 4.5 27.6 34l9.6 31.2 29.1.3-6.3 31c-5 22-10.4 27.1-17.7 34-12.6 11.4-35.1-1-40.5-21.3l-13-47.7z" fill="#ff725e"/><path d="M604.4 376a3.3 3.3 0 01-.2-.6l-.5-1.7-1.9-6.2a3126.5 3126.5 0 01-11.5-41.1l-1.7-6.3-.4-1.7a2.3 2.3 0 01-.1-.6 2.5 2.5 0 01.2.6l.5 1.7 1.8 6.2 5.9 20.6 5.7 20.6a985.8 985.8 0 002.1 8 2.6 2.6 0 01.1.5zM487 287a11.3 11.3 0 01-.8 1.6l-2.2 4c-2 3.3-4.7 8-7.3 13.2a80 80 0 00-3.2 7.7 68.5 68.5 0 00-2.8 11 10 10 0 01-.3 1.7 11.5 11.5 0 01.1-1.7l.8-4.5a59.6 59.6 0 011.7-6.6 74.8 74.8 0 013.2-7.8c2.6-5.3 5.4-9.9 7.4-13.2l2.4-4a10.1 10.1 0 011-1.3zM402 300.6a155.1 155.1 0 0112.4-12.8 74.4 74.4 0 01-6 6.6 74.8 74.8 0 01-6.4 6.2z" fill="#263238"/><path d="M590.1 324.5s-3.5 34.5-2.4 44a104.5 104.5 0 003.4 16.8l6.5-34.7z" opacity=".3"/><path d="M545.1 394.5a3 3 0 01-.5.3l-1.6.7a111.9 111.9 0 01-14.7 5.3 117.8 117.8 0 01-22.5 4.7 82.2 82.2 0 01-15.6 1.1h-1.8a3.1 3.1 0 01-.6 0 2.7 2.7 0 01.6 0l1.8-.1a191.4 191.4 0 0026.8-3.3 163.9 163.9 0 0026-7.8l1.5-.6a3.5 3.5 0 01.6-.3zM557.9 400.7c0 .2-7.5 2.8-16.7 5.9s-16.8 5.4-16.9 5.3 7.4-2.7 16.7-5.8 16.8-5.5 16.9-5.4z" fill="#263238"/><path d="M673 278l8-14.4 8.7-19.1 5-17s0-2-2.5-1.8-5.2 9.5-5.2 9.5l-3 6.5s-3.7 4.3-3.8 3.7 3-9.8 3-9.8l6-20.3a2.8 2.8 0 00-2.4-2.9c-1.5-.2-3.2 1.2-4.5 4s-2.5 8-3.1 9.7l-4.3 11 4.4-23.8s2.3-7.3-1-7.7-3.9 5.3-4.8 7.4-4.2 18.3-6.6 22-2 1.5-2 1.5l3.1-13c1.4-5.7 1-9.7-1-11.3s-5.2 11.8-5.2 11.8l-4.8 18.4-3.6 4.7-1.3-6.6s3.1-6.2.6-10.8-5-2.2-5-2.2l-5.2 27.7c-.3 4.8 6.8 18 6.8 18l-10.5 25 25.7 11.5z" fill="#ae7461"/><path d="M668.6 265.4c-.2.1-.7-1.7-1.8-4.4s-3.1-6.5-7-8.3a8.1 8.1 0 00-5.3-.7l-.6.1-.1-.6c-.5-3-1.3-5.6-1.6-7.4s-.5-3-.3-3a14.9 14.9 0 011 2.8 77.1 77.1 0 012 7.5l-.7-.5a9 9 0 016 .6 12.5 12.5 0 015 4.4 19.7 19.7 0 012.4 4.8c.9 2.9 1.1 4.7 1 4.7z" fill="#6f4439"/><path fill="#ff725e" d="M621 359.7l20.1-80 35.6 10.4-16.2 64.2-39.5 5.4z"/><path d="M641.1 279.8c.1 0-3.6 15.7-8.3 35s-8.7 35-8.9 35 3.6-15.7 8.4-35 8.7-35 8.8-35zM603.1 265.4a50.2 50.2 0 00-5.4 3.9l-1.2 1-1.2 1.3a36 36 0 00-2.5 2.9 42.9 42.9 0 00-4.4 7.6 50.8 50.8 0 00-3.8 15.5c-.2 1-.2 2-.2 2.8v2a12.7 12.7 0 01-.2 1.8 11.7 11.7 0 01-.1-1.7v-2.2l.1-2.7a48.2 48.2 0 013.8-15.7 40.9 40.9 0 014.5-7.7 34.6 34.6 0 012.5-3l1.3-1.2 1.2-1a20.9 20.9 0 012.3-1.7l1-.6.8-.5a10.5 10.5 0 011.5-.8z" fill="#263238"/><path d="M558 389.7c-9.8 6.4-20 12.4-31.3 16s-23.4 4.7-34.7 1.2a226 226 0 0066-17.2z" opacity=".3"/><circle cx="581.5" cy="209.3" r="7.2" fill="#455a64"/></g><g><path d="M250.9 183.4a3.7 3.7 0 01-.7 0 12.8 12.8 0 01-1.9-.5 36.3 36.3 0 01-6.5-2.8 46.9 46.9 0 00-4.4-2 15.5 15.5 0 00-5.4-1.3 19 19 0 00-6 1l-6.2 2.4a68 68 0 01-22.9 4.7 61.1 61.1 0 01-7-.1l-2-.2a3.7 3.7 0 01-.7-.1 2.9 2.9 0 01.7 0h2c1.6.2 4 .2 7 0a70.7 70.7 0 0022.7-4.8c2.1-.8 4.2-1.7 6.3-2.3a19.5 19.5 0 016.1-1 15.9 15.9 0 015.6 1.2 47 47 0 014.4 2.1 39.3 39.3 0 006.4 3c1.5.6 2.5.7 2.5.7z" fill="#263238"/><path d="M284.1 181.5c-.1.1.7 7.4.3 12a4.8 4.8 0 001.2 3.4c2.8 3.3 9 10.2 10.8 11 2.4 1 15.4 4.7 19.7 8.3s8.1 11.3 8.6 11.3S351 221 351 221l-12.3-21s-2.4-8.8-5.1-14.2-5-10.3-6.6-11.2-13.8-1-13.8-1-2.8-.2-3 2c0 0-6.4-.8-6.6 1.5a29.7 29.7 0 00-4.9.2 6.8 6.8 0 00-2.7 1.7s-3-.6-4.2.3a15 15 0 00-2.2 2.3s-2.3-2.6-5.5-.1z" fill="#ffbf9d"/><path d="M301.4 197a9.2 9.2 0 01-1-.1 8.1 8.1 0 00-2.8 0h-.2v-.3a5.2 5.2 0 00-4.6-4.7h-.8v-.3a27.7 27.7 0 000-4.2 14.6 14.6 0 00-.7-3.4 5.8 5.8 0 00-1.8-2.5 2 2 0 01.8.5 5 5 0 011.4 2 14.3 14.3 0 01.8 3.3 26 26 0 010 4.4l-.2-.3h.5a5.5 5.5 0 013.7 2 5.4 5.4 0 011.3 3.2l-.3-.2a7.3 7.3 0 013 .2 2.5 2.5 0 011 .5z" fill="#ff9a6c"/><path d="M292.3 187.3a15 15 0 012.2 1.4l5.2 3.9a3.8 3.8 0 011.2 1.5 6.2 6.2 0 01.3 1.7l.2 2.9a13.2 13.2 0 010 2.6 14.1 14.1 0 01-.4-2.6l-.3-2.9a6.6 6.6 0 00-.3-1.6 3.3 3.3 0 00-1-1.3l-5.1-3.9a13.8 13.8 0 01-2-1.7zM304 181.8a29.1 29.1 0 01-4.2-1 10.3 10.3 0 01-3.8-1.8l4 1.2c2.2.6 4 1.4 4 1.6z" fill="#ff9a6c"/><path d="M308.8 182.3c-.1.1-1.2-.4-2.7-.5s-2.7.4-2.8.3a3.7 3.7 0 012.8-.8 3.6 3.6 0 012.7 1zM314 177.5a27.7 27.7 0 01-5.3 0 25.7 25.7 0 01-5.2-.4 27.7 27.7 0 015.3 0 25.6 25.6 0 015.2.4zM319.5 182.5a9 9 0 00-1.7-3.1 9.2 9.2 0 00-3-1.8h1a5 5 0 012.4 1.4 5 5 0 011.3 2.4v1zM322.7 176a26.1 26.1 0 01-6.2 0c-3.5-.3-6.3-.4-6.3-.6a25 25 0 016.3 0l6.2.6z" fill="#ff9a6c"/><path d="M191.6 89.5a11.1 11.1 0 0111.7-5.4 15.2 15.2 0 0118.7.8 13.5 13.5 0 0120 11.6 11.3 11.3 0 019.5 19.3 10.8 10.8 0 01-5.1 21l-53-34.6a11.1 11.1 0 01-1.8-12.7z" fill="#263238"/><path d="M247.9 138.3a46 46 0 00-44.8-43.5h-2.4c-25.7.8-39.4 23.1-37.8 48.8l1.5 85.7 3.2 10.9 36.2 26.7 16.6-16.3L224 225s24.8-3.2 25.8-28c.4-11.8-.7-36.5-1.9-58.8z" fill="#ffbf9d"/><path d="M224.2 225s-15.8.6-32.1-10.2c0 0 6.2 18.6 31 17z" fill="#ff9a6c"/><path d="M240.2 160a3.5 3.5 0 01-3.5 3.5 3.4 3.4 0 01-3.6-3.3 3.5 3.5 0 013.5-3.5 3.4 3.4 0 013.6 3.3zM242.5 151.5c-.4.5-3-1.6-6.8-1.7s-6.7 1.8-7 1.3c-.2-.2.2-1 1.5-1.9a9.7 9.7 0 015.6-1.5 9.4 9.4 0 015.4 1.9c1.2.9 1.5 1.7 1.3 2zM207.6 160a3.5 3.5 0 01-3.5 3.5 3.4 3.4 0 01-3.6-3.3 3.5 3.5 0 013.5-3.5 3.4 3.4 0 013.6 3.3zM206.2 150c-.4.5-3-1.5-6.9-1.6s-6.6 1.7-7 1.3c-.2-.2.3-1 1.5-2a9.7 9.7 0 015.7-1.5 9.3 9.3 0 015.4 2c1.2.8 1.5 1.7 1.3 1.9zM218 178.5c0-.2 2.4-.5 6.2-1 1 0 1.9-.2 2-.8s0-1.8-.5-3l-2.7-7.4c-3.7-10.6-6.4-19.3-6-19.4s3.8 8.3 7.5 19c1 2.5 1.8 5 2.6 7.4.3 1.1 1 2.4.4 3.8a2.5 2.5 0 01-1.6 1.4 6.4 6.4 0 01-1.7.2c-3.8.1-6.2 0-6.2-.2zM206.8 180.9c.6 0 .5 4 4 7.1s7.8 2.7 7.8 3.3c0 .2-1 .7-2.8.7a10.3 10.3 0 01-6.6-2.4 9 9 0 01-3-6c-.2-1.7.3-2.8.6-2.7zM206.5 139.2c-.4 1-3.7 0-7.7 0s-7.3.8-7.7-.2c-.1-.5.6-1.4 2-2.2a11.8 11.8 0 016-1.4 11.4 11.4 0 015.7 1.6c1.3.9 2 1.8 1.7 2.2zM242 141.1c-.7.9-3.3.2-6.5.3s-5.8.9-6.4 0c-.3-.4 0-1.3 1.2-2.2a9.3 9.3 0 0110.3-.3c1.2.9 1.6 1.8 1.3 2.2z" fill="#263238"/><path d="M245.8 127s-6.1-15.7-13.5-19.5c-8.9-4.6-13 5.2-21.6 2.6s-17-7-26-.6c-9.8 7-5.4 12.2-6.3 23.2-3.5 44.4-12 56.7-13.8 35.7-.2-2.3-6.5-4.3-7.2-14-.9-12.6-1-27.8 2-36.7 2.6-7.4 7-12.5 14.8-18 12.4-8.8 29-8.5 40.4-7.1s32.7 15 31.2 34.3z" fill="#263238"/><path d="M166.2 167.8a6.7 6.7 0 00-7-6.7c-4.7.4-9.9 2.9-9.8 12.4 0 16.9 17 13.3 17 12.8 0-.3 0-11.4-.2-18.5z" fill="#ffbf9d"/><path d="M162.8 180l-.8.4a2.9 2.9 0 01-2.2.1c-1.8-.6-3.4-3.5-3.5-6.5a9.7 9.7 0 01.8-4.2 3.4 3.4 0 012.2-2.3 1.5 1.5 0 011.8.8l.2.8c.1 0 .4-.3.2-1a2 2 0 00-.7-1 2.2 2.2 0 00-1.6-.4 4.1 4.1 0 00-3 2.6 10 10 0 00-1 4.7c0 3.4 1.9 6.6 4.3 7.3a3.1 3.1 0 002.7-.5c.5-.4.6-.8.6-.8z" fill="#ff9a6c"/><path d="M167.4 135c2.1 1.6 4.4 3.2 7 3.6s5.7-1.1 6.3-3.7c.2-1.2 0-2.6.7-3.5 1-1 2.7-.7 4-.5a10.8 10.8 0 0011.4-7.4c1.2 1.9 4.1 1.9 6 .7s3.3-3.1 4.8-4.8 3.6-3.1 5.9-2.8c1.2.3 2.4 1 3.6 1 2.3-.2 3.4-2.8 3.8-5s.7-4.7 2.6-5.9 4-.3 6 0 4.7 0 5.3-2a4 4 0 00-.7-3 11 11 0 00-12.8-4.5 14.8 14.8 0 00-27.1-3.6 15 15 0 00-24.2 4.8 11 11 0 00-12.7 15.6c-3 1.7-5.7 4.6-5.9 8.1s3.2 7 6.6 6.2a6 6 0 0010.3 6.3" fill="#263238"/><path d="M156.7 128.3s-.3 1.4 1 3.2a5.4 5.4 0 003.4 2.1 5.9 5.9 0 004.8-1.2l-.7-.2a16.6 16.6 0 003.3 4.3 9.5 9.5 0 003 2 7.5 7.5 0 008.3-2.2 9.8 9.8 0 001.5-3.5 3.3 3.3 0 00.1-1.4 4.7 4.7 0 00-.5 1.3 11.6 11.6 0 01-1.6 3.2c-1.7 2.3-7 3.4-10.2 0a17 17 0 01-3.1-4l-.3-.5-.4.3a5.1 5.1 0 01-4.1 1.2 5 5 0 01-3-1.7 8.3 8.3 0 01-1.5-3zM189.6 90.5l1.2.5a5.8 5.8 0 012.6 2.3l.2.3.2-.3a21 21 0 018.4-6.4 16.5 16.5 0 016.6-1.3 13.8 13.8 0 017.2 2.2 14 14 0 014.1 4.2 11.4 11.4 0 011.7 5.1v.6l.5-.2a9.5 9.5 0 017 1 9.3 9.3 0 013.8 4.3 12.4 12.4 0 011 5 3.3 3.3 0 00.1-1.4 9.3 9.3 0 00-.6-3.9 9.6 9.6 0 00-3.9-4.6 10.2 10.2 0 00-7.6-1.3l.6.4a12.3 12.3 0 00-1.8-5.6 14.9 14.9 0 00-4.4-4.4 14.5 14.5 0 00-7.6-2.4 17 17 0 00-7 1.5 20.6 20.6 0 00-8.5 6.9h.4a5.7 5.7 0 00-2.9-2.3 2.7 2.7 0 00-1.3-.2z" fill="#455a64"/><path d="M183.8 179l-8.5 13.3s13.5 37.8 52.4 32c29.6-4.4 22.7-45.9 22.7-45.9-3.3 1-8.5-2.8-14.5-6a13 13 0 00-11.1-.7c-9.6 4-29.4 11-41 7.3z" fill="#ebebeb"/><path d="M249 193.1a2 2 0 01-.6.2l-1.6.5-2.6.7-3.4.8-4.2.7-5 .5a82.3 82.3 0 01-22.3-1.2l-4.8-1-4-1.2a174.5 174.5 0 01-5.9-2.1l-1.5-.7a2 2 0 01-.6-.3 2.2 2.2 0 01.6.2l1.6.6 2.5.9 3.3 1 4.1 1.1 4.8 1a86.4 86.4 0 0022.3 1.2l4.8-.5 4.2-.7 3.4-.6 2.6-.6 1.7-.4a2.6 2.6 0 01.5 0zM238.6 202.5a6.3 6.3 0 01-1.2.6 15 15 0 01-1.6.6l-2 .6a42.2 42.2 0 01-5.6 1.1 46.7 46.7 0 01-6.8.4 47.3 47.3 0 01-6.9-.7 42.3 42.3 0 01-5.4-1.4l-2-.7-1.5-.7a7.3 7.3 0 01-1.3-.6 7.6 7.6 0 011.4.4l1.5.6 2 .6a48.5 48.5 0 005.4 1.3 52.8 52.8 0 006.8.7 52.3 52.3 0 006.8-.4 50.2 50.2 0 005.5-1l2-.5 1.6-.5a8.2 8.2 0 011.3-.4zM238.4 185a4.5 4.5 0 01-1 .3c-.6.3-1.6.6-2.9.9a58.8 58.8 0 01-19.7 1.7 39 39 0 01-3-.4 5.5 5.5 0 01-1.1-.2l4 .2a75 75 0 0010-.1 72.5 72.5 0 009.8-1.6l4-.9zM189 180.6a95.5 95.5 0 01-5.2 8.5 93.7 93.7 0 01-5.7 8.3 95.5 95.5 0 015.2-8.5 93.7 93.7 0 015.7-8.3z" fill="#263238"/><path d="M162.5 160.6a5.2 5.2 0 011 .7l2.4 2 7.9 7 7.8 7.2 2.3 2.2a4.8 4.8 0 01.8 1 6.5 6.5 0 01-.9-.8l-2.4-2.1-8-7a388.9 388.9 0 01-10.1-9.4 5.4 5.4 0 01-.8-.8zM162.7 187a10 10 0 012 .8l4.8 2a65.3 65.3 0 016.6 2.8 8 8 0 01-2.1-.6c-1.2-.4-3-1-4.8-1.8a33.6 33.6 0 01-6.5-3.2z" fill="#e0e0e0"/><path d="M110 276.3s-7.9 10.2-7.9 19.6S91 416.6 94.5 427.2c6.2 19 31.8 20.9 40 9.6a81.4 81.4 0 0011.2-21.2l-13.9-89.5z" fill="#455a64"/><path d="M152.8 240.4s-39 26-44.6 39 21.3 101.8 22.3 101.8 19.4 46 19.4 46l-2.2 38.7h151.7l-14.4-113-8.6-59.8-20.8-52.7-27-1.4s-19.1-7.3-27.2-10-31.6-9-41-4.3l-2.8 11.8z" fill="#455a64"/><path d="M253.2 240.3s17 0 31.4 7.9 54.6 27.5 54.6 27.5l-21.8-51.4 33.6-12.8s42.4 79.6 42.8 91.2-9 26.8-22 28.7-96.2-15-96.2-15-20.3-30-20.3-33.6-2.1-42.5-2.1-42.5z" fill="#455a64"/><path d="M110.6 312.8a1.2 1.2 0 010 .3l.4.9 1 3.4 3.6 12.4c3.1 10.6 7.4 25.1 12.6 41a614.9 614.9 0 0015 40.2l3 6.8 2.3 5 1.5 3.2.4.8a.8.8 0 010 .3 2.8 2.8 0 010-.2l-.5-.8-1.5-3.2-2.4-5a399 399 0 01-18.2-46.9 1001.9 1001.9 0 01-16-53.6l-.9-3.4-.2-.9a1.1 1.1 0 01-.1-.3zM248.8 296a3 3 0 01-.4-.4c-.3-.3-.7-.8-1-1.4a36.3 36.3 0 01-3.2-5.6 39 39 0 015-40.4 36.6 36.6 0 014.3-4.7l1.4-1.2a2.5 2.5 0 01.5-.3 3.3 3.3 0 01-.5.4l-1.2 1.2a41.4 41.4 0 00-4.3 4.8 39.5 39.5 0 00-4.8 40 41.3 41.3 0 003 5.7l1 1.5a2.4 2.4 0 01.2.5zM231.4 240a3.8 3.8 0 01-.8 0l-2.2-.3-8-1.1c-7-.9-16.3-2.4-26.8-3.4a131.7 131.7 0 00-14.8-.5 79 79 0 00-12 1.1l-4.5 1-3.4 1-2 .7a4.2 4.2 0 01-.8.3 4.8 4.8 0 01.7-.4l2-.8 3.4-1s2.9-.8 4.6-1a74.8 74.8 0 0112-1.3 127.5 127.5 0 0114.9.5c10.5 1 19.9 2.6 26.7 3.5l8 1.3 2.2.4a4.5 4.5 0 01.8 0zM231.3 422.5a2.8 2.8 0 01-.7 0l-2 .2-7.1.4a2070.6 2070.6 0 00-47.3 3.4l-7.1.6-2 .1a4.4 4.4 0 01-.7 0 3.1 3.1 0 01.7 0l2-.3a591.3 591.3 0 0130.7-2.8 829.3 829.3 0 0130.8-1.6h2a2.7 2.7 0 01.7 0zM358.6 286.5l-10.6-5.3c-5.8-3-10.3-5.6-10.2-5.8s4.7 2.3 10.5 5.3 10.3 5.6 10.3 5.8z" fill="#263238"/><path d="M114 324.6s1.4 58.7 12 74.7 19.4 17.2 19.4 17.2a634.2 634.2 0 01-31.5-91.9z" opacity=".3"/><path d="M246.2 294.7c0 .2-29 4-64.6 8.4s-64.5 8-64.6 7.8 29-3.9 64.6-8.3 64.5-8 64.6-7.9z" fill="#263238"/><path d="M184.7 361a1.4 1.4 0 01-.1-.3l-.3-.8-1-2.9-3.5-10.8a748.2 748.2 0 01-20.7-83.9l-.6-3v-.8a1 1 0 010-.3 1 1 0 010 .3l.2.8.6 3 2.3 11.1a855.1 855.1 0 0018.6 72.7l3.4 10.9.9 3 .2.7a1 1 0 010 .2zM184.2 325.8c-.2 0-2.5-4.4-5.3-10s-4.8-10.4-4.7-10.4 2.5 4.4 5.2 10 4.9 10.4 4.8 10.4zM315.8 323.4l-26-5.1-26-5.6c0-.1 11.8 2.1 26 5s26 5.5 26 5.7z" fill="#263238"/></g></svg>
