<svg xmlns="http://www.w3.org/2000/svg" width="512" height="512"><path d="M512 317V45c0-25-20-45-45-45H45C20 0 0 20 0 45v452c0 8 7 15 15 15h497v-30c0-24-10-47-28-64-6-6-12-11-20-15a59 59 0 0018-44c17-6 30-22 30-42zM60 482a60 60 0 01120 0H60zm30-120a30 30 0 1160 0 30 30 0 01-60 0zm105 70c-8-12-19-22-31-29a60 60 0 00-44-101 60 60 0 00-44 101 90 90 0 00-46 79V287c0-41 34-75 75-75h187c6 0 12-5 14-11l24-98a15 15 0 1130 8l-30 120c-2 6-8 11-15 11h-90c-8 0-15 7-15 15 0 100 0 94 1 97-3 18 3 36 15 49-12 7-23 17-31 29zM90 137a45 45 0 1190 0 45 45 0 01-90 0zm120 345a60 60 0 01120 0H210zm30-120a30 30 0 1160 0 30 30 0 01-60 0zm105 70c-8-12-19-22-31-29 10-11 16-25 16-41h30c0 16 6 30 16 41-12 7-23 17-31 29zm137 50H360c0-33 27-60 60-60 34 0 62 27 62 60zm-92-120c0-17 13-30 30-30s32 14 32 30-15 30-32 30-30-13-30-30zm92-45c0 6-4 12-9 14a63 63 0 00-53-29c-22 0-42 12-52 30h-46a60 60 0 00-82-22v-38h75c21 0 39-14 44-34l30-120a45 45 0 00-88-22l-21 86h-85a75 75 0 10-117 4c-19 4-35 14-48 28V45c0-8 7-15 15-15h422c8 0 15 7 15 15v272z" fill="#f1543e" data-original="#000000" xmlns="http://www.w3.org/2000/svg"/></svg>
