<svg xmlns="http://www.w3.org/2000/svg" viewBox="0 0 750 500"><path fill="#e0e0e0" d="M366.8 164.4h89.5V281h-88.9l-.6-116.7z"/><path fill="#fff" d="M449.3 280.5h-88.9V165h88.9z"/><path d="M449.7 164.5v116.4h-89.8V164.5zm-.9 115.5V165.4h-88V280z" fill="#e0e0e0"/><path fill="#fff" d="M369.6 177.5h68.1V268h-68.1z"/><path d="M369.5 177.4v25.3l.1 65.2-.2-.2h68.1l-.2.3v-90.5l.2.2-49.5-.1H369.4h18.5l49.6-.1h.1v90.9H369.3v-.2-65.5l.1-18.5v-4.9-1.2l.2-.7z" fill="#e0e0e0"/><path d="M360.1 280.5a12 12 0 011.2-2 139.5 139.5 0 016.6-9 12 12 0 011.6-1.6 11.5 11.5 0 01-1.3 1.9l-3.3 4.4-3.3 4.4a11.1 11.1 0 01-1.5 1.9zM360.3 165a65 65 0 014.8 6 65 65 0 014.4 6.5 68.5 68.5 0 01-4.8-6.2 67.9 67.9 0 01-4.4-6.4z" fill="#e0e0e0"/><path fill="#fff" d="M449.3 164.9l-11.7 13"/><path d="M437.6 178a80.7 80.7 0 015.6-6.7 83.1 83.1 0 016-6.4c.1.1-2.4 3-5.6 6.7a85.5 85.5 0 01-6 6.3zM449.3 280.5a78.8 78.8 0 01-5.8-6 75 75 0 01-5.4-6.4 74.5 74.5 0 015.7 6 75 75 0 015.5 6.4zM372.7 268s7.4-22.8 11.7-25.2a41.7 41.7 0 0119.1-5.1c10.1-.1 15 .6 20.8 4.7 6.9 4.7 11.5 25.3 11.5 25.3M393 200.4c-6.2.2-7.7 8.6-7.3 13.4.2 2.3.9 4.8-.3 6.8-.8 1.4-2.4 2.2-3 3.7-.9 1.8 0 3.8.5 5.7s.9 4.2-.6 5.5a54 54 0 0010.8 2 18.2 18.2 0 0010.6-2.4" fill="#e0e0e0"/><path d="M388.6 217.2c-4.2-9.5 1.4-15.3 5.1-17.4a15.3 15.3 0 017.3-1.6 26.3 26.3 0 017.3.7 13.3 13.3 0 016.4 3.6c3 3.2 3.7 8 3.4 12.3a34.3 34.3 0 01-4.3 14.8 3.6 3.6 0 01-1.3 1.4 1.3 1.3 0 01-1.7-.3" fill="#e0e0e0"/><path d="M402.5 249.6c4.3.3 8-3.3 8.4-9.9l2.3-33.3-.2 2.3a2.7 2.7 0 00-2.4-2.7l-13.2-1.3a8 8 0 00-8.8 7.5c-.3 5-.5 11.2.1 15 1.3 7.6 7.1 8.5 7.1 8.5l-.5 5.6a7.7 7.7 0 007.2 8.3z" fill="#f5f5f5"/><path d="M391.5 218a1 1 0 001 1 1 1 0 001-.9 1 1 0 00-1-1 1 1 0 00-1 .9zM390 215.4c.1.1.9-.4 2-.4s1.7.5 1.8.4 0-.3-.4-.6a2.6 2.6 0 00-1.5-.4 2.5 2.5 0 00-1.5.5c-.4.2-.5.4-.4.5zM400.5 218a1 1 0 001 1 1 1 0 001-.9 1 1 0 00-1-1 1 1 0 00-1 .9zM400 215.4c.1.1.9-.4 2-.4s1.7.5 1.8.4 0-.3-.4-.6a2.7 2.7 0 00-1.5-.4 2.5 2.5 0 00-1.5.5c-.4.2-.5.4-.4.5zM396.5 223.3a7 7 0 00-1.7-.3c-.3 0-.5 0-.6-.2a1.4 1.4 0 01.2-.8l.8-2a34.9 34.9 0 001.8-5.4 34.8 34.8 0 00-2.2 5.2l-.8 2a1.5 1.5 0 00-.1 1 .7.7 0 00.4.5 1.7 1.7 0 00.5 0 6.8 6.8 0 001.7 0z" fill="#e0e0e0"/><path d="M395.8 235.8A19.3 19.3 0 00406 233s-2.7 5.3-10.3 4.6zM397 225.9a1.9 1.9 0 011.7-.7 1.7 1.7 0 011.2.6 1 1 0 010 1.3 1.3 1.3 0 01-1.3.3 4 4 0 01-1.4-.8 1.5 1.5 0 01-.3-.3.4.4 0 010-.4" fill="#ebebeb"/><path d="M399.6 224c-.2 0-.2 1.2-1.2 2s-2.1.7-2.1.9.2.2.7.2a2.8 2.8 0 001.9-.7 2.5 2.5 0 00.8-1.6l-.1-.7zM399.8 211.7c.1.2 1.2.1 2.4.2s2.2.5 2.4.3-.1-.4-.5-.7a4 4 0 00-1.8-.6 3.9 3.9 0 00-1.9.2c-.4.2-.6.4-.6.6zM390.3 212.4c.2.2 1 0 1.8 0s1.6.1 1.8-.1 0-.4-.4-.6a2.6 2.6 0 00-2.8 0c-.3.3-.4.5-.4.7z" fill="#e0e0e0"/><path d="M394.6 199.4c7.3-4.2 15.2-1.3 21.2 4.7 1.3 1.3 2.5 2.9 4.2 3.6s4.3.7 5.4 2.4c1.3 2-.4 4.7.5 6.9.9 2 3.6 2.5 4.6 4.4.8 1.6.3 3.4 0 5s-.6 3.7.7 4.8l-15.9 6a4 4 0 01-2.2.3c-2.3-.5-2.4-2.5-2.2-4.3a7.1 7.1 0 00-.1-3.8c-.7-1.4-2.3-2.1-2.9-3.6-1-2.5 1.8-5 1.5-7.8a5 5 0 00-3.2-3.6 50.8 50.8 0 00-5-1.4 14.7 14.7 0 01-8.4-8.5 4.1 4.1 0 011.8-5.1zM257.1 178h74.8v86.3h-74.3l-.5-86.4z" fill="#e0e0e0"/><path fill="#fff" d="M325.9 263.8h-74.4v-85.4h74.4z"/><path d="M326.4 178v86.1h-75.1V178zm-.7 85.5v-84.8H252v84.8z" fill="#e0e0e0"/><path fill="#fff" d="M259.4 187.6h57v66.9h-57z"/><path d="M259.3 187.6v18.6l.1 48.3-.2-.1h57l-.2.2v-67l.2.2-41.4-.1h-15.5 15.4l41.5-.1h.2V254.8H259v-.1-48.4-13.7-3.6-1c0-.2.3-.4.3-.4z" fill="#e0e0e0"/><path d="M251.5 263.8a8.4 8.4 0 011-1.4 83.7 83.7 0 015.5-6.6 8 8 0 011.3-1.3 9 9 0 01-1 1.4l-2.8 3.3-2.8 3.3a8.1 8.1 0 01-1.2 1.3zM251.7 178.3a50.2 50.2 0 014 4.6 46.9 46.9 0 013.6 4.7 51.9 51.9 0 01-4-4.5 47 47 0 01-3.6-4.8z" fill="#e0e0e0"/><path fill="#fff" d="M326.1 178.3l-9.8 9.6"/><path d="M316.3 188a65.3 65.3 0 014.7-5 64.6 64.6 0 015-4.7 64.3 64.3 0 01-4.8 5 65.4 65.4 0 01-5 4.6zM326 263.8a61.1 61.1 0 01-4.8-4.5 56.5 56.5 0 01-4.5-4.7 62.3 62.3 0 014.8 4.5 59.4 59.4 0 014.6 4.7zM304.3 240.6c-3.7-3.3-8.9-4.8-16.5-4.8-5.6 0-13.2 1.8-17.6 6.3-2.4 2.5-7.5 12.3-7.5 12.3l50.2.1s-3.2-9-8.6-13.9zM286 216.2a14 14 0 00-6.6-8l.3-.1a5.9 5.9 0 00-7 3.8 20.4 20.4 0 00-.4 3.6 5 5 0 01-1.3 3.3l-1.6 1a1.8 1.8 0 00-.8 1.8c.2.8 1.1 1.1 2 1.2a7 7 0 012.4.3 2.6 2.6 0 103.5 3.7 3.1 3.1 0 001.9 3.5 4.5 4.5 0 004.1-.5 8 8 0 002.7-3.3 14 14 0 00.8-10.3z" fill="#e0e0e0"/><path d="M304 207.8a2.6 2.6 0 00-2.2-1.8 7.8 7.8 0 00-3 .3 9.9 9.9 0 00.3-4 3.4 3.4 0 00-2.6-2.7 4 4 0 00-3 1.1 15.9 15.9 0 01-2.8 2.1c-2.6 1.3-5.8-.2-8.7.5a6.8 6.8 0 00-5 7.1c5 1.8 10 3.5 14.4 6.3 2.4 1.5 5 3.4 7.8 2.8a4.9 4.9 0 002.6-8.2c1.2-.9 2.5-2.1 2.1-3.5z" fill="#e0e0e0"/><path d="M299.3 214.7c-.5-4-4.9-7.7-8.8-7.1l-12.6 3 .2 2 1.8 26.2s1.4 8.4 8.5 7.7c6.4-.7 5.8-7.5 5.8-7.5l-.4-5s5.2-.3 6-7c.3-3.2-.1-8-.6-12.3z" fill="#f5f5f5"/><path d="M297 220.6a.8.8 0 01-.8.9.8.8 0 01-1-.7.9.9 0 01.8-1 .8.8 0 011 .8zM298.2 218.2c0 .2-.7-.3-1.6-.3s-1.6.6-1.7.4 0-.2.4-.4a2.3 2.3 0 011.3-.5 2.3 2.3 0 011.3.4c.3.2.4.4.3.4zM289.3 221a.8.8 0 01-.8.8.8.8 0 01-.9-.7.8.8 0 01.8-.9.8.8 0 01.9.7zM290 218.7c-.2.1-.8-.3-1.7-.3s-1.6.5-1.7.4 0-.2.3-.5a2.4 2.4 0 011.3-.4 2.2 2.2 0 011.4.4c.3.2.4.3.3.4zM292.9 225.2a7.2 7.2 0 011.5-.3l.4-.2-.1-.6-.8-1.5a40.5 40.5 0 01-1.6-3.8 23.7 23.7 0 012 3.7l.7 1.5a1 1 0 01.1.7.6.6 0 01-.3.3 2.2 2.2 0 01-.4.1 6 6 0 01-1.5 0z" fill="#e0e0e0"/><path d="M293.9 234.1a16.7 16.7 0 01-9-2s2.5 4.5 9 3.6z" fill="#ebebeb"/><path d="M290.2 225.4c.1 0 .2 1 1 1.6s2 .5 2 .7-.3.2-.7.2a2.5 2.5 0 01-1.6-.5 2.1 2.1 0 01-.8-1.4v-.6zM289.5 215.7c-.1.3-.9.1-1.8.2s-1.7.4-1.9.1c0 0 .1-.4.5-.6a2.6 2.6 0 011.3-.6 2.4 2.4 0 011.4.3c.4.2.5.5.5.6zM298.1 215.1c-.1.3-.8.1-1.6.2s-1.4.3-1.6 0 0-.3.3-.6a2 2 0 012.6-.2c.3.3.4.5.3.6z" fill="#e0e0e0"/><path d="M298.5 211a9.6 9.6 0 00-6-4.3 16 16 0 00-7.5.3 47 47 0 00-7.1 2.6 1.9 1.9 0 00-1.6 2.4l1 10.5 1 2.1a4 4 0 002.7-1.8 15.7 15.7 0 003.4-11.1 5.3 5.3 0 01.6 1.5 1.7 1.7 0 001.1 1.1c1 .2 1.6-.8 1.7-1.7a7.7 7.7 0 01.4-2.7 10.6 10.6 0 003.6 3.1c.7.3 1.5.6 2.1.1a1.4 1.4 0 00.4-1.4 4 4 0 00-.9-1.4 8.3 8.3 0 004.2 2.3 1.2 1.2 0 001-.1c.4-.4.2-1 0-1.5z" fill="#e0e0e0"/><path d="M279.7 220s-4-1-3.8 3 4.3 2.9 4.3 2.7l-.5-5.7z" fill="#f5f5f5"/><path d="M278.9 224.3h-.2a.7.7 0 01-.5.2 1.8 1.8 0 01-1-1.5 2.2 2.2 0 01.2-1 .8.8 0 01.5-.6.3.3 0 01.4.1v.2s.1 0 0-.2a.4.4 0 00-.1-.2.5.5 0 00-.4-.1 1 1 0 00-.7.7 2.5 2.5 0 00-.1 1.1 1.8 1.8 0 001.1 1.6.7.7 0 00.7-.1v-.2zM283.5 211.2a.6.6 0 010 .3 6.7 6.7 0 01-.3.6 13.2 13.2 0 01-1.3 2.3 15 15 0 01-1.2 1.4l-.7.7a2 2 0 01-1 .5 1.2 1.2 0 01-1-.5 2.2 2.2 0 01-.5-1 14.3 14.3 0 01.3-2.5v-.3h.2l-1.6 1.9-.7.8a2.2 2.2 0 01-1 .7.8.8 0 01-.5 0 1 1 0 01-.4-.3 2.5 2.5 0 01-.3-1 7 7 0 010-1.8 6.8 6.8 0 01.8-2.4 5.1 5.1 0 01.3-.6.9.9 0 01.2-.2l-.4.8a7.3 7.3 0 00-.7 2.4 7.2 7.2 0 000 1.7 2.1 2.1 0 00.2 1 .6.6 0 00.8.3 2 2 0 00.8-.7l.7-.9 1.6-1.8.1-.2V213a15.5 15.5 0 00-.3 2.4 2 2 0 00.5 1 1 1 0 00.9.4 1.8 1.8 0 00.8-.5 9.5 9.5 0 00.8-.7 14.4 14.4 0 002.5-3.6l.3-.6.1-.2zM647 408.3l6 40.4h35.8l8.3-39.8-50.2-.6z" fill="#ebebeb"/><path d="M692 434.1c0 .2-9 .3-20.3.3s-20.5-.1-20.5-.3 9.2-.2 20.5-.2 20.4.1 20.4.3zM692.2 432.2s-9.2.2-20.6.2-20.5-.1-20.5-.2 9.2-.2 20.5-.2 20.6 0 20.6.2zM692.1 430l-20.5.1c-11.3 0-20.6-.1-20.6-.2s9.2-.2 20.6-.2 20.5.1 20.5.2zM657.2 446.4a31 31 0 01-1.1-5.1 33 33 0 01-.7-5.2 33.3 33.3 0 011.1 5.1 32.1 32.1 0 01.7 5.2zM659.6 446a38.4 38.4 0 01-.4-5 39.5 39.5 0 01-.3-5 23.6 23.6 0 01.7 4.9 24.3 24.3 0 010 5zM664 446a25 25 0 01-1-5.2 25.5 25.5 0 01-.2-5.1 148 148 0 011.2 10.2zM667.1 446.1a25.7 25.7 0 01-.4-5.1 25.5 25.5 0 01.1-5.2 42.9 42.9 0 01.3 5.1 45 45 0 010 5.2zM672.6 446a29.7 29.7 0 01-.3-5 27.7 27.7 0 010-4.9 29.7 29.7 0 01.4 4.9 27.7 27.7 0 010 5zM676.7 446.1a30.7 30.7 0 01-.2-5 31.4 31.4 0 01.3-5.1 30.6 30.6 0 01.1 5 31.4 31.4 0 01-.2 5.1zM680.4 445.6a33.3 33.3 0 01.3-5.3 34.3 34.3 0 01.8-5.3 33.2 33.2 0 01-.3 5.3 35.9 35.9 0 01-.8 5.3zM685.3 445a27.7 27.7 0 012-8.8 223 223 0 01-2 8.9z" fill="#fafafa"/><path d="M681.9 328.6a1.5 1.5 0 010 .2l-.2.5-.7 2.2-1 3.5c-.4 1.4-1 2.9-1.4 4.6l-1.4 5.6-1.3 6.5a193.5 193.5 0 00-3 30.3v6.6l.3 5.8c0 2 .2 3.4.3 4.8l.4 3.6c.2 1 .1 1.7.2 2.3v.8a1.3 1.3 0 010-.2l-.1-.6a259.6 259.6 0 01-.7-5.9l-.4-4.8c-.1-1.7-.3-3.7-.3-5.7l-.2-6.7a157.7 157.7 0 013-30.4l1.5-6.5 1.4-5.6c.4-1.7 1-3.2 1.4-4.6l1.1-3.4.8-2.2.2-.5v-.2z" fill="#ebebeb"/><path d="M675.4 353.6a13.2 13.2 0 015.6-7 3.2 3.2 0 012.9-.6c1.2.6 1.3 2.4 1 3.7a9.7 9.7 0 01-4 5.5 8.2 8.2 0 01-6 1.6M673.2 370.5c1-3.5 3.7-8.5 6.6-10.6a4.1 4.1 0 011.5-.8 1.7 1.7 0 011.6.3 2.5 2.5 0 01.4 2.3 14 14 0 01-10.4 10.5M672.6 385.3a20.5 20.5 0 016.7-8.3 3.2 3.2 0 012.3-.9c1.3.3 1.8 1.8 1.7 3.1-.2 2.6-2.2 4.7-4.3 6.4a26.8 26.8 0 01-6.1 3.1M673 396a19.7 19.7 0 015.7-6.4 4.1 4.1 0 011.6-.8 1.8 1.8 0 011.7.6c.6.9 0 2-.6 2.8a16.1 16.1 0 01-8 6M672.7 391.7a63.6 63.6 0 00-8-8.3 1.8 1.8 0 00-1.7-.6 1.2 1.2 0 00-.7 1.1 3.2 3.2 0 00.3 1.4A15.7 15.7 0 00673 394M673 377.8l-6.4-7.8a7.7 7.7 0 00-2-2 2.6 2.6 0 00-2.8 0 2.6 2.6 0 00-.8 2.6 6.8 6.8 0 001.2 2.5 19 19 0 004.6 5c1.9 1.2 3.6 2 5.8 1.7M673.8 362.1a22.1 22.1 0 00-6.3-9.6 3.7 3.7 0 00-1.7-1 2.8 2.8 0 00-3 2 5.2 5.2 0 00.7 4.3 10.8 10.8 0 003 3.1 25.6 25.6 0 007 3.9M676.4 348.2c-.6-4.5-3-8.3-5.7-11.9-.6-.8-1.4-1.6-2.3-1.4a1.8 1.8 0 00-1.3 1.1 4.2 4.2 0 00-.3 1.8 13.9 13.9 0 009 12.4M678.2 341a36.7 36.7 0 01-.3-7 12.4 12.4 0 012.3-6.5 5.4 5.4 0 012.3-1.8 3 3 0 012.9.4 3 3 0 011 2.5 7.5 7.5 0 01-.8 2.6c-1.6 4.1-4.5 8.6-7.4 9.8" fill="#ebebeb"/><path d="M650.5 346.4a2.3 2.3 0 010 .6v7.6a129.3 129.3 0 005.3 30c1 3.3 2 6 2.9 8.5l1.2 3.2c.3 1 .7 1.7 1 2.3l.7 1.5a3.8 3.8 0 01.2.6 3.4 3.4 0 01-.3-.5l-.7-1.5c-.3-.6-.7-1.4-1-2.4s-1-2-1.4-3.1a93.2 93.2 0 01-5.7-19 118.9 118.9 0 01-2.4-19.6l-.1-3.4v-2.6-1.6a3 3 0 01.3-.6z" fill="#e0e0e0"/><path d="M651.5 364.8a9.4 9.4 0 012.2-6 2.3 2.3 0 012-1c1 .1 1.3 1.3 1.4 2.3a7 7 0 01-1.6 4.6 5.9 5.9 0 01-3.8 2.4M653.6 376.8a16 16 0 012.2-8.7 3 3 0 01.9-.8 1.3 1.3 0 011.2-.1 1.7 1.7 0 01.7 1.4 10 10 0 01-4.8 9.4M656.4 387a14.6 14.6 0 012.7-7.1 2.2 2.2 0 011.4-1c1-.2 1.7.7 1.9 1.6.4 1.9-.5 3.7-1.6 5.3a19 19 0 01-3.5 3.5M659 394.2a14 14 0 012.5-5.6 3 3 0 011-.9 1.3 1.3 0 011.2.1c.6.5.5 1.3.2 2a11.6 11.6 0 01-4.2 5.8M657.8 391.3a45.3 45.3 0 00-7.3-3.9 1.3 1.3 0 00-1.2 0 .9.9 0 00-.3.9 2.3 2.3 0 00.5.8 11.2 11.2 0 009 3.8M655 381.8l-6-4a5.6 5.6 0 00-1.8-.8 1.9 1.9 0 00-1.9.6 1.9 1.9 0 000 1.9 4.8 4.8 0 001.4 1.5 13.3 13.3 0 004.2 2.3 5.5 5.5 0 004.4 0M652.2 371a15.8 15.8 0 00-6.4-5.2 2.6 2.6 0 00-1.3-.3 2 2 0 00-1.6 2 3.8 3.8 0 001.3 2.8 8.2 8.2 0 002.7 1.5 18.4 18.4 0 005.7 1M651 360.9c-1.4-3-3.8-5-6.4-6.9a2 2 0 00-1.9-.4 1.3 1.3 0 00-.7 1 3.1 3.1 0 00.3 1.3 9.9 9.9 0 008.8 6.5M650.6 355.7a26.3 26.3 0 01-1.6-4.7 8.9 8.9 0 01.2-4.9 3.9 3.9 0 011.1-1.8 2 2 0 012-.3 2.2 2.2 0 011.2 1.5 5.4 5.4 0 01.1 2c-.3 3.1-1.2 6.8-3 8.2" fill="#e0e0e0"/><path d="M695.6 346a3 3 0 010 .6v7.6a109.3 109.3 0 01-5.1 30.2c-1 3.2-2 6-3 8.4l-1.3 3.1c-.3 1-.8 1.8-1 2.4l-.8 1.5a2.4 2.4 0 01-.3.5 4 4 0 01.2-.6l.7-1.5 1-2.3 1.2-3.2a121.3 121.3 0 008.1-38.5l.1-3.4v-2.6-1.6a2.3 2.3 0 01.2-.6z" fill="#ebebeb"/><path d="M694.6 364.4a9.4 9.4 0 00-2.3-6 2.3 2.3 0 00-1.8-1c-1 .2-1.5 1.3-1.5 2.3a7 7 0 001.6 4.6 5.9 5.9 0 003.8 2.4M692.5 376.4a16 16 0 00-2.2-8.7 3 3 0 00-.9-.8 1.3 1.3 0 00-1.2-.1 1.8 1.8 0 00-.7 1.5 10 10 0 004.8 9.3M689.7 386.6a14.6 14.6 0 00-2.8-7.1 2.2 2.2 0 00-1.4-1c-.9-.2-1.6.7-1.8 1.6-.4 1.9.5 3.7 1.6 5.3a19.3 19.3 0 003.5 3.5M687.1 393.8a14 14 0 00-2.4-5.6 3 3 0 00-1-.9 1.3 1.3 0 00-1.3.1c-.6.5-.4 1.3-.2 2a11.6 11.6 0 004.2 5.8M688.3 391a44.5 44.5 0 017.3-4 1.3 1.3 0 011.2 0 .9.9 0 01.3.9 2.3 2.3 0 01-.6.9 11.2 11.2 0 01-9 3.7M691 381.4l6-3.9a5.6 5.6 0 011.9-.9 1.9 1.9 0 011.9.6 1.9 1.9 0 010 1.9 4.9 4.9 0 01-1.4 1.5 13.3 13.3 0 01-4.2 2.3 5.5 5.5 0 01-4.4 0M693.9 370.6a15.8 15.8 0 016.4-5.2 2.6 2.6 0 011.3-.3 2 2 0 011.6 2 3.8 3.8 0 01-1.3 2.7 8 8 0 01-2.8 1.5 18 18 0 01-5.6 1.1M695.1 360.5c1.4-3 3.8-5 6.4-6.9a2 2 0 012-.4 1.3 1.3 0 01.6 1 3.1 3.1 0 01-.2 1.3 9.9 9.9 0 01-8.8 6.5M695.5 355.3a26.2 26.2 0 001.6-4.7 8.9 8.9 0 00-.2-4.9 3.9 3.9 0 00-1.1-1.8 2 2 0 00-2-.3 2.2 2.2 0 00-1.2 1.5 5.4 5.4 0 00-.1 2c.3 3.1 1.2 6.8 3 8.2M642.8 400.3v7.5a3 3 0 003 3h51.7a3 3 0 003-3v-7.5z" fill="#ebebeb"/><path fill="#e0e0e0" d="M647.3 410.8l.5 2.4 47.7 3.4 1.2-5.8h-49.4z"/><path fill="#fafafa" d="M26 261.3l67-14.7 11.9 53.6-67 14.8z"/><path d="M93.1 246.6h-.3l-1 .3-3.6.8-13.7 3L26 261.7l.1-.3L38.1 315l-.2-.1 67-14.8-.2.2-8.4-38.9-2.4-10.8-.6-3-.2-1 .2 1 .7 3 2.4 10.7 8.7 39v.1h-.2l-67 14.9h-.2v-.2L26 261.4v-.2h.2l48.5-10.6 13.7-3 3.6-.8 1-.2z" fill="#e0e0e0"/><path fill="#ebebeb" d="M29 264.3l62.4-13.8 10.3 46.9L39.4 311z"/><path fill="#e0e0e0" d="M39.5 311l15.3-33.8 17.5 15.2 7-11.8 22.5 16.7-62.3 13.8zM73.2 269.4a5 5 0 11-6-3.9 5 5 0 016 3.9z"/><path fill="#f5f5f5" d="M35.8 251.8l4 2.9-13.5 18-3.9-3zM105.2 287.7l3.9 3-13.4 18-4-3z"/><path fill="#fafafa" d="M170.6 275.7l4.7-35.6 44.6 5.8-4.6 35.7z"/><path d="M219.5 244.1h-.8l-2.5-.4-9.1-1-32.3-4 .1-.2-4.5 35.8-.1-.2 44.7 5.6-.1.1 3.3-25.9 1-7.2.2-2v-.6.6l-.2 2-.9 7.2-3.2 26v.1h-.1l-44.7-5.6h-.2v-.1l4.6-35.8v-.1l32.4 4.1 9.1 1.2 2.5.3.6.1z" fill="#e0e0e0"/><path fill="#ebebeb" d="M172 272.2l4-31.3 41.6 5.3-4 31.2z"/><path fill="#e0e0e0" d="M172.1 272.2l17-17.6 7.4 13.3 7-5.8 10.2 15.3-41.6-5.2zM202.2 253.8a3.3 3.3 0 11-2.9-3.7 3.3 3.3 0 012.9 3.7z"/><path fill="#f5f5f5" d="M183 234.7l1.7 2.6-12.2 8.2-1.8-2.7zM218 272.3l1.7 2.6-12.2 8.2-1.8-2.7z"/><path fill="#fafafa" d="M488.8 208.5l96.9-13.2 17.5 128.4-96.9 13.2z"/><path d="M603.5 324h-.3L506 337.3v-.3l-17.6-128.8h.3l97.2-13.3v.3zm-97 12.5l96.2-13-17.4-127.8-96.2 13z" fill="#e0e0e0"/><path d="M497.1 213.4a2 2 0 11-2.3-1.6 2 2 0 012.3 1.6zM583 198a2 2 0 11-2.4-1.6 2 2 0 012.4 1.6zM575.4 216.4c-.7 1-11.6 21.5-11.6 21.5l5.5.6s-5.5 17.5-4.8 17 16.7-20.7 16.7-20.7l-8-4.6zM506 252.5c.8.6 13.5 15 13.5 15l-4.3 1.6s7.8 13 7.1 12.7-17.4-13.4-17.4-13.4l5.6-5.2z" fill="#e0e0e0"/><path d="M511.6 230l4.6 11.1h-2.7s1.8 9 1.5 8.6l-7.2-11 4.2-1.9zM585.5 268.6l2.4 11.9-2.7-.5s.1 9-.2 8.7-5-12.2-5-12.2l4.5-1zM515.6 294.6l5 11.1 2-2s5.2 7.4 5.2 7l-3.2-12.9-4.2 1.9zM547.7 226.5c.1.8-1 15.5-1 15.5l-3-1.5s-3 11.3-3.2 10.7-2-16.7-2-16.7l5.8.2z" fill="#ebebeb"/><path d="M535.4 287.5a5.4 5.4 0 001 1 6.4 6.4 0 003.6 1.4 31.7 31.7 0 006.2-.6 40 40 0 008.1-1.9 18.7 18.7 0 004.3-2.2 16.6 16.6 0 003.7-3.6c2.2-3 3.8-6.5 6.1-9.9a31.3 31.3 0 014.2-4.8l2.4-2.1a6 6 0 002-2.5 2 2 0 000-1.5 2.4 2.4 0 00-1.2-1 4 4 0 00-3.2 0 18 18 0 00-5.8 3.6l-2.4 2.5a6 6 0 01-1.4 1.1 2.4 2.4 0 01-1.8.3 2.7 2.7 0 01-1.5-1.1 11.4 11.4 0 01-.8-1.5 19.8 19.8 0 01-1.3-3.2 20 20 0 01-.7-6.5 54.5 54.5 0 01.7-6.3c.6-4 1-8 .4-11.5a14.4 14.4 0 00-.8-2.5 12.3 12.3 0 00-.6-1.2 2.6 2.6 0 00-.7-1 1.7 1.7 0 00-2 .4 3.2 3.2 0 00-.9 2.1v4.4c0 1.4 0 2.8-.2 4a59 59 0 01-.9 6.2 14 14 0 01-1 3.9 4.2 4.2 0 01-.9 1.1l.2-.3a5.5 5.5 0 00.6-.9 15.2 15.2 0 001-3.8 63.7 63.7 0 001-10.2v-2.1-2.3a3.4 3.4 0 01.8-2.2 2.3 2.3 0 011.1-.7 1.6 1.6 0 011.3.2 2.9 2.9 0 01.9 1l.5 1.2a14.6 14.6 0 01.8 2.6c.8 3.6.3 7.6-.3 11.6a54.5 54.5 0 00-.7 6.3 19.9 19.9 0 00.7 6.4 19.1 19.1 0 001.3 3 9.4 9.4 0 00.8 1.6 2.3 2.3 0 001.3 1 2 2 0 001.5-.3 6 6 0 001.3-1l2.4-2.5a18.6 18.6 0 016-3.8 4.4 4.4 0 013.5 0 2.7 2.7 0 011.3 1.3 2.4 2.4 0 01.1 1.7 6.2 6.2 0 01-2 2.7c-1 .7-1.7 1.4-2.5 2.1a31 31 0 00-4.1 4.7c-2.3 3.4-4 7-6.2 9.9a17.2 17.2 0 01-3.8 3.7 19.4 19.4 0 01-4.3 2.2 40.8 40.8 0 01-8.1 1.9 30 30 0 01-6.3.5 6.2 6.2 0 01-3.7-1.5 4 4 0 01-.7-.7 2.3 2.3 0 01-.3-.4z" fill="#e0e0e0"/><path d="M536.1 259.1a1.7 1.7 0 01-.6-.3 3.3 3.3 0 01-1-1.8 22.5 22.5 0 01-.4-3.1 109.6 109.6 0 00-1.3-9.2 2.6 2.6 0 00-1.5-2.1 2 2 0 00-1.3-.1 1.7 1.7 0 00-1 .9 7.2 7.2 0 00-.5 3 26.5 26.5 0 00.3 3.2l1.2 6.9 1.2 6.8.6 6.5a71.8 71.8 0 001.2 10.9 23.9 23.9 0 002.5 6.8 18.8 18.8 0 001.1 1.7l.3.4.1.2-.1-.1-.3-.4a15.3 15.3 0 01-1.2-1.7 23.3 23.3 0 01-2.7-6.9 69.4 69.4 0 01-1.2-10.9 100.1 100.1 0 00-1.8-13.2l-1.2-7a26.7 26.7 0 01-.3-3.2 7.5 7.5 0 01.5-3.2 2 2 0 011.2-1 2.3 2.3 0 011.5 0 2.5 2.5 0 011.2 1 4.5 4.5 0 01.5 1.4l.7 5 .5 4.3a22.8 22.8 0 00.4 3.1 3.2 3.2 0 00.9 1.7 3.6 3.6 0 00.5.4z" fill="#e0e0e0"/><path d="M536.1 258.7a3.4 3.4 0 01.3-.5 4.7 4.7 0 011.2-1 5.9 5.9 0 012.4-.7 6.2 6.2 0 013.3.5 3.6 3.6 0 011.5 1.4 14.4 14.4 0 01.8 2l.5 2.1.5 2.4 1.1 5 .6 2.6a15.2 15.2 0 01.5 2.8 3.1 3.1 0 01-.3 1.4 2.8 2.8 0 01-1 1.1 3.2 3.2 0 01-2.7.5 3.7 3.7 0 01-2-1.8 15.2 15.2 0 01-1-2.4c-1.1-3-1.5-6-2.3-8.4a18.4 18.4 0 00-2.3-5.3 14 14 0 00-1-1.2 5.1 5.1 0 01-.4-.4 2.7 2.7 0 01.5.3 12.8 12.8 0 011 1.3 18 18 0 012.4 5.3c.8 2.3 1.2 5.3 2.3 8.3a15.6 15.6 0 001 2.3 3.3 3.3 0 001.8 1.6 2.8 2.8 0 002.4-.4 2.5 2.5 0 00.8-1 2.8 2.8 0 00.3-1.2 14 14 0 00-.4-2.8 388.2 388.2 0 00-1.7-7.6l-.5-2.3a19.7 19.7 0 00-.5-2.2 13.3 13.3 0 00-.7-2 3.2 3.2 0 00-1.4-1.2 6 6 0 00-3.2-.6 5.8 5.8 0 00-2.3.7 6.7 6.7 0 00-1.5 1.4z" fill="#e0e0e0"/><path d="M543.5 257.2a1.5 1.5 0 01.1-.4 2.8 2.8 0 01.6-1 6.8 6.8 0 013.9-1.7 4.5 4.5 0 012.8 1 6.7 6.7 0 012 2.7 15.6 15.6 0 011 3.6 44.2 44.2 0 01.5 8 20.3 20.3 0 01-.4 3.7 4.5 4.5 0 01-1.7 2.9 2.5 2.5 0 01-1.5.4 2 2 0 01-1.3-.6 4.2 4.2 0 01-1-2.2l-.3-1.8a5.2 5.2 0 00-.4-1.5 1.9 1.9 0 01.2.3 4.3 4.3 0 01.4 1.1l.3 1.8a4 4 0 001 2.1 1.7 1.7 0 001.1.5 2.3 2.3 0 001.3-.4 4.2 4.2 0 001.6-2.7 20.2 20.2 0 00.3-3.6v-4c0-1.4-.3-2.6-.5-3.9a15.8 15.8 0 00-.8-3.5 6.4 6.4 0 00-2-2.6 4.3 4.3 0 00-2.6-1 5.6 5.6 0 00-2.3.6 5.8 5.8 0 00-1.5 1 2.8 2.8 0 00-.8 1.2zM540 267.9a3.4 3.4 0 01-2.5.2 3.3 3.3 0 01-2.1-1.3 13.7 13.7 0 002.2 1 13.2 13.2 0 002.3.1zM548.7 284.8s-.3-1-1-2.4a17 17 0 00-1.4-2.4 20 20 0 00-2.2-2.6 19.8 19.8 0 00-2.6-2.1 19.6 19.6 0 00-2.4-1.4l-2.4-1a2.1 2.1 0 01.7.2 5.2 5.2 0 01.8.2 8.7 8.7 0 011 .4 15.8 15.8 0 012.5 1.3 19 19 0 012.7 2.2 18.6 18.6 0 012.2 2.6 16 16 0 011.3 2.5l.4 1a8.1 8.1 0 01.3.8 3 3 0 01.1.7z" fill="#e0e0e0"/><path d="M555 256.6a3.5 3.5 0 01-.5 2 3.6 3.6 0 01-1.3 1.8l1-1.8c.5-1 .6-2 .7-2zM563.6 280a4 4 0 011 1.3 6.7 6.7 0 01.4 4.3 8.8 8.8 0 01-1.1 2.8 9.8 9.8 0 01-2.4 2.6 20.5 20.5 0 01-7.3 3.1 28.5 28.5 0 01-7.8 1.1 12.1 12.1 0 01-6.2-1.7 8.8 8.8 0 01-3.1-3 4.4 4.4 0 01-.3-.7 3 3 0 01-.2-.5 1.9 1.9 0 01-.1-.4l.7 1.5a9 9 0 003.1 2.9 12.1 12.1 0 006 1.6 28.9 28.9 0 007.8-1.1 20.3 20.3 0 007.2-3.1 9.5 9.5 0 002.3-2.4 8.3 8.3 0 001.1-2.7 6.6 6.6 0 00-.3-4.2 10 10 0 00-.8-1.4z" fill="#e0e0e0"/><path d="M564.2 284.3a19.5 19.5 0 011.7-1.5l4-3.8.5-.6.2.3a31.2 31.2 0 00-4.7 1.7l-1.8.9c0-.1.1-.2.4-.3l1.3-.8a24.4 24.4 0 014.7-1.8l.6-.2-.5.5-.5.5a42 42 0 01-4.1 3.8l-1.3 1a1.9 1.9 0 01-.5.3zM551 287.8a7.9 7.9 0 011.6.5l3.8 1.3.2.1-.1.2a2.7 2.7 0 00-.7 1.6 3.9 3.9 0 01-.7 2 1.4 1.4 0 01-.7.4 1.7 1.7 0 01-.9 0 6.5 6.5 0 01-1.4-.6 6.2 6.2 0 00-2.3-1h-.2v-.3l1.2-2.5a4.4 4.4 0 01.5-.9 5.7 5.7 0 01-.3 1l-1 2.6-.2-.2a6 6 0 012.5 1 6.2 6.2 0 001.3.6 1.1 1.1 0 001.2-.4 3.7 3.7 0 00.7-1.8 3 3 0 01.7-1.7v.2l-3.7-1.4a11.1 11.1 0 01-1.4-.7zM539.9 293.3a2.3 2.3 0 01-.7.2l-2 .6a47.9 47.9 0 01-6.5 1.4h-.6l-.8.1.7-.4a52.8 52.8 0 005-3.6l2-1.7a2.4 2.4 0 01-.5.6l-1.3 1.2a42 42 0 01-5 3.8l-.1-.3h.5c2.6-.4 5-1 6.6-1.3l2-.5a3.1 3.1 0 01.7-.1zM526.9 222.5l.6 4a9.9 9.9 0 012.5-1.2l.4.2a53.5 53.5 0 01-.9-5.5.5.5 0 01.3-.6 1.4 1.4 0 011 0 91.7 91.7 0 002.5 12c.1.4-1.2.3-1.4.1-.4-.3-.8-.8-.7-1.1 0-.2.3 0 .2-.2l-.9-3.9a31.5 31.5 0 00-2.9 1.5 41.8 41.8 0 001.5 5.8c.2.5-1.2.3-1.4.2a50.5 50.5 0 01-1.3-5.3l-.6.3c-.4.3-1.1-.4-1-.7a9.8 9.8 0 011.4-.9 57.7 57.7 0 01-.8-5.9 2.4 2.4 0 011.3 0 3 3 0 01.3 1zM537.7 228.7a2 2 0 01-1.3 1.7c-1.1.3-2.4-.5-3-2.4-1-2.8-.7-6 1.2-6.7a1.4 1.4 0 011.9.6v.2s.8-.2.8.2a20.4 20.4 0 00.7 4.9c.3.7.5 1.1 1 1 .9-.3.7-1.4.5-2.4a.4.4 0 01.6.3c.3.8.3 2.8-.9 3.2a1.2 1.2 0 01-1.5-.6zm-1.8.7c1-.4.5-4.4.3-5a1.5 1.5 0 01-.8 0 2.8 2.8 0 000-1.7c0-.2-.2-.5-.5-.4-1.1.3-.5 4.3 0 6 .3.9.6 1.2 1 1z" fill="#e0e0e0"/><path d="M540.3 223.4a32.5 32.5 0 00-.1-3.4c0-.4.3-.7.8-.8a.6.6 0 01.7.4c.2.6-.2 1.7.2 2.9a.5.5 0 00.6.3c.7-.3.5-1.2.6-1.3a.3.3 0 01.3.1 1.6 1.6 0 01-.8 2c-.9.2-1.3-.3-1.6-1a15.7 15.7 0 00.7 5.6c-.3.3-1.4.2-1.6-.1s-.1-1-1.2-4.5c-.5-1.5-1-3-.4-3.2a2 2 0 011 0l.7 3z" fill="#e0e0e0"/><path d="M547.5 225.1c0 .6-.2 1.9-1 2.1-1.3.5-2.4-1-2.9-2.4-.7-2.2-1-6 1-6.8a1.5 1.5 0 011 .1l-.7-3.8c-.1-.3 0-.4.1-.4.6-.2 1.2-.2 1.2.2l2 10c.2.5.5.6.8.5.5-.2.5-1.3.3-2.2a.4.4 0 01.6.2c.3.8.2 2.8-1 3.2a1.1 1.1 0 01-1.4-.8zm-1.7 1.1c.8-.2.8-4.4.5-5a.7.7 0 01-.6-.2 7.5 7.5 0 00-.2-1.8c0-.2-.2-.5-.4-.4-1.1.4-.7 4.4 0 6.5.1.4.4 1 .7 1zM537.1 314.8l-.2 2a.7.7 0 01-.2.4.9.9 0 01-.6 0l-1-.1a2.5 2.5 0 01-.7-.2 1.2 1.2 0 01-.5-.5 1.8 1.8 0 01-.1-.7v-1.1-1.7-2l.2-2.2.1-2 .2-1.9a9.1 9.1 0 01.3-1.3 1.3 1.3 0 01.5-.7l2.3-1.2a11.8 11.8 0 012.4-.9 6.7 6.7 0 012.2-.2 3.4 3.4 0 012 .9 11.5 11.5 0 011.3 1.4 6.6 6.6 0 011 1.9 3 3 0 010 2 6.7 6.7 0 01-2 2.5 20.2 20.2 0 01-3.5 2.2l1 1 1.1 1 1.2 1a12 12 0 001 .7l.3.5a.7.7 0 01-.3.4 1.6 1.6 0 01-.5.4h-.6a2.7 2.7 0 01-.8.2 2.8 2.8 0 01-1.2-.3l-1-.7-1.2-.9-1.3-1a13.4 13.4 0 01-1.1-1c0 .7-.2 1.4-.3 2zm1.4-7.8l-.5 2.4a11 11 0 002.2-1.2 10.8 10.8 0 001.5-1.4 4.6 4.6 0 001-1.3 1.2 1.2 0 000-.9c-.1-.3-.6-.4-1.3-.4a7 7 0 00-1.2.2 5.8 5.8 0 00-1.3.6l-.4 2zM557 300.7a5.4 5.4 0 01.8 1.3 13.6 13.6 0 01.7 2.8 16 16 0 01.1 3.2 14.1 14.1 0 01-.5 3.1 8.5 8.5 0 01-1.3 2.7 4.1 4.1 0 01-1.4 1.1 5.8 5.8 0 01-1.8.5h-1.4a5.3 5.3 0 01-1.4-.1 4.6 4.6 0 01-1.1-.5 3 3 0 01-1-.7 7.5 7.5 0 01-1-1.7 10.5 10.5 0 01-.7-2.2 11.8 11.8 0 01-.2-2.4 12.3 12.3 0 01.2-2.5 12 12 0 01.7-2.4 10.3 10.3 0 011.3-2.2 4.5 4.5 0 011.3-1 3.8 3.8 0 011.7-.5 11 11 0 012 0 5.5 5.5 0 011.8.5 3.7 3.7 0 011.2 1zm-4.5 2a6.4 6.4 0 00-.7 1.4 13 13 0 00-.5 1.9 14.2 14.2 0 00-.3 2 10.3 10.3 0 000 1.8 11.7 11.7 0 00.3 1.7 4.3 4.3 0 00.6 1.2 1 1 0 00.7.6.9.9 0 00.8-.3 3.5 3.5 0 00.6-1.1 8.5 8.5 0 00.5-1.6 16.4 16.4 0 00.2-4 17 17 0 00-.3-2 6 6 0 00-.5-1.5c-.2-.4-.4-.6-.7-.6s-.5.1-.8.5zM570.9 304.4a1.7 1.7 0 01.3 1 5 5 0 010 1.5 7.5 7.5 0 01-.4 1.3 3.7 3.7 0 01-.3.6 5 5 0 01-.6.6 5.7 5.7 0 01-.6.6 5 5 0 01-.7.5 7.5 7.5 0 01-1.4.6l-1.3.3a4.8 4.8 0 01-1.2 0 2.9 2.9 0 01-1.1-.2 5.3 5.3 0 01-1.6-1.2 10.8 10.8 0 01-1.4-1.9 14.5 14.5 0 01-1-2.3 15 15 0 01-1-5.2 10.3 10.3 0 01.4-2.6 3.9 3.9 0 01.8-1.6 4.6 4.6 0 011.2-1 7.1 7.1 0 011-.3 8.2 8.2 0 011-.4 10.5 10.5 0 011-.1 8.2 8.2 0 011 0 4.3 4.3 0 01.9 0 3.2 3.2 0 01.6.4 2.5 2.5 0 01.5.4 4.8 4.8 0 01.4.5 6.9 6.9 0 01.5.8l.5.8.3.8.2.7.1.3a.6.6 0 010 .3.6.6 0 01-.2.2 1.7 1.7 0 01-.4.2 3.9 3.9 0 01-1 .3 2.4 2.4 0 01-.9 0 2.3 2.3 0 01-.7-.2 3.2 3.2 0 01-.6-.6l-.5-.6a5.1 5.1 0 00-.6-.8.7.7 0 00-.7-.3c-.3 0-.4.3-.5.8a8.2 8.2 0 000 1.7 16.5 16.5 0 00.1 2.2 16.8 16.8 0 00.5 2 15.6 15.6 0 00.7 1.7 10 10 0 00.8 1.4 4 4 0 001 1 1 1 0 00.8.1c.5 0 .8-.9 1.1-2.3a2.7 2.7 0 012-2c.5-.2.8-.2 1 0z" fill="#e0e0e0"/><path d="M577.7 296l1.5.2H581.6c.3 0 .5 0 .6.2a.8.8 0 010 .6 3 3 0 01-.2.6 4.4 4.4 0 01-.4.5 2.1 2.1 0 01-.6.8 1.8 1.8 0 01-1 .4H576.5l-1.4-.1 1.4 1.7 1.2 1.5.2.3a.5.5 0 01-.2.4 2.4 2.4 0 01-.5.3l-.6.5a2.9 2.9 0 01-1.2.5 1.2 1.2 0 01-1-.4l-1.2-1.2-1.6-1.7-1.8-2-1.8-2-1.6-2-1.3-1.6a.9.9 0 01-.2-.7 1.3 1.3 0 01.6-.6 8.3 8.3 0 011.2-.7 7.3 7.3 0 011.2-.5h.5a1 1 0 01.4 0 .6.6 0 01.3 0 2.1 2.1 0 01.2.4l1.3 1.8 1.6 2.2-.3-2.4-.3-2.6-.3-2.4-.2-1.9a.8.8 0 010-.7 1.2 1.2 0 01.7-.3 3.5 3.5 0 011 0 8.7 8.7 0 011 .2 1.7 1.7 0 01.7.5 2.5 2.5 0 01.5.9 12.4 12.4 0 01.4 1.9 35.4 35.4 0 01.5 4.8l.2 2.3 1.5.3z" fill="#e0e0e0"/><path fill="#fafafa" d="M618.5 294.9l13.8-121.6 94 10.7-14 121.6z"/><path d="M712.4 305.5v-.6l.2-1.7.7-6.6 2.8-24.9 10-87.8v.2l-93.8-10.7.2-.2L618.7 295l-.2-.2 68.2 7.8 19 2.2 5 .6 1.7.2-1.7-.2-5-.5-19-2.1-68.2-7.7h-.2v-.2l13.8-121.6v-.2h.2l93.9 10.7h.2v.2l-10.1 87.9c-1.3 10.7-2.2 19.1-3 24.9-.2 2.8-.5 5-.7 6.5l-.2 1.7v.6z" fill="#e0e0e0"/><path d="M677.1 199.6s-15.3-.6-22 10.3-7.5 23.4-6.3 32 6.5 31.4 20.9 32.2 20.2-12.4 23.2-18.7 5-18.3 5.5-22.9c.3-2.4 2.2-29.5-21.3-32.9zm11.9 21.2a1.5 1.5 0 01-1.8 1.4 1.6 1.6 0 01-1-2 1.6 1.6 0 012-.8h-.3a1.5 1.5 0 011.1 1.4zm.4-5.4a1.6 1.6 0 01-1.8 1.4 1.6 1.6 0 01-1-2 1.6 1.6 0 012-.8h-.3a1.6 1.6 0 011.1 1.4zm-2.7-6.1a1.6 1.6 0 012.2-.8h-.4a1.5 1.5 0 11-.7 2.9 1.6 1.6 0 01-1.1-2.1zm-17.1 10.3a1.6 1.6 0 012.1-.8h-.4a1.5 1.5 0 11-.7 2.8 1.6 1.6 0 01-1-2zm-5.3-12.3a1.6 1.6 0 012.2-.8h-.4a1.5 1.5 0 11-.7 2.8 1.6 1.6 0 01-1.1-2zm1 10.5a1.6 1.6 0 01-1.8 1.3 1.6 1.6 0 01-1-2 1.6 1.6 0 012-.8h-.3a1.5 1.5 0 011 1.5zm-2.4-5.9a1.6 1.6 0 012.1-.8h-.4a1.5 1.5 0 11-.6 2.9 1.6 1.6 0 01-1.2-2zm-9.8 29c-.4.1-.8-.3-1-.6a2.9 2.9 0 01.4-2.9v.2a.5.5 0 01.6-.2 1 1 0 01.5.6 4 4 0 010 2.2c-.2.3-.3.7-.6.7zm1.2 7.4a.9.9 0 01-.5.6c-.3.2-.7-.2-.9-.6a3 3 0 01.3-2.9v.3a.5.5 0 01.7-.3 1 1 0 01.4.7 4 4 0 010 2.2zm2.4-4.2a.9.9 0 01-.6.7c-.3.1-.7-.3-.9-.6a2.9 2.9 0 01.3-3v.3c0-.3.5-.4.7-.3a1.1 1.1 0 01.5.7 4 4 0 01-.1 2.2zm3.5 14.7a1.6 1.6 0 01-1-2 1.6 1.6 0 012.1-.8h-.4a1.5 1.5 0 011.1 1.5 1.6 1.6 0 01-1.9 1.3zm4.7-23.1a4.5 4.5 0 01-5-.5 6.8 6.8 0 01-1.8-3.9 4.6 4.6 0 010-2.4 3.7 3.7 0 012.3-2 6.5 6.5 0 016.4 1.3 2 2 0 011 1.3 3.8 3.8 0 010 1.7 6.2 6.2 0 01-3 4.5zm-.4 21a1.6 1.6 0 012.1-.9h-.4a1.5 1.5 0 11-.7 2.9 1.6 1.6 0 01-1-2zm-.6 6.3a1.6 1.6 0 012.1-.8h-.4a1.5 1.5 0 011.2 1.5 1.6 1.6 0 01-1.8 1.4 1.6 1.6 0 01-1.2-2zm1.3 7.1a1.6 1.6 0 01-1-2 1.6 1.6 0 012-.8h-.3a1.5 1.5 0 11-.7 2.9zm6.2-18.6a1.6 1.6 0 01-1.1-2 1.6 1.6 0 012.1-.8h-.4a1.5 1.5 0 11-.6 2.8zm1.2 6a1.6 1.6 0 012.1-.7h-.4a1.5 1.5 0 11-.6 2.8 1.6 1.6 0 01-1.2-2zm-.6 6.4a1.6 1.6 0 012.2-.8h-.4a1.5 1.5 0 11-.8 2.9 1.6 1.6 0 01-1-2zm1.3 7.2a1.6 1.6 0 01-1-2 1.6 1.6 0 012.1-.8h-.4a1.5 1.5 0 11-.7 2.8zm6-48.6a1.6 1.6 0 01-1-2 1.6 1.6 0 012.1-.8h-.4a1.5 1.5 0 011.1 1.5 1.6 1.6 0 01-1.8 1.4zm1 38.6a1.6 1.6 0 01-1.1-2 1.6 1.6 0 012.1-.9h-.4a1.5 1.5 0 11-.7 2.9zm7.2-23a4.5 4.5 0 01-5.1-.4 6.8 6.8 0 01-1.8-3.8 4.7 4.7 0 010-2.4 3.7 3.7 0 012.3-2 6.5 6.5 0 016.4 1.3 2 2 0 011 1.2 4 4 0 010 1.8 6.2 6.2 0 01-2.9 4.4zm2.3 10.1c-.2.4-.6.7-1 .5a.9.9 0 01-.4-.7 3.9 3.9 0 01.4-2.2 1 1 0 01.5-.6c.3 0 .7 0 .7.3v-.2a3 3 0 01-.2 3zm1.7 4.5c-.2.3-.6.6-1 .5a.9.9 0 01-.4-.8 3.9 3.9 0 01.4-2.1 1 1 0 01.5-.6c.3-.1.6 0 .6.3v-.2a3 3 0 01-.2 3zm2-7.8c-.2.3-.6.6-1 .4a.9.9 0 01-.4-.7 4 4 0 01.4-2.2 1.1 1.1 0 01.5-.6c.3 0 .6.1.6.4v-.2a2.9 2.9 0 01-.2 3z" fill="#ebebeb"/><path d="M677.1 199.6s-15.3-.6-22 10.3-7.5 23.4-6.3 32 6.5 31.4 20.9 32.2 20.2-12.4 23.2-18.7 5-18.3 5.5-22.9c.3-2.4 2.2-29.5-21.3-32.9zm11.9 21.2a1.5 1.5 0 01-1.8 1.4 1.6 1.6 0 01-1-2 1.6 1.6 0 012-.8h-.3a1.5 1.5 0 011.1 1.4zm.4-5.4a1.6 1.6 0 01-1.8 1.4 1.6 1.6 0 01-1-2 1.6 1.6 0 012-.8h-.3a1.6 1.6 0 011.1 1.4zm-2.7-6.1a1.6 1.6 0 012.2-.8h-.4a1.5 1.5 0 11-.7 2.9 1.6 1.6 0 01-1.1-2.1zm-17.1 10.3a1.6 1.6 0 012.1-.8h-.4a1.5 1.5 0 11-.7 2.8 1.6 1.6 0 01-1-2zm-5.3-12.3a1.6 1.6 0 012.2-.8h-.4a1.5 1.5 0 11-.7 2.8 1.6 1.6 0 01-1.1-2zm1 10.5a1.6 1.6 0 01-1.8 1.3 1.6 1.6 0 01-1-2 1.6 1.6 0 012-.8h-.3a1.5 1.5 0 011 1.5zm-2.4-5.9a1.6 1.6 0 012.1-.8h-.4a1.5 1.5 0 11-.6 2.9 1.6 1.6 0 01-1.2-2zm-9.8 29c-.4.1-.8-.3-1-.6a2.9 2.9 0 01.4-2.9v.2a.5.5 0 01.6-.2 1 1 0 01.5.6 4 4 0 010 2.2c-.2.3-.3.7-.6.7zm1.2 7.4a.9.9 0 01-.5.6c-.3.2-.7-.2-.9-.6a3 3 0 01.3-2.9v.3a.5.5 0 01.7-.3 1 1 0 01.4.7 4 4 0 010 2.2zm2.4-4.2a.9.9 0 01-.6.7c-.3.1-.7-.3-.9-.6a2.9 2.9 0 01.3-3v.3c0-.3.5-.4.7-.3a1.1 1.1 0 01.5.7 4 4 0 01-.1 2.2zm3.5 14.7a1.6 1.6 0 01-1-2 1.6 1.6 0 012.1-.8h-.4a1.5 1.5 0 011.1 1.5 1.6 1.6 0 01-1.9 1.3zm4.7-23.1a4.5 4.5 0 01-5-.5 6.8 6.8 0 01-1.8-3.9 4.6 4.6 0 010-2.4 3.7 3.7 0 012.3-2 6.5 6.5 0 016.4 1.3 2 2 0 011 1.3 3.8 3.8 0 010 1.7 6.2 6.2 0 01-3 4.5zm-.4 21a1.6 1.6 0 012.1-.9h-.4a1.5 1.5 0 11-.7 2.9 1.6 1.6 0 01-1-2zm-.6 6.3a1.6 1.6 0 012.1-.8h-.4a1.5 1.5 0 011.2 1.5 1.6 1.6 0 01-1.8 1.4 1.6 1.6 0 01-1.2-2zm1.3 7.1a1.6 1.6 0 01-1-2 1.6 1.6 0 012-.8h-.3a1.5 1.5 0 11-.7 2.9zm6.2-18.6a1.6 1.6 0 01-1.1-2 1.6 1.6 0 012.1-.8h-.4a1.5 1.5 0 11-.6 2.8zm1.2 6a1.6 1.6 0 012.1-.7h-.4a1.5 1.5 0 11-.6 2.8 1.6 1.6 0 01-1.2-2zm-.6 6.4a1.6 1.6 0 012.2-.8h-.4a1.5 1.5 0 11-.8 2.9 1.6 1.6 0 01-1-2zm1.3 7.2a1.6 1.6 0 01-1-2 1.6 1.6 0 012.1-.8h-.4a1.5 1.5 0 11-.7 2.8zm6-48.6a1.6 1.6 0 01-1-2 1.6 1.6 0 012.1-.8h-.4a1.5 1.5 0 011.1 1.5 1.6 1.6 0 01-1.8 1.4zm1 38.6a1.6 1.6 0 01-1.1-2 1.6 1.6 0 012.1-.9h-.4a1.5 1.5 0 11-.7 2.9zm7.2-23a4.5 4.5 0 01-5.1-.4 6.8 6.8 0 01-1.8-3.8 4.7 4.7 0 010-2.4 3.7 3.7 0 012.3-2 6.5 6.5 0 016.4 1.3 2 2 0 011 1.2 4 4 0 010 1.8 6.2 6.2 0 01-2.9 4.4zm2.3 10.1c-.2.4-.6.7-1 .5a.9.9 0 01-.4-.7 3.9 3.9 0 01.4-2.2 1 1 0 01.5-.6c.3 0 .7 0 .7.3v-.2a3 3 0 01-.2 3zm1.7 4.5c-.2.3-.6.6-1 .5a.9.9 0 01-.4-.8 3.9 3.9 0 01.4-2.1 1 1 0 01.5-.6c.3-.1.6 0 .6.3v-.2a3 3 0 01-.2 3zm2-7.8c-.2.3-.6.6-1 .4a.9.9 0 01-.4-.7 4 4 0 01.4-2.2 1.1 1.1 0 01.5-.6c.3 0 .6.1.6.4v-.2a2.9 2.9 0 01-.2 3z" fill="none"/><path d="M693.4 245l.3-.9a2.9 2.9 0 00-.3-2h.4v.1h-.4s-.1-.2-.3-.2a.6.6 0 00-.4.3 3.9 3.9 0 00-.5 1.6 1.9 1.9 0 00.2 1.3c.2.2.6 0 .7 0l.3-.3s0 .2-.2.3a1 1 0 01-.3.3.6.6 0 01-.7-.1 1.2 1.2 0 01-.3-.7 4.2 4.2 0 010-.8 3.8 3.8 0 01.5-1.8 1 1 0 01.8-.5.6.6 0 01.6.6.2.2 0 01-.2.2.2.2 0 01-.2-.2v-.2a.2.2 0 01.2-.2.2.2 0 01.2.1 3 3 0 01.1 2.3c-.2.5-.4.7-.5.7zM691.4 252.8l.3-.9a2.9 2.9 0 00-.3-2h.4v.1h-.4l-.3-.1a.6.6 0 00-.4.3 3.9 3.9 0 00-.5 1.6 1.9 1.9 0 00.2 1.2c.3.3.6 0 .8 0s.2-.3.2-.2l-.1.3a1 1 0 01-.4.3.7.7 0 01-.7-.2 1.1 1.1 0 01-.3-.7 4.4 4.4 0 010-.8 3.8 3.8 0 01.6-1.8.9.9 0 01.7-.4.6.6 0 01.6.6.2.2 0 01-.2.2.2.2 0 01-.2-.2v-.2a.2.2 0 01.4-.1 3 3 0 01.2 2.2l-.6.8zM689.8 248.3l.2-.8a3 3 0 00-.2-2l.3-.1v.2h-.4s0-.2-.2-.2a.5.5 0 00-.4.3 3.5 3.5 0 00-.5 1.6 1.9 1.9 0 00.2 1.3c.2.2.5 0 .7-.1l.3-.2-.2.3a1 1 0 01-.4.3.6.6 0 01-.6-.1 1.1 1.1 0 01-.4-.7 3.7 3.7 0 010-.8 3.8 3.8 0 01.6-1.8 1 1 0 01.7-.5.6.6 0 01.7.6.2.2 0 01-.2.2.2.2 0 01-.2-.2v-.2a.2.2 0 01.2-.2.2.2 0 01.1.1 2.9 2.9 0 01.2 2.3c-.2.5-.5.7-.5.7zM687.4 238.2a6.7 6.7 0 001.7-1.7 6.8 6.8 0 001-2.6 4.3 4.3 0 000-1.6 1.9 1.9 0 00-1-1.3 6.3 6.3 0 00-6-1.4 3.6 3.6 0 00-2.3 1.8 4.6 4.6 0 000 2.8 8.6 8.6 0 00.9 2.4 3.9 3.9 0 001.5 1.6 4.5 4.5 0 003.1.4 8.2 8.2 0 001.2-.3l-.3.1a3.8 3.8 0 01-.8.4 4.5 4.5 0 01-3.4-.3 4.2 4.2 0 01-1.6-1.7 8.9 8.9 0 01-1-2.5 4.8 4.8 0 010-3 4 4 0 012.6-2 6.7 6.7 0 016.4 1.4 2.2 2.2 0 011.1 1.6 4.4 4.4 0 010 1.8 6.7 6.7 0 01-1 2.6 5.3 5.3 0 01-1.4 1.3 3.6 3.6 0 01-.4.2h-.3zM680.2 261.1a2 2 0 001.1-.4 1.3 1.3 0 00.5-1.2 1.4 1.4 0 00-1-1 .2.2 0 01-.1-.3.2.2 0 01.2-.1h.4l-.1.3a1.5 1.5 0 00-1.7.4 1.3 1.3 0 00-.2 1.3 2 2 0 00.9 1l-.4-.1a1.6 1.6 0 01-.8-.8 1.6 1.6 0 01.3-1.7 1.8 1.8 0 012-.5.2.2 0 01.2.3.2.2 0 01-.2.1h-.4v-.4a1.7 1.7 0 011.3 1.5 1.5 1.5 0 01-.7 1.4 1.5 1.5 0 01-1 .3l-.3-.1zM679.3 222.6a2 2 0 001.1-.5 1.3 1.3 0 00.5-1.1 1.4 1.4 0 00-1-1.1.2.2 0 01-.1-.2.2.2 0 01.2-.2h.4l-.1.4a1.4 1.4 0 00-1.7.3 1.3 1.3 0 00-.2 1.3 2 2 0 00.9 1h-.4a1.6 1.6 0 01-.8-.9 1.6 1.6 0 01.3-1.6 1.8 1.8 0 012-.5.2.2 0 01.1.3.2.2 0 01-.1 0h-.4v-.3a1.7 1.7 0 011.3 1.4 1.6 1.6 0 01-.7 1.4 1.5 1.5 0 01-1 .3h-.3zM673.3 271.1a2.1 2.1 0 001.1-.4 1.3 1.3 0 00.5-1.1 1.4 1.4 0 00-1-1.2.2.2 0 010-.3h.4v.3h-.1a1.5 1.5 0 00-1.6.4 1.3 1.3 0 00-.3 1.3 2 2 0 001 1h-.5a1.6 1.6 0 01-.7-1 1.6 1.6 0 01.2-1.6 1.8 1.8 0 012-.4.2.2 0 01.2.2.2.2 0 01-.2.1h-.4v-.3a1.7 1.7 0 011.3 1.4 1.5 1.5 0 01-.7 1.4 1.6 1.6 0 01-1 .3h-.3zM672 264a2 2 0 00.3 1.3 1.3 1.3 0 001.2.5 1.4 1.4 0 001.1-1.1 1.4 1.4 0 00-1-1.4.2.2 0 01-.1-.2.2.2 0 01.2-.1h.4l-.1.3a1.6 1.6 0 00-1.6.2l-.5.5s0-.3.4-.7a1.7 1.7 0 011.9-.3.2.2 0 01-.1.3h-.4v-.3a1.6 1.6 0 01-.1 3.2 1.5 1.5 0 01-1.6-.7 1.7 1.7 0 01-.2-1.1l.1-.4zM672.5 257.6a2 2 0 00.3 1.3 1.3 1.3 0 001.3.6 1.4 1.4 0 001.1-1.2 1.4 1.4 0 00-1-1.3.2.2 0 01-.1-.3.2.2 0 01.2-.1h.4l-.1.3a1.5 1.5 0 00-1.6.2l-.5.5s0-.3.3-.7a1.7 1.7 0 012-.3.2.2 0 010 .2.2.2 0 01-.1.1h-.4v-.3a1.7 1.7 0 011.3 1.7 1.7 1.7 0 01-1.5 1.5 1.5 1.5 0 01-1.5-.7 1.6 1.6 0 01-.2-1.1l.1-.4zM671.3 251.5a2 2 0 001.2-.4 1.3 1.3 0 00.4-1.1 1.4 1.4 0 00-1-1.1.2.2 0 01-.1-.3.2.2 0 01.2-.1h.4l-.1.3a1.4 1.4 0 00-1.7.4 1.3 1.3 0 00-.2 1.3 1.9 1.9 0 00.9 1h-.4a1.6 1.6 0 01-.8-1 1.6 1.6 0 01.3-1.6 1.8 1.8 0 012-.4.2.2 0 01.1.2.2.2 0 01-.1.2h-.4v-.4a1.8 1.8 0 011.3 1.4 1.6 1.6 0 01-1.7 1.7h-.3zM665.1 270.2a2 2 0 001.2-.4 1.3 1.3 0 00.5-1.2 1.4 1.4 0 00-1-1 .2.2 0 01-.2-.3.2.2 0 01.2-.2h.4v.4h-.1a1.5 1.5 0 00-1.6.3 1.3 1.3 0 00-.3 1.4 2 2 0 001 1l-.5-.1a1.6 1.6 0 01-.5-2.5 1.8 1.8 0 012-.5h.1a.2.2 0 01.1.3.2.2 0 01-.2.1h-.4v-.4a1.7 1.7 0 011.3 1.5 1.5 1.5 0 01-.6 1.4 1.6 1.6 0 01-1 .3l-.4-.1zM663.8 263a2 2 0 00.4 1.4 1.3 1.3 0 001.2.5 1.4 1.4 0 001.1-1.1 1.4 1.4 0 00-1-1.4.2.2 0 01-.1-.2.2.2 0 01.2-.2h.4l-.1.4a1.6 1.6 0 00-1.6.1l-.5.5s0-.3.4-.6a1.7 1.7 0 011.8-.3.2.2 0 01.1.2.2.2 0 01-.1 0h-.4v-.3a1.7 1.7 0 011.3 1.8 1.8 1.8 0 01-1.5 1.5 1.5 1.5 0 01-1.5-.8 1.6 1.6 0 01-.2-1l.1-.4zM664.4 256.7a2 2 0 00.3 1.3 1.2 1.2 0 001.3.5 1.4 1.4 0 001-1.1 1.3 1.3 0 00-1-1.4.2.2 0 010-.2.2.2 0 01.2-.1h.4l-.1.3a1.6 1.6 0 00-1.6.2c-.4.2-.5.5-.5.5s0-.3.3-.7a1.7 1.7 0 012-.3.2.2 0 010 .2.2.2 0 01-.2.1h-.3v-.3a1.7 1.7 0 011.3 1.7 1.7 1.7 0 01-1.5 1.5 1.5 1.5 0 01-1.5-.7 1.7 1.7 0 01-.3-1.1l.2-.4zM664.9 235.7a7.2 7.2 0 001.7-1.8 6.6 6.6 0 001-2.5 4 4 0 000-1.7 1.9 1.9 0 00-1-1.3 6.3 6.3 0 00-6-1.3 3.6 3.6 0 00-2.3 1.8 4.5 4.5 0 000 2.7 8.5 8.5 0 00.8 2.5 3.9 3.9 0 001.5 1.5 4.5 4.5 0 003.1.5l1.2-.4a1.6 1.6 0 01-.3.2 4.2 4.2 0 01-.8.3 4.6 4.6 0 01-3.3-.3 4.2 4.2 0 01-1.7-1.7 8.9 8.9 0 01-.9-2.5 4.9 4.9 0 010-3 4 4 0 012.5-2 6.6 6.6 0 016.4 1.4 2.2 2.2 0 011.2 1.6 4.4 4.4 0 010 1.8 6.6 6.6 0 01-1.2 2.6 5.3 5.3 0 01-1.3 1.3 3.2 3.2 0 01-.4.3h-.2zM660.1 258.8a2 2 0 001.2-.4 1.3 1.3 0 00.5-1.1 1.4 1.4 0 00-1-1.1.2.2 0 010-.4h.5l-.1.3a1.5 1.5 0 00-1.6.4 1.3 1.3 0 00-.3 1.3 2 2 0 001 1h-.5a1.6 1.6 0 01-.8-1 1.6 1.6 0 01.3-1.6 1.8 1.8 0 012-.4.2.2 0 01.2.2.2.2 0 01-.2.1h-.4v-.4a1.7 1.7 0 011.3 1.5 1.6 1.6 0 01-.7 1.4 1.5 1.5 0 01-1 .3h-.4zM656.6 244.1v-1a4.1 4.1 0 00-.3-1.2.8.8 0 00-.3-.5l-.4.1h-.4v-.2l.4.1a3.2 3.2 0 00-.2.4 2.8 2.8 0 00-.3 1.7 1.7 1.7 0 00.6 1.1.5.5 0 00.6-.2c.2-.1.2-.3.2-.3v.4a.8.8 0 01-.3.4.7.7 0 01-.7 0 1.9 1.9 0 01-.8-1.4 3 3 0 01.3-1.8 3 3 0 01.3-.5.2.2 0 01.3 0 .2.2 0 010 .1v.2a.2.2 0 01-.2.2.2.2 0 01-.2-.2.6.6 0 01.5-.5.7.7 0 01.5 0 1.1 1.1 0 01.5.7 3.8 3.8 0 01.2 1.3 2 2 0 01-.3 1.1zM654.3 248.3v-1.1a4.1 4.1 0 00-.3-1.1.8.8 0 00-.3-.5l-.4.1h-.4v-.3l.4.2a3.2 3.2 0 00-.3.4 2.8 2.8 0 00-.2 1.6 1.6 1.6 0 00.6 1.2.5.5 0 00.6-.2l.2-.3v.4a.8.8 0 01-.3.3.7.7 0 01-.7 0 1.9 1.9 0 01-.8-1.3 3 3 0 01.3-1.9 3 3 0 01.3-.5.2.2 0 01.2 0 .2.2 0 01.1.2v.2a.2.2 0 01-.2.2.2.2 0 01-.2-.2.6.6 0 01.4-.4.7.7 0 01.6 0 1.1 1.1 0 01.5.6 3.8 3.8 0 01.1 1.3 2 2 0 01-.2 1zM653 241l.2-.3a2.3 2.3 0 00.3-1 4 4 0 00-.1-1.3 1.8 1.8 0 00-.3-.7.4.4 0 00-.3-.2.3.3 0 00-.2.1h-.4v-.2l.3.1a2.9 2.9 0 00-.3 2.7 1.1 1.1 0 00.5.6l.3.1s-.1.1-.4 0a1.1 1.1 0 01-.7-.6 3 3 0 01.3-3 .2.2 0 01.3 0 .2.2 0 010 .2v.2a.2.2 0 01-.2.1.2.2 0 01-.1-.2.7.7 0 010-.2.7.7 0 011.2 0 2 2 0 01.3 1 3.8 3.8 0 010 1.4 2 2 0 01-.4 1c-.1.2-.3.2-.3.1zM662.8 212a2 2 0 00.3 1.2 1.3 1.3 0 001.3.6 1.4 1.4 0 001.1-1.2 1.4 1.4 0 00-1-1.3.2.2 0 01-.1-.3.2.2 0 01.2-.1h.4l-.1.3a1.6 1.6 0 00-1.6.2l-.5.5s0-.3.4-.7a1.7 1.7 0 011.8-.3.2.2 0 01.1.3.2.2 0 01-.1 0h-.4v-.3a1.7 1.7 0 011.3 1.8 1.7 1.7 0 01-1.5 1.4 1.5 1.5 0 01-1.5-.7 1.6 1.6 0 01-.2-1.1l.1-.4zM665.3 217.8l-.2-.5a1.5 1.5 0 00-1-.9.2.2 0 01-.1-.2.1.1 0 01.1 0h.4v.3a1.4 1.4 0 00-2 .7 1.4 1.4 0 00.6 1.6 1.2 1.2 0 001.3 0 1.6 1.6 0 00.7-.7c0-.2.1-.3.2-.3v.4a1.6 1.6 0 01-.7.9 1.5 1.5 0 01-1.7 0 1.8 1.8 0 01-.7-2 1.7 1.7 0 011-1 1.7 1.7 0 011.4 0 .2.2 0 010 .3.1.1 0 01-.1 0h-.4v-.3a1.7 1.7 0 011 1.1c.3.4.2.6.1.6zM664.3 207.3a2 2 0 00.3 1.3 1.3 1.3 0 001.3.5 1.4 1.4 0 001.1-1.1 1.4 1.4 0 00-1-1.4.2.2 0 01-.1-.2.2.2 0 01.2-.1h.4l-.1.3a1.6 1.6 0 00-1.6.2c-.4.2-.4.5-.5.5s0-.3.3-.7a1.7 1.7 0 012-.3.2.2 0 01-.1.3h-.4v-.3a1.7 1.7 0 011.3 1.7 1.7 1.7 0 01-1.5 1.5 1.5 1.5 0 01-1.5-.7 1.6 1.6 0 01-.2-1.1l.1-.4zM669.5 219.6a2 2 0 00.4 1.3 1.3 1.3 0 001.2.5 1.4 1.4 0 001.1-1.1 1.3 1.3 0 00-1-1.4.2.2 0 01-.1-.2.2.2 0 01.2-.2h.4l-.1.4a1.5 1.5 0 00-1.6.1l-.5.5s0-.3.4-.6a1.7 1.7 0 011.9-.3.2.2 0 010 .2.2.2 0 01-.1 0h-.4v-.3a1.7 1.7 0 011.3 1.8 1.7 1.7 0 01-1.5 1.4 1.5 1.5 0 01-1.5-.7 1.7 1.7 0 01-.2-1l.1-.4zM686.7 209.3a2 2 0 00.3 1.3 1.2 1.2 0 001.3.6 1.4 1.4 0 001-1.2 1.4 1.4 0 00-1-1.3.2.2 0 010-.3.2.2 0 01.1-.1h.4v.3a1.6 1.6 0 00-1.6.2l-.5.5s0-.3.3-.7a1.7 1.7 0 012-.3.2.2 0 010 .3.2.2 0 01-.2 0h-.4v-.3a1.7 1.7 0 011.4 1.8 1.8 1.8 0 01-1.5 1.4 1.6 1.6 0 01-1.5-.7 1.6 1.6 0 01-.3-1.1c0-.3.2-.4.2-.4zM689.4 215.4l-.2-.5a1.6 1.6 0 00-1-.8.1.1 0 010-.2.1.1 0 010-.2h.5l-.1.4a1.3 1.3 0 00-1.4 2.3 1.2 1.2 0 001.4 0 1.6 1.6 0 00.6-.7l.2-.3v.4a1.6 1.6 0 01-.7.9 1.5 1.5 0 01-1.7 0 1.8 1.8 0 01-.7-2 1.8 1.8 0 012.5-1 .2.2 0 010 .3.2.2 0 01-.1 0h-.4v-.2a1.6 1.6 0 011 1c.2.4.1.6.1.6zM689 220.8l-.2-.5a1.6 1.6 0 00-1-.8.1.1 0 010-.2.2.2 0 010-.1h.5l-.1.3a1.4 1.4 0 00-1.4 2.3 1.3 1.3 0 001.3 0 1.6 1.6 0 00.7-.7l.2-.3v.4a1.6 1.6 0 01-.7.9 1.5 1.5 0 01-1.7 0 1.8 1.8 0 01-.7-2 1.7 1.7 0 011.1-1 1.7 1.7 0 011.4.1.2.2 0 010 .2.2.2 0 01-.1.1h-.4v-.3a1.6 1.6 0 011 1c.2.4.1.6.1.6z" fill="#e0e0e0"/><path d="M677.1 199.6l.5.1 1.5.3a24.5 24.5 0 015.5 1.8 21.3 21.3 0 017.3 5.5 27.4 27.4 0 015.4 10.8 41.6 41.6 0 011.3 7 41 41 0 010 7.7 108.8 108.8 0 01-4.8 21l-1.9 4.1a45.9 45.9 0 01-5 8.2 23 23 0 01-7.6 6.3 19.3 19.3 0 01-10 1.9 13.4 13.4 0 01-5-1.4 16.4 16.4 0 01-4.1-3 29.6 29.6 0 01-5.7-8A66.7 66.7 0 01649 244a51.3 51.3 0 01-.2-17 47.4 47.4 0 014.4-14 28.9 28.9 0 013.4-5.4 18.2 18.2 0 012.1-2.1l1.1-.9 1.2-.8a9.5 9.5 0 011-.7l1.2-.6 2.2-1a29.6 29.6 0 014-1.2 33.2 33.2 0 015.7-.8h2.1-2a34.2 34.2 0 00-5.8 1 29.3 29.3 0 00-4 1.2c-.7.2-1.4.6-2.1 1l-1.1.6a8.2 8.2 0 00-1.2.7l-1 .8-1.1.9a19.4 19.4 0 00-2.1 2 29.1 29.1 0 00-3.3 5.5 47.2 47.2 0 00-4.4 14 51 51 0 00.2 16.7 66.7 66.7 0 005.6 17.7 29.4 29.4 0 005.7 8 16 16 0 004 2.9 13 13 0 004.8 1.3 19 19 0 009.8-1.8 22.5 22.5 0 007.5-6.3 45 45 0 005-8l1.8-4.2a81.8 81.8 0 004.8-20.8 40.3 40.3 0 000-7.6 41.2 41.2 0 00-1.2-7 27.3 27.3 0 00-5.4-10.7 21.3 21.3 0 00-7.1-5.6 26.8 26.8 0 00-5.5-1.8l-1.4-.3z" fill="#e0e0e0"/><path d="M677.7 232.4a1.7 1.7 0 010 .4l.2 1.1.2 4c0 1.7 0 3.7.2 6a6.5 6.5 0 010 1.7 1.7 1.7 0 01-1.2 1.4 4.8 4.8 0 01-2 0l-1.8-.3-2-.2a7.5 7.5 0 01-1.8-.4 2 2 0 01-1.2-1.5 4.5 4.5 0 010-1.8c.6-2.1 1-4.1 1.3-5.8l.9-3.9.2-1a1.6 1.6 0 01.2-.4 1.6 1.6 0 010 .4 111 111 0 00-1 5l-1.1 5.9a4.3 4.3 0 00-.1 1.6 1.6 1.6 0 001 1.1 8 8 0 001.7.4l2 .3 1.8.3a4.8 4.8 0 001.8 0 1.3 1.3 0 001-1.1 7.2 7.2 0 000-1.7c-.2-2.2-.1-4.3-.1-6l-.1-4a11.5 11.5 0 01-.1-1.5zM654.7 251c-.2.2 2 4.5 2 4.5l6.1-11.5s-4.3 1.4-8.1 7zM682.5 245.9l3 12.4 3-3.2-6-9.2zM665.2 223.7l8.5 5.6 11.8-3.3zM693.5 282.5a2.3 2.3 0 01-.4.2l-1.4.5-1 .3-1.3.4-3 .7-1.7.4-2 .2c-1.3.3-2.7.3-4.3.4A53 53 0 01659 283l-4-1.5-1.8-.8-1.6-.9c-1-.4-2-1-2.7-1.5l-1-.6-1-.6-1.2-.9a2.4 2.4 0 01-.4-.3 2.6 2.6 0 01.5.3l1.2.7 1 .6 1 .6 2.7 1.5 1.6.8 1.8.7c1.3.6 2.6 1 4 1.5a54.8 54.8 0 0019.4 2.7c1.5 0 3-.2 4.3-.4l1.9-.2 1.7-.3 3-.7 1.3-.3 1-.3 1.4-.4a2.4 2.4 0 01.4-.2zM683.5 289.5a4.6 4.6 0 01-1 .4 10.7 10.7 0 01-1.2.4l-1.6.4a29.4 29.4 0 01-4.3.7 30.7 30.7 0 01-10.7-1 30 30 0 01-4.2-1.4l-1.5-.7-1.1-.7a5.5 5.5 0 01-1-.5l3.7 1.6a34.5 34.5 0 004.2 1.4 33.1 33.1 0 0010.5 1 33.5 33.5 0 004.3-.7c2.5-.4 4-1 4-1z" fill="#e0e0e0"/><path fill="#ebebeb" d="M714.3 180.6l2.5-2.5 13.6 13.1-2.5 2.5zM615 285.5l2.4-2.5L631 296l-2.4 2.5zM629.8 184.8l-2.2-2.7 14.8-11.8 2.2 2.8zM703 308.6l-2.1-2.8 14.8-11.7 2.2 2.7z"/><path d="M641.6 232.3a7.2 7.2 0 01.2 1.3 195.8 195.8 0 003.1 14.8c1.2 4.3 2.5 8.2 3.5 11l1.2 3.3a10 10 0 01.4 1.2 6.2 6.2 0 01-.5-1.2l-1.4-3.2a107.9 107.9 0 01-6-22.5l-.4-3.5a7.7 7.7 0 01-.1-1.2zM643 212.4a5.4 5.4 0 01.1 1l.3 3 1 9.6a441.3 441.3 0 001.6 12.5 7 7 0 010 1.1 5.5 5.5 0 01-.2-1l-.5-3a217.3 217.3 0 01-2.3-22.1 5 5 0 010-1.1zM705.6 242.4a7.4 7.4 0 01-.6 1.1l-1.7 2.9a445.5 445.5 0 00-11 19l-1.6 2.8a6.4 6.4 0 01-.7 1 6.9 6.9 0 01.5-1 164.2 164.2 0 016.8-12.7 224.5 224.5 0 017.6-12.2 7.5 7.5 0 01.8-.9zM708 223.5l-5 13.5c-2.9 7.5-5.4 13.3-5.5 13.2s2.2-6 5-13.4 5.4-13.3 5.5-13.3zM705.5 205.4a4 4 0 010 1l-.3 2.2a111.8 111.8 0 01-3.2 17.6 4.2 4.2 0 01-.3.8 3.3 3.3 0 01.1-.8l.5-2.3 1.5-7.6 1.2-7.7c0-.9.2-1.7.3-2.3a3.3 3.3 0 01.2-.9zM653.8 200.5l-3 9c-1.8 5-3.5 9-3.6 9s1.3-4 3.1-9 3.4-9 3.5-9zM707.6 196l-31-3.3-31-3.7c0-.1 14 1.3 31 3.3l31 3.7zM692.1 189l-13-1.3c-7.2-.8-13-1.5-13-1.7s5.9.5 13 1.3 13 1.5 13 1.7z" fill="#e0e0e0"/><circle cx="119.9" cy="84.6" r="36.4" transform="rotate(-81.8 119.9 84.6)" fill="#f5f5f5"/><circle cx="120.1" cy="84.6" r="33.1" transform="matrix(.08 -1 1 .08 26 197.3)" fill="#fff"/><path d="M135.3 85.2a5.7 5.7 0 01-1.2 0l-3.2.1h-11V83 70.7 67a8.4 8.4 0 01.2-1.4 11.7 11.7 0 010 1.4l.1 3.7v14.4l-.1-.2 10.8.1h3.2a7.7 7.7 0 011.2.2zM120.2 56.5a9.2 9.2 0 01.2 2.7 9.3 9.3 0 01-.2 2.8 9.1 9.1 0 01-.3-2.8 9 9 0 01.3-2.8zM135.3 61a8.6 8.6 0 01-1.8 2 9.2 9.2 0 01-2.1 1.8 9.2 9.2 0 011.8-2.1 9.2 9.2 0 012-1.8zM144.1 70.6a11.6 11.6 0 01-2.3 1.5 11.8 11.8 0 01-2.4 1.3 7.3 7.3 0 012.2-1.7 7 7 0 012.5-1.1zM149.3 84.9a17.8 17.8 0 01-3.8.2 17.8 17.8 0 01-3.8-.2 16.6 16.6 0 013.8-.2 16.7 16.7 0 013.8.2zM96.6 84.4a15.2 15.2 0 01-3.6.2 15.2 15.2 0 01-3.5-.2 15.2 15.2 0 013.5-.2 15.2 15.2 0 013.6.2zM100.3 95a16.3 16.3 0 01-2.7 2.5 15.4 15.4 0 01-3 2 16.3 16.3 0 012.8-2.4 15.4 15.4 0 013-2.1zM109.5 103.3a23.6 23.6 0 01-1.8 3.2 24.7 24.7 0 01-2 3.1 12.2 12.2 0 011.6-3.3 12.6 12.6 0 012.2-3zM120.2 114a16.7 16.7 0 01-.3-3.9 16.7 16.7 0 01.3-3.8 17 17 0 01.2 3.8 17 17 0 01-.2 3.8zM136.5 108.9a16.6 16.6 0 01-5.7-5 34.9 34.9 0 012.9 2.4 32.2 32.2 0 012.8 2.6zM144.2 100.6a13 13 0 01-2.5-2.2 13.6 13.6 0 01-2.2-2.5A12.6 12.6 0 01142 98a13.6 13.6 0 012.2 2.5zM100 74.2a10.2 10.2 0 01-2.2-2 10.2 10.2 0 01-2-2.2 10.2 10.2 0 012.3 2 10.2 10.2 0 011.9 2.2zM109.5 64.2a9.6 9.6 0 01-2.2-1.9 9.6 9.6 0 01-1.9-2.2 9.8 9.8 0 012.2 1.9 10 10 0 011.9 2.2z" fill="#e0e0e0"/><path d="M90.8 84.6a33 33 0 0131-32.9h-2a33 33 0 100 65.8h2a33 33 0 01-31-33z" fill="#ebebeb"/><path d="M87 82.4v3.3l.1 1.4.2 1.6.3 1.8a31.7 31.7 0 003 9 32.8 32.8 0 007.8 10l1.4 1.1 1.5 1a18 18 0 001.5 1l1.7 1 .8.4 1 .4 1.7.8 2 .6a16.4 16.4 0 002 .6 30.9 30.9 0 004 .8l2.2.2h4.4c.7-.2 1.5-.2 2.2-.3a35.6 35.6 0 004.5-1l1.1-.3.6-.2.5-.2 2.2-1c.7-.2 1.4-.6 2.2-1 .3-.2.7-.3 1-.6l1-.6a38 38 0 004-3l1.7-1.7.5-.4.4-.5.8-1 .8-1 .8-1 .7-1 .4-.5.3-.6 1.3-2.2 1-2.4a32.7 32.7 0 001.4-20.7l-.7-2.5c-.2-.9-.7-1.6-1-2.3l-.3-.6-.3-.6-.6-1.1-.6-1.2-.6-1-.7-1-.4-.6-.4-.5-1.5-2a37.9 37.9 0 00-3.5-3.4l-1-.8-1-.7c-.6-.4-1.3-1-2-1.3l-2-1.2-.5-.3-.6-.2-1-.5a35.4 35.4 0 00-4.3-1.6l-2.2-.5-1.1-.2-1.1-.2-2.2-.2h-2.1a30.6 30.6 0 00-4.2.2 16.7 16.7 0 00-2 .3l-2 .4-2 .6-.9.2-.9.4-1.7.7a18.5 18.5 0 00-1.7.8l-1.6.9-1.5 1a32.9 32.9 0 00-9 8.8 31.4 31.4 0 00-4.2 8.5 16.2 16.2 0 00-.6 1.8l-.3 1.6-.3 1.3-.2 1.2L87 82v0l.1-1.6.1-1.2.3-1.3.4-1.7a16.8 16.8 0 01.5-1.7 31.4 31.4 0 014.2-8.7 33.2 33.2 0 019-8.9l1.5-1 1.6-.8 1.7-.9 1.8-.7.9-.3 1-.3 1.9-.6 2-.4a17.7 17.7 0 012-.3 31.3 31.3 0 014.2-.2h2.2l2.2.2 1.1.2 1.1.2 2.2.5a36 36 0 014.4 1.6l1 .5.6.2.5.3 2 1.2c.8.4 1.4.9 2 1.4.4.2.8.4 1 .7l1 .8a37.3 37.3 0 013.6 3.4l1.5 2 .4.5.4.6.7 1 .7 1 .6 1.2.6 1.2.3.6.2.6 1 2.4.8 2.5a33 33 0 01-1.4 21l-1 2.4-1.4 2.3c0 .2-.2.4-.3.5l-.4.6-.7 1-.8 1-.8 1-.8 1-.4.5-.5.5-1.8 1.7a38.6 38.6 0 01-4 3l-1 .7-1 .6-2.2 1-2.2 1-.6.2-.6.1-1 .4a35 35 0 01-4.6 1l-2.3.2h-4.4c-.7 0-1.5 0-2.2-.2a29.8 29.8 0 01-4.1-.7 16.2 16.2 0 01-2-.6l-2-.7-1.8-.8-.9-.4-.8-.5-1.7-1a18.5 18.5 0 01-1.6-1l-1.5-1-1.3-1.2a32.9 32.9 0 01-7.8-10 31.2 31.2 0 01-3-9 15 15 0 01-.3-2l-.1-1.6-.1-1.4v-1.1V83l.1-.7z" fill="#e0e0e0"/><g><path d="M711 448.8c0 .2-152 .3-339.6.3S32 449 32 448.8s152-.2 339.6-.2 339.5 0 339.5.2z" fill="#263238"/></g><g fill="#263238"><path d="M225.3 449.2c-.1 0-.3-87.2-.3-194.7s.2-194.7.3-194.7.3 87.2.3 194.7-.2 194.7-.3 194.7zM470.9 449c-.1 0-.3-85.6-.3-191s.2-191.1.3-191.1.3 85.5.3 191-.1 191-.3 191z"/></g><g><path fill="#f1543e" d="M640.6 144.3h-7.5v-56h7.5z"/><path d="M633.5 95.8c0 .2 1.6.4 3.5.4s3.5-.2 3.5-.4-1.6-.3-3.5-.3-3.5.2-3.5.3zM633.3 94.6c0 .2 1.6.4 3.5.4s3.6-.2 3.6-.4-1.6-.3-3.6-.3-3.5.1-3.5.3zM633.5 140c0 .2 1.6.3 3.5.3s3.5-.1 3.5-.3-1.6-.3-3.5-.3-3.5 0-3.5.3zM633.3 138.7c0 .2 1.6.4 3.5.4s3.6-.2 3.6-.4-1.6-.3-3.6-.3-3.5.2-3.5.3zM637.1 131.4c.2 0 .4-6.4.4-14.3s-.2-14.4-.3-14.4-.4 6.4-.4 14.4.2 14.3.4 14.3z" fill="#fafafa"/><path fill="#263238" d="M681.7 144h-15V87.9h15z"/><path d="M677.5 144.7a1.7 1.7 0 00.2-.3l.4-1a16 16 0 001.1-3.8 9.8 9.8 0 00-.9-6.2 8 8 0 00-2.6-2.9 6.2 6.2 0 00-4.3-1 4.6 4.6 0 00-2.3 1 3 3 0 00-1 2.4 3.4 3.4 0 001.2 2.4 4.6 4.6 0 002.6 1 6.8 6.8 0 005.3-1.9 8.5 8.5 0 002.6-5.4 14.2 14.2 0 00-.7-6.2 11.5 11.5 0 00-3.7-5.5 6 6 0 00-3.3-1.3 4.2 4.2 0 00-3.3 1.2 2.7 2.7 0 00-.8 1.8 3.1 3.1 0 00.5 1.8 4.9 4.9 0 003 2.1 7 7 0 006.6-2.2 11 11 0 002.6-6.3 15.5 15.5 0 00-.7-6.6 9 9 0 00-3.8-5 6.6 6.6 0 00-6-.6 3.1 3.1 0 00-2 2.3 3.6 3.6 0 00.7 2.8 4.7 4.7 0 005 1.4 8.7 8.7 0 004-2.9 12.7 12.7 0 003-7.7 12.4 12.4 0 00-3.7-9.2l-.8-.7-.3-.2a14.3 14.3 0 013.2 4.2 12.2 12.2 0 011.2 6 12.4 12.4 0 01-3 7.3 8.3 8.3 0 01-3.8 2.7 4.1 4.1 0 01-4.4-1.2 3 3 0 01-.5-2.4 2.5 2.5 0 011.6-1.8 6 6 0 015.3.6 8.4 8.4 0 013.6 4.7 15 15 0 01.6 6.2 10.3 10.3 0 01-2.4 6 6.4 6.4 0 01-6 2 4.1 4.1 0 01-2.5-1.8 2.1 2.1 0 01.2-2.7 3.5 3.5 0 012.8-1 5.3 5.3 0 012.8 1 10.9 10.9 0 013.5 5.2 13.5 13.5 0 01.7 6 8 8 0 01-2.4 5 6.2 6.2 0 01-4.8 1.8 3.6 3.6 0 01-3.3-2.9 2.4 2.4 0 01.8-2 4 4 0 012-.9 5.7 5.7 0 014 1 7.8 7.8 0 012.6 2.7 9.7 9.7 0 011 6 17.9 17.9 0 01-1 3.7 13.5 13.5 0 00-.4 1.3z" fill="#fafafa"/><path fill="#f1543e" d="M666.6 144h-26V92.9h26z"/><path d="M666.6 144h-26V92.9h26z" opacity=".2"/><path d="M641.4 101.4c0 .2 5.7.3 12.6.3s12.6-.1 12.6-.3-5.6-.4-12.6-.4-12.6.2-12.6.4zM641.1 105.2c0 .2 5.6.4 12.4.4s12.5-.2 12.5-.4-5.6-.3-12.5-.3-12.4.1-12.4.3zM640.3 138.2c0 .2 5.8.3 13 .3s13.1-.1 13.1-.3-5.8-.4-13-.4-13.1.2-13.1.4zM640.6 133.6c0 .2 5.7.4 12.8.4s12.7-.2 12.7-.4-5.7-.3-12.7-.3-12.8.1-12.8.3z" fill="#e0e0e0"/><path fill="#f1543e" d="M548.2 144h-7.8V97.6h7.8z"/><path d="M548.2 144h-7.8V97.6h7.8z" opacity=".3"/><path fill="#e0e0e0" d="M540.3 144h-19.5V91h19.5z"/><path d="M520.5 94.8c0-.2 4.5-.3 10-.3s10 .1 10 .3a171.2 171.2 0 01-20 0zM521.6 97.3c0-.2 4.2-.3 9.4-.3s9.4.1 9.4.3a153.1 153.1 0 01-18.8 0zM530 133.6c-.2 0-.4-7-.4-15.7s.2-15.7.3-15.7.3 7 .3 15.7-.1 15.7-.3 15.7zM520.7 138.5a157.2 157.2 0 0119.1 0c0 .1-4.2.3-9.5.3s-9.6-.2-9.6-.3zM520.7 140.8a165.2 165.2 0 0119.6 0c0 .1-4.4.2-9.8.2s-9.8 0-9.8-.3z" fill="#fafafa"/><path fill="#f1543e" d="M563.7 144H548V91h15.7z"/><path d="M548 115.4a13.8 13.8 0 012.4 1.5l5.7 3.8 5.6 4a14 14 0 012.3 1.6 14 14 0 01-2.5-1.3l-5.8-3.8-5.5-4a13.7 13.7 0 01-2.2-1.8zM548 107a81 81 0 018 5.8 82.8 82.8 0 017.5 6.3 81.6 81.6 0 01-8-5.8 83.8 83.8 0 01-7.6-6.3z" fill="#fafafa"/><path fill="#f5f5f5" d="M613.9 105.6h9.3v11h-9.3z"/><path fill="#263238" d="M572.4 104.8h41.8v12.4h-41.8z"/><path d="M623.5 105.9H613v-1h10.4a.5.5 0 01.5.5.5.5 0 01-.5.5zM623.5 117.3H613v-1h10.4a.5.5 0 01.5.5.5.5 0 01-.5.5z" fill="#263238"/><path fill="#ebebeb" d="M606 104.8h4.9v12.4H606zM576.4 105h4.9v12.4h-4.9z"/><path d="M623.2 107.4h-9 9zM623.2 109h-9 9zM623.2 111h-9 9zM623.2 113h-9 9zM623.2 115.1h-9 9z" fill="#e0e0e0"/><path fill="#ebebeb" d="M584.5 109.9h18.8v2.2h-18.8z"/><path fill="#fafafa" d="M613.7 117.5h9.4v6.7h-9.4z"/><path fill="#455a64" d="M573.8 117.3h40v7.2h-40z"/><path d="M613.5 117.7h10.1a.2.2 0 00.3-.2.3.3 0 00-.3-.2h-10.1zM613.5 124.4h10.1a.3.3 0 00.3-.2.3.3 0 00-.3-.3h-10.1z" fill="#455a64"/><path d="M623 118.8h-9.2 9.3zM623 120h-9.2 9.3zM623 121.3h-9.2 9.3zM623 122.6h-9.2 9.3z" fill="#e0e0e0"/><path fill="#ebebeb" d="M614.9 125.1h9.6v18.2h-9.6z"/><path fill="#f1543e" d="M569.9 124.4h45v19.7h-45z"/><path d="M625.3 144.1h-11.6V143h11.6a.6.6 0 01.6.6.6.6 0 01-.6.6zM625.3 125.7h-11.6v-1.3h11.6a.6.6 0 01.6.7.6.6 0 01-.6.6z" fill="#f1543e"/><path d="M624.5 127.5H615h9.6zM624.5 129.8l-4.8.1H615l4.8-.1h4.8zM624.5 132.2H615h9.6zM624.5 134.5H615h9.6zM624.5 136.8H615h9.6zM624.5 139.2H615h9.6zM624.5 141.5H615h9.6z" fill="#e0e0e0"/><path d="M585.3 135.4v1c0 1.4-.7 2.1-2 2.1s-1.9-.7-1.9-2v-4.3a1.8 1.8 0 012-2.1c1.3 0 2 .8 2 2v.9H584v-1c0-.5-.3-.7-.7-.7s-.7.2-.7.8v4.4c0 .6.3.9.7.9s.7-.3.7-.9v-1.1zM586 132.2a2 2 0 114 0v4.3a2 2 0 11-4 0zm1.3 4.3c0 .6.3.9.7.9s.6-.3.6-.9v-4.4c0-.6-.2-.8-.6-.8s-.7.2-.7.8zM590.8 130.2h1.3v7h2v1.2h-3.3zM594.6 132.2a2 2 0 114 0v4.3a2 2 0 11-4 0zm1.3 4.3c0 .6.3.9.7.9s.7-.3.7-.9v-4.4c0-.6-.3-.8-.7-.8s-.7.2-.7.8zM600.7 130.2v6.4c0 .6.2.8.6.8s.7-.2.7-.8v-6.4h1.2v6.3c0 1.3-.6 2-1.9 2s-2-.7-2-2v-6.3zM606.8 138.4a2.5 2.5 0 010-1v-1.3c0-.7-.3-1-1-1h-.4v3.4h-1.3v-8.3h2c1.4 0 2 .7 2 2v.6a1.6 1.6 0 01-.9 1.7c.6.2.9.9.9 1.7v1.3a2.4 2.4 0 00.1 1zm-1.4-7v2.5h.5c.5 0 .8-.2.8-.9v-.8c0-.6-.2-.8-.7-.8z" fill="#ebebeb"/><path d="M585 120h-1v-.2h2.2v.3h-1l-.4 2.4h-.3zM588.1 120.5l-1.5 2.3c-.2.4-.4.5-.7.5a.7.7 0 01-.5-.2l.2-.2a.5.5 0 00.3.1c.2 0 .4 0 .5-.3l.2-.2-.6-2h.3l.4 1.7 1.1-1.7zM590.4 121.3a1.1 1.1 0 01-1.2 1.2.7.7 0 01-.7-.4l-.3 1.2h-.2l.6-2.8h.2v.3a1 1 0 01.7-.3.8.8 0 01.9.8zm-.3 0a.6.6 0 00-.7-.6.9.9 0 00-.8 1 .6.6 0 00.6.6.9.9 0 00.9-1zM590.7 121.7a1.1 1.1 0 011.1-1.2.8.8 0 011 .8 1.1 1.1 0 01-1.2 1.2.8.8 0 01-1-.8zm1.8-.3a.6.6 0 00-.7-.7.9.9 0 00-.9 1 .6.6 0 00.7.6.9.9 0 00.9-1zM595.4 120.5l-.4 1.8a1 1 0 01-1.2 1 1.3 1.3 0 01-.9-.3l.2-.2a1.1 1.1 0 00.8.2.8.8 0 00.8-.7v-.2a1 1 0 01-.8.3.8.8 0 01-.9-.8 1.1 1.1 0 011.2-1.1.8.8 0 01.8.4v-.4zm-.5.8c0-.4-.2-.6-.7-.6a.9.9 0 00-.8 1c0 .3.2.5.6.5a.9.9 0 00.9-.9zM597.1 120.5v.2h-.1a.8.8 0 00-.8.8l-.2 1h-.3l.4-2h.3l-.1.4a.9.9 0 01.8-.4zM599.4 120.5l-.4 2h-.2v-.3a1 1 0 01-.7.3.8.8 0 01-1-.8 1.1 1.1 0 011.2-1.2.8.8 0 01.8.4v-.4zm-.4.8a.6.6 0 00-.7-.6.9.9 0 00-.8 1 .6.6 0 00.6.6.9.9 0 00.9-1zM602 121.3a1.1 1.1 0 01-1 1.2.8.8 0 01-.9-.4l-.2 1.2h-.3l.6-2.8h.3l-.1.3a1 1 0 01.8-.3.8.8 0 01.9.8zm-.2 0a.6.6 0 00-.7-.6.9.9 0 00-.9 1 .6.6 0 00.7.6.9.9 0 00.9-1zM604.5 121.1a1 1 0 010 .3l-.2 1.1h-.3l.2-1.1a1.4 1.4 0 000-.2c0-.3-.1-.5-.5-.5a.8.8 0 00-.8.7l-.2 1.1h-.3l.6-2.8h.2l-.2 1.1a1 1 0 01.8-.3.6.6 0 01.7.6zM607 120.5l-1.5 2.3c-.2.4-.4.5-.7.5a.7.7 0 01-.5-.2l.2-.2a.5.5 0 00.3.1c.2 0 .3 0 .5-.3l.1-.2-.5-2h.3l.4 1.7 1.1-1.7z" fill="#e0e0e0"/><path fill="#455a64" d="M508.7 143.8h181.2v10.3H508.7z"/><path fill="#263238" d="M674.1 143.8h15.8v10.3h-15.8z"/></g><g><path d="M360.7 117.5a25.8 25.8 0 00-.3 2.7 13.2 13.2 0 001.7 7c.6 1.3 1.6 2.8 2.3 4.5a10 10 0 01.6 5.9 10.5 10.5 0 01-3.2 5.7 9.7 9.7 0 01-6.5 2.5 10.2 10.2 0 01-6.6-2.3 10.3 10.3 0 01-3-11.5 19.5 19.5 0 012.8-4.4 17.4 17.4 0 002.2-3.5 8.1 8.1 0 00.7-3 5.7 5.7 0 00-.6-2.5 2.2 2.2 0 01.3.6 4.8 4.8 0 01.5 2 8.1 8.1 0 01-.7 3 18.1 18.1 0 01-2.1 3.7 19 19 0 00-2.6 4.3 9.9 9.9 0 002.8 10.9 9.8 9.8 0 006.3 2.1 9.2 9.2 0 006.1-2.3 10.1 10.1 0 003-5.4 9.5 9.5 0 00-.4-5.6c-.7-1.7-1.6-3.1-2.3-4.5a13 13 0 01-1.5-7.2 11.1 11.1 0 01.3-2 3.5 3.5 0 01.2-.7z" fill="#e0e0e0"/><path d="M357 118.5a14 14 0 01-.3 1.9 50.3 50.3 0 00-.5 5.1 41.6 41.6 0 00.4 7.7 1.7 1.7 0 00.4.9.8.8 0 00.8.3c.5-.2.8-1 .7-1.7a3.2 3.2 0 00-6.4 0 1.4 1.4 0 00.9 1.5 1.3 1.3 0 001.4-.8 6.4 6.4 0 00.4-2v-2a31.2 31.2 0 000-3.6 35 35 0 00-1-5.1 15.5 15.5 0 01-.4-1.9 2.4 2.4 0 01.2.5l.5 1.3a30.2 30.2 0 011 5.2 33.4 33.4 0 01.2 3.6v2a7 7 0 01-.4 2.2 2.2 2.2 0 01-.8 1 1.5 1.5 0 01-1.3.1 2 2 0 01-1.2-2.2 3.8 3.8 0 017.4.1 2.6 2.6 0 01-.2 1.3 1.5 1.5 0 01-1 1 1.4 1.4 0 01-1.2-.5 2.2 2.2 0 01-.6-1.1 39.8 39.8 0 01-.2-7.8 41 41 0 01.7-5.2l.3-1.4a2.3 2.3 0 01.2-.5z" fill="#e0e0e0"/><path fill="#263238" d="M349.2 107.8l-45.1 15.1h102l-42.4-15.1h-14.5zM356.5 30.2a4.8 4.8 0 010 .8v2.2l.1 8.3.1 27v27.1l-.2 8.3v2.2a4.8 4.8 0 010 .8 4 4 0 010-.8l-.1-2.2-.1-8.3v-27-27.1-8.3l.1-2.2a4 4 0 010-.8z"/><path fill="#263238" d="M349.2 107.8l2.8-12.6h9.3l2.4 12.6h-14.5z"/></g><g><path fill="#263238" d="M177.6 167.4l10.8 34.2h-7.8l-3.4-11.8.4-22.4z"/><path fill="#455a64" d="M38.2 201.6h161.3v9.6H38.2z"/><path fill="#455a64" d="M60.6 209.1h7.8v14.8h-7.8zM161.3 209.1h7.8v14.8h-7.8zM43.6 156.9s-7.2 5.5-.3 12.8a.6.6 0 00.5.2l63.2-.4s5.4-6 1-13z"/><path d="M93 162.7H58s7.9-.2 17.6-.2l17.6.2zM83.2 165H66.7s3.7-.2 8.3-.2l8.2.1zM99.5 169.3l.4-1.9a26.4 26.4 0 00-.1-9.2l-.4-1.9a2 2 0 01.2.5l.3 1.4a22.3 22.3 0 01.6 4.6 23.2 23.2 0 01-.5 4.7c0 .5-.2 1-.3 1.3a2 2 0 01-.2.5zM104.2 156.4a2.1 2.1 0 01.3.5 6 6 0 01.3.5l.3.8a14.6 14.6 0 01.6 2.1 16.6 16.6 0 01.3 2.7 15.8 15.8 0 01-.2 2.7 13.8 13.8 0 01-.6 2l-.3.9a3.9 3.9 0 01-.3.5 2.5 2.5 0 01-.3.5l.7-1.9a14.6 14.6 0 00.5-2 16.5 16.5 0 00.2-2.7 16 16 0 00-.2-2.6 15 15 0 00-.5-2.1l-.8-1.9zM53.6 169.4l-.3-.4a4.9 4.9 0 01-.3-.5 5.6 5.6 0 01-.3-.8 10.7 10.7 0 01-.6-2 12.7 12.7 0 01-.3-2.5 13.2 13.2 0 01.4-2.6 11.4 11.4 0 01.6-2 7.8 7.8 0 01.4-.7 3.8 3.8 0 01.3-.5 2.3 2.3 0 01.3-.4s-.4.6-.8 1.7a11.7 11.7 0 00-.6 2 13.6 13.6 0 00-.3 2.5 14.8 14.8 0 00.2 2.5 13.4 13.4 0 00.6 2l.7 1.7zM46.8 171a2.5 2.5 0 01-.3-.5 4.3 4.3 0 01-.4-.6 8 8 0 01-.3-.9 13.6 13.6 0 01-.8-2.2 15.4 15.4 0 01-.3-2.8 16.1 16.1 0 01.2-2.9 13.6 13.6 0 01.6-2.3 8.8 8.8 0 01.4-.8 5.7 5.7 0 01.3-.6 2.4 2.4 0 01.3-.5l-.8 2a15.4 15.4 0 00-.6 2.2 16.7 16.7 0 00-.2 2.9 17 17 0 00.4 2.8 15.7 15.7 0 00.6 2.2l.9 2z" fill="#e0e0e0"/><path d="M104.7 188.8v12H81.3v-12z" fill="#ebebeb"/><path d="M29.1 195v.3a7 7 0 007 6.4h69.7v-.8H89.3a6 6 0 01-6-6 6 6 0 016-6h16.5v-1.4l-69.7.3a7 7 0 00-7 7.1z" fill="#f1543e"/><path d="M104.7 195l-10.7.1-10.8-.1 10.8-.1 10.7.1zM104.4 197.7l-10.2.1H84s4.5-.2 10.2-.2l10.2.1zM104.7 200.2l-9.1.1-9.2-.1 9.2-.1 9.1.1zM104.7 192.5c0 .1-4.7.2-10.5.2s-10.6 0-10.6-.2 4.8 0 10.6 0h10.5zM104.4 190c0 .2-4.2.2-9.4.2l-9.4-.1 9.4-.1h9.4z" fill="#e0e0e0"/><path d="M37.5 188a15.3 15.3 0 00-1.4 1.7 9.1 9.1 0 00-1.6 5.2 9.2 9.2 0 001.7 5.2 16.7 16.7 0 001.5 1.7 2.6 2.6 0 01-.5-.4 7.8 7.8 0 01-1.2-1.2 8.8 8.8 0 01-.1-10.6 8.7 8.7 0 011.1-1.3 2.4 2.4 0 01.5-.4z" fill="#f5f5f5"/><path d="M35.2 187.7a15.3 15.3 0 00-1.5 1.7 9 9 0 00.1 10.4 15.4 15.4 0 001.6 1.7 2.4 2.4 0 01-.5-.4 8 8 0 01-1.2-1.2 8.8 8.8 0 01-.1-10.6 7.8 7.8 0 011.1-1.3 2.3 2.3 0 01.5-.3zM82.6 188a15.3 15.3 0 00-1.5 1.7 9 9 0 00.1 10.4 16.7 16.7 0 001.5 1.7 2.6 2.6 0 01-.5-.4 7.8 7.8 0 01-1.1-1.2 8.8 8.8 0 01-.2-10.6 8.1 8.1 0 011.2-1.3 2.4 2.4 0 01.5-.4z" fill="#f5f5f5"/><path d="M80.2 187.7a15.3 15.3 0 00-1.5 1.7 9 9 0 00.1 10.4 15.4 15.4 0 001.6 1.7 2.4 2.4 0 01-.5-.4 8 8 0 01-1.2-1.2 8.8 8.8 0 01-.1-10.6 7.8 7.8 0 011.1-1.3 2.3 2.3 0 01.5-.3zM45.5 196.6v-4.9a3.6 3.6 0 00-.3-1.2 1.2 1.2 0 00-.9-.8 1.9 1.9 0 00-2 1 4.7 4.7 0 00-.5 2.4 33.7 33.7 0 00.2 3.9 4.4 4.4 0 00.5 1.7 1.6 1.6 0 001.5 1 1.7 1.7 0 001.3-1.2 4.8 4.8 0 00.2-1.9zM72.6 195.2s-5 .2-11.3.2l-11.2-.2 11.2-.1 11.3.1zM40.8 187.4l-.1-11.4h6.2l.2 11.4h-6.3z" fill="#f5f5f5"/><path d="M46.6 178a15.4 15.4 0 01-3 .1 15.4 15.4 0 01-2.8-.1 17.2 17.2 0 012.9-.1 17.2 17.2 0 012.9.1zM46.6 179.8a15.4 15.4 0 01-3 .1 15.4 15.4 0 01-2.8-.1 17.2 17.2 0 012.9-.1 17.2 17.2 0 012.9 0zM46.6 181.6a17.2 17.2 0 01-3 0 17.2 17.2 0 01-2.8 0 15.4 15.4 0 012.9-.2 15.4 15.4 0 012.9.2zM46.6 183.3a17.2 17.2 0 01-3 .2 17.2 17.2 0 01-2.8-.2 15.4 15.4 0 012.9-.1 15.4 15.4 0 012.9.1zM46.6 185.1a17.2 17.2 0 01-3 .1 17.2 17.2 0 01-2.8-.1 15.4 15.4 0 012.9-.1 15.4 15.4 0 012.9.1z" fill="#e0e0e0"/><path d="M40.4 175.7h69.1a32.3 32.3 0 010 12.4H40.7v-.9h4.2a2 2 0 002-2v-6.8a2 2 0 00-2-2h-4.5z" fill="#263238"/><path d="M56.7 181.9H58a.2.2 0 01.2.2v.4a3.4 3.4 0 01-.8 1.3 1.4 1.4 0 01-1 .5h-.1a1.2 1.2 0 01-.8-.6 2.6 2.6 0 01-.4-1.4 3.9 3.9 0 01.2-1 3.3 3.3 0 01.7-1.3 1.4 1.4 0 011-.6 1 1 0 01.4.1 1.4 1.4 0 01.7.9.3.3 0 010 .2.2.2 0 01-.3.1.2.2 0 01-.2-.1 1.2 1.2 0 00-.1-.3.7.7 0 00-.6-.3.7.7 0 00-.3.1 2.1 2.1 0 00-.7 1 3.4 3.4 0 00-.3 1.2 2.2 2.2 0 00.2 1 .7.7 0 00.6.5.8.8 0 00.6-.4 3.2 3.2 0 00.6-1h-.8c-.2 0-.3-.1-.3-.3a.3.3 0 01.3-.2zM60.6 179.6a1 1 0 010 .1c0 .2.4 1.6.8 4.3a.3.3 0 010 .2.2.2 0 01-.1.1.3.3 0 01-.2-.2l-.3-1.4h-1.5l-.7 1.4a.3.3 0 01-.2.2.2.2 0 01-.1 0 .3.3 0 01-.1-.2c0-.2 0-.3.2-.5l1.8-3.9a.3.3 0 01.2-.2.3.3 0 01.2.1zm-.3 1l-.7 1.6h1zM64.5 184.3h-2a.2.2 0 01-.2 0 .4.4 0 01-.1-.3l.5-4.2a.3.3 0 010-.1.2.2 0 01.3-.2.2.2 0 01.2.3l-.1 1.1-.4 3H64.6a.2.2 0 01.2.1v.1a.3.3 0 01-.3.2zM67.3 179.6a1 1 0 010 .1l.9 4.3a.2.2 0 010 .2.2.2 0 01-.2.1.2.2 0 01-.2-.2l-.3-1.4H66l-.7 1.4a.3.3 0 01-.2.2.2.2 0 01-.2-.2.2.2 0 010-.1c0-.1 0-.3.2-.5l1.7-3.8a.3.3 0 01.3-.2.3.3 0 01.3.1zm-.3 1l-.7 1.6h1zM70.7 182l.3 1 .4 1a.2.2 0 010 .2.3.3 0 01-.2 0 .2.2 0 01-.2-.1v-.1l-.6-1.5-1.2 1.6a.3.3 0 01-.2.2.3.3 0 01-.1 0 .2.2 0 01-.2-.2.1.1 0 010-.1.5.5 0 01.2-.2l1.3-1.8-.2-.4-.6-1.9a.3.3 0 010-.1.2.2 0 01.2-.1.3.3 0 01.2.1l.7 1.9 1.4-1.9a.3.3 0 01.2-.1.2.2 0 01.2.2.6.6 0 010 .2zM75.8 179.5h.2a.3.3 0 010 .2l-.5 4.4a2.7 2.7 0 01-.4 1.1 1.6 1.6 0 01-1.4.7 1.6 1.6 0 01-.7-.2 1.5 1.5 0 01-.7-.6.2.2 0 010-.1.3.3 0 010-.2.2.2 0 01.2 0 .3.3 0 01.2 0 1.3 1.3 0 001 .6 1 1 0 00.9-.4 2.4 2.4 0 00.4-1.3 1.2 1.2 0 01-.3.3 1.3 1.3 0 01-.7.3h-.2a1 1 0 01-.8-.6 2.6 2.6 0 01-.3-1.4 7 7 0 010-.8l.3-1.8a.2.2 0 01.2-.2.3.3 0 01.1 0 .2.2 0 01.1.2v1a13.5 13.5 0 00-.2 1.4 2.8 2.8 0 00.2 1.1c.1.4.3.5.6.5a1.1 1.1 0 00.7-.5 3 3 0 00.5-1.1l.3-2.4a.4.4 0 010-.1.2.2 0 01.3 0z" fill="#fafafa"/><path d="M107 188.2l-.1-6.3.1-6.4.1 6.4-.1 6.3z" fill="#f5f5f5"/><path d="M50.3 188.2l-.1-6.3.1-6.4a82.3 82.3 0 010 12.7z" fill="#e0e0e0"/><path d="M108.2 188.2a79.1 79.1 0 010-12.7v12.7z" fill="#f5f5f5"/><path d="M49.2 188.2L49 182v-6.4s.2 2.9.2 6.4l-.1 6.3zM90.2 177.6l7.3 5.9-1 .3-6.2 1.6-5.6-2.3-1.6-.7-.4-.2h-.1.1l.4.2 1.6.6 5.6 2.4 6.2-1.7 1-.2-7.3-5.9" fill="#e0e0e0"/><path fill="#e0e0e0" d="M96.8 182.6l.4.3h.5l-.2.4.3.5h-.6l-.3.3-.1-.5-.5-.2.5-.3v-.5zM89.8 184.9l.3.2h.3l-.1.3.2.2H90l-.2.3v-.3l-.4-.2.3-.2v-.3zM82 181.7h.5l.3-.3v.4l.5.2-.4.2v.4l-.4-.2h-.4l.2-.3-.3-.4zM100 177.7h.5l.3-.3.1.4.4.1-.4.3v.4l-.3-.3-.4.2.1-.4-.2-.4zM89.8 177.4h.3l.2-.2v.3h.3l-.2.2v.3l-.3-.2-.2.1v-.5z"/><path d="M100.7 178l-5.3-.2-5.3-.2 5.3.1 5.3.3z" fill="#e0e0e0"/><path d="M103.3 175.6H33.3c-1-2.1-1.2-4.1 0-5.9h70.2a6.7 6.7 0 010 5.9z" fill="#f1543e"/><path fill="#ebebeb" d="M47.7 171.4h38v2.1h-38z"/><path d="M35.9 175.6a2 2 0 01-.6-.7 5.2 5.2 0 01-.6-2 5.1 5.1 0 01.2-2.2 2.2 2.2 0 01.5-.8 6.6 6.6 0 01-.3.8 6 6 0 00-.2 2 6.2 6.2 0 00.6 2 6 6 0 01.4.9z" fill="#e0e0e0"/><path d="M37.4 175.6a2 2 0 01-.6-.7 5 5 0 01-.6-2 5 5 0 01.3-2.2 2 2 0 01.4-.8 6.6 6.6 0 01-.3.8 5.8 5.8 0 00-.1 2 6.2 6.2 0 00.5 2 6 6 0 01.4.9zM100.5 175.5a12.5 12.5 0 00.5-2.9 12.2 12.2 0 00-.5-2.9 5.2 5.2 0 01.8 2.9 5.2 5.2 0 01-.8 2.9zM99.2 175.4s.2-1.2.2-2.8-.3-2.7-.2-2.7a8.5 8.5 0 010 5.5z" fill="#f5f5f5"/><path fill="#263238" d="M129.5 139.4h48.1v62.8h-47.8l-.3-62.8z"/><path fill="#f5f5f5" d="M173.8 201.9h-48v-62.2h48z"/><path d="M174 139.4v62.7h-48.3v-62.7zm-.4 62.2V140h-47.4v61.7z" fill="#263238"/><path fill="#fff" d="M130.9 146.4h36.7v48.7h-36.7z"/><path d="M130.9 146.4v48.7h36.6-.1v-48.7.1h-36 36.1V195.4h-36.7v-.1V160v-10-3.3a1.8 1.8 0 010-.3z" fill="#263238"/><path d="M125.8 201.9a6 6 0 01.7-1l1.7-2.5 1.8-2.3a5.9 5.9 0 01.9-1 6 6 0 01-.7 1l-1.8 2.5-1.8 2.4a7 7 0 01-.8.9zM126 139.7a37.2 37.2 0 012.6 3.3 36.2 36.2 0 012.3 3.4 35.1 35.1 0 01-2.5-3.3 34 34 0 01-2.4-3.4z" fill="#263238"/><path fill="#fff" d="M173.8 139.7l-6.3 7"/><path d="M167.5 146.7a44.1 44.1 0 013-3.6 45.2 45.2 0 013.3-3.4 44.1 44.1 0 01-3 3.6l-3.3 3.4zM173.8 201.9a40 40 0 01-3-3.3 38.4 38.4 0 01-3-3.4 42.1 42.1 0 013.1 3.3 44.6 44.6 0 013 3.4z" fill="#263238"/><path d="M132.6 195.1s4-12.2 6.3-13.5a22.4 22.4 0 0110.3-2.8c5.4 0 8 .4 11.2 2.6 3.7 2.5 6.2 13.6 6.2 13.6" fill="#f1543e"/><path d="M145 178.3v-.1c-3.3-.5-5-3.7-5.1-7.7a48.5 48.5 0 010-6.7 35 35 0 011-7.9 9.6 9.6 0 018-3c5.3.3 8 7.3 8 7.3s0 10.6-.4 12.8a17.8 17.8 0 00-.3 2.9v2.6a5.5 5.5 0 01-5.6 5.3 5.5 5.5 0 01-5.5-5.5z" fill="#ffbe9d"/><path d="M156.6 166.9s3.6-1.1 3.5 2.5-3.7 2.8-3.7 2.7l.2-5.2z" fill="#ffbe9d"/><path d="M157.5 170.8h.2a.6.6 0 00.5 0 1.6 1.6 0 00.7-1.3 2 2 0 00-.1-1 .7.7 0 00-.5-.4.3.3 0 00-.4.1v.2s-.1 0 0-.2a.4.4 0 01.1-.2.4.4 0 01.3 0 .9.9 0 01.7.5 2.2 2.2 0 01.2 1 1.6 1.6 0 01-1 1.6.7.7 0 01-.6-.2v-.2z" fill="#eb996e"/><path d="M141.9 166s.7-.4 1.5-.4 1.5.4 1.6.3 0-.2-.3-.4a2.2 2.2 0 00-1.3-.4 2 2 0 00-1.2.4c-.3.2-.4.4-.3.4zM150.2 165.8c.1 0 .7-.4 1.6-.4s1.5.5 1.6.4 0-.3-.4-.5a2.1 2.1 0 00-1.2-.4 2.2 2.2 0 00-1.3.4l-.3.5zM151.1 163c0 .2.6.3 1.2.4s1 .5 1.1.4 0-.3-.1-.5a1.8 1.8 0 00-.9-.5 1.8 1.8 0 00-1 0c-.2 0-.3.2-.3.3zM142.4 162.7c.2.2.7.2 1.2 0s.9-.3.7-.5a1.6 1.6 0 00-1.2 0c-.5.1-.8.4-.7.5zM148.2 172.3l.3.2a1.2 1.2 0 001.3-1v-.4s-.2.5-.7.8l-.9.4z" fill="#263238"/><path d="M145 178.2s4.4 0 5.5-.7c0 0-.7 2-5.3 1.9z" fill="#eb996e"/><path d="M137.7 159.5c0-.8-.3-1.7-.4-2.5a4.6 4.6 0 011.6-3.4 5.5 5.5 0 013.5-1.3 25 25 0 002.9 0 24 24 0 002.3-.7 6 6 0 014.8.9 16.6 16.6 0 013.8 3.3s3.7.1 3.5 5.4-.5 5.9-.5 5.9l-1.2-.4a2.6 2.6 0 01-.2 1.7 1 1 0 01-.8.5c-.7 0-1-.8-1-1.5l-.4-5.3c0-.5-.1-1.2-.6-1.3a1.8 1.8 0 00-.9.2 1.6 1.6 0 01-1.6-.5c0 .6-1 1-1.6.7a3.2 3.2 0 01-1.3-1.6 2.9 2.9 0 010 1.2 1 1 0 01-1 .6c-.4 0-.7-.4-1-.8a10.6 10.6 0 01-1-3 6.3 6.3 0 01-2.6 4l-.4-1.4a2.8 2.8 0 01-.6.7 1 1 0 01-1 .2.6.6 0 01-.3-.6 1 1 0 01-1.4.3 1 1 0 01-.4-.4 33 33 0 01-.1 8l-1.2-2.7a10.8 10.8 0 01-1-5.2 6.7 6.7 0 000-1z" fill="#263238"/><path d="M155.9 156.6l.3-.6a2.3 2.3 0 012.5-1l.6.1h-.1a2.2 2.2 0 00-.4-.3 2.3 2.3 0 00-1.6.1 2.4 2.4 0 00-1.1 1 1.7 1.7 0 00-.2.5v.2z" fill="#263238"/><path d="M155.4 156.5l.2-.1a2.9 2.9 0 001-2 3 3 0 00-.4-1.7 2.5 2.5 0 00-.3-.4l-.2-.2.4.6a3.2 3.2 0 01.4 1.7 3 3 0 01-.6 1.5l-.5.6zM146.6 167.8l-.3.5-.2.6-.1.3a1.4 1.4 0 000 .4.6.6 0 000 .5.7.7 0 00.5.2.8.8 0 00.4 0 1 1 0 00.3-.1l.3-.5-.5.2a.7.7 0 01-.4 0 .4.4 0 01-.2 0 .3.3 0 01-.1-.2 1 1 0 010-.4l.1-.3.2-.6v-.6z" fill="#263238"/><path d="M157.8 162.1a.8.8 0 00.1-.3v-.7a8.1 8.1 0 000-2.3 4 4 0 00-1.2-2 2.3 2.3 0 00-.6-.4.8.8 0 00-.2 0 4.2 4.2 0 01.7.5 4.2 4.2 0 011.1 2 9.3 9.3 0 01.2 2.3 7.8 7.8 0 000 .9zM154.7 160.8a2.2 2.2 0 00.4-.6 4.9 4.9 0 00.8-3.1 1.9 1.9 0 00-.2-.7v.7a5.6 5.6 0 01-.1 1.6 5.9 5.9 0 01-.6 1.5 5.7 5.7 0 00-.3.6zM146.8 157.5a.6.6 0 000-.1v-.3a10.8 10.8 0 01.1-1.4 4 4 0 01.7-1.7 2.4 2.4 0 011-.7 3.2 3.2 0 011-.4 4.7 4.7 0 012.4.4 5.7 5.7 0 01.9.6 6 6 0 01.6.6 5 5 0 01.8 1l.2.5v-.2a2.7 2.7 0 00-.1-.3 4.6 4.6 0 00-.8-1 4.5 4.5 0 00-.6-.7 5.7 5.7 0 00-1-.6 4.7 4.7 0 00-2.3-.4 3.3 3.3 0 00-1.2.3 2.7 2.7 0 00-1 .8 4 4 0 00-.6 1.8 9.8 9.8 0 000 1.3v.5z" fill="#455a64"/><path d="M142.7 158.3v-.5l.4-1.3a8 8 0 01.7-1.8 4.2 4.2 0 011.8-1.7 5.4 5.4 0 012.4-.5 9.4 9.4 0 012 .3c.6 0 1 .2 1.3.3h.4a.4.4 0 00.1 0h-.5l-1.3-.5a8.8 8.8 0 00-2-.2 5.3 5.3 0 00-2.4.5 4.1 4.1 0 00-1.8 1.7 7.6 7.6 0 00-.8 1.9l-.3 1.3v.4a1.2 1.2 0 000 .1zM140.6 159v-1a5.7 5.7 0 01.2-2.5 2.8 2.8 0 01.8-1.1 2.2 2.2 0 012-.5h-.3a1.6 1.6 0 00-.8 0 2.3 2.3 0 00-1 .4 3 3 0 00-.8 1.2 5.3 5.3 0 00-.2 2.5v.8a1.2 1.2 0 00.1.2z" fill="#455a64"/><path d="M152.3 169.9v-.2-.1s-.1 0 0 .1v.2zM150.8 169.6l.1-.1c.1-.1 0-.1 0-.1h-.1c-.1 0 0 .2 0 .2zM151.6 170.5v-.2-.1V170.5zM153.5 170.3v-.2c0-.2 0-.1-.1-.1s0 0 0 .2 0 .1 0 .1z" fill="#eb996e"/><path d="M150.7 167.3a.8.8 0 00.7.9.8.8 0 00.9-.6.8.8 0 00-.7-.9.8.8 0 00-.9.7zM142.8 167.3a.8.8 0 00.7.9.8.8 0 00.9-.6.8.8 0 00-.7-.9.8.8 0 00-.9.7zM199 211.2c0 .2-36 .3-80.2.3s-80.2-.1-80.2-.3 35.9-.2 80.2-.2 80.2 0 80.2.2z" fill="#263238"/></g><g><path d="M487.2 356.6h48.3v92.3h-60v-80.7a11.6 11.6 0 0111.7-11.6z" fill="#455a64"/><path d="M549.5 289.1l-6.4 61.3c-1 10.4-.6 26 16 27 14.4-.3 19.5-13.5 20.5-23.2l1-9s15.8.3 18.5-15c1.3-7.5 2.8-23 4-37a29 29 0 00-24.1-31l-1.5-.2c-16.2-1.8-26.7 11-28 27.1z" fill="#ffbe9d"/><path d="M580.6 345.3a37.6 37.6 0 01-19-9.3s3 12 18.5 13.2z" fill="#eb996e"/><path d="M576 297.1c-.3.3-2-1.3-4.5-1.6s-4.6.8-4.9.4c0-.1.3-.7 1.2-1.2a6.4 6.4 0 014-.7 6.3 6.3 0 013.6 1.7c.6.7.8 1.3.7 1.4zM575.8 303a2.1 2.1 0 01-2.3 1.8 2 2 0 01-1.9-2.2 2.1 2.1 0 012.4-1.8 2 2 0 011.8 2.3zM580.9 315.7a16.5 16.5 0 014 0c.6 0 1.2 0 1.4-.4a3.1 3.1 0 00-.1-1.8l-1-5c-1.4-7-2.3-12.5-2-12.6s1.6 5.5 3 12.5l.9 4.9a3.6 3.6 0 010 2.4 1.6 1.6 0 01-1.2.7 3.6 3.6 0 01-1 0 17 17 0 01-4-.7zM575.9 287.3c-.3.5-2.4 0-4.9-.2s-4.5.3-4.8-.3c0-.3.3-.8 1.2-1.2a8 8 0 013.8-.7 7.8 7.8 0 013.6 1c.8.6 1.2 1.1 1 1.4zM600 294.3c-.3.5-2.3-.2-4.7-.5s-4.5-.2-4.7-.7c-.1-.3.3-.6 1.2-1a8.6 8.6 0 013.7-.2 8.8 8.8 0 013.5 1.2c.8.5 1.1 1 1 1.2z" fill="#263238"/><path d="M549 300.7c-.3-.2-10-4.9-11.5 5.7s9.4 9.8 9.5 9.5l2-15.2z" fill="#ffbe9d"/><path d="M544.3 311.4l-.5.3a1.9 1.9 0 01-1.4-.2c-1-.6-1.8-2.5-1.6-4.4a6.1 6.1 0 011-2.5 2.1 2.1 0 011.5-1.3 1 1 0 011 .7v.5s.3-.1.3-.6a1.2 1.2 0 00-.4-.7 1.4 1.4 0 00-1-.4 2.6 2.6 0 00-2.1 1.4 6.4 6.4 0 00-1 2.8c-.2 2.2.6 4.3 2 5a2 2 0 001.8 0c.4-.3.4-.5.4-.6z" fill="#eb996e"/><path d="M577.7 322.8c.2-.2-1.9-1-3.1-3.1a11.7 11.7 0 01-1.2-3l-.6-1.2v1.4a8 8 0 001 3.2 6.3 6.3 0 002.6 2.3c.7.4 1.3.5 1.3.4zM536.4 282.3c2.5-3.6 3.5-8 5-12s4.4-8.2 8.6-9.3h.1c3.8-1 8.3-.7 11.1 2.2 1.3-5.5 6.5-9.4 12-10.3s14 .7 19 3.2c3.8 2 7.4 5.7 11.6 11a52.9 52.9 0 014.8 7l3.4 14.8-4.7 7.2-1 1.5-5 15.6c.2-4.3 1.9-19.4 2-23.8a24.3 24.3 0 01-16.5-9.6c-2.1-2.9-3.7-6.3-6.7-8.2-4-2.4-9-1.4-13.4-.3l.2-.1a19.4 19.4 0 00-6.4 3.8 60.5 60.5 0 01-5 25.2c-.5 1.2-1.9 3.7-3.1 4-2.5.7-2.9-1.7-4.2-3.2-1-1-2.5-1.3-4.2-1.4a93.7 93.7 0 01-2-11.3 9.6 9.6 0 01-4.4-.1l1.7-3.2a5.1 5.1 0 01-2 .7 1.8 1.8 0 01-1.8-1c-.3-.8.4-1.7.9-2.4z" fill="#263238"/><path d="M566 265.4a13.1 13.1 0 00-1.8 1.2 11.2 11.2 0 00-2.8 5 19.7 19.7 0 00-.8 3.8l-.2 4.6a39.5 39.5 0 01-.3 5 18.2 18.2 0 01-.6 2.7 5.7 5.7 0 01-1.4 2.5 2.3 2.3 0 01-2.2.5 3.5 3.5 0 01-1.9-1.2 8 8 0 01-1-4.1h.2a13.3 13.3 0 01-2.2 3.1 4.6 4.6 0 01-3.1 1.4 3 3 0 01-1.6-.4 2.6 2.6 0 01-1-1.2 2.8 2.8 0 01-.2-1.4 2 2 0 01.6-1.2l.2.2a10.1 10.1 0 01-3.6 2.2 8.6 8.6 0 01-1 .3 1.8 1.8 0 01-.4 0h.4l1-.4a10.4 10.4 0 003.4-2.3l.1.2a2 2 0 00-.3 2.3 2.3 2.3 0 001 1 2.7 2.7 0 001.3.3 4.3 4.3 0 003-1.2 12.9 12.9 0 002-3l.3-.5v.5a7.8 7.8 0 001.1 4 3.1 3.1 0 001.8 1.1 2 2 0 002-.5 5.3 5.3 0 001.1-2.3 17.3 17.3 0 00.6-2.6 40.1 40.1 0 00.4-5c0-1.6 0-3.1.2-4.6a19.4 19.4 0 01.9-3.9 11 11 0 013-5 6.3 6.3 0 011.7-1.1zM612.3 284.8l-.1.1-.4.3a5.5 5.5 0 01-.7.3 7.4 7.4 0 01-1 .4 13.7 13.7 0 01-6.7.6 17.6 17.6 0 01-9-4.3 30.6 30.6 0 01-7.2-10c-1-2-1.7-4-2.5-5.8a20.3 20.3 0 00-3-5 10.6 10.6 0 00-4.2-3.2 7.8 7.8 0 00-2.3-.4 8.2 8.2 0 00-2.2.2 9 9 0 00-3.4 1.6 8.9 8.9 0 00-2 2.1 11 11 0 00-1 2.3v-.2l.1-.5a7.6 7.6 0 01.8-1.7 9 9 0 012-2.2 9.2 9.2 0 013.4-1.7 8.3 8.3 0 012.3-.2 7.8 7.8 0 012.4.4 11 11 0 014.3 3.2 20.9 20.9 0 013.1 5.1l2.5 5.9a30.5 30.5 0 007.1 9.8 17.5 17.5 0 008.8 4.3 14 14 0 006.7-.4 20.3 20.3 0 002.2-1z" fill="#455a64"/><path d="M599.6 300.3c-.4.2-2-1.4-4.6-1.7s-4.6.8-4.9.5c0-.2.3-.7 1.2-1.3a6.5 6.5 0 014-.7 6.3 6.3 0 013.5 1.7c.7.7 1 1.3.8 1.5zM597.4 305a2 2 0 01-2.4 1.8 2 2 0 01-1.8-2.2 2 2 0 012.3-1.8 2 2 0 011.9 2.3zM607.5 272.2c1.1 1.8 3 3.6 5.2 3.6a17.3 17.3 0 002.4-.4c.7.5.2 3.1-.4 3.8a13.7 13.7 0 01-1.8 1.5c2.4 1.6 4.8 1.2 7.6.5a13.4 13.4 0 01-9 9.8c-1.4.4-3.1.5-4.3-.4a5.4 5.4 0 01-1.5-3.5 58.3 58.3 0 01-.4-14.4z" fill="#263238"/><path d="M579 359.6s9.7 4 15.2 17.5c4 9.5 25.6 39.5 25.6 39.5l57.8 12.8 2 18.4-92.4-.8-12.8-40.8z" fill="#f1543e"/><path d="M569 449l14.5-79.3-3-10.8 2-9.2-39.8-15.8-2.7 8.7-10.2 4.3c-9.5 4-21.6 13.2-25.7 22.6-9.8 22.7-21 38.8-21 79.2" fill="#f1543e"/><path d="M582.5 366.1a4.4 4.4 0 010 .8l-.4 2.4-1.5 8.8a1542 1542 0 01-13.8 65.9l-.6 2.3a4.3 4.3 0 01-.2.8 4.3 4.3 0 010-.8l.5-2.4 1.9-8.7 6-28.6a2318.2 2318.2 0 007.9-39.7 4.5 4.5 0 01.2-.8z" fill="#263238"/><path d="M518.2 391.8a78.1 78.1 0 0043.7 53.5 517.6 517.6 0 01-43.7-53.5zM581.1 374c2.1 10 .6 22.2-4.4 31l-1.2-2.6c1.7-7.4 4.2-20.5 5.6-28.3" opacity=".3"/><path d="M676.5 430.3c.5-.8 7-8.2 8.7-8.2s3.7 2 3.7 2 2.2-1 3.7-.5 8.5 6.4 8.5 8.7v3.7a9.7 9.7 0 010 3c-.3 1.7-4.5 4.7-4.5 4.7h-23.9s-4.5-3-4-6 7.8-7.4 7.8-7.4z" fill="#ffbe9d"/><path d="M688.9 424a10.2 10.2 0 011.5 1l4 2.4a13.2 13.2 0 011.3.9 3.4 3.4 0 011 1.5 7.3 7.3 0 01.2 1.8l.1 2 .4 8.4v1.6h-.2l-1.4.4a3 3 0 01-2-.7 5.3 5.3 0 01-1.2-1.5 12.7 12.7 0 01-1.2-3.2 27.9 27.9 0 01-.8-5.7v.2l-4-1.7a9.3 9.3 0 01-1.6-.6 9.8 9.8 0 011.6.4l4.2 1.5h.1v.2a29.7 29.7 0 001 5.6 12.4 12.4 0 001.2 3 3.3 3.3 0 002.6 2l1.4-.4-.2.3V442l-.5-8.5v-1.9a6.6 6.6 0 00-.2-1.7 3 3 0 00-.8-1.3 12 12 0 00-1.2-.9l-3.9-2.6a9 9 0 01-1.4-1zM672.7 442.9a8 8 0 011.6-.2l4.4-.4a47.8 47.8 0 005 .9 26.3 26.3 0 002.8.2 3.2 3.2 0 002.7-.7 2.3 2.3 0 00.4-1.5l-.1-1.7a2 2 0 00-.7-1.2 5 5 0 00-1.2-.9 9 9 0 00-5-.9 4 4 0 01-3.5-1.3 1.8 1.8 0 01-.4-1.3 4.2 4.2 0 00.6 1.1 3.9 3.9 0 003.2 1.1 9.2 9.2 0 015.4.9 5.5 5.5 0 011.3 1 2.6 2.6 0 01.8 1.6c0 .5.2 1 .1 1.7a2.8 2.8 0 01-.5 1.8 2.6 2.6 0 01-1.5.8 6.6 6.6 0 01-1.6.1 26.9 26.9 0 01-3-.2 45.8 45.8 0 01-5-1h.2l-4.4.1a7.5 7.5 0 01-1.6 0z" fill="#eb996e"/><path d="M697 442.8a42.6 42.6 0 012-4.4c1-2.4 2-4.3 2.2-4.2a20.3 20.3 0 01-1.7 4.5 13 13 0 01-2.4 4z" fill="#eb996e"/><path d="M517 390s42 57.3 48.6 57.3H627v-23.2l-46.4-11s-23-47.4-28-53.5-18.6-14.2-28.7-5.1-7 35.6-7 35.6z" fill="#f1543e"/><path d="M627 426.3l10-.8s.3-3.7 2.5-5 2-4.2 3.3-4a5.8 5.8 0 002.2 0l8.3-7 7-4.7 5.5-1s3.3.8 0 4l-3.5 2-3 3 7-3.5a2.4 2.4 0 012 0 30.4 30.4 0 015.4 3 1.5 1.5 0 010 2.2l3.1 2.7s.7 3.5-2.9 2.6l-2.8-.6-3.8 3.7s12.8-2.6 13.7-2.2 2 2.4 0 4.2-9.7 1.3-11.5 3-13.3 12.4-16.2 13-26.3 6.4-26.3 6.4z" fill="#ffbe9d"/><path d="M676.9 417.1a13.9 13.9 0 01-1.8-1.2 56.4 56.4 0 00-3-2 2.6 2.6 0 00-1.1-.5 7.1 7.1 0 00-2.5 1l-2 1.1a9.5 9.5 0 01-1.9 1 6.5 6.5 0 011.7-1.4 23.7 23.7 0 013.2-1.9 3.5 3.5 0 011.5-.4 1.3 1.3 0 01.5 0 3.3 3.3 0 01.3.2l.7.3 1.1.8 1.8 1.5 1.5 1.5zM646 415.6c0 .2-1 1-2.2 2.2s-2.2 2.2-2.3 2a7.7 7.7 0 012-2.4 6.5 6.5 0 012.5-1.8z" fill="#eb996e"/><path d="M552.6 359.6a28.5 28.5 0 012.4 3.6l6 10.6c5 9.3 11.8 22.8 19.8 39.2l-.2-.1 46.5 10.9h.2v23.8H566a5.2 5.2 0 01-.7 0 2.6 2.6 0 01-.8-.3 8.2 8.2 0 01-1.3-.7 25.2 25.2 0 01-2.2-1.9 110 110 0 01-7.7-8 919.8 919.8 0 01-30.2-38.1l-4.6-6.3-1.2-1.6-.4-.6.4.5 1.3 1.7 4.7 6.2c4.1 5.4 10 13.2 17.7 22.7 3.8 4.7 8 9.9 12.7 15.2a109.2 109.2 0 007.6 8 24 24 0 002.2 1.8 7 7 0 001.2.7 2.4 2.4 0 001.4.2H627l-.3.3v-23.3l.3.3-46.5-11h-.1v-.1a1470.2 1470.2 0 00-25.5-50l-1.7-2.6c-.5-.6-.6-1-.6-1zM546.5 356s-1.4-.6-3.8-1a29.6 29.6 0 00-4.2-.7 33.4 33.4 0 00-5.2 0 32 32 0 00-5 .9 30 30 0 00-4 1.4c-2.3 1-3.5 1.8-3.6 1.7a3.9 3.9 0 01.9-.6 19.1 19.1 0 012.5-1.5 26 26 0 014-1.5 27.5 27.5 0 0110.4-1 26.1 26.1 0 014.3.8 18.7 18.7 0 012.7.9 3.7 3.7 0 011 .5z" fill="#263238"/><path d="M572.1 423.7a16.4 16.4 0 013.1-5.4 16 16 0 014.6-4.3c.1.1-2 2-4.1 4.6s-3.4 5.2-3.6 5zM570.7 416.6a9.2 9.2 0 014-2.4 9.4 9.4 0 014.6-.7c0 .2-2 .4-4.4 1.2s-4.1 2-4.2 1.9zM621 447.8l86.1 1.1 27.7-77.7a3.3 3.3 0 00-1.7-4.1 3.3 3.3 0 00-4.4 1.8l-27.3 73.6-80.4.8a2.2 2.2 0 00-2.2 2.3 2.2 2.2 0 002.2 2.2z" fill="#263238"/></g><g><path fill="#936760" d="M385.1 329.3l-8.9-3.3-34-1-8 2.1 1 19.3 18 11.4 17.3-.3 11-10 2.4-9.8 1.3-8.4z"/><path d="M284 358.8a116.5 116.5 0 017-12.8 29.5 29.5 0 0118.5-12.9l28.6-7.8s2 19.4 21.6 19.4 20.1-18 20.1-18l36 13.3c1.2.4 8.9 3.1 17.8 22.3a590.4 590.4 0 0112.3 27.6l-34 9.1-2.3 31.4.7 17.6-103.6-.3.6-20-.5-33.1-2.1 4-32.4-13s3.3-9.5 11.6-26.8z" fill="#f1543e"/><path d="M306.4 377.4c-.2 0-.1 11 .2 24.8s.6 24.7.7 24.7 0-11-.2-24.8-.6-24.7-.7-24.7z" fill="#263238"/><path d="M407.3 380.6c-1.6-1.8-4.1-2.4-6.5-2.8-26.6-5.5-54.1-3.2-81.1.2-3.4.4-7 1.1-9 3.8-1.6 2-.6 4.6-.8 7-.7 12.5 1 25.9 3.4 38.2l92-1.5a143 143 0 004-36.7c0-3 0-6-2-8.2z" opacity=".3"/><path d="M413.3 366.1a2.6 2.6 0 010 .5v1.4l-.1 5a587 587 0 01-1.8 32.7l-.4 5-.2 1.2a1.8 1.8 0 010 .5 2.8 2.8 0 010-.5v-1.3l.3-5 1-16.3.8-16.3.2-5 .1-1.3a1.5 1.5 0 010-.6zM323.1 285s-2.3 3-2.2 8.7c0 3 2 9.2 7.5 9.5-1.5 8.7 4 15.1 13.3 15.1s19.9-15.8 28.4-19.3l24.9-6.6c2.2-.5 3-3.1 3-5.4s-.6-4.6.2-6.7c1.1-2.8 4.4-4.4 5.6-7.2 1.3-3.3-.7-6.9-3-9.5s-5.1-5.1-5.9-8.6c-.7-3.1.6-6.7-1-9.5-2-3.4-7-3.8-9.3-7-1.2-1.6-1.5-3.6-2.6-5.1-2-2.7-5.6-3.4-8.9-3s-6.4 1.5-9.6 1.7c-4.5.4-9-1-13.4.2-4.7 1.4-7.6 5.6-10.7 9.7l-4 4.7a18 18 0 01-2.6 2.2c-1.7 1.1-3.7 1.9-5 3.3a8 8 0 00.5 11.3 8.5 8.5 0 00-5.7 8.4s-.5 4 2.1 6a5.7 5.7 0 00-1.6 7z" fill="#263238"/><path d="M339.8 293.4c-2-6.4-4-12.7-5-19.3s-.7-13.4 1.6-19.6c.3-1 3.3-7.3 4.3-7.2.7 0-1.1 6-.8 6.6 3.5 6 4.4 13 3.9 19.9a89.5 89.5 0 01-4 19.6" fill="#263238"/><path d="M357.8 342.9c-10.3-.2-17.8-17.1-17.8-17.1l-.6-57.8c-.6-16.6 8.6-30.8 25.3-30.9l1.5.1a29.8 29.8 0 0128.2 28.9c.4 14.4.6 30.4 0 38-1 16-17 17.6-17 17.6l-.2 8.4c0 10.5-15.3 13.1-19.4 12.8z" fill="#936760"/><path d="M377.1 321.7a38.6 38.6 0 01-20.4-7.2s4.4 11.9 20.4 11.3z" fill="#6f4c47"/><path d="M386 279.8a2.3 2.3 0 01-2.3 2.2 2.2 2.2 0 01-2.2-2.2 2.3 2.3 0 012.3-2.2 2.2 2.2 0 012.3 2.2zM390.4 272.6c-.3.2-2-1.1-4.4-1.3s-4.3 1-4.6.7c-.1-.1.2-.6 1-1.1a6.3 6.3 0 013.7-1 6 6 0 013.5 1.4c.7.6 1 1.1.8 1.3zM364.1 279.2a2.3 2.3 0 01-2.3 2.2 2.2 2.2 0 01-2.2-2.2 2.3 2.3 0 012.3-2.2 2.2 2.2 0 012.2 2.2zM366.3 272.3c-.3.2-2-1.1-4.4-1.3s-4.3 1-4.5.7c-.2-.1.2-.6 1-1.1a6.2 6.2 0 013.6-1 6 6 0 013.5 1.4c.8.6 1 1.1.8 1.3zM374.1 291.6c0-.2 1.5-.4 4-.5.6 0 1.2-.2 1.4-.6a3.2 3.2 0 00-.3-1.9l-1.6-4.8c-2.2-7-3.8-12.6-3.5-12.7s2.3 5.4 4.5 12.4l1.5 4.8a3.7 3.7 0 01.2 2.5 1.6 1.6 0 01-1 .9 4.7 4.7 0 01-1.2 0l-4-.1zM366.8 292.9c.4 0 .3 2.6 2.4 4.6s5 2 5 2.3c0 .2-.6.5-1.8.4a6.6 6.6 0 01-4.2-1.7 5.8 5.8 0 01-1.9-3.9c0-1.1.3-1.8.5-1.7zM366.7 262.3c-.2.7-2.7.2-5.6.4s-5.2.9-5.6.2c-.1-.2.3-.8 1.3-1.4a9.8 9.8 0 018.5-.5c1 .4 1.6 1 1.4 1.3zM389.8 264.4c-.5.5-2.1-.2-4.1-.3s-3.8.2-4.2-.4c-.1-.3.2-.9 1-1.4a6 6 0 016.6.6c.7.6.9 1.2.7 1.5z" fill="#263238"/><path d="M339.8 280c-.3-.2-10.8-4-11 7s10.8 8.9 10.8 8.6l.2-15.7z" fill="#936760"/><path d="M336.3 291.4l-.5.3a1.9 1.9 0 01-1.4 0c-1.1-.5-2-2.4-2-4.3a6.3 6.3 0 01.5-2.7 2.2 2.2 0 011.5-1.5 1 1 0 011 .6l.2.5s.2-.1.2-.6a1.2 1.2 0 00-.4-.7 1.4 1.4 0 00-1.1-.3 2.6 2.6 0 00-2 1.7 6.5 6.5 0 00-.7 3c0 2.2 1 4.3 2.6 4.7a2 2 0 001.8-.2c.3-.3.4-.5.3-.5z" fill="#6f4c47"/><path d="M387.3 248c1.8-1-3.4-6.8-7.8-8.8a39 39 0 00-22.5-3.4c-7.4 2-13.5 5.6-17.2 12.1a43 43 0 00-5.1 22 13 13 0 001.4 6.6c1.5 2.4 4.4 4 4.3 7.3a4.6 4.6 0 001 3.4c2 2.1 4.5.2 5.6-1.8 2.5-4.3 2.8-9.4 3.1-14.3.2-3.5.4-7-.5-10.4-.6-1.8-1.4-3.5-1.8-5.4a6.5 6.5 0 01.8-5.4 7.4 7.4 0 011-1 11.4 11.4 0 0111.3-2c6 2.3 16.5 5.7 19.3 3.7 4-3 5-5 5-5z" fill="#263238"/><path d="M357.5 234.3a24 24 0 0118.5 1.3c3 1.6 5.6 4 6.5 7.3s-.6 7.2-3.7 8.4l-.2.2c-4.7 1.5-7.7.8-12.3-.9-4-1.4-7.4-3.8-11.3-5.2a22.2 22.2 0 00-13-.6 36.2 36.2 0 0115.5-10.5z" fill="#263238"/><path d="M336.8 245.1s1-1 2.7-2.2a15.7 15.7 0 013.3-1.7 10 10 0 014.5-.8 14.9 14.9 0 017.6 3.1c1.7 1.4 2.5 2.5 2.6 2.4s-.2-.3-.5-.8a11.8 11.8 0 00-1.8-2 14.2 14.2 0 00-7.9-3.4 10.4 10.4 0 00-4.7.8 14.5 14.5 0 00-3.4 2 8.4 8.4 0 00-2.4 2.6zM370 233.3a28.3 28.3 0 003 1.1 23.8 23.8 0 0111.1 9.2 28 28 0 001.7 2.7 8.8 8.8 0 00-1.2-3 20.6 20.6 0 00-4.9-5.7 20.8 20.8 0 00-6.6-3.7 8.5 8.5 0 00-3-.6zM324.7 272.8l1 .4a7.7 7.7 0 003 .2 12.1 12.1 0 004.3-1.5c1.5-.7 3.1-1.8 4.8-2.8a14.5 14.5 0 015.3-2 6.9 6.9 0 014.5.8 5.3 5.3 0 012.1 2.3 3.5 3.5 0 01.3.8 1 1 0 010 .3l-.5-1a5.3 5.3 0 00-2.1-2.1 6.7 6.7 0 00-4.3-.7 14.5 14.5 0 00-5.1 2l-4.8 2.8a12.1 12.1 0 01-4.4 1.4 7.2 7.2 0 01-3-.4 5.1 5.1 0 01-.8-.3 1.1 1.1 0 01-.3-.2zM325.4 277.7a11.8 11.8 0 003.6.2 17.3 17.3 0 003.9-1c1.4-.4 3-1 4.6-1.7a16.1 16.1 0 014.8-1 9 9 0 014 .7 6.2 6.2 0 012.2 1.7 4.2 4.2 0 01.4.6l.1.2-.6-.7a6.5 6.5 0 00-2.2-1.5 9 9 0 00-3.9-.7 16.5 16.5 0 00-4.7 1.1l-4.6 1.7a16.4 16.4 0 01-3.9.9 9.1 9.1 0 01-2.7-.2l-.7-.2-.3-.1zM399.6 267.8a2 2 0 01-.4 1 5.3 5.3 0 01-1.7 1.7 5.5 5.5 0 01-2.3 1 2 2 0 01-1-.1 9.5 9.5 0 003.1-1.2 9.8 9.8 0 002.3-2.4zM402.2 273.6a3.3 3.3 0 01-.5 1.4 7.8 7.8 0 01-6 3.8 3.5 3.5 0 01-1.5-.1l1.4-.2a8.5 8.5 0 005.8-3.7l.8-1.3z" fill="#455a64"/><path d="M443 390.7l13.8 27.9a20.3 20.3 0 012.1 10 20.3 20.3 0 01-20.3 19.3l-39.8-2.3-1.7-18.2 30.3-7.2-11.8-22.2z" fill="#936760"/><path d="M427.4 420.1c0 .2 1.4 0 3.5 0a27.3 27.3 0 018.4 1.4 25.7 25.7 0 017.6 4c1.7 1.4 2.5 2.5 2.6 2.4s-.2-.3-.5-.8a14.1 14.1 0 00-1.8-2 22.6 22.6 0 00-7.6-4.2 24 24 0 00-8.7-1.3 16.5 16.5 0 00-2.6.3l-1 .3z" fill="#6f4c47"/><path d="M272.9 385.9s-7.5 20.9-16.9 44.1a9.3 9.3 0 00-.5 1.4c-1.4 6.3 3.4 17 9.9 17l53.9-.6v-17.6l-31.1-6.8 12-26.5z" fill="#936760"/><path d="M264 428.2l3-1.8a28.3 28.3 0 0116.2-3.7c2.2.2 3.5.5 3.5.3a2.8 2.8 0 00-.9-.3 16.3 16.3 0 00-2.5-.5 24.7 24.7 0 00-8.6.5 25.1 25.1 0 00-8 3.3 18.1 18.1 0 00-2 1.5l-.7.7z" fill="#6f4c47"/><path d="M404.9 426.4H397s-17.6-6.4-21.2-5.7c-3.3.5-15.2 8.4-17.5 10a1.5 1.5 0 00-.6.7 2.5 2.5 0 001.4 3.2l.3.1-.1.4a4.4 4.4 0 00-.2 1.4 1.7 1.7 0 003.2.7l-.5.8a2 2 0 00-.2 1.1v.7a2 2 0 001.3 1.8 2 2 0 002-.5c1.5-1.7 4.8-5 7-5.4a52.8 52.8 0 017.3-.4 2.5 2.5 0 012.2 1.6c-1.3 0-10.4 4.9-13.7 6.6a3.5 3.5 0 00-1.8 2.6c-.2 1 .4 2 2.4 1.6 4.3-1 12-4.6 12-4.6s4-1.1 6.5.7c3.7 2.6 5.3 3.5 8.4 2.5a26 26 0 005.5-2.6l6.1-.6s6-14.5-2-16.7z" fill="#936760"/><path d="M381.6 429.4s-1.2-.4-3.3-.5a17 17 0 00-14.2 6.1l-2 2.7a3.9 3.9 0 01.4-.8 15.2 15.2 0 011.4-2 16.5 16.5 0 0114.4-6.2 15.4 15.4 0 012.4.5 3.7 3.7 0 011 .2z" fill="#6f4c47"/><path d="M379.8 425a14.5 14.5 0 00-3.4-.5 15 15 0 00-8 2.3 32 32 0 00-6.5 5.4l-1.8 1.9a4.8 4.8 0 01-.6.6 5.3 5.3 0 01.6-.7l1.6-2a29.7 29.7 0 016.5-5.5 14.6 14.6 0 018.2-2.2 9.1 9.1 0 012.5.4 4.7 4.7 0 01.7.3.7.7 0 01.2 0z" fill="#6f4c47"/><path d="M307.9 427h7.8s17.5-6.4 21.2-5.8c3.2.5 15.1 8.5 17.5 10a1.6 1.6 0 01.5.7 2.6 2.6 0 01-1.4 3.3h-.2v.4a4.2 4.2 0 01.2 1.5 1.7 1.7 0 01-3.1.7l.4.8a2 2 0 01.3 1v.8a2 2 0 01-1.4 1.7 2 2 0 01-2-.5c-1.6-1.7-4.8-5-7-5.4a52.8 52.8 0 00-7.3-.3 2.5 2.5 0 00-2.2 1.5c1.3.1 10.4 4.9 13.6 6.6a3.5 3.5 0 012 2.6c0 1-.5 2-2.5 1.6-4.3-1-12-4.5-12-4.5s-4-1.2-6.5.6c-3.7 2.6-5.3 3.5-8.5 2.5a26 26 0 01-5.4-2.5l-6.1-.6s-5.9-14.5 2-16.8z" fill="#936760"/><path d="M331 430s1.3-.4 3.4-.5a17 17 0 0114.2 6 30.6 30.6 0 012 2.7 3.9 3.9 0 00-.4-.8 15 15 0 00-1.4-2 16.5 16.5 0 00-14.4-6.1 15.4 15.4 0 00-2.4.4 4.3 4.3 0 00-1 .2z" fill="#6f4c47"/><path d="M333 425.6a14.5 14.5 0 013.4-.6 15 15 0 018 2.3 32 32 0 016.4 5.5l1.8 1.8a4.5 4.5 0 00.7.7 6.6 6.6 0 00-.6-.8l-1.7-1.9a29.6 29.6 0 00-6.5-5.6 14.6 14.6 0 00-8.1-2.2 9.2 9.2 0 00-2.6.5 5.3 5.3 0 00-.7.2l-.2.1z" fill="#6f4c47"/><path d="M320.2 448.4h89.4a4.7 4.7 0 004.8-4.5l2.7-61.6a4.8 4.8 0 00-4.8-5h-94.6a4.8 4.8 0 00-4.8 5l2.6 61.5a4.8 4.8 0 004.7 4.6z" fill="#e0e0e0"/><path d="M320.2 448.4h-.2a5.3 5.3 0 01-.7 0 4.7 4.7 0 01-2.2-1.2 4.9 4.9 0 01-1.7-3.7l-.3-5.6-1.5-36.1-.5-12-.3-6.4v-1.6a5.2 5.2 0 01.4-1.7 4.9 4.9 0 012.3-2.5 5.1 5.1 0 011.7-.5h94.7a5.4 5.4 0 012.2.4 5 5 0 013 3.2 5.9 5.9 0 01.2 2.2l-.1 2.1-.2 4.3-.7 16.7-1.4 31.6-.2 3.8v1.8a6.8 6.8 0 01-.3 2 5 5 0 01-2.4 2.8 4.9 4.9 0 01-1.8.6h-40.7l-36-.1h-13.3H410.2a4.5 4.5 0 003.8-3.5 6.4 6.4 0 00.2-1.8l.1-1.8.2-3.8 1.3-31.6.8-16.7c0-1.5 0-2.9.2-4.3V383a5.5 5.5 0 00-.1-2.1 4.5 4.5 0 00-2.7-3 5 5 0 00-2-.2h-94.8a4.6 4.6 0 00-1.6.4 4.6 4.6 0 00-2.1 2.3 5 5 0 00-.4 1.5v1.7l.3 6.3.4 12 1.4 36.1.3 5.7a4.8 4.8 0 001.5 3.7 4.7 4.7 0 002.3 1l.9.1z" fill="#263238"/><path d="M360.1 414a4.9 4.9 0 105-4.9 4.9 4.9 0 00-5 4.9z" fill="#fff"/></g><g><path fill="#ffbe9d" d="M165.1 330.9l-14-2.7-27 6.1-13.5 2.9-.3 18.6 30.5 5.6 20.5-6 7.8-11.5-4-13z"/><path d="M175.1 332.7l-13.2-3s-9.4 28.9-32.5 27.6c-18.8-1-18.9-20.1-18.9-20.1l-13.7 2.4s-5.8 35 .5 59.5c5.3 20.4 8.5 49.9 8.5 49.9l93.3.2-24-116.5z" fill="#f1543e"/><path d="M85.5 347.7c7.4-9.3 13.3-8.2 13.3-8.2l4 44.5-32.5 41.1-13.2-33.8s21.6-35 28.4-43.6zM173.5 332.4s21.5 1.7 29.2 36.8c3.4 15.9 7.8 34.5 9.1 47 1 9-4 23.3-13 24.5l-14.9 2c-7 0-11-6.5-12.4-12.6l-3.3-10.5c-1.7-12 7.4-11.8 12.6-11.7l-3.9-45.5z" fill="#f1543e"/><path d="M95 364.2a2.6 2.6 0 00-.1.5l-.2 1.4-.2 1v1.2c-.2.9-.3 1.9-.3 3a74 74 0 000 7.8 93.3 93.3 0 001 9.6 140 140 0 003.4 17l1.4 5 .4 1.4a2.9 2.9 0 00.1.5 1.7 1.7 0 000-.5 735.5 735.5 0 00-3.3-14.1 158.3 158.3 0 01-2.7-18.9 63 63 0 010-7.8l.1-3 .1-1.2.2-1 .1-1.4a3 3 0 000-.5zM197.6 420.3a4 4 0 00-.1-.9 13.4 13.4 0 00-.9-2.3 15.7 15.7 0 00-12.6-9.2 13.7 13.7 0 00-2.5 0 4.2 4.2 0 00-.9 0 32 32 0 013.4.3 16.2 16.2 0 0112.4 9 32.7 32.7 0 011.2 3zM192.7 402.8a1.6 1.6 0 00-.5 0 13.5 13.5 0 00-1.5 0 16.7 16.7 0 00-4.5 1.1 16.1 16.1 0 00-4 2.4 11.3 11.3 0 00-1 1l-.4.4 1.6-1.2a19.6 19.6 0 014-2.2 19.3 19.3 0 014.4-1.3l1.9-.2zM170.5 357.3a5.3 5.3 0 000-1l.1-2.5a42.8 42.8 0 011.5-8.3 41.5 41.5 0 013-7.8l1.3-2.2a5.4 5.4 0 00.4-.8 4.8 4.8 0 00-.5.7l-1.4 2.2a37 37 0 00-4.5 16.2v2.6a4.4 4.4 0 000 .9z" fill="#263238"/><path d="M96 393.7a33.1 33.1 0 01-.8-31 86.5 86.5 0 001 31M144.7 404.2c4.1 1.2 9.9 1.5 13.9 0-3.2 4.5-9.3 6-14.6 4.6s-10.1-6.7-10.6-12.2a22.7 22.7 0 0011.3 7.6z" opacity=".3"/><path d="M129.4 389.2a1.5 1.5 0 00.1.4l.3 1a21 21 0 001.8 3.6 23.5 23.5 0 009.8 8.8 23.6 23.6 0 007 2.1 23.9 23.9 0 006 0 22.6 22.6 0 004-.9c.4 0 .7-.2 1-.3a1.7 1.7 0 00.3-.2l-1.4.4a23.5 23.5 0 01-4 .8 23.7 23.7 0 01-24.3-14.3l-.6-1.4zM174.6 438.6l1.2 1.1a10.8 10.8 0 003.9 1.9 20.7 20.7 0 006.4.6c2.5-.2 5.2-.5 8-1a40.3 40.3 0 007.8-1.7 9.7 9.7 0 002.9-2 15.1 15.1 0 002-2.2 21.6 21.6 0 002.1-3.8l.5-1a1.8 1.8 0 01.2-.5 2.4 2.4 0 01-.1.4 11.8 11.8 0 01-.4 1.2 19.7 19.7 0 01-2.1 3.9 16 16 0 01-2 2.3 10.2 10.2 0 01-3 2 38.8 38.8 0 01-7.8 1.8 97 97 0 01-8 .9 20.5 20.5 0 01-6.6-.7 10.4 10.4 0 01-3.9-2 6.3 6.3 0 01-.8-.8 2.6 2.6 0 01-.3-.4zM171 368.5c.1 0 2.4 8.8 5 19.6l4.8 19.7c-.1 0-2.4-8.8-5-19.6l-4.8-19.7z" fill="#263238"/><path d="M168.3 418a3.5 3.5 0 010-.7 12.2 12.2 0 010-2 5.7 5.7 0 011-2.8 7.7 7.7 0 011-1.4 7.5 7.5 0 011.5-1.2 19.1 19.1 0 016.3-2 19.8 19.8 0 012-.1 2.8 2.8 0 01.7 0s-1 0-2.7.4a21.2 21.2 0 00-6 2 7.7 7.7 0 00-1.5 1.1 8.7 8.7 0 00-1.1 1.3 5.8 5.8 0 00-1 2.7 18.6 18.6 0 000 2 3.2 3.2 0 01-.2.7zM104.8 261.2l-2.7-2.5c-3.6 1.5-5.2 5.4-5.8 9s-.5 7.5-2.2 10.8c-1.3 2.6-3.5 5-3.3 7.7s2.9 4.9 3 7.6-2.4 4.5-3.7 6.8a65.3 65.3 0 00-3 28.4c12-1 33.1-2.2 45-4.7-3.1-19.3-16.4-46.4-27.3-63.1z" fill="#263238"/><ellipse cx="98.3" cy="290.3" rx="12" ry="13.3" fill="#455a64"/><path d="M95 282.9a16.8 16.8 0 011.2-2.7c.3 8.4.7 15.2 1.6 23.4-2.3-4.2-3-9.4-3.3-14.5-.2-2.8-.2-4.2.5-6.2z" opacity=".3"/><path d="M96 280.4c-.9-14 9.3-26.8 23.5-28.5a26.3 26.3 0 0129.6 23.7l3.5 59.2a5.2 5.2 0 01-.9 3.2c-3.4 5-9.7 9-15.4 9.8a25.3 25.3 0 01-15.6-3.2 5 5 0 01-2.6-4.3L118 327a17.7 17.7 0 01-3.8-.2c-3.5-.8-12.4-4.3-15.4-17.4-1-4.3-2-16.7-2.8-29z" fill="#ffbe9d"/><path d="M115.4 299.8a15.5 15.5 0 00-3.8-.4c-.6 0-1.2-.1-1.3-.5a3 3 0 01.2-1.8l1.5-4.6c2-6.5 3.5-11.8 3.2-12s-2.1 5.2-4.1 11.7l-1.4 4.6a3.4 3.4 0 00-.2 2.4 1.5 1.5 0 001 .8 4.2 4.2 0 001 0 15.7 15.7 0 003.9-.2zM99.8 285.4c.3.3 1.8-1 4-1.1s3.9 1.1 4.1.8c.1-.1-.1-.7-.9-1.2a5.3 5.3 0 00-3.3-1 5.2 5.2 0 00-3.2 1.2c-.6.6-.8 1.2-.7 1.3zM122.4 286c.3.3 2-1.2 4.4-1.4s4.3 1 4.5.6c.1-.2-.2-.7-1-1.2a6 6 0 00-3.7-.9 5.9 5.9 0 00-3.4 1.5c-.7.6-1 1.2-.8 1.4z" fill="#263238"/><path d="M118 327s9 0 19.8-7.4c0 0-2.8 12-19.8 11.6zM116.8 305.3a4.3 4.3 0 013.6-1.8 3.9 3.9 0 012.8 1.2 2.4 2.4 0 01.3 2.7 2.9 2.9 0 01-3 1 8.7 8.7 0 01-3-1.5 2.4 2.4 0 01-.8-.7.8.8 0 010-.8" fill="#eb996e"/><path d="M122.4 300.9c-.4 0-.2 2.5-2.3 4.4s-4.8 1.9-4.8 2.2c0 .2.7.4 1.8.4a6.5 6.5 0 004-1.7 5.5 5.5 0 001.8-3.7c0-1-.3-1.6-.5-1.6zM122 276.8c.3.6 2.6.1 5.4.2s5 .7 5.4.1c.1-.3-.3-.8-1.3-1.4a9 9 0 00-4-1 9 9 0 00-4 .8c-1.1.5-1.6 1-1.5 1.3zM99.3 277.3c.5.5 2.4 0 4.6 0s4.2.3 4.6-.2c.2-.3 0-.8-1-1.3a7.6 7.6 0 00-7.3.2c-.8.5-1 1-.9 1.3z" fill="#263238"/><path d="M117.4 249c1.2-2.1 3.5-3 6-3.5 10.4-1.6 22 4.7 27.8 13.4s6 21.8 1.8 31.4l-6.4-4c-13-5.4-22.2-17.9-30.6-30.8-1-1.8.3-4.8 1.4-6.6z" fill="#263238"/><path d="M96.1 281.3l-.7-1.3c-2.6-5-1.4-10.6.5-15.8a24 24 0 015.5-9.6c4.4-4.9 11.9-10.6 18.2-7.7 1.3 2.5-3 7.1-5.3 9-3.2 2.8-6 4.7-8.2 6.7-4.4 4-9.6 11.3-10 18.7M101.8 291.8a2 2 0 001.8 2 1.9 1.9 0 002.1-1.7 2 2 0 00-1.9-2 1.9 1.9 0 00-2 1.7zM122.8 291.8a2 2 0 002 2 1.9 1.9 0 002-1.7 2 2 0 00-1.9-2 1.9 1.9 0 00-2 1.7z" fill="#263238"/><path d="M146.6 286.2c.2-.1 9.8-3.9 10.4 6.2s-9.6 8.6-9.6 8.3l-.8-14.5z" fill="#ffbe9d"/><path d="M150.2 296.7l.5.2a1.7 1.7 0 001.3 0c1-.5 1.8-2.2 1.8-4a5.8 5.8 0 00-.7-2.5 2 2 0 00-1.4-1.3.9.9 0 00-1 .6v.5s-.3-.2-.2-.6a1.1 1.1 0 01.3-.7 1.3 1.3 0 011-.3 2.5 2.5 0 012 1.5 6.2 6.2 0 01.7 2.8c0 2-.8 4-2.3 4.5a1.9 1.9 0 01-1.6-.2c-.4-.3-.4-.5-.4-.5z" fill="#eb996e"/><path d="M110.7 288.9a20 20 0 00-.3-2.3 9.3 9.3 0 00-3.3-5 9.2 9.2 0 00-8.6-1.5 9.1 9.1 0 00-4.3 3.1A9.1 9.1 0 0094 294a8.5 8.5 0 001.9 2 8.6 8.6 0 002.3 1.3 9.2 9.2 0 004.8.5 9 9 0 003.9-1.7 9.3 9.3 0 003.5-5 18 18 0 00.4-2.2v.6a4.1 4.1 0 01-.1.7 5.7 5.7 0 01-.2 1 9.2 9.2 0 01-3.5 5.1 9.3 9.3 0 01-4 1.7 9.5 9.5 0 01-5-.4 9.3 9.3 0 01-2.4-1.4 8.9 8.9 0 01-2-2A9.4 9.4 0 0194 283a8.8 8.8 0 012-2 9 9 0 012.4-1.3 9.4 9.4 0 015-.3 9.4 9.4 0 017.3 7.2 6.8 6.8 0 01.1 1 4 4 0 010 .7v.4a.8.8 0 010 .2zM136.2 289.3a15.5 15.5 0 00-.3-2.3 9.2 9.2 0 00-12-6.5 8.6 8.6 0 00-2.4 1.2 8.9 8.9 0 00-2 2 9.1 9.1 0 00-.1 10.7 8.5 8.5 0 001.9 2 8.7 8.7 0 002.3 1.3 9.2 9.2 0 0012.1-6.1 14.7 14.7 0 00.4-2.3V290a4.1 4.1 0 010 .7 5.9 5.9 0 01-.3 1 9.4 9.4 0 01-7.4 6.9 9.4 9.4 0 01-5-.5 9.5 9.5 0 01-4.4-3.3 9.4 9.4 0 01.2-11.2 9.1 9.1 0 012-2 9.3 9.3 0 012.4-1.3 9.4 9.4 0 015-.3 9.4 9.4 0 017.4 7.1 5.7 5.7 0 01.2 1 4 4 0 010 .7v.5z" fill="#fff"/><path d="M118 288.6l-1-.9a4.5 4.5 0 00-5.5-.1l-1 .8a2.3 2.3 0 01.8-1 4.5 4.5 0 013-1 4.5 4.5 0 013 1.2 2.5 2.5 0 01.7 1zM149 285.6a9.2 9.2 0 01-2 .4l-4.5.5-4.6.4a12.7 12.7 0 01-1.9.1 8.9 8.9 0 011.9-.4l4.5-.5 4.6-.4a12 12 0 012-.1zM96 294.6a9.4 9.4 0 01-2.5-7 2.6 2.6 0 00-.2 1.2 7.2 7.2 0 001.8 5c.5.6.9.8.9.8zM94.5 284.2c-.1-.1-.5 0-.7.5s-.1.9 0 .9l.3-.7.4-.7zM119.3 292.6a12.9 12.9 0 00-.3-1.4 9.8 9.8 0 010-3.3 9.7 9.7 0 011.2-3.2 13.6 13.6 0 00.7-1.1 3.5 3.5 0 00-1 1 8.4 8.4 0 00-1.2 6.6 3.6 3.6 0 00.6 1.4z" fill="#fff"/><path d="M154.3 300.6l.3.5a3.5 3.5 0 01.5 1.7 3 3 0 01-1 2.3 3.2 3.2 0 01-5.2-1 3.1 3.1 0 010-2.4 3.6 3.6 0 011-1.4l.5-.4a1.5 1.5 0 00-.6.3 3.4 3.4 0 00-1.1 1.4 3.3 3.3 0 000 2.7 3.5 3.5 0 005.7 1 3.4 3.4 0 001-2.5 3.5 3.5 0 00-.6-1.8l-.5-.4zM98.7 308.3a2.7 2.7 0 01-1.8.1 3.4 3.4 0 01-1.6-1 4.2 4.2 0 01-1-2 3.7 3.7 0 01.3-2.3 4.3 4.3 0 011.2-1.5 7 7 0 011.5-.9 1.2 1.2 0 00-.5 0 3.6 3.6 0 00-1.2.7 4.2 4.2 0 00-1.3 1.6 4 4 0 00-.4 2.5 4.3 4.3 0 001.2 2.2 3.5 3.5 0 001.8 1 2.4 2.4 0 001.3 0l.5-.4z" fill="#e0e0e0"/><path d="M142.5 252.5c9.3 0 13.3 13.8 15.4 18.8s2.8 10.7 5.5 15.5c2.1 3.8 5.6 7 6.1 11.4.3 3.2-1 6.3-.8 9.5s2 6.2 3.1 9.3 1.8 6.7-.1 9.4a137.4 137.4 0 01-21.6.5 6 6 0 01-3.5-1c-1.2-1-1.4-2.6-1.6-4.2-2-15.9 2.3-23 .3-38.8" fill="#263238"/><path d="M141 293.2c0 7.4 5.4 13.3 12 13.3s12-6 12-13.3-5.4-13.4-12-13.4-12 6-12 13.4z" fill="#455a64"/><path d="M145.9 293.2a2.3 2.3 0 010-.6 8.7 8.7 0 01.2-1.6 10 10 0 01.8-2.5 9 9 0 012.1-2.8 8.6 8.6 0 013.8-2 8 8 0 014.8.4 9 9 0 014 3.5 10.3 10.3 0 011.3 2.6 10.6 10.6 0 010 5.9 10.7 10.7 0 01-1.2 2.6 9 9 0 01-4 3.5 8.2 8.2 0 01-5 .4 8.6 8.6 0 01-3.7-2 9 9 0 01-2-2.7 10 10 0 01-1-2.5 8.8 8.8 0 01-.1-1.7 2.3 2.3 0 010-.6 20.4 20.4 0 00.3 2.2 9.8 9.8 0 00.9 2.5 9 9 0 002 2.7 8.4 8.4 0 003.7 1.8 7.9 7.9 0 004.7-.4 8.8 8.8 0 003.9-3.4 11 11 0 001.1-2.6 10.5 10.5 0 000-5.6 10.7 10.7 0 00-1.1-2.6 8.7 8.7 0 00-3.9-3.3 7.7 7.7 0 00-4.7-.5 8.3 8.3 0 00-3.6 1.9 9 9 0 00-2.1 2.7 9.8 9.8 0 00-.9 2.4 21.1 21.1 0 00-.3 2.3z" fill="#263238"/><path d="M155.3 280.6s2-35.1-33-36.2c0 0-11.7 0-16.6 6.1 0 0 8-4.6 17.1-2 7.5 2 24.2 9.5 25.2 32.6l3.2 1z" fill="#455a64"/><path d="M162.1 297.8a8.3 8.3 0 01-8 6.2 9.6 9.6 0 01-8.5-6 9.8 9.8 0 011.4-9.7 11.2 11.2 0 000 9.3 9.2 9.2 0 007.2 5.1c3 .3 6.4-1.7 8-5" opacity=".3"/><path d="M147.4 281.4a4.8 4.8 0 011.3-.7 11.6 11.6 0 017.5-.5 4.3 4.3 0 011.4.5 17.1 17.1 0 00-5.2-.6 17.6 17.6 0 00-5 1.3z" fill="#263238"/><path d="M104 252v-.3l.3-.5a10.8 10.8 0 011.2-2 13 13 0 012.6-2.5 19.9 19.9 0 014.3-2.3l2.7-1a28.5 28.5 0 013-.7 30.6 30.6 0 016.8-.5 33.5 33.5 0 0114.9 4 30 30 0 016.5 4.8 33 33 0 019.4 17.5 30.9 30.9 0 01.5 8.5 22 22 0 01-.3 2.3l-.1.6a1.8 1.8 0 010 .2.8.8 0 010-.2v-.6l.3-2.3a32 32 0 00-.6-8.5 33.6 33.6 0 00-4.7-11.6 31.6 31.6 0 00-4.8-5.7 29.7 29.7 0 00-6.4-4.7 33.4 33.4 0 00-14.8-4 30.8 30.8 0 00-6.7.5l-3 .7-2.6.8a20.6 20.6 0 00-4.3 2.3 13.3 13.3 0 00-2.7 2.4 10.5 10.5 0 00-1.2 2l-.3.5a.6.6 0 010 .2z" fill="#455a64"/><path d="M101 254.8l.2-.2.2-.5a21.4 21.4 0 011.2-1.8 14.6 14.6 0 012.3-2.6 15.8 15.8 0 013.9-2.4 21.2 21.2 0 015.2-1.7 38.2 38.2 0 016.3-.3 47.1 47.1 0 017 .8 30.9 30.9 0 017.2 2.3 24 24 0 016.3 4.2 26 26 0 014.4 5.4 38.7 38.7 0 014.4 11c.8 3.3 1.2 6 1.5 7.9l.3 2.1v.8a1 1 0 010-.2v-.6l-.4-2c-.3-2-.7-4.7-1.6-8a39.3 39.3 0 00-4.4-10.8 26 26 0 00-4.4-5.4 23.8 23.8 0 00-6.2-4 30.4 30.4 0 00-7-2.3 46.7 46.7 0 00-7-1 37.5 37.5 0 00-6.3.4 21 21 0 00-5.2 1.6 15.7 15.7 0 00-3.8 2.4 14.7 14.7 0 00-2.4 2.5c-.5.7-1 1.3-1.2 1.8l-.3.5-.1.1z" fill="#263238"/><path d="M125 416.8zM125.2 417zM125 416.8l.2.1zM124.9 416.8zM104.7 435.3c1.8-3.3 15.2-11.9 15.2-11.9l-3.6-.8-4 1.7a9.9 9.9 0 01-1.8 3.7c-1.5 2.2-4 0-4 0l1.7-8.2 8-4.8s7.5 1.2 8.7 1.8l3.2 2.9c1.4 1 5.5 5.4 6.5 5.5s35.9-7.6 35.9-7.6c4.7 3.7 7.3 11.2 8 16.6 0 0 .8 2.7 0 4.1l-42.7 3.4-9 2.5a63.1 63.1 0 01-7.4 2.5c-3 .6-5-.3-5.1-2s2.2-1.8 2.2-1.8a46.2 46.2 0 005.8-2.6 10.2 10.2 0 003.3-3.6l-3.2.4s-6.9 4.8-9.4 6.1-3.1-1.1-3.3-1.9 7.7-8.5 7.7-8.5-7.6 4.6-9 5.8-3.3 1.5-3.7.7-1.7-.8 0-4zM125.3 417zM125.4 417z" fill="#ffbe9d"/><path d="M141.8 436a2 2 0 000-.5 2.9 2.9 0 000-.6 4.5 4.5 0 00-.2-.9 11.4 11.4 0 00-2.1-4.2 24.8 24.8 0 00-3.3-3.4 9.8 9.8 0 00-1.6-1.2 15.6 15.6 0 001.4 1.4 30.6 30.6 0 013.2 3.4 12.3 12.3 0 012.2 4.1l.4 1.9zM120.2 423.2a3.9 3.9 0 002.3-.2 4 4 0 002-1.3s-.9.6-2 1-2.3.4-2.3.5zM118 432a22 22 0 003.4-1.2 22.3 22.3 0 003.3-1.5 20.5 20.5 0 00-3.4 1.3 20 20 0 00-3.3 1.5zM125.2 436.6a7.8 7.8 0 001.8-.6 7.3 7.3 0 001.7-.7 4.3 4.3 0 00-1.8.4 4.4 4.4 0 00-1.7 1zM119 432.7s.8.4 1.4 1.1a7.1 7.1 0 01.8 1.6v-.5a2.8 2.8 0 00-.6-1.2 2.9 2.9 0 00-1-.9l-.5-.1zM116 427.7s.5.4.9 1a8.2 8.2 0 01.5 1.4 1.6 1.6 0 00-.3-1.5c-.4-.8-1.2-1-1.2-.9zM117 418.8l.3-.4a2.2 2.2 0 000-1.2 2.3 2.3 0 00-.6-1l-.4-.3a6.3 6.3 0 01.6 1.4 5.8 5.8 0 01.1 1.5z" fill="#eb996e"/><path d="M178.8 439.5a4.3 4.3 0 010-1v-1.1c0-.4 0-1-.2-1.5a33.9 33.9 0 00-1.9-8.6 30.6 30.6 0 00-2-4.3l-1-1.8-.6-.8-.6-.7-2.5-2.6a5.9 5.9 0 01.8.6 8.2 8.2 0 01.8.8 15.2 15.2 0 011 1l.6.8.6.8 1.1 1.7a29.1 29.1 0 012 4.4 31.3 31.3 0 011.9 8.7v2.7a5.5 5.5 0 010 1z" fill="#263238"/><path d="M17 387.7l12.4 61.1h108a2.2 2.2 0 002.2-2.1 2.2 2.2 0 00-2.2-2.2h-21.7L104 387.7a2.4 2.4 0 00-2.3-2l-82.5-.8a2.4 2.4 0 00-2.4 2.8z" fill="#e0e0e0"/><path d="M17 387.7a1.3 1.3 0 010-.2 2.3 2.3 0 010-.5 2.4 2.4 0 011-1.8 2.2 2.2 0 01.7-.3 3.4 3.4 0 01.9 0h6.8l31.2.3 21.8.2 12.1.1h10.6a2.6 2.6 0 01.8.3 2.6 2.6 0 011.2 1.3 3.6 3.6 0 01.2.8l.2.8c0 .6.2 1.1.3 1.7l.7 3.3 1.4 6.8 2.8 14 6 29.9v-.1H137a3.5 3.5 0 01.9 0 2.3 2.3 0 011.4 1 2.3 2.3 0 01-.8 3.3 2.3 2.3 0 01-1 .3H29.3v-.1a11698.1 11698.1 0 01-12.1-60l-.2-1.2.2 1.1.7 3.2 2.5 12.2 9.1 44.6h108a2 2 0 00.4-4 3.3 3.3 0 00-.8 0h-21.6v-.2l-6-29.8-2.9-14-1.3-6.9-.7-3.3-.3-1.7-.2-.8a4.4 4.4 0 00-.2-.8 2.3 2.3 0 00-1.8-1.3H91.6l-12.2-.2-21.8-.3-31.2-.4h-6.9a3.8 3.8 0 00-.8 0 2.7 2.7 0 00-.7.3A2.4 2.4 0 0017 387a2.6 2.6 0 000 .7z" fill="#263238"/><path d="M66.7 415.7a3.6 3.6 0 11-3.6-3.6 3.6 3.6 0 013.6 3.6z" fill="#fff"/><path d="M17 388.2h21.1l51 .4 7.4.1h1.8a4.1 4.1 0 011 0 2.7 2.7 0 01.8.4 2.6 2.6 0 011 1.5l.4 1.7 2.7 13.3 4.4 22.5 3 15.2.8 4 .2 1.2v.3a3.6 3.6 0 010-.3l-.2-1.1-.9-4.1-3-15.2-4.6-22.4-2.6-13.3-.4-1.7a2.3 2.3 0 00-1-1.3 2.4 2.4 0 00-.7-.4 5 5 0 00-1 0h-9.1l-51-.5-15.5-.2h-5.2z" fill="#263238"/></g></svg>
