<svg xmlns="http://www.w3.org/2000/svg" viewBox="0 0 500 500"><circle cx="440" cy="140.2" r="32.1" fill="#e0e0e0"/><circle cx="439.6" cy="136.3" r="32.1" transform="rotate(-65.3 439.6 136.3)" fill="#ebebeb"/><ellipse cx="439.6" cy="135.9" rx="23.9" ry="24.5" transform="rotate(-71.4 439.6 135.9)" fill="#f5f5f5"/><path d="M432 158.4a24.5 24.5 0 01-15.6-30.3l-.2.6a24.5 24.5 0 0046.4 15.7l.2-.7a24.5 24.5 0 01-30.8 14.7z" fill="#fafafa"/><path d="M447.2 113.3a24.5 24.5 0 0115.6 30.4l.2-.6a24.5 24.5 0 00-46.4-15.7l-.2.7a24.5 24.5 0 0130.8-14.8z" fill="#e0e0e0"/><path d="M449.4 146.6c1.1-3.3.3-6-1.7-7.5a6.6 6.6 0 004.6-4.6c1-3.2 0-6.1-3-8l1.3-4-3.7-1.3-1.2 3.8-2-.7 1.2-3.7-3.7-1.2-1.2 3.6-3.3-1.1-2.3-.8-1.3 3.6 2.3.8-6 17.8-2.5-.9-1.3 3.7 2.6.9 3.3 1-1.4 4.4 3.6 1.2 1.5-4.3 2 .7-1.4 4.3 3.7 1.2 1.5-4.4c4.2.9 7.2-.8 8.4-4.5zM440 127l5 1.7c2.8 1 4 2.6 3.1 5s-2.7 2.8-5.4 2l-5.7-2 2.3-6.9zm-.3 19.7l-6-2-.4-.1 2.5-7.2 6.4 2.1c3 1 4.2 2.7 3.3 5.2s-2.7 3-5.7 2z" fill="#e0e0e0"/><path d="M443 120c0 .2-1.5 0-3.8-.7l.8-.3-1.1 3.7-.2.7-.7-.3-1-.3a103 103 0 01-4.6-1.7l.7-.3c-.9 2.1-1.6 3.5-1.8 3.4s0-1.5.7-3.8l.1-.5.6.1 4.7 1.5 1 .3-.9.5 1.4-3.7.2-.5.5.2c2.2.8 3.5 1.5 3.5 1.7zM449.6 122.3c-.2.3-1.3.3-2.5-.1s-2-1-2-1.4 1.2-.4 2.4 0 2.2 1 2 1.5zM427.5 142.4c-.3-.1.7-4.1 2.3-9s3.2-8.5 3.6-8.4-.7 4.1-2.3 9-3.2 8.5-3.6 8.4zM442.7 135.8c-.1.3-1.8.1-3.7-.6s-3.5-1.4-3.3-1.8 1.8-.1 3.7.5 3.4 1.5 3.3 1.9zM439.2 146.7c-.1.3-1.8.1-3.8-.6s-3.4-1.5-3.3-1.8 1.8-.2 3.8.5 3.4 1.5 3.3 1.9z" fill="#fafafa"/><circle cx="418.8" cy="55.5" r="23.1" transform="rotate(-9.7 419 55.5)" fill="#e0e0e0"/><circle cx="416.9" cy="53.4" r="23.1" transform="rotate(-71.6 416.9 53.4)" fill="#ebebeb"/><ellipse cx="416.7" cy="53.2" rx="17.6" ry="17.2" transform="rotate(-18.2 424.2 49.7)" fill="#f5f5f5"/><path d="M422.3 69.4A17.6 17.6 0 01400 59l.1.5A17.6 17.6 0 10433.5 48l-.1-.5a17.6 17.6 0 01-11.1 22z" fill="#fafafa"/><path d="M411.1 37a17.6 17.6 0 0122.3 10.5l-.2-.5A17.6 17.6 0 00400 58.5l.1.5a17.6 17.6 0 0111.1-22z" fill="#e0e0e0"/><path d="M427 55a4.7 4.7 0 00-4.3-3.5 4.7 4.7 0 00.6-4.7 4.6 4.6 0 00-5.2-3.2l-1-2.8-2.7.9 1 2.6-1.5.5-.9-2.6-2.6.9.9 2.6-2.4.8-1.7.6 1 2.6 1.6-.5 4.4 12.7-1.9.7 1 2.6 1.8-.6 2.4-.9 1 3.1 2.6-.9-1-3 1.5-.6 1 3.1 2.7-1-1-3c2.7-1.5 3.7-3.8 2.7-6.4zm-14-7l3.6-1.2c2-.7 3.4-.3 4 1.4s-.3 2.9-2.3 3.5l-4 1.4-1.7-5zm8.6 11.3l-4.3 1.5-.3.1-1.8-5.2 4.6-1.6c2.2-.7 3.6-.3 4.2 1.5s-.2 3-2.4 3.8z" fill="#e0e0e0"/><path d="M411.7 42.6c0 .2-.9.7-2.5 1.3l.3-.5 1 2.6.2.5-.5.1-.7.3-3.4 1 .3-.5c.4 1.6.6 2.7.5 2.8s-.7-1-1.3-2.5l-.2-.4.4-.2 3.4-1.2.7-.2-.3.6-.9-2.7v-.4h.3c1.6-.5 2.7-.8 2.7-.6zM416.4 41c.1.3-.5.8-1.4 1s-1.7.4-1.8.1.6-.7 1.5-1 1.6-.3 1.7 0zM412.7 62.2c-.3.1-1.4-2.6-2.6-6s-2-6.4-1.7-6.5 1.4 2.6 2.6 6.1 2 6.3 1.7 6.4zM418.4 51.8c.1.2-1 .8-2.3 1.3s-2.6.7-2.7.4 1-.8 2.4-1.3 2.6-.7 2.6-.4zM421.2 59.5c.1.3-1 .9-2.3 1.4s-2.7.6-2.7.4 1-.9 2.3-1.4 2.6-.6 2.7-.4z" fill="#fafafa"/><path fill="#e0e0e0" d="M52 45h94v122.4l-93.4-.5-.6-122z"/><path fill="#fff" d="M140 166.4H46.7V45H140z"/><path d="M140.6 44.5V167H46V44.5zm-1 121.5V45.4H47.1V166z" fill="#e0e0e0"/><path fill="#fff" d="M56.2 58.1h71.6v95.2H56.2z"/><path d="M56.2 58.1v26.5l.2 68.7-.2-.2h71.5l-.2.2V58.2l.2.2-52-.1H56h5l14.6-.3 52-.1h.3v95.6H56v-.2l.1-68.8V65 60v-1.3l.1-.5z" fill="#e0e0e0"/><path d="M46.4 166.4a12.5 12.5 0 011.2-2 122.1 122.1 0 017-9.3 10.8 10.8 0 011.6-1.8 13.2 13.2 0 01-1.4 2l-3.4 4.6-3.5 4.7a12 12 0 01-1.5 1.8zM46.6 45a71.5 71.5 0 015 6.4 74 74 0 014.6 6.8 67.4 67.4 0 01-5-6.5 66.6 66.6 0 01-4.6-6.7z" fill="#e0e0e0"/><path fill="#fff" d="M140.1 45l-12.3 13.6"/><path d="M127.8 58.6a85 85 0 016-7A87.3 87.3 0 01140 45a87 87 0 01-6 7 87.3 87.3 0 01-6.3 6.6zM140 166.4a79 79 0 01-6-6.3 79 79 0 01-5.7-6.7 81.4 81.4 0 016 6.4 80.8 80.8 0 015.8 6.6z" fill="#e0e0e0"/><path d="M87.9 75.9c1.5.7 2.9.2 4.4 0 3.8-.9 6.6 0 10 2.7 2.5 0 4.9-.7 7 1.2l.8.2 1.4.5-.1.3-1.4-.4-.2.2c.2.2.4.4.7.4 3.6.6 5 3 3.5 6.4.5.6 1.4 1.1 1 2.3-.2-.9-.4-1.6-1.5-1.8a5 5 0 011.2 5 5.1 5.1 0 01-3.8 3.5l1.1.3v.2l-1.7-.3a47.5 47.5 0 00-.5 5.2c.2 6-2.4 9.7-8.4 12a3 3 0 00-2.3 3.2 10.3 10.3 0 002.1 6.2c1 1.4 2.2 2.7 3.4 4.2a35.1 35.1 0 00-17.7 10 46.3 46.3 0 001.8-6.1 20.2 20.2 0 00-1.7-11.9c-1-2.2-2.8-3-5.3-2.8l-3.5.4c-2 .1-3.3-.6-3.6-2a4.6 4.6 0 01.1-1.7 2.4 2.4 0 00-.5-2.4c-.7-.7-.3-1.4.3-2.2-1.3-.4-1.2-1.2-.9-2.2a1.3 1.3 0 00-.7-1.8c-1.5-.8-1.6-2-.4-3.2l3-3.6-1.7-1.3.1-.2a2.2 2.2 0 00.6.2 2 2 0 001 0V96a17.6 17.6 0 011.3-10.5 1.1 1.1 0 000-.8c-1.5-4 .1-5.5 2.5-7.3a10 10 0 018.4-2h-2.2l2.5.7-2.5-.2a6.7 6.7 0 00-4.7 1.2c2.8-1.1 5.5-.5 8.4-.4z" fill="#ebebeb"/><path d="M54.7 358.8a38.4 38.4 0 00-16.4-5.6c-2.7-.3-5.6-.2-7.7 1.4a1.6 1.6 0 00-.8 1.4 1.7 1.7 0 00.7 1c6.7 5.1 16.8 5.8 24.2 1.9M54.3 358.4a81 81 0 01-10.6-9.3 26.8 26.8 0 01-6.6-12.3c-.3-1.4-.4-3 .5-4.1 8.4 6.6 15 15 16.7 25.7" fill="#e0e0e0"/><path d="M54.6 358.8a38.4 38.4 0 01.2-14 18.8 18.8 0 017.4-11.4c1.5 3.4.8 7.3-.2 10.9a53.1 53.1 0 01-7.3 15.4M62.9 373.6c-5 .6-9.4 3.2-13.2 6.6a24.9 24.9 0 00-7.5 13c5-.4 9.1-3.8 12.1-7.7s5.2-8.2 8.5-11.8M64.7 376a32.4 32.4 0 013.7-30.6 39 39 0 01-3.7 30.6M75.6 389a23.4 23.4 0 00-22.4 12.9c-.3.6-.5 1.3-.2 1.8a1.7 1.7 0 001.5.4c4.4-.3 8.4-3 11.6-6s6-6.5 9.6-9.1M75.3 388.3a41.7 41.7 0 01-.5-23.4c.9-3 2.2-6.1 5-7.5a1 1 0 01.8-.2 1 1 0 01.5.6 14.1 14.1 0 011.1 6.7 41 41 0 01-1 6.8c-.8 4-1.3 8.5-3.6 12.1a24.6 24.6 0 00-1.4 2.7l-.8 2M104.2 392.6a30 30 0 015.2-24.8c.4-.4 1-1 1.5-1 1 .1 1.2 1.4 1.2 2.3a44.7 44.7 0 01-8 23.4M106.8 394.3a36 36 0 0029.5-6 24 24 0 00-16-2 22.7 22.7 0 00-13.6 8M109 389a34 34 0 0126.8-15.6c-1.3 4.3-4.8 7.7-8.8 9.7s-8.4 3-12.8 3.8c-1.7.3-4 .7-5.2 2M104.7 362.6c1.5-5.2 3-10.4 3.4-15.7s-.3-10.9-3.1-15.5a34.1 34.1 0 00-.5 31.7M122.2 353.8c6-11 18.4-19.8 30.9-21-4.9 12-18 21.3-31 21" fill="#e0e0e0"/><path d="M118.3 356c9 1.3 16.8 7 25.2 10.6a11.2 11.2 0 005.7 1 5 5 0 004.3-3.4 5 5 0 00-1.5-4.4 12.3 12.3 0 00-4.1-2.5 46 46 0 00-28.8-1.6M113.1 362.3c2 .5 2.8 1.6 4.4 3a47 47 0 0019 9.8c.8.1 1.8.2 2.1-.4s0-1.3-.5-1.8a26.3 26.3 0 00-11.5-7.8c-4.4-1.7-8.2-3.7-13.5-3.2M107.2 324a36.1 36.1 0 0027.7 9.4 1.9 1.9 0 001.3-.4c.7-.8-.2-2-1-2.6-8.1-6.3-18-9-28-6.4" fill="#e0e0e0"/><path d="M114.2 321.4a38.6 38.6 0 0134.6-5.7 27.5 27.5 0 01-16.5 7.3 52.1 52.1 0 01-18-1.6M111.4 303.9c-.8-8.2-.2-14.6-.8-22.8 0-.6-.2-1.4-.8-1.6-.9-.4-1.6.7-1.8 1.6a26 26 0 003.4 22.6" fill="#e0e0e0"/><path d="M110.8 304.8c5.6-3.5 9.7-7.9 13.5-13.1 2.7-3.7 5-8 4.3-12.5a12.9 12.9 0 00-9.7 4.8 26.9 26.9 0 00-5 10c-1 3.6-1.8 7.3-3.1 10.8M124 301a108.8 108.8 0 0033.2-19.5c-4-1.6-8.5-.6-12.4 1-9 3.7-16.5 9.8-20.9 18.5M114.6 309.2c6 .7 12.3 1.1 18.4 0s11.6-3.3 17.1-5.6a2 2 0 001.2-1 1.4 1.4 0 00-.4-1.4 3.5 3.5 0 00-1.5-.7c-6-1.7-12.6-.9-18.5 1.1a86 86 0 00-16.3 7.6M79.6 324.3a32.5 32.5 0 01-.2-27c2.5 4 2.8 8.8 2.3 13.4s-1.8 9.4-2 14M63 315.9a37.5 37.5 0 00-28 11.9c5.3.8 10.6-.6 15.4-2.9s9-5.5 13-8.7M51.8 312.1c-5.1-.4-10-1-15 .5s-9.3 4.9-11.3 9.6a27 27 0 0014-2.6 79.7 79.7 0 0012.3-7.5M68.4 312.3c-4.6-3-9.3-6-14.7-7.3s-11.5-.3-15.2 3.7c4.3 2.5 9.5 2.8 14.5 2.8s11.2 0 16 1.6" fill="#e0e0e0"/><path d="M68.4 312.5a34 34 0 01-7.7-32 48.9 48.9 0 017.7 32M90 290.7c1.4-3.4 2.5-7 3.8-10.5a30.3 30.3 0 015.5-9.7 14.4 14.4 0 019.7-5A39 39 0 0190 290.8M86 295.3c-2.5-3.4-5.3-8-8.6-10.5s-7.6-4-11.7-3A27.2 27.2 0 0086 295.3M86.8 291a58.3 58.3 0 01-3.8-12.5c-.7-4.3-.3-9 2-12.7a28.9 28.9 0 012.1 25.3M90 265.8c2.4-8.1 9.8-14 17.8-16.8a6.7 6.7 0 013.1-.4 2.7 2.7 0 012.3 1.9c.3 1.3-.8 2.6-1.9 3.5A60.8 60.8 0 0190 265.8M90 259.1c.4-5.2.7-10.4 2.4-15.4s5-9.5 9.7-11.7c.8 5.3-1.5 10.5-4.3 15s-6.2 8.8-7.9 13.9M90 262.7c-2-5.8-2.3-13.3-5.8-18.4-2.5-3.6-6.4-6-8.5-9.8a14.9 14.9 0 00.5 11.1 32.1 32.1 0 006.5 9.3c2.6 2.8 4.8 4.9 7.2 7.8" fill="#e0e0e0"/><path d="M90 435.8c-.2 0-.3-39.2-.3-87.6s.1-87.5.3-87.5.3 39.2.3 87.5-.2 87.6-.3 87.6z" fill="#e0e0e0"/><path d="M124.2 318.4a8.5 8.5 0 01-1.4.5l-4 1.4c-3.5 1.2-8.2 2.8-13.3 5s-9.8 3.8-12.5 6.2a9 9 0 00-2.5 3.3l-.5 1.5v-.4a5.4 5.4 0 01.3-1.1 8.8 8.8 0 012.4-3.6 22.2 22.2 0 015.4-3.4 197.5 197.5 0 0120.5-7.9l4.1-1.2a8.6 8.6 0 011.5-.3zM135.5 290.8a3 3 0 01-.5.4l-1.2 1.2-4.7 4.3-15.6 13.9a227.1 227.1 0 00-19.3 19.2l-1.1 1.3a2 2 0 01-.4.4 2.4 2.4 0 01.3-.5l1-1.4a98 98 0 014.2-4.8 196 196 0 0115-14.7l15.7-13.8 4.8-4 1.3-1.2.5-.3z" fill="#e0e0e0"/><path d="M106.9 316.1c-.2 0 1.1-3 2.4-6.7s1.8-6.9 2-6.9a22.8 22.8 0 01-1.5 7 47 47 0 01-2 4.7 7.4 7.4 0 01-1 2zM90 339.8a5.6 5.6 0 01-1-1l-2.3-3.2-8-10.1a896 896 0 00-8.1-10l-2.5-3.1a6.8 6.8 0 01-.9-1.2 6.6 6.6 0 011 1l2.6 3a279 279 0 0118.5 23.4 8.2 8.2 0 01.7 1.2z" fill="#e0e0e0"/><path d="M82.5 330.2a13.9 13.9 0 01-3.1-5.9 16.9 16.9 0 01-.8-6h.3l-.2.8v-.8h.2a27.1 27.1 0 001 5.8c1 3.5 2.8 6 2.6 6zM72.8 318a10.6 10.6 0 00-2.2-1.3 14.6 14.6 0 00-6-.5 38 38 0 00-6.2 1 17.8 17.8 0 01-2.6.7 8.4 8.4 0 012.5-1 27.7 27.7 0 016.2-1.2 13.2 13.2 0 016.3.7 4 4 0 012 1.6zM70.5 315l-3.4-1.2a33.8 33.8 0 00-17-1.3c-2.1.4-3.4.8-3.5.7a3 3 0 011-.4 20.7 20.7 0 012.5-.7 30.2 30.2 0 018.7-.6 29.9 29.9 0 018.4 1.9 21.3 21.3 0 012.4 1l1 .6zM90 302.5a69 69 0 01-2.5-8.5 69.3 69.3 0 01-2-8.7A70.6 70.6 0 0188 294a70.7 70.7 0 012 8.6z" fill="#e0e0e0"/><path d="M90.1 302.5c-.2 0-.9-2.5-2.7-5a22.4 22.4 0 00-4-4.2 3.7 3.7 0 011.5.8 12.6 12.6 0 013 3 11.4 11.4 0 012.2 5.4zM90 414.9l-.6-2.6a36.8 36.8 0 00-2.6-6.8 97 97 0 00-14-19.6l-8.6-10a71 71 0 01-6.2-9 42.4 42.4 0 01-3.1-6.6l-.7-2a3.3 3.3 0 01-.1-.6l1 2.5a50.1 50.1 0 003.3 6.5 74.7 74.7 0 006.2 8.8c2.6 3.2 5.6 6.5 8.7 10 6.3 7 11.2 14.2 13.8 19.8a34 34 0 012.5 7 18.5 18.5 0 01.4 2 3 3 0 010 .6z" fill="#e0e0e0"/><path d="M121 380a16.7 16.7 0 01-1.7.8 36 36 0 00-4.2 2.8 46.5 46.5 0 00-5.5 5c-2 2-4 4.4-6 7-4.1 5.1-8 9.7-10.2 13.3l-2.6 4.3a13.4 13.4 0 01-.8 1.7 1.3 1.3 0 01.1-.5l.6-1.2a38.9 38.9 0 012.4-4.5c2.2-3.7 6-8.3 10-13.4 2-2.6 4.1-5 6-7a44.7 44.7 0 015.7-5 29.4 29.4 0 014.3-2.7l1.3-.5a2 2 0 01.5-.2z" fill="#e0e0e0"/><path d="M121.5 391.3a23.7 23.7 0 01-3.4.5 45.6 45.6 0 00-8.1 1.6 24.4 24.4 0 00-7.3 3.8c-1.7 1.3-2.5 2.4-2.5 2.3a2.5 2.5 0 01.5-.8 12.1 12.1 0 011.7-1.8 22 22 0 017.4-4 36.4 36.4 0 018.3-1.5 17.7 17.7 0 013.4-.1z" fill="#e0e0e0"/><path d="M101.2 398.3c-.2-.2 1.3-2.5 2.5-5.7s1.4-6 1.6-6a5.5 5.5 0 010 1.8 20.2 20.2 0 01-1 4.4 21.2 21.2 0 01-2 4 5.5 5.5 0 01-1.1 1.4zM131 349.5a2.2 2.2 0 01-.6.3l-1.6.7-2.5 1.2-3.3 1.7-1.8 1-2 1.3-4.3 3a72.3 72.3 0 00-16.3 16.8l-2.8 4.4-1.1 2-1 1.9C93 385 92.5 386 92 387l-1.1 2.6c-.2.8-.5 1.2-.7 1.6a2.5 2.5 0 01-.3.6 2.4 2.4 0 01.2-.6l.6-1.7a26.7 26.7 0 011-2.6c.4-1 .8-2.2 1.5-3.4l1-2 1.2-2c.7-1.4 1.7-2.9 2.7-4.4a75.7 75.7 0 017.5-9.2 75 75 0 019-7.8l4.2-2.9 2-1.2 2-1c1.1-.7 2.3-1.2 3.3-1.7l2.5-1 1.7-.7a2.5 2.5 0 01.6-.2z" fill="#e0e0e0"/><path d="M106.5 365.9a4 4 0 011.3-2 8.5 8.5 0 015.4-2 15 15 0 015.7 1 8.7 8.7 0 012.2 1 12.9 12.9 0 01-2.3-.6 17.2 17.2 0 00-5.6-1 9 9 0 00-5.1 1.8 16 16 0 00-1.6 1.8zM102.8 369.7a20.3 20.3 0 001.5-5c.4-3-.5-5.2-.3-5.3a3.4 3.4 0 01.6 1.5 10 10 0 01.3 3.8 10.3 10.3 0 01-1.1 3.7c-.5.9-1 1.3-1 1.3zM63 420.5c.7 15 5.3 30.2 12.2 45.6h30.2a132.2 132.2 0 0011.6-45.6z" fill="#e0e0e0"/><path d="M112 444.8c0 .1-9.9.2-22.1.2s-22.2-.1-22.2-.3 10-.2 22.2-.2 22.2 0 22.2.3zM111.4 450.2c0 .1-9.3.3-20.8.3s-20.8-.2-20.8-.3 9.3-.3 20.8-.3 20.8.1 20.8.3zM75.7 430.3a86.5 86.5 0 010 14 83.5 83.5 0 010-14z" fill="#fafafa"/><path d="M91.9 430.3a89.7 89.7 0 010 14.4 92.8 92.8 0 010-14.4zM107 430.2a93.2 93.2 0 010 14.7 96.5 96.5 0 010-14.7z" fill="#fafafa"/><path d="M116 430.3c0 .2-11.7.3-26 .3s-26-.1-26-.3 11.6-.2 26-.2 26 0 26 .2z" fill="#fafafa"/><path d="M456 438.1l3 28.4h-8.8L438.6 438zM408 437.8l3 28.4h-8.7l-11.4-28.5z" fill="#e0e0e0"/><path d="M461.1 262.9c-4.8-7.3-99.9-9.2-104-1.7l-35.4 65.7-52.2-2.8s-7-.4-14 6c-3.4 3.3-3.4 23.7-2.5 31.7l8 76.9 197 1.4s7.9-170 3.1-177.2z" fill="#f5f5f5"/><path d="M401.6 439.5v-.6-1.9l-.1-7-.3-25.9.1.2-59.8-.1-62-.2.2-.2a101.7 101.7 0 00-1.4 24.2l.6 6.6.3 1.7v.6a80 80 0 01-1-8.9 99.3 99.3 0 011.1-24.2v-.1h62.2l59.8.3h.1v.1l.2 25.9v9.5z" fill="#e0e0e0"/><path d="M396.5 328.6h.4a7 7 0 011.2 0 12 12 0 014.4 1.4 16.4 16.4 0 015.4 5 22 22 0 013.7 9.1 62.6 62.6 0 01.7 12.2c0 4.4-.3 9.2-.6 14.2-.7 10.2-2 21.5-3.5 33.6v.2h-.2l-49.8-.1-90.3-.3h-.2v-.1a80.2 80.2 0 011-18c1-5.2 2.6-9.6 4.8-12.6a13 13 0 013.5-3.5l.5-.3.4-.2.9-.4 1.6-.5 1.2-.3h1.7-.7l-1 .1-1.2.3c-.5 0-1 .3-1.6.5l-.8.5-.4.2-.5.3a12.9 12.9 0 00-3.5 3.4c-2.1 3-3.7 7.4-4.6 12.6a80 80 0 00-1 17.9l-.2-.1 90.3.1 49.8.2-.2.1c1.5-12.1 2.9-23.4 3.6-33.5.4-5.1.6-9.9.6-14.3a63.9 63.9 0 00-.6-12.1 22 22 0 00-3.6-9.1 16.4 16.4 0 00-5.4-4.9 12.2 12.2 0 00-4.3-1.4l-1.5-.2zM263.4 436.8l-3.1 29.7h8.8l11.2-29.6-17-.1z" fill="#e0e0e0"/><path d="M457.6 261.3l-.3.2a7.5 7.5 0 00-.7.6 6 6 0 00-1.5 3.4l-2.1 13.9c-2 11.7-4.5 28.1-7.5 46.6v.2h-.2l-9.7-.5c-10.5-.5-20.5-.9-29.6-.9l-6.6.1-1.6.1-1.6.2a5.4 5.4 0 00-2.8 1 18.1 18.1 0 00-4 4 46 46 0 00-3 4.5 83.7 83.7 0 00-6.9 14.8 32 32 0 00-1.2 4.2 9.4 9.4 0 00-.1 1.2v.4a3.9 3.9 0 010-.4 9.7 9.7 0 010-1.2 28.6 28.6 0 011.2-4.3c.6-1.8 1.5-4 2.6-6.5a79 79 0 014.1-8.3 46.4 46.4 0 013-4.5 18.3 18.3 0 014.2-4.2l.7-.4.7-.3.8-.2.7-.1 1.6-.2h1.6c2.2-.2 4.4-.2 6.7-.2 9.1 0 19.1.3 29.6.8l9.7.5-.2.2 7.6-46.6 2.2-14a6 6 0 011.6-3.3 4.7 4.7 0 011-.9z" fill="#e0e0e0"/><g><path d="M454.2 465.6c0 .1-91.9.2-205.2.2s-205.2-.1-205.2-.2 91.9-.3 205.2-.3 205.2.1 205.2.3z" fill="#263238"/></g><g><circle cx="288.4" cy="92.5" r="59.5" fill="#f1543e"/><circle cx="288.4" cy="92.5" r="59.5" opacity=".4"/><circle cx="283.6" cy="87.1" r="59.5" transform="rotate(-87.4 283.6 87.1)" fill="#f1543e"/><ellipse cx="283.2" cy="86.6" rx="45.3" ry="44.2" transform="rotate(-17.2 283.2 86.6)" fill="#fff" opacity=".2"/><path d="M296.2 128.7a45.3 45.3 0 01-56.3-28.7l.3 1.3A45.3 45.3 0 00327 74.5l-.5-1.3a45.3 45.3 0 01-30.2 55.5z" fill="#fafafa"/><path d="M270.2 44.5a45.3 45.3 0 0156.2 28.7l-.3-1.2a45.3 45.3 0 10-86.6 26.8l.4 1.2a45.3 45.3 0 0130.3-55.5z" opacity=".3"/><path d="M309.6 92c-2-6-6-9.1-10.8-9.4 2.5-2.9 3.4-7 2-11.9-2-6-6.6-9.2-13.3-8.6l-2.3-7.4-6.8 2 2.1 7-3.8 1.1-2.2-6.8-6.8 2 2.1 6.9-6.2 1.9-4.3 1.3 2.1 6.9 4.3-1.3 10.3 33-4.8 1.5 2.1 6.9 4.8-1.5 6.2-2 2.5 8 6.8-2-2.5-8 3.9-1.2 2.5 8 6.8-2.1-2.6-8.3c7.4-3.5 10-9.1 7.9-16zm-35.2-19l9.2-2.9c5.1-1.5 8.7-.3 10 4s-1 7.4-6 9l-10.5 3.2-4-13zm21 29.8l-11.2 3.5-.8.2-4.2-13.5 12-3.7c5.6-1.7 9.2-.6 10.7 4.1s-1 7.7-6.6 9.4z" fill="#f1543e"/><path d="M309.6 92c-2-6-6-9.1-10.8-9.4 2.5-2.9 3.4-7 2-11.9-2-6-6.6-9.2-13.3-8.6l-2.3-7.4-6.8 2 2.1 7-3.8 1.1-2.2-6.8-6.8 2 2.1 6.9-6.2 1.9-4.3 1.3 2.1 6.9 4.3-1.3 10.3 33-4.8 1.5 2.1 6.9 4.8-1.5 6.2-2 2.5 8 6.8-2-2.5-8 3.9-1.2 2.5 8 6.8-2.1-2.6-8.3c7.4-3.5 10-9.1 7.9-16zm-35.2-19l9.2-2.9c5.1-1.5 8.7-.3 10 4s-1 7.4-6 9l-10.5 3.2-4-13zm21 29.8l-11.2 3.5-.8.2-4.2-13.5 12-3.7c5.6-1.7 9.2-.6 10.7 4.1s-1 7.7-6.6 9.4z" opacity=".3"/><path d="M306.3 93c-2-6-6-9.1-10.8-9.4 2.5-2.9 3.4-7 2-11.9-2-6-6.6-9.2-13.3-8.6l-2.3-7.4-6.8 2 2.1 7-3.9 1.1-2-6.8-6.9 2.1 2.1 6.9-6.2 1.9-4.3 1.3 2.1 6.8 4.3-1.3 10.3 33.1-4.8 1.5 2.1 6.8 4.8-1.5 6.2-1.9 2.5 8 6.8-2.1-2.5-8 3.9-1.2 2.4 8 6.9-2.1-2.6-8.3c7.4-3.4 10-9.1 7.9-16zM271 74l9.2-2.9c5.1-1.5 8.7-.3 10 4s-1 7.4-6 9l-10.5 3.2-4-13zm21 29.8l-11.2 3.5-.8.2L276 94l12-3.7c5.6-1.7 9.2-.6 10.7 4.1s-1 7.7-6.6 9.4z" fill="#f1543e"/><path d="M331.1 51.2s-1.7-2-5-5.3a59.5 59.5 0 00-44.6-17.5 58.4 58.4 0 00-17 3.2 59.2 59.2 0 00-8.3 3.6 58.7 58.7 0 00-15 11.4 59.2 59.2 0 00-5.8 7 57.5 57.5 0 00-4.5 7.6 56.7 56.7 0 00-3.2 8 59.6 59.6 0 00-2.9 15.3 60 60 0 007.6 32.3c2.3 4 4 6.1 3.8 6.2a7.8 7.8 0 01-1.2-1.4l-1.4-1.9-1.7-2.6a57.8 57.8 0 01-7.3-18.8 61.1 61.1 0 01-1-13.9 60.3 60.3 0 012.7-15.7 57 57 0 013.2-8.1 58.6 58.6 0 014.6-7.8 60.5 60.5 0 016-7.3 59.6 59.6 0 0115.3-11.7 58.6 58.6 0 018.6-3.7 59.9 59.9 0 0117.4-3.2 59.5 59.5 0 0129 6.5 57.6 57.6 0 0116.1 12l2 2.4 1.5 1.8a7.8 7.8 0 011.1 1.6z" fill="#fafafa"/><path d="M271.2 59c.1.3-2.5 1.3-6.6 2.7l.4-.8 2.3 6.8.2.8-.7.2-1.9.6c-3.2 1-6.2 1.9-8.7 2.5l.4-.8c1.2 4.2 1.8 7 1.5 7s-1.3-2.5-2.7-6.6l-.2-.6.6-.2 8.7-2.8 1.8-.6-.5 1-2-6.9-.2-.6.6-.2c4.2-1.2 7-1.8 7-1.5zM283.4 55.3c.1.4-1.6 1.3-4 2s-4.1 1-4.3.6 1.6-1.4 4-2 4.1-1 4.3-.6zM272.2 109.4c-.4.2-3-7-5.8-16s-4.7-16.3-4.3-16.4 3 7 5.8 16 4.7 16.3 4.3 16.4zM287.8 83c0 .4-2.8 1.6-6.4 2.8s-6.7 1.7-6.8 1.3 2.7-1.7 6.3-2.8 6.7-1.7 6.9-1.3zM294.3 103.2c0 .4-2.8 1.6-6.4 2.8s-6.7 1.7-6.8 1.2 2.7-1.6 6.3-2.7 6.7-1.7 6.9-1.3z" fill="#fafafa"/><path d="M288.3 152a25 25 0 01-4.8-5.4 25 25 0 014.8 5.4zM278 151a23.3 23.3 0 01-4.5-5.2 12 12 0 012.5 2.4 11.8 11.8 0 012 2.7zM268.4 148.5a11.5 11.5 0 01-2.5-2.4 11.9 11.9 0 01-2-2.7 11.4 11.4 0 012.4 2.4 11.8 11.8 0 012.1 2.7zM298.7 151.2a12.6 12.6 0 01-2.6-2.5 12.3 12.3 0 01-2.2-2.9 12.3 12.3 0 012.6 2.5 12.6 12.6 0 012.2 2.9zM308 148.7a12.2 12.2 0 01-2.6-2.5 12.6 12.6 0 01-2.1-2.9 25.7 25.7 0 014.7 5.4zM316.8 144.8a12.3 12.3 0 01-2.6-2.5 12.6 12.6 0 01-2.1-2.9 12.6 12.6 0 012.5 2.5 12.3 12.3 0 012.2 3zM324.6 140a13.3 13.3 0 01-2.6-2.5 12.3 12.3 0 01-2.1-2.9 12.7 12.7 0 012.5 2.5 12.3 12.3 0 012.2 2.9zM331.7 133.6a12.6 12.6 0 01-2.6-2.5 12.3 12.3 0 01-2.1-3 12.7 12.7 0 012.5 2.6 12.9 12.9 0 012.2 2.9zM337.5 126.3a12.7 12.7 0 01-2.5-2.5 12.9 12.9 0 01-2.2-2.8 12.6 12.6 0 012.6 2.5 12.3 12.3 0 012.1 2.8zM341.8 119.1a12 12 0 01-2.5-2.5 13.2 13.2 0 01-2.2-2.9 12.2 12.2 0 012.5 2.6 12.6 12.6 0 012.2 2.8zM345.4 111a12.6 12.6 0 01-2.5-2.5 12.6 12.6 0 01-2.2-2.9 12.3 12.3 0 012.5 2.5 12.3 12.3 0 012.2 2.9zM347.9 102.2a12.6 12.6 0 01-2.6-2.5 12.6 12.6 0 01-2.2-2.9 12.3 12.3 0 012.6 2.5 12.6 12.6 0 012.2 2.9zM348.6 92.7a12.7 12.7 0 01-2.5-2.6 12.9 12.9 0 01-2.2-2.8 12.9 12.9 0 012.6 2.5 12.6 12.6 0 012.1 2.9zM347.9 82.9a18 18 0 01-3-3.1 19 19 0 01-2.8-3.4 18.9 18.9 0 013.1 3A18.4 18.4 0 01348 83zM343.8 69.8a18.6 18.6 0 01-3-3.1 19 19 0 01-2.7-3.5 18.9 18.9 0 013 3.1 18 18 0 012.7 3.5z" fill="#263238"/><g opacity=".2"><path d="M256.6 103.2a.9.9 0 00.1.8.8.8 0 00.9.3.8.8 0 00.6-.7.9.9 0 00-.4-.8c-.3-.3-.7-.1-.7-.2s-.4.2-.5.6zM280.9 77.5a.8.8 0 00.1.8.8.8 0 001.5-.4.8.8 0 000-.3.9.9 0 00-.3-.5c-.4-.3-.8-.1-.8-.2s-.4.1-.5.6zM257.2 131.7a.9.9 0 00.2.7.8.8 0 00.9.3.8.8 0 00.5-.7.9.9 0 00-.3-.7c-.4-.3-.8-.2-.8-.3s-.3.2-.5.7zM315.8 71.7a.9.9 0 00.2.8.8.8 0 001.4-.4.9.9 0 00-.3-.8c-.4-.3-.8-.1-.8-.2s-.3.2-.5.6zM251.6 58.8a.9.9 0 00.2.7.8.8 0 00.8.3.8.8 0 00.6-.7.9.9 0 00-.3-.7 1 1 0 00-.6-.3v.2a1.8 1.8 0 010 .5 3.2 3.2 0 01-.1-.5V58h-.1s-.3.2-.5.6zM316.3 60.5a.8.8 0 00.1.7.8.8 0 001.4-.4.8.8 0 00-.3-.7c-.4-.3-.8-.2-.8-.3s-.3.2-.4.7zM279.9 82.1a.8.8 0 00.2.8.8.8 0 00.8.2.8.8 0 00.6-.7.8.8 0 00-.2-.6h-.3a1.4 1.4 0 01.2 0v-.1c-.4-.4-.8-.2-.8-.3s-.3.2-.5.7zM275.3 96.8a.8.8 0 00.2.8.8.8 0 00.8.3.8.8 0 00.6-.8 1 1 0 000-.1.8.8 0 00-.3-.5c-.4-.4-.8-.2-.8-.3s-.3.1-.5.6z" fill="none"/><path d="M242 75.8l46.4-14.4 8.6 6h.1l14-4.5 3.8-1.2 1-.4h.2a.5.5 0 000 .1 1.2 1.2 0 002.1-.6 1.1 1.1 0 00-.5-1 1 1 0 00-.7-.2l-.2.2.8.2a.8.8 0 01.3.7.8.8 0 01-1.5.5.8.8 0 01-.1-.8c.1-.5.5-.6.5-.6h-.3a1 1 0 00-.5.5 1.1 1.1 0 000 .9h-.2l-1 .3-3.7 1.1-14 4.3-8.5-5.9h-.1L242 75.3 224.5 81v.4zM314 49.4l9 6h.1l9-2.7-.2-.2-8.8 2.6-9-6.1h-.2l-5.8 1.8-21.5 6.7-6.5 2.1-1.8.6a3 3 0 00-.6.2 4.9 4.9 0 00.6-.1l1.8-.5 6.6-2 21.6-6.7zM271.7 85.6l5 1 7.7-2.3 2-.6h.2a.6.6 0 10.3-.8.6.6 0 00-.4.7h-.1l-2 .6-7.7 2.2-5-1-32.6 10-11.4 3.5-2.5-.7v.5l2.4.6h.1l11.5-3.5zM275.3 81.8l-4.6-.5-2.7.9c-.6-1.8-1-3.5-1.6-5V77h-.2l-12.6 4.1-3.5 1.2h-.4a.6.6 0 00-.7-.3.6.6 0 10.4 1.2.6.6 0 00.4-.7l.4-.1 3.5-1.1 12.4-3.9 1.4 5 .1.3h.2l2.9-1 4.6.5 5.4-1.7 24-7.5 5 1.6h.1l4.5-1.5 1.2-.4a1.2 1.2 0 002.2-.6 1.1 1.1 0 00-.6-1 1 1 0 00-.7-.2l-.2.2.8.2a.9.9 0 01.3.7.8.8 0 01-1.4.5.9.9 0 01-.2-.8c.2-.5.5-.6.5-.6h-.3a1 1 0 00-.5.5 1.1 1.1 0 00.1 1l-1.2.3-4.5 1.4-5-1.7h-.1L280.6 80zM258.7 131a1 1 0 00-.7-.1h-.3s.4 0 .8.3a.9.9 0 01.3.8.8.8 0 01-.5.7.8.8 0 01-.9-.3.9.9 0 01-.2-.8c.2-.4.6-.6.5-.6h-.2a1 1 0 00-.5.5 1.1 1.1 0 000 1 1.2 1.2 0 002.2-.6h.2l.8-.2 3.2-1 11.3-3.3v-.1l2-7.7v-.1l-1-3.2-4-12.7-6.3-2.6h-.1l-5.2 1.7-1.4.5h-.2a1.1 1.1 0 00-.5-.6 1 1 0 00-.7-.1l-.2.1c0 .1.4 0 .7.3a.9.9 0 01.4.7.8.8 0 01-.6.7.8.8 0 01-.9-.3.9.9 0 01-.1-.7c.1-.5.5-.6.5-.7h-.3a1 1 0 00-.5.5 1.1 1.1 0 00.1 1.1 1.2 1.2 0 002.1-.6 1 1 0 000-.3h.2l1.5-.5 5.2-1.5 6 2.5 4 12.6 1 3.1-2 7.5-11 3.5-3.2 1-.8.3h-.2a1.1 1.1 0 00-.5-.8zM316.4 101.7a.6.6 0 00.4-.7l1.6-.5 6.2-1.9L330 92l13-4v-.5l-13 4-5.5 7-6 1.9-1.7.5a.6.6 0 00-.7-.3.6.6 0 00-.4.7.6.6 0 00.7.5zM293.9 145.5l-.2-.8-1-3.4a761.6 761.6 0 00-4.8-15.5l-7.9-4.2a248.5 248.5 0 00-1.2-3.4.8.8 0 00.2 0 .6.6 0 10-.2 0l.2.9.8 2.7 7.8 4.1 1.2 4 3.6 11.4 1.1 3.5.3.7a.6.6 0 00-.3.3l.9-.2a.6.6 0 00-.5 0zM249 65.1a.6.6 0 10.5-.7.6.6 0 00-.4.7zM306.2 108.5l1.2-.3.2-.1a.5.5 0 000 .1.6.6 0 100-.2h-.2l-1.2.3-4.3 1.2-14.3 4-1.7-4.9-.4-1.4 4-6.8v-.1l-1.6-5.1V95h-.1l-2-1h-.1l-6.5 2-1.8.6h-.2a1 1 0 00-.4-.5 1 1 0 00-.7-.2l-.3.1s.4 0 .8.3a.8.8 0 01.3.5 1 1 0 010 .2.8.8 0 01-.6.7.8.8 0 01-.8-.3.8.8 0 01-.2-.7c.2-.5.6-.6.5-.7h-.2a1 1 0 00-.5.5 1.1 1.1 0 000 1.1 1.2 1.2 0 002.2-.6.9.9 0 000-.3h.2l1.8-.6 6.4-2 2 1 1.5 5-4.1 6.9v.2l.5 1.4 1.7 5v.3h.2l14.5-4.2z" fill="#fff"/><path d="M297.2 108.5l-3.5-11.7-.4-1.6V95h-.1l-6.6-3.7h-.1l-34 10.5-18.2 18.5a1.9 1.9 0 01.2.2l18.2-18.4 33.8-10.4 6.5 3.5.4 1.6 3.5 11.9v.2h.3l45.5-13.6V95z" fill="#fff"/><path d="M291.9 87.1l1.5 4.7 11.5 5.6h.1l12.9-4 22.1-6.8 3-1v-.2l-3 1-22.3 6.8-12.7 4-11.4-5.4L292 87l-.5-1.2a2 2 0 00-.1-.5 2.8 2.8 0 000 .5zM300 69.8h-.1l-3 3-10.4 3.4-3 1-.7.2a1.1 1.1 0 00-.4-.6 1 1 0 00-.8 0h-.2s.4 0 .8.3a.9.9 0 01.3.4.8.8 0 010 .3.8.8 0 01-1.5.4.8.8 0 01-.1-.7c.1-.5.5-.6.5-.7h-.3a1 1 0 00-.5.5 1.1 1.1 0 00.1 1.1 1.2 1.2 0 002.1-.6 1 1 0 000-.4l.7-.2 3-.9 10.5-3.1h.1l3-3.1 5.5-1.6 17.3-5 5.2-1.7 1.3-.4a.6.6 0 001.2-.4.6.6 0 00-1.1.3l-1.4.4-5.3 1.4-17.2 5zM283 134l-1.5-4.5v-.1h-.1l-4.1-1.5h-.1l-8.2 2.6-2.3.8h-.3a.6.6 0 00-.7-.3.6.6 0 00-.4.7.6.6 0 00.8.4.6.6 0 00.4-.7h.2l2.4-.7 8.1-2.4 4 1.4 1.4 4.6 3.8 12.3h.3l-3.8-12.5zM290.6 142.7v-.1l-5.3-17-6-3.2-3.3-10.3-1-2.8-.2-.7h.2a.6.6 0 00.4-.8.6.6 0 00-1.1.4.6.6 0 00.5.4l.2.7.9 3 3.1 10.3 6 3.2 5.2 16.8-.5.8-1.6 3h.5l1.5-2.8zM338.7 106l-28.5 8.7-6.3 2h-.1l-.5 8v.1l5.1 16.4h.2l-5-16.4.5-7.8 6.2-2 28.5-8.8 1.3-.4.1-.3z" fill="#fff"/><path d="M297.2 90v.2h.1l2.4 1 6.6 2.9h.1l14.6-4.5 4.2-1.4 1-.3a.6.6 0 00.7.3.6.6 0 10-.3-1 .6.6 0 00-.4.6l-1 .3-4.3 1.3-14.5 4.4-6.5-3-2.3-1-3.7-12v-.1h-.2l-9.2 3-2.6.8-.3.1a1.6 1.6 0 00-.2-.1 1 1 0 00-.7-.2l-.3.1s.4 0 .8.3a1.4 1.4 0 00-.2.1h.3a.8.8 0 01.2.7.8.8 0 01-.6.7.8.8 0 01-.8-.3.8.8 0 01-.2-.8c.2-.4.5-.5.5-.6h-.3a1 1 0 00-.5.5 1.1 1.1 0 00.2 1.1 1.2 1.2 0 002-.6 1.2 1.2 0 00-.2-.8h.3l2.6-.8 9-2.7 3.7 11.9z" fill="#fff"/><path d="M340.2 72.9l-6.5-3.5h-.1l-.5.2-23.4 7.3-4.2-1.4-5 1.5-3.7 7 1.2 3.7.3 1a1.4 1.4 0 00.1.2v-.3l-.3-1-1.1-3.4 3.7-7 4.8-1.4 4.2 1.4h.1l23.4-7.2.4-.1 6.5 3.4h.1l1.2-.4-.1-.4zM254.2 39.5l6.9 3.6 4.6 14.5 6 1.6 3.3-1 .9-.3a1 1 0 00.3-.1 1.2 1.2 0 00-.3 0l-.9.3-3.3 1-5.8-1.6-4.4-14.6v-.1h-.1l-6.8-3.6-1.1-3.4-.4.2 1 3.4z" fill="#fff"/><path d="M264.7 41.8v.1l3.1 9.8 1 2.7a7.3 7.3 0 00.3 1 6.8 6.8 0 00-.3-1l-.8-2.8-2.9-9.7 4-7.6 2.3-4.2V30l-.3-1h-.4l.3 1-2.2 4z" fill="#fff"/><path d="M271.4 40.2a.6.6 0 00-.8-.8.6.6 0 00-.4.8.6.6 0 00.8.4.6.6 0 00.3-.3l.7.4 3 1.7.9 2.7 1.7 5.3a13.7 13.7 0 00.8 2.1 13.8 13.8 0 00-.5-2.2l-1.6-5.3-.9-2.7v-.1a119 119 0 00-3.3-1.6zM281.3 53.8l3.7 2.6h.2l17.4-5.3 9-2.8v-.1l5-10.6-.2-.2-5 10.6-9 2.7-17.2 5.4-3.5-2.4-7.9-25.1v-.1h-.2v.1l7.7 25.2zM290 58.6l-4.1 1.2-13.6 4.2-.6-1.8V62h-.1l-6-2h-.1l-11 3.4-3.1 1-.9.3h-.2a1.4 1.4 0 00.3 0l.8-.2 3.2-.9 10.9-3.3 5.8 2 .7 2v.2l.2-.1L286 60l4.1-1.4 1.1-.3a1.4 1.4 0 00.4-.2h-.4zM235.7 51.9l4.4 3h.1l9.9-3.2 1.6 5.1.4 1.2h.1v.2a3.2 3.2 0 00.3.5 1.8 1.8 0 00-.2-.5v-.1a1 1 0 01.7.2.9.9 0 01.3.7.8.8 0 01-.6.7.8.8 0 01-.9-.2.9.9 0 01-.1-.8c.1-.5.5-.6.5-.6h-.3a1 1 0 00-.5.5 1.1 1.1 0 00.1 1 1.2 1.2 0 002.1-.6 1.1 1.1 0 00-.5-1 1 1 0 00-.7-.1l-.4-1.2-1.6-5.3v-.1h-.1l-10 3-4.3-3z" fill="#fff"/></g></g><g><path d="M132.2 86.3h129.3a18.7 18.7 0 0118.7 18.7v294.2a16.7 16.7 0 01-16.7 16.7H132.2a18.4 18.4 0 01-18.4-18.4V104.6a18.4 18.4 0 0118.4-18.4z" fill="#455a64"/><rect x="34.8" y="170.5" width="324.3" height="161.2" rx="15.8" transform="rotate(90 197 251)" fill="#263238"/><path d="M185 99.3a1.9 1.9 0 010-3.7h23.8a1.9 1.9 0 110 3.7zM172.3 99.3a1.9 1.9 0 111.8-1.8 1.9 1.9 0 01-1.8 1.8zM179 99.3a1.9 1.9 0 112-1.8 1.9 1.9 0 01-2 1.8zM221.7 99.3a1.9 1.9 0 111.8-1.8 1.9 1.9 0 01-1.8 1.8zM214.9 99.3a1.9 1.9 0 111.8-1.8 1.9 1.9 0 01-1.8 1.8zM280.2 195.8V158a1 1 0 011 1.1v35.8a1 1 0 01-1 1zM113.7 181.3v24a1 1 0 01-1-1v-22a1 1 0 011-1zM113.7 150v24a1 1 0 01-1-1v-22a1 1 0 011-1zM113.7 126.4v11.2a1 1 0 01-1-1v-9.2a1 1 0 011-1z" fill="#455a64"/><path d="M263.2 91.7h-28.8a4.9 4.9 0 00-4.7 3.6l-1.8 6.3a5.5 5.5 0 01-5.3 4H173a5.5 5.5 0 01-5.3-4l-1.8-6.3a4.9 4.9 0 00-4.7-3.6h-29.6a10.6 10.6 0 00-10.6 10.6v295a12 12 0 0012 12h131a10.6 10.6 0 0010.7-10.5V103.2a11.4 11.4 0 00-11.5-11.5z" fill="#fafafa"/><path fill="#f5f5f5" d="M121 271h153.7v37.3H121zM121 342.9h153.7v37.3H121z"/><rect x="137" y="171" width="126.2" height="88.4" rx="17.2" fill="#f1543e"/><rect x="137" y="171" width="126.2" height="88.4" rx="17.2" fill="#fff" opacity=".5"/><rect x="130.4" y="157.3" width="136.9" height="95.9" rx="9.3" fill="#f1543e"/><path d="M140.3 299.1a8 8 0 01-8-8 8 8 0 018-8 8 8 0 018 8 8 8 0 01-8 8z" fill="#e0e0e0"/><path fill="#f1543e" d="M137.1 290.5l3.3-4.5 2.8 4.6-3-1.1-3 1z"/><path fill="#f1543e" d="M137 291.2l3.2 1.8 3.1-1.6-3.1-1.4-3.2 1.2z"/><path d="M137 292l3.2 4 3.1-4-3.1 1.7z" fill="#f1543e"/><path d="M141.3 332.4a8 8 0 01-8-8 8 8 0 018-8 8 8 0 018 8 8 8 0 01-8 8zM141.3 367.9a8 8 0 01-8-8 8 8 0 018-8 8 8 0 018 8 8 8 0 01-8 8z" fill="#e0e0e0"/><path d="M178.4 292c0 .1-5.3.3-11.7.3S155 292 155 292s5.2-.3 11.7-.3 11.7.1 11.7.3z"/><path d="M204.6 296.1c0 .1-11 .3-24.7.3s-24.8-.1-24.8-.3 11-.3 24.8-.3 24.7.2 24.7.3z" fill="#e0e0e0"/><path d="M180.1 324c0 .1-5.2.3-11.7.3s-11.7-.2-11.7-.3 5.2-.3 11.7-.3 11.7.2 11.7.3z"/><path d="M206.4 328.1c0 .2-11.1.3-24.8.3s-24.7-.1-24.7-.3 11-.2 24.7-.2 24.8.1 24.8.3z" fill="#e0e0e0"/><path d="M182 359.4c0 .1-5.3.3-11.7.3s-11.7-.2-11.7-.3 5.2-.3 11.7-.3 11.7.2 11.7.3z"/><path d="M208.2 363.6c0 .1-11 .2-24.8.2s-24.7-.1-24.7-.2 11-.3 24.8-.3 24.7.1 24.7.3z" fill="#e0e0e0"/><path d="M139.8 320.4l-1 4a1.2 1.2 0 00-1 .8 1.6 1.6 0 00-.1 1l.6-.2-.4 2.2h6.2l.5-1.8h-3.8l.3-1.6a1.6 1.6 0 001.1-1.5h-.7l.8-3z" fill="#f1543e"/><path d="M140.8 223s-.2-10.6-.2-23.8.1-23.9.3-23.9.2 10.7.2 23.9-.1 23.9-.3 23.9zM155.7 223c-.1 0-.2-10.6-.2-23.8s0-23.9.2-23.9.3 10.7.3 23.9-.1 23.9-.3 23.9zM170.6 223c-.1 0-.2-10.6-.2-23.8s0-23.9.2-23.9.3 10.7.3 23.9-.1 23.9-.3 23.9zM185.5 223c-.1 0-.3-10.6-.3-23.8s.2-23.9.3-23.9.3 10.7.3 23.9-.1 23.9-.3 23.9zM200.4 223c-.1 0-.3-10.6-.3-23.8s.2-23.9.3-23.9.3 10.7.3 23.9-.1 23.9-.3 23.9zM215.3 223c-.2 0-.3-10.6-.3-23.8s.2-23.9.3-23.9.2 10.7.2 23.9 0 23.9-.2 23.9zM230.2 223c-.2 0-.3-10.6-.3-23.8s.1-23.9.3-23.9.2 10.7.2 23.9 0 23.9-.2 23.9zM245 223s-.2-10.6-.2-23.8.1-23.9.3-23.9.2 10.7.2 23.9 0 23.9-.2 23.9zM260 223c-.1 0-.3-10.6-.3-23.8s.2-23.9.3-23.9.3 10.7.3 23.9-.2 23.9-.3 23.9z"/><path d="M142.3 235.4v1h-1v-1a4.7 4.7 0 01-2.4-.8l.5-1.2a4 4 0 002 .7v-1.6c-1.2-.3-2.4-.7-2.4-2 0-1 .8-2 2.3-2.2v-1h1v1a4.4 4.4 0 012 .6l-.5 1.2a4.2 4.2 0 00-1.5-.5v1.7c1.1.3 2.3.6 2.3 2 0 1-.7 1.9-2.3 2zm-1-4.4v-1.4c-.5.1-.7.4-.7.7s.3.6.7.7zm1.7 2.4c0-.3-.3-.5-.7-.7v1.4c.5-.1.7-.4.7-.7zM153.2 234v1.3H148v-1l2.7-2.5c.6-.6.7-1 .7-1.3 0-.5-.4-.8-1.1-.8a1.7 1.7 0 00-1.5.6l-1.1-.7a3.2 3.2 0 012.7-1.3c1.6 0 2.6.8 2.6 2a2.8 2.8 0 01-1.2 2.2l-1.6 1.5zM153.9 231.8c0-2.2 1.2-3.5 3-3.5s3 1.3 3 3.5-1.3 3.6-3 3.6-3-1.3-3-3.6zm4.3 0c0-1.5-.6-2.2-1.4-2.2s-1.3.7-1.3 2.3.6 2.2 1.3 2.2 1.4-.7 1.4-2.3zM162.3 234.4a2.3 2.3 0 01-.2 1l-.6 1.4h-1l.4-1.5a.9.9 0 01-.5-.9 1 1 0 012 0zM168.3 234v1.3h-5.2v-1l2.7-2.5c.6-.6.7-1 .7-1.3 0-.5-.4-.8-1.1-.8a1.7 1.7 0 00-1.5.6l-1.1-.7a3.2 3.2 0 012.7-1.3c1.6 0 2.6.8 2.6 2a2.7 2.7 0 01-1.2 2.2l-1.6 1.5zM174 233.2c0 1.2-.8 2.2-2.8 2.2a4.8 4.8 0 01-2.6-.7l.6-1.2a3.3 3.3 0 002 .6c.8 0 1.3-.3 1.3-.9s-.4-.8-1.3-.8h-.7v-1.1l1.4-1.6h-3v-1.3h4.9v1l-1.6 1.8a2 2 0 011.9 2zM181.1 233.9H180v1.4h-1.6V234h-3.7v-1.1l3.3-4.4h1.7l-3 4.2h1.8v-1.3h1.5v1.3h1.1zM181.8 234.4a1 1 0 011.9 0 1 1 0 11-2 0zM184.3 231.8c0-2.2 1.2-3.5 3-3.5s3 1.3 3 3.5-1.3 3.6-3 3.6-3-1.3-3-3.6zm4.3 0c0-1.5-.6-2.2-1.4-2.2s-1.3.7-1.3 2.3.6 2.2 1.3 2.2 1.4-.7 1.4-2.3zM191 231.8c0-2.2 1.3-3.5 3-3.5s3 1.3 3 3.5-1.3 3.6-3 3.6-3-1.3-3-3.6zm4.3 0c0-1.5-.5-2.2-1.3-2.2s-1.4.7-1.4 2.3.6 2.2 1.4 2.2 1.3-.7 1.3-2.3zM141 242.9h-.8v.8h-.3v-.8h-1v-.3h1v-1h.2v1h1zM143 244.4v.6h-.3v-.6a1.8 1.8 0 01-1.2-.4l.2-.3a1.6 1.6 0 001 .4V243c-.6-.2-1-.3-1-1 0-.4.2-.8 1-.9v-.6h.2v.6a1.8 1.8 0 011 .3v.3a1.9 1.9 0 00-1-.3v1.3c.6.1 1.2.3 1.2 1 0 .4-.4.8-1.2.8zm-.3-1.9v-1.2c-.5 0-.7.3-.7.6s.3.5.7.6zm1 1c0-.4-.4-.5-.8-.6v1.2c.6 0 .8-.3.8-.6zM145.4 241v3.4h-.3v-3h-.8v-.4zM146.8 244.2a.8.8 0 01-.1.2l-.2.7h-.2l.1-.7a.2.2 0 01-.1-.2.3.3 0 01.2-.3.3.3 0 01.3.3zM149.6 244.1v.3h-2.3v-.2l1.4-1.4c.4-.4.4-.6.4-.9 0-.4-.2-.6-.8-.6a1.1 1.1 0 00-.9.4l-.2-.2a1.5 1.5 0 011.2-.5c.6 0 1 .3 1 .9a1.4 1.4 0 01-.5 1l-1.1 1.2zM152.5 241v.2l-1.5 3.2h-.4l1.4-3h-1.7v.6h-.3v-1zM154 241v3.4h-.4v-3h-.8v-.4zM154.7 244.2a.3.3 0 01.3-.3.3.3 0 01.2.3.3.3 0 01-.2.2.3.3 0 01-.3-.2zM158 243.4c0 .6-.3 1-1.2 1a1.8 1.8 0 01-1.2-.4l.2-.3a1.5 1.5 0 001 .4c.5 0 .8-.3.8-.7s-.2-.7-1-.7h-.8l.2-1.7h1.9v.3h-1.6l-.1 1h.4c1 .1 1.5.5 1.5 1.1zM159.4 241v3.4h-.3v-3h-.8v-.4zM163 244.3a.8.8 0 01-.4.1.7.7 0 01-.8-.7v-1.5h-.5v-.3h.5v-.6h.3v.6h.8v.3h-.7v1.5a.4.4 0 00.4.4.6.6 0 00.4-.1zM163.4 243.1a1.3 1.3 0 111.3 1.3 1.3 1.3 0 01-1.3-1.3zm2.2 0a1 1 0 10-1 1 1 1 0 001-1zM169 240.8v3.6h-.3v-.5a1.1 1.1 0 01-1 .5 1.3 1.3 0 010-2.6 1.1 1.1 0 011 .5v-1.5zm-.3 2.3a1 1 0 10-1 1 1 1 0 001-1zM171.9 242.8v1.6h-.3v-.4a1 1 0 01-1 .4c-.5 0-.9-.3-.9-.7s.3-.7 1-.7h.9v-.2c0-.4-.3-.7-.8-.7a1.3 1.3 0 00-.8.3l-.2-.2a1.6 1.6 0 011-.4 1 1 0 011 1zm-.4.9v-.5h-.8c-.5 0-.6.2-.6.5s.2.5.6.5a.8.8 0 00.8-.5zM175 241.9l-1.4 2.8c-.2.5-.4.7-.8.7a.9.9 0 01-.6-.3l.1-.2a.6.6 0 00.5.2c.2 0 .4-.1.5-.4l.1-.3-1.1-2.5h.4l1 2.1 1-2.1z" fill="#fff"/><path d="M225 293.4v1h-.4v-1a3.1 3.1 0 01-2-.8l.2-.5a3 3 0 001.8.7v-2.2c-1-.3-1.9-.5-1.9-1.7 0-.8.6-1.5 1.9-1.6v-1h.4v1a3.3 3.3 0 011.7.5l-.2.5a3.1 3.1 0 00-1.5-.5v2.3c1 .2 2 .5 2 1.6 0 .9-.6 1.6-2 1.7zm-.4-3.4v-2.1c-.9 0-1.3.5-1.3 1s.6 1 1.3 1.1zm1.7 1.8c0-.7-.6-1-1.3-1.1v2.1c1 0 1.4-.5 1.4-1zM231.7 287.4v6h-.6V288h-1.4v-.6zM233.1 290.4c0-2 1-3 2.4-3s2.4 1 2.4 3-1 3-2.4 3-2.4-1.1-2.4-3zm4.2 0c0-1.6-.7-2.5-1.8-2.5s-1.7.9-1.7 2.5.7 2.4 1.7 2.4 1.8-.9 1.8-2.4zM239.6 292.9a1.4 1.4 0 01-.1.5l-.4 1.2h-.4l.3-1.3a.5.5 0 11.6-.4zM244.5 291.6c0 1-.7 1.8-2.1 1.8a3.1 3.1 0 01-2.2-.8l.3-.5a2.6 2.6 0 001.9.7c1 0 1.5-.4 1.5-1.2s-.5-1.2-1.6-1.2h-.5v-.4l1.7-2h-3v-.6h3.8v.4l-1.7 2.1c1.3.1 2 .8 2 1.7zM249.3 291.6c0 1-.7 1.8-2.1 1.8a3 3 0 01-2.2-.8l.3-.5a2.6 2.6 0 001.9.7c1 0 1.5-.5 1.5-1.2s-.5-1.3-2-1.3h-1.3l.4-3h3.2v.6h-2.7l-.2 1.9h.8c1.8 0 2.4.7 2.4 1.8zM254.6 291.6a1.9 1.9 0 01-2 1.8c-1.6 0-2.5-1.1-2.5-3s1.2-3.1 2.8-3.1a2.7 2.7 0 011.4.3l-.3.5a2 2 0 00-1.1-.3c-1.3 0-2.1.9-2.1 2.5a4.5 4.5 0 000 .5 2 2 0 011.8-1 1.8 1.8 0 012 1.8zm-.6 0c0-.8-.6-1.3-1.5-1.3a1.4 1.4 0 00-1.5 1.3c0 .6.5 1.3 1.5 1.3a1.3 1.3 0 001.5-1.3zM255.4 292.9a.5.5 0 11.9 0 .5.5 0 11-1 0zM257.1 290.4c0-2 1-3 2.4-3s2.4 1 2.4 3-1 3-2.4 3-2.4-1.1-2.4-3zm4.1 0c0-1.6-.7-2.5-1.7-2.5s-1.8.9-1.8 2.5.7 2.4 1.8 2.4 1.7-.9 1.7-2.4zM262.7 290.4c0-2 1-3 2.4-3s2.4 1 2.4 3-1 3-2.4 3-2.4-1.1-2.4-3zm4.2 0c0-1.6-.7-2.5-1.8-2.5s-1.8.9-1.8 2.5.8 2.4 1.8 2.4 1.8-.9 1.8-2.4zM238.4 322.9v1h-.4v-1a3.2 3.2 0 01-2-.8l.3-.5a2.9 2.9 0 001.7.7v-2.2c-.9-.2-1.9-.5-1.9-1.6 0-.9.6-1.6 2-1.7v-1h.4v1a3.2 3.2 0 011.7.6l-.2.5a3.2 3.2 0 00-1.5-.5v2.2c1 .3 2 .5 2 1.7-.1.8-.7 1.5-2 1.6zm-.4-3.4v-2.1c-.9 0-1.3.5-1.3 1s.6 1 1.3 1.1zm1.8 1.8c0-.7-.7-.9-1.4-1v2c1 0 1.4-.4 1.4-1zM245.1 316.9v6h-.6v-5.4h-1.4v-.6zM246.5 319.9c0-2 1-3 2.4-3s2.4 1.1 2.4 3-1 3-2.4 3-2.4-1.1-2.4-3zm4.2 0c0-1.6-.8-2.5-1.8-2.5s-1.7.9-1.7 2.5.7 2.4 1.7 2.4 1.8-.8 1.8-2.4zM256 321.1c0 1-.7 1.8-2.2 1.8a3.1 3.1 0 01-2.1-.8l.3-.5a2.6 2.6 0 001.8.7c1 0 1.6-.4 1.6-1.2s-.5-1.2-1.6-1.2h-.5v-.4l1.7-2h-3v-.6h3.8v.4l-1.6 2.1c1.2.1 1.8.8 1.8 1.7zM257.8 322.4a1.3 1.3 0 01-.1.5l-.4 1.2h-.4l.3-1.2a.4.4 0 01-.3-.5.5.5 0 01.5-.4.4.4 0 01.4.4zM262.7 321.1c0 1-.7 1.8-2.1 1.8a3 3 0 01-2.2-.8l.3-.4a2.6 2.6 0 001.9.6c1 0 1.5-.5 1.5-1.2s-.5-1.2-2-1.2h-1.3l.4-3h3.2v.5h-2.7l-.2 2h.8c1.8 0 2.4.6 2.4 1.7zM268 321a1.9 1.9 0 01-2 1.9c-1.6 0-2.4-1.1-2.4-3 0-2 1-3 2.7-3a2.8 2.8 0 011.4.2l-.2.5a2 2 0 00-1.2-.3c-1.3 0-2.1.9-2.1 2.5v.5a2 2 0 011.8-1 1.8 1.8 0 012 1.8zm-.6 0c0-.7-.6-1.2-1.5-1.2a1.4 1.4 0 00-1.5 1.3c0 .6.5 1.3 1.5 1.3a1.3 1.3 0 001.5-1.3z" fill="#263238"/><path d="M249.2 297.2v.6l-1.6 3.8h-1.1l1.6-3.6h-1.5v.7h-1v-1.5zM249.3 301a.6.6 0 01.7-.6.6.6 0 01.6.6.6.6 0 01-.6.6.6.6 0 01-.7-.6zM254.4 300.2c0 .8-.6 1.5-1.9 1.5a3 3 0 01-1.7-.5l.5-.8a2.1 2.1 0 001.2.4c.5 0 .8-.2.8-.6s-.2-.5-1-.5h-1l.1-2.5h2.7v.8h-1.8v.8h.3c1.3 0 1.8.6 1.8 1.4zM258.5 300.3c0 .8-.7 1.4-1.9 1.4s-1.8-.5-1.8-1.4a1.1 1.1 0 01.6-1 1 1 0 01-.5-1c0-.7.7-1.2 1.7-1.2s1.8.5 1.8 1.3a1 1 0 01-.6.9 1.1 1.1 0 01.7 1zm-1 0c0-.4-.3-.6-.8-.6s-.8.2-.8.6.3.7.8.7.8-.3.8-.7zm-1.5-1.9c0 .3.3.6.7.6s.7-.3.7-.6-.3-.6-.7-.6-.7.3-.7.6zM258.9 298.3a1.1 1.1 0 111 1.3 1.1 1.1 0 01-1-1.3zm1.5 0c0-.4-.2-.7-.4-.7s-.5.3-.5.7.2.7.5.7.4-.2.4-.7zm2.2-1.1h.7l-3 4.4h-.7zm-.7 3.2a1.1 1.1 0 111 1.2 1.1 1.1 0 01-1-1.2zm1.5 0c0-.4-.2-.7-.4-.7s-.5.3-.5.7.2.7.5.7.4-.2.4-.7z" fill="#455a64"/><path d="M242.7 328.6h1.8v.8h-1.8zM248.8 329.4a1.5 1.5 0 01-1.7 1.5c-1.2 0-2-.8-2-2.2a2.2 2.2 0 012.3-2.4 2.4 2.4 0 011.2.3l-.4.8a1.5 1.5 0 00-.8-.3 1.2 1.2 0 00-1.3 1.3 1.5 1.5 0 011.1-.4 1.4 1.4 0 011.6 1.4zm-1 0a.7.7 0 00-.8-.6.7.7 0 00-.7.6c0 .4.2.7.7.7a.7.7 0 00.8-.7zM249.2 330.2a.6.6 0 011.2 0 .6.6 0 11-1.2 0zM254.3 330v.8h-3.4v-.6l1.7-1.7c.4-.3.5-.6.5-.8s-.3-.5-.7-.5a1 1 0 00-1 .4l-.7-.5a2 2 0 011.8-.8c1 0 1.6.5 1.6 1.3a1.8 1.8 0 01-.7 1.4l-1 1zM258.4 329.5c0 .8-.8 1.4-1.9 1.4s-1.8-.5-1.8-1.4a1.1 1.1 0 01.6-1 1 1 0 01-.5-.9c0-.8.7-1.3 1.7-1.3s1.7.5 1.7 1.3a1 1 0 01-.5 1 1.1 1.1 0 01.7 1zm-1 0c0-.4-.3-.6-.8-.6s-.9.2-.9.6.4.7.9.7.8-.3.8-.7zm-1.5-1.9c0 .4.2.6.7.6s.7-.2.7-.6-.3-.5-.7-.5-.8.2-.8.5zM258.7 327.5a1.1 1.1 0 111.1 1.3 1.1 1.1 0 01-1-1.3zm1.6 0c0-.4-.2-.7-.5-.7s-.4.3-.4.7.2.7.4.7.5-.2.5-.7zm2.2-1.1h.7l-3 4.4h-.7zm-.8 3.2a1.1 1.1 0 111.1 1.2 1.1 1.1 0 01-1-1.2zm1.6 0c0-.4-.2-.7-.5-.7s-.4.3-.4.7.2.7.4.7.5-.2.5-.7z" fill="#f1543e"/><path d="M134.2 137.3a3.3 3.3 0 015.7-2l-.9.9a2 2 0 00-1.5-.7 2 2 0 000 3.8 1.9 1.9 0 001.5-.7l1 .8a3.3 3.3 0 01-5.8-2zM143.6 135.7v1.2h-.3a1.1 1.1 0 00-1.2 1.3v2.1h-1.3v-4.6h1.2v.7a1.8 1.8 0 011.6-.7zM149.2 135.7l-2.1 5a1.9 1.9 0 01-2 1.3 2 2 0 01-1.2-.4l.5-1a1.2 1.2 0 00.7.4c.4 0 .6-.2.8-.6l-2-4.6h1.3l1.3 3 1.3-3zM154.7 138a2.2 2.2 0 01-2.3 2.4 1.8 1.8 0 01-1.4-.6v2.2h-1.3v-6.3h1.3v.6a1.8 1.8 0 011.4-.6 2.2 2.2 0 012.3 2.3zm-1.4 0a1.2 1.2 0 10-1.1 1.3 1.2 1.2 0 001.2-1.3zM158.6 140.1a1.9 1.9 0 01-1.1.3 1.5 1.5 0 01-1.7-1.7V137h-.8v-1h.8v-1.2h1.3v1.2h1.1v1h-1.1v1.8a.5.5 0 00.6.6.8.8 0 00.5-.1zM158.8 138a2.5 2.5 0 112.6 2.4 2.4 2.4 0 01-2.6-2.4zm3.7 0a1.2 1.2 0 10-1.1 1.3 1.2 1.2 0 001.1-1.3zM172.2 136.4c0 1.3-.9 2-2.4 2h-1.6v1.9h-.7v-6h2.3c1.5 0 2.4.8 2.4 2.1zm-.6 0c0-1-.6-1.5-1.8-1.5h-1.6v3h1.6c1.2 0 1.8-.6 1.8-1.5zM173 138a2.3 2.3 0 112.3 2.4 2.2 2.2 0 01-2.3-2.3zm4 0a1.7 1.7 0 10-1.7 1.8 1.6 1.6 0 001.7-1.7zM181 135.8v.6a1.4 1.4 0 00-1.6 1.7v2.2h-.6v-4.5h.6v1a1.7 1.7 0 011.7-1zM184.7 140a1.4 1.4 0 01-1 .4 1.2 1.2 0 01-1.2-1.3v-2.8h-.8v-.5h.8v-1h.6v1h1.3v.5h-1.3v2.7a.7.7 0 00.7.8 1 1 0 00.7-.2zM186.5 135.3v.5h1.4v.5h-1.4v4h-.6v-4h-.8v-.5h.8v-.5a1.2 1.2 0 011.4-1.4 1.5 1.5 0 01.9.3l-.2.5a1 1 0 00-.7-.2c-.5 0-.8.3-.8.8zM188.2 138a2.3 2.3 0 112.3 2.4 2.2 2.2 0 01-2.3-2.3zm4 0a1.7 1.7 0 10-1.7 1.8 1.6 1.6 0 001.7-1.7zM194 134h.6v6.3h-.6zM196.2 134.4a.4.4 0 01.4-.4.4.4 0 01.5.4.4.4 0 01-.5.5.5.5 0 01-.4-.5zm.1 1.4h.6v4.5h-.6zM198.2 138a2.3 2.3 0 112.2 2.4 2.2 2.2 0 01-2.3-2.3zm4 0a1.7 1.7 0 10-1.7 1.8 1.6 1.6 0 001.6-1.7zM261.6 139.1a1.3 1.3 0 11-1.3-1.3 1.3 1.3 0 011.3 1.3zM261.6 135.3a1.3 1.3 0 11-1.3-1.3 1.3 1.3 0 011.3 1.3zM261.6 131.4a1.3 1.3 0 11-1.3-1.3 1.3 1.3 0 011.3 1.3z" fill="#263238"/><path d="M266.4 301.4H265a.4.4 0 01-.4-.6l.7-1.2.7-1.2a.4.4 0 01.7 0l.7 1.2.7 1.2a.4.4 0 01-.4.6z" fill="#455a64"/><path d="M228 361v1h-.4v-1a3.2 3.2 0 01-2-.8l.2-.5a3 3 0 001.8.8v-2.3c-1-.2-1.9-.5-1.9-1.6 0-.8.6-1.5 1.9-1.6v-1h.4v1a3.2 3.2 0 011.7.5l-.2.5a3.1 3.1 0 00-1.5-.5v2.2c1 .3 2 .5 2 1.7 0 .8-.7 1.5-2 1.6zm-.4-3.4v-2.1c-1 0-1.3.5-1.3 1s.6 1 1.3 1.1zm1.7 1.8c0-.6-.6-.9-1.3-1v2c1 0 1.3-.4 1.3-1zM234.7 355v6h-.6v-5.4h-1.4v-.6zM240.2 359.2c0 1-.7 1.8-2.2 1.8a3 3 0 01-2.1-.8l.3-.4a2.6 2.6 0 001.8.6c1 0 1.5-.5 1.5-1.2s-.4-1.2-2-1.2h-1.2l.3-3h3.2v.5h-2.7l-.2 2h.8c1.8 0 2.5.6 2.5 1.7zM241.9 360.5a1.3 1.3 0 01-.2.5l-.3 1.2h-.4l.3-1.2a.4.4 0 01-.3-.5.4.4 0 01.4-.4.5.5 0 01.5.4zM246.8 359.2c0 1-.8 1.8-2.2 1.8a3.1 3.1 0 01-2.1-.8l.3-.4a2.6 2.6 0 001.8.6c1 0 1.5-.4 1.5-1.2s-.5-1.1-1.6-1.1h-.4v-.5l1.7-2h-3v-.6h3.8v.4l-1.7 2.2c1.2 0 1.9.7 1.9 1.6zM251.6 359.2c0 1-.7 1.8-2.2 1.8a3 3 0 01-2.1-.8l.3-.4a2.6 2.6 0 001.8.6c1 0 1.6-.5 1.6-1.2s-.5-1.2-2-1.2h-1.3l.3-3h3.3v.5h-2.8l-.2 2h.8c1.8 0 2.5.6 2.5 1.7zM256.9 359.2a1.9 1.9 0 01-2 1.8c-1.6 0-2.5-1.1-2.5-3s1.1-3 2.7-3a2.8 2.8 0 011.5.2l-.3.5a2 2 0 00-1.2-.2c-1.2 0-2 .8-2 2.4a4.4 4.4 0 000 .5 1.9 1.9 0 011.8-1 1.8 1.8 0 012 1.8zm-.7 0c0-.8-.5-1.3-1.5-1.3a1.4 1.4 0 00-1.5 1.3c0 .6.6 1.3 1.6 1.3a1.3 1.3 0 001.4-1.3zM257.6 360.5a.5.5 0 01.5-.4.5.5 0 010 .9.5.5 0 01-.5-.5zM261 355v6h-.6v-5.4H259v-.6zM262.4 358c0-1.9 1-3 2.4-3s2.4 1.1 2.4 3-1 3-2.4 3-2.4-1.1-2.4-3zm4.1 0c0-1.6-.7-2.5-1.7-2.5s-1.8.9-1.8 2.5.7 2.5 1.8 2.5 1.7-1 1.7-2.5z" fill="#263238"/><path d="M247 364.8v.7l-1.6 3.7h-1.2l1.6-3.6h-1.4v.7h-1v-1.5zM247.1 368.7a.6.6 0 011.2 0 .6.6 0 11-1.2 0zM252.1 367.8c0 .8-.5 1.5-1.8 1.5a3 3 0 01-1.7-.5l.4-.8a2.1 2.1 0 001.3.4c.5 0 .8-.2.8-.5s-.2-.6-1-.6H249l.2-2.5h2.7v.8H250v.9h.3c1.3 0 1.8.6 1.8 1.3zM256.3 368c0 .8-.8 1.3-1.9 1.3s-1.9-.5-1.9-1.4a1.1 1.1 0 01.7-1 1 1 0 01-.5-.9c0-.8.7-1.2 1.7-1.2s1.7.4 1.7 1.2a1 1 0 01-.5 1 1.1 1.1 0 01.7 1zm-1 0c0-.5-.4-.7-.9-.7s-.8.2-.8.6.3.7.8.7.8-.3.8-.7zm-1.6-2c0 .3.3.5.7.5s.7-.2.7-.5-.3-.6-.7-.6-.7.3-.7.6zM256.6 366a1.1 1.1 0 011.1-1.2 1.2 1.2 0 11-1.1 1.2zm1.6 0c0-.5-.2-.7-.5-.7s-.5.2-.5.7.2.7.5.7.5-.3.5-.7zm2.2-1.2h.7l-3 4.5h-.8zm-.8 3.3a1.1 1.1 0 112.2 0 1.1 1.1 0 11-2.2 0zm1.6 0c0-.5-.2-.7-.5-.7s-.5.2-.5.7.2.7.5.7.5-.3.5-.8zM265.2 369H264a.4.4 0 01-.4-.6l.7-1.2.7-1.1a.4.4 0 01.7 0l.7 1.1.7 1.2a.4.4 0 01-.4.7z" fill="#455a64"/><path d="M266.4 327.6h1.3a.4.4 0 01.4.6l-.7 1.2-.7 1.2a.4.4 0 01-.7 0l-.7-1.2-.7-1.2a.4.4 0 01.4-.6z" fill="#f1543e"/><path d="M253.5 242h-4.2a3 3 0 01-3-2.9v-3a3 3 0 013-3h4.2a3 3 0 013 3v3a3 3 0 01-3 3zm-4.2-7.8a2 2 0 00-2 2v3a2 2 0 002 1.8h4.2a2 2 0 002-1.9v-3a2 2 0 00-2-2z" fill="#fff"/><path d="M249.2 240.2a.5.5 0 01-.5-.5v-2.3a.5.5 0 01.5-.6.5.5 0 01.5.5v2.4a.5.5 0 01-.5.5zM251.1 240.2a.5.5 0 01-.5-.5v-3.5a.5.5 0 01.5-.5.5.5 0 01.5.5v3.5a.5.5 0 01-.5.5zM253.4 240.2a.5.5 0 01-.5-.5V235a.5.5 0 01.5-.6.5.5 0 01.5.5v4.7a.5.5 0 01-.5.5z" fill="#fff"/><path d="M144.7 361.6a2.2 2.2 0 01-.3-3.7 1.9 1.9 0 00-1.6-2v-1.2h-1.2v1.2h-.6v-1.2h-1.1v1.2H138v1.1h.7v5.6h-.8v1.1h1.8v1.3h1.2v-1.3h.7v1.3h1v-1.3a2 2 0 002-2zm-4.5-4.6h1.6c.8 0 1.3.4 1.3 1.1s-.5 1.1-1.3 1.1H140V357zm1.8 5.6h-2v-2.3h2c1 0 1.5.4 1.5 1.2s-.5 1.1-1.5 1.1z" fill="#f1543e"/><path d="M258.4 180.7l-.2-.2-.7-.7-2.6-2.9h.1l-2.6 4.7-.1.2-.1-.2-5.1-11.6h.3l-2.8 8-1.3 9.8-2.8 5.1v.1h-.2l-2.8.6-7.6-.2h.1l-7 5.9-.2.2-.1-.3c-.5-1.5-1-3-1.4-4.7v-.5a2.9 2.9 0 00-.6.2l-1.1.5-2.3 1.1H217l-2.9-3h.4l-3.3 3-.2.2-.2-.2-3.6-5h.4l-1.4 7.3v.2h-.2l-3 1.2h.2l-3.4 3.2-2.7 4-2.8 1.7-4 .8h-.3l-1.9-2.6.3.1-6.2 1.3h-.1l-.1-.1-8.2-9.9h.4l-8.3 14-.1.3-.2-.3-2.5-3.3h.4l-4.3 4.4-.2.2-.1-.2-3.5-4.5h.3l-6.6 6.7v.1h-.2l-2.4-2.5h.2l-2.3 2.4h-.2l-4.2-5-1-1.3-.3-.5.4.5 1 1.2 4.4 5h-.2l2.2-2.5h.2l2.5 2.4h-.2l6.5-6.7.1-.1.1.1 3.5 4.5h-.3l4.3-4.5.2-.2.1.2 2.5 3.4h-.4l8.1-13.8.2-.3.2.3 8.2 9.8-.3-.1 6.2-1.3h.1l.1.2 1.8 2.4h-.2l4-.9 2.9-1.6h-.1l2.6-4 3.4-3.3 2.9-1.2-.1.2 1.4-7.3.1-.6.4.5 3.7 4.9h-.4l3.3-2.9.1-.2.2.2 2.9 2.9h-.3a45.3 45.3 0 013.5-1.6 2.7 2.7 0 01.7-.2.5.5 0 01.3.1l.1.3v.3l1.4 4.7-.4-.1 7.1-6.2h.2l7.5.1 2.8-.5h-.1l2.8-5c.5-3.4 1-6.7 1.3-9.8l2.9-8 .1-.3.2.3 5 11.7h-.2l2.7-4.7h.1l2.6 3 .6.7.2.2z" fill="#fff"/><path fill="#455a64" d="M157.3 220.2l-2.7-2.2-2.5 2h-6.2l-5.4-4.4.7-.8 5.1 4.2h5.4l2.9-2.3 2.7 2.2 6.5-5.2 5.3 2.7 13.2-2.6 5.7 2.6 7.5-2.6 4-1.6 9.5-3 3.2 3.6 3.6 1.3 8.2-3.5 3.8-5.7 3 5.4 4.9-.2 4.5-3 2.9 2.3 6-7.3 4.6 7.8 3.8 1 2.2 1.5-.6.8-2-1.5-4-.9-4.1-7-5.8 7-3-2.5-4.2 2.8-5.8.2-2.4-4.5-3.2 4.6-8.7 3.8-4.3-1.5-3-3.4-8.8 2.8-4 1.7-7.8 2.6-5.8-2.6-13.3 2.6-5-2.5-6.6 5.3z"/><path d="M274.4 271c0 .1-34.2.3-76.5.3s-76.6-.2-76.6-.3 34.3-.3 76.6-.3 76.5.1 76.5.3z"/><path d="M274.4 308.2c0 .2-34.2.3-76.5.3s-76.6-.1-76.6-.3 34.3-.2 76.6-.2 76.5 0 76.5.2zM274.4 342.9s-34.2.2-76.5.2-76.6-.1-76.6-.3 34.3-.2 76.6-.2 76.5.1 76.5.3zM274.4 380.1c0 .1-34.2.3-76.5.3s-76.6-.1-76.6-.3 34.3-.3 76.6-.3 76.5.2 76.5.3z" fill="#e0e0e0"/><path d="M257.5 403.4h-24a8.8 8.8 0 01-8.8-8.8 8.8 8.8 0 018.8-8.8h24a8.8 8.8 0 018.8 8.8 8.8 8.8 0 01-8.8 8.8z" fill="#f1543e"/><path d="M243.3 395.4c0 .8-.7 1.3-1.8 1.3h-2.3v-4.5h2.2c1 0 1.6.5 1.6 1.2a1.1 1.1 0 00.3 2zm-3-2.4v1h1c.5 0 .7-.1.7-.5s-.2-.5-.7-.5zm2 2.3c0-.3-.3-.5-.9-.5h-1.2v1h1.2c.5 0 .8 0 .8-.5zM244 394.7v-2.5h1v2.5c0 .8.4 1.2 1 1.2s1-.4 1-1.2v-2.5h1v2.5a2 2 0 11-4 0zM251.1 395v1.7h-1V395l-1.7-2.9h1l1.3 2 1.2-2h1z" fill="#fff"/><path fill="#263238" d="M234.4 99h1.6v2.2h-1.6zM236.9 98h1.6v3.2h-1.6zM239.5 97.3h1.6v3.9h-1.6zM242 95.9h1.6v5.3H242zM266.7 101.3h-7.9a.6.6 0 01-.5-.6v-3.9a.6.6 0 01.5-.5h7.9v1.4h1a.1.1 0 010 .1v2h-1v1.4zm-.2-4.7h-7.7a.3.3 0 00-.2.2v4a.3.3 0 00.2.2h7.7v-1.3a.1.1 0 01.2-.1h.8V98h-.8a.1.1 0 01-.2-.1z"/><path fill="#263238" d="M259.2 100.4v-3.2h6.7v3.2h-6.7zM251 101a.6.6 0 10-.5.6.6.6 0 00.6-.6zM248.6 99.6l.7.7a1.7 1.7 0 012.4 0l.8-.7a2.8 2.8 0 00-4 0z"/><path d="M250.5 97.2a4.4 4.4 0 00-3.1 1.3l.7.7a3.4 3.4 0 014.8 0l.7-.7a4.4 4.4 0 00-3-1.3z" fill="#263238"/><path d="M246.2 97.3l.7.7a5 5 0 017.2 0l.7-.7a6 6 0 00-8.6 0z" fill="#263238"/></g><g><path d="M386.1 427.2l2.7 27 8.3 20.6a2.8 2.8 0 01-1.8 3.7 2.7 2.7 0 01-2.5-.4 205 205 0 01-21.2-17.8l-5-28.5z" fill="#455a64"/><path d="M395.3 478.5l-24.1-20.3.1 1a4.4 4.4 0 001.3 2.7c2 1.8 7.5 6.6 20.2 16.2a2.8 2.8 0 002.5.4z" fill="#263238"/><path d="M375.6 448.8a1.7 1.7 0 01.7 2.1 1.6 1.6 0 01-2 .8 1.8 1.8 0 01-.8-2.3 1.7 1.7 0 012.3-.5" fill="#e0e0e0"/><path d="M387.8 467.5c.1 0 .6-1.4 2-2.4a8.3 8.3 0 013-1s-.3-.2-1-.2a4.4 4.4 0 00-4 2.6v1zM390.1 470.9c.2 0 1-1 2.3-1.5a21.9 21.9 0 012.5-.6c.1-.2-1.3-.6-2.8 0s-2.1 2-2 2zM383.6 463.3a26.4 26.4 0 013.3-2.4 27.3 27.3 0 014-1.4 7.5 7.5 0 00-7.2 3.8zM382.1 455.2c.1.2 1.5-.6 3.5-1s3.5 0 3.5-.2a6.8 6.8 0 00-7 1.2z" fill="#263238"/><path d="M323.6 430.4l1 22.4s-22.4 8.5-22.7 12.6l43.6-.3-.2-35z" fill="#455a64"/><path d="M338 450.8a1.8 1.8 0 011.3 2 1.7 1.7 0 01-2 1.2 1.9 1.9 0 01-1.4-2.1 1.8 1.8 0 012.3-1" fill="#e0e0e0"/><path d="M345.4 465.1l-.1-3.5-41.7 1.6s-2 .9-1.7 2.3zM323.9 452.6c0 .2 1 .3 2.1 1s1.6 1.5 1.8 1.4-.1-1.3-1.4-2-2.6-.6-2.5-.4zM319.3 454.5c0 .2.9.5 1.6 1.4s1 1.9 1.2 1.9.3-1.3-.6-2.3-2.2-1.2-2.2-1zM316.8 460c.2 0 .5-1-.1-2.2s-1.6-1.6-1.6-1.4l1 1.7c.5 1 .5 1.9.7 1.9zM324.2 447.4c.1.2 1 0 2.3 0s2.1.5 2.2.3-.8-1-2.2-1-2.4.6-2.3.7z" fill="#263238"/><path d="M398.6 261.5l-8.8 185.7-22.9.3-7.4-156.9s-9.6 82.4-9.6 84.3l-2.7 73.4h-24.1V277.4l15.4-25z" fill="#263238"/><path d="M335.4 448.3a3.2 3.2 0 000-.4v-1.2-4.7l.4-17.3c.4-14.6 1.3-34.8 2.3-57l2.8-57 .8-17.3.2-4.7v-1.2a2.7 2.7 0 000-.4 3.4 3.4 0 000 .4c0 .3 0 .7-.2 1.2l-.2 4.7-1 17.3c-.9 14.6-2 34.7-3 57a2906.8 2906.8 0 00-2.4 74.3l.1 4.7v1.3a2.2 2.2 0 00.2.3zM377.5 287v80.2c0 44.3.5 80.1.6 80.1s.1-35.9 0-80.1-.4-80.2-.6-80.2zM357.7 281.8a4.2 4.2 0 001 .5l3 1.1.3.1v-.3a428.3 428.3 0 00.8-17.8v-2.8a4.4 4.4 0 000-1 3.6 3.6 0 00-.1 1l-.2 2.8a470.2 470.2 0 00-.9 17.8l.3-.1-3.1-1a4.7 4.7 0 00-1.1-.3zM359.7 262.2l-.4-.2a1.6 1.6 0 00-2 1.6 1.9 1.9 0 001.4 1.7 2 2 0 002-1 1.8 1.8 0 000-1.7 1.7 1.7 0 00-.9-.8c-.3-.1-.4-.1-.4 0s.6.2 1 1a1.4 1.4 0 010 1.3 1.5 1.5 0 01-1.5.7 1.4 1.4 0 01-1.1-1.2 1.2 1.2 0 01.6-1.2 2 2 0 011.3-.2zM347.4 264.2c.1 0 .3-.8.4-1.9s0-1.8 0-1.8-.4.8-.5 1.8 0 1.8 0 1.9zM345.5 264c.1 0 .3-.9.3-2s-.2-2-.3-2-.3 1-.3 2 .1 2 .3 2zM378 265.3a5 5 0 00.4-2.2 4.7 4.7 0 000-2.3 5 5 0 00-.5 2.2 4.8 4.8 0 000 2.3zM375.6 265.4a5.1 5.1 0 00.2-4.6 108.4 108.4 0 01-.2 4.6z" fill="#455a64"/><path d="M403.2 116.8a2.8 2.8 0 00-1-1.6 6.7 6.7 0 00-4.2-1 17.7 17.7 0 01-1.7-5.6 3.6 3.6 0 002-.5l.3-.1c1.4-.7 1.6-2.8.7-4a8.1 8.1 0 00-3.9-2.5c1.1 0 2 .8 3 1s2.5 0 2.6-1a2.4 2.4 0 00-.2-1l-.6-1.9a2.1 2.1 0 00-.8-1.3 5 5 0 00-1.1-.3c-1.2-.3-1.8-1.8-3-2a5.4 5.4 0 00-2.7.3c-.8.2-2 0-2.3-.8a8.5 8.5 0 003-2.6 2.9 2.9 0 00-.3-3.6 4.3 4.3 0 00-3-.7c-1.1.1-2.6.4-2.9 1.5a3 3 0 00-3.7 2.4l-3-.3c.8-1 2-1.5 2.8-2.5s.5-2.8-.7-3a7.4 7.4 0 01-1.3-.1c-.3-.1-.5-.4-.9-.4a1.1 1.1 0 00-.6.3l-6.3 4 1.7-4c.6-1.3 1-2.8-.2-3.6s-2.6.3-2.8 1.6a2 2 0 00-2.5 1.9 2 2 0 00-2.5 3.2 5.9 5.9 0 00-3 .9 1.8 1.8 0 00-2.9-1.3 3.2 3.2 0 00-.4-1.8 1 1 0 00-1.7-.2 2.1 2.1 0 00-3.4-2l-1-1.3a2.8 2.8 0 00-2.7 1.4c-.4 1 .3 2.4 1.4 2.3-.8 0-.6 1.2-.2 1.8l1.9 2.5a2.4 2.4 0 00-3-.2 1.8 1.8 0 00-2.6 0 1.5 1.5 0 00-2.6.4c-.2-.5-.9-.5-1.4-.4a3.4 3.4 0 00-2 .7c-.6.5-.6 1.6.1 1.9-.6-.4-1.5.3-1.5 1a2.6 2.6 0 001 1.9 6 6 0 011.5 1.6 3.1 3.1 0 00-2-.5 8.1 8.1 0 00-3.9.8c-.2-.5-1-.5-1.5-.4a9 9 0 00-4.6 2.4c-.5.6-1 1.5-.7 2.3a2.1 2.1 0 00.9.7l4 2.5a11 11 0 00-5.5 4c-.8.4-1.8.5-2.6 1s-.7 2.2.3 2.2a1.6 1.6 0 00.1 2.7 2.6 2.6 0 00.4.5 3.2 3.2 0 001.1.5 2.1 2.1 0 001.8.9 8.5 8.5 0 00-1.9 2.3 3.6 3.6 0 000 3.7l.2.1a1.8 1.8 0 00.7 1.2 1.5 1.5 0 000 1 4 4 0 00-1 6.9c1 .7 2.7.5 2.8-.6a3 3 0 002.3 1.7 3 3 0 001.6 4.1 3.2 3.2 0 001 5.2 2.4 2.4 0 104.6 1.6 5.2 5.2 0 001.8 2.3 1.8 1.8 0 002.5-.7 3.3 3.3 0 005 1.6 2.2 2.2 0 004.2.4h5.6a20.8 20.8 0 003.7-.3 10 10 0 004.3-2 2.4 2.4 0 013-.5 9 9 0 008.6-2 5 5 0 011-1 4 4 0 011.7-.2 16.5 16.5 0 004.1-.5 4.3 4.3 0 002.9-2c.5-1-.1-2.6-1.3-2.6a2.5 2.5 0 01.6-2.1 1.5 1.5 0 012 0 1.1 1.1 0 01-.4 1.7c1.2.9 3.2-.3 3.2-1.9a3 3 0 00-3-2.8 7 7 0 00.1-3.4 2.5 2.5 0 003.4.4 4.3 4.3 0 002.8 2 2.6 2.6 0 002.8-1.6 1.9 1.9 0 00-1.7-2.3 2.2 2.2 0 00-2-3.2 3.4 3.4 0 00-2.1-3.7 1.8 1.8 0 002.5-1c.8 1.1 2.5.9 3.6.2a2.4 2.4 0 001.6-2.6z" fill="#263238"/><path d="M403.2 116.8a1.5 1.5 0 010 .4 2 2 0 01-.4 1.3 4.4 4.4 0 01-1.8 1.3 3.7 3.7 0 01-1.5.3 1.8 1.8 0 01-1.4-.8 1.9 1.9 0 01-2.6 1v-.2a3.5 3.5 0 012.2 3.8v-.1a2.1 2.1 0 011.9 1 2.2 2.2 0 01.1 2.3l-.1-.2a1.9 1.9 0 011.9 1.4 2 2 0 01-1 2.3 3 3 0 01-2.7.3 4.7 4.7 0 01-2.1-1.9h.1a2.6 2.6 0 01-3.5-.4l.2-.1a7.2 7.2 0 010 3.5l-.2-.2a3.4 3.4 0 012 .7 2.8 2.8 0 011.2 2 2.4 2.4 0 01-1.1 2.1 2.1 2.1 0 01-2.4.1l-.4-.2h.4a.9.9 0 00.7-1 1 1 0 00-1-.8 1.5 1.5 0 00-1.4.7 2.6 2.6 0 00-.3 1.6l-.1-.1a1.5 1.5 0 011 .5 2.2 2.2 0 01.6 1.1 2.1 2.1 0 01-.2 1.2 2.8 2.8 0 01-.7 1 6 6 0 01-2.2 1 18.1 18.1 0 01-2.3.6c-1.6.3-3.4-.3-4.5 1.1a9 9 0 01-4.5 2.3 9.1 9.1 0 01-2.6.2 14.1 14.1 0 01-2.6-.6 1.6 1.6 0 00-1.1.2 10.5 10.5 0 00-1 .7 10.1 10.1 0 01-2.4 1.4 14.4 14.4 0 01-5.4.7l-5.6.1.2-.2a2.4 2.4 0 01-4.8-.4l.4.2a3.6 3.6 0 01-5.3-1.7h.4a1.6 1.6 0 01-1.2 1 2.3 2.3 0 01-1.5-.2 5.2 5.2 0 01-2-2.4h.4a2.7 2.7 0 11-5-1.7l.1.3a3.2 3.2 0 01-2-2.5 3.2 3.2 0 011-3.1v.4a3.2 3.2 0 01-1.6-4.5l.1.4a3.3 3.3 0 01-2.5-1.9h.5a1.2 1.2 0 01-.4.7 1.6 1.6 0 01-.7.4 2.6 2.6 0 01-1.6-.1 4 4 0 01-2-2.4 4 4 0 01.2-3 4.3 4.3 0 012.3-2.2l-.2.2a1.7 1.7 0 01.2-1.1l.1.3a2 2 0 01-.9-1.3v.1a3.5 3.5 0 01-.4-3.5 7.8 7.8 0 012.3-3l.1.4a2.3 2.3 0 01-2-1l.2.2a3 3 0 01-1.7-1.2 1.8 1.8 0 01-.8-1.4 2 2 0 01.7-1.6l.2.4a.9.9 0 01-.8-.4 1.4 1.4 0 01-.2-.7 1.8 1.8 0 01.6-1.4c.8-.7 1.8-.7 2.6-1.2l-.1.1a11.3 11.3 0 015.7-4l-.1.4-1.9-1.1-1.4-.9a12.4 12.4 0 01-1.4-1 1.4 1.4 0 01-.4-.8 1.8 1.8 0 01.1-1 4 4 0 011-1.3 9.2 9.2 0 012.9-1.8 10 10 0 011.6-.5 2.5 2.5 0 01.9 0 1 1 0 01.7.6l-.3-.1a6.8 6.8 0 013-.8h1.6a2.6 2.6 0 011.6.5l-.4.3c-.5-.9-1.6-1.3-2.2-2.3a1.8 1.8 0 01-.2-1.8 1.5 1.5 0 01.7-.7 1 1 0 011 0l-.2.4a1 1 0 01-.7-.7 1.6 1.6 0 010-.8 1.5 1.5 0 01.5-.8 2 2 0 01.7-.4 6 6 0 011.5-.3 2.5 2.5 0 01.8 0 1 1 0 01.8.6h-.5a1.7 1.7 0 013-.6h-.3a2 2 0 013 0h-.3a2.6 2.6 0 013.2.3l-.4.3-1.5-2.1a3.1 3.1 0 01-.7-1.3 1.8 1.8 0 010-.8.8.8 0 01.3-.3.7.7 0 01.4-.2v.5a1.6 1.6 0 01-1.5-1 2 2 0 010-1.7 3 3 0 012.8-1.5h.1l.1.1 1 1.3h-.3a2.4 2.4 0 013.8 2.3l-.4-.2a1 1 0 011-.4 1.5 1.5 0 011 .6 3.5 3.5 0 01.5 1.9l-.4-.1a2 2 0 013.3 1.4l-.3-.2a6.2 6.2 0 013-1v.4a2.3 2.3 0 012.6-3.5l-.3.2a2.3 2.3 0 012.8-2.1l-.3.2a2.5 2.5 0 01.9-1.5 2.2 2.2 0 011.5-.5 1.7 1.7 0 011.4 1 2.8 2.8 0 01.1 1.6 13.4 13.4 0 01-1 2.8l-1.2 2.7-.3-.2 4-2.6 1.9-1.2a5 5 0 011-.6.9.9 0 01.6 0l.5.4a3 3 0 001 0 1.5 1.5 0 011.1.6 2.4 2.4 0 01.2 2.3 4.2 4.2 0 01-1.4 1.6 13.2 13.2 0 00-1.6 1.3l-.1-.3 3 .3-.2.2a3.2 3.2 0 014-2.5h-.2a2 2 0 011.5-1.2 7.2 7.2 0 011.9-.3 5.4 5.4 0 012 .2 2.3 2.3 0 011.3 1.3 3.5 3.5 0 01-.6 3.5 10.2 10.2 0 01-2.8 2.2v-.2a1.2 1.2 0 001 .7 3 3 0 001.5 0 8.5 8.5 0 011.5-.4 2.2 2.2 0 011.4.2c.9.6 1.4 1.4 2.2 1.8a12.9 12.9 0 001.3.3 1.7 1.7 0 01.9 1.1l.8 2.5a1.5 1.5 0 01-.1 1.3 1.7 1.7 0 01-1.1.7 2.9 2.9 0 01-1.2 0 6.4 6.4 0 01-1.2-.4 6.1 6.1 0 00-2-.7v-.3a13.5 13.5 0 012.4 1.2 4.6 4.6 0 011.7 1.8 3.4 3.4 0 01.2 2.3 2 2 0 01-1.5 1.5 3.6 3.6 0 01-2 .6l.1-.1a17.7 17.7 0 001.7 5.6 10.8 10.8 0 012.8.3 3.9 3.9 0 011.7 1 2.7 2.7 0 01.6 1 1.3 1.3 0 010 .4 2.7 2.7 0 00-.7-1.3 3.8 3.8 0 00-1.7-1 10.6 10.6 0 00-2.8-.4 17.9 17.9 0 01-1.7-5.5v-.1a3.4 3.4 0 002-.6 1.9 1.9 0 001.4-1.4 3.1 3.1 0 00-.2-2.1 4.3 4.3 0 00-1.6-1.8 14.6 14.6 0 00-2.5-1.1l-.7-.3h.8a6.1 6.1 0 012.1.8 5.2 5.2 0 001.1.4 2.7 2.7 0 001.1 0 1.5 1.5 0 001-.6 1.3 1.3 0 000-1.1l-.7-2.5a1.4 1.4 0 00-.7-1 11 11 0 01-1.4-.3c-.8-.4-1.3-1.3-2.1-1.7s-1.8-.2-2.7 0a3.2 3.2 0 01-1.6.2 1.5 1.5 0 01-1.3-1v-.1h.1a10 10 0 002.7-2.2 3.1 3.1 0 00.6-3.1 2 2 0 00-1.4-1.1 5 5 0 00-1.7-.2 7 7 0 00-1.9.2 1.7 1.7 0 00-1.3 1.1v.2h-.2a2.9 2.9 0 00-3.5 2.2v.2h-.1l-3-.3h-.4l.3-.3a13.2 13.2 0 011.6-1.4 3.8 3.8 0 001.3-1.5 2 2 0 00-.1-2 1 1 0 00-.9-.3 3.3 3.3 0 01-1.1-.2c-.4-.1-.7-.4-1-.3a5 5 0 00-.8.5l-2 1.3-3.8 2.5-.6.4.3-.6 1.1-2.7a13.3 13.3 0 001-2.8 2.4 2.4 0 000-1.3 1.3 1.3 0 00-1-.8 2 2 0 00-2 1.6v.3h-.3a1.9 1.9 0 00-2.2 1.6v.3h-.3a1.9 1.9 0 00-2.2 2.7l.3.4h-.4a5.7 5.7 0 00-3 .9l-.3.2v-.4a1.6 1.6 0 00-2.5-1.1l-.4.3v-.5a3 3 0 00-.4-1.6c-.3-.4-1-.6-1.3-.2l-.6.8.2-1a1.9 1.9 0 00-3-1.8l-.2.1-.2-.2-1-1.2h.2a2.6 2.6 0 00-2.5 1.3c-.4.8.3 2 1.1 2v.4l-.2.2a1.1 1.1 0 000 .6 2.5 2.5 0 00.6 1l1.5 2.2-.3.3a2.1 2.1 0 00-2.6-.2l-.2.1-.1-.2a1.6 1.6 0 00-2.3 0l-.3.3-.1-.3a1.2 1.2 0 00-2.2.4v1.1l-.5-1c0-.4-.6-.4-1-.4a5.8 5.8 0 00-1.4.3 1.3 1.3 0 00-.9.9c-.1.4 0 .8.4 1l-.2.4c-.4-.2-.9 0-1 .5a1.3 1.3 0 00.2 1.3c.5.8 1.6 1.3 2.2 2.4l.6 1-1-.8c-.7-.5-1.8-.3-2.8-.3a6.4 6.4 0 00-2.8.7l-.3.1v-.2c-.2-.4-.8-.4-1.3-.3a8 8 0 00-1.5.4 8.8 8.8 0 00-2.7 1.7 3.6 3.6 0 00-.9 1.2 1 1 0 00.2 1.3 10.6 10.6 0 001.3.9l1.4.8 2 1.2.4.3-.6.1a10.8 10.8 0 00-5.4 3.9c-.9.5-1.9.5-2.5 1a1.3 1.3 0 00-.4 1c0 .4.2.8.5.7h.7l-.6.5a1.5 1.5 0 00-.5 1.2 1.3 1.3 0 00.7 1.1 2.5 2.5 0 001.4 1 2 2 0 001.6.8h.8l-.6.4a7.4 7.4 0 00-2.1 2.8 3 3 0 00.4 3v.1a1.6 1.6 0 00.6 1l.2.1v.2a1.2 1.2 0 00-.2.8v.2l-.2.1a3.8 3.8 0 00-2 2 3.6 3.6 0 00-.2 2.7 3.5 3.5 0 001.7 2 2.2 2.2 0 001.3.2.9.9 0 00.8-.6v-1l.5 1a2.9 2.9 0 002.1 1.5h.3l-.1.3a2.8 2.8 0 001.4 3.8l.4.1-.3.3a2.8 2.8 0 00-.8 2.7 2.7 2.7 0 001.7 2l.2.2v.2a2.3 2.3 0 001.4 2.8 2.3 2.3 0 002.7-1.4l.2-.5.2.5a4.8 4.8 0 001.8 2.2 1.6 1.6 0 002.2-.6l.2-.6.2.7a3 3 0 002 1.8 3 3 0 002.6-.4l.3-.2v.4a2 2 0 001.9 2 2 2 0 002-1.6v-.2h5.8a14 14 0 005.3-.8 9.5 9.5 0 002.3-1.2 9.8 9.8 0 011-.8 2 2 0 011.5-.2 13.2 13.2 0 002.5.6 9.2 9.2 0 002.5-.2 8.7 8.7 0 004.3-2.2 4.7 4.7 0 011-.8 2.9 2.9 0 011.3-.3 18.7 18.7 0 002.4-.1 15.6 15.6 0 002.3-.5 5.5 5.5 0 002-1 2 2 0 00.8-1.9 1.4 1.4 0 00-1.3-1.3h-.1v-.2a3 3 0 01.3-1.8 1.8 1.8 0 011.6-1 1.3 1.3 0 011.3 1 1.2 1.2 0 01-.9 1.5l.1-.3a1.8 1.8 0 002-.1 2 2 0 001-1.8 3 3 0 00-2.9-2.5h-.1v-.2a6.7 6.7 0 000-3.3v-.6l.3.5a2.4 2.4 0 003.2.3h.1a4.4 4.4 0 002.1 1.8 2.7 2.7 0 002.5-.2 1.8 1.8 0 00.9-2 1.6 1.6 0 00-1.7-1.3h-.2l.1-.2a2.1 2.1 0 00-1.8-3h-.2v-.1a3.4 3.4 0 00-2-3.6l.1-.1a1.7 1.7 0 002.5-1v-.1.1a1.6 1.6 0 001.4.8 3.6 3.6 0 001.4-.3 4.4 4.4 0 001.9-1.2 2 2 0 00.4-1.2l.1-.4z" fill="#455a64"/><path d="M378.2 157.6l-.1-5.3s10-1.5 10.3-11.5c.1-4.9-.5-14.9-1.1-24a18.7 18.7 0 00-18.5-17.4h-1c-10.4.5-15.9 9.7-15 20.1l1 38.3 6 14.5c6 6.5 18.8-6 18.4-14.7z" fill="#c78976"/><path d="M378.1 152.3a24.3 24.3 0 01-13-4s3 7.7 13 6.9z" fill="#8b5d54"/><path d="M383.4 125.8a1.4 1.4 0 01-1.4 1.5 1.4 1.4 0 01-1.4-1.3 1.4 1.4 0 011.3-1.5 1.4 1.4 0 011.5 1.3zM385.2 121c-.2.2-1.3-.6-2.8-.7s-2.7.8-2.9.6.1-.4.6-.8a4 4 0 012.3-.6 3.8 3.8 0 012.2.7c.5.4.6.7.6.8zM369.8 126.6a1.4 1.4 0 01-1.4 1.4 1.4 1.4 0 01-1.5-1.3 1.4 1.4 0 011.4-1.4 1.4 1.4 0 011.5 1.3zM370 121.5c-.2.1-1.3-.7-2.8-.7s-2.7.8-2.9.6.1-.5.6-.8a4 4 0 012.3-.7 3.8 3.8 0 012.3.8c.5.3.6.7.5.8zM375.4 133.4a10 10 0 012.5-.4c.4 0 .8-.1.9-.4a2.1 2.1 0 00-.3-1.2l-1.1-3c-1.6-4.3-2.7-7.8-2.5-7.9s1.6 3.4 3.1 7.7l1.1 3a2.3 2.3 0 01.2 1.5 1 1 0 01-.7.6 3 3 0 01-.6 0 10.6 10.6 0 01-2.6.1zM370.4 116.3c-.1.4-1.6.2-3.5.4s-3.2.6-3.5.3c0-.2.2-.6.8-1a6.1 6.1 0 015.3-.6c.7.3 1 .6 1 .8zM384.6 115.8c-.3.4-1.3 0-2.6 0s-2.4.3-2.6 0c-.1-.3 0-.6.5-1a3.7 3.7 0 012.1-.6 3.6 3.6 0 012.1.7c.5.4.6.7.5 1z" fill="#263238"/><path d="M377 137.4a6.4 6.4 0 01-.8 1.7 2.2 2.2 0 01-1.5 1 2 2 0 01-1.8-.9 3.1 3.1 0 01-.5-1.8c0-.6.2-1.4.8-1.5a1.5 1.5 0 01.7.2l3.2 1" fill="#8b5d54"/><path d="M375.8 140a4.8 4.8 0 01-1.7-.1 2.4 2.4 0 01-1.3-1.1 2.5 2.5 0 01-.1-2 2.2 2.2 0 01.2-.5l.3-.1.5.2.5.2 1.8.6a5.5 5.5 0 001.7.4 5.6 5.6 0 00-1.6-.8l-1.7-.7-.5-.2a4.6 4.6 0 00-.6-.2.7.7 0 00-.5 0 .9.9 0 00-.3.2 3 3 0 00-.3.7 3 3 0 00.2 2.4 2.6 2.6 0 001.6 1.2 2.5 2.5 0 001.4 0c.3 0 .4-.2.4-.2zM390 108.5a12.3 12.3 0 00-.3-1.5 4.6 4.6 0 00-1.3-1.9c-2-1.8-4-3.8-6.4-4.4-1.5-.4-3-.3-4.5-.6a27.9 27.9 0 01-2.7-1 22 22 0 00-11.3-.6 18.3 18.3 0 00-6.2 2 22.3 22.3 0 00-5.4 5 33.5 33.5 0 00-6.2 9.8 16.3 16.3 0 00-.8 9.3c.7 3.1 2.9 5.9 5.6 6.3l.9-1.3 1.5-1.8c-.3.7 0 .7.6 1a1.3 1.3 0 001.8-.7c.5.6 1.6-.1 1.4-1 .6.3 1.3-.6 1-1.3.8.2 1-1 1.4-1.8l.6-1.2a7.8 7.8 0 00.8-4.2 7.8 7.8 0 001-4.2l.1-2.8.5-.7a1.5 1.5 0 001 1.3 3.2 3.2 0 001.7-.1l1.7-.5 1 .2a4.2 4.2 0 00.5 2.7 2.6 2.6 0 001.1 1.5.8.8 0 001-1 .9.9 0 001.3-.3 2.9 2.9 0 00.3-1.7 7.3 7.3 0 00-1.7-3.9l3 2.5a1.3 1.3 0 00.8.4.8.8 0 00.9.7 2 2 0 001-.8c.6-.8 1.3-2 .6-2.9a.6.6 0 00.2-.9l3.4 2.2c-.3-.1-.6.4-.5.8a1.7 1.7 0 00.7 1 2.5 2.5 0 00-.2 1.5c-.6-.5-1.4.6-1.2 1.4a1.9 1.9 0 001.9 1.2 1.3 1.3 0 001.3-1c.7 0 1.4-1 1-1.8.6.3 1-.7 1-1.4a10.2 10.2 0 00-.9-3.6.2.2 0 00.3.1.3.3 0 000-.1l2 4a10.3 10.3 0 011.4 3.6c0 .5.2 1.3.6 1.3a.5.5 0 00.4-.2 6.8 6.8 0 002.6-3.6 5.4 5.4 0 00.3-1.6 22.2 22.2 0 00-.7-3.4z" fill="#263238"/><path d="M375.6 107.1a1.6 1.6 0 00.4-.8 1.1 1.1 0 00-.4-1 1.2 1.2 0 00-1.2-.1h-.2v-.2a1.2 1.2 0 00-.4-1.3 1.2 1.2 0 00-1.5.2l-.3-.2a.4.4 0 00.1-.2.7.7 0 00-.1-.5.8.8 0 00-.5-.3 1.4 1.4 0 00-.6.1 1.6 1.6 0 01-.7.2c-.3 0-.5-.2-.6-.3a2.2 2.2 0 00-.5-.3 2.6 2.6 0 00-1-.1 2.7 2.7 0 00-1.5.5l-.4.3a1.2 1.2 0 01.4-.4 2.7 2.7 0 011.4-.6 2.9 2.9 0 011.2.1 2.6 2.6 0 01.5.3l.5.3a1.6 1.6 0 00.6-.3 1.7 1.7 0 01.7 0 1 1 0 01.7.3 1 1 0 01.2.8 1.2 1.2 0 010 .3l-.3-.2a1.5 1.5 0 011.9-.2 1.5 1.5 0 01.5 1.6l-.2-.1a1.4 1.4 0 011.5.3 1.2 1.2 0 01.3 1 1.2 1.2 0 01-.2.7.9.9 0 01-.3.1zM382.7 108.3a1.8 1.8 0 00.4-.8 1.4 1.4 0 00-.1-1 1.4 1.4 0 00-1.2-.7h-.2l.1-.2a1.7 1.7 0 00.4-1.5 1 1 0 00-.6-.6.7.7 0 00-.8.2l-.7.9.4-1a1.4 1.4 0 000-1.3 1.3 1.3 0 00-1-.7 1.4 1.4 0 00-.9.2l-.3.2.1-.4c.2-.5-.4-1-.9-1a2.3 2.3 0 00-1.4.4l-.3.2.1-.3a1 1 0 00-.4-1 1.8 1.8 0 00-1-.4 4.8 4.8 0 00-1.8.2 6.7 6.7 0 00-1.4.7l.3-.3a4.8 4.8 0 012.9-.8 2.2 2.2 0 011.1.4 1.3 1.3 0 01.5 1.2l-.2-.2a2.6 2.6 0 011.6-.5 1.3 1.3 0 01.9.4 1 1 0 01.3 1l-.3-.1a1.8 1.8 0 011.2-.3 1.6 1.6 0 011.2 1 1.7 1.7 0 010 1.4l-.2-.2a1 1 0 011-.2 1.2 1.2 0 01.8.7 2 2 0 01-.4 1.8v-.2a1.6 1.6 0 011.2.9 1.5 1.5 0 01.2 1.1 1.7 1.7 0 01-.4.6l-.2.2zM397.7 108.3a1 1 0 00-.4-.7 1.4 1.4 0 00-1-.3 4 4 0 00-1.3.5h-.1v-.1a1.2 1.2 0 00-1.1-1.1 3.5 3.5 0 00-2 .5l-.8.4.7-.6a1 1 0 00-.2-1.5 2.2 2.2 0 00-1.8-.2h-.6l.5-.3a1 1 0 00-.3-1.6 1.6 1.6 0 00-1.8.3l-.5.5.3-.6a2.4 2.4 0 00-.2-2.5 2.2 2.2 0 00-1.7-.9 2.5 2.5 0 00-1.3.3l-.4.2a1.7 1.7 0 01.3-.3 2.4 2.4 0 011.4-.3 2.4 2.4 0 011.9.9 2.6 2.6 0 01.2 2.7l-.2-.2a1.8 1.8 0 012.1-.4 1.3 1.3 0 01.7 1 1.2 1.2 0 01-.4 1.2v-.3a2.5 2.5 0 012 .4 1.4 1.4 0 01.5.8 1 1 0 01-.3 1l-.1-.2a3.7 3.7 0 012-.5 1.4 1.4 0 011.3 1.3h-.2a4.3 4.3 0 011.4-.5 1.4 1.4 0 011 .3 1 1 0 01.4.6v.2zM388.7 94.8l-.4.2a4.8 4.8 0 01-1 .1 3.2 3.2 0 00-1.6.4 1 1 0 00-.5.7.7.7 0 00.4.8l-.2.2c-.1-.4-.6-.6-1-.8a4.7 4.7 0 00-1.4-.4 1.7 1.7 0 00-1.3.3 1.1 1.1 0 00-.5 1l.1.4-.3-.2a3 3 0 00-1.9-.6 3.4 3.4 0 00-1.5.4 4.5 4.5 0 00-1.1.8 1 1 0 01.2-.3 3 3 0 01.8-.7 3.6 3.6 0 011.6-.4 3.2 3.2 0 012 .6l-.2.1a1.4 1.4 0 01.6-1.3 2 2 0 011.5-.4 4.8 4.8 0 011.5.5 6.6 6.6 0 01.6.3 1 1 0 01.5.6v.3l-.2-.1a1 1 0 01-.5-1.1 1.2 1.2 0 01.6-.9 3.3 3.3 0 011.6-.3 8.3 8.3 0 001.1-.1 2 2 0 01.5 0zM374.4 90.7a3 3 0 00-.7.1 1.7 1.7 0 00-.7.5 1.5 1.5 0 00-.4 1v.2h-.1a1 1 0 00-1 .6 2.7 2.7 0 000 1.6l.2.5-.4-.4a1.2 1.2 0 00-1-.4 1.3 1.3 0 00-1 .5 2.1 2.1 0 00-.3 1.7 4 4 0 00.4 1.2 2.1 2.1 0 01.2.4l-.3-.4a3.7 3.7 0 01-.5-1.2 2.3 2.3 0 01.4-1.9 1.6 1.6 0 012.2-.2l.1.1-.2.2a3 3 0 010-1.7 1.1 1.1 0 011.2-.8h-.1a1.8 1.8 0 011.2-1.5 1.5 1.5 0 01.5-.1h.3zM363 100.2h-.4a2.4 2.4 0 01-1-.6 2.5 2.5 0 01-.7-1.3 1.3 1.3 0 00-.2-.8c-.2-.1-.6-.2-.8-.5a1.4 1.4 0 01.2-2v.3a4.6 4.6 0 01-1.3-1.6 1.8 1.8 0 01-.3-.7l.4.6a4.8 4.8 0 001.3 1.4l.2.1-.1.1a1.1 1.1 0 00-.2 1.5l.7.6a1.5 1.5 0 01.4.9 2.4 2.4 0 00.6 1.2 3.5 3.5 0 001.1.8zM359.6 103h-.3a3.7 3.7 0 01-.7 0 3.8 3.8 0 01-2.1-1h.2a2.4 2.4 0 01-1.6 1 2.5 2.5 0 01-1 0 1.5 1.5 0 01-1-.6 3 3 0 01-.1-.4.5.5 0 00-.2-.3 1.7 1.7 0 00-.7-.2 2.3 2.3 0 01-.8-.2.8.8 0 01-.4-.7l.2.1a2.5 2.5 0 01-1.7.2 2.6 2.6 0 01-1.2-.6 2.3 2.3 0 01-.5-.7.7.7 0 01-.1-.3 3.4 3.4 0 00.7.9 2.6 2.6 0 001.1.5 2.2 2.2 0 001.6-.2l.1-.1v.2a.6.6 0 00.4.4 2.2 2.2 0 00.6.2 2 2 0 01.8.3.8.8 0 01.3.4l.1.3a1.3 1.3 0 00.8.5 2.3 2.3 0 001 0 2.2 2.2 0 001.4-.9h.2a3.8 3.8 0 002 1l.9.1zM338.3 113.4a1.8 1.8 0 01-.1-.4 2.7 2.7 0 010-1.1 6.5 6.5 0 01.6-1.6 5.8 5.8 0 01.5-1 1.6 1.6 0 01.5-.4.7.7 0 01.7 0h-.2a1.9 1.9 0 012.9-1.8l-.2.1a1.3 1.3 0 01.4-1 1.3 1.3 0 011.2-.3 1.3 1.3 0 01.6.4h-.3a.8.8 0 01.3-.6 1.1 1.1 0 01.6-.3 2.5 2.5 0 011.2.2h-.2a2 2 0 011.2-1 2.8 2.8 0 011.3 0 7.4 7.4 0 012.2.8l-.1.1a.5.5 0 010-.4.7.7 0 01.3-.3 1.4 1.4 0 01.7-.2 4 4 0 011.2.2 3.4 3.4 0 01.6.3.8.8 0 01.3.2l-1-.4a4.2 4.2 0 00-1-.2 1.3 1.3 0 00-.7.2c-.2.1-.4.4-.3.5l.2.3-.3-.1a7 7 0 00-2.1-.8 2.5 2.5 0 00-1.3.1 1.7 1.7 0 00-1 .8v.1h-.1a2.4 2.4 0 00-1.1-.2c-.3 0-.7.4-.6.7v.5l-.3-.4a1 1 0 00-.4-.2 1 1 0 00-1 .1 1 1 0 00-.3.9v.3l-.2-.2a1.6 1.6 0 00-1.9 0 1.7 1.7 0 00-.6 1.6v.2h-.2c-.3-.2-.7 0-.9.3a6 6 0 00-.5 1 7 7 0 00-.7 1.5 3.7 3.7 0 000 1.5zM340.5 121.5a1 1 0 01-.1-.2 4.7 4.7 0 01-.4-.5 2 2 0 01-.3-1 1.4 1.4 0 01.1-.7 1 1 0 01.6-.5v.1a1.4 1.4 0 01-.2-1.4 1.3 1.3 0 011.4-.7v.2a1 1 0 01-.2-1.2 1.6 1.6 0 011.2-.7 5.6 5.6 0 00.6 0c.2 0 .3-.2.4-.4a2.6 2.6 0 01.3-.6 1.2 1.2 0 01.6-.5 6.6 6.6 0 011.5-.1 1.6 1.6 0 001.2-.5 4.8 4.8 0 00.3-.6 1.5 1.5 0 011.8-.5l-.1.2a1.1 1.1 0 010-1.3 1.6 1.6 0 011-.6 5 5 0 011.9 0 6.3 6.3 0 011 .4 1.5 1.5 0 01.4.2l-1.5-.4a5.3 5.3 0 00-1.8 0 1.3 1.3 0 00-.8.5.9.9 0 000 1l.3.5-.5-.3a1.2 1.2 0 00-1 0 1.3 1.3 0 00-.5.4 5.7 5.7 0 01-.3.6 1.5 1.5 0 01-.6.5 3.1 3.1 0 01-.8 0 6.5 6.5 0 00-1.4.3 1 1 0 00-.5.3 1.9 1.9 0 00-.3.5.8.8 0 01-.5.6 6 6 0 01-.7 0 1.3 1.3 0 00-1 .6.8.8 0 000 .9l.3.3-.4-.1a1.1 1.1 0 00-1.1.6 1.1 1.1 0 000 1.1l.2.2h-.2a1 1 0 00-.6 1 1.8 1.8 0 00.3 1 8.5 8.5 0 01.4.8zM339.6 136.6a.6.6 0 01-.2 0 2 2 0 01-.7-.5 2 2 0 01-.6-1.1 2.1 2.1 0 01.4-1.6v.1a4 4 0 01-.8-1.3 1.7 1.7 0 010-1 1.2 1.2 0 01.6-.7v.3a1.6 1.6 0 01-.8-1.4 1.7 1.7 0 01.2-1 1.5 1.5 0 01.7-.6c.2-.1.3-.3.3-.5a2.2 2.2 0 01.1-.9 2.9 2.9 0 011-1.2l1-.8a4.8 4.8 0 011.6-1 2.7 2.7 0 01.5 0h.2l-.7.1a5.2 5.2 0 00-1.5 1l-1 .9a2.6 2.6 0 00-.9 1 2 2 0 000 .8.8.8 0 01-.2.5 1.1 1.1 0 01-.3.3 1.4 1.4 0 00-.8 1.3 1.3 1.3 0 00.7 1.2l.3.1-.3.2a1.1 1.1 0 00-.5 1.3 3.7 3.7 0 00.8 1.2v.1a2 2 0 00-.4 1.5 1.9 1.9 0 00.5 1 3 3 0 00.8.7zM363 112a2.2 2.2 0 01-.8-.3 2.4 2.4 0 01-.8-.6 1.5 1.5 0 01-.4-1.1 1 1 0 01.1-.3l.1.1a1.3 1.3 0 01-.8-.8 1.2 1.2 0 01.1-1c.3-.4.7-.5.7-.5s-.3.2-.5.6a1 1 0 000 .8 1.1 1.1 0 00.6.7h.2v.1a1 1 0 00-.2.2 1.3 1.3 0 00.3 1 2.4 2.4 0 00.7.6 4.5 4.5 0 01.8.5zM369.3 108.4a1.8 1.8 0 00.1-1 1.2 1.2 0 00-.7-.8 1.3 1.3 0 00-1.3.3l-.2.2v-.3a2.3 2.3 0 00-.4-.7 1 1 0 00-.8-.5c-.4 0-.9.4-.7.8h-.3a2.2 2.2 0 00-.9-1.2 2.1 2.1 0 00-1.2-.4 3.2 3.2 0 00-1.2.3l.3-.2a2.2 2.2 0 012.2 0 2.3 2.3 0 011 1.5l-.2.1a.8.8 0 01.2-.8 1.1 1.1 0 01.8-.4 1.3 1.3 0 011 .6 2.6 2.6 0 01.4.9h-.2a1.5 1.5 0 011.6-.4 1.3 1.3 0 01.8 1 1.2 1.2 0 010 .8l-.3.2z" fill="#455a64"/><path d="M353.5 127c-.1 0-6.8-2.1-6.7 4.8s7 5.3 7 5l-.3-9.8z" fill="#c78976"/><path d="M351.7 134.3l-.4.2a1.1 1.1 0 01-.8 0 3 3 0 01-1.5-2.7 4 4 0 01.3-1.7 1.4 1.4 0 011-1 .6.6 0 01.6.4l.1.3c.1 0 .2-.1 0-.4a.8.8 0 00-.2-.4 1 1 0 00-.7-.2 1.7 1.7 0 00-1.2 1.1 4.1 4.1 0 00-.4 2c.1 1.3.8 2.6 1.8 2.9a1.3 1.3 0 001.1-.2l.3-.3z" fill="#8b5d54"/><path d="M351.3 156.4l2.3-4.9s2 10.9 6.2 15.3l5.1 5.5.2-2.4 13.1-12.3-.2-4 5.5 7.3 10.2 9.2-14.8 82.3-1 10.6-30.7-4.1-8.2-54.1s-2.6-28.5-2.4-28 3-11.3 3-11.3l9.8-5.2z" fill="#fafafa"/><path d="M323.9 167.9s-5.8 4.7-7.8 15-9.5 48.5-9.5 51.9c0 0 3.5 16 7.8 26 3.8 9 8.3 17 8.7 16.6l9.8-12-6.9-33.7.6-2.7 1.8-5 3.2-16z" fill="#455a64"/><path d="M327.6 248.1l1.6-20.1-.6-5-3-29.2-1.7-25.9 21.2-7.7 2-.8 4.2-4.2 1.3 41.8s.6 33.8.2 36.6-4.3 42.1-18 54.9c0 0-5.5 6.6-7.6 5.2s-7.4-25.3-7.4-25.3z" fill="#455a64"/><path d="M347.6 159l-.3.4-.8 1.2-3.4 4.6-3 1.1.1-.2 5.5 26.8 5.2 26.4 1.6 8 .4 2.2a4.4 4.4 0 010 .8 3.4 3.4 0 01-.1-.8l-.5-2.1-1.7-8-5.4-26.5-5.3-26.7v-.2h.1l3-1h-.1l3.5-4.5 1-1.2a2.7 2.7 0 01.2-.4z" fill="#263238"/><path d="M379 155l6 5.5 20.5 11-6 25.6-2 31.3 2.9 19.7 7 37.2s-24.9 6.8-27.8 5.3-2.5-5.9-2.6-6.2l-4.5-37.7-1-14.4s-.3-24.9 1.4-30.4 4.2-23.6 5.1-28.6 2-8.4 2.6-11a25 25 0 00.7-4.2z" fill="#455a64"/><path d="M388.9 250.7a56.9 56.9 0 001.3 9.4 73.7 73.7 0 0014.4-3.2l-2.4-6.6a2.3 2.3 0 00-.9-1.3 2.4 2.4 0 00-1.6 0l-10.8 1.7" fill="#455a64"/><path d="M388.9 250.7a11.5 11.5 0 011.6-.4l4.4-.8 3.1-.5 1.7-.3a4.2 4.2 0 011 0 1.6 1.6 0 011 .3 4.9 4.9 0 011 1.8l.7 2 1.5 4v.2l-.2.1-1.4.5a71 71 0 01-13 2.7h-.2v-.2a42.8 42.8 0 01-1-6.8l-.2-2a3.3 3.3 0 010-.6 3 3 0 01.2.6l.2 2a49.2 49.2 0 001.2 6.7l-.2-.2a77.5 77.5 0 0012.8-2.7l1.5-.5-.2.4-1.5-4-.7-2a4.3 4.3 0 00-.8-1.7 1.8 1.8 0 00-1.5-.2l-1.8.3-3 .5-4.5.6a11.3 11.3 0 01-1.8.2zM325.4 289.7a1.5 1.5 0 01-.2-.4l-.3-1-1.2-4.4-4.1-15.4v-.1l7.7-20.4 1-12.3.7-7.8-3.4-34.3a783 783 0 01-1-10.2l-.1-2.8v-.7a.8.8 0 010-.2 1.2 1.2 0 010 .2v.7l.3 2.8 1.1 10.2c1 8.6 2.3 20.6 3.6 34.3l-.7 7.7-1 12.4v.1l-7.8 20.3v-.1l4 15.5 1 4.3.3 1.1a3 3 0 010 .5z" fill="#263238"/><path d="M313.5 229.6a5.4 5.4 0 012-.3 19.2 19.2 0 014.5.3 19.8 19.8 0 014.4 1.4 5.5 5.5 0 011.7 1 60.5 60.5 0 00-6.2-1.9 46.2 46.2 0 00-6.4-.5zM371.6 230.4a4.5 4.5 0 01.2-.8l.5-2.1 2.2-7.9 7.5-26 7.6-25.8v.2l-4.6-4.8-1.3-3.2-.3-.8a1.2 1.2 0 010-.3 1 1 0 010 .3l.4.8 1.4 3 4.7 4.7v.2l-7.4 26-7.6 25.8-2.3 7.8-.7 2.1a5.7 5.7 0 01-.3.8zM396.9 184.6a6 6 0 01.2-2.2 15.8 15.8 0 015.6-9 6.7 6.7 0 012-1s-3 1.8-5 5.3a24.6 24.6 0 00-2.8 7z" fill="#263238"/><path d="M396.7 239.3l-6.5-4.4a32 32 0 00-7.4-4.1c-2-.7-4.2-1-6.2-1.7a9.6 9.6 0 01-5-4v3.7c.2 1.8 2 2.8 3.6 3.6s3.5 1.4 4.8 2.7c.8.8 1.2 1.8 2 2.7a13 13 0 005.8 3.8 49 49 0 0010.8 2.7 1.1 1.1 0 001-.1 1 1 0 00.2-.8c0-1.8-1.6-3-3-4z" opacity=".3"/><path d="M405.5 171.6s3.8 1.6 5.3 8.4 10 48.4 9.9 52.7-2.1 7.4-6 8.8a21.9 21.9 0 01-11.8 1 125 125 0 01-15-3.8 29 29 0 01-5-2.3 25.5 25.5 0 01.6-9.1c1.2-4.5 6-10.3 6-10.3l12 3.7-3.2-14.4 3.8-30.1z" fill="#455a64"/><path d="M401.5 220.7a7 7 0 012.2.8 19.5 19.5 0 014.6 3.4 20 20 0 013.4 4.6 7.5 7.5 0 011 2.2 33 33 0 00-4.8-6.4 32.3 32.3 0 00-6.4-4.7z" fill="#263238"/><path d="M416.6 226.4s-.6-.8-1.7-1.8a16 16 0 00-11-4.2l-2.5.1.7-.2a11.1 11.1 0 011.8-.3 14.6 14.6 0 0111.2 4.3 9.5 9.5 0 011.2 1.5 1.9 1.9 0 01.3.6z" fill="#263238"/><path d="M398.4 206.3a1.3 1.3 0 010 .3l.2.7.7 2.9 2.4 10.4.1.3h-.3l-12-3.7h.2a12.1 12.1 0 00-4.4 4.5 18 18 0 00-2.1 6.4 25.3 25.3 0 00-.3 4.2 27.5 27.5 0 00.3 4.1v-.2a24.3 24.3 0 006 2.6l5.9 1.5 5.3 1.4a29.7 29.7 0 004.6.9 24 24 0 006.7-.3l1.8-.4a4.7 4.7 0 01.6-.1 2.2 2.2 0 01-.6.2 14.3 14.3 0 01-1.8.5 22.3 22.3 0 01-6.7.4 29.1 29.1 0 01-4.7-.8l-5.3-1.4c-2-.3-4-.8-6-1.4a24.8 24.8 0 01-6.2-2.6l-.1-.1v-.1a28.9 28.9 0 01-.3-4.2 26.1 26.1 0 01.3-4.3 18.6 18.6 0 012.1-6.6 12.6 12.6 0 014.6-4.6h.2l12 3.6-.3.3-2.2-10.5-.6-2.9-.1-.7a1 1 0 010-.3z" fill="#263238"/><path d="M365.3 224s.3-18.3.6-19 .3-1.1 2-1.3 12.8-.5 13.7-.2c.7.3.8.9.8 1.7 0 3.6-.7 15.5-1 19.9a1.7 1.7 0 01-1.7 1.6l-13.3-.2a1.1 1.1 0 01-1.1-1.1z" fill="#f1543e"/><rect x="367.7" y="206.3" width="2.1" height="4.7" rx="1" fill="#263238"/><path d="M382.2 210s1.1-.8 1.5 0 7.2 10.6 7.2 10.6a16.5 16.5 0 01-.3 5.3 19.5 19.5 0 01-2.6 6.1l-2.2-2s-5.4 1-6.4.7-6.7-2.8-8-4.3a20.7 20.7 0 00-3.2-2.8l-5.7-3.8a1.9 1.9 0 01-.7-1 1.3 1.3 0 01.5-1.6 1.6 1.6 0 011.6-.2s-.3-2 1-2.2S379 219 379 219a1.7 1.7 0 001.1-.6c.3-.5-9.2-3.1-9.4-4.2s.6-2 2.2-2 9 1.5 9 1.5z" fill="#c78976"/><path d="M385 219s-.3.3-.8.4a4.2 4.2 0 01-2 0 4.8 4.8 0 01-2.4-1.2 13.1 13.1 0 012.5.7 10 10 0 002.6.1zM385 214.4h-1.5c-.9 0-1.6-.4-1.6-.6s.8 0 1.7.1 1.5.4 1.5.5zM380.2 224.3a11.6 11.6 0 01-2.6-.6 48.9 48.9 0 01-11.6-5.2 10.9 10.9 0 01-2-1.5 16.6 16.6 0 012.2 1.2 85.2 85.2 0 0011.5 5.2 15.9 15.9 0 012.5 1zM377.5 227.3a12.9 12.9 0 01-5.1-1.3 13.2 13.2 0 01-4.5-2.7c0-.2 2 1.2 4.7 2.2s5 1.6 5 1.8z" fill="#8b5d54"/><path d="M389.3 216.7l.6.8a9 9 0 011 2.3 12.3 12.3 0 01-.6 8.2 25.7 25.7 0 01-2 4 11.2 11.2 0 01-2.4 2.9 12.7 12.7 0 01-2 1.4 3 3 0 01-1 .4c0-.1 1.2-.7 2.8-2.1a11.6 11.6 0 002.3-2.8 27.4 27.4 0 001.8-4 12.6 12.6 0 00.7-8 17.6 17.6 0 00-1.2-3z" fill="#263238"/><path d="M327.1 237.2l-4.5 16.8-1.5 11 6.5-16.9.5-6.9-1-4z" opacity=".3"/><path d="M365 172.3l-1-.8-3-2 .2-.2-.1 4.1a45.8 45.8 0 01-.2 5l-.1.8-.4-.7-1.6-2.8a98.8 98.8 0 01-5.8-10.6 28.6 28.6 0 01-1.3-3.5 6 6 0 01-.2-1.3 7.6 7.6 0 01.4 1.3 36.5 36.5 0 001.4 3.4c1.3 2.8 3.6 6.4 6 10.5l1.6 2.8h-.5c.2-1.7.2-3.3.2-4.9a37.1 37.1 0 01.3-4v-.4l.2.2a32.9 32.9 0 013 2.1 5.8 5.8 0 01.6.7l.2.3zM379.9 163a2 2 0 01-.5.8 17.7 17.7 0 01-1.5 2 97.3 97.3 0 01-9.9 9.5l-.2.2-.1-.3-2-3.8a7.9 7.9 0 01-.6-1.5 7 7 0 011 1.4l2 3.7h-.4l4.1-3.9c2.3-2.1 4.4-4.1 5.8-5.6l1.7-1.8c.4-.4.5-.8.6-.7z" fill="#263238"/><path d="M368.4 198.9a3.8 3.8 0 01-1.1.2 6 6 0 01-1.5 0 3.2 3.2 0 01-1.8-.9 3 3 0 01-.8-2.2v-2.6l.2-6 .4-10.8.2-3.3a4.8 4.8 0 01.1-1.2 6.4 6.4 0 010 1.2v3.3c0 2.7 0 6.6-.2 10.8l-.2 6c-.1 1.8-.4 3.7.6 4.6a3.1 3.1 0 001.5.8 8.3 8.3 0 001.4 0 10.5 10.5 0 011.3 0z" fill="#263238"/></g></svg>
