<svg width="337" height="236" fill="none" xmlns="http://www.w3.org/2000/svg"><path d="M336 34H1v22h335V34z" fill="#E5231E"/><path d="M93 183H58l12 18h34l-11-18zm-21-33c8-3 12-6 17-12 5-9 8-18 8-27v-4c0-15-5-23-13-31-9-9-21-15-37-15H2v107h28v-29l19 29h34l-11-18zm-22-22H30V89h16c6 0 13 2 17 6s5 8 5 13c0 11-8 20-18 20zM2 201h28v-18H2v18z" fill="#5A5A5A"/><path d="M229 204v-21h-23l23 21zM201 61v78l-85-81v110h29v-44l46 44h38V61h-28zm-85 140h29v-18h-29v18z" fill="#E5231E"/><path d="M240 61v28h34v79h28V89h34V61h-96zm34 139h28v-17h-28v17z" fill="#5A5A5A"/><path d="M49 229l-2-2c2-1 4-3 4-5 0-3-2-5-6-5h-8v18h2v-8h5c2 0 3 1 3 2l3 6h2l-3-6zm-10-11h5c3 0 5 2 5 4s-2 3-5 3h-5v-7zm19 10c0 5 2 7 7 7s8-2 8-7v-11h-2v11c0 4-2 6-6 6-3 0-5-2-5-6v-11h-2v11zm22-11h-1v18h2v-15l11 15h2v-18h-2v15l-12-15zm22 0h-2v18h2v-15l11 15h2v-18h-2v15l-11-15zm21 0h-2v18h2v-18zm8 0h-1v18h2v-15l11 15h1v-18h-2v15l-11-15zm28 10h4v6l-4 1c-4 0-7-3-7-8s3-8 7-8l5 2 1-1c-1-2-4-2-6-2-6 0-9 3-9 9s3 9 9 9l6-1v-8h-6v1zm19-8h6v-2h-15v2h6v16h3v-16zm23 10l-3-2c3-1 4-3 4-5 0-3-2-5-6-5h-8v18h3v-8h4c2 0 3 1 3 2l3 6h2l-2-6zm-10-11h5c3 0 4 2 4 4s-2 3-4 3h-5v-7zm26-1h-1l-9 18h3l2-5h9l2 5h3l-9-18zm4 12h-9l5-10 4 10zm15 6c6 0 10-3 10-9s-4-9-10-9h-6v18h6zm-4-16h4c5 0 7 2 7 7s-2 7-7 7h-4v-14zm32 14h-10v-6h9v-2h-9v-7h10v-1h-12v18h12v-2zm18-4l-2-2c2-1 3-3 3-5 0-3-2-5-6-5h-7v18h2v-8h5l3 2 2 6h2l-2-6zm-10-11h5c3 0 4 2 4 4s-1 3-4 3h-5v-7z" fill="#5C5656"/><path d="M7 52l6 2c4 0 7-2 7-5 0-2-2-3-3-4l-4-1c-2 0-4-1-4-3s2-3 5-3l5 2v-1c-1-2-3-3-5-3-4 0-7 2-7 5 0 2 2 4 3 4l3 1c3 1 5 1 5 3s-2 3-5 3l-5-2-1 2zm19-15h-2v16h2V41l6 12h1l5-12v12h2V37h-1l-7 14-6-14zm27 0h-1l-8 16h2l2-4h9l2 4h2l-8-16zm3 11h-7l4-9 3 9zm20 0l-2-2c2-1 3-2 3-5s-2-4-5-4h-7v16h2v-7h4c2 0 2 0 3 2l2 5h2l-2-5zm-9-10h4c3 0 4 1 4 3s-1 4-4 4h-4v-7zm23 0h6v-1H82v1h6v15h2V38zm22-1h-2v16h2V41l6 12h1l6-12v12h1V37h-1l-7 14-6-14zm19 8c0 5 3 9 8 9s8-4 8-9-3-9-8-9-8 4-8 9zm14 0c0 4-2 7-6 7-3 0-6-3-6-7s3-7 6-7c4 0 6 3 6 7zm8-8h-1v16h2V40l10 13h1V37h-2v13l-10-13zm29 15h-9v-6h8v-2h-8v-6h9v-1h-11v16h11v-1zm11-7l-6-8h-2l6 10v6h2v-6l7-10h-2l-5 8zm21 0c0 5 3 9 8 9l6-2-1-2-5 2c-4 0-6-3-6-7s2-7 6-7l5 2 1-1-6-3c-5 0-8 4-8 9zm18 0c0 5 3 9 8 9s8-4 8-9-3-9-8-9-8 4-8 9zm14 0c0 4-2 7-6 7s-6-3-6-7 2-7 6-7 6 3 6 7zm8-8h-1v16h2V40l10 13h1V37h-2v13l-10-13zm17 8c0 5 3 9 8 9l6-2-1-2-5 2c-4 0-6-3-6-7s2-7 6-7l5 2 1-1-6-3c-5 0-8 4-8 9zm30 7h-9v-6h8v-2h-8v-6h9v-1h-11v16h11v-1zm7 1v-7h5c3 0 5-2 5-5s-2-4-5-4h-7v16h2zm0-15h5c2 0 4 1 4 3s-2 3-4 3h-5v-6zm22 0h6v-1h-14v1h6v15h2V38z" fill="#fff"/></svg>
