<?xml version="1.0" encoding="UTF-8"?>
<svg xmlns="http://www.w3.org/2000/svg" xmlns:xlink="http://www.w3.org/1999/xlink" width="375pt" height="371.249998pt" viewBox="0 0 375 371.249998" version="1.2">
<defs>
<clipPath id="clip1">
  <path d="M 0.378906 0 L 374.621094 0 L 374.621094 52 L 0.378906 52 Z M 0.378906 0 "/>
</clipPath>
<clipPath id="clip2">
  <path d="M 0.378906 51 L 374.621094 51 L 374.621094 370.5 L 0.378906 370.5 Z M 0.378906 51 "/>
</clipPath>
<clipPath id="clip3">
  <path d="M 97 303 L 278 303 L 278 370.5 L 97 370.5 Z M 97 303 "/>
</clipPath>
</defs>
<g id="surface1">
<g clip-path="url(#clip1)" clip-rule="nonzero">
<path style=" stroke:none;fill-rule:nonzero;fill:rgb(35.688782%,33.729553%,33.729553%);fill-opacity:1;" d="M 0.378906 0 L 374.621094 0 L 374.621094 51.621094 L 0.378906 51.621094 Z M 0.378906 0 "/>
</g>
<g clip-path="url(#clip2)" clip-rule="nonzero">
<path style=" stroke:none;fill-rule:nonzero;fill:rgb(96.469116%,86.669922%,79.60968%);fill-opacity:1;" d="M 0.378906 51.621094 L 374.621094 51.621094 L 374.621094 374.242188 L 0.378906 374.242188 Z M 0.378906 51.621094 "/>
</g>
<path style=" stroke:none;fill-rule:nonzero;fill:rgb(100%,100%,100%);fill-opacity:1;" d="M 19.734375 19.359375 L 32.640625 19.359375 L 32.640625 32.261719 L 19.734375 32.261719 Z M 19.734375 19.359375 "/>
<path style=" stroke:none;fill-rule:nonzero;fill:rgb(100%,100%,100%);fill-opacity:1;" d="M 45.546875 19.359375 L 58.449219 19.359375 L 58.449219 32.261719 L 45.546875 32.261719 Z M 45.546875 19.359375 "/>
<path style=" stroke:none;fill-rule:nonzero;fill:rgb(100%,100%,100%);fill-opacity:1;" d="M 71.355469 19.359375 L 84.261719 19.359375 L 84.261719 32.261719 L 71.355469 32.261719 Z M 71.355469 19.359375 "/>
<path style=" stroke:none;fill-rule:nonzero;fill:rgb(100%,100%,100%);fill-opacity:1;" d="M 161.691406 19.359375 L 355.265625 19.359375 L 355.265625 32.261719 L 161.691406 32.261719 Z M 161.691406 19.359375 "/>
<path style=" stroke:none;fill-rule:nonzero;fill:rgb(35.688782%,33.729553%,33.729553%);fill-opacity:1;" d="M 181.046875 96.789062 L 193.953125 96.789062 L 193.953125 129.050781 L 181.046875 129.050781 Z M 181.046875 96.789062 "/>
<g clip-path="url(#clip3)" clip-rule="nonzero">
<path style=" stroke:none;fill-rule:nonzero;fill:rgb(35.688782%,33.729553%,33.729553%);fill-opacity:1;" d="M 277.835938 354.886719 L 277.835938 374.242188 L 97.164062 374.242188 L 97.164062 354.886719 C 97.164062 326.367188 120.265625 303.265625 148.785156 303.265625 L 226.214844 303.265625 C 254.734375 303.265625 277.835938 326.367188 277.835938 354.886719 Z M 277.835938 354.886719 "/>
</g>
<path style=" stroke:none;fill-rule:nonzero;fill:rgb(100%,100%,100%);fill-opacity:1;" d="M 77.808594 129.050781 L 297.191406 129.050781 L 297.191406 303.265625 L 77.808594 303.265625 Z M 77.808594 129.050781 "/>
<path style=" stroke:none;fill-rule:nonzero;fill:rgb(35.688782%,33.729553%,33.729553%);fill-opacity:1;" d="M 111.957031 178.777344 L 121.082031 169.652344 L 166.25 214.816406 L 157.125 223.945312 Z M 111.957031 178.777344 "/>
<path style=" stroke:none;fill-rule:nonzero;fill:rgb(35.688782%,33.729553%,33.729553%);fill-opacity:1;" d="M 166.253906 178.777344 L 157.128906 169.65625 L 139.105469 187.675781 L 121.085938 169.65625 L 111.960938 178.777344 L 129.984375 196.800781 L 111.960938 214.824219 L 121.085938 223.945312 L 139.105469 205.925781 L 157.128906 223.945312 L 166.253906 214.824219 L 148.230469 196.800781 Z M 166.253906 178.777344 "/>
<path style=" stroke:none;fill-rule:nonzero;fill:rgb(35.688782%,33.729553%,33.729553%);fill-opacity:1;" d="M 208.746094 178.777344 L 217.871094 169.652344 L 263.035156 214.816406 L 253.910156 223.945312 Z M 208.746094 178.777344 "/>
<path style=" stroke:none;fill-rule:nonzero;fill:rgb(35.688782%,33.729553%,33.729553%);fill-opacity:1;" d="M 263.039062 178.777344 L 253.914062 169.65625 L 235.894531 187.675781 L 217.871094 169.65625 L 208.746094 178.777344 L 226.769531 196.800781 L 208.746094 214.824219 L 217.871094 223.945312 L 235.894531 205.925781 L 253.914062 223.945312 L 263.039062 214.824219 L 245.015625 196.800781 Z M 263.039062 178.777344 "/>
<path style=" stroke:none;fill-rule:nonzero;fill:rgb(35.688782%,33.729553%,33.729553%);fill-opacity:1;" d="M 297.191406 167.765625 L 323.003906 167.765625 L 323.003906 245.195312 L 297.191406 245.195312 Z M 297.191406 167.765625 "/>
<path style=" stroke:none;fill-rule:nonzero;fill:rgb(35.688782%,33.729553%,33.729553%);fill-opacity:1;" d="M 51.996094 167.765625 L 77.808594 167.765625 L 77.808594 245.195312 L 51.996094 245.195312 Z M 51.996094 167.765625 "/>
<path style=" stroke:none;fill-rule:nonzero;fill:rgb(96.078491%,42.349243%,36.468506%);fill-opacity:1;" d="M 148.785156 277.457031 C 148.785156 256.074219 166.117188 238.742188 187.5 238.742188 C 208.882812 238.742188 226.214844 256.074219 226.214844 277.457031 Z M 148.785156 277.457031 "/>
<path style=" stroke:none;fill-rule:nonzero;fill:rgb(96.078491%,42.349243%,36.468506%);fill-opacity:1;" d="M 200.40625 90.335938 C 200.40625 91.183594 200.324219 92.019531 200.15625 92.851562 C 199.992188 93.683594 199.746094 94.492188 199.421875 95.273438 C 199.097656 96.054688 198.699219 96.800781 198.230469 97.503906 C 197.757812 98.210938 197.222656 98.859375 196.625 99.460938 C 196.027344 100.058594 195.375 100.59375 194.667969 101.066406 C 193.964844 101.535156 193.222656 101.933594 192.4375 102.257812 C 191.65625 102.582031 190.847656 102.828125 190.019531 102.992188 C 189.1875 103.15625 188.347656 103.238281 187.5 103.238281 C 186.652344 103.238281 185.8125 103.15625 184.980469 102.992188 C 184.152344 102.828125 183.34375 102.582031 182.5625 102.257812 C 181.777344 101.933594 181.035156 101.535156 180.332031 101.066406 C 179.625 100.59375 178.972656 100.058594 178.375 99.460938 C 177.777344 98.859375 177.242188 98.210938 176.769531 97.503906 C 176.300781 96.800781 175.902344 96.054688 175.578125 95.273438 C 175.253906 94.492188 175.007812 93.683594 174.84375 92.851562 C 174.675781 92.019531 174.59375 91.183594 174.59375 90.335938 C 174.59375 89.488281 174.675781 88.648438 174.84375 87.816406 C 175.007812 86.984375 175.253906 86.179688 175.578125 85.394531 C 175.902344 84.613281 176.300781 83.871094 176.769531 83.164062 C 177.242188 82.460938 177.777344 81.808594 178.375 81.210938 C 178.972656 80.609375 179.625 80.074219 180.332031 79.605469 C 181.035156 79.132812 181.777344 78.738281 182.5625 78.414062 C 183.34375 78.089844 184.152344 77.84375 184.980469 77.679688 C 185.8125 77.511719 186.652344 77.429688 187.5 77.429688 C 188.347656 77.429688 189.1875 77.511719 190.019531 77.679688 C 190.847656 77.84375 191.65625 78.089844 192.4375 78.414062 C 193.222656 78.738281 193.964844 79.132812 194.667969 79.605469 C 195.375 80.074219 196.027344 80.609375 196.625 81.210938 C 197.222656 81.808594 197.757812 82.460938 198.230469 83.164062 C 198.699219 83.871094 199.097656 84.613281 199.421875 85.394531 C 199.746094 86.179688 199.992188 86.984375 200.15625 87.816406 C 200.324219 88.648438 200.40625 89.488281 200.40625 90.335938 Z M 200.40625 90.335938 "/>
</g>
</svg>
