<svg width="146" height="167" fill="none" xmlns="http://www.w3.org/2000/svg"><path fill-rule="evenodd" clip-rule="evenodd" d="M52 41l2-3-1 3 3 2h-3l-2 3v-4l-3-2 4 1z" fill="url(#paint0_linear)"/><path fill-rule="evenodd" clip-rule="evenodd" d="M47 26l1-2v3l2 1h-3l-1 2v-3l-2-1h3z" fill="url(#paint1_linear)"/><path fill-rule="evenodd" clip-rule="evenodd" d="M33 12l2-3-1 4 3 2-3-1-2 3v-3l-3-2h4z" fill="url(#paint2_linear)"/><path fill-rule="evenodd" clip-rule="evenodd" d="M31 44l2-4v5l4 3-5-1-3 5 1-6c-2 0-3-1-5-3l6 1z" fill="url(#paint3_linear)"/><circle cx="36.4" cy="29.8" r=".8" transform="rotate(21 36 30)" fill="#2F235A"/><circle cx="57.3" cy="19.2" r=".8" transform="rotate(21 57 19)" fill="#FE9076"/><circle cx="17.1" cy="23.8" r=".8" transform="rotate(21 17 24)" fill="#FFA400"/><circle cx="35.3" cy="57.9" r=".8" transform="rotate(21 35 58)" fill="#23BB86"/><path d="M57 15c-1-3-4-10-9-14" stroke="#FE9076" stroke-width=".7" stroke-linecap="round"/><path d="M15 20c-2-2-8-7-14-9" stroke="#FFA400" stroke-width=".7" stroke-linecap="round"/><path d="M32 59c-2 1-7 3-10 6" stroke="#23BB86" stroke-width=".7" stroke-linecap="round"/><path fill-rule="evenodd" clip-rule="evenodd" d="M94 41l-2-3 1 3-3 2h3l2 3v-4l3-2-4 1z" fill="url(#paint4_linear)"/><path fill-rule="evenodd" clip-rule="evenodd" d="M99 26l-1-2v3l-2 1h3l1 2v-3l2-1h-3z" fill="url(#paint5_linear)"/><path fill-rule="evenodd" clip-rule="evenodd" d="M113 12l-2-3 1 4-3 2 3-1 2 3v-3l3-2h-4z" fill="url(#paint6_linear)"/><path fill-rule="evenodd" clip-rule="evenodd" d="M115 44l-2-4v5l-4 3 5-1 3 5-1-6c2 0 3-1 5-3l-6 1z" fill="url(#paint7_linear)"/><circle r=".8" transform="scale(-1 1) rotate(21 -134 -275)" fill="#2F235A"/><circle r=".8" transform="scale(-1 1) rotate(21 -95 -225)" fill="#FE9076"/><circle r=".8" transform="scale(-1 1) rotate(21 -127 -329)" fill="#FFA400"/><circle r=".8" transform="scale(-1 1) rotate(21 -209 -264)" fill="#23BB86"/><path d="M89 15c1-3 4-10 9-14" stroke="#FE9076" stroke-width=".7" stroke-linecap="round"/><path d="M131 20c2-2 8-7 14-9" stroke="#FFA400" stroke-width=".7" stroke-linecap="round"/><path d="M114 59c2 1 7 3 10 6" stroke="#23BB86" stroke-width=".7" stroke-linecap="round"/><path fill="url(#paint8_linear)" d="M28 104h90v63H28z"/><mask id="a" maskUnits="userSpaceOnUse" x="28" y="104" width="90" height="63"><path fill="#C4C4C4" d="M28 104h90v63H28z"/></mask><g mask="url(#a)"><path d="M32 103h62l-14 24H18l14-24z" fill="#000" fill-opacity=".1"/><path fill="url(#paint9_linear)" d="M89 104h90v63H89z"/></g><path d="M28 104h61l-12 20H16l12-20z" fill="url(#paint10_linear)"/><mask id="b" maskUnits="userSpaceOnUse" x="89" y="104" width="29" height="63"><path fill="#C4C4C4" d="M89 104h29v63H89z"/></mask><g mask="url(#b)"><path d="M114 104H86l13 23h29l-14-23z" fill="#000" fill-opacity=".1"/></g><path d="M118 104H89l12 20h29l-12-20z" fill="url(#paint11_linear)"/><circle cx="57.9" cy="88.6" r="8.5" fill="url(#paint12_linear)"/><circle cx="91.1" cy="71.9" r="8.2" fill="url(#paint13_linear)"/><circle cx="59.8" cy="57.1" r="6.6" fill="url(#paint14_linear)"/><circle cx="85.1" cy="42" r="6" fill="url(#paint15_linear)"/><circle cx="75.4" cy="64.4" r="1.6" fill="#FFA800" fill-opacity=".2"/><circle cx="101" cy="52.1" r="1.6" fill="#FFA800" fill-opacity=".2"/><circle cx="61.5" cy="32.4" r="1.6" fill="#FFA800" fill-opacity=".2"/><circle cx="83.5" cy="92.3" r="1.6" fill="#FFA800" fill-opacity=".2"/><circle cx="45.3" cy="66" r="1.6" fill="#FFA800" fill-opacity=".2"/><path d="M118 105H28L14 19h121l-17 86z" fill="url(#paint16_linear)"/><defs><linearGradient id="paint0_linear" x1="53.7" y1="38.5" x2="50.7" y2="46.1" gradientUnits="userSpaceOnUse"><stop stop-color="#FFE89E"/><stop offset="1" stop-color="#FFBF1A"/></linearGradient><linearGradient id="paint1_linear" x1="48" y1="24.9" x2="46" y2="30" gradientUnits="userSpaceOnUse"><stop stop-color="#FFE89E"/><stop offset="1" stop-color="#FFBF1A"/></linearGradient><linearGradient id="paint2_linear" x1="34.5" y1="10" x2="31.5" y2="17.7" gradientUnits="userSpaceOnUse"><stop stop-color="#FFE89E"/><stop offset="1" stop-color="#FFBF1A"/></linearGradient><linearGradient id="paint3_linear" x1="33" y1="40.9" x2="28.6" y2="52.2" gradientUnits="userSpaceOnUse"><stop stop-color="#FFE89E"/><stop offset="1" stop-color="#FFBF1A"/></linearGradient><linearGradient id="paint4_linear" x1="92.3" y1="38.5" x2="95.3" y2="46.1" gradientUnits="userSpaceOnUse"><stop stop-color="#FFE89E"/><stop offset="1" stop-color="#FFBF1A"/></linearGradient><linearGradient id="paint5_linear" x1="98" y1="24.9" x2="100" y2="30" gradientUnits="userSpaceOnUse"><stop stop-color="#FFE89E"/><stop offset="1" stop-color="#FFBF1A"/></linearGradient><linearGradient id="paint6_linear" x1="111.5" y1="10" x2="114.5" y2="17.7" gradientUnits="userSpaceOnUse"><stop stop-color="#FFE89E"/><stop offset="1" stop-color="#FFBF1A"/></linearGradient><linearGradient id="paint7_linear" x1="113" y1="40.9" x2="117.4" y2="52.2" gradientUnits="userSpaceOnUse"><stop stop-color="#FFE89E"/><stop offset="1" stop-color="#FFBF1A"/></linearGradient><linearGradient id="paint8_linear" x1="58.1" y1="92.9" x2="22.3" y2="191.6" gradientUnits="userSpaceOnUse"><stop stop-color="#FFD481"/><stop offset="1" stop-color="#FA620C"/></linearGradient><linearGradient id="paint9_linear" x1="43.4" y1="100.5" x2="152.1" y2="216.6" gradientUnits="userSpaceOnUse"><stop stop-color="#FFD481"/><stop offset=".8" stop-color="#FA620C"/></linearGradient><linearGradient id="paint10_linear" x1="29.3" y1="97.4" x2="26.3" y2="139.4" gradientUnits="userSpaceOnUse"><stop stop-color="#FFD481"/><stop offset="1" stop-color="#FA620C"/></linearGradient><linearGradient id="paint11_linear" x1="122.5" y1="97.4" x2="127.7" y2="139" gradientUnits="userSpaceOnUse"><stop stop-color="#FFD481"/><stop offset="1" stop-color="#FA620C"/></linearGradient><linearGradient id="paint12_linear" x1="58.6" y1="77.3" x2="57" y2="100.2" gradientUnits="userSpaceOnUse"><stop stop-color="#FF9F81"/><stop offset="1" stop-color="#F53838"/></linearGradient><linearGradient id="paint13_linear" x1="91.7" y1="61" x2="90.2" y2="83.2" gradientUnits="userSpaceOnUse"><stop stop-color="#FF9F81"/><stop offset="1" stop-color="#F53838"/></linearGradient><linearGradient id="paint14_linear" x1="60.3" y1="48.3" x2="59" y2="66.2" gradientUnits="userSpaceOnUse"><stop stop-color="#FF9F81"/><stop offset="1" stop-color="#F53838"/></linearGradient><linearGradient id="paint15_linear" x1="85.6" y1="34" x2="84.5" y2="50.2" gradientUnits="userSpaceOnUse"><stop stop-color="#FF9F81"/><stop offset="1" stop-color="#F53838"/></linearGradient><linearGradient id="paint16_linear" x1="73.5" y1="19.4" x2="73.5" y2="200.7" gradientUnits="userSpaceOnUse"><stop stop-color="#fff" stop-opacity="0"/><stop offset="1" stop-color="#FE9277"/></linearGradient></defs></svg>
