<?xml version="1.0" encoding="UTF-8"?>
<svg xmlns="http://www.w3.org/2000/svg" xmlns:xlink="http://www.w3.org/1999/xlink" width="375pt" height="371.249998pt" viewBox="0 0 375 371.249998" version="1.2">
<defs>
<clipPath id="clip1">
  <path d="M 0.378906 10.15625 L 366.679688 10.15625 L 366.679688 340.453125 L 0.378906 340.453125 Z M 0.378906 10.15625 "/>
</clipPath>
<clipPath id="clip2">
  <path d="M 27.367188 136 L 374.59375 136 L 374.59375 326 L 27.367188 326 Z M 27.367188 136 "/>
</clipPath>
</defs>
<g id="surface1">
<path style=" stroke:none;fill-rule:nonzero;fill:rgb(91.758728%,91.758728%,91.758728%);fill-opacity:1;" d="M 298.609375 298.671875 L 304.542969 325.199219 L 279.515625 325.199219 L 277.25 315.066406 C 250.191406 331.445312 213.128906 339.785156 162.433594 334.773438 C 79.585938 326.585938 22.292969 273.449219 22.292969 190.28125 C 22.292969 107.113281 96.59375 0.140625 179.84375 0.140625 C 263.097656 0.140625 349.089844 52.613281 349.089844 135.78125 C 349.089844 186.773438 342.660156 256.339844 298.609375 298.671875 "/>
<g clip-path="url(#clip1)" clip-rule="nonzero">
<path style=" stroke:none;fill-rule:nonzero;fill:rgb(96.078491%,42.349243%,36.468506%);fill-opacity:1;" d="M 62.199219 169.476562 C 62.210938 169.859375 62.238281 170.25 62.289062 170.632812 C 62.472656 172.289062 62.992188 173.902344 63.738281 175.398438 C 64.261719 176.433594 64.910156 177.402344 65.660156 178.296875 C 65.960938 177.316406 66.265625 176.347656 66.554688 175.402344 C 64.617188 173.851562 63.117188 171.777344 62.199219 169.476562 Z M 108.535156 184.644531 C 108.441406 185.207031 108.316406 185.773438 108.175781 186.335938 C 108.6875 185.503906 109.109375 184.617188 109.417969 183.6875 C 110.523438 180.339844 110.445312 176.722656 110.359375 173.148438 C 110.304688 169.558594 110.324219 165.960938 110.503906 162.371094 C 110.621094 159.851562 110.8125 157.335938 111.0625 154.828125 C 110.832031 154.785156 110.601562 154.746094 110.375 154.695312 C 108.242188 159.269531 108.160156 164.511719 108.453125 169.542969 C 108.75 174.582031 109.378906 179.667969 108.535156 184.644531 Z M 111.5 154.902344 C 111.390625 156.710938 111.304688 158.519531 111.230469 160.328125 C 111.386719 158.511719 111.597656 156.710938 111.871094 154.941406 C 111.746094 154.925781 111.625 154.917969 111.5 154.902344 Z M 141.09375 121.078125 C 140.183594 122.480469 139.339844 123.945312 138.679688 125.46875 C 145.441406 125.308594 153.71875 127.207031 163.796875 131.847656 C 163.652344 130.085938 163.648438 128.308594 163.652344 126.542969 C 163.65625 125.292969 163.613281 123.960938 163.386719 122.707031 C 163.039062 122.511719 162.6875 122.332031 162.320312 122.191406 C 161.796875 121.992188 161.261719 121.832031 160.710938 121.746094 C 160.160156 121.644531 159.601562 121.613281 159.042969 121.628906 C 158.476562 121.644531 157.914062 121.730469 157.347656 121.859375 C 157.265625 121.878906 157.1875 121.828125 157.167969 121.75 C 157.15625 121.683594 157.1875 121.621094 157.238281 121.589844 C 157.765625 121.273438 158.363281 121.078125 158.976562 120.980469 C 159.589844 120.875 160.222656 120.890625 160.835938 120.984375 C 161.449219 121.089844 162.054688 121.273438 162.605469 121.570312 C 162.820312 121.683594 163.023438 121.820312 163.222656 121.960938 C 163.054688 121.316406 162.824219 120.710938 162.511719 120.15625 C 162.398438 120.128906 162.28125 120.101562 162.164062 120.082031 C 161.800781 120.015625 161.4375 119.960938 161.074219 119.9375 C 160.710938 119.910156 160.34375 119.914062 159.976562 119.925781 C 159.605469 119.941406 159.234375 119.988281 158.84375 120.039062 C 158.765625 120.046875 158.6875 119.988281 158.675781 119.910156 C 158.667969 119.847656 158.699219 119.792969 158.738281 119.761719 C 159.082031 119.53125 159.476562 119.378906 159.882812 119.28125 C 160.285156 119.179688 160.707031 119.152344 161.121094 119.171875 C 161.390625 119.191406 161.65625 119.238281 161.914062 119.300781 C 161.738281 119.09375 161.539062 118.898438 161.320312 118.71875 C 160.78125 118.652344 160.246094 118.636719 159.722656 118.703125 C 159.167969 118.78125 158.625 118.914062 158.113281 119.125 C 157.59375 119.332031 157.113281 119.613281 156.660156 119.945312 C 156.210938 120.28125 155.816406 120.6875 155.460938 121.148438 C 155.410156 121.214844 155.316406 121.226562 155.25 121.179688 C 155.199219 121.140625 155.179688 121.066406 155.199219 121.007812 C 155.632812 119.832031 156.65625 118.902344 157.816406 118.417969 C 158.410156 118.175781 159.039062 118.027344 159.671875 118.023438 C 159.835938 118.023438 159.996094 118.027344 160.15625 118.039062 C 157.699219 117.15625 154.195312 118.636719 153.496094 121.144531 C 153.289062 118.917969 151.519531 117 149.394531 116.386719 C 149.570312 116.523438 149.75 116.660156 149.910156 116.816406 C 150.382812 117.285156 150.792969 117.816406 151.09375 118.40625 C 151.398438 118.996094 151.613281 119.632812 151.679688 120.28125 C 151.683594 120.363281 151.628906 120.433594 151.542969 120.445312 C 151.476562 120.449219 151.417969 120.410156 151.394531 120.355469 C 151.152344 119.78125 150.871094 119.238281 150.535156 118.738281 C 150.191406 118.246094 149.8125 117.777344 149.375 117.367188 C 148.945312 116.949219 148.46875 116.589844 147.957031 116.265625 C 147.910156 116.238281 147.859375 116.214844 147.8125 116.1875 C 147.734375 116.1875 147.660156 116.1875 147.585938 116.191406 C 146.925781 116.246094 146.300781 116.417969 145.710938 116.675781 C 146.128906 116.710938 146.546875 116.792969 146.945312 116.917969 C 148.230469 117.328125 149.40625 118.210938 149.996094 119.410156 C 150.03125 119.480469 150 119.570312 149.929688 119.609375 C 149.867188 119.636719 149.796875 119.621094 149.75 119.574219 C 149.328125 119.113281 148.863281 118.71875 148.351562 118.398438 C 147.835938 118.082031 147.289062 117.824219 146.714844 117.652344 C 146.144531 117.472656 145.550781 117.375 144.949219 117.34375 C 144.796875 117.339844 144.652344 117.355469 144.5 117.359375 C 144.113281 117.625 143.746094 117.921875 143.394531 118.25 C 143.605469 118.234375 143.816406 118.226562 144.023438 118.230469 C 144.429688 118.246094 144.832031 118.292969 145.21875 118.402344 C 145.605469 118.5 145.984375 118.640625 146.335938 118.847656 C 146.40625 118.886719 146.429688 118.980469 146.386719 119.054688 C 146.355469 119.105469 146.300781 119.128906 146.246094 119.125 L 145.113281 119.042969 C 144.742188 119.023438 144.378906 119 144.007812 119 C 143.640625 118.992188 143.273438 119.003906 142.902344 119.007812 L 142.644531 119.019531 C 142.070312 119.664062 141.550781 120.367188 141.09375 121.078125 Z M 61.222656 165.425781 C 60.890625 161.5625 62.207031 157.589844 64.777344 154.6875 C 67.476562 151.648438 71.503906 149.671875 73.148438 145.953125 C 74.988281 141.785156 73.171875 137.023438 72.632812 132.496094 C 72.492188 131.339844 72.453125 130.175781 72.5 129.019531 C 72.347656 129.773438 72.246094 130.539062 72.203125 131.3125 C 71.988281 134.179688 72.34375 137.125 71.902344 140.089844 C 71.675781 141.5625 71.246094 143.015625 70.523438 144.332031 C 69.792969 145.636719 68.734375 146.796875 67.394531 147.480469 C 67.320312 147.519531 67.230469 147.488281 67.195312 147.417969 C 67.160156 147.347656 67.1875 147.261719 67.253906 147.222656 C 68.496094 146.503906 69.4375 145.363281 70.0625 144.089844 C 70.707031 142.820312 71.082031 141.417969 71.257812 140 C 71.609375 137.148438 71.257812 134.222656 71.4375 131.261719 C 71.570312 129.15625 72.097656 127.066406 72.992188 125.152344 C 74.375 118.585938 78.519531 112.5625 84.371094 109.226562 C 90.648438 105.644531 98.679688 104.480469 103.445312 99.046875 C 110.121094 91.441406 120.570312 87.3125 130.648438 88.296875 C 136.621094 88.878906 142.363281 91.257812 147.113281 94.914062 C 156.421875 89.226562 168.996094 96.136719 174.714844 102.871094 C 180.875 110.128906 182.070312 121.195312 177.601562 129.597656 C 176.300781 132.042969 174.539062 134.355469 174.148438 137.097656 C 173.753906 139.839844 175.695312 142.671875 178.464844 142.617188 C 176.257812 144.855469 172.460938 144.980469 169.734375 143.417969 C 168.597656 142.769531 167.644531 141.871094 166.847656 140.839844 C 166.597656 152.191406 167.074219 173.738281 173.601562 184.292969 C 182.703125 199.019531 172.722656 220.453125 172.722656 220.453125 C 172.722656 220.453125 124.367188 219.664062 116.449219 202.152344 C 114.25 197.289062 111.917969 187.179688 111.15625 175.855469 C 111.152344 178.5625 110.976562 181.296875 110.0625 183.910156 C 109.523438 185.414062 108.714844 186.816406 107.667969 188.023438 C 106.386719 191.75 104.03125 195.113281 100.535156 196.824219 C 96.878906 198.613281 92.558594 198.363281 88.558594 197.605469 C 84.5625 196.84375 80.589844 195.957031 76.535156 195.574219 C 72.203125 195.167969 68.871094 195.136719 64.402344 197.339844 C 63.289062 195.191406 63.054688 192.589844 63.394531 188.316406 C 63.644531 185.191406 64.554688 181.917969 65.511719 178.785156 C 64.589844 177.878906 63.800781 176.835938 63.167969 175.703125 C 62.308594 174.171875 61.761719 172.46875 61.527344 170.722656 C 61.398438 169.613281 61.417969 168.492188 61.550781 167.386719 C 61.398438 166.738281 61.277344 166.085938 61.222656 165.425781 Z M 316.582031 59.988281 L 316.582031 62.296875 L 326.21875 62.296875 L 326.21875 59.988281 Z M 316.582031 79.710938 L 329.433594 79.710938 L 329.433594 77.398438 L 316.582031 77.398438 Z M 326.421875 76.953125 L 335.695312 76.953125 L 335.695312 74.640625 L 326.421875 74.640625 Z M 316.582031 76.953125 L 326.21875 76.953125 L 326.21875 74.640625 L 316.582031 74.640625 Z M 316.582031 74.199219 L 333.9375 74.199219 L 333.9375 71.886719 L 316.582031 71.886719 Z M 316.582031 70.566406 L 329.433594 70.566406 L 329.433594 68.253906 L 316.582031 68.253906 Z M 337.800781 65.5 L 326.421875 65.5 L 326.421875 67.8125 L 337.800781 67.8125 Z M 316.582031 67.8125 L 326.21875 67.8125 L 326.21875 65.5 L 316.582031 65.5 Z M 316.582031 65.054688 L 333.9375 65.054688 L 333.9375 62.742188 L 316.582031 62.742188 Z M 291.847656 58.285156 L 310.960938 58.285156 L 310.960938 55.972656 L 291.847656 55.972656 Z M 309.203125 35.632812 L 291.847656 35.632812 L 291.847656 37.941406 L 309.203125 37.941406 Z M 291.847656 55.625 L 304.699219 55.625 L 304.699219 53.3125 L 291.847656 53.3125 Z M 310.960938 50.554688 L 301.683594 50.554688 L 301.683594 52.867188 L 310.960938 52.867188 Z M 291.847656 52.867188 L 301.480469 52.867188 L 301.480469 50.554688 L 291.847656 50.554688 Z M 291.847656 50.109375 L 309.203125 50.109375 L 309.203125 47.796875 L 291.847656 47.796875 Z M 291.847656 46.476562 L 304.699219 46.476562 L 304.699219 44.167969 L 291.847656 44.167969 Z M 313.066406 41.410156 L 301.683594 41.410156 L 301.683594 43.722656 L 313.066406 43.722656 Z M 291.847656 43.722656 L 301.480469 43.722656 L 301.480469 41.410156 L 291.847656 41.410156 Z M 291.847656 40.96875 L 309.203125 40.96875 L 309.203125 38.65625 L 291.847656 38.65625 Z M 334.460938 32.320312 L 317.109375 32.320312 L 317.109375 34.632812 L 334.460938 34.632812 Z M 329.957031 29.589844 L 317.109375 29.589844 L 317.109375 31.902344 L 329.957031 31.902344 Z M 326.941406 29.144531 L 336.21875 29.144531 L 336.21875 26.832031 L 326.941406 26.832031 Z M 326.742188 26.832031 L 317.109375 26.832031 L 317.109375 29.144531 L 326.742188 29.144531 Z M 334.460938 24.078125 L 317.109375 24.078125 L 317.109375 26.390625 L 334.460938 26.390625 Z M 329.957031 20.445312 L 317.109375 20.445312 L 317.109375 22.753906 L 329.957031 22.753906 Z M 326.941406 20 L 338.324219 20 L 338.324219 17.6875 L 326.941406 17.6875 Z M 326.742188 17.6875 L 317.109375 17.6875 L 317.109375 20 L 326.742188 20 Z M 334.460938 14.933594 L 317.109375 14.933594 L 317.109375 17.246094 L 334.460938 17.246094 Z M 336.921875 37.941406 L 318.511719 37.941406 L 318.511719 56.332031 L 336.921875 56.332031 Z M 339.234375 58.644531 L 316.199219 58.644531 L 316.199219 35.632812 L 339.234375 35.632812 Z M 312.183594 62.296875 L 293.777344 62.296875 L 293.777344 77.035156 L 312.183594 77.035156 Z M 314.496094 79.347656 L 291.464844 79.347656 L 291.464844 59.988281 L 314.496094 59.988281 Z M 312.183594 17.246094 L 293.777344 17.246094 L 293.777344 32.320312 L 312.183594 32.320312 Z M 314.496094 34.632812 L 291.464844 34.632812 L 291.464844 14.933594 L 314.496094 14.933594 Z M 331.890625 147.492188 L 319.039062 147.492188 L 319.039062 149.804688 L 331.890625 149.804688 Z M 340.253906 144.734375 L 328.875 144.734375 L 328.875 147.046875 L 340.253906 147.046875 Z M 319.039062 147.046875 L 328.667969 147.046875 L 328.667969 144.734375 L 319.039062 144.734375 Z M 336.394531 141.980469 L 319.039062 141.980469 L 319.039062 144.292969 L 336.394531 144.292969 Z M 319.039062 133.460938 L 331.890625 133.460938 L 331.890625 131.152344 L 319.039062 131.152344 Z M 340.253906 128.394531 L 328.875 128.394531 L 328.875 130.707031 L 340.253906 130.707031 Z M 319.039062 130.707031 L 328.667969 130.707031 L 328.667969 128.394531 L 319.039062 128.394531 Z M 336.394531 125.636719 L 319.039062 125.636719 L 319.039062 127.949219 L 336.394531 127.949219 Z M 319.039062 117.117188 L 331.890625 117.117188 L 331.890625 114.808594 L 319.039062 114.808594 Z M 340.253906 112.054688 L 328.875 112.054688 L 328.875 114.367188 L 340.253906 114.367188 Z M 319.039062 114.367188 L 328.667969 114.367188 L 328.667969 112.054688 L 319.039062 112.054688 Z M 336.394531 109.296875 L 319.039062 109.296875 L 319.039062 111.609375 L 336.394531 111.609375 Z M 304.511719 150.25 L 313.226562 150.25 L 313.226562 141.535156 L 304.511719 141.535156 Z M 302.195312 139.226562 L 315.542969 139.226562 L 315.542969 152.558594 L 302.195312 152.558594 Z M 313.226562 125.195312 L 304.511719 125.195312 L 304.511719 133.90625 L 313.226562 133.90625 Z M 315.542969 136.214844 L 302.195312 136.214844 L 302.195312 122.886719 L 315.542969 122.886719 Z M 313.226562 108.855469 L 304.511719 108.855469 L 304.511719 117.566406 L 313.226562 117.566406 Z M 315.542969 119.875 L 302.195312 119.875 L 302.195312 106.542969 L 315.542969 106.542969 Z M 289.941406 147.492188 L 277.09375 147.492188 L 277.09375 149.804688 L 289.941406 149.804688 Z M 286.929688 147.046875 L 298.3125 147.046875 L 298.3125 144.734375 L 286.929688 144.734375 Z M 286.726562 144.734375 L 277.09375 144.734375 L 277.09375 147.046875 L 286.726562 147.046875 Z M 294.449219 141.980469 L 277.09375 141.980469 L 277.09375 144.292969 L 294.449219 144.292969 Z M 289.941406 114.808594 L 277.09375 114.808594 L 277.09375 117.117188 L 289.941406 117.117188 Z M 286.929688 114.367188 L 298.3125 114.367188 L 298.3125 112.054688 L 286.929688 112.054688 Z M 286.726562 112.054688 L 277.09375 112.054688 L 277.09375 114.367188 L 286.726562 114.367188 Z M 294.449219 109.296875 L 277.09375 109.296875 L 277.09375 111.609375 L 294.449219 111.609375 Z M 262.566406 150.25 L 271.285156 150.25 L 271.285156 141.535156 L 262.566406 141.535156 Z M 260.253906 139.226562 L 273.597656 139.226562 L 273.597656 152.558594 L 260.253906 152.558594 Z M 271.285156 108.855469 L 262.566406 108.855469 L 262.566406 117.566406 L 271.285156 117.566406 Z M 273.597656 119.875 L 260.253906 119.875 L 260.253906 106.542969 L 273.597656 106.542969 Z M 269.460938 10.777344 L 212.292969 10.777344 L 212.292969 83.5 L 269.460938 83.5 Z M 366.679688 329.582031 C 366.679688 335.585938 284.679688 340.453125 183.527344 340.453125 C 82.378906 340.453125 0.378906 335.585938 0.378906 329.582031 C 0.378906 324.320312 63.296875 319.933594 146.890625 318.925781 L 127.921875 271.835938 C 127.523438 270.832031 128.015625 269.699219 129.015625 269.300781 C 130.019531 268.90625 131.15625 269.394531 131.554688 270.398438 L 151.082031 318.878906 C 161.613281 318.765625 172.457031 318.710938 183.527344 318.710938 C 218.265625 318.710938 250.738281 319.285156 278.414062 320.28125 L 279.515625 325.199219 L 304.542969 325.199219 L 303.6875 321.375 C 342.277344 323.367188 366.679688 326.304688 366.679688 329.582031 "/>
</g>
<path style=" stroke:none;fill-rule:nonzero;fill:rgb(96.078491%,42.349243%,36.468506%);fill-opacity:1;" d="M 219.90625 76.308594 L 249.460938 76.308594 L 249.460938 75.539062 L 219.90625 75.539062 Z M 261.847656 70.839844 L 219.90625 70.839844 L 219.90625 71.613281 L 261.847656 71.613281 Z M 261.847656 66.140625 L 219.90625 66.140625 L 219.90625 66.910156 L 261.847656 66.910156 Z M 261.847656 61.441406 L 219.90625 61.441406 L 219.90625 62.214844 L 261.847656 62.214844 Z M 261.847656 56.742188 L 219.90625 56.742188 L 219.90625 57.511719 L 261.847656 57.511719 Z M 261.847656 52.042969 L 219.90625 52.042969 L 219.90625 52.8125 L 261.847656 52.8125 Z M 261.464844 20.199219 L 220.292969 20.199219 L 220.292969 46.753906 L 261.464844 46.753906 Z M 262.234375 47.523438 L 219.519531 47.523438 L 219.519531 19.429688 L 262.234375 19.429688 Z M 272.054688 108.085938 L 261.796875 108.085938 L 261.796875 118.335938 L 272.054688 118.335938 Z M 229.085938 127.066406 L 228.542969 126.523438 L 223.296875 131.761719 L 221.421875 129.882812 L 220.875 130.429688 L 223.296875 132.851562 Z M 230.113281 134.675781 L 219.851562 134.675781 L 219.851562 124.425781 L 230.113281 124.425781 Z M 339.484375 112.824219 L 329.644531 112.824219 L 329.644531 113.59375 L 339.484375 113.59375 Z M 339.484375 129.164062 L 329.644531 129.164062 L 329.644531 129.9375 L 339.484375 129.9375 Z M 339.484375 145.507812 L 329.644531 145.507812 L 329.644531 146.277344 L 339.484375 146.277344 Z M 331.117188 148.261719 L 319.808594 148.261719 L 319.808594 149.03125 L 331.117188 149.03125 Z M 314.769531 107.316406 L 302.96875 107.316406 L 302.96875 119.105469 L 314.769531 119.105469 Z M 314.769531 123.65625 L 302.96875 123.65625 L 302.96875 135.445312 L 314.769531 135.445312 Z M 314.769531 139.996094 L 302.96875 139.996094 L 302.96875 151.789062 L 314.769531 151.789062 Z M 297.539062 112.824219 L 287.703125 112.824219 L 287.703125 113.59375 L 297.539062 113.59375 Z M 297.539062 129.164062 L 287.703125 129.164062 L 287.703125 129.9375 L 297.539062 129.9375 Z M 297.539062 145.507812 L 287.703125 145.507812 L 287.703125 146.277344 L 297.539062 146.277344 Z M 289.171875 148.261719 L 277.867188 148.261719 L 277.867188 149.03125 L 289.171875 149.03125 Z M 272.828125 107.316406 L 261.023438 107.316406 L 261.023438 119.105469 L 272.828125 119.105469 Z M 272.828125 123.65625 L 261.023438 123.65625 L 261.023438 135.445312 L 272.828125 135.445312 Z M 272.828125 139.996094 L 261.023438 139.996094 L 261.023438 151.789062 L 272.828125 151.789062 Z M 255.59375 112.824219 L 245.757812 112.824219 L 245.757812 113.59375 L 255.59375 113.59375 Z M 255.59375 129.164062 L 245.757812 129.164062 L 245.757812 129.9375 L 255.59375 129.9375 Z M 255.59375 145.507812 L 245.757812 145.507812 L 245.757812 146.277344 L 255.59375 146.277344 Z M 247.226562 148.261719 L 235.917969 148.261719 L 235.917969 149.03125 L 247.226562 149.03125 Z M 230.882812 107.316406 L 219.082031 107.316406 L 219.082031 119.105469 L 230.882812 119.105469 Z M 230.882812 123.65625 L 219.082031 123.65625 L 219.082031 135.445312 L 230.882812 135.445312 Z M 230.882812 139.996094 L 219.082031 139.996094 L 219.082031 151.789062 L 230.882812 151.789062 Z M 235.917969 146.277344 L 244.011719 146.277344 L 244.011719 145.507812 L 235.917969 145.507812 Z M 235.917969 143.523438 L 251.734375 143.523438 L 251.734375 142.753906 L 235.917969 142.753906 Z M 235.917969 132.691406 L 247.226562 132.691406 L 247.226562 131.921875 L 235.917969 131.921875 Z M 235.917969 129.9375 L 244.011719 129.9375 L 244.011719 129.164062 L 235.917969 129.164062 Z M 235.917969 127.179688 L 251.734375 127.179688 L 251.734375 126.410156 L 235.917969 126.410156 Z M 235.917969 116.347656 L 247.226562 116.347656 L 247.226562 115.578125 L 235.917969 115.578125 Z M 235.917969 113.59375 L 244.011719 113.59375 L 244.011719 112.824219 L 235.917969 112.824219 Z M 235.917969 110.839844 L 251.734375 110.839844 L 251.734375 110.066406 L 235.917969 110.066406 Z M 277.867188 146.277344 L 285.953125 146.277344 L 285.953125 145.507812 L 277.867188 145.507812 Z M 277.867188 143.523438 L 293.679688 143.523438 L 293.679688 142.753906 L 277.867188 142.753906 Z M 277.867188 132.691406 L 289.171875 132.691406 L 289.171875 131.921875 L 277.867188 131.921875 Z M 277.867188 129.9375 L 285.953125 129.9375 L 285.953125 129.164062 L 277.867188 129.164062 Z M 277.867188 127.179688 L 293.679688 127.179688 L 293.679688 126.410156 L 277.867188 126.410156 Z M 277.867188 116.347656 L 289.171875 116.347656 L 289.171875 115.578125 L 277.867188 115.578125 Z M 277.867188 113.59375 L 285.953125 113.59375 L 285.953125 112.824219 L 277.867188 112.824219 Z M 277.867188 110.839844 L 293.679688 110.839844 L 293.679688 110.066406 L 277.867188 110.066406 Z M 319.808594 146.277344 L 327.898438 146.277344 L 327.898438 145.507812 L 319.808594 145.507812 Z M 319.808594 143.523438 L 335.621094 143.523438 L 335.621094 142.753906 L 319.808594 142.753906 Z M 319.808594 132.691406 L 331.117188 132.691406 L 331.117188 131.921875 L 319.808594 131.921875 Z M 319.808594 129.9375 L 327.898438 129.9375 L 327.898438 129.164062 L 319.808594 129.164062 Z M 319.808594 127.179688 L 335.621094 127.179688 L 335.621094 126.410156 L 319.808594 126.410156 Z M 319.808594 116.347656 L 331.117188 116.347656 L 331.117188 115.578125 L 319.808594 115.578125 Z M 319.808594 113.59375 L 327.898438 113.59375 L 327.898438 112.824219 L 319.808594 112.824219 Z M 319.808594 110.839844 L 335.621094 110.839844 L 335.621094 110.066406 L 319.808594 110.066406 Z M 346.652344 159.21875 L 212.292969 159.21875 L 212.292969 97.710938 L 346.652344 97.710938 Z M 229.085938 143.410156 L 228.542969 142.863281 L 223.296875 148.101562 L 221.421875 146.226562 L 220.875 146.773438 L 223.296875 149.191406 Z M 230.113281 151.019531 L 219.851562 151.019531 L 219.851562 140.765625 L 230.113281 140.765625 Z M 272.054688 140.765625 L 261.796875 140.765625 L 261.796875 151.019531 L 272.054688 151.019531 Z M 271.03125 127.066406 L 270.484375 126.523438 L 265.242188 131.761719 L 263.363281 129.882812 L 262.820312 130.429688 L 265.242188 132.851562 Z M 272.054688 134.675781 L 261.796875 134.675781 L 261.796875 124.425781 L 272.054688 124.425781 Z M 314 140.765625 L 303.738281 140.765625 L 303.738281 151.019531 L 314 151.019531 Z M 314 124.425781 L 303.738281 124.425781 L 303.738281 134.675781 L 314 134.675781 Z M 314 108.085938 L 303.738281 108.085938 L 303.738281 118.335938 L 314 118.335938 Z M 229.085938 110.726562 L 228.542969 110.183594 L 223.296875 115.417969 L 221.421875 113.542969 L 220.875 114.089844 L 223.296875 116.507812 Z M 230.113281 118.335938 L 219.851562 118.335938 L 219.851562 108.085938 L 230.113281 108.085938 Z M 369.804688 171.578125 C 369.75 171.535156 369.691406 171.496094 369.632812 171.457031 C 369.089844 171.082031 368.429688 170.855469 367.710938 170.855469 L 206.292969 170.855469 C 204.648438 170.855469 203.242188 172.03125 202.949219 173.648438 L 181.007812 295.605469 C 180.761719 296.984375 181.378906 298.285156 182.445312 299.011719 L 185.691406 301.300781 L 188.199219 299.601562 L 273.789062 299.601562 L 268.449219 275.734375 L 293.476562 275.734375 L 298.8125 299.601562 L 345.765625 299.601562 C 347.410156 299.601562 348.820312 298.421875 349.109375 296.808594 L 370.9375 175.472656 L 373.167969 173.957031 Z M 149.457031 272.761719 C 149.734375 272.761719 150 272.640625 150.179688 272.429688 C 150.5625 271.980469 150.910156 271.46875 151.273438 270.820312 C 151.5625 270.320312 151.828125 269.746094 152.082031 269.066406 C 152.332031 268.375 152.5 267.789062 152.605469 267.226562 C 152.75 266.507812 152.824219 265.878906 152.828125 265.289062 C 152.828125 264.890625 152.578125 264.535156 152.191406 264.410156 L 152.027344 264.367188 L 151.90625 264.367188 C 151.507812 264.367188 151.15625 264.621094 151.03125 265 L 150.496094 266.652344 L 150.378906 266.984375 C 150.230469 267.410156 150.082031 267.835938 149.914062 268.265625 C 149.75 268.699219 149.578125 269.128906 149.398438 269.554688 L 149.285156 269.835938 L 148.585938 271.449219 C 148.421875 271.832031 148.527344 272.273438 148.847656 272.539062 C 149.019531 272.683594 149.234375 272.761719 149.457031 272.761719 Z M 136.265625 282.089844 L 136.554688 281.671875 C 137.800781 279.863281 138.929688 278.03125 139.90625 276.226562 C 141.417969 273.441406 142.761719 270.398438 143.90625 267.1875 C 145.023438 263.945312 145.875 260.730469 146.425781 257.640625 C 147.011719 254.410156 147.328125 251.101562 147.367188 247.816406 C 147.371094 247.328125 146.996094 246.925781 146.449219 246.890625 C 145.964844 246.890625 145.5625 247.265625 145.535156 247.75 C 145.335938 250.882812 144.910156 254.074219 144.273438 257.226562 C 143.605469 260.476562 142.75 263.570312 141.722656 266.429688 C 140.71875 269.324219 139.449219 272.269531 137.941406 275.1875 C 137.160156 276.691406 136.285156 278.234375 135.332031 279.777344 L 135.691406 280.664062 C 135.757812 280.820312 135.917969 281.238281 135.917969 281.238281 C 136.144531 281.746094 136.265625 282.089844 136.265625 282.089844 Z M 80.007812 253.199219 C 79.863281 253.113281 79.703125 253.066406 79.535156 253.066406 C 79.214844 253.066406 78.914062 253.234375 78.746094 253.507812 C 78.253906 254.328125 77.804688 255.15625 77.28125 256.140625 C 76.976562 256.710938 76.691406 257.289062 76.402344 257.871094 C 76.246094 258.179688 76.09375 258.488281 75.925781 258.820312 L 75.53125 259.65625 C 75.242188 260.277344 74.949219 260.898438 74.671875 261.527344 C 74.289062 262.402344 73.882812 263.335938 73.519531 264.308594 C 73.359375 264.738281 73.53125 265.21875 73.917969 265.449219 C 74.066406 265.535156 74.234375 265.585938 74.40625 265.585938 C 74.738281 265.585938 75.046875 265.40625 75.214844 265.128906 C 75.757812 264.226562 76.253906 263.296875 76.675781 262.484375 C 76.992188 261.878906 77.296875 261.265625 77.597656 260.65625 L 78.019531 259.796875 C 78.164062 259.480469 78.308594 259.164062 78.457031 258.847656 C 78.730469 258.261719 79 257.679688 79.257812 257.089844 C 79.703125 256.066406 80.066406 255.199219 80.398438 254.304688 C 80.546875 253.890625 80.386719 253.425781 80.007812 253.199219 Z M 82.875 205.195312 C 81.261719 203.554688 79.429688 202.277344 77.429688 201.394531 L 77.21875 201.316406 L 77.058594 201.316406 C 76.707031 201.316406 76.382812 201.519531 76.230469 201.832031 C 76.125 202.050781 76.109375 202.300781 76.191406 202.535156 C 76.269531 202.765625 76.4375 202.953125 76.65625 203.058594 C 80.007812 204.683594 82.867188 207.703125 84.710938 211.5625 C 86.421875 215.15625 87.273438 219.203125 87.164062 223.28125 C 87.089844 226.894531 86.363281 230.832031 84.933594 235.3125 C 83.683594 239.230469 82.054688 243.125 80.480469 246.894531 L 80.441406 246.992188 C 80.246094 247.464844 80.457031 248 80.917969 248.210938 L 81.144531 248.300781 L 81.3125 248.300781 C 81.679688 248.300781 82.015625 248.085938 82.171875 247.75 C 83.890625 244.046875 85.683594 240.085938 87.050781 236.003906 C 88.578125 231.453125 89.367188 227.304688 89.472656 223.324219 C 89.550781 218.804688 88.585938 214.402344 86.679688 210.597656 C 85.640625 208.535156 84.359375 206.714844 82.875 205.195312 Z M 133.636719 238.335938 L 133.757812 238.332031 L 133.820312 238.324219 C 134.222656 238.257812 134.566406 237.984375 134.714844 237.601562 C 134.804688 237.371094 143.613281 214.554688 140.96875 192.574219 L 140.1875 192.519531 L 138.644531 192.453125 L 138.636719 192.53125 L 138.652344 192.636719 C 140.863281 210.480469 135.257812 228.96875 133.234375 234.878906 L 101.410156 196.347656 C 101.125 196.515625 100.832031 196.675781 100.535156 196.824219 C 100.113281 197.027344 99.683594 197.207031 99.246094 197.359375 L 132.746094 237.917969 C 132.964844 238.183594 133.292969 238.335938 133.636719 238.335938 Z M 170.796875 319.726562 L 215.035156 336.21875 L 137.886719 336.21875 L 117.914062 321.90625 C 118.933594 321.957031 120.007812 321.945312 121.144531 321.828125 C 127.957031 321.121094 129.640625 320.015625 129.976562 319.726562 L 130.339844 319.726562 L 136.453125 321.296875 C 137.878906 321.664062 139.367188 321.007812 140.074219 319.726562 L 147.210938 319.726562 L 147.945312 321.539062 C 148.046875 321.792969 148.210938 322.019531 148.425781 322.191406 L 150.699219 324.023438 C 150.914062 324.195312 151.234375 324.070312 151.273438 323.796875 L 151.671875 320.902344 C 151.710938 320.632812 151.675781 320.355469 151.578125 320.097656 L 151.421875 319.726562 L 170.796875 319.726562 "/>
<path style=" stroke:none;fill-rule:nonzero;fill:rgb(98.429871%,76.469421%,63.139343%);fill-opacity:1;" d="M 180.3125 216.808594 C 176.800781 212.503906 174.496094 206.933594 171.664062 201.816406 C 173.671875 198.863281 174.25 195.066406 176.390625 192.191406 C 178.828125 188.921875 183.007812 187.261719 185.320312 183.902344 C 187.15625 181.238281 187.570312 177.800781 187.132812 174.597656 C 186.984375 173.511719 186.738281 172.441406 186.445312 171.390625 C 186.710938 170.421875 186.546875 169.179688 186.046875 168.367188 C 185.855469 168.390625 185.667969 168.421875 185.476562 168.453125 C 185.144531 167.539062 184.785156 166.628906 184.421875 165.726562 C 184.566406 165.59375 184.683594 165.453125 184.75 165.296875 C 185.226562 164.203125 184.722656 162.460938 183.617188 161.996094 C 182.683594 161.605469 181.746094 161.234375 180.796875 160.882812 C 183.375 161.179688 184.710938 158.300781 182.882812 156.160156 C 180.773438 153.691406 176.960938 151.703125 174.394531 149.675781 C 173.804688 149.207031 173.195312 148.730469 172.472656 148.523438 C 171.75 148.3125 170.875 148.429688 170.398438 149.011719 C 169.570312 150.003906 170.339844 151.480469 171.109375 152.519531 C 173.335938 155.53125 175.734375 158.652344 179.074219 160.28125 C 176.644531 159.449219 174.179688 158.730469 171.679688 158.15625 C 170.890625 158.75 170.703125 159.917969 171.019531 160.855469 C 171.335938 161.792969 172.054688 162.539062 172.8125 163.179688 C 173.613281 163.867188 174.492188 164.46875 175.417969 164.980469 C 175.378906 164.996094 175.339844 165.015625 175.296875 165.039062 C 174.675781 165.398438 174.097656 165.824219 173.5625 166.296875 C 173.652344 165.726562 173.585938 165.167969 173.292969 164.675781 C 170.109375 165.195312 166.914062 164.886719 163.722656 164.449219 C 158.964844 174.347656 155.886719 185.046875 154.652344 195.953125 C 153.867188 198.15625 153.617188 200.355469 154.605469 202.089844 C 154.601562 202.089844 154.59375 202.089844 154.59375 202.089844 C 160.9375 216.238281 167.28125 230.386719 173.628906 244.539062 C 177.382812 252.914062 181.164062 261.3125 185.75 269.253906 L 192.699219 230.636719 C 188.355469 226.222656 184.222656 221.605469 180.3125 216.808594 Z M 312.953125 61.527344 L 293.007812 61.527344 L 293.007812 77.804688 L 312.953125 77.804688 Z M 338.460938 36.402344 L 316.96875 36.402344 L 316.96875 57.875 L 338.460938 57.875 Z M 337.027344 66.269531 L 327.191406 66.269531 L 327.191406 67.039062 L 337.027344 67.039062 Z M 334.921875 75.414062 L 327.191406 75.414062 L 327.191406 76.183594 L 334.921875 76.183594 Z M 317.355469 75.414062 L 317.355469 76.183594 L 325.445312 76.183594 L 325.445312 75.414062 Z M 317.355469 72.660156 L 317.355469 73.429688 L 333.167969 73.429688 L 333.167969 72.660156 Z M 317.355469 69.023438 L 317.355469 69.792969 L 328.664062 69.792969 L 328.664062 69.023438 Z M 317.355469 66.269531 L 317.355469 67.039062 L 325.445312 67.039062 L 325.445312 66.269531 Z M 325.445312 61.527344 L 325.445312 60.757812 L 317.355469 60.757812 L 317.355469 61.527344 Z M 317.355469 63.511719 L 317.355469 64.285156 L 333.167969 64.285156 L 333.167969 63.511719 Z M 328.664062 78.167969 L 317.355469 78.167969 L 317.355469 78.941406 L 328.664062 78.941406 Z M 313.726562 15.703125 L 292.234375 15.703125 L 292.234375 33.863281 L 313.726562 33.863281 Z M 292.621094 56.742188 L 292.621094 57.511719 L 310.1875 57.511719 L 310.1875 56.742188 Z M 292.621094 54.082031 L 292.621094 54.851562 L 303.929688 54.851562 L 303.929688 54.082031 Z M 292.621094 51.324219 L 292.621094 52.097656 L 300.707031 52.097656 L 300.707031 51.324219 Z M 302.457031 51.324219 L 302.457031 52.097656 L 310.1875 52.097656 L 310.1875 51.324219 Z M 292.621094 48.570312 L 292.621094 49.339844 L 308.433594 49.339844 L 308.433594 48.570312 Z M 292.621094 44.9375 L 292.621094 45.707031 L 303.929688 45.707031 L 303.929688 44.9375 Z M 292.621094 42.179688 L 292.621094 42.949219 L 300.707031 42.949219 L 300.707031 42.179688 Z M 292.621094 39.425781 L 292.621094 40.195312 L 308.433594 40.195312 L 308.433594 39.425781 Z M 302.457031 42.179688 L 302.457031 42.949219 L 312.292969 42.949219 L 312.292969 42.179688 Z M 308.433594 36.402344 L 292.621094 36.402344 L 292.621094 37.171875 L 308.433594 37.171875 Z M 313.726562 60.757812 L 292.234375 60.757812 L 292.234375 78.574219 L 313.726562 78.574219 Z M 317.878906 33.863281 L 333.691406 33.863281 L 333.691406 33.09375 L 317.878906 33.09375 Z M 317.878906 31.128906 L 329.1875 31.128906 L 329.1875 30.359375 L 317.878906 30.359375 Z M 317.878906 28.375 L 325.96875 28.375 L 325.96875 27.601562 L 317.878906 27.601562 Z M 327.714844 27.601562 L 327.714844 28.375 L 335.445312 28.375 L 335.445312 27.601562 Z M 317.878906 25.621094 L 333.691406 25.621094 L 333.691406 24.847656 L 317.878906 24.847656 Z M 317.878906 21.984375 L 329.1875 21.984375 L 329.1875 21.214844 L 317.878906 21.214844 Z M 317.878906 19.226562 L 325.96875 19.226562 L 325.96875 18.457031 L 317.878906 18.457031 Z M 327.714844 18.457031 L 327.714844 19.226562 L 337.550781 19.226562 L 337.550781 18.457031 Z M 317.878906 16.472656 L 333.691406 16.472656 L 333.691406 15.703125 L 317.878906 15.703125 Z M 343.082031 10.777344 L 343.082031 83.5 L 285.910156 83.5 L 285.910156 10.777344 Z M 337.691406 37.171875 L 317.742188 37.171875 L 317.742188 57.105469 L 337.691406 57.105469 Z M 312.953125 16.472656 L 293.007812 16.472656 L 293.007812 33.09375 L 312.953125 33.09375 Z M 144.066406 301.460938 L 145.964844 306.167969 C 145.832031 305.894531 145.675781 305.628906 145.46875 305.402344 L 139.203125 298.457031 C 138.496094 297.671875 137.59375 297.082031 136.585938 296.753906 L 126.027344 293.296875 C 123.78125 292.5625 121.3125 293.199219 119.703125 294.929688 L 111.40625 303.84375 L 55.640625 302.214844 L 63.199219 286.96875 L 61.933594 284 C 56.898438 272.222656 46.207031 263.820312 33.566406 261.695312 C 33.566406 261.695312 15.03125 304.726562 16.289062 309.324219 C 17.546875 313.925781 20.476562 327.011719 35.546875 327.011719 C 46.402344 327.011719 88.328125 322.734375 110.921875 320.34375 C 113.207031 321.300781 116.75 322.277344 121.144531 321.828125 C 129.035156 321.011719 130.054688 319.652344 130.054688 319.652344 L 136.453125 321.296875 C 137.914062 321.671875 139.441406 320.980469 140.125 319.636719 L 140.703125 318.511719 C 141.054688 317.820312 141.746094 317.359375 142.523438 317.308594 L 142.910156 317.28125 C 145.53125 317.109375 147.222656 314.4375 146.253906 312 L 146.273438 307.515625 C 146.277344 307.179688 146.214844 306.851562 146.113281 306.539062 L 146.113281 306.546875 C 149.035156 306.730469 151.308594 305.117188 149.503906 303.457031 C 148.398438 302.445312 146.074219 301.824219 144.066406 301.460938 Z M 140.980469 243.496094 C 140.980469 239.453125 137.6875 236.164062 133.636719 236.164062 C 129.589844 236.164062 126.292969 239.453125 126.292969 243.496094 C 126.292969 247.542969 129.589844 250.832031 133.636719 250.832031 C 137.6875 250.832031 140.980469 247.542969 140.980469 243.496094 Z M 111.0625 154.828125 C 110.832031 154.785156 110.601562 154.746094 110.375 154.695312 C 108.242188 159.269531 108.160156 164.511719 108.453125 169.542969 C 108.75 174.582031 109.378906 179.667969 108.535156 184.644531 C 108.441406 185.207031 108.316406 185.773438 108.175781 186.335938 C 108.6875 185.503906 109.109375 184.617188 109.417969 183.6875 C 110.523438 180.339844 110.445312 176.722656 110.359375 173.148438 C 110.304688 169.558594 110.324219 165.960938 110.503906 162.371094 C 110.621094 159.851562 110.8125 157.335938 111.0625 154.828125 Z M 128.472656 152.414062 C 130.035156 151.40625 131.214844 149.859375 132.257812 148.269531 C 130.082031 150.1875 127.269531 151.289062 124.363281 150.890625 C 123.300781 151.800781 122.148438 152.578125 120.941406 153.210938 C 121.628906 153.332031 122.316406 153.4375 123.003906 153.496094 C 124.921875 153.679688 126.898438 153.460938 128.472656 152.414062 Z M 166.082031 139.71875 C 165.359375 138.535156 164.816406 137.234375 164.460938 135.902344 C 163.648438 132.867188 163.648438 129.683594 163.652344 126.542969 C 163.65625 125.292969 163.613281 123.960938 163.386719 122.707031 C 163.039062 122.511719 162.6875 122.332031 162.320312 122.191406 C 161.796875 121.992188 161.261719 121.832031 160.710938 121.746094 C 160.160156 121.644531 159.601562 121.613281 159.042969 121.628906 C 158.476562 121.644531 157.914062 121.730469 157.347656 121.859375 C 157.265625 121.878906 157.1875 121.828125 157.167969 121.75 C 157.15625 121.683594 157.1875 121.621094 157.238281 121.589844 C 157.765625 121.273438 158.363281 121.078125 158.976562 120.980469 C 159.589844 120.875 160.222656 120.890625 160.835938 120.984375 C 161.449219 121.089844 162.054688 121.273438 162.605469 121.570312 C 162.820312 121.683594 163.023438 121.820312 163.222656 121.960938 C 163.054688 121.316406 162.824219 120.710938 162.511719 120.15625 C 162.398438 120.128906 162.28125 120.101562 162.164062 120.082031 C 161.800781 120.015625 161.4375 119.960938 161.074219 119.9375 C 160.710938 119.910156 160.34375 119.914062 159.976562 119.925781 C 159.605469 119.941406 159.234375 119.988281 158.84375 120.039062 C 158.765625 120.046875 158.6875 119.988281 158.675781 119.910156 C 158.667969 119.847656 158.699219 119.792969 158.738281 119.761719 C 159.082031 119.53125 159.476562 119.378906 159.882812 119.28125 C 160.285156 119.179688 160.707031 119.152344 161.121094 119.171875 C 161.390625 119.191406 161.65625 119.238281 161.914062 119.300781 C 161.738281 119.09375 161.539062 118.898438 161.320312 118.71875 C 160.78125 118.652344 160.246094 118.636719 159.722656 118.703125 C 159.167969 118.78125 158.625 118.914062 158.113281 119.125 C 157.59375 119.332031 157.113281 119.613281 156.660156 119.945312 C 156.210938 120.28125 155.816406 120.6875 155.460938 121.148438 C 155.410156 121.214844 155.316406 121.226562 155.25 121.179688 C 155.199219 121.140625 155.179688 121.066406 155.199219 121.007812 C 155.632812 119.832031 156.65625 118.902344 157.816406 118.417969 C 158.410156 118.175781 159.039062 118.027344 159.671875 118.023438 C 159.835938 118.023438 159.996094 118.027344 160.15625 118.039062 C 157.699219 117.15625 154.195312 118.636719 153.496094 121.144531 C 153.289062 118.917969 151.519531 117 149.394531 116.386719 C 149.570312 116.523438 149.75 116.660156 149.910156 116.816406 C 150.382812 117.285156 150.792969 117.816406 151.09375 118.40625 C 151.398438 118.996094 151.613281 119.632812 151.679688 120.28125 C 151.683594 120.363281 151.628906 120.433594 151.542969 120.445312 C 151.476562 120.449219 151.417969 120.410156 151.394531 120.355469 C 151.152344 119.78125 150.871094 119.238281 150.535156 118.738281 C 150.191406 118.246094 149.8125 117.777344 149.375 117.367188 C 148.945312 116.949219 148.46875 116.589844 147.957031 116.265625 C 147.910156 116.238281 147.859375 116.214844 147.8125 116.1875 C 147.734375 116.1875 147.660156 116.1875 147.585938 116.191406 C 146.925781 116.246094 146.300781 116.417969 145.710938 116.675781 C 146.128906 116.710938 146.546875 116.792969 146.945312 116.917969 C 148.230469 117.328125 149.40625 118.210938 149.996094 119.410156 C 150.03125 119.480469 150 119.570312 149.929688 119.609375 C 149.867188 119.636719 149.796875 119.621094 149.75 119.574219 C 149.328125 119.113281 148.863281 118.71875 148.351562 118.398438 C 147.835938 118.082031 147.289062 117.824219 146.714844 117.652344 C 146.144531 117.472656 145.550781 117.375 144.949219 117.34375 C 144.796875 117.339844 144.652344 117.355469 144.5 117.359375 C 144.113281 117.625 143.746094 117.921875 143.394531 118.25 C 143.605469 118.234375 143.816406 118.226562 144.023438 118.230469 C 144.429688 118.246094 144.832031 118.292969 145.21875 118.402344 C 145.605469 118.5 145.984375 118.640625 146.335938 118.847656 C 146.40625 118.886719 146.429688 118.980469 146.386719 119.054688 C 146.355469 119.105469 146.300781 119.128906 146.246094 119.125 L 145.113281 119.042969 C 144.742188 119.023438 144.378906 119 144.007812 119 C 143.640625 118.992188 143.273438 119.003906 142.902344 119.007812 L 142.644531 119.019531 C 142.070312 119.664062 141.550781 120.367188 141.09375 121.078125 C 139.074219 124.195312 137.316406 127.621094 137.378906 131.339844 C 137.457031 135.851562 137.21875 140.539062 135.15625 144.554688 C 134.804688 145.246094 134.378906 145.902344 133.90625 146.515625 C 133.585938 147.1875 133.25 147.855469 132.871094 148.5 C 131.859375 150.222656 130.613281 151.878906 128.886719 153.050781 C 127.125 154.234375 124.917969 154.421875 122.933594 154.183594 C 121.960938 154.066406 121.007812 153.871094 120.070312 153.632812 C 119.066406 154.089844 118.027344 154.445312 116.964844 154.6875 C 117.3125 155.808594 117.710938 156.910156 118.164062 157.988281 C 119.132812 160.304688 120.320312 162.53125 121.734375 164.605469 C 123.121094 166.695312 124.746094 168.628906 126.527344 170.402344 C 128.3125 172.167969 130.269531 173.769531 132.382812 175.15625 C 132.453125 175.203125 132.46875 175.292969 132.425781 175.363281 C 132.382812 175.425781 132.296875 175.445312 132.226562 175.40625 C 130.011719 174.152344 127.9375 172.625 126.074219 170.867188 C 124.203125 169.121094 122.550781 167.144531 121.097656 165.035156 C 119.675781 162.902344 118.457031 160.632812 117.53125 158.246094 C 117.089844 157.121094 116.71875 155.964844 116.40625 154.800781 C 114.804688 155.101562 113.15625 155.144531 111.5 154.902344 C 111.351562 157.398438 111.226562 159.898438 111.152344 162.394531 C 111.058594 165.976562 111.03125 169.554688 111.125 173.136719 C 111.183594 176.699219 111.285156 180.417969 110.0625 183.910156 C 109.523438 185.414062 108.714844 186.816406 107.667969 188.023438 C 106.691406 190.855469 105.09375 193.476562 102.847656 195.324219 C 106.4375 201.320312 110.585938 207.015625 115.867188 211.570312 C 122.019531 216.875 129.871094 220.546875 138 220.453125 C 139.871094 220.429688 141.785156 220.199219 143.441406 219.339844 C 145.101562 218.480469 146.472656 216.898438 146.683594 215.042969 C 146.996094 212.25 144.746094 209.863281 142.488281 208.1875 C 140.230469 206.511719 136.425781 204.863281 136.597656 202.0625 C 137.058594 194.460938 137.421875 186.710938 137.886719 179.109375 C 141.824219 180.59375 146.183594 182.085938 150.128906 180.625 C 153.695312 179.300781 155.992188 175.875 157.773438 172.519531 C 163.109375 162.457031 165.945312 151.101562 166.082031 139.71875 Z M 72.625 127.34375 L 55.71875 127.34375 L 55.71875 84.277344 C 55.457031 84.691406 55.199219 85.097656 54.945312 85.511719 L 54.945312 128.113281 L 72.566406 128.113281 C 72.585938 127.851562 72.597656 127.597656 72.625 127.34375 Z M 114.035156 91.195312 C 114.289062 91.078125 114.550781 90.972656 114.808594 90.867188 L 114.808594 38.890625 L 92.859375 38.890625 C 92.582031 39.148438 92.3125 39.40625 92.039062 39.660156 L 114.035156 39.660156 Z M 174.980469 103.210938 C 175.1875 103.464844 175.390625 103.722656 175.582031 103.984375 L 193.121094 103.984375 L 193.121094 14.761719 L 133.257812 14.761719 L 133.257812 88.679688 C 133.519531 88.726562 133.773438 88.785156 134.03125 88.84375 L 134.03125 15.53125 L 192.347656 15.53125 L 192.347656 103.210938 Z M 130.945312 88.335938 L 130.945312 12.449219 L 195.433594 12.449219 L 195.433594 106.292969 L 177.089844 106.292969 C 177.234375 106.550781 177.378906 106.804688 177.511719 107.066406 L 196.203125 107.066406 L 196.203125 11.679688 L 132.039062 11.679688 C 131.414062 11.980469 130.792969 12.28125 130.175781 12.59375 L 130.175781 88.265625 C 130.332031 88.277344 130.488281 88.28125 130.648438 88.296875 C 130.75 88.308594 130.84375 88.324219 130.945312 88.335938 Z M 117.144531 89.953125 C 117.402344 89.863281 117.660156 89.777344 117.917969 89.695312 L 117.917969 35.808594 L 96.265625 35.808594 C 95.976562 36.066406 95.695312 36.324219 95.410156 36.578125 L 117.144531 36.578125 Z M 72.53125 131.195312 L 51.886719 131.195312 L 51.886719 90.628906 C 52.144531 90.1875 52.398438 89.746094 52.65625 89.308594 L 52.65625 130.421875 L 72.496094 130.421875 C 72.503906 130.679688 72.515625 130.933594 72.53125 131.195312 "/>
<g clip-path="url(#clip2)" clip-rule="nonzero">
<path style=" stroke:none;fill-rule:nonzero;fill:rgb(35.688782%,33.729553%,33.729553%);fill-opacity:1;" d="M 133.355469 319.523438 C 133.035156 319.207031 132.722656 318.886719 132.441406 318.539062 C 132.152344 318.199219 131.898438 317.835938 131.644531 317.464844 C 131.394531 317.085938 131.175781 316.691406 130.945312 316.277344 C 130.917969 316.226562 130.859375 316.195312 130.796875 316.203125 C 130.714844 316.210938 130.65625 316.285156 130.664062 316.367188 C 130.71875 316.851562 130.871094 317.324219 131.070312 317.773438 C 131.15625 317.964844 131.257812 318.148438 131.367188 318.328125 C 131.320312 318.367188 131.273438 318.398438 131.234375 318.4375 C 131.082031 318.597656 130.976562 318.796875 130.90625 319 C 130.84375 319.207031 130.804688 319.417969 130.832031 319.636719 C 130.847656 319.847656 130.898438 320.058594 131.023438 320.242188 C 131.042969 320.269531 131.070312 320.289062 131.105469 320.300781 C 131.1875 320.332031 131.28125 320.289062 131.3125 320.203125 L 131.316406 320.191406 C 131.382812 320.011719 131.425781 319.851562 131.476562 319.695312 C 131.535156 319.542969 131.578125 319.394531 131.636719 319.25 C 131.675781 319.136719 131.71875 319.027344 131.765625 318.914062 C 131.792969 318.949219 131.816406 318.992188 131.847656 319.027344 C 132.160156 319.410156 132.515625 319.757812 132.917969 320.046875 C 133.316406 320.335938 133.746094 320.582031 134.214844 320.730469 C 134.28125 320.753906 134.359375 320.730469 134.410156 320.675781 C 134.46875 320.597656 134.460938 320.488281 134.382812 320.425781 C 134.027344 320.125 133.675781 319.835938 133.355469 319.523438 Z M 142.253906 307.246094 C 142.988281 308.039062 143.667969 308.882812 144.335938 309.734375 C 145 310.589844 145.632812 311.472656 146.261719 312.367188 C 146.300781 312.421875 146.378906 312.445312 146.445312 312.414062 C 146.519531 312.378906 146.550781 312.289062 146.515625 312.21875 C 146.046875 311.21875 145.480469 310.269531 144.863281 309.351562 C 144.246094 308.433594 143.546875 307.574219 142.828125 306.734375 C 142.082031 305.917969 141.304688 305.128906 140.46875 304.40625 C 139.628906 303.683594 138.75 303.007812 137.8125 302.425781 C 137.742188 302.378906 137.648438 302.390625 137.589844 302.457031 C 137.527344 302.53125 137.53125 302.640625 137.605469 302.707031 C 138.421875 303.425781 139.230469 304.148438 140.007812 304.910156 C 140.785156 305.660156 141.542969 306.429688 142.253906 307.246094 Z M 130.195312 318.941406 C 130.160156 318.839844 130.121094 318.734375 130.058594 318.640625 C 130.003906 318.539062 129.9375 318.4375 129.832031 318.339844 L 129.820312 318.332031 C 129.808594 318.320312 129.792969 318.308594 129.777344 318.300781 C 129.671875 318.246094 129.539062 318.289062 129.488281 318.394531 C 129.414062 318.53125 129.398438 318.671875 129.398438 318.800781 C 129.394531 318.9375 129.425781 319.066406 129.46875 319.195312 C 129.519531 319.3125 129.574219 319.433594 129.667969 319.535156 C 129.753906 319.640625 129.855469 319.730469 130 319.796875 C 130.011719 319.800781 130.027344 319.808594 130.042969 319.808594 C 130.140625 319.824219 130.238281 319.757812 130.253906 319.660156 L 130.253906 319.652344 C 130.28125 319.507812 130.273438 319.386719 130.261719 319.269531 C 130.257812 319.152344 130.226562 319.046875 130.195312 318.941406 Z M 57.199219 302.273438 C 55.039062 301.882812 52.84375 301.691406 50.640625 301.660156 C 48.441406 301.632812 46.238281 301.792969 44.058594 302.089844 C 41.878906 302.417969 39.71875 302.871094 37.613281 303.511719 C 35.507812 304.148438 33.453125 304.945312 31.488281 305.917969 C 31.421875 305.953125 31.386719 306.035156 31.414062 306.105469 C 31.445312 306.179688 31.53125 306.21875 31.605469 306.1875 C 33.632812 305.390625 35.695312 304.695312 37.792969 304.136719 C 39.890625 303.582031 42.015625 303.128906 44.164062 302.851562 C 46.308594 302.535156 48.476562 302.378906 50.644531 302.34375 C 52.8125 302.304688 54.984375 302.40625 57.152344 302.617188 C 57.242188 302.628906 57.328125 302.5625 57.339844 302.472656 C 57.359375 302.378906 57.296875 302.289062 57.199219 302.273438 Z M 110.527344 320.074219 C 109.210938 319.316406 108.40625 317.699219 108.597656 316.097656 C 108.605469 316.015625 108.558594 315.933594 108.476562 315.90625 C 108.382812 315.878906 108.285156 315.929688 108.257812 316.023438 C 107.824219 317.351562 108.230469 318.886719 109.191406 319.949219 C 108.667969 319.867188 108.152344 319.726562 107.671875 319.515625 C 106.84375 319.15625 106.085938 318.574219 105.71875 317.726562 C 105.691406 317.664062 105.625 317.625 105.554688 317.640625 C 105.476562 317.65625 105.421875 317.734375 105.4375 317.816406 C 105.53125 318.320312 105.808594 318.789062 106.152344 319.179688 C 106.503906 319.5625 106.925781 319.871094 107.375 320.117188 C 108.285156 320.597656 109.3125 320.835938 110.355469 320.789062 C 110.480469 320.78125 110.605469 320.710938 110.671875 320.597656 C 110.777344 320.410156 110.710938 320.179688 110.527344 320.074219 Z M 171.40625 202.558594 C 171.035156 202.78125 170.679688 203.003906 170.3125 203.203125 C 169.941406 203.398438 169.578125 203.59375 169.203125 203.761719 C 168.828125 203.9375 168.441406 204.082031 168.054688 204.230469 C 167.664062 204.375 167.261719 204.496094 166.851562 204.632812 C 166.785156 204.652344 166.734375 204.710938 166.730469 204.785156 C 166.71875 204.878906 166.792969 204.96875 166.886719 204.976562 C 167.339844 205.023438 167.792969 204.976562 168.238281 204.886719 C 168.679688 204.800781 169.113281 204.648438 169.523438 204.460938 C 169.933594 204.265625 170.324219 204.03125 170.679688 203.746094 C 171.027344 203.464844 171.351562 203.144531 171.609375 202.769531 C 171.640625 202.726562 171.644531 202.660156 171.613281 202.609375 C 171.570312 202.539062 171.476562 202.515625 171.40625 202.558594 Z M 147.640625 171.46875 C 147.367188 171.457031 147.09375 171.464844 146.820312 171.464844 C 146.550781 171.472656 146.277344 171.46875 146 171.484375 C 145.722656 171.496094 145.445312 171.5 145.152344 171.539062 C 145.105469 171.546875 145.0625 171.578125 145.035156 171.621094 C 144.996094 171.695312 145.023438 171.789062 145.097656 171.828125 C 145.363281 171.980469 145.648438 172.066406 145.9375 172.132812 C 146.226562 172.203125 146.523438 172.226562 146.820312 172.230469 C 147.117188 172.230469 147.417969 172.214844 147.707031 172.148438 C 147.996094 172.085938 148.285156 172.003906 148.550781 171.855469 C 148.601562 171.828125 148.640625 171.777344 148.644531 171.71875 C 148.65625 171.617188 148.585938 171.523438 148.484375 171.511719 C 148.195312 171.476562 147.917969 171.476562 147.640625 171.46875 Z M 148.398438 165.179688 L 143.957031 164.914062 L 140.335938 164.648438 C 141.136719 165.574219 142.167969 166.328125 143.261719 166.925781 C 143.933594 167.289062 144.640625 167.597656 145.367188 167.839844 C 146.078125 168.078125 146.882812 168.242188 147.570312 168.296875 L 147.621094 168.300781 C 148.890625 167.726562 150.113281 166.859375 151.09375 165.84375 C 151.214844 165.722656 151.359375 165.570312 151.445312 165.460938 C 151.480469 165.417969 151.496094 165.382812 151.503906 165.363281 C 151.472656 165.347656 151.339844 165.324219 151.171875 165.324219 L 150.617188 165.296875 C 149.878906 165.261719 149.136719 165.222656 148.398438 165.179688 Z M 144.007812 164.148438 L 148.445312 164.472656 C 149.183594 164.523438 149.921875 164.585938 150.660156 164.652344 L 151.214844 164.699219 C 151.382812 164.730469 151.632812 164.6875 151.925781 164.921875 C 152.074219 165.050781 152.136719 165.28125 152.09375 165.457031 C 152.054688 165.625 151.976562 165.730469 151.90625 165.824219 C 151.75 165.992188 151.632812 166.105469 151.488281 166.242188 C 150.378906 167.300781 149.09375 168.078125 147.628906 168.613281 L 147.570312 168.632812 C 146.71875 168.617188 146 168.480469 145.234375 168.273438 C 144.46875 168.0625 143.722656 167.777344 143.007812 167.425781 C 142.292969 167.070312 141.605469 166.65625 140.96875 166.164062 C 140.328125 165.675781 139.730469 165.113281 139.253906 164.433594 C 139.136719 164.277344 139.179688 164.054688 139.335938 163.941406 C 139.40625 163.894531 139.484375 163.871094 139.5625 163.878906 L 139.574219 163.878906 Z M 151.898438 160.585938 C 152.394531 160.691406 152.925781 160.558594 153.367188 160.316406 C 153.804688 160.0625 154.171875 159.691406 154.433594 159.253906 C 154.960938 158.367188 155.015625 157.339844 154.960938 156.40625 C 154.886719 155.46875 154.722656 154.542969 154.429688 153.65625 C 154.144531 152.769531 153.761719 151.910156 153.261719 151.132812 C 153.222656 151.078125 153.148438 151.050781 153.082031 151.078125 C 153.003906 151.105469 152.96875 151.191406 153 151.265625 C 153.324219 152.113281 153.605469 152.960938 153.800781 153.832031 C 154 154.695312 154.140625 155.574219 154.191406 156.453125 C 154.25 157.328125 154.191406 158.195312 153.835938 158.925781 C 153.484375 159.632812 152.765625 160.234375 151.933594 160.238281 C 151.855469 160.238281 151.777344 160.296875 151.761719 160.378906 C 151.742188 160.472656 151.800781 160.566406 151.898438 160.585938 Z M 134.242188 138.414062 C 135.34375 138.042969 136.464844 137.761719 137.605469 137.605469 C 138.742188 137.445312 139.894531 137.378906 141.039062 137.457031 C 142.183594 137.5 143.324219 137.6875 144.4375 137.964844 C 145.550781 138.238281 146.636719 138.636719 147.695312 139.113281 C 147.773438 139.152344 147.867188 139.125 147.914062 139.050781 C 147.96875 138.972656 147.945312 138.863281 147.867188 138.808594 C 146.867188 138.15625 145.765625 137.660156 144.621094 137.308594 C 143.472656 136.953125 142.277344 136.765625 141.078125 136.6875 C 139.875 136.648438 138.667969 136.71875 137.496094 136.964844 C 136.320312 137.207031 135.175781 137.589844 134.125 138.140625 C 134.058594 138.175781 134.03125 138.25 134.050781 138.320312 C 134.078125 138.398438 134.164062 138.441406 134.242188 138.414062 Z M 158.160156 140.675781 C 158.730469 140.203125 159.328125 139.792969 159.96875 139.457031 C 160.609375 139.128906 161.277344 138.863281 161.96875 138.679688 C 162.660156 138.492188 163.371094 138.386719 164.085938 138.351562 C 164.808594 138.3125 165.53125 138.371094 166.253906 138.488281 C 166.335938 138.5 166.414062 138.460938 166.449219 138.382812 C 166.488281 138.296875 166.445312 138.191406 166.355469 138.15625 C 165.644531 137.851562 164.867188 137.699219 164.085938 137.667969 C 163.308594 137.628906 162.519531 137.734375 161.765625 137.9375 C 161.015625 138.152344 160.285156 138.464844 159.636719 138.898438 C 158.988281 139.324219 158.398438 139.851562 157.945312 140.476562 C 157.90625 140.527344 157.90625 140.605469 157.949219 140.65625 C 158 140.722656 158.097656 140.726562 158.160156 140.675781 Z M 371.195312 173.320312 L 209.777344 173.320312 C 208.132812 173.320312 206.726562 174.496094 206.433594 176.113281 L 184.496094 298.070312 C 184.117188 300.152344 185.71875 302.066406 187.835938 302.066406 L 273.949219 302.066406 L 276.414062 312.902344 C 276.738281 314.296875 277.078125 315.683594 277.40625 317.074219 L 236.945312 317.074219 L 222.273438 325.199219 L 279.335938 325.199219 C 279.339844 325.210938 279.34375 325.222656 279.34375 325.238281 C 279.367188 325.328125 279.457031 325.382812 279.550781 325.367188 C 279.644531 325.347656 279.703125 325.253906 279.6875 325.160156 C 278.84375 321.019531 277.976562 316.886719 277.078125 312.757812 L 274.355469 300.382812 L 271.535156 288.027344 C 270.582031 283.921875 269.601562 279.824219 268.601562 275.734375 L 293.335938 275.734375 C 293.335938 275.742188 293.332031 275.75 293.332031 275.761719 C 294.171875 279.902344 295.035156 284.042969 295.925781 288.171875 L 298.632812 300.546875 L 301.445312 312.902344 C 302.394531 317.019531 303.371094 321.132812 304.371094 325.238281 C 304.394531 325.328125 304.484375 325.382812 304.578125 325.367188 C 304.65625 325.351562 304.703125 325.277344 304.707031 325.199219 L 325.347656 325.199219 L 311.0625 317.074219 L 303.015625 317.074219 C 302.710938 315.636719 302.417969 314.195312 302.109375 312.757812 L 299.757812 302.066406 L 349.253906 302.066406 C 350.894531 302.066406 352.304688 300.886719 352.59375 299.273438 L 374.535156 177.3125 C 374.910156 175.234375 373.308594 173.320312 371.195312 173.320312 Z M 173.34375 204.976562 C 175.484375 209.144531 177.515625 213.378906 180.3125 216.808594 C 184.222656 221.605469 188.355469 226.222656 192.699219 230.636719 L 193.652344 225.332031 C 188.425781 220.375 183.410156 215.273438 180.289062 211.25 C 178.5 208.945312 176.074219 206.851562 173.34375 204.976562 Z M 152.054688 265.289062 C 152.054688 265.222656 152.015625 265.164062 151.953125 265.144531 C 151.875 265.117188 151.789062 265.160156 151.765625 265.238281 L 151.222656 266.902344 C 151.03125 267.449219 150.847656 268 150.636719 268.535156 C 150.433594 269.074219 150.210938 269.605469 149.992188 270.140625 L 149.292969 271.746094 C 149.265625 271.816406 149.28125 271.898438 149.34375 271.949219 C 149.417969 272.011719 149.527344 272.003906 149.589844 271.929688 C 149.984375 271.472656 150.308594 270.964844 150.605469 270.441406 C 150.902344 269.917969 151.144531 269.367188 151.355469 268.804688 C 151.5625 268.238281 151.738281 267.664062 151.851562 267.070312 C 151.972656 266.484375 152.050781 265.890625 152.054688 265.289062 Z M 88.703125 223.3125 C 88.773438 219.054688 87.902344 214.761719 85.992188 210.945312 C 85.03125 209.042969 83.8125 207.261719 82.324219 205.730469 C 80.828125 204.214844 79.058594 202.957031 77.117188 202.101562 C 77.046875 202.066406 76.957031 202.097656 76.925781 202.167969 C 76.886719 202.242188 76.917969 202.328125 76.992188 202.363281 C 80.769531 204.195312 83.628906 207.507812 85.40625 211.230469 C 87.191406 214.972656 88.042969 219.152344 87.933594 223.292969 C 87.851562 227.457031 86.9375 231.566406 85.667969 235.546875 C 84.398438 239.535156 82.773438 243.410156 81.152344 247.289062 C 81.113281 247.371094 81.152344 247.476562 81.242188 247.515625 C 81.328125 247.554688 81.429688 247.515625 81.46875 247.425781 C 83.242188 243.613281 84.976562 239.769531 86.316406 235.757812 C 87.660156 231.757812 88.589844 227.570312 88.703125 223.3125 Z M 79.613281 253.859375 C 79.539062 253.816406 79.449219 253.835938 79.40625 253.90625 C 78.894531 254.757812 78.425781 255.628906 77.960938 256.5 C 77.496094 257.371094 77.074219 258.265625 76.625 259.144531 C 76.207031 260.042969 75.777344 260.933594 75.375 261.835938 C 74.980469 262.742188 74.585938 263.648438 74.242188 264.578125 C 74.214844 264.65625 74.242188 264.746094 74.316406 264.789062 C 74.398438 264.839844 74.507812 264.8125 74.558594 264.730469 C 75.070312 263.878906 75.53125 263.007812 75.992188 262.128906 C 76.449219 261.253906 76.875 260.363281 77.316406 259.480469 C 77.726562 258.578125 78.15625 257.691406 78.546875 256.78125 C 78.941406 255.878906 79.332031 254.964844 79.671875 254.035156 C 79.695312 253.96875 79.671875 253.894531 79.613281 253.859375 Z M 185.039062 267.996094 L 181.816406 270.714844 C 178.171875 281.90625 169.070312 299.707031 169.070312 299.707031 L 169.070312 318.863281 L 151.078125 318.863281 L 146.113281 306.546875 C 149.035156 306.730469 151.308594 305.117188 149.503906 303.457031 C 148.398438 302.445312 146.074219 301.824219 144.0625 301.457031 L 135.917969 281.238281 C 137.113281 279.503906 138.226562 277.710938 139.230469 275.859375 C 140.78125 272.996094 142.085938 270.007812 143.179688 266.9375 C 144.238281 263.859375 145.09375 260.707031 145.667969 257.503906 C 146.246094 254.304688 146.5625 251.054688 146.597656 247.808594 C 146.597656 247.730469 146.535156 247.664062 146.457031 247.660156 C 146.378906 247.65625 146.308594 247.714844 146.300781 247.800781 C 146.097656 251.023438 145.667969 254.226562 145.027344 257.382812 C 144.382812 260.539062 143.539062 263.652344 142.453125 266.683594 C 141.398438 269.722656 140.101562 272.679688 138.625 275.539062 C 137.71875 277.289062 136.734375 278.996094 135.691406 280.664062 L 131.554688 270.398438 C 131.15625 269.394531 130.019531 268.90625 129.015625 269.300781 C 128.015625 269.699219 127.523438 270.832031 127.921875 271.835938 L 138.328125 297.675781 C 137.800781 297.277344 137.21875 296.960938 136.585938 296.753906 L 126.027344 293.296875 C 123.78125 292.5625 121.3125 293.199219 119.703125 294.929688 L 119.402344 295.253906 C 119.402344 295.253906 119.40625 295.253906 119.40625 295.253906 C 119.460938 295.308594 119.460938 295.394531 119.417969 295.449219 C 118.511719 296.628906 117.535156 297.75 116.535156 298.847656 C 115.535156 299.945312 114.496094 301.003906 113.460938 302.066406 C 112.402344 303.101562 111.351562 304.148438 110.269531 305.15625 C 109.183594 306.167969 108.09375 307.171875 106.96875 308.136719 C 106.890625 308.199219 106.78125 308.191406 106.71875 308.121094 C 106.664062 308.050781 106.664062 307.949219 106.722656 307.886719 C 107.71875 306.789062 108.757812 305.730469 109.792969 304.671875 L 110.636719 303.820312 L 83.898438 303.039062 L 74.375 265.203125 L 63.199219 286.96875 L 61.933594 284 C 56.898438 272.222656 46.207031 263.820312 33.566406 261.695312 C 33.566406 261.695312 32.824219 263.425781 31.644531 266.230469 C 29.894531 262.980469 28.566406 259.414062 27.90625 255.496094 C 27.90625 255.496094 43.335938 210.539062 64.414062 197.335938 C 68.875 195.140625 72.207031 195.167969 76.535156 195.574219 C 80.589844 195.957031 84.5625 196.84375 88.558594 197.605469 C 92.367188 198.328125 96.460938 198.585938 100.003906 197.0625 L 132.960938 236.964844 C 129.648438 237.304688 127.066406 240.097656 127.066406 243.496094 C 127.066406 247.121094 130.007812 250.0625 133.636719 250.0625 C 137.269531 250.0625 140.207031 247.121094 140.207031 243.496094 C 140.207031 240.039062 137.53125 237.214844 134.132812 236.957031 C 135.234375 233.980469 142.683594 212.871094 140.1875 192.519531 C 142.335938 192.640625 144.414062 192.902344 146.285156 193.371094 L 146.28125 193.367188 C 146.28125 193.367188 149.789062 194.25 154.648438 195.960938 C 154.269531 197.027344 154.019531 198.089844 153.972656 199.101562 C 153.96875 199.160156 153.964844 199.214844 153.964844 199.269531 C 153.960938 199.492188 153.960938 199.714844 153.976562 199.929688 C 153.980469 199.96875 153.988281 200.007812 153.988281 200.046875 C 154.007812 200.242188 154.039062 200.4375 154.074219 200.628906 C 154.082031 200.664062 154.089844 200.707031 154.097656 200.746094 C 154.144531 200.953125 154.203125 201.15625 154.277344 201.355469 C 154.289062 201.402344 154.308594 201.445312 154.328125 201.488281 C 154.40625 201.695312 154.496094 201.894531 154.605469 202.089844 C 154.605469 202.089844 154.597656 202.089844 154.59375 202.089844 C 160.9375 216.238281 167.28125 230.386719 173.628906 244.539062 C 174.300781 246.042969 174.980469 247.546875 175.660156 249.050781 C 175.777344 249.308594 175.894531 249.570312 176.015625 249.828125 C 176.695312 251.328125 177.386719 252.824219 178.085938 254.320312 C 178.207031 254.578125 178.328125 254.832031 178.445312 255.089844 C 179.160156 256.601562 179.886719 258.109375 180.628906 259.609375 C 180.707031 259.773438 180.792969 259.9375 180.875 260.101562 C 181.566406 261.492188 182.277344 262.875 183 264.246094 C 183.664062 265.503906 184.339844 266.753906 185.039062 267.996094 Z M 135.917969 281.238281 L 135.875 281.128906 Z M 110.367188 177.773438 C 109.445312 177.421875 108.925781 177.203125 108.925781 177.203125 C 108.925781 177.222656 108.925781 177.238281 108.925781 177.253906 C 108.945312 177.859375 108.957031 178.460938 108.957031 179.0625 C 108.957031 179.175781 108.953125 179.285156 108.949219 179.398438 C 108.945312 179.910156 108.941406 180.417969 108.914062 180.925781 C 108.90625 181.179688 108.878906 181.433594 108.863281 181.683594 C 108.839844 182.050781 108.820312 182.417969 108.785156 182.785156 C 108.71875 183.40625 108.636719 184.027344 108.535156 184.644531 C 108.441406 185.207031 108.316406 185.773438 108.175781 186.335938 C 108.6875 185.503906 109.109375 184.617188 109.417969 183.6875 C 110.046875 181.785156 110.285156 179.792969 110.367188 177.773438 Z M 139.414062 192.539062 C 139.414062 192.519531 139.417969 192.5 139.417969 192.480469 C 138.71875 192.453125 138.007812 192.433594 137.296875 192.433594 C 137.214844 191.570312 137.214844 191.039062 137.214844 191.039062 C 137.214844 191.039062 140.46875 188.511719 140.46875 186.46875 C 140.46875 184.433594 137.585938 184.292969 137.585938 184.292969 C 127.445312 183.824219 115.824219 179.832031 111.097656 178.050781 C 110.996094 180.03125 110.730469 182.003906 110.0625 183.910156 C 109.523438 185.414062 108.714844 186.816406 107.667969 188.023438 C 107.667969 188.023438 107.667969 188.027344 107.664062 188.03125 C 107.507812 188.484375 107.335938 188.933594 107.148438 189.375 C 107.136719 189.402344 107.125 189.425781 107.113281 189.449219 C 106.933594 189.867188 106.742188 190.277344 106.53125 190.671875 C 106.519531 190.699219 106.507812 190.726562 106.492188 190.75 C 106.285156 191.140625 106.066406 191.511719 105.835938 191.882812 C 105.78125 191.96875 105.726562 192.046875 105.671875 192.132812 C 105.464844 192.453125 105.242188 192.761719 105.015625 193.0625 C 104.964844 193.125 104.921875 193.1875 104.875 193.246094 C 104.640625 193.539062 104.398438 193.820312 104.140625 194.09375 C 104.042969 194.203125 103.9375 194.308594 103.832031 194.414062 C 103.582031 194.671875 103.320312 194.921875 103.042969 195.15625 C 102.929688 195.253906 102.8125 195.339844 102.699219 195.429688 C 102.484375 195.605469 102.261719 195.769531 102.035156 195.929688 C 101.898438 196.019531 101.765625 196.113281 101.621094 196.203125 C 101.332031 196.386719 101.03125 196.5625 100.71875 196.722656 L 133.507812 236.421875 C 134.886719 232.636719 141.851562 212.199219 139.414062 192.539062 Z M 141.585938 147.386719 C 141.957031 146.136719 141.640625 144.9375 140.878906 144.714844 C 140.121094 144.488281 139.203125 145.324219 138.835938 146.578125 C 138.46875 147.828125 138.78125 149.023438 139.546875 149.25 C 140.304688 149.472656 141.21875 148.640625 141.585938 147.386719 Z M 160.582031 144.714844 C 159.820312 144.488281 158.90625 145.324219 158.539062 146.578125 C 158.167969 147.828125 158.488281 149.023438 159.246094 149.25 C 160.003906 149.472656 160.921875 148.640625 161.292969 147.386719 C 161.660156 146.136719 161.34375 144.9375 160.582031 144.714844 Z M 174.355469 136.089844 C 174.265625 136.421875 174.195312 136.753906 174.148438 137.097656 C 173.921875 138.671875 174.46875 140.273438 175.496094 141.339844 Z M 160.160156 167.542969 L 160.894531 170.933594 C 161.761719 168.742188 162.703125 166.578125 163.722656 164.449219 C 166.914062 164.886719 170.109375 165.195312 173.292969 164.675781 C 174.214844 166.203125 172.902344 168.417969 171.507812 169.53125 C 170.113281 170.636719 168.28125 171.011719 166.53125 171.351562 C 166.792969 172.089844 167.019531 172.835938 167.242188 173.585938 C 167.085938 173.300781 166.925781 173.019531 166.753906 172.746094 C 166.714844 172.683594 166.632812 172.660156 166.566406 172.691406 C 166.492188 172.726562 166.457031 172.8125 166.492188 172.886719 C 167.113281 174.210938 167.625 175.582031 167.988281 176.984375 C 168.347656 178.390625 168.597656 179.820312 168.675781 181.265625 C 168.785156 182.710938 168.730469 184.160156 168.546875 185.601562 C 168.375 187.039062 168.046875 188.457031 167.605469 189.851562 C 167.578125 189.9375 167.617188 190.027344 167.699219 190.0625 C 167.785156 190.105469 167.890625 190.066406 167.929688 189.976562 C 168.554688 188.625 168.972656 187.171875 169.222656 185.699219 C 169.417969 184.546875 169.492188 183.375 169.476562 182.207031 L 179.492188 178.523438 C 179.097656 179.023438 178.726562 179.542969 178.410156 180.09375 C 178.011719 180.789062 177.660156 181.511719 177.410156 182.269531 C 177.386719 182.347656 177.417969 182.429688 177.484375 182.476562 C 177.570312 182.523438 177.679688 182.5 177.730469 182.414062 C 178.136719 181.746094 178.542969 181.089844 178.984375 180.460938 C 179.433594 179.832031 179.890625 179.210938 180.382812 178.625 C 180.5625 178.40625 180.75 178.199219 180.933594 177.992188 L 183.257812 177.136719 L 182.992188 175.90625 C 183.207031 175.710938 183.421875 175.515625 183.640625 175.320312 C 183.6875 175.277344 183.703125 175.203125 183.671875 175.140625 C 183.632812 175.066406 183.542969 175.039062 183.472656 175.078125 C 183.269531 175.1875 183.082031 175.316406 182.890625 175.4375 L 182.746094 174.773438 C 182.386719 174.988281 182.070312 175.15625 181.847656 175.246094 C 179.503906 176.195312 176.722656 175.988281 174.546875 174.703125 C 173.417969 174.035156 172.363281 172.75 172.839844 171.53125 C 173.269531 170.445312 174.617188 170.117188 175.773438 169.9375 C 177.554688 169.667969 179.332031 169.394531 181.113281 169.121094 C 181.242188 169.113281 181.375 169.109375 181.503906 169.09375 C 182.136719 169.03125 182.769531 168.945312 183.394531 168.796875 C 183.464844 168.78125 183.523438 168.71875 183.527344 168.636719 C 183.53125 168.539062 183.457031 168.457031 183.359375 168.453125 C 182.726562 168.417969 182.101562 168.417969 181.472656 168.414062 L 181.367188 168.414062 L 181.011719 166.769531 C 180.777344 166.769531 180.566406 166.757812 180.394531 166.726562 C 177.609375 166.246094 174.960938 165.011719 172.8125 163.179688 C 172.054688 162.539062 171.335938 161.792969 171.019531 160.855469 C 170.703125 159.917969 170.890625 158.75 171.679688 158.15625 C 174.179688 158.730469 176.644531 159.449219 179.074219 160.28125 C 178.820312 160.160156 178.578125 160.011719 178.335938 159.871094 L 180.628906 161.089844 C 180.6875 161.125 180.769531 161.109375 180.8125 161.050781 C 180.863281 160.988281 180.851562 160.894531 180.789062 160.847656 C 180.039062 160.246094 179.246094 159.703125 178.4375 159.179688 C 177.628906 158.65625 176.796875 158.179688 175.953125 157.722656 C 175.636719 157.558594 175.316406 157.398438 175 157.238281 C 173.574219 155.800781 172.3125 154.144531 171.109375 152.519531 C 170.339844 151.480469 169.570312 150.003906 170.398438 149.011719 C 170.875 148.429688 171.75 148.3125 172.472656 148.523438 C 173.195312 148.730469 173.804688 149.207031 174.394531 149.675781 C 175.402344 150.476562 176.609375 151.265625 177.824219 152.085938 L 176.089844 144.082031 C 174.050781 144.773438 171.632812 144.507812 169.734375 143.417969 C 168.203125 142.542969 166.996094 141.230469 166.082031 139.71875 C 165.964844 149.261719 163.953125 158.785156 160.160156 167.542969 Z M 142.910156 317.28125 L 142.523438 317.308594 C 142.085938 317.339844 141.679688 317.507812 141.339844 317.765625 C 141.042969 317.261719 140.730469 316.769531 140.398438 316.289062 C 139.953125 315.640625 139.46875 315.023438 138.976562 314.414062 C 138.472656 313.8125 137.953125 313.222656 137.402344 312.667969 C 136.855469 312.105469 136.289062 311.5625 135.679688 311.066406 C 135.617188 311.015625 135.527344 311.011719 135.460938 311.0625 C 135.386719 311.121094 135.371094 311.230469 135.429688 311.304688 C 135.902344 311.929688 136.402344 312.523438 136.898438 313.121094 L 138.382812 314.90625 L 139.878906 316.683594 C 140.261719 317.132812 140.648438 317.582031 141.035156 318.027344 C 140.90625 318.171875 140.792969 318.328125 140.703125 318.511719 L 140.519531 318.863281 L 146.867188 318.863281 L 145.65625 315.867188 C 145.011719 316.660156 144.046875 317.207031 142.910156 317.28125 Z M 63.199219 286.972656 L 63.199219 286.96875 Z M 63.199219 286.972656 "/>
</g>
</g>
</svg>
