<svg width="16" height="15" fill="none" xmlns="http://www.w3.org/2000/svg"><path d="M13.742 6.194a1.926 1.926 0 00-.665-.49 2.017 2.017 0 00-.819-.174H9.316l.361-.879c.15-.384.2-.798.146-1.205a2.468 2.468 0 00-.458-1.132 2.63 2.63 0 00-.959-.8 2.773 2.773 0 00-1.238-.285.669.669 0 00-.35.099.624.624 0 00-.237.264L4.74 5.53H3.227c-.514 0-1.006.194-1.369.54a1.8 1.8 0 00-.567 1.303v4.301c0 .49.204.958.567 1.304.363.346.855.54 1.369.54h8.213c.453 0 .89-.152 1.239-.428.347-.276.582-.66.664-1.084l.82-4.3c.05-.267.039-.54-.034-.801a1.814 1.814 0 00-.386-.711zm-9.226 6.095h-1.29a.662.662 0 01-.456-.18.6.6 0 01-.19-.434V7.373a.6.6 0 01.19-.434.662.662 0 01.456-.18h1.29v5.53zm8.387-4.805l-.82 4.301a.609.609 0 01-.225.365.665.665 0 01-.42.139H5.807V6.274l1.755-3.76c.18.05.349.135.493.25.144.115.262.257.346.417a1.248 1.248 0 01.052 1.04L8.11 5.1a1.174 1.174 0 00.148 1.13c.118.163.276.296.46.388.185.092.39.14.598.141h2.942c.095 0 .189.02.274.058a.642.642 0 01.356.4c.026.086.031.178.015.267z" fill="#6FD181"/></svg>
