<svg width="1060" height="539" fill="none" xmlns="http://www.w3.org/2000/svg"><path opacity=".5" d="M274 0l-1 1h-8l-3 1c-2 0-3 2-4 5l-5 1c-4-1-5 0-5 1l-3 1-5 1-5 1h-4l4 1c2 0 4 1 3 2l3 2c2 2 3 2 4 1l4-1c5 3 11 3 17 0l8-2c2 2-2 4-10 7-5 2-8 2-10 1s-6 0-6 1c0 2 9 6 11 6 3-1 4 1 2 2-3 2-15 0-15-2l-2-3c-1-1-2-2-1-3l-1-2c-1 1-5-1-7-2-4-2-5-3-7-2s-2 1 0 2c1 1 1 1-3 2l-3 1c-2 2 1 5 6 5l4 1c2 1 1 1-2 2-3 0-4 1-2 2 1 0 2 1 1 2l4 1 7-2c2-2 3-2 4-1l5 3 4 3c0 2-4 2-6 0v-2l2 1 2 1c2 0 2 0 0-2h-6c-3 1-3 1-1 2 2 2 1 4-1 4v-1l1-2c-2 0-5 2-4 3l11 1 11 1h6c4-2 6-4 2-3-3 1-9-1-8-3h4c1 0 4 0 6-2l6-2 2-3h-6c-1-2 2-4 5-4l2-1c-1-2 1-2 5-1h5c1-1 5-4 11-6l8-5h-5c2 1 1 2-2 2-3 2-6 1-3-1l7-3 12-5-3-3-7-1c-4 1-8 1-6-1 1-2-6-2-13-2h-11l-4-1h-1zm114 0c-3 0-5 1-5 2 1 2-3 2-7 0h-10c-2-2-5-1-5 1 0 3 2 3 3 0 0-1 1-1 3 1s3 3 2 4l-13 1c-4-1-8 0-8 1 1 3-1 3-3 1s-3-2-3 0l-7 1c-7 0-15 2-13 4 1 1-2 4-4 3l-2 1h-2c-2 0-11 4-10 5h5c5-2 6 0 2 4-1 2-3 3-6 3l-4 2h-1c-2-1-10 2-10 3l10 2 5 1c1 2 0 2-7 3-4 1-5 1-2 2 2 0 3 1 2 2 0 1 4 2 7 1l12-1 10-1 3 3 4 5 3 4 2 3c2 2 2 3 2 6-1 3 1 4 2 0 1-2 1-2 3-1 4 4 3 7-3 9h2c2 0 4 1 5 3 2 2 2 2 0 4s-2 2 0 3c2 2 2 2-1 3l-4 2h2c3-2 5 0 2 3l-1 2-1 1-1 3 1 2h1c2-2 4-1 2 2l2 6c5 6 8 9 12 9l4 1v3c0 1 7-4 7-6v-4l1-3 2-3c0-2 10-11 12-11h4c4-2 6-4 6-7l1-1 4-2c2-2 4-3 10-2l11-2 8-3 4-1h-4l-7-1c-3 1-5-1-2-2l2-3c-1-1 0-2 3-2 2 0 3 0 4 2 1 3 4 3 4 0 0-2-7-6-10-5s-5 0-3-2c1-2 0-2-2-3-3-2-1-4 3-3 2 1 3 0 3-1 0-3 4-3 8 0l5 3c2 0 2-1 0-2-4-2-3-4 2-4 4 0 4 0 1-2l-1-2h-2c-5-1-5-3 0-4l4-1h-4l-5-1c-1-2 4-4 8-3 3 1 4 1 3-1h-2c-1 1-5-2-4-4l-1-2c-1-1 0-2 2-3 2 0 3-2 3-2l2-3c2-1 2-2-1-1-4 1-5 0-3-2l6-2c4 0 6 0 5-1 0-1 1-2 3-2l6-2 3-1-5-1h-7c-3 2-8 2-10 1l-5 1c-3 1-6 1-4-2l-8-1-16 4c-5 2-9 3-10 2-3-1-1-2 9-6l16-3 10-2 4-2-7 1c-7 1-10-1-6-3 2-1-9-1-22 1l-8 1c-2-1 1-3 6-4 4-1 4-1-3-1a154 154 0 01-13-1zm-33 2c-1 0-3 1-2 2l2 1c2 0 2-2 1-3h-1zm-6 1v1l-1 1 2 1 1-2-2-1zm102 7l-2 2 2 1c2 0 3-2 1-3h-1zm225 1l-1 3h-1c-3-1-4 0-2 2 1 2 4 2 3 0h0l1-2c2-1 2-2 1-3h-1zm11 1c-1 0-2 1-1 2l2 1 1-2-2-1zm-359 1c1 0 3 1 2 2-1 2-4 2-5 0l1-1 2-1zm325 1l-1 2h2v-2h-1zm116 1l-2 2 2 1c2 0 3-2 1-3h-1zm-102 0l-3 1-2-1h-2l-1 2h2l2 1h2c2 0 5-2 4-3h-2zm13 0h-1v2h1l1-2h-1zm-408 1l-6 2c-5 3-3 4 4 1l3-2v-1h-1zm31 0h-2c-1 1-1 1 1 1l1-1zm479 0l-4 2c-4 2-4 2-2 4 2 1 10 1 11-1 1-1 0-2-2-3l-3-2zm-90 1h-1l-3 1v3l1-1h3c2 0 3-2 2-3h-2zm-49 0c-2 0-5 1-6 3-1 1 3 4 5 4l2 1c1 1 3 0 2-2h-2l-1-1c-1-1 0-2 1-3l1-1-2-1zm8 0l-3 1c-2 2-2 2 0 4l1 2 1 1 2 1c1 1 3 0 2-2h-3l2-2h4c0 2 2 3 3 1h6c2-1 2-1 1-2h-3c-1 1-2 1-2-1l-2-1h-4c-1 1-2 1-3-1l-2-1zm33 0c-2 0-6 3-5 4l1 1c2 0 5-4 4-5zm-14 1h-1v2l1 3 1 1 2-1c2-2 2-5 0-4h-2l-1-1zm-100 4l-1 1-2 3h-2c2-2 0-3-5-3-3-1-3-1-2 1 1 1 1 2-1 4h-3c-2-3-5-3-7-1-1 2-3 2-4 2-3-1-3-1 0-3 2-2 1-2-4-1l-4 2h1c3-1 4 1 2 3l-3 2v1c2 2 4 1 3-1l2 1c2 2 2 2 4 0 3-2 7-3 7-1 1 1 0 2-2 3-4 1-4 2-1 2 3-1 2 3-1 3l-1 1 3 2c3 3 4 2 5-2l4-6c2-2 3-2 5-1l4 1-1 2c-1 2-1 2 3 2l4-1c0-1-5-4-10-5l-1-2-2-1c-2-1-2-1-1-2h8c6 1 7 1 11-2l4-2-4-1-8-1zm28 0l-2 1v2c1 1 4 1 4-1 1-1-1-2-2-2zm13 1l-1 2h2v-2h-1zm66 0l-1 2h2v-2h-1zm97 0h-2v2h5c1-1-1-2-3-2zm9 0l-6 2-4 2 7 2 10 3c3 2 4 1 4-3 1-5-1-6-3-3l-3 2v-2c-1-2-2-3-5-3zm-575 1v2c1 1 2 2 3 1v-2l-3-1zm245 2h-1v2h1l1-1-1-1zm-260 1c-2 1-2 1 0 2l1 2 3 1c2-1 4 0 7 3 5 4 7 3 3-1-1-2-5-4-8-5a23 23 0 00-6-2zm611 1c-2 0-4 2-5 4l-3 4 4-1 7-1c4 0 5-2 2-4l-5-2zm-217 1c-2 0-3 1-2 2l2 1 1-2-1-1zm-7 2h-1v2h2v-2h-1zm197 2h-1v2h2v-2h-1zm38 0l-1 2h2l1-2h-2zm-637 0l-5 1-3 1h7c-5 1-8 3-8 4 1 2 2 2 7-1l3-4-1-1zm37 1v1c2 2 4 2 5 1l-1-1-3-1h-1zm235 1l-1 2h2v-1l-1-1zm323 0l-1 2h2l1-1-2-1zm-609 1v1l1 1 1-1-2-1zm28 1l-1 1v1l2 1v-2l-1-1zm575 0v1l-1 1 2 1 1-2-2-1zm40 1l-4 2c-2 2-2 3-1 4 1 2 0 3-4 2l-7 2-6 1h-9l-10 2c-4 0-10 2-11 3s0 2 1 3c3 1 2 4 0 3l-9-1c-8 0-8 0-8 3l2 2c3 0 6 4 7 8 0 2 0 3-2 3s-3-1-2-3c0-3-1-3-6-5-3-1-5-2-6-1h-5l3 3c5 3 2 5-3 3-2-2-4-3-4-6l-2-2-2 4-1 3 2 7 3 1c4 0 9 4 9 7l2 2 1 2c-2 2-7 0-7-3 0-2-2-5-4-5l-4 5-5 7c-3 2-4 2-8 0-2-1-4-2-3-3h6c4 6 8-14 4-20v-4c2-3 0-5-5-5-2 0-3 1-4 3 0 2-2 4-4 5-2 2-2 2-1 5l3 4c2 0 3 2 3 3 0 3-4 3-7 1-1-2-5-3-9-4-6 0-6 0-9 3-2 2-3 3-5 2-2 0-2-1 0-2 1-2 1-2-2 0l-8 3c-4 2-4 1-5 0 0-2 0-2-4-1l-6 2-6 3c-5 4-7 4-9 2-1-2-1-2 1-3s2-1-2-3-5-1-3 4c2 4 0 8-3 6-2-1-9 3-8 4l-1 3c-2 1-3 0-6-1-4-2-5-1-1 1 1 1 2 2 1 3-3 2-9-2-10-5l-3-5c-3-2-3-2-1-3l6 1c6 3 17 1 17-3 0-1-14-9-18-9l-3-2-7-1c-6 1-9-1-5-2 3-1 3-1 0-2l-4-1-2-1v2h-1l-3-1h-2c-1-1-1-1 0 0 1 0 2 0 1-1h-6v1c1 2-3 4-7 2-2-1-2-1-1 1l1 1-3 1h-2l-1 1-4 1c-3 0-4 0-3 2 1 1 0 4-3 4-2 0-2 1-2 3l-1 1-4 2c-1 2-3 2-4 2v1l-1 3c-6 1-6 1-4 2l2 4c0 4-3 6-6 4-2-1-3-1-3 1l-2 2c-6 3-7 6-5 10v5c0 3 0 3 3 4 2 0 5-1 7-3l4-3 1 3 4 8c2 6 2 7 5 5l6-2c2 0 2-1 1-2 0-4 2-8 4-8l1-1 1-2c1-1 0-2-1-3-3-3-3-4-2-7 1-4 3-6 10-10l1-3c0-5 8-8 11-4 2 2 1 2-6 9-4 4-4 5-4 9 1 6 2 7 8 5s12-2 15 0c3 3 0 4-15 4-2 0-3 4-1 6 2 0 2 4 0 5-1 1-2 0-3-1-2-3-5 0-4 4 0 2 0 3-3 6-3 2-4 2-6 1-1-1-3-1-8 1-5 3-6 3-6 1-1-2-1-2-5-1-2 1-4 1-5-1-2-1-3-2-2-4 2-4 2-5-1-5-2 0-2 2-1 9 1 4 0 4-3 4l-6 2-3 1-1 1c0 3-2 5-5 5l-4 3c-1 2-8 6-9 5l-2 2c0 1-1 2-4 1-4-1-4 2 0 3 3 1 7 7 7 11s-3 7-6 7c-4-1-15-2-16-1l-1 6-1 7c-2 4 1 9 4 9 2 0 4 0 4 2h4l6-2c4-1 8-3 8-6v-4l5-3c4-2 5-3 5-5 0-3 3-6 7-5 2 1 4 0 6-1 3-2 6-2 8 2 4 4 10 10 12 10 3 0 7 5 6 7s0 2 1 2v-4c0-4 1-5 3-3h1c0-1-2-3-5-4-4-2-6-4-8-7l-4-6c-1-1-1-2 1-4h3l1 2c1-1 2 0 3 2l8 6 6 7c1 4 6 11 8 11 1 0 2 0 1-1h-2v-1h2c2 2 2 3-1 3l-2 2c0 2 1 2 4 0 4-2 4-3 1-6-3-2-2-5 0-4l2-1c0-1 2-2 5-1 4 0 5-1 6-2v-4c-1-2 4-12 9-15 3-2 4-2 6-1s2 1 1 2-1 2 2 3c3 2 6 1 3-2-1 0-2-1-1-2 2-2 9-4 10-3 2 1 1 3-1 5-1 2 0 3 5 6 7 5 8 7 5 10-2 2-9 2-15-1-5-2-8-2-12 0l-5 2-4 2-2 1c-3 0-4 1-4 4a24 24 0 001 5c0 2 2 3 3 3l3 1h16c4-2 5 0 2 10s-6 13-10 11h-7l-12-2c-13-5-13-5-17 2-1 3-4 3-12-2l-10-4-4-3c-2-2-2-2-1-4 1-3 0-8-2-9l-9 1-8 1c-1-1-6 0-12 2-11 4-14 4-16 3-1-2-2-2-3 2-1 2-3 4-6 5-3 2-4 5-3 9 0 2-3 8-6 9-2 1-5 4-7 8l-5 6c-3 1-3 4-3 15l-1 14c-2 4-2 4 0 6l3 3 4 6 4 7c-1 2 4 8 9 11s6 3 11 2l9-1c1 0 6 0 9-2l10-2c2 0 6 3 7 6h5c5-2 7 1 6 9-1 11 0 14 3 17s5 7 5 9l2 3 2 5 1 6-1 7-4 9c-1 5-1 7 1 11l5 15c1 8 3 13 8 22 5 10 5 11 3 12-3 1 4 7 7 6l10-2c9-1 13-3 17-7 6-8 9-13 9-18 0-4 1-5 4-7 4-2 4-3 4-8l-2-6c0-2 0-3 3-6l7-5a13 13 0 007-10c1-2 0-13-2-15l-1-6-1-5c-2-3 7-19 15-24l8-7 12-24 2-4-11 2c-7 1-8 1-11-1l-3-3-1-2-4-5-5-7-3-4-2-3c-2 0-2-2-2-6l-2-8-2-5-5-9-5-7c0-3 3-3 4-1 1 3 1 3 2 1s1-2 3 0c3 4 6 10 6 13l2 2c2 0 4 4 4 8 0 3 2 6 7 12 2 2 3 4 3 7 1 9 3 12 8 9a605 605 0 0124-11l11-9 2-2 2-3 1-3c2-2 2-2-3-5-3-2-5-4-5-6l-1-3-2 3c-2 2-9 6-11 5l-1-2-2-3-2-4-4-7c-3-4-3-5-1-6 2-2 6-1 8 3 3 5 9 8 14 7 3 0 4 0 4 2 1 3 5 4 17 4 8 0 10 1 12 3 1 2 4 4 6 4 4 1 5 3 2 3v3c2 2 4 2 5-1 1-4 3-1 3 5v7l3 8 2 6 1 2 4 10 4 7 2-2c3-4 5-10 5-17 0-5 0-6 2-7 4-2 17-14 18-17 1-1 2-2 5-2l6-2c2-2 2-1 4 2l5 7c2 2 3 4 3 7-1 4 0 5 1 5l5-2c2-3 3-2 4 5l2 7 1 9c-1 6-1 8 1 10l3 5c0 5 8 16 10 14l-1-7c-1-4-3-7-5-8l-4-6-2-4c-2-1-2-1 0-6 1-6 2-6 5-6 5 1 6 1 6 4l3 3 2 4c0 3 0 3 6-1l6-5v-7l-4-11-5-7c-2-2-2-2 2-6s5-4 7-2h3l3-2 3-1 6-2c4 0 7-2 11-6l5-7 3-5c4-4 4-6 1-7-2 0-2-1 0-2s2-2 1-2c-3 0-4-2-1-3 2 0 2-1-2-5-3-5-3-6-1-8l6-5 3-2-5 1c-5 1-11-2-11-4 0-3 11-10 13-9v4l-2 4 2-2c2-3 5-3 9-1 2 1 2 1 1 3s-1 2 2 4c2 1 3 2 2 6 0 5 0 5 3 3 5-2 5-2 2-10l-3-7 3-3a1503 1503 0 0013-10c3 2 5 1 10-5 10-12 14-20 14-32 0-4-3-7-5-5h-7l-2-2c-3-1-3-1-2-4l12-10c10-7 15-9 17-7 2 1 10 0 12-1h4c3 2 12 3 10 1-1-2 10-10 14-11 4 0 7 2 4 3l-1 2c0 2 1 2 3 0l4-3 2-1c0-2 3-5 4-4 2 1-2 8-5 9l-8 6-8 6-3 4c-2 3-3 12 0 18l1 5 3-4 4-4c1 0 2 0 1-1-1-2 3-7 5-6s2 0 2-1c-1-2 1-7 2-6h2l-2-2v-2l-1-2c-1-2 3-9 6-9l3-1 2-1 5-1 5 1c2 2 3 2 6-1 7-4 17-8 19-7h4c1-1-3-8-5-8s-4-3-3-4h4c4 2 7 1 7-2 0-4 2-5 3-2s1 3 4 1c2-1 3 0 4 1l4 2 3 2c2 2 4 3 3 1s3-6 5-6l3-1c1-1 0-2-4-4-6-2-7-2-7 1-1 2-4 1-4-2 0-5-15-12-29-13l-12-2c-2-1-2 0-1 3 1 4-1 5-6 2l-12-2c-10 1-14 0-14-3s-3-4-13-3l-11-1c0-1-1-2-2-1-1 0-3-2-3-4s-5-2-9 0c-4 3-6 2-3-1 1-1 1-2-6-2h-8c-1 0-2 1-2 3 0 3-1 3-3 3l-3 1-4-1h-10c-2-1-2-1-3 1-1 4-4 4-10-1s-7-7-2-7c2 0 2 0 1-2-2-2-3-2-8-2-4 0-7 1-7 2-2 2-15 1-14-1 0-2-11-2-13 0-1 1-2 0-3-2l-2-3c0-2-1-2-5-1-3 1-4 1-1 1s9 4 6 4l-2-2-4-1c-3 0-3 0-1 2 3 1 3 1 0 2l-4 2c-3 1-9 1-9-1l4-3 6-3 5-2c3 0 8-3 6-4v-3c2-1 2-1 0-1l-4-1h-15l-4-2c-3-1-3-1-1-2s2-2-1-2h-2zm-571 1l-1 1 2 1 1-2h-2zm549 0l-1 1 2 1 1-2h-2zm-626 0l-1 1-5 2c-1 0-5 1-7 3-3 3-4 4-2 3l4 1 3-3c2-3 3-3 4-2s2 0 3-2c2-1 2-3 1-3zm105 0l-1 1h2l-1-1zm500 1h-1v2h2v-2h-1zm54 0h-1v2h2v-2h-1zm-651 1h-1v2h2v-2h-1zm123 0v2h1l1-2h-2zm287 1v2h1l1-1-2-1zm363 0l-1 2h2v-1l-1-1zm-721 1l-1 1 6 2c5 1 5 1 6 3 1 3 2 4 8 4l4 1 9 1a252 252 0 0116-2v-3c2-2 2-2 0-1l-5 1-13 1c-10 0-15-1-15-4 0-1-2-2-5-2a98 98 0 01-10-2zm569 0h-1v2h2v-1l-1-1zm-85 0l-6 2-10 2-9 1-9 3c-3 0-3 0-2 1s1 2-2 4c-3 3-4 4-2 4 4 1 4 2 1 2-3-1-4-1-7 4-2 2-2 3 0 2 2 0 5 2 4 4l5 1c3 0 5 0 4-1-3 0-5-3-5-5 0-3 9-13 13-15l6-1c2 0 16-4 19-6 2-1 2-2 0-2zm-521 1l-1 3c0 2 0 3-2 3-2 1-4 0-6-1l-7-2c-5-1-5-1-5 2s2 4 3 2 7 0 7 1l-2 2c-3 1-3 1 1 1l7-1 8-2 5-2-2-1c-2 0-3 0-4-2 0-2-1-3-2-3zm23 0l-2 1c-2 0-2 1 1 4 4 4 8 4 8 0 0-3-3-5-7-5zm-8 0h-1v2l2 1v-2l-1-1zm753 0h-1v2l2 1v-2l-1-1zm-745 1l2 2v2l-2-1v-2-1zm704 1c-2 1-2 5-1 6h10c4 1 4 1 3-1-1-1-2-2-1-3l-1-1-2 1h-3l-5-2zm-7 1c-1 0-2 1-1 3h2v-3h-1zm22 0c-2 0-2 0-1 2 2 2 2 2 4 1 3-1 1-3-3-3zm-770 1h-1v2h1l1-2h-1zm62 0h-1v2h2v-2h-1zm-17 0v2l2 1v-2l-2-1zm250 1h-1v2h2v-2h-1zm485 1l1 1 5 1 3-1h-3l-5-1h-1zm-740 0l-1 2h2l1-2h-2zm549 0l-1 2h2v-2h-1zm-521 0h-1l-1 1v2c2 1 4 1 5-1 0-1-1-2-3-2zm231 1h-1v2h1l1-1-1-1zm106 1l-1 2h2l1-1-2-1zm342 2l-1 1v1l1 1 1-2-1-1zm16 1l-1 3c0 2 0 3 4 3l4-1-3-1-2-2-2-2zm-771 0c-3 0-6 2-6 3 0 5 0 6-3 7-2 1-2 1 0 1l3 3c2 2 5 2 7-1l3-2 2-1 3-2c5-3 7-3 3-1l-2 2c2 0 5-2 5-4s-4-4-8-4h-4l-3-1zm564 2h-1v2h1l1-2h-1zm-479 0l-7 1-1 6c1 3 1 4 3 2l1-2 1-2c4-1 7-4 6-5h-3zm-16 0l-3 1-5 2v1c2 3 0 4-4 2l5 4 5 3 3-1c3 0 3-3 0-5l-1-3 1-3-1-1zm510 1l-1 2h2v-2h-1zm-533 1c-1 0-2 0-1 1l-3 2c-2 0-2 1-2 3 0 3-3 5-4 2l-4-3c-3-2-3-2-4 0h-2c-2-1-2-1-3 1-2 2-4 1-3-2v-2l-10 5 1 3c1 3 1 3 7 3 5-1 10 1 9 2 0 1-4 2-9 2-7 0-8 0-3 1l6 3c2 2 9 2 17-1 4-2 5-2 10 0l7 2c2 2 2 1 0-1s-2-3 3-5l-2-1-6-1c-3-2-6-10-4-12v-2zm76 0l-3 1c0 2 1 3 4 3l5-1c2 0 2 0-1-2l-5-1zm-22 1c-3 0-9 4-9 7s4 9 6 9a2531 2531 0 0031 2c2 2 6 3 7 3 3 0 5 2 3 4s-2 2 0 1 2-1 4 1l1 4 3 1c3-1 5 1 2 3-1 1-2 1-4-1h-5c-2 2-2 2-1 4v1l-6 1c-4 0-5 0-6 2 0 1 1 2 3 2l4-1c2-1 11 2 11 4 0 1 1 2 3 2 3 1 3 1 2 2-1 0-1 1 2 1 2-1 6 0 8 2 6 3 6 3 4 0-3-2-3-2 0-3 4-1 2-5-3-10-6-5-6-5-3-7s3-2 7 2c3 3 5 3 6 2l1-2c0-1 0-2 2-2 2-1 2-1 0-3l-3-1-4-2-5-2c-4 0-7-4-4-6v-2l-9-4h-3c-1-1-1-1 1-3 2-1 2-1 0-1l-3 1h-2l-4-1-1-1c0-3-4-4-8-4-2 0-3 1-3 2 2 1-2 2-4 1l-3-1c-2 1-3-2-3-5 0-2 0-2-2-2l-5 1c-2 2-3 8-1 10v2c-3 1-5-3-5-8v-4l1 5c1 4 1 4 2 2 1-4-2-8-5-8zm183 1h-1l3 2h3l-5-2zm-6 7l1 1-1 1h-1v-2h1zm620 1l-1 2h2l1-1-2-1zm-819 1h-1c-5 2-5 8 0 8 3 0 3 1 1 4-2 5-3 5-6 4-2-2-3-2-5-1-5 3-13 3-17 1l-4-2c0-2-6-2-9-1-2 1-2 1-1 2l4 1c1 0 1-1-1-1-2-1-2-1 0-1 3-1 4 2 1 2-2 1-3 2-3 4 1 4-2 5-3 1-2-3-6-5-13-4-5 1-8-1-5-3 2-1 2-2 0-3h-10c-6-3-14-4-15-3s-3 0-5-1c-4-1-4-1-8 1-10 5-13 7-14 6s0-2 4-4l3-3-5 2c-3 2-4 2-6 1-1-1-1-1 0 0 1 2 3 9 2 10s-4-2-4-5l-1-3-10-2-8-2-3-1-8-1-10-2h-8l-5-2-4-1h-5l-4 1-3 1h-1l-4 2-6 3-3 3-4 1-3 2 4 3c3 3 7 5 10 5 2 0 2 3-1 4-1 1-3 0-5-1h-6l-4 2c-2 0-2 0 0 1s3 2 2 3c-1 2 11 3 12 1 2-2 4-1 4 2s-6 7-8 6c-1 0-2 0-3 2-2 1-3 3-2 5 1 4 4 6 7 6 1-1 2 0 3 1 1 2 9 5 11 3 3-1 4 1 2 4-1 4-6 7-12 10l-4 2 10-4 6-3c5-3 12-9 12-11l1-2 2-3c0-2 3-4 5-3s2 1 0 2c-1 1-3 5-1 5s7-2 6-4 4-5 6-2c2 2 7 4 13 4l12 4 7 2c1-1 2-1 4 1l2 4c0 1 5 5 7 5s5 7 3 10l2 2c4 2 4 2 1 4v1c2-2 7 1 5 3-2 1-1 3 2 3s13 9 13 12c0 2-2 4-3 2s-2 0-2 6l-1 14c0 7 3 16 5 15l2 2c0 4 5 11 9 12l2 2c-1 1 0 1 1 1 2 0 3 1 4 6l5 9c2 1 2 2 1 3s0 2 2 5l4 5c0 3 7 8 8 7l-1-2-2-2-4-6-3-6-3-6c-2-3-2-5-1-6s5 1 5 3l5 8 6 8 4 6c5 6 7 8 6 11s3 6 16 12c8 4 10 5 12 4 2-2 3-1 7 1 5 4 13 7 15 7 3 0 8 6 8 10 0 3 0 3 2 2 1-1 2-1 3 1l4 3 5 1c1 1 2 1 3-1 3-5 8 3 8 12 0 4-1 6-4 9l-5 10c-2 5-2 6 0 7s2 1 0 3l-2 2 3 8 7 17c3 7 4 9 8 12l9 6 4 4-2 19-1 26-4 13c-2 4-3 7-2 9l-1 7v7c2 3 1 15-1 17l-2-1c-1-2-1-2-2-1v3c1-1 8 6 7 7l-2 1c-2-1-2 0-2 5 1 3 0 6-1 7s-1 1 1 1c2-1 8 3 8 5-2 3 1 2 2-1l3-3 1-3 2-4c2-1 3-3 2-3l3-4c4-4 4-4 2-5-5-2-5-10 0-10l2-4c0-2 0-4 2-4s2-1 1-2l-2-3c0-2 0-3 3-3s5-1 6-5c0-1 2-2 7-3 10-1 12-5 6-11-3-4-3-5 2-3 3 2 4 2 8 0s7-6 13-18c3-5 3-6 2-8v-4c1-2 9-7 10-7l2-2 6-2c5 0 5-1 8-8 3-6 4-9 4-16s0-10 2-10l6-7c5-8 6-14 0-17l-5-4c-1-1-3-2-9-2-6-1-8-1-11-5-5-4-7-4-10 0-1 2-3 3-5 2-4 0-4-2 0-3l3-2c0-3-2-3-6 1l-5 3c-1-2 6-11 8-10l-1-2-2-3c1-4-7-11-13-11-4 0-6-1-9-4a406 406 0 00-15-11l-7-1-2-1c-2 1-8-2-8-3s-1-1-1 1l-2 2-1 2c1 3-2 4-3 2v-5c3-4 1-4-3 0l-4 2c-1-1-2 0-5 7 0 1-1 1-3-1-3-2-4-3-8-1-5 1-5 1-8-3-3-3-3-4-2-10 0-7 0-7-3-8l-7-1c-4 0-5 0-4-4l1-4 2-6c1-4 0-5-2-5-5 0-8 2-8 6-1 3-1 4-6 5-7 1-10-1-13-8-3-4-4-14-2-16l1-4c-1-4 0-4 4-7 5-3 6-3 11-2l7 2c4 0 4 0 2-1-1-2-1-3 1-4l6-1 6 1c3 0 7 3 7 8 1 4 3 9 6 9 2 0 1-2-1-11l-3-10 7-7 5-7 2-1c1-1 2-1 1-2l1-1v-3c-2-3-1-9 0-9s2 1 2 3l1 1c0-4 6-11 9-11 4 0 6-1 4-4-1-1-1-2 1-5l4-2 7-3c4-2 7-3 8-2l1 1c-2 0-6 4-6 6 0 1 1 1 3-1l6-4c2 0 4-2 5-3l2-1h1c0-2-2-2-4 0-3 3-4 3-5 2s-2-2-1-3h-1c-1 1-2 1-5-2s-3-4 0-4c2 0 3-1 3-2 0-3-8-1-13 3l-4 2c-2-2 8-11 13-11l10-1 8-2 7-2c3 0 3-1 3-4 0-5-1-6-7-4h-5c-1-1 3-4 6-4 2 0 2 0 1-1l-5-3-4-1-2-2-2-3-1-3c-2-1-3-4-4-6-1-5-1-5-5-1-2 2-4 3-5 2l-3 1-3-1c-3-3-4-6-2-6 2-1 1-4-1-4l-5-3c-2-3-4-4-9-4s-6 0-7 4l-1 5v4l-1 2v1c-1 1-1 2 1 5 3 3 3 7 0 11l-2 9c0 5-1 7-2 8-2 2-3 1-7-2-4-4-5-5-4-9v-5l-5-1c-4 0-8-2-12-4-3-3-7-4-7-4-2 1-4-1-4-4 0-2 0-3-2-2-2 0-3-1-4-3-2-4 0-7 7-14l3-5c-1-1 4-3 6-2l4-2c3-2 4-2-3-4-3-1 0-3 5-3 3 1 4 1 4 5 0 3 0 4-2 5-1 0-1 1 2 2 3 2 3 2 5-1 3-3 3-3 6-1l3 1c2-1-4-6-8-7-2 0-4-2-5-4-2-2-2-3 2-2 3 0 10-3 10-5l-1-3c-2-1-2-2-1-3 2-2-2-5-6-5-3 0-4 0-3 2s1 3-2 6c-2 3-3 3-4 1l-2-4-2-4c-1-1-2-1-3 2-2 3-4 3-4-1l-3-2c-2-1-2-1-1-3 2-2-3-6-6-6zm27 0l-1 1 2 1v-1l-1-1zm782 0l-6 2h10l-1-1-3-1zm-908 1l-1 1v1l2 1v-2l-1-1zm355 0v1l-1 1 2 1v-2l-1-1zm-3 3h-1v2h1l1-2h-1zm199 0h-1c-1 1-1 2 1 3 3 2 4 2 5 1 1-2-3-4-5-4zm-119 1l-1 2h2v-2h-1zm-343 2l-2 2c-2 2-2 2-1 3l2 1h3l5-2h1l-2 2c-1 0-2 1-1 2 1 2 2 1 4-3l2-3h-4c-2 1-4 1-5-1l-2-1zm434 1c-2 0-4 3-3 4h3c3-1 3-3 1-4h-1zm-303 1l-2 1 2 1 1-1-1-1zm-77 0l-1 1v1l2 1v-2l-1-1zm-154 2l-3 1-1 1 3-1 1-1zm432 1l-1 2h2l1-2h-2zm-277 2h-1v2h2v-2h-1zm272 0l-1 2h2l1-2h-2zm-263 2h-1c-3 0-3 3 0 3l2-2-1-1zm14 7c-1 0-2 0-1 1l1 1 2-1c1-1 0-1-2-1zm164 1h-4l-7 1-2 1c1 1-5 4-9 5h-3 4l3 2c-1 1 3 3 6 3l9-2c8-3 10-5 7-6l-2-3-2-1zm-19 1l-4 1c-1 1-1 1 1 1l4-1c1-1 0-1-1-1zm94 8h-1v2h2v-1l-1-1zm-232 3l7 3v2l-7-4v-1zM2 107H1 0l1 2c1 2 8 2 7 0l-6-2zm274 0h-1v2h2v-2h-1zm-5 1l-1 2h2l1-2h-2zm-4 3l-1 1-1 3h2l1-3-1-1zm-9 0c-2 0-4 2-3 3h3c2-1 2-2 1-2l-1-1zm223 1l-1 3v2l-1 2h2l1-1v-2l1-3-1-1h-1zm112 4h1c1 0 3 1 3 3 2 2 2 3 0 3h-3l-2-2-1-3 2-1zm-95 3c-1 0-2 2-1 3h2v-2l-1-1zm-197 1l-1 2h2l1-1-2-1zm260 0h-1v2h2v-1l-1-1zm-548 1v1l-1 1 2 1v-2l-1-1zm480 5l-3 2c-4 4-6 8-4 9v2c-1 2 2 5 4 5l2 3c1 3 0 4-2 4l-1 2-1 1c-1 2-1 2 1 2 4 0 4 2 0 4-5 2-4 3 1 2l6-1c5 0 8-1 10-5l-1-2c-3 0-4-1-4-5l-8-9c-1-1-1-2 1-4 2-3 2-3-1-2-4 1-4-1-1-5 2-2 2-3 1-3zm-467 2l-1 2h2l1-1-2-1zm455 0l-1 2h2l1-1-2-1zm87 0h-1v2h2v-1l-1-1zm-512 2l-7 4v2c2 1 8-5 7-6zm46 2h-1v1l2 1v-2h-1zm379 1l-1 2h2l1-2h-2zm75 0c-1 0-2 1-1 3h2v-3h-1zM3 136l-1 2h2l1-1-2-1zm45 1h-1v2l2 1v-2l-1-1zm218 1v1l-1 1 2 1 1-2-2-1zm-155 2h-1v4h1v-4zm-66 1v2h1l1-2h-2zm943 0l-1 2h2v-2h-1zm-453 1l-1 3h3v-3h-2zm10 1l-1 2h2v-2h-1zm-66 0l-2 1v2l-2 2c-2 0-2 1-1 2v2l-1 5 5-2c4-2 5-3 6-6 0-3 0-4-3-5l-2-1zm-459 1l-1 2h2l1-1-2-1zm902 1l-1 1-1 4c-2 3-2 4-1 7l2 13c-1 7 0 8 1 8l2-1-1-2c-1-1-2-7 0-8h2c2 2 2 0 1-1-2-3-4-13-4-17v-4zm72 0l-1 2h2v-1l-1-1zm-981 1c-2 0-3 1-2 2l2 1c1 0 2-2 1-3h-1zm97 0c-1 0-2 2-1 3h2v-2l-1-1zM7 150H6v2h2v-2H7zm1002 1h-1v2h1l1-2h-1zm-748 0h-1v3c2 3 4 1 2-2l-1-1zm-149 2l1 4 1 3c1-1 0-3-1-5l-1-2zm846 7c-1 0-2 1-1 3h2v-3h-1zm-831 2l-1 1 3 1 4 2 2 2c2 0-4-5-7-5a6 6 0 00-1-1zm210 0l-6 4c-4 4-5 4-3 6 1 2 4 2 10 0l1 1v3c0 2 1 2 2 0l2-1 2 1 1-2h-2l-1-2c1-3-3-6-6-5s-3 1-1-2c2-2 2-3 1-3zm-96 2l1 1-1 1-1-1 1-1zm74 1l-1 1c-2 0-2 1 1 2 2 2 5 2 6 1 0-2-3-4-6-4zm641 1h-1v1l2 1v-2h-1zm-4 3l-1 2h2v-1l-1-1zm-708 1l2 1 5 5c1 3 3 4 7 5l6 2c1 1 0 1-1 1l-2 3c0 4-1 4-2 1l-3-2v-2c0-1 0-2-2-3s-3-1-4 2c-2 2-3 5-3 8-1 3-1 5-2 4v-5l-1-4c-1-2 2-5 5-5 6-1-4-6-12-5-5 0-5 0-2-1l5-3 4-2zm32 3l1 1-1 2-2-1c-1-1 0-2 2-2zm673 0l-1 1v1l1 1 1-2-1-1zm-614 2h-1v2h2v-2h-1zm320 2c2 0 3 1 3 3s-1 2-2 2c-1-1-3 0-3 1l-1 1v2c-1 1-1 2 1 4l2 4 1 3h2c1-2 2-2 3 0s1 2-1 2c-3 0-4 2-2 3l2 2v4c1 4 0 5-2 5-4 1-7 1-10-1-2-3-2-3 0-8 2-4 2-5 0-6-2 0-6-12-5-15 0-2 7-6 11-6h1zm-389 1l2 1-1 1h-2l1-2zm675 0l-1 2h2l1-1-2-1zm-262 2c2 0 2 5 0 6-2 2-3 2-4 0s2-6 4-6zm258 1c-1 0-2 1-1 2l1 1c2 0 3-2 2-2l-2-1zm-19 1l-1 4c0 2-1 3-2 3-2 0-3 2-2 5s5 3 4 1l2-1 4-1 3-2c2 0 5-4 3-5h-3l-4-2-4-2zm15 2h-1v2h2v-2h-1zm-656 3l-4 3c-3 0-6 2-9 4l-5 3c-2 0 3-4 11-8l7-2zm655 1h-1v2l2 1v-2l-1-1zm-404 4c-1 0-2 1-1 3h2v-3h-1zm387 6l-3 3c0 7-1 9-3 7h-2v4c-1 1-2 2-3 1s-2-1-3 1c0 2-2 3-6 4-3 0-6 1-8 3s-3 3-4 2c-3-2-3 0-1 3 2 2 2 4 2 5v3c1 3 3 2 5-3 1-3 2-4 4-4l3-1c2-2 2-2-1-3s-3-1 0-1l4 2c1 3 1 3 3 1s4-3 7-3h5l2-7 2-7c2-2 1-7 0-9l-3-1zm-387 1l-1 3c0 2 0 3 1 2 2 0 2-1 2-2 0-2-1-3-2-3zm-13 2a2 2 0 00-1 0l-2 1-1 1v1h2l2-1h1v-2h-1zm-8 4h-1v2l2 1v-2l-1-1zm36 4c-4 0-4 2 0 3 3 2 4 2 4 0s-1-3-4-3zm19 1h-1v2h2v-2h-1zm-25 3h-1v2h2v-1l-1-1zm43 0h-1v2h2v-1l-1-1zm-6 1h-1v2l2 1v-2l-1-1zm25 3l-1 1-1 2h5c0-2-1-3-3-3zm-56 1h-1v2h2v-2h-1zm-5 1h-1v2h2v-2h-1zm37 1h-1l1 1 1-1h-1zm299 6l-1 2h2v-2h-1zm-564 2h-1v2h2v-2h-1zm141 1l-1 2h2l1-1-2-1zm428 0h-1v2h2v-1l-1-1zm-430 14h-1v2h2v-2h-1zm11 1h-1v2h2v-2h-1zm423 0h-1v2h1l1-2h-1zm-429 1h-1v2h2v-2h-1zm-184 2l-1 2h2v-1l-1-1zm179 0h-1v2h2v-1l-1-1zm-174 1h-1v2l2 1v-2l-1-1zm603 1c-2 0-3 2-2 3h2c2-1 2-2 1-3h-1zm-216 3h-1v2h1l1-2h-1zm-392 1l-1 2h2v-2h-1zm6 0l-1 2h2v-2h-1zm594 2v2h1l1-1-2-1zm-598 1v2l1 1 1-2-2-1zm6 0v2l1 1 1-2-2-1zm588 0h-1v2l2 1v-2l-1-1zm-8 1h-1c-1 1-2 7-1 8 2 1 2 1 2-4v-4zm-582 3l-1 2h2l2 1h2v-2h-2l-2-1h-1zm-17 2l-4 1c-3 2-3 2 0 3 2 0 3 1 3 2-1 1 0 2 1 1v-4l14 6v2c0 2 7 1 9-1 1-1-1-2-9-6-6-3-11-4-14-4zm25 1v2h1l1-1-2-1zm5 1l-1 2h2l1-1-2-1zm-2 4h-1v2h2v-2h-1zm537 5l-2 2c-1 1-1 1 1 1l2-2c1-1 0-1-1-1zm-534 2h-3c1 1 0 2-1 2-4 1 4 2 8 1h6l-4-2-6-1zm16 1c-2 1-3 2-2 3l2 1c1 0 2-2 1-3l-1-1zm-34 2h-1l-1 2h5c1-1-1-2-3-2zm586 0c-2 0-2 1-3 5-1 7 0 8 5 10 3 0 7 6 6 8-1 0-1 0 0 0l1-2h1c4 3 2 0-4-6s-7-7-4-9 2-6-1-6h-1zm-547 1h-1v2h2v-1l-1-1zm-60 1h-1v2h2v-1l-1-1zm65 0h-1v2h2v-1l-1-1zm4 1v2l1 1 1-2-2-1zm107 2v1l-1 1 2 1 1-2-2-1zm8 2h-1v2h1l1-2h-1zm-115 1v2h1l1-2h-2zm110 3h-1v2h2v-1l-1-1zm5 0h-1v2h1l1-1-1-1zm-113 1h-1v2l-1 2v2h1l1-2v-1l1-2-1-1zm546 0l-1 2 2 1v-2l-1-1zm-542 5v2h1l1-2h-2zm531 0c-1 0-2 1-1 3h2v-3h-1zm-557 1l-1 2h2v-1l-1-1zm473 0l-1 2h2l1-1-2-1zm-468 1h-1v2h2v-1l-1-1zm354 0l-1 2h2v-1l-1-1zm-340 1l-1 2 2 1 1-2-2-1zm535 0h-1v2l2 1v-2l-1-1zm-81 2v1l-1 1 2 1 1-2-2-1zm88 0l-1 1v1l2 1v-2l-1-1zm-538 2h-1v2h2v-2h-1zm-34 0v1l1 2 1 1v-2l-2-2zm562 1l-4 7c0 1 2 0 3-3l1-4zm21 1h-1v2h2v-2h-1zm-66 1h-1v2h2v-1l-1-1zm65 4l-4 2h-3c0-2-4 3-4 4h2c2-2 4-1 4 1 0 3 3 3 5 1l2-5-2-3zm-133 1c-1-1-2 0-2 2-1 5 1 7 4 5v-4l-2-3zm-22 1h-1v2h1l1-2h-1zm181 4l-1 1v3l2 1v-4l-1-1zm-181 0h-1v2l1 1 1-2-1-1zm61 1l-1 1v1l2 1v-2l-1-1zm68 1l-7 6c-3 4-7 6-8 6s-2 1-2 3l-4 2c-2 1-3 1-2 4l3 8c3 4 4 4 8 4l5 1h5v-3c-1-2 0-4 1-4l3-5 3-4v-1l-1-3-2-2c-3-1-3-1 1-4l3-3-3-2-3-3zm11 2l-1 2h2v-2h-1zm-139 1h-1v2h2v-2h-1zm65 2l5 5 5 8 3 5 3 4c0 2 10 13 11 12 1 0 2-1 2-3l2-4c1-1 0-4-2-3-1 1-8-5-7-6l-6-7-7-8-5-2-4-1zm-66 2h-1v2l1 1 1-2-1-1zm103 1l-1 1v1l2 1v-2l-1-1zm-294 2h-1v1l1 1 1-2h-1zm258 2h-1v2h2v-2h-1zm96 0h-1v2h2v-2h-1zm-357 2l-1 2h2l1-1-2-1zm-288 2l-1 1v1l2 1v-2l-1-1zm644 1l-2 4c0 4 2 4 3-1 1-2 0-3-1-3zm-90 0l-1 1v1l2 1v-2l-1-1zm78 2h-3l-8 1c-2 2-4 13-3 15l1 2c-1 1 1 6 2 6v-4c-2-9 2-11 4-3 1 5 3 5 3 1l-3-6c-3-3-2-5 2-4l3-1-4-1-5-1c-1-2 3-5 7-4h5c1-1 1-1-1-1zm-347 0h-1v2h1l1-2h-1zm365 2h-1v2h2v-2h-1zm-650 1h-1v2h2v-1l-1-1zm-5 0c-1 0-2 2-1 3h2v-2l-1-1zm10 1h-1v2h2v-1l-1-1zm649 1c-2 0 0 2 3 3s3 2 2 3c-2 1-2 2-1 3h1c2-2 13 4 15 7s2 3 0 6l-1 1 7 2c5 2 9 3 9 1-1-1 1-2 3-3s3 0 5 1l3 4c0 1 1 2 4 2 6 2 6 2 2-2l-5-6v-3c0-2-14-9-21-12l-8-3-3 3c-3 2-3 2-5 0-2-1-2-2-2-3 1-2 0-2-6-4h-2zm-96 1v1l-1 1 2 1 1-2-2-1zm108 0v1 1l1 1 1-2-2-1zm20 0l-1 1v1l2 1v-2l-1-1zm23 0l-1 1v1l1 1 1-2-1-1zm-59 1c-1 0-2 1-1 2h2v-2h-1zm-368 1l-1 1 2 1 1-2h-2zm304 0l-1 1 2 1v-2h-1zm113 0h-1v1l2 1v-2h-1zm-65 1l-1 2h2v-2h-1zm5 0h-1v2h2v-2h-1zm-55 2h-1v2h2v-1l-1-1zm132 0v4c1 2 2 2 3 1s1-2-1-3l-2-2zm-155 1v1l2 2-1-3h-1zm86 0h-2c-1 0-2 1-1 2s7 1 7-1l-4-1zm-8 1h-1v2l2 1v-2l-1-1zm-208 3l-1 1 2 1v-2h-1zm283 0l-2 1-4 1c-1 0-3 2-2 4s3 1 6-2c3-2 3-5 2-4zm-327 2h-1v2h2v-2h-1zm271 1l-1 2h2v-2h-1zm45 0h-1v2h1l1-2h-1zm-70 1h-1v2h2v-1l-1-1zm30 0h-1v2h2v-1l-1-1zm60 0h-1v2h2v-1l-1-1zm-298 1l-1 2h2v-1l-1-1zm-40 1v2l1 1 1-2-2-1zm343 0h-1v2l2 1v-2l-1-1zm-149 1h-1c-1 2 4 4 10 5l12 2h2c0-2-7-6-10-5l-8-1-5-1zm23 0c-1 0-2 1-1 2l1 1c2 0 3-2 2-2l-2-1zm6 0l-1 1v1l2 1v-2l-1-1zm125 1c-1 0-2 1-1 2l1 2c2 0 3-3 2-3l-2-1zm-107 1h-1v1l2 1v-2h-1zm16 1v2h1l1-2h-2zm11 1c-1 0-3 1-2 2l2 1c2 0 2-2 1-3h-1zm76 0h-1v2h2v-2h-1zm10 1h-1v2c1 2 2 2 3 1s0-3-2-3zm-352 0h-1v2h2v-1l-1-1zm260 0l-1 2h2l1-1-2-1zm-7 1c-3 0-11 6-9 7 0 1 2 1 4-1 6-3 8-5 6-6h-1zm-34 0v2h1l1-1-2-1zm24 0v2h1l1-1-2-1zm-8 1h-2v2c1 2 4 1 5 0 0-1-1-2-3-2zm-10 0l-1 1-1 1c1 1 6 1 6-1l-3-1h-1zm124 1v1l-1 1 2 1v-2l-1-1zm-118 3v2h1l1-2h-2zm8 1h-1v2h2v-2h-1zm116 0l-1 2h2v-2h-1zm-26 2h-1v2h2v-1l-1-1zm21 1l-1 2h2l1-1-2-1zm-81 1v1l-2 3-3 3-1 2c-1 1-2 2-1 3l1 2c-2 1-10 0-10-2-1-2-4-2-4 0l-3 3-2 2v3h-3c-1-2-2-2-2 0v3c1 2-7 7-9 7l-13 7c-4 2-5 6-2 9 1 2 2 3 1 5-1 1-1 1-2-1h-2l2 4c3 4 7 18 6 23-1 2 0 3 3 4 3 2 4 2 8-1 2-2 6-3 8-3 3 0 5-1 7-3l6-3 7-1c6-2 15 2 18 7l2 3 3-4c1-3 2-4 3-3v5c-2 3-1 4 1 2h2v2l3 4 2 5c0 3 8 4 10 2 2-1 3-1 5 1 2 3 2 3 5-1l5-2 3-2 5-15c3-6 6-29 4-28l-8-5-3-4-2-4-2-2c-3-1-7-9-7-14l-2-6c-2-1-3-4-4-6l-1-5c-1-1-4 6-4 11 0 3-4 13-5 13l-8-5c-6-4-6-5-5-8l1-5c2-1 2-4 0-3l-1-1-3-1-5-1h-2zm-262 1l-1 1v1l2 1v-2l-1-1zm3 3v2h1l1-2h-2zm15 1l-1 1c0 3-3 7-8 9-4 2-6 6-5 12 0 2 0 4-2 6-2 3-1 6 1 12 1 3 2 3 5 3l4-2 5-18 3-11c1-2 0-11-1-12h-1zm-11 2l-1 2h2v-1l-1-1zm269 0l-1 2h2v-1l-1-1zm-242 9h-1v2h1l1-1-1-1zm8 15h-1v2h2v-2h-1zm-5 1l-1 2h2v-1l-1-1zm-397 44h-1v2l2 1v-2l-1-1zm741 5l1 4c4 4 5 8 3 11-2 2-2 2 0 3 1 0 2 1 2 3 0 3 3 3 4-2 0-2 1-3 2-3l2-1v-3c1-1 1-2-1-1-1 1-2 0-3-1 0-2-1-2-2-1s-2 0-2-1l-6-8zm-106 2h-1v2h2v-1l-1-1zm32 15l-1 2h2l1-2h-2zm-10 1h-1v2h1l1-1-1-1zm4 4c-2 0-2 1-1 3l1 4c1 2 6 2 7 0l1-3c1-2 0-3-6-4h-2zm80 1c-2 0-4 3-4 4l-4 4c-5 4-13 14-8 12h3c3 2 4 2 6 0l1-5 3-4 3-4c-1-1 0-1 1-2 2-1 2-4 0-5h-1zm-728 3c-1 0-2 2-1 3h2v-3h-1zm714 20l-1 2 2 1 1-2-2-1zm-717 1v1l-1 1 2 1 1-2-2-1zm0 6l-1 2h2l1-1-2-1zm710 4l-1 1 2 1v-2h-1zm-710 2l-1 2h2l1-2h-2zm50 2h-1v2l-1 2v1l1 1 1-2v-2l1-1-1-1zm-6 1c-1 0-2 2-1 3h2c1-1 2-2 1-3h-2zm-39 5h-1c-2 0-1 1 0 2l2 2v2l1-1v-3l-1-2h-1zm13 2l-1 3c0 2 0 3-2 2l-2 1 4 1 4 1c1 2 3 2 5 0 1 0 0-2-3-5l-5-3zm14 6h-1v2h2v-2h-1zm-14 4l-2 2 2 1c2 0 3-2 1-3h-1z" fill="#DDE0E4"/><g filter="url(#filter0_d)"><circle cx="823.5" cy="363.5" r="10.5" fill="#fff"/></g><circle cx="823.5" cy="363.5" r="7.9" fill="#fff" stroke="#F53838" stroke-width="1.5"/><circle cx="823.5" cy="363.5" r="3.8" fill="#F53838"/><g filter="url(#filter1_d)"><circle cx="859.7" cy="426.4" r="17.7" fill="#fff"/></g><circle cx="859.7" cy="426.4" r="13.3" fill="#fff" stroke="#F53838" stroke-width="2.5"/><circle cx="859.7" cy="426.4" r="6.4" fill="#F53838"/><g filter="url(#filter2_d)"><circle cx="575.7" cy="400.8" r="18.4" fill="#fff"/></g><circle cx="575.7" cy="400.8" r="13.8" fill="#fff" stroke="#F53838" stroke-width="2.6"/><circle cx="575.7" cy="400.8" r="6.6" fill="#F53838"/><g filter="url(#filter3_d)"><circle cx="486.9" cy="282.1" r="12.8" fill="#fff"/></g><circle cx="486.9" cy="282.1" r="9.6" fill="#fff" stroke="#F53838" stroke-width="1.8"/><circle cx="486.9" cy="282.1" r="4.6" fill="#F53838"/><g filter="url(#filter4_d)"><circle cx="586.2" cy="299.5" r="21.7" fill="#fff"/></g><circle cx="586.2" cy="299.5" r="16.3" fill="#fff" stroke="#F53838" stroke-width="3.1"/><circle cx="586.2" cy="299.5" r="7.8" fill="#F53838"/><g filter="url(#filter5_d)"><circle cx="734.1" cy="258.7" r="17.7" fill="#fff"/></g><circle cx="734.1" cy="258.7" r="13.3" fill="#fff" stroke="#F53838" stroke-width="2.5"/><circle cx="734.1" cy="258.7" r="6.4" fill="#F53838"/><g filter="url(#filter6_d)"><circle cx="1005" cy="97.5" r="12.8" fill="#fff"/></g><circle cx="1005" cy="97.5" r="9.6" fill="#fff" stroke="#F53838" stroke-width="1.8"/><circle cx="1005" cy="97.5" r="4.6" fill="#F53838"/><g filter="url(#filter7_d)"><circle cx="778.1" cy="153.4" r="21.7" fill="#fff"/></g><circle cx="778.1" cy="153.4" r="16.3" fill="#fff" stroke="#F53838" stroke-width="3.1"/><circle cx="778.1" cy="153.4" r="7.8" fill="#F53838"/><g filter="url(#filter8_d)"><circle cx="672.5" cy="131.7" r="16.9" fill="#fff"/></g><circle cx="672.5" cy="131.7" r="12.7" fill="#fff" stroke="#F53838" stroke-width="2.4"/><circle cx="672.5" cy="131.7" r="6.1" fill="#F53838"/><g filter="url(#filter9_d)"><circle cx="573.6" cy="178" r="17.2" fill="#fff"/></g><circle cx="573.6" cy="178" r="12.9" fill="#fff" stroke="#F53838" stroke-width="2.4"/><circle cx="573.6" cy="178" r="6.2" fill="#F53838"/><g filter="url(#filter10_d)"><circle cx="530" cy="116.6" r="12.8" fill="#fff"/></g><circle cx="530" cy="116.6" r="9.6" fill="#fff" stroke="#F53838" stroke-width="1.8"/><circle cx="530" cy="116.6" r="4.6" fill="#F53838"/><g filter="url(#filter11_d)"><circle cx="429" cy="27.6" r="10.6" fill="#fff"/></g><circle cx="429" cy="27.6" r="7.9" fill="#fff" stroke="#F53838" stroke-width="1.5"/><circle cx="429" cy="27.6" r="3.8" fill="#F53838"/><g filter="url(#filter12_d)"><circle cx="367.2" cy="106" r="7.6" fill="#fff"/></g><circle cx="367.2" cy="106" r="5.7" fill="#fff" stroke="#F53838" stroke-width="1.1"/><circle cx="367.2" cy="106" r="2.8" fill="#F53838"/><g filter="url(#filter13_d)"><circle cx="741.8" cy="83.3" r="7.6" fill="#fff"/></g><circle cx="741.8" cy="83.3" r="5.7" fill="#fff" stroke="#F53838" stroke-width="1.1"/><circle cx="741.8" cy="83.3" r="2.8" fill="#F53838"/><g filter="url(#filter14_d)"><circle cx="365" cy="40.4" r="12.8" fill="#fff"/></g><circle cx="365" cy="40.4" r="9.6" fill="#fff" stroke="#F53838" stroke-width="1.8"/><circle cx="365" cy="40.4" r="4.6" fill="#F53838"/><g filter="url(#filter15_d)"><circle cx="279.7" cy="10.1" r="9.8" fill="#fff"/></g><circle cx="279.7" cy="10.1" r="7.4" fill="#fff" stroke="#F53838" stroke-width="1.4"/><circle cx="279.7" cy="10.1" r="3.5" fill="#F53838"/><g filter="url(#filter16_d)"><circle cx="877.4" cy="103" r="9.8" fill="#fff"/></g><circle cx="877.4" cy="103" r="7.4" fill="#fff" stroke="#F53838" stroke-width="1.4"/><circle cx="877.4" cy="103" r="3.5" fill="#F53838"/><g filter="url(#filter17_d)"><circle cx="807.8" cy="227.8" r="9.8" fill="#fff"/></g><circle cx="807.8" cy="227.8" r="7.4" fill="#fff" stroke="#F53838" stroke-width="1.4"/><circle cx="807.8" cy="227.8" r="3.5" fill="#F53838"/><g filter="url(#filter18_d)"><circle cx="292.5" cy="148.7" r="12.8" fill="#fff"/></g><circle cx="292.5" cy="148.7" r="9.6" fill="#fff" stroke="#F53838" stroke-width="1.8"/><circle cx="292.5" cy="148.7" r="4.6" fill="#F53838"/><g filter="url(#filter19_d)"><circle cx="305.3" cy="454.7" r="12.8" fill="#fff"/></g><circle cx="305.3" cy="454.7" r="9.6" fill="#fff" stroke="#F53838" stroke-width="1.8"/><circle cx="305.3" cy="454.7" r="4.6" fill="#F53838"/><g filter="url(#filter20_d)"><circle cx="333.3" cy="383.3" r="17.4" fill="#fff"/></g><circle cx="333.3" cy="383.3" r="13.1" fill="#fff" stroke="#F53838" stroke-width="2.5"/><circle cx="333.3" cy="383.3" r="6.3" fill="#F53838"/><g filter="url(#filter21_d)"><circle cx="377.9" cy="372.1" r="8.5" fill="#fff"/></g><circle cx="377.9" cy="372.1" r="6.4" fill="#fff" stroke="#F53838" stroke-width="1.2"/><circle cx="377.9" cy="372.1" r="3.1" fill="#F53838"/><g filter="url(#filter22_d)"><circle cx="291.8" cy="330.2" r="12.8" fill="#fff"/></g><circle cx="291.8" cy="330.2" r="9.6" fill="#fff" stroke="#F53838" stroke-width="1.8"/><circle cx="291.8" cy="330.2" r="4.6" fill="#F53838"/><g filter="url(#filter23_d)"><circle cx="44" cy="103.8" r="8.5" fill="#fff"/></g><circle cx="44" cy="103.8" r="6.4" fill="#fff" stroke="#F53838" stroke-width="1.2"/><circle cx="44" cy="103.8" r="3.1" fill="#F53838"/><g filter="url(#filter24_d)"><circle cx="207.7" cy="106.8" r="12.8" fill="#fff"/></g><circle cx="207.7" cy="106.8" r="9.6" fill="#fff" stroke="#F53838" stroke-width="1.8"/><circle cx="207.7" cy="106.8" r="4.6" fill="#F53838"/><g filter="url(#filter25_d)"><circle cx="131.5" cy="97.5" r="12.8" fill="#fff"/></g><circle cx="131.5" cy="97.5" r="9.6" fill="#fff" stroke="#F53838" stroke-width="1.8"/><circle cx="131.5" cy="97.5" r="4.6" fill="#F53838"/><g filter="url(#filter26_d)"><circle cx="178.4" cy="161.6" r="18.7" fill="#fff"/></g><circle cx="178.4" cy="161.6" r="14.1" fill="#fff" stroke="#F53838" stroke-width="2.6"/><circle cx="178.4" cy="161.6" r="6.8" fill="#F53838"/><g filter="url(#filter27_d)"><circle cx="199" cy="248.2" r="10.6" fill="#fff"/></g><circle cx="199" cy="248.2" r="8" fill="#fff" stroke="#F53838" stroke-width="1.5"/><circle cx="199" cy="248.2" r="3.8" fill="#F53838"/><g filter="url(#filter28_d)"><circle cx="252.8" cy="214.7" r="11.3" fill="#fff"/></g><circle cx="252.8" cy="214.7" r="8.5" fill="#fff" stroke="#F53838" stroke-width="1.6"/><circle cx="252.8" cy="214.7" r="4.1" fill="#F53838"/><g filter="url(#filter29_d)"><circle cx="929.4" cy="446.7" r="9.8" fill="#fff"/></g><circle cx="929.4" cy="446.7" r="7.3" fill="#fff" stroke="#F53838" stroke-width="1.4"/><circle cx="929.4" cy="446.7" r="3.5" fill="#F53838"/><defs><filter id="filter0_d" x="807.1" y="353" width="32.8" height="32.8" filterUnits="userSpaceOnUse" color-interpolation-filters="sRGB"><feFlood flood-opacity="0" result="BackgroundImageFix"/><feColorMatrix in="SourceAlpha" values="0 0 0 0 0 0 0 0 0 0 0 0 0 0 0 0 0 0 127 0"/><feOffset dy="5.9"/><feGaussianBlur stdDeviation="3"/><feColorMatrix values="0 0 0 0 0.529167 0 0 0 0 0.529167 0 0 0 0 0.529167 0 0 0 0.14 0"/><feBlend in2="BackgroundImageFix" result="effect1_dropShadow"/><feBlend in="SourceGraphic" in2="effect1_dropShadow" result="shape"/></filter><filter id="filter1_d" x="831.9" y="408.7" width="55.4" height="55.4" filterUnits="userSpaceOnUse" color-interpolation-filters="sRGB"><feFlood flood-opacity="0" result="BackgroundImageFix"/><feColorMatrix in="SourceAlpha" values="0 0 0 0 0 0 0 0 0 0 0 0 0 0 0 0 0 0 127 0"/><feOffset dy="10"/><feGaussianBlur stdDeviation="5"/><feColorMatrix values="0 0 0 0 0.529167 0 0 0 0 0.529167 0 0 0 0 0.529167 0 0 0 0.14 0"/><feBlend in2="BackgroundImageFix" result="effect1_dropShadow"/><feBlend in="SourceGraphic" in2="effect1_dropShadow" result="shape"/></filter><filter id="filter2_d" x="546.9" y="382.4" width="57.5" height="57.5" filterUnits="userSpaceOnUse" color-interpolation-filters="sRGB"><feFlood flood-opacity="0" result="BackgroundImageFix"/><feColorMatrix in="SourceAlpha" values="0 0 0 0 0 0 0 0 0 0 0 0 0 0 0 0 0 0 127 0"/><feOffset dy="10.4"/><feGaussianBlur stdDeviation="5.2"/><feColorMatrix values="0 0 0 0 0.529167 0 0 0 0 0.529167 0 0 0 0 0.529167 0 0 0 0.14 0"/><feBlend in2="BackgroundImageFix" result="effect1_dropShadow"/><feBlend in="SourceGraphic" in2="effect1_dropShadow" result="shape"/></filter><filter id="filter3_d" x="466.9" y="269.2" width="40.1" height="40.1" filterUnits="userSpaceOnUse" color-interpolation-filters="sRGB"><feFlood flood-opacity="0" result="BackgroundImageFix"/><feColorMatrix in="SourceAlpha" values="0 0 0 0 0 0 0 0 0 0 0 0 0 0 0 0 0 0 127 0"/><feOffset dy="7.2"/><feGaussianBlur stdDeviation="3.6"/><feColorMatrix values="0 0 0 0 0.529167 0 0 0 0 0.529167 0 0 0 0 0.529167 0 0 0 0.14 0"/><feBlend in2="BackgroundImageFix" result="effect1_dropShadow"/><feBlend in="SourceGraphic" in2="effect1_dropShadow" result="shape"/></filter><filter id="filter4_d" x="552.2" y="277.8" width="67.9" height="67.9" filterUnits="userSpaceOnUse" color-interpolation-filters="sRGB"><feFlood flood-opacity="0" result="BackgroundImageFix"/><feColorMatrix in="SourceAlpha" values="0 0 0 0 0 0 0 0 0 0 0 0 0 0 0 0 0 0 127 0"/><feOffset dy="12.3"/><feGaussianBlur stdDeviation="6.1"/><feColorMatrix values="0 0 0 0 0.529167 0 0 0 0 0.529167 0 0 0 0 0.529167 0 0 0 0.14 0"/><feBlend in2="BackgroundImageFix" result="effect1_dropShadow"/><feBlend in="SourceGraphic" in2="effect1_dropShadow" result="shape"/></filter><filter id="filter5_d" x="706.5" y="241" width="55.3" height="55.3" filterUnits="userSpaceOnUse" color-interpolation-filters="sRGB"><feFlood flood-opacity="0" result="BackgroundImageFix"/><feColorMatrix in="SourceAlpha" values="0 0 0 0 0 0 0 0 0 0 0 0 0 0 0 0 0 0 127 0"/><feOffset dy="10"/><feGaussianBlur stdDeviation="5"/><feColorMatrix values="0 0 0 0 0.529167 0 0 0 0 0.529167 0 0 0 0 0.529167 0 0 0 0.14 0"/><feBlend in2="BackgroundImageFix" result="effect1_dropShadow"/><feBlend in="SourceGraphic" in2="effect1_dropShadow" result="shape"/></filter><filter id="filter6_d" x="984.9" y="84.7" width="40.1" height="40.1" filterUnits="userSpaceOnUse" color-interpolation-filters="sRGB"><feFlood flood-opacity="0" result="BackgroundImageFix"/><feColorMatrix in="SourceAlpha" values="0 0 0 0 0 0 0 0 0 0 0 0 0 0 0 0 0 0 127 0"/><feOffset dy="7.2"/><feGaussianBlur stdDeviation="3.6"/><feColorMatrix values="0 0 0 0 0.529167 0 0 0 0 0.529167 0 0 0 0 0.529167 0 0 0 0.14 0"/><feBlend in2="BackgroundImageFix" result="effect1_dropShadow"/><feBlend in="SourceGraphic" in2="effect1_dropShadow" result="shape"/></filter><filter id="filter7_d" x="744.2" y="131.7" width="67.8" height="67.8" filterUnits="userSpaceOnUse" color-interpolation-filters="sRGB"><feFlood flood-opacity="0" result="BackgroundImageFix"/><feColorMatrix in="SourceAlpha" values="0 0 0 0 0 0 0 0 0 0 0 0 0 0 0 0 0 0 127 0"/><feOffset dy="12.2"/><feGaussianBlur stdDeviation="6.1"/><feColorMatrix values="0 0 0 0 0.529167 0 0 0 0 0.529167 0 0 0 0 0.529167 0 0 0 0.14 0"/><feBlend in2="BackgroundImageFix" result="effect1_dropShadow"/><feBlend in="SourceGraphic" in2="effect1_dropShadow" result="shape"/></filter><filter id="filter8_d" x="646.1" y="114.8" width="52.9" height="52.9" filterUnits="userSpaceOnUse" color-interpolation-filters="sRGB"><feFlood flood-opacity="0" result="BackgroundImageFix"/><feColorMatrix in="SourceAlpha" values="0 0 0 0 0 0 0 0 0 0 0 0 0 0 0 0 0 0 127 0"/><feOffset dy="9.5"/><feGaussianBlur stdDeviation="4.8"/><feColorMatrix values="0 0 0 0 0.529167 0 0 0 0 0.529167 0 0 0 0 0.529167 0 0 0 0.14 0"/><feBlend in2="BackgroundImageFix" result="effect1_dropShadow"/><feBlend in="SourceGraphic" in2="effect1_dropShadow" result="shape"/></filter><filter id="filter9_d" x="546.7" y="160.8" width="53.7" height="53.7" filterUnits="userSpaceOnUse" color-interpolation-filters="sRGB"><feFlood flood-opacity="0" result="BackgroundImageFix"/><feColorMatrix in="SourceAlpha" values="0 0 0 0 0 0 0 0 0 0 0 0 0 0 0 0 0 0 127 0"/><feOffset dy="9.7"/><feGaussianBlur stdDeviation="4.9"/><feColorMatrix values="0 0 0 0 0.529167 0 0 0 0 0.529167 0 0 0 0 0.529167 0 0 0 0.14 0"/><feBlend in2="BackgroundImageFix" result="effect1_dropShadow"/><feBlend in="SourceGraphic" in2="effect1_dropShadow" result="shape"/></filter><filter id="filter10_d" x="509.9" y="103.8" width="40.1" height="40.1" filterUnits="userSpaceOnUse" color-interpolation-filters="sRGB"><feFlood flood-opacity="0" result="BackgroundImageFix"/><feColorMatrix in="SourceAlpha" values="0 0 0 0 0 0 0 0 0 0 0 0 0 0 0 0 0 0 127 0"/><feOffset dy="7.2"/><feGaussianBlur stdDeviation="3.6"/><feColorMatrix values="0 0 0 0 0.529167 0 0 0 0 0.529167 0 0 0 0 0.529167 0 0 0 0.14 0"/><feBlend in2="BackgroundImageFix" result="effect1_dropShadow"/><feBlend in="SourceGraphic" in2="effect1_dropShadow" result="shape"/></filter><filter id="filter11_d" x="412.5" y="17" width="33.1" height="33.1" filterUnits="userSpaceOnUse" color-interpolation-filters="sRGB"><feFlood flood-opacity="0" result="BackgroundImageFix"/><feColorMatrix in="SourceAlpha" values="0 0 0 0 0 0 0 0 0 0 0 0 0 0 0 0 0 0 127 0"/><feOffset dy="6"/><feGaussianBlur stdDeviation="3"/><feColorMatrix values="0 0 0 0 0.529167 0 0 0 0 0.529167 0 0 0 0 0.529167 0 0 0 0.14 0"/><feBlend in2="BackgroundImageFix" result="effect1_dropShadow"/><feBlend in="SourceGraphic" in2="effect1_dropShadow" result="shape"/></filter><filter id="filter12_d" x="355.2" y="98.4" width="23.9" height="23.9" filterUnits="userSpaceOnUse" color-interpolation-filters="sRGB"><feFlood flood-opacity="0" result="BackgroundImageFix"/><feColorMatrix in="SourceAlpha" values="0 0 0 0 0 0 0 0 0 0 0 0 0 0 0 0 0 0 127 0"/><feOffset dy="4.3"/><feGaussianBlur stdDeviation="2.2"/><feColorMatrix values="0 0 0 0 0.529167 0 0 0 0 0.529167 0 0 0 0 0.529167 0 0 0 0.14 0"/><feBlend in2="BackgroundImageFix" result="effect1_dropShadow"/><feBlend in="SourceGraphic" in2="effect1_dropShadow" result="shape"/></filter><filter id="filter13_d" x="729.8" y="75.7" width="23.9" height="23.9" filterUnits="userSpaceOnUse" color-interpolation-filters="sRGB"><feFlood flood-opacity="0" result="BackgroundImageFix"/><feColorMatrix in="SourceAlpha" values="0 0 0 0 0 0 0 0 0 0 0 0 0 0 0 0 0 0 127 0"/><feOffset dy="4.3"/><feGaussianBlur stdDeviation="2.2"/><feColorMatrix values="0 0 0 0 0.529167 0 0 0 0 0.529167 0 0 0 0 0.529167 0 0 0 0.14 0"/><feBlend in2="BackgroundImageFix" result="effect1_dropShadow"/><feBlend in="SourceGraphic" in2="effect1_dropShadow" result="shape"/></filter><filter id="filter14_d" x="345" y="27.6" width="40.1" height="40.1" filterUnits="userSpaceOnUse" color-interpolation-filters="sRGB"><feFlood flood-opacity="0" result="BackgroundImageFix"/><feColorMatrix in="SourceAlpha" values="0 0 0 0 0 0 0 0 0 0 0 0 0 0 0 0 0 0 127 0"/><feOffset dy="7.2"/><feGaussianBlur stdDeviation="3.6"/><feColorMatrix values="0 0 0 0 0.529167 0 0 0 0 0.529167 0 0 0 0 0.529167 0 0 0 0.14 0"/><feBlend in2="BackgroundImageFix" result="effect1_dropShadow"/><feBlend in="SourceGraphic" in2="effect1_dropShadow" result="shape"/></filter><filter id="filter15_d" x="264.4" y=".4" width="30.6" height="30.6" filterUnits="userSpaceOnUse" color-interpolation-filters="sRGB"><feFlood flood-opacity="0" result="BackgroundImageFix"/><feColorMatrix in="SourceAlpha" values="0 0 0 0 0 0 0 0 0 0 0 0 0 0 0 0 0 0 127 0"/><feOffset dy="5.5"/><feGaussianBlur stdDeviation="2.8"/><feColorMatrix values="0 0 0 0 0.529167 0 0 0 0 0.529167 0 0 0 0 0.529167 0 0 0 0.14 0"/><feBlend in2="BackgroundImageFix" result="effect1_dropShadow"/><feBlend in="SourceGraphic" in2="effect1_dropShadow" result="shape"/></filter><filter id="filter16_d" x="862.1" y="93.2" width="30.6" height="30.6" filterUnits="userSpaceOnUse" color-interpolation-filters="sRGB"><feFlood flood-opacity="0" result="BackgroundImageFix"/><feColorMatrix in="SourceAlpha" values="0 0 0 0 0 0 0 0 0 0 0 0 0 0 0 0 0 0 127 0"/><feOffset dy="5.5"/><feGaussianBlur stdDeviation="2.8"/><feColorMatrix values="0 0 0 0 0.529167 0 0 0 0 0.529167 0 0 0 0 0.529167 0 0 0 0.14 0"/><feBlend in2="BackgroundImageFix" result="effect1_dropShadow"/><feBlend in="SourceGraphic" in2="effect1_dropShadow" result="shape"/></filter><filter id="filter17_d" x="792.5" y="218" width="30.6" height="30.6" filterUnits="userSpaceOnUse" color-interpolation-filters="sRGB"><feFlood flood-opacity="0" result="BackgroundImageFix"/><feColorMatrix in="SourceAlpha" values="0 0 0 0 0 0 0 0 0 0 0 0 0 0 0 0 0 0 127 0"/><feOffset dy="5.5"/><feGaussianBlur stdDeviation="2.8"/><feColorMatrix values="0 0 0 0 0.529167 0 0 0 0 0.529167 0 0 0 0 0.529167 0 0 0 0.14 0"/><feBlend in2="BackgroundImageFix" result="effect1_dropShadow"/><feBlend in="SourceGraphic" in2="effect1_dropShadow" result="shape"/></filter><filter id="filter18_d" x="272.4" y="135.9" width="40.1" height="40.1" filterUnits="userSpaceOnUse" color-interpolation-filters="sRGB"><feFlood flood-opacity="0" result="BackgroundImageFix"/><feColorMatrix in="SourceAlpha" values="0 0 0 0 0 0 0 0 0 0 0 0 0 0 0 0 0 0 127 0"/><feOffset dy="7.2"/><feGaussianBlur stdDeviation="3.6"/><feColorMatrix values="0 0 0 0 0.529167 0 0 0 0 0.529167 0 0 0 0 0.529167 0 0 0 0.14 0"/><feBlend in2="BackgroundImageFix" result="effect1_dropShadow"/><feBlend in="SourceGraphic" in2="effect1_dropShadow" result="shape"/></filter><filter id="filter19_d" x="285.3" y="441.9" width="40.1" height="40.1" filterUnits="userSpaceOnUse" color-interpolation-filters="sRGB"><feFlood flood-opacity="0" result="BackgroundImageFix"/><feColorMatrix in="SourceAlpha" values="0 0 0 0 0 0 0 0 0 0 0 0 0 0 0 0 0 0 127 0"/><feOffset dy="7.2"/><feGaussianBlur stdDeviation="3.6"/><feColorMatrix values="0 0 0 0 0.529167 0 0 0 0 0.529167 0 0 0 0 0.529167 0 0 0 0.14 0"/><feBlend in2="BackgroundImageFix" result="effect1_dropShadow"/><feBlend in="SourceGraphic" in2="effect1_dropShadow" result="shape"/></filter><filter id="filter20_d" x="306" y="365.9" width="54.6" height="54.6" filterUnits="userSpaceOnUse" color-interpolation-filters="sRGB"><feFlood flood-opacity="0" result="BackgroundImageFix"/><feColorMatrix in="SourceAlpha" values="0 0 0 0 0 0 0 0 0 0 0 0 0 0 0 0 0 0 127 0"/><feOffset dy="9.9"/><feGaussianBlur stdDeviation="4.9"/><feColorMatrix values="0 0 0 0 0.529167 0 0 0 0 0.529167 0 0 0 0 0.529167 0 0 0 0.14 0"/><feBlend in2="BackgroundImageFix" result="effect1_dropShadow"/><feBlend in="SourceGraphic" in2="effect1_dropShadow" result="shape"/></filter><filter id="filter21_d" x="364.6" y="363.6" width="26.6" height="26.6" filterUnits="userSpaceOnUse" color-interpolation-filters="sRGB"><feFlood flood-opacity="0" result="BackgroundImageFix"/><feColorMatrix in="SourceAlpha" values="0 0 0 0 0 0 0 0 0 0 0 0 0 0 0 0 0 0 127 0"/><feOffset dy="4.8"/><feGaussianBlur stdDeviation="2.4"/><feColorMatrix values="0 0 0 0 0.529167 0 0 0 0 0.529167 0 0 0 0 0.529167 0 0 0 0.14 0"/><feBlend in2="BackgroundImageFix" result="effect1_dropShadow"/><feBlend in="SourceGraphic" in2="effect1_dropShadow" result="shape"/></filter><filter id="filter22_d" x="271.8" y="317.3" width="40.1" height="40.1" filterUnits="userSpaceOnUse" color-interpolation-filters="sRGB"><feFlood flood-opacity="0" result="BackgroundImageFix"/><feColorMatrix in="SourceAlpha" values="0 0 0 0 0 0 0 0 0 0 0 0 0 0 0 0 0 0 127 0"/><feOffset dy="7.2"/><feGaussianBlur stdDeviation="3.6"/><feColorMatrix values="0 0 0 0 0.529167 0 0 0 0 0.529167 0 0 0 0 0.529167 0 0 0 0.14 0"/><feBlend in2="BackgroundImageFix" result="effect1_dropShadow"/><feBlend in="SourceGraphic" in2="effect1_dropShadow" result="shape"/></filter><filter id="filter23_d" x="30.7" y="95.3" width="26.7" height="26.7" filterUnits="userSpaceOnUse" color-interpolation-filters="sRGB"><feFlood flood-opacity="0" result="BackgroundImageFix"/><feColorMatrix in="SourceAlpha" values="0 0 0 0 0 0 0 0 0 0 0 0 0 0 0 0 0 0 127 0"/><feOffset dy="4.8"/><feGaussianBlur stdDeviation="2.4"/><feColorMatrix values="0 0 0 0 0.529167 0 0 0 0 0.529167 0 0 0 0 0.529167 0 0 0 0.14 0"/><feBlend in2="BackgroundImageFix" result="effect1_dropShadow"/><feBlend in="SourceGraphic" in2="effect1_dropShadow" result="shape"/></filter><filter id="filter24_d" x="187.7" y="94" width="40.1" height="40.1" filterUnits="userSpaceOnUse" color-interpolation-filters="sRGB"><feFlood flood-opacity="0" result="BackgroundImageFix"/><feColorMatrix in="SourceAlpha" values="0 0 0 0 0 0 0 0 0 0 0 0 0 0 0 0 0 0 127 0"/><feOffset dy="7.2"/><feGaussianBlur stdDeviation="3.6"/><feColorMatrix values="0 0 0 0 0.529167 0 0 0 0 0.529167 0 0 0 0 0.529167 0 0 0 0.14 0"/><feBlend in2="BackgroundImageFix" result="effect1_dropShadow"/><feBlend in="SourceGraphic" in2="effect1_dropShadow" result="shape"/></filter><filter id="filter25_d" x="111.4" y="84.7" width="40.1" height="40.1" filterUnits="userSpaceOnUse" color-interpolation-filters="sRGB"><feFlood flood-opacity="0" result="BackgroundImageFix"/><feColorMatrix in="SourceAlpha" values="0 0 0 0 0 0 0 0 0 0 0 0 0 0 0 0 0 0 127 0"/><feOffset dy="7.2"/><feGaussianBlur stdDeviation="3.6"/><feColorMatrix values="0 0 0 0 0.529167 0 0 0 0 0.529167 0 0 0 0 0.529167 0 0 0 0.14 0"/><feBlend in2="BackgroundImageFix" result="effect1_dropShadow"/><feBlend in="SourceGraphic" in2="effect1_dropShadow" result="shape"/></filter><filter id="filter26_d" x="149.1" y="142.8" width="58.6" height="58.6" filterUnits="userSpaceOnUse" color-interpolation-filters="sRGB"><feFlood flood-opacity="0" result="BackgroundImageFix"/><feColorMatrix in="SourceAlpha" values="0 0 0 0 0 0 0 0 0 0 0 0 0 0 0 0 0 0 127 0"/><feOffset dy="10.6"/><feGaussianBlur stdDeviation="5.3"/><feColorMatrix values="0 0 0 0 0.529167 0 0 0 0 0.529167 0 0 0 0 0.529167 0 0 0 0.14 0"/><feBlend in2="BackgroundImageFix" result="effect1_dropShadow"/><feBlend in="SourceGraphic" in2="effect1_dropShadow" result="shape"/></filter><filter id="filter27_d" x="182.4" y="237.5" width="33.2" height="33.2" filterUnits="userSpaceOnUse" color-interpolation-filters="sRGB"><feFlood flood-opacity="0" result="BackgroundImageFix"/><feColorMatrix in="SourceAlpha" values="0 0 0 0 0 0 0 0 0 0 0 0 0 0 0 0 0 0 127 0"/><feOffset dy="6"/><feGaussianBlur stdDeviation="3"/><feColorMatrix values="0 0 0 0 0.529167 0 0 0 0 0.529167 0 0 0 0 0.529167 0 0 0 0.14 0"/><feBlend in2="BackgroundImageFix" result="effect1_dropShadow"/><feBlend in="SourceGraphic" in2="effect1_dropShadow" result="shape"/></filter><filter id="filter28_d" x="235.2" y="203.4" width="35.3" height="35.3" filterUnits="userSpaceOnUse" color-interpolation-filters="sRGB"><feFlood flood-opacity="0" result="BackgroundImageFix"/><feColorMatrix in="SourceAlpha" values="0 0 0 0 0 0 0 0 0 0 0 0 0 0 0 0 0 0 127 0"/><feOffset dy="6.4"/><feGaussianBlur stdDeviation="3.2"/><feColorMatrix values="0 0 0 0 0.529167 0 0 0 0 0.529167 0 0 0 0 0.529167 0 0 0 0.14 0"/><feBlend in2="BackgroundImageFix" result="effect1_dropShadow"/><feBlend in="SourceGraphic" in2="effect1_dropShadow" result="shape"/></filter><filter id="filter29_d" x="914.1" y="436.9" width="30.6" height="30.6" filterUnits="userSpaceOnUse" color-interpolation-filters="sRGB"><feFlood flood-opacity="0" result="BackgroundImageFix"/><feColorMatrix in="SourceAlpha" values="0 0 0 0 0 0 0 0 0 0 0 0 0 0 0 0 0 0 127 0"/><feOffset dy="5.5"/><feGaussianBlur stdDeviation="2.8"/><feColorMatrix values="0 0 0 0 0.529167 0 0 0 0 0.529167 0 0 0 0 0.529167 0 0 0 0.14 0"/><feBlend in2="BackgroundImageFix" result="effect1_dropShadow"/><feBlend in="SourceGraphic" in2="effect1_dropShadow" result="shape"/></filter></defs></svg>
