<svg stroke="currentColor" fill="currentColor" stroke-width="0" version="1" viewBox="0 0 48 48" height="1em" width="1em" xmlns="http://www.w3.org/2000/svg"><path fill="#78909C" d="M40 41H8c-2 0-4-2-4-4V16l2-3L24 0l18 13 2 3v21c0 2-2 4-4 4z" stroke="none"/><path fill="#AED581" stroke="none" d="M14 1h20v31H14z"/><g fill="#558B2F" stroke="none"><path d="M13 0v33h22V0H13zm20 31H15V2h18v29z"/><path d="M34 3c0 2 0 3-2 3s-3-1-3-3 1-2 3-2 2 0 2 2zM16 1c2 0 3 0 3 2s-1 3-3 3-2-1-2-3 0-2 2-2z"/><circle cx="24" cy="8" r="2"/><circle cx="24" cy="20" r="6"/></g><path fill="#CFD8DC" d="M40 41H8c-2 0-4-2-4-4V17l20 13 20-13v20c0 2-2 4-4 4z" stroke="none"/></svg>
