<svg width="337" height="170" xmlns="http://www.w3.org/2000/svg" xml:space="preserve" version="1.1">

 <g>
  <title>Layer 1</title>
  <path id="svg_1" fill="#e5231e" d="m0.00001,0l335.2,0l0,22l-335.2,0l0,-22z" class="st0"/>
  <path id="svg_2" fill="#5a5a5a" d="m91.60001,148.6l-34.5,0l12,18.5l34.4,0l-11.9,-18.5zm-20.7,-32.1c8,-3.1 11.9,-6 16.8,-13a45.3,45.3 0 0 0 8.8,-26.6l0,-3.6c0,-15.5 -5,-23.2 -13.5,-31.7a51.3,51.3 0 0 0 -36.6,-14.3l-45.6,0l0,106.8l28.3,0l0,-28.8l18.7,28.8l34.3,0l-11.3,-17.6l0.1,0zm-21.8,-22.7l-20.2,0l0,-38.6l15.8,0c6.7,0 13.7,2 17.3,5.5c3.7,3.9 5.6,8.4 5.6,13.5c0,10.6 -8.3,19.6 -18.5,19.6zm-48.2,73.3l28,0l0,-18.5l-28,0l0,18.5z" class="st1"/>
  <path id="svg_3" fill="#e5231e" d="m227.90001,170l0,-21.4l-22.4,0l22.4,21.4zm-28.2,-143l0,77.6l-84.2,-80.2l0,109.6l28.1,0l0,-44.4l46.6,44.4l37.7,0l0,-107l-28.2,0zm-84.2,140.3l28.1,0l0,-18.7l-28,0l0,18.7l-0.1,0z" class="st0"/>
  <path id="svg_4" fill="#5a5a5a" d="m238.90001,27.3l0,27.7l34.2,0l0,79l28,0l0,-79l34.3,0l0,-27.7l-96.5,0zm34.2,139.2l28,0l0,-17.9l-28,0l0,17.9z" class="st1"/>
 </g>
</svg>