<?xml version="1.0" encoding="UTF-8"?>
<svg xmlns="http://www.w3.org/2000/svg" xmlns:xlink="http://www.w3.org/1999/xlink" width="375pt" height="371.249998pt" viewBox="0 0 375 371.249998" version="1.2">
<defs>
<clipPath id="clip1">
  <path d="M 2.207031 6 L 350.558594 6 L 350.558594 359.273438 L 2.207031 359.273438 Z M 2.207031 6 "/>
</clipPath>
<clipPath id="clip2">
  <path d="M 53.222656 14 L 374.621094 14 L 374.621094 343 L 53.222656 343 Z M 53.222656 14 "/>
</clipPath>
</defs>
<g id="surface1">
<g clip-path="url(#clip1)" clip-rule="nonzero">
<path style=" stroke:none;fill-rule:nonzero;fill:rgb(100%,78.819275%,63.529968%);fill-opacity:1;" d="M 286.9375 285.625 L 314.015625 290.378906 L 185.449219 359.332031 L 2.207031 292.269531 L 71.28125 261.992188 C 45.378906 230.910156 29.179688 191.503906 29.179688 151.675781 C 29.179688 64.410156 108.296875 -7.25 194.160156 8.203125 C 293.875 26.148438 350.492188 56.125 350.492188 143.390625 C 350.492188 195.71875 325.640625 250.304688 286.9375 285.625 "/>
</g>
<g clip-path="url(#clip2)" clip-rule="nonzero">
<path style=" stroke:none;fill-rule:nonzero;fill:rgb(96.078491%,42.349243%,36.468506%);fill-opacity:1;" d="M 369.199219 87.777344 C 366.355469 84.585938 361.464844 84.308594 358.277344 87.152344 L 352.496094 92.3125 C 349.308594 95.15625 349.03125 100.046875 351.875 103.238281 L 355.746094 107.574219 C 357.410156 109.441406 357.25 112.308594 355.382812 113.976562 L 338.226562 129.285156 C 336.359375 130.953125 333.492188 130.789062 331.820312 128.917969 L 327.953125 124.582031 C 325.113281 121.394531 320.21875 121.113281 317.035156 123.960938 L 311.253906 129.121094 C 308.066406 131.960938 307.785156 136.851562 310.632812 140.042969 C 318.867188 149.273438 333.023438 150.078125 342.253906 141.84375 L 367.398438 119.40625 C 376.628906 111.171875 377.433594 97.007812 369.199219 87.777344 Z M 316.714844 83.402344 C 335.746094 83.402344 351.171875 67.972656 351.171875 48.933594 C 351.171875 29.902344 335.746094 14.472656 316.714844 14.472656 C 297.683594 14.472656 282.257812 29.902344 282.257812 48.933594 C 282.257812 67.972656 297.683594 83.402344 316.714844 83.402344 Z M 124.15625 110.996094 L 124.15625 92.574219 C 124.15625 90.105469 122.160156 88.105469 119.695312 88.105469 L 58.15625 88.105469 C 55.6875 88.105469 53.691406 90.105469 53.691406 92.574219 L 53.691406 117.132812 C 53.691406 119.59375 55.6875 121.59375 58.15625 121.59375 L 135.15625 121.59375 Z M 98.742188 67.445312 C 102 67.445312 104.65625 64.792969 104.65625 61.535156 C 104.65625 58.273438 102 55.621094 98.742188 55.621094 C 95.480469 55.621094 92.832031 58.273438 92.832031 61.535156 C 92.832031 64.792969 95.480469 67.445312 98.742188 67.445312 Z M 80.449219 67.445312 C 83.703125 67.445312 86.359375 64.792969 86.359375 61.535156 C 86.359375 58.273438 83.703125 55.621094 80.449219 55.621094 C 77.1875 55.621094 74.535156 58.273438 74.535156 61.535156 C 74.535156 64.792969 77.1875 67.445312 80.449219 67.445312 Z M 62.152344 67.445312 C 65.410156 67.445312 68.0625 64.792969 68.0625 61.535156 C 68.0625 58.273438 65.410156 55.621094 62.152344 55.621094 C 58.890625 55.621094 56.242188 58.273438 56.242188 61.535156 C 56.242188 64.792969 58.890625 67.445312 62.152344 67.445312 Z M 314.359375 229.519531 C 313.066406 211.285156 310.691406 182.816406 307.765625 171.164062 C 303.300781 153.382812 289.226562 136.09375 289.226562 136.09375 C 289.101562 136.097656 288.984375 136.109375 288.863281 136.121094 C 288.609375 134.613281 288.164062 133.40625 287.472656 132.589844 C 281.832031 125.949219 265.496094 116.738281 254.226562 110.851562 C 247.738281 107.46875 240.796875 105.171875 233.699219 103.996094 L 230.21875 83.84375 L 207.445312 96.640625 C 207.445312 96.640625 206.359375 100.65625 205.246094 105.484375 C 204.878906 105.589844 204.511719 105.699219 204.148438 105.808594 C 194.914062 100.289062 182.847656 103.261719 176.46875 113.640625 C 170.484375 123.378906 163.367188 135.714844 156.433594 149.566406 C 146.203125 170 139.207031 187.882812 135.277344 198.816406 C 132.988281 205.1875 135.890625 212.253906 141.988281 215.195312 L 144.601562 216.457031 C 150.460938 219.285156 157.503906 217.433594 161.21875 212.089844 L 167.375 203.222656 C 167.453125 203.636719 167.515625 204.050781 167.589844 204.464844 L 179.105469 266.707031 L 277.058594 283.894531 L 269.367188 236.796875 C 267.289062 224.070312 268.542969 211.027344 273.023438 198.9375 C 273.9375 196.472656 274.898438 193.832031 275.875 191.085938 L 288.796875 240.109375 C 290.769531 247.59375 298.710938 251.796875 306.007812 249.210938 C 312.070312 249.625 317.085938 245.570312 316.695312 239.65625 C 316.566406 237.738281 314.523438 231.816406 314.359375 229.519531 Z M 88.074219 233.203125 C 84.964844 233.203125 82.199219 234.492188 80.28125 236.824219 C 77.972656 239.640625 77.128906 243.695312 77.976562 247.949219 C 79.523438 255.738281 86.339844 262.074219 93.171875 262.074219 C 96.28125 262.074219 99.046875 260.789062 100.960938 258.453125 C 103.273438 255.636719 104.117188 251.578125 103.273438 247.328125 C 101.722656 239.539062 94.90625 233.203125 88.074219 233.203125 Z M 189.925781 331.761719 L 189.785156 331.757812 C 187.832031 331.757812 186.035156 334.058594 185.601562 337.113281 C 185.324219 339.074219 185.691406 340.894531 186.589844 341.984375 C 187.101562 342.605469 187.75 342.957031 188.46875 343 L 188.609375 343 C 190.5625 343 192.363281 340.699219 192.796875 337.648438 C 193.070312 335.683594 192.703125 333.863281 191.804688 332.773438 C 191.296875 332.148438 190.648438 331.800781 189.925781 331.761719 Z M 188.871094 291.417969 L 249.644531 303.9375 L 193.488281 325.527344 Z M 188.871094 291.417969 "/>
</g>
<path style=" stroke:none;fill-rule:nonzero;fill:rgb(80.389404%,52.549744%,62.348938%);fill-opacity:1;" d="M 231.082031 88.519531 C 232.53125 88.316406 233.945312 87.914062 235.21875 87.203125 C 237.351562 86.015625 239.050781 83.863281 239.230469 81.425781 C 239.40625 78.988281 237.761719 76.410156 235.363281 75.957031 C 235.160156 75.917969 234.960938 75.898438 234.757812 75.890625 C 237.289062 67.84375 239.820312 60.058594 237.761719 56.238281 C 235.390625 51.828125 218.003906 27.679688 197.683594 40.0625 C 188.964844 45.371094 183.953125 55.109375 184.148438 65.304688 C 184.089844 65.261719 184.035156 65.207031 183.972656 65.167969 C 182.863281 64.4375 181.167969 64.246094 180.34375 65.296875 C 179.871094 65.890625 179.824219 66.710938 179.855469 67.464844 C 180.003906 71.191406 181.535156 74.703125 183.042969 78.109375 C 183.628906 79.433594 184.523438 80.96875 185.96875 80.953125 C 186.042969 80.953125 186.109375 80.933594 186.179688 80.925781 C 189.007812 93.300781 194.808594 105.5625 204.082031 107.375 C 215.796875 109.671875 227.273438 98.644531 231.082031 88.519531 Z M 307.421875 248.597656 L 261.074219 278.757812 L 250.875 291.777344 C 250.875 291.777344 243.273438 296.34375 240.15625 297.761719 C 237.039062 299.179688 233.78125 301.019531 232.226562 301.019531 C 230.664062 301.019531 229.675781 298.613281 231.375 297.195312 C 233.074219 295.777344 239.734375 291.777344 239.734375 291.777344 L 242.421875 289.261719 C 242.421875 289.261719 235.527344 290.9375 234.066406 291.777344 C 232.605469 292.617188 228.117188 300.027344 225.992188 301.019531 C 223.867188 302.011719 221.035156 302.722656 221.175781 301.019531 C 221.316406 299.320312 227.410156 288.269531 227.410156 288.269531 L 237.605469 278.917969 L 224.351562 288.410156 C 224.351562 288.410156 216.878906 299.367188 214.425781 300.308594 C 211.96875 301.257812 205.699219 301.367188 212.261719 291.777344 C 212.261719 291.777344 217.019531 284.507812 221.511719 278.496094 L 216.253906 278.726562 L 209.003906 290.953125 C 208.46875 291.859375 207.453125 292.367188 206.40625 292.253906 C 204.566406 292.058594 203.472656 290.101562 204.265625 288.429688 L 206.089844 284.597656 C 200.96875 285.683594 198.46875 281.953125 199.351562 280.375 C 200.359375 278.578125 209.558594 277.3125 209.558594 277.3125 L 211.597656 273.015625 L 231.335938 270.261719 C 236.738281 269.097656 247.855469 265.738281 247.855469 265.738281 L 285.660156 231.257812 C 300.257812 227.804688 306.644531 237.945312 308.984375 243.484375 C 309.773438 245.34375 309.113281 247.496094 307.421875 248.597656 "/>
<path style=" stroke:none;fill-rule:nonzero;fill:rgb(98.429871%,76.469421%,63.139343%);fill-opacity:1;" d="M 189.878906 332.558594 C 188.328125 332.472656 186.765625 334.5625 186.390625 337.222656 C 186.011719 339.886719 186.964844 342.113281 188.515625 342.199219 C 190.0625 342.289062 191.628906 340.199219 192.003906 337.535156 C 192.382812 334.871094 191.429688 332.640625 189.878906 332.558594 Z M 101.707031 247.640625 C 100.296875 240.546875 94.195312 234.800781 88.074219 234.800781 C 81.953125 234.800781 78.128906 240.546875 79.539062 247.640625 C 80.949219 254.730469 87.050781 260.480469 93.171875 260.480469 C 99.296875 260.480469 103.117188 254.730469 101.707031 247.640625 Z M 239.535156 298.050781 L 257.289062 301.753906 L 257.289062 311.203125 L 190.140625 342.722656 C 188.371094 343.554688 186.347656 343.675781 184.488281 343.070312 L 35.765625 294.285156 C 33.53125 293.554688 31.851562 291.699219 31.335938 289.402344 L 5.363281 173.078125 C 4.945312 171.207031 5.953125 169.308594 7.738281 168.613281 L 15.425781 165.597656 C 16.167969 165.308594 16.976562 165.25 17.75 165.4375 L 172.859375 202.535156 C 175.988281 203.28125 178.335938 205.871094 178.785156 209.054688 L 189.835938 287.683594 L 204.265625 290.691406 C 204.640625 291.511719 205.40625 292.148438 206.40625 292.253906 C 207.179688 292.335938 207.929688 292.082031 208.492188 291.574219 L 211.921875 292.289062 C 210.507812 294.429688 209.757812 296.066406 209.484375 297.292969 L 190.753906 293.4375 L 194.796875 323.3125 L 243.992188 304.398438 L 226.398438 300.773438 C 227.484375 299.996094 228.996094 298.046875 230.421875 296.148438 L 232.253906 296.53125 C 231.894531 296.785156 231.59375 297.011719 231.375 297.195312 C 229.675781 298.613281 230.664062 301.019531 232.226562 301.019531 C 233.679688 301.019531 236.617188 299.417969 239.535156 298.050781 Z M 223.9375 294.796875 L 220.289062 294.035156 C 218.984375 295.746094 217.574219 297.488281 216.390625 298.714844 L 221.566406 299.78125 C 222.066406 298.542969 222.976562 296.675781 223.9375 294.796875 Z M 361.578125 86.578125 C 361.109375 86.050781 358.484375 87.628906 355.714844 90.097656 C 352.945312 92.570312 351.082031 95 351.546875 95.527344 C 352.019531 96.050781 354.644531 94.472656 357.410156 92.003906 C 360.179688 89.53125 362.046875 87.105469 361.578125 86.578125 Z M 371.347656 90.183594 C 367.511719 97.167969 361.398438 102.625 354.023438 105.640625 L 351.875 103.238281 C 349.03125 100.046875 349.3125 95.15625 352.496094 92.3125 L 358.277344 87.152344 C 361.464844 84.308594 366.355469 84.585938 369.199219 87.777344 Z M 316.714844 75.425781 C 331.316406 75.425781 343.199219 63.546875 343.199219 48.933594 C 343.199219 34.332031 331.316406 22.445312 316.714844 22.445312 C 302.109375 22.445312 290.230469 34.332031 290.230469 48.933594 C 290.230469 63.546875 302.109375 75.425781 316.714844 75.425781 Z M 65.804688 104.851562 C 65.804688 107.238281 67.738281 109.171875 70.125 109.171875 C 72.507812 109.171875 74.441406 107.238281 74.441406 104.851562 C 74.441406 102.46875 72.507812 100.535156 70.125 100.535156 C 67.738281 100.535156 65.804688 102.46875 65.804688 104.851562 Z M 84.101562 104.851562 C 84.101562 107.238281 86.035156 109.171875 88.417969 109.171875 C 90.804688 109.171875 92.738281 107.238281 92.738281 104.851562 C 92.738281 102.46875 90.804688 100.535156 88.417969 100.535156 C 86.035156 100.535156 84.101562 102.46875 84.101562 104.851562 Z M 111.03125 104.851562 C 111.03125 102.46875 109.101562 100.535156 106.714844 100.535156 C 104.332031 100.535156 102.398438 102.46875 102.398438 104.851562 C 102.398438 107.238281 104.332031 109.171875 106.714844 109.171875 C 109.101562 109.171875 111.03125 107.238281 111.03125 104.851562 Z M 57.835938 61.535156 C 57.835938 63.917969 59.765625 65.851562 62.152344 65.851562 C 64.535156 65.851562 66.464844 63.917969 66.464844 61.535156 C 66.464844 59.152344 64.535156 57.214844 62.152344 57.214844 C 59.765625 57.214844 57.835938 59.152344 57.835938 61.535156 Z M 76.128906 61.535156 C 76.128906 63.917969 78.0625 65.851562 80.449219 65.851562 C 82.828125 65.851562 84.761719 63.917969 84.761719 61.535156 C 84.761719 59.152344 82.828125 57.214844 80.449219 57.214844 C 78.0625 57.214844 76.128906 59.152344 76.128906 61.535156 Z M 94.425781 61.535156 C 94.425781 63.917969 96.355469 65.851562 98.742188 65.851562 C 101.125 65.851562 103.058594 63.917969 103.058594 61.535156 C 103.058594 59.152344 101.125 57.214844 98.742188 57.214844 C 96.355469 57.214844 94.425781 59.152344 94.425781 61.535156 Z M 44.707031 78.28125 L 33.707031 78.28125 L 44.707031 67.679688 L 44.707031 49.257812 C 44.707031 46.789062 46.707031 44.789062 49.171875 44.789062 L 100.679688 44.789062 C 94.242188 42.972656 87.925781 41.1875 81.769531 39.449219 C 82.015625 39.238281 82.253906 39.03125 82.5 38.824219 C 89.355469 40.761719 96.414062 42.757812 103.621094 44.789062 L 110.710938 44.789062 C 112.742188 44.789062 114.449219 46.148438 114.992188 48.003906 C 135.996094 53.933594 158.011719 60.148438 179.929688 66.332031 C 179.878906 66.597656 179.855469 66.867188 179.855469 67.140625 C 158.027344 60.980469 136.09375 54.792969 115.15625 48.878906 C 115.167969 49.003906 115.175781 49.128906 115.175781 49.257812 L 115.175781 73.8125 C 115.175781 73.96875 115.167969 74.125 115.152344 74.277344 C 115.152344 74.277344 115.152344 74.277344 115.152344 74.273438 C 135.816406 80.113281 157.464844 86.222656 179.027344 92.308594 C 178.785156 85.429688 184.886719 77.597656 185.160156 77.253906 C 185.167969 77.238281 185.1875 77.226562 185.199219 77.214844 C 185.195312 77.210938 185.1875 77.207031 185.179688 77.199219 C 184.261719 76.425781 183.378906 74.335938 183.203125 72.539062 C 183.027344 70.765625 183.609375 69.941406 184.503906 70.664062 C 184.722656 72.632812 185.023438 74.910156 185.390625 77.113281 C 185.398438 77.113281 185.398438 77.109375 185.402344 77.109375 C 185.457031 77.414062 185.515625 77.71875 185.570312 78.023438 C 184.476562 79.5 179.488281 86.585938 179.851562 92.539062 C 183.710938 93.628906 187.574219 94.714844 191.421875 95.804688 C 191.597656 96.136719 191.773438 96.460938 191.953125 96.785156 C 187.953125 95.65625 183.941406 94.527344 179.929688 93.390625 C 180.914062 99.890625 187.316406 101.042969 187.59375 101.089844 C 187.808594 101.125 187.953125 101.332031 187.917969 101.550781 C 187.882812 101.746094 187.714844 101.882812 187.527344 101.882812 C 187.503906 101.882812 187.484375 101.882812 187.460938 101.875 C 187.386719 101.867188 180.097656 100.578125 179.113281 93.351562 C 179.101562 93.285156 179.097656 93.222656 179.089844 93.15625 C 157.460938 87.054688 135.738281 80.921875 114.996094 75.0625 C 114.453125 76.917969 112.742188 78.28125 110.710938 78.28125 Z M 227.113281 87.003906 C 227.515625 87.246094 227.992188 87.367188 228.535156 87.367188 C 229.421875 87.367188 230.496094 87.039062 231.742188 86.390625 C 232.996094 86.042969 234.25 85.011719 234.867188 83.710938 C 235.679688 81.992188 235.074219 80.46875 233.519531 80.296875 C 231.960938 80.128906 230.039062 81.378906 229.226562 83.09375 C 228.546875 84.535156 228.871094 85.828125 229.914062 86.3125 C 228.898438 86.644531 228.085938 86.660156 227.527344 86.320312 C 226.460938 85.679688 226.53125 83.957031 226.535156 83.878906 C 226.550781 83.761719 227.019531 80.4375 230.480469 78.136719 C 230.710938 77.796875 230.972656 77.480469 231.273438 77.199219 C 231.371094 77.113281 231.472656 77.03125 231.574219 76.949219 C 231.457031 76.808594 231.257812 76.757812 231.089844 76.847656 C 226.285156 79.34375 225.761719 83.617188 225.742188 83.800781 C 225.742188 83.800781 225.742188 83.804688 225.742188 83.808594 C 225.742188 83.8125 225.738281 83.816406 225.738281 83.816406 C 225.734375 83.910156 225.613281 86.097656 227.113281 87.003906 Z M 60.703125 123.144531 C 60.261719 123.125 59.769531 122.550781 59.230469 121.59375 L 58.332031 121.59375 C 59.140625 123.109375 59.878906 123.90625 60.664062 123.941406 C 61.417969 123.976562 62.058594 123.351562 62.640625 122.035156 C 62.710938 121.878906 62.792969 121.742188 62.867188 121.59375 L 61.972656 121.59375 C 61.953125 121.636719 61.929688 121.671875 61.910156 121.710938 C 61.496094 122.652344 61.070312 123.179688 60.703125 123.144531 Z M 37.070312 126.289062 C 37.867188 126.1875 38.367188 125.125 38.734375 122.730469 C 40.085938 113.914062 45.261719 102.414062 49.148438 102.066406 C 50.484375 101.945312 51.621094 103.234375 52.542969 105.894531 C 52.941406 107.050781 53.320312 108.171875 53.691406 109.269531 L 53.691406 106.792969 C 53.558594 106.40625 53.429688 106.023438 53.292969 105.632812 C 52.242188 102.582031 50.824219 101.121094 49.078125 101.273438 C 44.453125 101.6875 39.21875 114.304688 37.945312 122.609375 C 37.527344 125.351562 37.03125 125.492188 36.976562 125.496094 C 36.222656 125.570312 34.492188 121.519531 33.234375 118.546875 C 33.199219 118.453125 33.15625 118.363281 33.121094 118.269531 C 33.015625 118.703125 32.90625 119.136719 32.804688 119.574219 C 34.71875 124.09375 35.839844 126.433594 37.070312 126.289062 Z M 156.855469 134.167969 C 155.082031 134.21875 154.648438 136.144531 154.296875 137.695312 C 154.066406 138.722656 153.828125 139.785156 153.300781 139.960938 C 153.007812 140.0625 152.40625 139.960938 151.175781 138.933594 C 149.539062 137.570312 148.34375 135.871094 147.296875 134.375 C 145.085938 131.238281 143.179688 128.523438 138.53125 130.625 C 137.324219 131.167969 136.058594 131.792969 134.835938 132.40625 C 129.527344 135.039062 124.042969 137.765625 121.726562 134.546875 C 120.597656 132.980469 120.332031 130.304688 120.050781 127.472656 C 119.859375 125.507812 119.652344 123.425781 119.113281 121.59375 L 118.285156 121.59375 C 118.839844 123.375 119.054688 125.476562 119.257812 127.550781 C 119.550781 130.492188 119.824219 133.273438 121.078125 135.011719 C 123.789062 138.785156 129.585938 135.902344 135.1875 133.117188 C 136.40625 132.515625 137.664062 131.886719 138.855469 131.347656 C 142.90625 129.523438 144.472656 131.75 146.640625 134.835938 C 147.722656 136.371094 148.949219 138.113281 150.660156 139.546875 C 151.914062 140.589844 152.832031 140.960938 153.558594 140.71875 C 154.507812 140.398438 154.78125 139.167969 155.078125 137.871094 C 155.464844 136.136719 155.800781 134.996094 156.875 134.964844 C 158.574219 134.90625 158.988281 135.742188 159.746094 137.242188 C 160.152344 138.039062 160.628906 138.964844 161.394531 139.957031 C 161.53125 139.695312 161.671875 139.4375 161.808594 139.179688 C 161.207031 138.347656 160.804688 137.5625 160.457031 136.878906 C 159.671875 135.332031 159.039062 134.128906 156.855469 134.167969 Z M 104.988281 127.121094 C 104.109375 127.347656 103.042969 126.9375 101.714844 125.875 C 99.835938 124.367188 98.6875 122.902344 97.921875 121.59375 L 97.007812 121.59375 C 97.800781 123.066406 99.042969 124.753906 101.214844 126.496094 C 102.753906 127.730469 104.050781 128.1875 105.1875 127.890625 C 107.054688 127.402344 108.011719 125.046875 109.019531 122.546875 C 109.152344 122.226562 109.28125 121.910156 109.414062 121.59375 L 108.550781 121.59375 C 108.460938 121.816406 108.371094 122.035156 108.28125 122.25 C 107.347656 124.554688 106.46875 126.734375 104.988281 127.121094 Z M 336.230469 179.414062 C 334.84375 179.601562 333.679688 180.941406 332.546875 182.234375 C 331.4375 183.503906 330.261719 184.820312 329.136719 184.769531 C 328.429688 184.742188 327.71875 184.230469 326.949219 183.199219 C 325.289062 180.976562 324.53125 178.691406 323.917969 176.851562 C 323.101562 174.390625 322.449219 172.449219 320.078125 172.910156 C 318.265625 173.261719 317.867188 176.167969 317.480469 178.976562 C 317.230469 180.789062 316.917969 183.042969 316.210938 183.246094 C 315.980469 183.3125 315.417969 183.214844 314.238281 181.808594 C 312.519531 179.761719 311.265625 177.089844 310.160156 174.734375 C 309.234375 172.761719 308.382812 170.953125 307.378906 169.71875 C 307.511719 170.199219 307.644531 170.683594 307.765625 171.164062 C 307.84375 171.480469 307.921875 171.808594 307.996094 172.144531 C 308.472656 173.023438 308.945312 174.023438 309.441406 175.074219 C 310.5625 177.472656 311.839844 180.195312 313.628906 182.320312 C 314.78125 183.695312 315.671875 184.230469 316.429688 184.011719 C 317.636719 183.664062 317.929688 181.542969 318.265625 179.085938 C 318.601562 176.671875 318.976562 173.933594 320.230469 173.691406 C 321.847656 173.378906 322.300781 174.511719 323.164062 177.105469 C 323.792969 178.996094 324.574219 181.351562 326.3125 183.675781 C 327.230469 184.910156 328.148438 185.53125 329.105469 185.566406 C 330.636719 185.617188 331.914062 184.167969 333.144531 182.757812 C 334.179688 181.578125 335.25 180.351562 336.335938 180.207031 C 339.257812 179.804688 340.1875 184.539062 340.203125 184.597656 C 340.269531 184.925781 341.308594 189.769531 343.089844 194.035156 C 343.207031 193.621094 343.332031 193.207031 343.449219 192.792969 C 341.914062 188.773438 340.996094 184.507812 340.984375 184.441406 C 340.9375 184.214844 339.894531 178.921875 336.230469 179.414062 Z M 141.757812 181.953125 C 99.320312 169.972656 58.988281 158.578125 29.199219 150.15625 C 29.195312 150.433594 29.191406 150.710938 29.1875 150.984375 C 58.996094 159.40625 99.1875 170.765625 141.453125 182.699219 C 141.558594 182.449219 141.65625 182.203125 141.757812 181.953125 Z M 268.726562 217.753906 C 268.699219 218.023438 268.683594 218.292969 268.660156 218.566406 C 274 220.070312 279.214844 221.535156 284.277344 222.960938 L 284.039062 222.0625 C 279.074219 220.667969 273.957031 219.226562 268.726562 217.753906 Z M 314.707031 231.511719 C 318.773438 232.652344 322.667969 233.742188 326.355469 234.777344 C 326.480469 234.539062 326.609375 234.296875 326.738281 234.058594 C 322.882812 232.976562 318.792969 231.832031 314.523438 230.628906 C 314.570312 230.90625 314.636719 231.203125 314.707031 231.511719 Z M 347.921875 113.585938 C 325.054688 107.214844 284.710938 95.871094 238.898438 82.957031 C 238.8125 83.214844 238.707031 83.460938 238.585938 83.703125 C 284.675781 96.691406 325.230469 108.09375 348.074219 114.457031 C 348.023438 114.167969 347.976562 113.875 347.921875 113.585938 Z M 310.304688 132.332031 C 310.777344 132.855469 313.402344 131.28125 316.167969 128.808594 C 318.9375 126.335938 320.800781 123.910156 320.332031 123.382812 C 319.863281 122.855469 317.238281 124.433594 314.46875 126.90625 C 311.699219 129.375 309.835938 131.804688 310.304688 132.332031 Z M 310.324219 130.117188 C 297.414062 126.492188 282.871094 122.402344 267.253906 118.003906 C 266.304688 117.457031 265.355469 116.910156 264.40625 116.375 C 281.335938 121.144531 297.074219 125.570312 310.914062 129.453125 C 310.914062 129.457031 310.914062 129.457031 310.914062 129.457031 C 311.023438 129.34375 311.132812 129.226562 311.253906 129.121094 L 317.035156 123.960938 C 320.21875 121.113281 325.113281 121.394531 327.953125 124.582031 L 330.101562 126.988281 C 326.640625 134.265625 320.398438 139.835938 312.777344 142.445312 L 310.632812 140.042969 C 308.09375 137.199219 308.050781 133.007812 310.328125 130.113281 C 310.328125 130.113281 310.324219 130.117188 310.324219 130.117188 Z M 345.335938 139.09375 L 344.628906 139.722656 C 346.695312 140.300781 348.65625 140.847656 350.472656 141.351562 C 350.46875 141.074219 350.46875 140.796875 350.464844 140.523438 C 348.855469 140.074219 347.140625 139.597656 345.335938 139.09375 Z M 313.574219 219.03125 C 320.109375 220.863281 326.195312 222.570312 331.746094 224.125 C 331.859375 223.878906 331.96875 223.632812 332.082031 223.390625 C 326.421875 221.804688 320.199219 220.0625 313.507812 218.183594 C 313.53125 218.464844 313.554688 218.746094 313.574219 219.03125 Z M 270.570312 206.9375 C 274.042969 207.917969 277.460938 208.878906 280.8125 209.824219 L 280.578125 208.925781 C 277.359375 208.023438 274.085938 207.101562 270.757812 206.164062 C 270.695312 206.421875 270.636719 206.679688 270.570312 206.9375 Z M 146.027344 171.824219 C 102.359375 159.5 60.570312 147.691406 29.746094 138.980469 C 29.769531 138.707031 29.800781 138.441406 29.824219 138.171875 C 60.628906 146.878906 102.535156 158.714844 146.347656 171.085938 C 146.238281 171.335938 146.136719 171.578125 146.027344 171.824219 "/>
<path style=" stroke:none;fill-rule:nonzero;fill:rgb(35.688782%,33.729553%,33.729553%);fill-opacity:1;" d="M 333.835938 132.796875 C 333.355469 132.625 332.878906 132.457031 332.417969 132.265625 C 331.957031 132.070312 331.5 131.871094 331.054688 131.640625 C 330.210938 131.207031 329.398438 130.707031 328.773438 129.988281 L 328.917969 129.75 L 329.617188 128.417969 L 329.933594 127.738281 L 330.085938 127.398438 L 330.164062 127.226562 L 330.199219 127.136719 L 330.21875 127.097656 L 330.226562 127.074219 L 330.234375 127.0625 L 330.238281 127.058594 C 330.175781 127.027344 330.375 127.121094 330.101562 126.988281 C 329.824219 126.859375 330.023438 126.953125 329.960938 126.929688 L 329.949219 126.941406 L 329.941406 126.964844 L 329.917969 127.003906 L 329.871094 127.085938 L 329.78125 127.246094 L 329.59375 127.566406 L 329.238281 128.214844 L 328.460938 129.472656 L 327.632812 130.699219 L 326.753906 131.882812 C 325.542969 133.425781 324.210938 134.878906 322.734375 136.171875 C 321.277344 137.484375 319.683594 138.644531 318.007812 139.660156 L 316.730469 140.398438 L 315.421875 141.074219 L 314.085938 141.703125 L 313.402344 141.988281 L 313.0625 142.132812 L 312.890625 142.203125 L 312.804688 142.242188 L 312.742188 142.269531 L 312.730469 142.273438 L 312.726562 142.273438 C 312.75 142.351562 312.664062 142.105469 312.777344 142.445312 C 312.894531 142.789062 312.816406 142.539062 312.84375 142.617188 L 312.847656 142.613281 L 312.859375 142.613281 L 312.878906 142.605469 L 312.925781 142.589844 L 313.195312 142.503906 L 313.550781 142.390625 L 314.261719 142.152344 L 315.664062 141.605469 L 317.03125 140.972656 L 318.363281 140.273438 C 320.117188 139.285156 321.75 138.09375 323.265625 136.761719 C 324.75 135.40625 326.121094 133.914062 327.292969 132.285156 L 328.136719 131.039062 L 328.554688 130.347656 C 328.75 130.753906 329.039062 131.109375 329.359375 131.414062 C 329.753906 131.796875 330.21875 132.09375 330.691406 132.347656 C 331.171875 132.597656 331.671875 132.800781 332.191406 132.933594 C 332.710938 133.070312 333.242188 133.164062 333.78125 133.152344 C 333.855469 133.148438 333.925781 133.101562 333.953125 133.027344 C 333.984375 132.933594 333.933594 132.828125 333.835938 132.796875 Z M 359.023438 106.144531 C 358.625 105.804688 358.207031 105.515625 357.757812 105.269531 C 357.703125 105.238281 357.636719 105.242188 357.585938 105.285156 C 357.519531 105.335938 357.511719 105.4375 357.5625 105.5 C 357.886719 105.898438 358.238281 106.253906 358.550781 106.621094 C 358.863281 106.992188 359.160156 107.359375 359.390625 107.757812 C 359.621094 108.144531 359.777344 108.570312 359.867188 109.003906 C 359.953125 109.445312 359.945312 109.894531 359.816406 110.347656 L 359.816406 110.351562 C 359.796875 110.421875 359.820312 110.5 359.882812 110.546875 C 359.960938 110.609375 360.074219 110.59375 360.136719 110.511719 C 360.480469 110.070312 360.601562 109.480469 360.570312 108.925781 C 360.542969 108.363281 360.355469 107.824219 360.074219 107.347656 C 359.785156 106.882812 359.425781 106.476562 359.023438 106.144531 Z M 371.347656 90.183594 C 371.078125 90.039062 371.269531 90.148438 371.210938 90.117188 L 371.207031 90.117188 L 371.199219 90.128906 L 371.164062 90.1875 L 371.011719 90.421875 L 370.8125 90.730469 L 370.421875 91.351562 L 369.589844 92.5625 L 368.722656 93.746094 L 367.808594 94.894531 C 366.558594 96.398438 365.214844 97.820312 363.746094 99.101562 C 362.300781 100.414062 360.734375 101.582031 359.097656 102.648438 L 357.851562 103.425781 L 356.578125 104.148438 L 355.277344 104.835938 L 354.617188 105.148438 L 354.121094 105.390625 L 353.957031 105.472656 C 353.988281 105.546875 353.886719 105.308594 354.023438 105.640625 C 354.160156 105.976562 354.0625 105.730469 354.09375 105.808594 L 354.101562 105.804688 L 354.113281 105.800781 L 354.132812 105.792969 L 354.175781 105.777344 L 354.261719 105.742188 L 354.785156 105.546875 L 355.480469 105.269531 L 356.84375 104.664062 L 358.171875 103.984375 L 359.46875 103.246094 C 361.175781 102.21875 362.777344 101.011719 364.273438 99.695312 C 365.75 98.355469 367.125 96.898438 368.335938 95.3125 L 369.214844 94.105469 L 370.035156 92.863281 L 370.789062 91.578125 L 371.136719 90.917969 L 371.308594 90.585938 L 371.4375 90.339844 L 371.472656 90.265625 L 371.476562 90.261719 C 371.417969 90.226562 371.609375 90.332031 371.347656 90.183594 Z M 316.714844 30.039062 C 316.496094 30.039062 316.316406 30.21875 316.316406 30.4375 L 316.316406 49.734375 C 316.316406 49.851562 316.367188 49.964844 316.457031 50.039062 L 325.042969 57.371094 C 325.117188 57.433594 325.210938 57.46875 325.300781 57.46875 C 325.414062 57.46875 325.527344 57.417969 325.605469 57.328125 C 325.75 57.160156 325.726562 56.910156 325.558594 56.765625 L 317.113281 49.550781 L 317.113281 30.4375 C 317.113281 30.21875 316.933594 30.039062 316.714844 30.039062 Z M 331.203125 26.207031 C 328.386719 24.664062 325.296875 23.636719 322.121094 23.179688 C 315.785156 22.257812 309.082031 23.621094 303.710938 27.1875 C 298.328125 30.699219 294.273438 36.179688 292.523438 42.355469 C 290.710938 48.523438 291.347656 55.328125 294.078125 61.105469 C 296.808594 66.894531 301.648438 71.691406 307.539062 74.210938 C 310.476562 75.480469 313.636719 76.207031 316.820312 76.363281 C 320.003906 76.585938 323.214844 76.125 326.25 75.167969 C 326.328125 75.144531 326.371094 75.058594 326.347656 74.980469 C 326.324219 74.898438 326.238281 74.855469 326.15625 74.878906 C 323.148438 75.789062 319.976562 76.199219 316.84375 75.941406 C 313.710938 75.75 310.617188 74.996094 307.757812 73.722656 C 302 71.214844 297.285156 66.503906 294.644531 60.839844 C 292.003906 55.183594 291.410156 48.550781 293.207031 42.550781 C 294.9375 36.546875 298.90625 31.238281 304.144531 27.851562 C 309.347656 24.378906 315.847656 23.023438 322.019531 23.902344 C 325.109375 24.332031 328.121094 25.320312 330.867188 26.816406 C 333.617188 28.308594 336.070312 30.324219 338.113281 32.691406 C 342.21875 37.414062 344.507812 43.640625 344.5 49.910156 C 344.53125 56.183594 342.167969 62.425781 338.007812 67.152344 C 337.945312 67.226562 337.953125 67.339844 338.023438 67.40625 C 338.097656 67.472656 338.214844 67.464844 338.28125 67.390625 C 342.550781 62.652344 345.039062 56.324219 345.082031 49.914062 C 345.121094 43.507812 342.800781 37.117188 338.609375 32.261719 C 336.523438 29.832031 334.015625 27.75 331.203125 26.207031 Z M 97.933594 89.351562 L 73.140625 89.316406 L 60.738281 89.316406 C 59.652344 89.28125 58.492188 89.621094 57.613281 90.316406 C 56.726562 90.996094 56.066406 91.988281 55.828125 93.085938 C 55.703125 93.632812 55.703125 94.214844 55.707031 94.710938 L 55.710938 96.265625 L 55.714844 99.363281 L 55.734375 111.761719 L 55.75 117.960938 L 55.75 118.734375 C 55.761719 119.015625 55.777344 119.292969 55.828125 119.5625 C 55.925781 120.113281 56.117188 120.640625 56.394531 121.121094 C 56.949219 122.085938 57.851562 122.835938 58.894531 123.21875 C 59.414062 123.40625 59.964844 123.511719 60.519531 123.511719 L 62.070312 123.511719 L 65.167969 123.507812 L 83.765625 123.484375 L 133.351562 123.34375 C 133.433594 123.34375 133.5 123.277344 133.5 123.191406 C 133.503906 123.109375 133.4375 123.039062 133.351562 123.039062 L 83.765625 122.898438 L 65.167969 122.875 L 62.070312 122.871094 L 60.523438 122.867188 C 60.042969 122.863281 59.566406 122.773438 59.117188 122.605469 C 58.222656 122.277344 57.4375 121.625 56.96875 120.789062 C 56.734375 120.375 56.566406 119.917969 56.488281 119.449219 C 56.441406 119.214844 56.425781 118.976562 56.417969 118.734375 L 56.421875 117.960938 L 56.429688 111.761719 L 56.453125 99.363281 L 56.457031 96.265625 L 56.460938 94.710938 C 56.457031 94.175781 56.460938 93.71875 56.570312 93.253906 C 56.972656 91.386719 58.800781 89.976562 60.738281 90.09375 L 73.140625 90.089844 L 97.933594 90.054688 L 110.328125 90.039062 L 116.523438 90.027344 L 119.625 90.023438 L 121.171875 90.023438 C 121.695312 90.023438 122.214844 89.996094 122.675781 90.066406 C 124.605469 90.292969 126.203125 92.058594 126.238281 94.003906 L 126.253906 100.195312 L 126.300781 112.59375 C 126.300781 112.65625 126.328125 112.722656 126.375 112.773438 L 134.667969 120.664062 C 134.742188 120.730469 134.851562 120.730469 134.921875 120.660156 C 134.992188 120.589844 134.988281 120.472656 134.917969 120.40625 L 126.800781 112.488281 L 126.851562 100.195312 L 126.851562 93.980469 C 126.8125 91.746094 124.992188 89.714844 122.765625 89.441406 C 122.203125 89.363281 121.6875 89.394531 121.171875 89.386719 L 119.625 89.382812 L 116.523438 89.378906 L 110.328125 89.367188 Z M 32.109375 80.25 L 61.003906 80.25 L 89.902344 80.210938 L 104.347656 80.191406 L 107.957031 80.1875 C 108.5625 80.175781 109.152344 80.21875 109.808594 80.128906 C 110.441406 80.035156 111.058594 79.8125 111.609375 79.472656 C 112.707031 78.804688 113.511719 77.671875 113.773438 76.410156 C 113.835938 76.09375 113.875 75.773438 113.878906 75.453125 L 113.882812 74.546875 L 113.878906 72.738281 L 113.820312 58.292969 L 113.789062 51.066406 C 113.832031 49.824219 113.367188 48.535156 112.484375 47.636719 C 111.621094 46.726562 110.371094 46.191406 109.117188 46.207031 C 109.015625 46.207031 108.933594 46.289062 108.9375 46.386719 C 108.9375 46.488281 109.015625 46.566406 109.117188 46.566406 C 110.273438 46.566406 111.414062 47.066406 112.203125 47.90625 C 113.003906 48.75 113.414062 49.898438 113.367188 51.066406 L 113.335938 58.292969 L 113.28125 72.738281 L 113.28125 74.546875 L 113.277344 75.445312 C 113.269531 75.730469 113.238281 76.007812 113.183594 76.285156 C 112.953125 77.382812 112.246094 78.367188 111.285156 78.949219 C 110.808594 79.242188 110.273438 79.4375 109.71875 79.515625 C 109.179688 79.589844 108.558594 79.554688 107.957031 79.558594 L 104.347656 79.558594 L 89.902344 79.535156 L 61.003906 79.496094 L 33.039062 79.5 L 43.355469 69.527344 C 43.421875 69.464844 43.460938 69.375 43.460938 69.277344 L 43.429688 51.015625 C 43.371094 49.574219 44.097656 48.179688 45.28125 47.390625 C 45.875 47.007812 46.558594 46.75 47.269531 46.710938 C 47.984375 46.675781 48.777344 46.699219 49.527344 46.691406 L 58.652344 46.675781 L 95.164062 46.535156 C 95.246094 46.535156 95.316406 46.472656 95.316406 46.386719 C 95.316406 46.304688 95.246094 46.234375 95.164062 46.234375 L 58.652344 46.097656 L 49.527344 46.082031 C 48.757812 46.089844 48.027344 46.0625 47.222656 46.097656 C 46.410156 46.140625 45.621094 46.433594 44.9375 46.871094 C 43.574219 47.761719 42.730469 49.402344 42.792969 51.015625 L 42.765625 69.125 L 31.851562 79.605469 C 31.78125 79.671875 31.738281 79.769531 31.738281 79.875 C 31.738281 80.082031 31.90625 80.25 32.109375 80.25 Z M 174.175781 48.410156 C 175.21875 50.609375 177.15625 51.890625 179.542969 52.191406 C 178.058594 54.050781 177.660156 56.734375 178.550781 58.875 C 179.03125 60.027344 180.109375 61.121094 181.359375 61.898438 C 180.601562 62.75 180.128906 63.9375 180.128906 65.253906 C 180.128906 67.851562 181.960938 69.957031 184.222656 69.957031 C 184.292969 69.957031 184.351562 69.9375 184.417969 69.933594 C 184.285156 68.480469 184.195312 67.074219 184.148438 65.738281 C 184.136719 65.449219 184.140625 65.160156 184.140625 64.871094 C 184.230469 64.878906 184.320312 64.898438 184.414062 64.898438 C 185.871094 64.898438 187.253906 63.746094 187.949219 62.128906 C 188.132812 61.742188 188.269531 61.3125 188.359375 60.863281 C 188.46875 60.875 188.566406 60.894531 188.671875 60.894531 C 190.796875 60.894531 192.519531 59.171875 192.519531 57.046875 C 192.519531 56.789062 192.488281 56.539062 192.441406 56.292969 C 194.804688 56.367188 197.59375 55.171875 198.363281 52.929688 C 199.367188 54.011719 200.925781 54.511719 202.390625 54.226562 C 203.851562 53.941406 205.5625 53.203125 206.1875 51.808594 C 208.101562 53.996094 212.683594 55.925781 215.246094 54.398438 C 213.878906 58.421875 215.207031 62.363281 219.199219 63.214844 C 220.425781 66.136719 223.046875 68.03125 226.085938 68.742188 C 224.394531 71.183594 227.132812 76.191406 229.636719 77.535156 C 229.941406 77.710938 230.273438 77.839844 230.609375 77.953125 C 230.808594 77.683594 231.027344 77.429688 231.273438 77.199219 C 232.355469 76.195312 233.910156 75.679688 235.363281 75.957031 C 236.101562 76.097656 236.773438 76.441406 237.339844 76.917969 C 238.617188 76.132812 239.691406 75.054688 240.28125 73.753906 C 244.082031 73.179688 247.792969 68.375 248.246094 64.464844 C 250.652344 65.246094 253.554688 64.269531 255.128906 62.152344 C 256.699219 60.035156 256.964844 56.785156 255.5625 54.652344 C 256.988281 53.195312 257.609375 50.960938 257.128906 49.011719 C 256.644531 47.0625 254.871094 46.296875 252.964844 45.816406 C 254.679688 42.265625 253.363281 36.703125 250.542969 34.175781 C 251.9375 32.101562 252.285156 29.351562 251.449219 27.058594 C 250.613281 24.761719 248.679688 23.113281 246.335938 22.582031 C 246.800781 20.570312 246.296875 18.382812 245.015625 16.847656 C 243.730469 15.3125 241.632812 14.882812 239.628906 15.0625 C 240.445312 12.46875 237.320312 9.300781 234.695312 9.246094 C 233.417969 4.808594 227.546875 2.90625 223.3125 4.777344 C 222.457031 3.320312 221.53125 1.792969 220.058594 1.003906 C 218.582031 0.210938 215.378906 1.15625 214.578125 2.707031 C 213.40625 0.992188 211.277344 0.03125 209.210938 0.28125 C 207.140625 0.527344 205 1 204.121094 2.957031 C 201.464844 1.722656 197.714844 2.207031 195.453125 4.246094 C 191.96875 4.828125 189.316406 8.816406 190.101562 12.292969 C 186.613281 12.09375 184.230469 15.011719 182.570312 18.230469 C 180.597656 18.121094 178.832031 19.863281 178.183594 21.804688 C 177.527344 23.742188 178.195312 26 178.402344 28.007812 C 175.738281 28.027344 173.558594 30.65625 173.03125 33.355469 C 172.503906 36.054688 173.714844 38.652344 174.417969 41.265625 C 173.222656 43.457031 173.128906 46.214844 174.175781 48.410156 Z M 187.078125 329.742188 L 167.804688 323.664062 L 148.511719 317.652344 L 109.925781 305.640625 L 71.292969 293.773438 L 51.972656 287.84375 L 32.632812 281.976562 C 32.554688 281.953125 32.472656 282 32.449219 282.078125 C 32.421875 282.160156 32.464844 282.242188 32.546875 282.269531 L 51.816406 288.351562 L 71.105469 294.371094 L 109.691406 306.398438 L 148.320312 318.28125 L 167.636719 324.21875 L 186.972656 330.085938 C 187.066406 330.113281 187.164062 330.058594 187.195312 329.96875 C 187.222656 329.875 187.171875 329.769531 187.078125 329.742188 Z M 257.21875 301.585938 L 190.089844 329.46875 L 173.285156 212.824219 C 173.265625 212.675781 173.15625 212.546875 173 212.503906 L 7.109375 168.726562 C 7.027344 168.703125 6.945312 168.75 6.921875 168.832031 C 6.902344 168.914062 6.953125 168.996094 7.03125 169.019531 L 172.554688 213.191406 L 189.527344 329.957031 C 189.527344 329.984375 189.535156 330.011719 189.542969 330.035156 C 189.613281 330.195312 189.796875 330.273438 189.957031 330.203125 L 257.359375 301.921875 C 257.449219 301.882812 257.496094 301.777344 257.453125 301.683594 C 257.417969 301.589844 257.3125 301.550781 257.21875 301.585938 Z M 218.246094 204.894531 C 218.332031 204.839844 218.359375 204.726562 218.308594 204.644531 C 216.859375 202.21875 215.53125 199.730469 214.328125 197.183594 C 213.121094 194.640625 212.03125 192.042969 211.105469 189.382812 C 210.140625 186.738281 209.355469 184.03125 208.679688 181.292969 C 208.011719 178.558594 207.46875 175.789062 207.066406 172.992188 C 207.054688 172.914062 206.984375 172.855469 206.902344 172.863281 C 206.820312 172.871094 206.757812 172.945312 206.765625 173.027344 C 206.996094 175.855469 207.417969 178.671875 208.023438 181.445312 C 208.625 184.226562 209.425781 186.960938 210.355469 189.648438 C 211.316406 192.324219 212.414062 194.953125 213.691406 197.492188 C 214.960938 200.039062 216.40625 202.492188 218.003906 204.835938 C 218.058594 204.914062 218.164062 204.941406 218.246094 204.894531 Z M 244.378906 286.617188 C 244.125 286.761719 243.910156 286.941406 243.707031 287.132812 C 243.5 287.324219 243.324219 287.539062 243.152344 287.753906 C 242.992188 287.980469 242.832031 288.210938 242.707031 288.460938 C 242.578125 288.707031 242.460938 288.964844 242.390625 289.246094 C 242.378906 289.289062 242.390625 289.339844 242.421875 289.382812 C 242.472656 289.453125 242.574219 289.46875 242.644531 289.414062 C 242.875 289.242188 243.066406 289.046875 243.253906 288.851562 C 243.449219 288.660156 243.613281 288.445312 243.785156 288.242188 C 243.945312 288.027344 244.109375 287.816406 244.25 287.585938 C 244.394531 287.355469 244.539062 287.125 244.648438 286.859375 C 244.667969 286.804688 244.664062 286.746094 244.636719 286.695312 C 244.585938 286.601562 244.46875 286.566406 244.378906 286.617188 Z M 206.210938 284.957031 C 206.59375 284.34375 206.925781 283.707031 207.253906 283.066406 C 207.589844 282.429688 207.886719 281.777344 208.1875 281.121094 C 208.476562 280.464844 208.761719 279.808594 209.019531 279.132812 C 209.28125 278.460938 209.535156 277.789062 209.742188 277.09375 C 209.757812 277.027344 209.738281 276.957031 209.675781 276.921875 C 209.605469 276.875 209.511719 276.898438 209.464844 276.96875 C 209.082031 277.582031 208.742188 278.21875 208.40625 278.855469 C 208.070312 279.492188 207.765625 280.144531 207.460938 280.792969 C 207.164062 281.449219 206.875 282.105469 206.613281 282.773438 C 206.351562 283.445312 206.089844 284.117188 205.878906 284.808594 C 205.859375 284.886719 205.890625 284.972656 205.960938 285.019531 C 206.042969 285.070312 206.15625 285.046875 206.210938 284.957031 Z M 216.453125 276.160156 C 216.363281 276.136719 216.277344 276.195312 216.253906 276.285156 L 216.25 276.289062 C 216.203125 276.507812 216.175781 276.703125 216.144531 276.902344 L 216.046875 277.46875 L 215.953125 278.03125 C 215.925781 278.226562 215.882812 278.417969 215.867188 278.640625 L 215.863281 278.648438 C 215.859375 278.695312 215.871094 278.742188 215.902344 278.78125 C 215.96875 278.871094 216.089844 278.886719 216.175781 278.820312 C 216.375 278.671875 216.511719 278.472656 216.617188 278.265625 C 216.734375 278.054688 216.796875 277.824219 216.832031 277.589844 C 216.863281 277.351562 216.867188 277.113281 216.816406 276.878906 C 216.769531 276.648438 216.695312 276.421875 216.550781 276.222656 C 216.527344 276.191406 216.496094 276.167969 216.453125 276.160156 Z M 221.953125 278.59375 C 222.621094 277.800781 223.25 276.992188 223.933594 276.253906 C 224.621094 275.515625 225.351562 274.824219 226.199219 274.339844 C 227.019531 273.816406 227.964844 273.511719 228.945312 273.304688 C 229.925781 273.09375 230.941406 272.984375 231.96875 272.832031 C 232.050781 272.820312 232.117188 272.75 232.121094 272.660156 C 232.125 272.558594 232.046875 272.476562 231.945312 272.472656 C 230.910156 272.4375 229.867188 272.457031 228.820312 272.613281 C 227.773438 272.761719 226.71875 273.097656 225.78125 273.660156 C 224.863281 274.238281 224.078125 274.988281 223.425781 275.8125 C 222.769531 276.640625 222.207031 277.519531 221.703125 278.421875 C 221.667969 278.484375 221.679688 278.566406 221.738281 278.609375 C 221.804688 278.667969 221.898438 278.65625 221.953125 278.59375 Z M 240.597656 277.902344 C 240.242188 278.074219 239.921875 278.292969 239.613281 278.535156 C 239.320312 278.785156 239.039062 279.054688 238.804688 279.367188 C 238.570312 279.675781 238.359375 280.003906 238.214844 280.367188 C 238.199219 280.421875 238.207031 280.484375 238.246094 280.53125 C 238.300781 280.59375 238.402344 280.601562 238.464844 280.546875 L 239.292969 279.828125 C 239.570312 279.605469 239.835938 279.371094 240.117188 279.152344 C 240.390625 278.933594 240.675781 278.726562 240.960938 278.507812 C 241.242188 278.296875 241.542969 278.09375 241.839844 277.863281 C 241.886719 277.824219 241.917969 277.753906 241.90625 277.6875 C 241.890625 277.585938 241.796875 277.519531 241.695312 277.535156 C 241.308594 277.597656 240.945312 277.734375 240.597656 277.902344 Z M 178.933594 147.628906 C 179.179688 147.9375 179.457031 148.222656 179.78125 148.445312 C 179.839844 148.480469 179.914062 148.488281 179.976562 148.453125 C 180.066406 148.40625 180.101562 148.292969 180.050781 148.203125 L 179.523438 147.242188 C 179.359375 146.921875 179.191406 146.609375 179.042969 146.285156 C 178.886719 145.96875 178.753906 145.640625 178.613281 145.308594 L 178.207031 144.28125 C 178.1875 144.230469 178.136719 144.191406 178.078125 144.183594 C 177.996094 144.175781 177.917969 144.234375 177.90625 144.320312 C 177.859375 144.714844 177.890625 145.109375 177.96875 145.496094 C 178.03125 145.882812 178.164062 146.257812 178.320312 146.621094 C 178.488281 146.976562 178.6875 147.324219 178.933594 147.628906 Z M 224.191406 126.171875 C 224.242188 126.097656 224.230469 126 224.160156 125.9375 C 224.085938 125.871094 223.972656 125.878906 223.90625 125.953125 C 222.941406 127.058594 221.867188 128.046875 220.675781 128.875 C 219.488281 129.703125 218.210938 130.402344 216.855469 130.910156 C 215.515625 131.449219 214.097656 131.789062 212.660156 131.976562 C 211.21875 132.160156 209.757812 132.15625 208.300781 131.976562 C 208.222656 131.972656 208.152344 132.019531 208.132812 132.09375 C 208.113281 132.175781 208.160156 132.257812 208.242188 132.277344 C 209.695312 132.652344 211.21875 132.757812 212.726562 132.644531 C 214.234375 132.53125 215.722656 132.175781 217.140625 131.652344 C 218.550781 131.09375 219.894531 130.367188 221.09375 129.445312 C 222.292969 128.519531 223.359375 127.425781 224.191406 126.171875 Z M 291.246094 223.683594 C 291.652344 223.488281 292.046875 223.304688 292.449219 223.152344 C 292.855469 223.011719 293.261719 222.878906 293.675781 222.789062 C 294.089844 222.691406 294.507812 222.632812 294.933594 222.585938 C 295.363281 222.546875 295.792969 222.542969 296.238281 222.539062 C 296.3125 222.539062 296.382812 222.496094 296.410156 222.429688 C 296.453125 222.335938 296.410156 222.226562 296.316406 222.183594 C 295.878906 222 295.402344 221.90625 294.921875 221.882812 C 294.445312 221.851562 293.960938 221.90625 293.492188 222.011719 C 293.027344 222.132812 292.570312 222.300781 292.160156 222.546875 C 291.746094 222.785156 291.363281 223.078125 291.058594 223.441406 C 291.019531 223.488281 291.007812 223.554688 291.035156 223.613281 C 291.078125 223.6875 291.171875 223.71875 291.246094 223.683594 Z M 294.828125 223.976562 C 293.558594 224.144531 292.335938 224.582031 291.230469 225.207031 C 290.121094 225.824219 289.101562 226.59375 288.183594 227.460938 C 287.742188 227.875 287.339844 228.328125 286.960938 228.804688 C 287.085938 228.191406 287.269531 227.589844 287.519531 227.019531 C 288.039062 225.867188 288.859375 224.824219 290.003906 224.238281 C 290.085938 224.195312 290.125 224.09375 290.089844 224.011719 C 290.054688 223.917969 289.945312 223.871094 289.855469 223.90625 C 288.566406 224.417969 287.546875 225.511719 286.945312 226.742188 C 286.371094 227.882812 286.082031 229.140625 286.019531 230.402344 C 286 230.480469 285.996094 230.574219 286 230.6875 C 286 230.703125 286 230.710938 286 230.726562 L 286.003906 230.726562 C 286.003906 230.761719 286.003906 230.789062 286.011719 230.832031 C 286.039062 231.003906 286.191406 231.140625 286.375 231.144531 C 286.585938 231.148438 286.753906 230.984375 286.757812 230.773438 L 286.757812 230.738281 C 286.757812 230.683594 286.765625 230.632812 286.769531 230.582031 C 286.777344 230.535156 286.796875 230.480469 286.816406 230.433594 C 286.871094 230.316406 286.9375 230.191406 287.011719 230.070312 C 287.160156 229.828125 287.335938 229.589844 287.519531 229.355469 C 287.890625 228.890625 288.304688 228.453125 288.730469 228.027344 C 289.59375 227.1875 290.550781 226.4375 291.589844 225.835938 C 292.625 225.238281 293.738281 224.75 294.914062 224.546875 C 296.085938 224.335938 297.308594 224.398438 298.453125 224.796875 C 298.527344 224.824219 298.609375 224.789062 298.644531 224.71875 C 298.679688 224.640625 298.644531 224.550781 298.566406 224.515625 C 297.417969 223.984375 296.097656 223.8125 294.828125 223.976562 Z M 275.921875 191.605469 C 275.738281 190.929688 275.53125 190.257812 275.304688 189.59375 C 275.066406 188.933594 274.828125 188.277344 274.519531 187.636719 C 274.492188 187.574219 274.425781 187.539062 274.363281 187.546875 C 274.277344 187.558594 274.214844 187.636719 274.226562 187.71875 C 274.3125 188.421875 274.460938 189.113281 274.613281 189.796875 C 274.734375 190.308594 274.882812 190.8125 275.027344 191.316406 C 274.742188 191.316406 274.464844 191.320312 274.199219 191.308594 C 273.777344 191.277344 273.386719 191.179688 273.019531 190.941406 C 272.953125 190.902344 272.867188 190.90625 272.804688 190.957031 C 272.726562 191.019531 272.714844 191.132812 272.777344 191.214844 C 273.097656 191.609375 273.613281 191.871094 274.105469 191.957031 C 274.605469 192.0625 275.078125 192.070312 275.519531 192.109375 C 275.5625 192.109375 275.609375 192.109375 275.65625 192.09375 C 275.863281 192.039062 275.984375 191.824219 275.929688 191.617188 Z M 287.324219 132.824219 C 287.34375 132.738281 287.289062 132.65625 287.210938 132.636719 C 286.03125 132.378906 284.773438 132.519531 283.625 132.914062 C 282.472656 133.3125 281.429688 133.976562 280.515625 134.769531 C 279.625 135.589844 278.859375 136.527344 278.222656 137.535156 C 277.589844 138.542969 277.058594 139.597656 276.613281 140.691406 C 276.578125 140.769531 276.605469 140.863281 276.683594 140.914062 C 276.769531 140.964844 276.882812 140.9375 276.933594 140.851562 C 277.542969 139.859375 278.140625 138.863281 278.808594 137.925781 C 279.476562 136.992188 280.195312 136.105469 281.042969 135.359375 C 281.867188 134.589844 282.832031 133.980469 283.867188 133.546875 C 284.898438 133.113281 286.027344 132.882812 287.167969 132.941406 C 287.242188 132.945312 287.308594 132.898438 287.324219 132.824219 Z M 273.460938 184.316406 C 273.535156 184.277344 273.5625 184.183594 273.523438 184.113281 C 271.726562 180.882812 270.359375 177.433594 269.429688 173.875 C 268.511719 170.316406 268.023438 166.644531 268.058594 162.972656 C 268.058594 159.300781 268.578125 155.632812 269.53125 152.085938 C 270.492188 148.539062 271.894531 145.101562 273.71875 141.890625 C 273.765625 141.808594 273.738281 141.703125 273.65625 141.652344 C 273.570312 141.597656 273.460938 141.621094 273.40625 141.707031 C 271.417969 144.859375 269.882812 148.300781 268.855469 151.894531 C 267.816406 155.488281 267.289062 159.226562 267.261719 162.96875 C 267.269531 166.710938 267.765625 170.457031 268.78125 174.050781 C 269.789062 177.648438 271.296875 181.101562 273.261719 184.265625 C 273.304688 184.332031 273.394531 184.359375 273.460938 184.316406 Z M 181.019531 190.082031 C 180.59375 188.417969 180.15625 186.75 179.671875 185.101562 C 179.65625 185.023438 179.578125 184.980469 179.503906 184.992188 C 179.417969 185.007812 179.363281 185.085938 179.378906 185.167969 C 179.671875 186.863281 180.011719 188.550781 180.363281 190.234375 C 180.710938 191.917969 181.097656 193.59375 181.46875 195.273438 L 182.675781 200.285156 C 183.097656 201.953125 183.527344 203.617188 184.007812 205.269531 C 184.03125 205.355469 184.121094 205.414062 184.210938 205.398438 C 184.308594 205.382812 184.375 205.289062 184.359375 205.1875 C 184.0625 203.496094 183.714844 201.808594 183.363281 200.125 L 182.242188 195.089844 C 181.835938 193.421875 181.445312 191.746094 181.019531 190.082031 Z M 185.5 132.886719 C 185.417969 132.863281 185.332031 132.902344 185.304688 132.984375 C 184.046875 136.628906 182.808594 140.285156 181.714844 143.988281 C 181.425781 144.949219 181.152344 145.917969 180.886719 146.886719 C 180.71875 146.007812 180.546875 145.132812 180.40625 144.25 C 180.253906 143.285156 180.117188 142.320312 180.015625 141.351562 C 179.90625 140.382812 179.839844 139.410156 179.777344 138.433594 C 179.726562 137.457031 179.710938 136.476562 179.6875 135.488281 C 179.6875 135.417969 179.636719 135.355469 179.5625 135.34375 C 179.480469 135.328125 179.398438 135.382812 179.382812 135.464844 C 179.210938 136.449219 179.132812 137.445312 179.105469 138.441406 C 179.078125 139.441406 179.128906 140.441406 179.222656 141.433594 C 179.332031 142.425781 179.484375 143.414062 179.714844 144.386719 C 179.941406 145.363281 180.222656 146.320312 180.59375 147.246094 C 180.621094 147.316406 180.691406 147.355469 180.765625 147.351562 C 180.070312 149.960938 179.449219 152.59375 178.9375 155.25 C 178.246094 159.058594 177.78125 162.921875 177.710938 166.800781 C 177.640625 170.675781 177.96875 174.570312 178.800781 178.355469 C 178.824219 178.449219 178.914062 178.507812 179.011719 178.492188 C 179.105469 178.476562 179.175781 178.382812 179.15625 178.28125 C 178.492188 174.5 178.289062 170.648438 178.417969 166.820312 C 178.550781 162.988281 179.007812 159.167969 179.71875 155.398438 C 180.398438 151.617188 181.34375 147.882812 182.359375 144.175781 C 183.386719 140.464844 184.5 136.773438 185.597656 133.078125 C 185.617188 133 185.574219 132.914062 185.5 132.886719 Z M 229.707031 93.339844 C 230.199219 93.484375 230.558594 93.851562 230.804688 94.28125 C 231.046875 94.707031 231.167969 95.203125 231.253906 95.738281 C 231.351562 96.269531 231.402344 96.84375 231.585938 97.417969 C 231.757812 97.984375 232.046875 98.578125 232.554688 98.953125 C 232.613281 98.996094 232.699219 99 232.765625 98.953125 C 232.847656 98.898438 232.871094 98.785156 232.8125 98.699219 L 232.8125 98.695312 C 232.515625 98.261719 232.363281 97.769531 232.269531 97.25 L 232.039062 95.601562 C 231.929688 95.035156 231.765625 94.40625 231.363281 93.902344 C 230.988281 93.40625 230.382812 92.996094 229.734375 93.039062 C 229.671875 93.039062 229.617188 93.082031 229.597656 93.144531 C 229.574219 93.226562 229.621094 93.3125 229.699219 93.335938 Z M 227.839844 95.792969 C 227.773438 95.816406 227.730469 95.878906 227.734375 95.945312 C 227.734375 96.035156 227.808594 96.097656 227.890625 96.09375 L 227.898438 96.09375 C 228.585938 96.058594 229.207031 96.429688 229.628906 96.933594 C 230.042969 97.441406 230.289062 98.101562 230.457031 98.792969 C 230.628906 99.488281 230.769531 100.238281 230.960938 100.953125 C 231.140625 101.679688 231.335938 102.402344 231.574219 103.117188 C 231.601562 103.191406 231.675781 103.242188 231.761719 103.238281 C 231.863281 103.230469 231.9375 103.144531 231.929688 103.042969 C 231.875 102.289062 231.765625 101.550781 231.648438 100.8125 C 231.535156 100.074219 231.410156 99.351562 231.226562 98.597656 C 231.03125 97.851562 230.734375 97.0625 230.117188 96.472656 C 229.539062 95.898438 228.644531 95.53125 227.839844 95.792969 Z M 226.425781 99.320312 C 226.375 99.34375 226.335938 99.394531 226.335938 99.453125 C 226.328125 99.539062 226.398438 99.613281 226.480469 99.617188 L 226.488281 99.617188 C 227.230469 99.65625 227.792969 100.167969 228.117188 100.761719 C 228.289062 101.070312 228.398438 101.421875 228.5 101.792969 C 228.605469 102.164062 228.675781 102.5625 228.800781 102.964844 C 228.820312 103.027344 228.875 103.078125 228.945312 103.089844 C 229.046875 103.105469 229.144531 103.039062 229.160156 102.9375 C 229.222656 102.523438 229.238281 102.105469 229.195312 101.671875 C 229.160156 101.238281 229.039062 100.792969 228.816406 100.382812 C 228.578125 99.964844 228.238281 99.613281 227.804688 99.402344 C 227.382812 99.191406 226.855469 99.121094 226.425781 99.320312 Z M 224.335938 101.367188 C 224.273438 101.375 224.210938 101.414062 224.191406 101.476562 C 224.167969 101.558594 224.210938 101.644531 224.292969 101.671875 C 225.292969 102.007812 225.945312 102.878906 226.273438 103.820312 C 226.441406 104.300781 226.523438 104.820312 226.597656 105.351562 L 226.765625 107 C 226.773438 107.078125 226.832031 107.144531 226.910156 107.160156 C 227.011719 107.179688 227.105469 107.113281 227.125 107.019531 L 227.128906 107.011719 C 227.242188 106.457031 227.300781 105.890625 227.300781 105.3125 C 227.304688 104.730469 227.222656 104.132812 227.023438 103.5625 C 226.8125 102.980469 226.476562 102.445312 226.011719 102.042969 C 225.550781 101.636719 224.945312 101.351562 224.335938 101.367188 Z M 222.089844 103.363281 C 222.023438 103.378906 221.972656 103.433594 221.964844 103.503906 C 221.960938 103.585938 222.023438 103.660156 222.105469 103.667969 L 222.113281 103.667969 C 222.78125 103.71875 223.3125 104.210938 223.613281 104.777344 C 223.921875 105.363281 224.121094 106.074219 224.347656 106.765625 L 225 108.851562 C 225.214844 109.546875 225.414062 110.25 225.644531 110.949219 C 225.667969 111.023438 225.742188 111.078125 225.828125 111.074219 C 225.925781 111.070312 226.003906 110.984375 225.996094 110.882812 C 225.953125 110.140625 225.832031 109.402344 225.683594 108.671875 C 225.539062 107.941406 225.332031 107.226562 225.105469 106.519531 C 224.855469 105.824219 224.648438 105.101562 224.1875 104.425781 C 223.746094 103.761719 222.933594 103.203125 222.089844 103.363281 Z M 234.09375 107.960938 C 234.132812 106.589844 234.027344 105.210938 233.730469 103.875 C 233.714844 103.804688 233.644531 103.75 233.570312 103.757812 C 233.488281 103.761719 233.421875 103.835938 233.425781 103.917969 C 233.527344 105.261719 233.535156 106.597656 233.421875 107.925781 C 233.304688 109.25 233.101562 110.566406 232.75 111.847656 C 232.433594 113.136719 231.976562 114.382812 231.433594 115.597656 C 230.894531 116.808594 230.234375 117.976562 229.503906 119.101562 C 229.453125 119.175781 229.46875 119.273438 229.535156 119.332031 C 229.609375 119.402344 229.726562 119.390625 229.789062 119.316406 C 230.691406 118.285156 231.445312 117.128906 232.070312 115.902344 C 232.691406 114.675781 233.164062 113.375 233.519531 112.046875 C 233.839844 110.707031 234.058594 109.339844 234.09375 107.960938 Z M 203.015625 109.351562 C 203.441406 109.15625 203.910156 109.023438 204.386719 108.894531 C 204.460938 108.875 204.507812 108.800781 204.496094 108.722656 C 204.484375 108.640625 204.40625 108.585938 204.324219 108.597656 C 203.832031 108.679688 203.335938 108.769531 202.851562 108.953125 C 202.375 109.132812 201.851562 109.4375 201.589844 109.984375 C 201.332031 110.527344 201.40625 111.113281 201.5 111.613281 C 201.59375 112.121094 201.746094 112.59375 201.847656 113.0625 C 202.28125 114.925781 202.117188 116.871094 201.699219 118.769531 C 201.316406 120.675781 200.738281 122.617188 200.683594 124.65625 C 200.660156 125.667969 200.734375 126.691406 200.976562 127.679688 C 201.238281 128.664062 201.628906 129.613281 202.175781 130.457031 C 202.222656 130.535156 202.328125 130.566406 202.40625 130.523438 C 202.496094 130.476562 202.53125 130.367188 202.484375 130.28125 C 201.589844 128.550781 201.25 126.609375 201.386719 124.691406 C 201.5 122.761719 202.054688 120.886719 202.476562 118.929688 C 202.867188 116.980469 203.054688 114.878906 202.5 112.898438 C 202.371094 112.402344 202.199219 111.941406 202.089844 111.484375 C 201.976562 111.03125 201.925781 110.570312 202.082031 110.203125 C 202.222656 109.828125 202.59375 109.542969 203.015625 109.351562 Z M 204.433594 95.574219 C 204.703125 95.660156 204.984375 95.679688 205.28125 95.714844 C 205.570312 95.761719 205.859375 95.746094 206.148438 95.757812 C 207.3125 95.757812 208.421875 95.359375 209.359375 94.664062 C 210.144531 94.085938 210.78125 93.316406 211.453125 92.542969 C 210.800781 92.671875 210.144531 92.78125 209.484375 92.859375 C 208.289062 93.003906 207.085938 93.050781 205.882812 93.046875 C 204.679688 93.007812 203.480469 92.929688 202.292969 92.746094 C 201.796875 92.667969 201.304688 92.570312 200.816406 92.46875 C 201.132812 93.503906 201.925781 94.3125 202.839844 94.871094 C 203.34375 95.160156 203.878906 95.417969 204.433594 95.574219 Z M 205.191406 96.476562 C 204.875 96.433594 204.542969 96.394531 204.222656 96.285156 C 203.59375 96.089844 203.007812 95.800781 202.476562 95.429688 C 201.945312 95.054688 201.464844 94.605469 201.089844 94.066406 C 200.757812 93.566406 200.519531 92.992188 200.457031 92.394531 C 199.894531 92.269531 199.335938 92.121094 198.78125 91.945312 C 198.707031 91.921875 198.660156 91.835938 198.683594 91.753906 C 198.707031 91.683594 198.78125 91.640625 198.851562 91.648438 C 200.027344 91.820312 201.195312 91.976562 202.371094 92.074219 C 203.542969 92.175781 204.71875 92.253906 205.894531 92.25 C 207.070312 92.28125 208.246094 92.234375 209.417969 92.160156 C 210.59375 92.085938 211.769531 91.960938 212.945312 91.820312 C 213.042969 91.808594 213.132812 91.878906 213.148438 91.976562 C 213.15625 92.070312 213.101562 92.148438 213.015625 92.175781 C 212.707031 92.261719 212.398438 92.320312 212.085938 92.390625 C 211.769531 92.867188 211.457031 93.347656 211.109375 93.820312 C 210.722656 94.320312 210.292969 94.800781 209.796875 95.222656 C 208.796875 96.054688 207.472656 96.539062 206.164062 96.546875 C 205.835938 96.53125 205.507812 96.535156 205.191406 96.476562 Z M 199.652344 81.652344 L 199.984375 78.167969 C 199.992188 78.09375 199.945312 78.023438 199.871094 78.003906 C 199.789062 77.984375 199.703125 78.035156 199.6875 78.117188 C 199.394531 79.253906 199.171875 80.40625 198.984375 81.566406 C 198.792969 82.726562 198.667969 83.894531 198.539062 85.0625 C 198.503906 85.644531 198.414062 86.21875 198.484375 86.886719 C 198.535156 87.550781 198.964844 88.269531 199.570312 88.574219 C 200.152344 88.914062 200.835938 89.007812 201.453125 88.949219 C 202.074219 88.878906 202.652344 88.703125 203.203125 88.507812 C 203.285156 88.480469 203.339844 88.394531 203.324219 88.304688 C 203.304688 88.207031 203.210938 88.140625 203.109375 88.160156 C 201.980469 88.375 200.792969 88.558594 199.941406 87.976562 C 199.527344 87.6875 199.28125 87.308594 199.242188 86.796875 C 199.195312 86.300781 199.289062 85.707031 199.332031 85.128906 C 199.414062 83.96875 199.542969 82.8125 199.652344 81.652344 Z M 187.339844 69.8125 C 187.652344 69.234375 188.007812 68.695312 188.417969 68.207031 C 188.832031 67.726562 189.28125 67.28125 189.785156 66.898438 C 190.28125 66.507812 190.824219 66.183594 191.394531 65.902344 C 191.964844 65.625 192.574219 65.421875 193.207031 65.261719 C 193.285156 65.238281 193.34375 65.171875 193.34375 65.089844 C 193.347656 64.988281 193.269531 64.902344 193.167969 64.898438 C 192.476562 64.878906 191.78125 65.015625 191.121094 65.253906 C 190.460938 65.484375 189.847656 65.839844 189.296875 66.269531 C 188.746094 66.707031 188.257812 67.21875 187.878906 67.804688 C 187.492188 68.386719 187.195312 69.03125 187.054688 69.707031 C 187.039062 69.769531 187.070312 69.839844 187.132812 69.875 C 187.207031 69.914062 187.300781 69.886719 187.339844 69.8125 Z M 212.234375 65.40625 C 213.234375 65.671875 214.203125 66.050781 215.074219 66.59375 C 215.96875 67.105469 216.765625 67.773438 217.476562 68.523438 C 218.1875 69.273438 218.792969 70.128906 219.300781 71.050781 C 219.34375 71.125 219.433594 71.164062 219.519531 71.136719 C 219.613281 71.105469 219.664062 71 219.628906 70.910156 C 219.277344 69.867188 218.710938 68.90625 218.003906 68.054688 C 217.292969 67.203125 216.429688 66.488281 215.484375 65.910156 C 214.515625 65.363281 213.46875 64.953125 212.382812 64.746094 C 211.296875 64.546875 210.179688 64.515625 209.109375 64.710938 C 209.035156 64.722656 208.980469 64.785156 208.980469 64.859375 C 208.980469 64.945312 209.050781 65.011719 209.132812 65.011719 C 210.1875 65.015625 211.230469 65.140625 212.234375 65.40625 Z M 194.816406 78.101562 C 195.230469 78.054688 195.636719 77.96875 196.042969 77.902344 C 196.449219 77.808594 196.847656 77.710938 197.246094 77.597656 C 197.3125 77.578125 197.359375 77.515625 197.355469 77.441406 C 197.355469 77.359375 197.28125 77.292969 197.195312 77.296875 L 197.191406 77.296875 C 196.371094 77.335938 195.570312 77.410156 194.761719 77.429688 C 193.957031 77.457031 193.152344 77.460938 192.351562 77.4375 C 191.550781 77.410156 190.753906 77.347656 189.957031 77.257812 C 189.164062 77.164062 188.359375 77.027344 187.59375 76.839844 L 187.578125 76.835938 C 187.5 76.8125 187.414062 76.851562 187.378906 76.929688 C 187.332031 77.015625 187.363281 77.125 187.453125 77.171875 C 188.21875 77.5625 189.023438 77.78125 189.84375 77.953125 C 190.660156 78.125 191.492188 78.203125 192.328125 78.234375 C 193.160156 78.242188 193.992188 78.222656 194.816406 78.101562 Z M 207.054688 76.011719 C 206.984375 75.96875 206.886719 75.988281 206.835938 76.054688 C 206.769531 76.132812 206.78125 76.246094 206.859375 76.308594 C 207.648438 76.949219 208.550781 77.359375 209.492188 77.671875 C 210.433594 77.988281 211.414062 78.152344 212.40625 78.21875 C 213.394531 78.25 214.386719 78.21875 215.351562 78.023438 C 215.835938 77.953125 216.308594 77.800781 216.785156 77.6875 C 217.25 77.539062 217.707031 77.371094 218.160156 77.195312 C 218.226562 77.164062 218.265625 77.097656 218.253906 77.023438 C 218.238281 76.941406 218.15625 76.886719 218.078125 76.902344 L 218.066406 76.902344 C 217.125 77.082031 216.195312 77.269531 215.257812 77.355469 C 214.320312 77.457031 213.382812 77.464844 212.449219 77.425781 C 211.519531 77.363281 210.597656 77.21875 209.691406 76.996094 C 208.789062 76.769531 207.890625 76.445312 207.074219 76.019531 Z M 187.527344 105.609375 C 185.25 105.609375 183.402344 103.761719 183.402344 101.484375 C 183.402344 99.207031 185.25 97.363281 187.527344 97.363281 C 189.800781 97.363281 191.644531 99.207031 191.644531 101.484375 C 191.644531 103.761719 189.800781 105.609375 187.527344 105.609375 "/>
</g>
</svg>
