<?xml version="1.0" encoding="utf-8"?>
<!-- Generator: Adobe Illustrator 25.2.0, SVG Export Plug-In . SVG Version: 6.00 Build 0)  -->
<svg version="1.1" id="Capa_1" xmlns="http://www.w3.org/2000/svg" xmlns:xlink="http://www.w3.org/1999/xlink" x="0px" y="0px"
	 viewBox="0 0 792 612" style="enable-background:new 0 0 792 612;" xml:space="preserve">
<style type="text/css">
	.st0{fill:#E5231E;}
	.st1{fill:#5A5A5A;}
	.st2{font-family:'FuturaBT-Medium', sans-serif;}
	.st3{font-size:23.8951px;}
	.st4{letter-spacing:4;}
	.st5{fill:#FFFFFF;}
	.st6{font-size:21.3517px;}
	.st7{letter-spacing:3;}
</style>
<rect x="224.88" y="202.03" class="st0" width="335.24" height="22.01"/>
<path class="st1" d="M316.5,350.64h-34.47l11.99,18.46h34.34L316.5,350.64z M295.84,318.47c7.94-3.12,11.83-6.05,16.74-12.92
	c5.89-8.32,8.84-17.2,8.84-26.62v-3.64c0-15.46-5.02-23.22-13.53-31.73c-8.44-8.35-21.02-14.22-36.58-14.22H225.7l0.07,106.71h28.11
	v-28.77l18.68,28.77h34.57L295.84,318.47z M273.99,295.84h-9.36v-0.09h-10.84v-38.58h15.78c6.78,0,13.7,2,17.34,5.55
	c3.7,3.87,5.55,8.35,5.55,13.44C292.46,286.81,284.23,295.84,273.99,295.84z M225.79,369.1h28.09v-18.46h-28.1L225.79,369.1z"/>
<path class="st0" d="M452.78,371.97v-21.33h-22.39L452.78,371.97z M424.61,228.99v77.6l-84.19-80.2v109.66h28.09v-44.37l46.57,44.37
	h37.7V228.99H424.61z M340.42,369.28h28.09v-18.64h-28.09V369.28z"/>
<path class="st1" d="M463.76,229.32v27.71h34.27v79.02h28.06v-79.02h34.18v-27.71H463.76z M498.03,368.48h28.06v-17.84h-28.06
	V368.48z"/>
<text transform="matrix(1 0 0 1 260.7951 401.6428)" class="st2 st3 st4">running trader</text>
<text transform="matrix(1 0 0 1 228.4463 220.4221)" class="st5 st2 st6 st7">smart money concept</text>
</svg>
