<?xml version="1.0" encoding="UTF-8"?>
<svg xmlns="http://www.w3.org/2000/svg" xmlns:xlink="http://www.w3.org/1999/xlink" width="375pt" height="371.249998pt" viewBox="0 0 375 371.249998" version="1.2">
<defs>
<clipPath id="clip1">
  <path d="M 4.328125 20.070312 L 365.378906 20.070312 L 365.378906 354.246094 L 4.328125 354.246094 Z M 4.328125 20.070312 "/>
</clipPath>
<clipPath id="clip2">
  <path d="M 34.542969 20.070312 L 362 20.070312 L 362 354.246094 L 34.542969 354.246094 Z M 34.542969 20.070312 "/>
</clipPath>
<clipPath id="clip3">
  <path d="M 4.328125 16.066406 L 356 16.066406 L 356 343 L 4.328125 343 Z M 4.328125 16.066406 "/>
</clipPath>
<clipPath id="clip4">
  <path d="M 30.671875 21 L 365.378906 21 L 365.378906 354.246094 L 30.671875 354.246094 Z M 30.671875 21 "/>
</clipPath>
<clipPath id="clip5">
  <path d="M 72 105.359375 L 370.332031 105.359375 L 370.332031 344 L 72 344 Z M 72 105.359375 "/>
</clipPath>
</defs>
<g id="surface1">
<g clip-path="url(#clip1)" clip-rule="nonzero">
<path style=" stroke:none;fill-rule:nonzero;fill:rgb(96.078491%,42.349243%,36.468506%);fill-opacity:1;" d="M 323.460938 281.375 L 310.03125 261.164062 L 304.847656 261.164062 C 299.589844 268.183594 294.042969 274.949219 288.253906 281.375 Z M 58.816406 54.023438 C 58.816406 54.335938 58.84375 54.640625 58.886719 54.9375 C 62.222656 52.667969 65.679688 50.519531 69.238281 48.484375 C 68.167969 47.761719 66.882812 47.335938 65.496094 47.335938 C 61.8125 47.335938 58.816406 50.335938 58.816406 54.023438 Z M 365.21875 293.457031 L 349.644531 293.457031 L 356.695312 354.246094 L 345.382812 354.246094 L 338.328125 293.457031 L 298.441406 293.457031 L 291.390625 354.246094 L 280.074219 354.246094 L 287.128906 293.457031 L 276.6875 293.457031 C 246.519531 323.023438 211.207031 342.949219 176.589844 342.949219 C 161.121094 342.949219 145.792969 339.933594 131.03125 334.5 L 133.324219 354.246094 L 122.007812 354.246094 L 119.140625 329.546875 C 103.183594 322.125 88.0625 311.917969 74.34375 299.714844 L 68.015625 354.246094 L 56.703125 354.246094 L 63.753906 293.457031 L 49.035156 293.457031 L 49.035156 281.375 L 56.085938 281.375 C 24.757812 245.914062 4.328125 199.832031 4.328125 156.125 C 4.328125 115.363281 22.097656 83.785156 49.902344 61.566406 C 49.417969 60.574219 49.03125 59.539062 48.75 58.472656 L 43.664062 57.351562 L 43.664062 50.699219 L 48.75 49.578125 C 49.148438 48.082031 49.738281 46.652344 50.511719 45.316406 L 47.707031 40.925781 L 52.410156 36.222656 L 56.796875 39.03125 C 58.132812 38.25 59.558594 37.660156 61.054688 37.265625 L 62.171875 32.171875 L 68.824219 32.171875 L 69.9375 37.265625 C 71.433594 37.660156 72.863281 38.25 74.199219 39.03125 L 78.585938 36.222656 L 83.285156 40.925781 L 82.945312 41.460938 C 85.472656 40.304688 88.042969 39.199219 90.648438 38.144531 L 90.648438 32.171875 L 107.628906 32.171875 C 121.296875 28.042969 135.71875 25.207031 150.503906 23.679688 C 150.488281 23.550781 150.464844 23.429688 150.464844 23.292969 C 150.464844 21.75 151.722656 20.492188 153.265625 20.492188 C 154.765625 20.492188 155.984375 21.679688 156.054688 23.164062 C 162.847656 22.617188 169.703125 22.339844 176.589844 22.339844 C 265.054688 22.339844 358.105469 35.71875 358.105469 124.253906 C 358.105469 165.117188 338.28125 214.847656 308.234375 256.554688 L 331.714844 256.554688 L 348.210938 281.375 L 365.21875 281.375 Z M 45.589844 26.097656 C 47.132812 26.097656 48.386719 24.84375 48.386719 23.292969 C 48.386719 21.75 47.132812 20.492188 45.589844 20.492188 C 44.042969 20.492188 42.785156 21.75 42.785156 23.292969 C 42.785156 24.84375 44.042969 26.097656 45.589844 26.097656 Z M 260.605469 23.292969 C 260.605469 21.75 261.863281 20.492188 263.40625 20.492188 C 264.953125 20.492188 266.210938 21.75 266.210938 23.292969 C 266.210938 24.84375 264.953125 26.097656 263.40625 26.097656 C 261.863281 26.097656 260.605469 24.84375 260.605469 23.292969 "/>
</g>
<g clip-path="url(#clip2)" clip-rule="nonzero">
<path style=" stroke:none;fill-rule:nonzero;fill:rgb(91.758728%,91.758728%,91.758728%);fill-opacity:1;" d="M 255.730469 25.324219 C 256.851562 25.324219 257.757812 24.414062 257.757812 23.292969 C 257.757812 22.175781 256.851562 21.269531 255.730469 21.269531 C 254.613281 21.269531 253.703125 22.175781 253.703125 23.292969 C 253.703125 24.414062 254.613281 25.324219 255.730469 25.324219 Z M 301.585938 86.035156 L 311.023438 86.035156 L 311.023438 83.707031 L 301.585938 83.707031 Z M 297.925781 54.644531 L 285.066406 46.957031 L 285.066406 62.332031 Z M 330.058594 75.875 L 252.933594 75.875 L 252.933594 35.558594 L 330.058594 35.558594 Z M 315.128906 81.121094 L 308.558594 81.121094 L 308.558594 83.445312 L 315.128906 83.445312 Z M 301.585938 81.121094 L 301.585938 83.445312 L 308.15625 83.445312 L 308.15625 81.121094 Z M 315.128906 78.539062 L 301.585938 78.539062 L 301.585938 80.863281 L 315.128906 80.863281 Z M 98.257812 86.164062 L 90.375 86.164062 L 90.375 86.9375 L 98.257812 86.9375 Z M 102.367188 84.351562 L 102.367188 83.578125 L 97.347656 83.578125 L 97.347656 84.351562 Z M 95.390625 83.578125 L 90.375 83.578125 L 90.375 84.351562 L 95.390625 84.351562 Z M 102.367188 80.992188 L 90.375 80.992188 L 90.375 81.769531 L 102.367188 81.769531 Z M 48.789062 86.164062 L 40.90625 86.164062 L 40.90625 86.9375 L 48.789062 86.9375 Z M 52.898438 84.351562 L 52.898438 83.578125 L 47.878906 83.578125 L 47.878906 84.351562 Z M 45.925781 83.578125 L 40.90625 83.578125 L 40.90625 84.351562 L 45.925781 84.351562 Z M 52.898438 80.992188 L 40.90625 80.992188 L 40.90625 81.769531 L 52.898438 81.769531 Z M 105.214844 62.089844 L 91.421875 62.089844 L 91.421875 66.917969 L 105.214844 66.917969 Z M 105.214844 41.011719 L 91.421875 41.011719 L 91.421875 45.839844 L 105.214844 45.839844 Z M 37.914062 25.324219 C 39.03125 25.324219 39.9375 24.414062 39.9375 23.292969 C 39.9375 22.175781 39.03125 21.269531 37.914062 21.269531 C 36.792969 21.269531 35.886719 22.175781 35.886719 23.292969 C 35.886719 24.414062 36.792969 25.324219 37.914062 25.324219 Z M 53.960938 54.023438 C 53.960938 60.390625 59.132812 65.570312 65.496094 65.570312 C 71.859375 65.570312 77.035156 60.390625 77.035156 54.023438 C 77.035156 47.660156 71.859375 42.476562 65.496094 42.476562 C 59.132812 42.476562 53.960938 47.660156 53.960938 54.023438 Z M 53.183594 54.023438 C 53.183594 47.230469 58.707031 41.699219 65.496094 41.699219 C 72.289062 41.699219 77.8125 47.230469 77.8125 54.023438 C 77.8125 60.820312 72.289062 66.347656 65.496094 66.347656 C 58.707031 66.347656 53.183594 60.820312 53.183594 54.023438 Z M 200.199219 123.589844 C 199.566406 123.589844 198.992188 124.101562 198.910156 124.734375 C 198.828125 125.367188 199.28125 125.878906 199.914062 125.878906 C 200.546875 125.878906 201.125 125.367188 201.203125 124.734375 C 201.28125 124.101562 200.832031 123.589844 200.199219 123.589844 Z M 233.089844 123.957031 L 221.554688 123.957031 C 221.125 123.957031 220.777344 124.304688 220.777344 124.734375 C 220.777344 125.164062 221.125 125.507812 221.554688 125.507812 L 233.089844 125.507812 C 233.515625 125.507812 233.863281 125.164062 233.863281 124.734375 C 233.863281 124.304688 233.515625 123.957031 233.089844 123.957031 Z M 145.589844 26.097656 C 147.132812 26.097656 148.394531 24.84375 148.394531 23.292969 C 148.394531 21.75 147.132812 20.492188 145.589844 20.492188 C 144.046875 20.492188 142.789062 21.75 142.789062 23.292969 C 142.789062 24.84375 144.046875 26.097656 145.589844 26.097656 Z M 166.484375 78.253906 C 166.484375 79.480469 167.480469 80.476562 168.703125 80.476562 L 185.484375 80.476562 C 186.707031 80.476562 187.703125 79.480469 187.703125 78.253906 C 187.703125 77.03125 186.707031 76.039062 185.484375 76.039062 L 168.703125 76.039062 C 167.480469 76.039062 166.484375 77.03125 166.484375 78.253906 Z M 151.140625 66.984375 L 167.921875 66.984375 C 169.144531 66.984375 170.140625 65.988281 170.140625 64.761719 C 170.140625 63.539062 169.144531 62.546875 167.921875 62.546875 L 151.140625 62.546875 C 149.917969 62.546875 148.921875 63.539062 148.921875 64.761719 C 148.921875 65.988281 149.917969 66.984375 151.140625 66.984375 Z M 151.140625 53.488281 L 180.214844 53.488281 C 181.441406 53.488281 182.433594 52.492188 182.433594 51.269531 C 182.433594 50.046875 181.441406 49.050781 180.214844 49.050781 L 151.140625 49.050781 C 149.917969 49.050781 148.921875 50.046875 148.921875 51.269531 C 148.921875 52.492188 149.917969 53.488281 151.140625 53.488281 Z M 185.820312 66.984375 L 191.757812 66.984375 C 192.980469 66.984375 193.972656 65.988281 193.972656 64.761719 C 193.972656 63.539062 192.980469 62.546875 191.757812 62.546875 L 185.820312 62.546875 C 184.597656 62.546875 183.601562 63.539062 183.601562 64.761719 C 183.601562 65.988281 184.597656 66.984375 185.820312 66.984375 Z M 179.773438 66.984375 C 180.996094 66.984375 181.992188 65.988281 181.992188 64.761719 C 181.992188 63.539062 180.996094 62.546875 179.773438 62.546875 L 173.839844 62.546875 C 172.617188 62.546875 171.621094 63.539062 171.621094 64.761719 C 171.621094 65.988281 172.617188 66.984375 173.839844 66.984375 Z M 151.140625 46.742188 L 157.074219 46.742188 C 158.296875 46.742188 159.292969 45.746094 159.292969 44.523438 C 159.292969 43.300781 158.296875 42.304688 157.074219 42.304688 L 151.140625 42.304688 C 149.917969 42.304688 148.921875 43.300781 148.921875 44.523438 C 148.921875 45.746094 149.917969 46.742188 151.140625 46.742188 Z M 151.140625 39.996094 L 171.125 39.996094 C 172.347656 39.996094 173.34375 39.003906 173.34375 37.777344 C 173.34375 36.554688 172.347656 35.558594 171.125 35.558594 L 151.140625 35.558594 C 149.917969 35.558594 148.921875 36.554688 148.921875 37.777344 C 148.921875 39.003906 149.917969 39.996094 151.140625 39.996094 Z M 194.300781 333.203125 L 53.277344 333.203125 C 47.46875 333.203125 42.761719 337.914062 42.761719 343.726562 C 42.761719 349.539062 47.46875 354.246094 53.277344 354.246094 L 194.300781 354.246094 C 200.105469 354.246094 204.8125 349.539062 204.8125 343.726562 C 204.8125 337.914062 200.105469 333.203125 194.300781 333.203125 Z M 356.996094 113.367188 C 356.996094 112.9375 356.648438 112.589844 356.222656 112.589844 L 318.125 112.589844 C 317.695312 112.589844 317.351562 112.9375 317.351562 113.367188 C 317.351562 113.796875 317.695312 114.140625 318.125 114.140625 L 356.222656 114.140625 C 356.648438 114.140625 356.996094 113.796875 356.996094 113.367188 Z M 339.097656 125.507812 L 345.628906 125.507812 C 346.054688 125.507812 346.402344 125.164062 346.402344 124.734375 C 346.402344 124.304688 346.054688 123.957031 345.628906 123.957031 L 339.097656 123.957031 C 338.671875 123.957031 338.320312 124.304688 338.320312 124.734375 C 338.320312 125.164062 338.671875 125.507812 339.097656 125.507812 Z M 354.457031 129.800781 C 354.457031 129.371094 354.109375 129.023438 353.683594 129.023438 L 338.460938 129.023438 C 338.035156 129.023438 337.6875 129.371094 337.6875 129.800781 C 337.6875 130.226562 338.035156 130.574219 338.460938 130.574219 L 353.683594 130.574219 C 354.109375 130.574219 354.457031 130.226562 354.457031 129.800781 Z M 337.824219 135.640625 L 345.640625 135.640625 C 346.070312 135.640625 346.414062 135.292969 346.414062 134.867188 C 346.414062 134.4375 346.070312 134.09375 345.640625 134.09375 L 337.824219 134.09375 C 337.398438 134.09375 337.050781 134.4375 337.050781 134.867188 C 337.050781 135.292969 337.398438 135.640625 337.824219 135.640625 Z M 333.246094 167.964844 C 332.816406 167.964844 332.472656 168.3125 332.472656 168.742188 C 332.472656 169.167969 332.816406 169.515625 333.246094 169.515625 L 339.773438 169.515625 C 340.203125 169.515625 340.550781 169.167969 340.550781 168.742188 C 340.550781 168.3125 340.203125 167.964844 339.773438 167.964844 Z M 348.601562 173.804688 C 348.601562 173.378906 348.253906 173.03125 347.828125 173.03125 L 332.609375 173.03125 C 332.179688 173.03125 331.832031 173.378906 331.832031 173.804688 C 331.832031 174.234375 332.179688 174.582031 332.609375 174.582031 L 347.828125 174.582031 C 348.253906 174.582031 348.601562 174.234375 348.601562 173.804688 Z M 340.5625 178.871094 C 340.5625 178.441406 340.21875 178.097656 339.785156 178.097656 L 331.972656 178.097656 C 331.546875 178.097656 331.199219 178.441406 331.199219 178.871094 C 331.199219 179.300781 331.546875 179.648438 331.972656 179.648438 L 339.785156 179.648438 C 340.21875 179.648438 340.5625 179.300781 340.5625 178.871094 Z M 323.886719 130.382812 C 323.886719 129.957031 323.539062 129.609375 323.109375 129.609375 L 310.058594 129.609375 C 309.628906 129.609375 309.28125 129.957031 309.28125 130.382812 C 309.28125 130.816406 309.628906 131.160156 310.058594 131.160156 L 323.109375 131.160156 C 323.539062 131.160156 323.886719 130.816406 323.886719 130.382812 Z M 317.347656 140.519531 C 317.347656 140.089844 317.003906 139.742188 316.574219 139.742188 L 305.167969 139.742188 C 304.738281 139.742188 304.390625 140.089844 304.390625 140.519531 C 304.390625 140.945312 304.738281 141.292969 305.167969 141.292969 L 316.574219 141.292969 C 317.003906 141.292969 317.347656 140.945312 317.347656 140.519531 Z M 314.621094 204.152344 C 314.621094 203.726562 314.277344 203.378906 313.847656 203.378906 L 293.308594 203.378906 C 292.882812 203.378906 292.535156 203.726562 292.535156 204.152344 C 292.535156 204.582031 292.882812 204.929688 293.308594 204.929688 L 313.847656 204.929688 C 314.277344 204.929688 314.621094 204.582031 314.621094 204.152344 Z M 256.355469 119.085938 L 199.707031 119.085938 C 197.566406 119.085938 195.617188 120.820312 195.347656 122.960938 L 194.414062 130.382812 L 258.808594 130.382812 L 259.742188 122.960938 C 260.011719 120.820312 258.496094 119.085938 256.355469 119.085938 Z M 249.863281 177.375 C 249.863281 176.945312 249.515625 176.597656 249.089844 176.597656 L 242.175781 176.597656 C 241.75 176.597656 241.402344 176.945312 241.402344 177.375 C 241.402344 177.800781 241.75 178.148438 242.175781 178.148438 L 249.089844 178.148438 C 249.515625 178.148438 249.863281 177.800781 249.863281 177.375 Z M 233.191406 181.097656 C 233.191406 180.664062 232.84375 180.320312 232.414062 180.320312 L 225.941406 180.320312 C 225.515625 180.320312 225.167969 180.664062 225.167969 181.097656 C 225.167969 181.523438 225.515625 181.871094 225.941406 181.871094 L 232.414062 181.871094 C 232.84375 181.871094 233.191406 181.523438 233.191406 181.097656 Z M 219.792969 177.375 C 219.792969 176.945312 219.445312 176.597656 219.015625 176.597656 L 212.105469 176.597656 C 211.675781 176.597656 211.328125 176.945312 211.328125 177.375 C 211.328125 177.800781 211.675781 178.148438 212.105469 178.148438 L 219.015625 178.148438 C 219.445312 178.148438 219.792969 177.800781 219.792969 177.375 Z M 200.964844 207.335938 L 195.066406 207.335938 C 194.25 207.335938 193.507812 207.996094 193.40625 208.8125 C 193.304688 209.625 193.882812 210.285156 194.695312 210.285156 L 200.597656 210.285156 C 201.410156 210.285156 202.152344 209.625 202.257812 208.8125 C 202.355469 207.996094 201.78125 207.335938 200.964844 207.335938 Z M 194.90625 197.242188 C 195.539062 197.242188 196.113281 196.726562 196.195312 196.09375 C 196.277344 195.460938 195.828125 194.945312 195.195312 194.945312 C 194.5625 194.945312 193.984375 195.460938 193.90625 196.09375 C 193.824219 196.726562 194.273438 197.242188 194.90625 197.242188 Z M 194.230469 181.097656 C 194.230469 181.523438 194.574219 181.871094 195.003906 181.871094 L 199.757812 181.871094 C 200.1875 181.871094 200.535156 181.523438 200.535156 181.097656 C 200.535156 180.664062 200.1875 180.320312 199.757812 180.320312 L 195.003906 180.320312 C 194.574219 180.320312 194.230469 180.664062 194.230469 181.097656 Z M 224.648438 140.519531 C 224.648438 140.089844 224.304688 139.742188 223.875 139.742188 L 209.242188 139.742188 C 208.8125 139.742188 208.464844 140.089844 208.464844 140.519531 C 208.464844 140.945312 208.8125 141.292969 209.242188 141.292969 L 223.875 141.292969 C 224.304688 141.292969 224.648438 140.945312 224.648438 140.519531 Z M 274.226562 224.417969 C 274.226562 224.847656 274.570312 225.191406 275 225.191406 L 304.628906 225.191406 C 305.058594 225.191406 305.402344 224.847656 305.402344 224.417969 C 305.402344 223.988281 305.058594 223.640625 304.628906 223.640625 L 275 223.640625 C 274.570312 223.640625 274.226562 223.988281 274.226562 224.417969 Z M 280.945312 170.914062 C 280.945312 171.339844 281.292969 171.6875 281.71875 171.6875 L 289.535156 171.6875 C 289.960938 171.6875 290.308594 171.339844 290.308594 170.914062 C 290.308594 170.484375 289.960938 170.136719 289.535156 170.136719 L 281.71875 170.136719 C 281.292969 170.136719 280.945312 170.484375 280.945312 170.914062 Z M 283.492188 150.648438 C 283.492188 151.078125 283.839844 151.425781 284.265625 151.425781 L 293.679688 151.425781 C 294.109375 151.425781 294.457031 151.078125 294.457031 150.648438 C 294.457031 150.21875 294.109375 149.875 293.679688 149.875 L 284.265625 149.875 C 283.839844 149.875 283.492188 150.21875 283.492188 150.648438 Z M 285.398438 135.453125 C 285.398438 135.878906 285.746094 136.226562 286.171875 136.226562 L 292.699219 136.226562 C 293.128906 136.226562 293.476562 135.878906 293.476562 135.453125 C 293.476562 135.023438 293.128906 134.675781 292.699219 134.675781 L 286.171875 134.675781 C 285.746094 134.675781 285.398438 135.023438 285.398438 135.453125 Z M 311.339844 150.648438 C 311.339844 150.21875 310.992188 149.875 310.566406 149.875 L 297.066406 149.875 C 296.640625 149.875 296.292969 150.21875 296.292969 150.648438 C 296.292969 151.078125 296.640625 151.425781 297.066406 151.425781 L 310.566406 151.425781 C 310.992188 151.425781 311.339844 151.078125 311.339844 150.648438 Z M 313.394531 166.621094 C 313.824219 166.621094 314.167969 166.277344 314.167969 165.847656 C 314.167969 165.417969 313.824219 165.070312 313.394531 165.070312 L 301.984375 165.070312 C 301.558594 165.070312 301.210938 165.417969 301.210938 165.847656 C 301.210938 166.277344 301.558594 166.621094 301.984375 166.621094 Z M 361.9375 115.953125 L 349.9375 224.277344 C 349.582031 227.476562 346.886719 229.890625 343.671875 229.890625 L 175.621094 229.890625 C 173.804688 229.890625 172.136719 229.144531 170.925781 227.792969 C 170.683594 227.523438 170.476562 227.234375 170.289062 226.9375 C 168.542969 239.347656 160.179688 253.347656 160.179688 264.265625 C 160.179688 276.257812 169.316406 293.457031 169.316406 293.457031 C 169.316406 293.457031 166.074219 320.308594 133.167969 320.308594 C 121.273438 320.308594 112.878906 318.222656 108.5625 316.8125 C 106.316406 316.078125 104.664062 314.191406 104.160156 311.886719 C 100.335938 294.507812 102.929688 269.839844 105.625 261.164062 C 107.449219 255.300781 105.304688 225.269531 98.269531 203.859375 C 94.675781 192.933594 102.804688 181.695312 114.292969 181.695312 L 117.015625 173.03125 C 117.015625 173.03125 125.667969 168.84375 134.808594 170.703125 C 143.953125 172.566406 148.320312 175.082031 151.726562 175.558594 L 149.519531 181.742188 C 153.289062 182.074219 156.660156 184.320312 158.386719 187.746094 C 162.105469 195.144531 168.023438 207.847656 169.964844 217.394531 L 181.355469 114.5625 C 181.707031 111.359375 184.402344 108.945312 187.621094 108.945312 L 355.671875 108.945312 C 357.484375 108.945312 359.15625 109.695312 360.367188 111.046875 C 361.582031 112.402344 362.136719 114.144531 361.9375 115.953125 Z M 204.539062 123.589844 C 203.910156 123.589844 203.332031 124.101562 203.25 124.734375 C 203.167969 125.367188 203.617188 125.878906 204.25 125.878906 C 204.882812 125.878906 205.460938 125.367188 205.539062 124.734375 C 205.621094 124.101562 205.171875 123.589844 204.539062 123.589844 Z M 208.878906 123.589844 C 208.246094 123.589844 207.667969 124.101562 207.589844 124.734375 C 207.511719 125.367188 207.957031 125.878906 208.589844 125.878906 C 209.222656 125.878906 209.800781 125.367188 209.878906 124.734375 C 209.957031 124.101562 209.511719 123.589844 208.878906 123.589844 Z M 90.128906 120.046875 L 80.90625 120.046875 L 80.90625 140.179688 L 90.128906 140.179688 Z M 57.765625 140.179688 L 66.988281 140.179688 L 66.988281 122.835938 L 57.765625 122.835938 Z M 43.847656 140.179688 L 34.621094 140.179688 L 34.621094 128.886719 L 43.847656 128.886719 L 43.847656 140.179688 "/>
</g>
<g clip-path="url(#clip3)" clip-rule="nonzero">
<path style=" stroke:none;fill-rule:nonzero;fill:rgb(98.429871%,76.469421%,63.139343%);fill-opacity:1;" d="M 65.496094 61.488281 C 69.617188 61.488281 72.953125 58.148438 72.953125 54.023438 C 72.953125 49.902344 69.617188 46.5625 65.496094 46.5625 C 61.378906 46.5625 58.042969 49.902344 58.042969 54.023438 C 58.042969 58.148438 61.378906 61.488281 65.496094 61.488281 Z M 43.558594 23.292969 C 43.558594 24.414062 44.46875 25.324219 45.589844 25.324219 C 46.707031 25.324219 47.613281 24.414062 47.613281 23.292969 C 47.613281 22.175781 46.707031 21.269531 45.589844 21.269531 C 44.46875 21.269531 43.558594 22.175781 43.558594 23.292969 Z M 48.695312 41.035156 L 51.425781 45.304688 C 50.492188 46.804688 49.800781 48.464844 49.386719 50.234375 L 44.4375 51.320312 L 44.4375 56.726562 L 49.386719 57.816406 C 49.800781 59.585938 50.492188 61.246094 51.425781 62.746094 L 48.695312 67.015625 L 52.515625 70.839844 L 56.785156 68.109375 C 58.285156 69.039062 59.941406 69.734375 61.707031 70.148438 L 62.796875 75.101562 L 68.199219 75.101562 L 69.289062 70.148438 C 71.054688 69.734375 72.710938 69.039062 74.210938 68.109375 L 78.480469 70.839844 L 82.300781 67.015625 L 79.570312 62.746094 C 80.5 61.246094 81.195312 59.585938 81.609375 57.816406 L 86.558594 56.726562 L 86.558594 51.320312 L 81.609375 50.234375 C 81.195312 48.464844 80.5 46.804688 79.570312 45.304688 L 82.300781 41.035156 L 78.480469 37.210938 L 74.210938 39.941406 C 72.710938 39.011719 71.054688 38.316406 69.289062 37.902344 L 68.199219 32.949219 L 62.796875 32.949219 L 61.707031 37.902344 C 59.941406 38.316406 58.285156 39.011719 56.785156 39.941406 L 52.515625 37.210938 Z M 91.421875 58.851562 L 112.496094 58.851562 L 112.496094 54.023438 L 91.421875 54.023438 Z M 91.421875 37.777344 L 112.496094 37.777344 L 112.496094 32.949219 L 91.421875 32.949219 Z M 69.386719 80.992188 L 57.394531 80.992188 L 57.394531 81.769531 L 69.386719 81.769531 Z M 69.386719 83.578125 L 64.367188 83.578125 L 64.367188 84.351562 L 69.386719 84.351562 Z M 62.414062 84.351562 L 62.414062 83.578125 L 57.394531 83.578125 L 57.394531 84.351562 Z M 65.28125 86.164062 L 57.394531 86.164062 L 57.394531 86.9375 L 65.28125 86.9375 Z M 121.773438 76.425781 L 135.789062 76.425781 L 135.789062 55.03125 L 121.773438 55.03125 Z M 121.773438 54.253906 L 135.789062 54.253906 L 135.789062 32.863281 L 121.773438 32.863281 Z M 143.566406 78.253906 C 143.566406 79.054688 144.210938 79.699219 145.007812 79.699219 L 145.140625 79.699219 C 145.941406 79.699219 146.585938 79.054688 146.585938 78.253906 C 146.585938 77.460938 145.941406 76.8125 145.140625 76.8125 L 145.007812 76.8125 C 144.210938 76.8125 143.566406 77.460938 143.566406 78.253906 Z M 143.566406 71.511719 C 143.566406 72.308594 144.210938 72.957031 145.007812 72.957031 L 145.140625 72.957031 C 145.941406 72.957031 146.585938 72.308594 146.585938 71.511719 C 146.585938 70.714844 145.941406 70.066406 145.140625 70.066406 L 145.007812 70.066406 C 144.210938 70.066406 143.566406 70.714844 143.566406 71.511719 Z M 143.566406 64.765625 C 143.566406 65.5625 144.210938 66.207031 145.007812 66.207031 L 145.140625 66.207031 C 145.941406 66.207031 146.585938 65.5625 146.585938 64.765625 C 146.585938 63.964844 145.941406 63.320312 145.140625 63.320312 L 145.007812 63.320312 C 144.210938 63.320312 143.566406 63.964844 143.566406 64.765625 Z M 143.566406 58.015625 C 143.566406 58.8125 144.210938 59.460938 145.007812 59.460938 L 145.140625 59.460938 C 145.941406 59.460938 146.585938 58.8125 146.585938 58.015625 C 146.585938 57.21875 145.941406 56.574219 145.140625 56.574219 L 145.007812 56.574219 C 144.210938 56.574219 143.566406 57.21875 143.566406 58.015625 Z M 143.566406 51.269531 C 143.566406 52.070312 144.210938 52.714844 145.007812 52.714844 L 145.140625 52.714844 C 145.941406 52.714844 146.585938 52.070312 146.585938 51.269531 C 146.585938 50.472656 145.941406 49.828125 145.140625 49.828125 L 145.007812 49.828125 C 144.210938 49.828125 143.566406 50.472656 143.566406 51.269531 Z M 143.566406 44.523438 C 143.566406 45.320312 144.210938 45.96875 145.007812 45.96875 L 145.140625 45.96875 C 145.941406 45.96875 146.585938 45.320312 146.585938 44.523438 C 146.585938 43.726562 145.941406 43.078125 145.140625 43.078125 L 145.007812 43.078125 C 144.210938 43.078125 143.566406 43.726562 143.566406 44.523438 Z M 143.566406 37.777344 C 143.566406 38.574219 144.210938 39.21875 145.007812 39.21875 L 145.140625 39.21875 C 145.941406 39.21875 146.585938 38.574219 146.585938 37.777344 C 146.585938 36.980469 145.941406 36.332031 145.140625 36.332031 L 145.007812 36.332031 C 144.210938 36.332031 143.566406 36.980469 143.566406 37.777344 Z M 143.566406 31.03125 C 143.566406 31.828125 144.210938 32.476562 145.007812 32.476562 L 145.140625 32.476562 C 145.941406 32.476562 146.585938 31.828125 146.585938 31.03125 C 146.585938 30.234375 145.941406 29.585938 145.140625 29.585938 L 145.007812 29.585938 C 144.210938 29.585938 143.566406 30.234375 143.566406 31.03125 Z M 143.566406 23.292969 C 143.566406 24.414062 144.46875 25.324219 145.589844 25.324219 C 146.710938 25.324219 147.617188 24.414062 147.617188 23.292969 C 147.617188 22.175781 146.710938 21.269531 145.589844 21.269531 C 144.46875 21.269531 143.566406 22.175781 143.566406 23.292969 Z M 149.699219 78.253906 C 149.699219 79.054688 150.34375 79.699219 151.140625 79.699219 L 163.378906 79.699219 C 164.171875 79.699219 164.820312 79.054688 164.820312 78.253906 C 164.820312 77.460938 164.171875 76.8125 163.378906 76.8125 L 151.140625 76.8125 C 150.34375 76.8125 149.699219 77.460938 149.699219 78.253906 Z M 149.699219 71.511719 C 149.699219 72.308594 150.34375 72.957031 151.140625 72.957031 L 177.324219 72.957031 C 178.121094 72.957031 178.765625 72.308594 178.765625 71.511719 C 178.765625 70.714844 178.121094 70.066406 177.324219 70.066406 L 151.140625 70.066406 C 150.34375 70.066406 149.699219 70.714844 149.699219 71.511719 Z M 149.699219 64.765625 C 149.699219 65.5625 150.34375 66.207031 151.140625 66.207031 L 167.921875 66.207031 C 168.71875 66.207031 169.367188 65.5625 169.367188 64.765625 C 169.367188 63.964844 168.71875 63.320312 167.921875 63.320312 L 151.140625 63.320312 C 150.34375 63.320312 149.699219 63.964844 149.699219 64.765625 Z M 149.699219 58.015625 C 149.699219 58.8125 150.34375 59.460938 151.140625 59.460938 L 173.296875 59.460938 C 174.089844 59.460938 174.734375 58.8125 174.734375 58.015625 C 174.734375 57.21875 174.089844 56.574219 173.296875 56.574219 L 151.140625 56.574219 C 150.34375 56.574219 149.699219 57.21875 149.699219 58.015625 Z M 149.699219 51.269531 C 149.699219 52.070312 150.34375 52.714844 151.140625 52.714844 L 180.214844 52.714844 C 181.011719 52.714844 181.65625 52.070312 181.65625 51.269531 C 181.65625 50.472656 181.011719 49.828125 180.214844 49.828125 L 151.140625 49.828125 C 150.34375 49.828125 149.699219 50.472656 149.699219 51.269531 Z M 149.699219 44.523438 C 149.699219 45.320312 150.34375 45.96875 151.140625 45.96875 L 157.074219 45.96875 C 157.871094 45.96875 158.519531 45.320312 158.519531 44.523438 C 158.519531 43.726562 157.871094 43.078125 157.074219 43.078125 L 151.140625 43.078125 C 150.34375 43.078125 149.699219 43.726562 149.699219 44.523438 Z M 149.699219 37.777344 C 149.699219 38.574219 150.34375 39.21875 151.140625 39.21875 L 171.125 39.21875 C 171.921875 39.21875 172.570312 38.574219 172.570312 37.777344 C 172.570312 36.980469 171.921875 36.332031 171.125 36.332031 L 151.140625 36.332031 C 150.34375 36.332031 149.699219 36.980469 149.699219 37.777344 Z M 149.699219 31.03125 C 149.699219 31.828125 150.34375 32.476562 151.140625 32.476562 L 160.316406 32.476562 C 161.113281 32.476562 161.757812 31.828125 161.757812 31.03125 C 161.757812 30.234375 161.113281 29.585938 160.316406 29.585938 L 151.140625 29.585938 C 150.34375 29.585938 149.699219 30.234375 149.699219 31.03125 Z M 151.238281 23.292969 C 151.238281 24.414062 152.144531 25.324219 153.265625 25.324219 C 154.386719 25.324219 155.292969 24.414062 155.292969 23.292969 C 155.292969 22.175781 154.386719 21.269531 153.265625 21.269531 C 152.144531 21.269531 151.238281 22.175781 151.238281 23.292969 Z M 193.304688 43.078125 L 164.226562 43.078125 C 163.433594 43.078125 162.785156 43.726562 162.785156 44.523438 C 162.785156 45.320312 163.433594 45.96875 164.226562 45.96875 L 193.304688 45.96875 C 194.097656 45.96875 194.746094 45.320312 194.746094 44.523438 C 194.746094 43.726562 194.097656 43.078125 193.304688 43.078125 Z M 193.921875 51.269531 C 193.921875 50.472656 193.277344 49.828125 192.480469 49.828125 L 186.546875 49.828125 C 185.75 49.828125 185.101562 50.472656 185.101562 51.269531 C 185.101562 52.070312 185.75 52.714844 186.546875 52.714844 L 192.480469 52.714844 C 193.277344 52.714844 193.921875 52.070312 193.921875 51.269531 Z M 193.199219 64.765625 C 193.199219 63.964844 192.554688 63.320312 191.757812 63.320312 L 185.820312 63.320312 C 185.027344 63.320312 184.378906 63.964844 184.378906 64.765625 C 184.378906 65.5625 185.027344 66.207031 185.820312 66.207031 L 191.757812 66.207031 C 192.554688 66.207031 193.199219 65.5625 193.199219 64.765625 Z M 181.214844 64.765625 C 181.214844 63.964844 180.570312 63.320312 179.773438 63.320312 L 173.835938 63.320312 C 173.039062 63.320312 172.394531 63.964844 172.394531 64.765625 C 172.394531 65.5625 173.039062 66.207031 173.835938 66.207031 L 179.773438 66.207031 C 180.570312 66.207031 181.214844 65.5625 181.214844 64.765625 Z M 186.925781 78.253906 C 186.925781 77.460938 186.28125 76.8125 185.484375 76.8125 L 168.703125 76.8125 C 167.90625 76.8125 167.261719 77.460938 167.261719 78.253906 C 167.261719 79.054688 167.90625 79.699219 168.703125 79.699219 L 185.484375 79.699219 C 186.28125 79.699219 186.925781 79.054688 186.925781 78.253906 Z M 226.640625 76.425781 L 244.984375 76.425781 L 244.984375 55.03125 L 226.640625 55.03125 Z M 226.640625 54.253906 L 244.984375 54.253906 L 244.984375 32.863281 L 226.640625 32.863281 Z M 253.703125 75.101562 L 329.28125 75.101562 L 329.28125 36.332031 L 253.703125 36.332031 Z M 261.378906 23.292969 C 261.378906 24.414062 262.285156 25.324219 263.40625 25.324219 C 264.527344 25.324219 265.433594 24.414062 265.433594 23.292969 C 265.433594 22.175781 264.527344 21.269531 263.40625 21.269531 C 262.285156 21.269531 261.378906 22.175781 261.378906 23.292969 Z M 314.355469 79.3125 L 302.359375 79.3125 L 302.359375 80.089844 L 314.355469 80.089844 Z M 314.355469 81.894531 L 309.335938 81.894531 L 309.335938 82.671875 L 314.355469 82.671875 Z M 307.382812 82.671875 L 307.382812 81.894531 L 302.359375 81.894531 L 302.359375 82.671875 Z M 310.25 84.484375 L 302.359375 84.484375 L 302.359375 85.257812 L 310.25 85.257812 Z M 289.5625 79.3125 L 277.566406 79.3125 L 277.566406 80.089844 L 289.5625 80.089844 Z M 289.5625 81.894531 L 284.539062 81.894531 L 284.539062 82.671875 L 289.5625 82.671875 Z M 282.589844 82.671875 L 282.589844 81.894531 L 277.566406 81.894531 L 277.566406 82.671875 Z M 285.453125 84.484375 L 277.566406 84.484375 L 277.566406 85.257812 L 285.453125 85.257812 Z M 30.925781 92.082031 L 30.925781 20.070312 C 30.925781 17.929688 32.660156 16.191406 34.796875 16.191406 L 117.902344 16.191406 C 120.039062 16.191406 121.773438 17.929688 121.773438 20.070312 L 121.773438 32.085938 L 135.789062 32.085938 L 135.789062 20.070312 C 135.789062 17.929688 137.523438 16.191406 139.664062 16.191406 L 222.765625 16.191406 C 224.90625 16.191406 226.640625 17.929688 226.640625 20.070312 L 226.640625 32.085938 L 244.984375 32.085938 L 244.984375 20.070312 C 244.984375 17.929688 246.71875 16.191406 248.859375 16.191406 L 331.957031 16.191406 C 334.101562 16.191406 335.832031 17.929688 335.832031 20.070312 L 335.832031 76.425781 L 345.84375 76.425781 C 346 76.679688 346.144531 76.945312 346.296875 77.203125 L 335.832031 77.203125 L 335.832031 92.082031 C 335.832031 94.222656 334.101562 95.960938 331.957031 95.960938 L 248.859375 95.960938 C 246.71875 95.960938 244.984375 94.222656 244.984375 92.082031 L 244.984375 77.203125 L 226.640625 77.203125 L 226.640625 84.015625 C 226.640625 86.15625 224.90625 87.894531 222.765625 87.894531 L 139.664062 87.894531 C 137.523438 87.894531 135.789062 86.15625 135.789062 84.015625 L 135.789062 77.203125 L 121.773438 77.203125 L 121.773438 92.082031 C 121.773438 94.222656 120.039062 95.960938 117.902344 95.960938 L 34.796875 95.960938 C 32.660156 95.960938 30.925781 94.222656 30.925781 92.082031 Z M 297.671875 112.589844 C 297.242188 112.589844 296.894531 112.9375 296.894531 113.367188 C 296.894531 113.796875 297.242188 114.140625 297.671875 114.140625 L 313.320312 114.140625 C 313.75 114.140625 314.09375 113.796875 314.09375 113.367188 C 314.09375 112.9375 313.75 112.589844 313.320312 112.589844 Z M 314.621094 204.152344 C 314.621094 203.726562 314.277344 203.378906 313.847656 203.378906 L 293.308594 203.378906 C 292.882812 203.378906 292.535156 203.726562 292.535156 204.152344 C 292.535156 204.582031 292.882812 204.929688 293.308594 204.929688 L 313.847656 204.929688 C 314.277344 204.929688 314.621094 204.582031 314.621094 204.152344 Z M 306.039062 219.351562 C 306.039062 218.921875 305.691406 218.578125 305.261719 218.578125 L 275.636719 218.578125 C 275.210938 218.578125 274.863281 218.921875 274.863281 219.351562 C 274.863281 219.78125 275.210938 220.128906 275.636719 220.128906 L 305.261719 220.128906 C 305.691406 220.128906 306.039062 219.78125 306.039062 219.351562 Z M 305.402344 224.417969 C 305.402344 223.988281 305.058594 223.640625 304.628906 223.640625 L 275 223.640625 C 274.570312 223.640625 274.226562 223.988281 274.226562 224.417969 C 274.226562 224.847656 274.570312 225.191406 275 225.191406 L 304.628906 225.191406 C 305.058594 225.191406 305.402344 224.847656 305.402344 224.417969 Z M 276.132812 209.21875 C 276.132812 209.648438 276.480469 209.992188 276.90625 209.992188 L 300.851562 209.992188 C 301.277344 209.992188 301.625 209.648438 301.625 209.21875 C 301.625 208.792969 301.277344 208.441406 300.851562 208.441406 L 276.90625 208.441406 C 276.480469 208.441406 276.132812 208.792969 276.132812 209.21875 Z M 276.773438 204.152344 C 276.773438 204.582031 277.117188 204.929688 277.546875 204.929688 L 287.816406 204.929688 C 288.242188 204.929688 288.589844 204.582031 288.589844 204.152344 C 288.589844 203.726562 288.242188 203.378906 287.816406 203.378906 L 277.546875 203.378906 C 277.117188 203.378906 276.773438 203.726562 276.773438 204.152344 Z M 277.40625 199.089844 C 277.40625 199.515625 277.753906 199.867188 278.183594 199.867188 L 307.808594 199.867188 C 308.238281 199.867188 308.582031 199.515625 308.582031 199.089844 C 308.582031 198.660156 308.238281 198.316406 307.808594 198.316406 L 278.183594 198.316406 C 277.753906 198.316406 277.40625 198.660156 277.40625 199.089844 Z M 271.707031 199.089844 C 271.707031 198.660156 271.359375 198.316406 270.929688 198.316406 L 265.765625 198.316406 C 265.335938 198.316406 264.988281 198.660156 264.988281 199.089844 C 264.988281 199.515625 265.335938 199.867188 265.765625 199.867188 L 270.929688 199.867188 C 271.359375 199.867188 271.707031 199.515625 271.707031 199.089844 Z M 271.066406 204.152344 C 271.066406 203.726562 270.722656 203.378906 270.292969 203.378906 L 265.128906 203.378906 C 264.699219 203.378906 264.355469 203.726562 264.355469 204.152344 C 264.355469 204.582031 264.699219 204.929688 265.128906 204.929688 L 270.292969 204.929688 C 270.722656 204.929688 271.066406 204.582031 271.066406 204.152344 Z M 270.429688 209.21875 C 270.429688 208.792969 270.085938 208.441406 269.65625 208.441406 L 264.492188 208.441406 C 264.0625 208.441406 263.714844 208.792969 263.714844 209.21875 C 263.714844 209.648438 264.0625 209.992188 264.492188 209.992188 L 269.65625 209.992188 C 270.085938 209.992188 270.429688 209.648438 270.429688 209.21875 Z M 269.160156 219.351562 C 269.160156 218.921875 268.8125 218.578125 268.386719 218.578125 L 263.21875 218.578125 C 262.792969 218.578125 262.445312 218.921875 262.445312 219.351562 C 262.445312 219.78125 262.792969 220.128906 263.21875 220.128906 L 268.386719 220.128906 C 268.8125 220.128906 269.160156 219.78125 269.160156 219.351562 Z M 268.523438 224.417969 C 268.523438 223.988281 268.175781 223.640625 267.75 223.640625 L 262.582031 223.640625 C 262.152344 223.640625 261.808594 223.988281 261.808594 224.417969 C 261.808594 224.847656 262.152344 225.191406 262.582031 225.191406 L 267.75 225.191406 C 268.175781 225.191406 268.523438 224.847656 268.523438 224.417969 Z M 324.871094 195.972656 L 320.609375 229.890625 L 311.308594 229.890625 C 311.386719 229.773438 311.441406 229.636719 311.441406 229.484375 C 311.441406 229.054688 311.09375 228.707031 310.664062 228.707031 L 290.128906 228.707031 C 289.703125 228.707031 289.351562 229.054688 289.351562 229.484375 C 289.351562 229.636719 289.40625 229.773438 289.484375 229.890625 L 285.277344 229.890625 C 285.351562 229.773438 285.410156 229.636719 285.410156 229.484375 C 285.410156 229.054688 285.0625 228.707031 284.636719 228.707031 L 274.363281 228.707031 C 273.9375 228.707031 273.589844 229.054688 273.589844 229.484375 C 273.589844 229.636719 273.644531 229.773438 273.722656 229.890625 L 267.753906 229.890625 C 267.832031 229.773438 267.886719 229.636719 267.886719 229.484375 C 267.886719 229.054688 267.539062 228.707031 267.109375 228.707031 L 261.949219 228.707031 C 261.519531 228.707031 261.171875 229.054688 261.171875 229.484375 C 261.171875 229.636719 261.226562 229.773438 261.304688 229.890625 L 256.210938 229.890625 L 260.472656 195.972656 C 260.742188 193.832031 262.695312 192.097656 264.835938 192.097656 L 321.484375 192.097656 C 323.621094 192.097656 325.140625 193.832031 324.871094 195.972656 Z M 214.882812 207.335938 L 208.980469 207.335938 C 208.167969 207.335938 207.425781 207.996094 207.324219 208.8125 C 207.222656 209.625 207.796875 210.285156 208.613281 210.285156 L 214.511719 210.285156 C 215.328125 210.285156 216.070312 209.625 216.171875 208.8125 C 216.273438 207.996094 215.695312 207.335938 214.882812 207.335938 Z M 200.964844 207.335938 L 195.066406 207.335938 C 194.25 207.335938 193.507812 207.996094 193.40625 208.8125 C 193.304688 209.625 193.882812 210.285156 194.695312 210.285156 L 200.597656 210.285156 C 201.410156 210.285156 202.152344 209.625 202.257812 208.8125 C 202.355469 207.996094 201.78125 207.335938 200.964844 207.335938 Z M 190.855469 194.945312 C 190.222656 194.945312 189.644531 195.460938 189.566406 196.09375 C 189.488281 196.726562 189.933594 197.242188 190.566406 197.242188 C 191.199219 197.242188 191.777344 196.726562 191.855469 196.09375 C 191.9375 195.460938 191.488281 194.945312 190.855469 194.945312 Z M 194.90625 197.242188 C 195.539062 197.242188 196.113281 196.726562 196.195312 196.09375 C 196.277344 195.460938 195.828125 194.945312 195.195312 194.945312 C 194.5625 194.945312 193.984375 195.460938 193.90625 196.09375 C 193.824219 196.726562 194.273438 197.242188 194.90625 197.242188 Z M 199.246094 197.242188 C 199.878906 197.242188 200.457031 196.726562 200.535156 196.09375 C 200.617188 195.460938 200.167969 194.945312 199.53125 194.945312 C 198.898438 194.945312 198.324219 195.460938 198.242188 196.09375 C 198.164062 196.726562 198.613281 197.242188 199.246094 197.242188 Z M 211.3125 202.0625 L 199.765625 202.0625 C 199.339844 202.0625 198.992188 202.414062 198.992188 202.839844 C 198.992188 203.269531 199.339844 203.613281 199.765625 203.613281 L 211.3125 203.613281 C 211.742188 203.613281 212.085938 203.269531 212.085938 202.839844 C 212.085938 202.414062 211.742188 202.0625 211.3125 202.0625 Z M 223.039062 192.085938 C 225.179688 192.085938 226.699219 193.824219 226.429688 195.964844 L 224.804688 208.886719 C 224.539062 211.03125 222.582031 212.765625 220.445312 212.765625 L 187.542969 212.765625 C 185.402344 212.765625 183.886719 211.03125 184.15625 208.886719 L 185.78125 195.964844 C 186.050781 193.824219 188 192.085938 190.140625 192.085938 Z M 205.539062 124.734375 C 205.621094 124.101562 205.171875 123.589844 204.539062 123.589844 C 203.910156 123.589844 203.332031 124.101562 203.25 124.734375 C 203.167969 125.367188 203.617188 125.878906 204.25 125.878906 C 204.882812 125.878906 205.460938 125.367188 205.539062 124.734375 Z M 246.441406 181.097656 C 246.441406 180.664062 246.09375 180.320312 245.667969 180.320312 L 241.710938 180.320312 C 241.28125 180.320312 240.933594 180.664062 240.933594 181.097656 C 240.933594 181.523438 241.28125 181.871094 241.710938 181.871094 L 245.667969 181.871094 C 246.09375 181.871094 246.441406 181.523438 246.441406 181.097656 Z M 240.765625 141.292969 C 241.191406 141.292969 241.539062 140.945312 241.539062 140.519531 C 241.539062 140.089844 241.191406 139.742188 240.765625 139.742188 L 229.230469 139.742188 C 228.804688 139.742188 228.457031 140.089844 228.457031 140.519531 C 228.457031 140.945312 228.804688 141.292969 229.230469 141.292969 Z M 238.519531 147.304688 L 210.453125 147.304688 C 209.3125 147.304688 208.273438 148.234375 208.128906 149.375 L 207.28125 156.128906 C 207.136719 157.269531 207.945312 158.195312 209.085938 158.195312 L 237.152344 158.195312 C 238.292969 158.195312 239.332031 157.269531 239.476562 156.128906 L 240.324219 149.375 C 240.46875 148.234375 239.65625 147.304688 238.519531 147.304688 Z M 226.410156 178.148438 L 230.371094 178.148438 C 230.796875 178.148438 231.144531 177.800781 231.144531 177.375 C 231.144531 176.945312 230.796875 176.597656 230.371094 176.597656 L 226.410156 176.597656 C 225.980469 176.597656 225.636719 176.945312 225.636719 177.375 C 225.636719 177.800781 225.980469 178.148438 226.410156 178.148438 Z M 233.191406 181.097656 C 233.191406 180.664062 232.84375 180.320312 232.414062 180.320312 L 225.941406 180.320312 C 225.515625 180.320312 225.167969 180.664062 225.167969 181.097656 C 225.167969 181.523438 225.515625 181.871094 225.941406 181.871094 L 232.414062 181.871094 C 232.84375 181.871094 233.191406 181.523438 233.191406 181.097656 Z M 219.792969 177.375 C 219.792969 176.945312 219.445312 176.597656 219.015625 176.597656 L 212.105469 176.597656 C 211.675781 176.597656 211.328125 176.945312 211.328125 177.375 C 211.328125 177.800781 211.675781 178.148438 212.105469 178.148438 L 219.015625 178.148438 C 219.445312 178.148438 219.792969 177.800781 219.792969 177.375 Z M 216.371094 181.097656 C 216.371094 180.664062 216.023438 180.320312 215.597656 180.320312 L 211.636719 180.320312 C 211.207031 180.320312 210.859375 180.664062 210.859375 181.097656 C 210.859375 181.523438 211.207031 181.871094 211.636719 181.871094 L 215.597656 181.871094 C 216.023438 181.871094 216.371094 181.523438 216.371094 181.097656 Z M 204.164062 177.375 C 204.164062 176.945312 203.816406 176.597656 203.386719 176.597656 L 195.46875 176.597656 C 195.042969 176.597656 194.695312 176.945312 194.695312 177.375 C 194.695312 177.800781 195.042969 178.148438 195.46875 178.148438 L 203.386719 178.148438 C 203.816406 178.148438 204.164062 177.800781 204.164062 177.375 Z M 200.535156 181.097656 C 200.535156 180.664062 200.1875 180.320312 199.757812 180.320312 L 195.003906 180.320312 C 194.574219 180.320312 194.230469 180.664062 194.230469 181.097656 C 194.230469 181.523438 194.574219 181.871094 195.003906 181.871094 L 199.757812 181.871094 C 200.1875 181.871094 200.535156 181.523438 200.535156 181.097656 Z M 208.464844 140.519531 C 208.464844 140.945312 208.8125 141.292969 209.242188 141.292969 L 223.875 141.292969 C 224.304688 141.292969 224.648438 140.945312 224.648438 140.519531 C 224.648438 140.089844 224.304688 139.742188 223.875 139.742188 L 209.242188 139.742188 C 208.8125 139.742188 208.464844 140.089844 208.464844 140.519531 Z M 241.402344 177.375 C 241.402344 177.800781 241.75 178.148438 242.175781 178.148438 L 249.089844 178.148438 C 249.515625 178.148438 249.863281 177.800781 249.863281 177.375 C 249.863281 176.945312 249.515625 176.597656 249.089844 176.597656 L 242.175781 176.597656 C 241.75 176.597656 241.402344 176.945312 241.402344 177.375 Z M 247.898438 186.421875 L 191.25 186.421875 C 189.113281 186.421875 187.59375 184.683594 187.863281 182.542969 L 194.414062 130.382812 L 258.808594 130.382812 L 259.742188 122.960938 L 252.257812 182.542969 C 251.992188 184.683594 250.039062 186.421875 247.898438 186.421875 Z M 334.640625 224.394531 L 326.824219 224.394531 C 326.398438 224.394531 326.050781 224.742188 326.050781 225.171875 C 326.050781 225.597656 326.398438 225.945312 326.824219 225.945312 L 334.640625 225.945312 C 335.070312 225.945312 335.417969 225.597656 335.417969 225.171875 C 335.417969 224.742188 335.070312 224.394531 334.640625 224.394531 Z M 338.460938 219.328125 L 327.464844 219.328125 C 327.035156 219.328125 326.6875 219.675781 326.6875 220.105469 C 326.6875 220.535156 327.035156 220.878906 327.464844 220.878906 L 338.460938 220.878906 C 338.890625 220.878906 339.234375 220.535156 339.234375 220.105469 C 339.234375 219.675781 338.890625 219.328125 338.460938 219.328125 Z M 328.097656 215.816406 L 334.625 215.816406 C 335.054688 215.816406 335.402344 215.46875 335.402344 215.039062 C 335.402344 214.613281 335.054688 214.265625 334.625 214.265625 L 328.097656 214.265625 C 327.667969 214.265625 327.324219 214.613281 327.324219 215.039062 C 327.324219 215.46875 327.667969 215.816406 328.097656 215.816406 Z M 342.25 157.042969 L 334.4375 157.042969 C 334.007812 157.042969 333.660156 157.390625 333.660156 157.816406 C 333.660156 158.246094 334.007812 158.59375 334.4375 158.59375 L 342.25 158.59375 C 342.675781 158.59375 343.027344 158.246094 343.027344 157.816406 C 343.027344 157.390625 342.675781 157.042969 342.25 157.042969 Z M 346.070312 151.976562 L 335.070312 151.976562 C 334.640625 151.976562 334.296875 152.320312 334.296875 152.753906 C 334.296875 153.179688 334.640625 153.527344 335.070312 153.527344 L 346.070312 153.527344 C 346.5 153.527344 346.84375 153.179688 346.84375 152.753906 C 346.84375 152.320312 346.5 151.976562 346.070312 151.976562 Z M 335.707031 146.910156 C 335.28125 146.910156 334.933594 147.257812 334.933594 147.683594 C 334.933594 148.113281 335.28125 148.460938 335.707031 148.460938 L 342.234375 148.460938 C 342.664062 148.460938 343.011719 148.113281 343.011719 147.683594 C 343.011719 147.257812 342.664062 146.910156 342.234375 146.910156 Z M 323.886719 130.382812 C 323.886719 129.957031 323.539062 129.609375 323.109375 129.609375 L 310.058594 129.609375 C 309.628906 129.609375 309.28125 129.957031 309.28125 130.382812 C 309.28125 130.816406 309.628906 131.160156 310.058594 131.160156 L 323.109375 131.160156 C 323.539062 131.160156 323.886719 130.816406 323.886719 130.382812 Z M 317.347656 140.519531 C 317.347656 140.089844 317.003906 139.742188 316.574219 139.742188 L 305.167969 139.742188 C 304.738281 139.742188 304.390625 140.089844 304.390625 140.519531 C 304.390625 140.945312 304.738281 141.292969 305.167969 141.292969 L 316.574219 141.292969 C 317.003906 141.292969 317.347656 140.945312 317.347656 140.519531 Z M 314.167969 165.847656 C 314.167969 165.417969 313.824219 165.070312 313.394531 165.070312 L 301.984375 165.070312 C 301.558594 165.070312 301.210938 165.417969 301.210938 165.847656 C 301.210938 166.277344 301.558594 166.621094 301.984375 166.621094 L 313.394531 166.621094 C 313.824219 166.621094 314.167969 166.277344 314.167969 165.847656 Z M 308.503906 170.914062 C 308.503906 170.484375 308.160156 170.136719 307.730469 170.136719 L 293.949219 170.136719 C 293.519531 170.136719 293.171875 170.484375 293.171875 170.914062 C 293.171875 171.339844 293.519531 171.6875 293.949219 171.6875 L 307.730469 171.6875 C 308.160156 171.6875 308.503906 171.339844 308.503906 170.914062 Z M 300.695312 175.976562 C 300.695312 175.550781 300.34375 175.203125 299.917969 175.203125 L 281.085938 175.203125 C 280.65625 175.203125 280.308594 175.550781 280.308594 175.976562 C 280.308594 176.40625 280.65625 176.753906 281.085938 176.753906 L 299.917969 176.753906 C 300.34375 176.753906 300.695312 176.40625 300.695312 175.976562 Z M 280.332031 130.382812 C 280.332031 129.957031 279.984375 129.609375 279.554688 129.609375 L 274.394531 129.609375 C 273.964844 129.609375 273.617188 129.957031 273.617188 130.382812 C 273.617188 130.816406 273.964844 131.160156 274.394531 131.160156 L 279.554688 131.160156 C 279.984375 131.160156 280.332031 130.816406 280.332031 130.382812 Z M 279.695312 135.453125 C 279.695312 135.023438 279.351562 134.675781 278.921875 134.675781 L 273.757812 134.675781 C 273.328125 134.675781 272.984375 135.023438 272.984375 135.453125 C 272.984375 135.878906 273.328125 136.226562 273.757812 136.226562 L 278.921875 136.226562 C 279.351562 136.226562 279.695312 135.878906 279.695312 135.453125 Z M 279.058594 140.519531 C 279.058594 140.089844 278.714844 139.742188 278.285156 139.742188 L 273.121094 139.742188 C 272.691406 139.742188 272.347656 140.089844 272.347656 140.519531 C 272.347656 140.945312 272.691406 141.292969 273.121094 141.292969 L 278.285156 141.292969 C 278.714844 141.292969 279.058594 140.945312 279.058594 140.519531 Z M 278.425781 145.582031 C 278.425781 145.15625 278.078125 144.808594 277.648438 144.808594 L 272.484375 144.808594 C 272.054688 144.808594 271.707031 145.15625 271.707031 145.582031 C 271.707031 146.011719 272.054688 146.359375 272.484375 146.359375 L 277.648438 146.359375 C 278.078125 146.359375 278.425781 146.011719 278.425781 145.582031 Z M 277.789062 150.648438 C 277.789062 150.21875 277.441406 149.875 277.015625 149.875 L 271.847656 149.875 C 271.421875 149.875 271.074219 150.21875 271.074219 150.648438 C 271.074219 151.078125 271.421875 151.425781 271.847656 151.425781 L 277.015625 151.425781 C 277.441406 151.425781 277.789062 151.078125 277.789062 150.648438 Z M 276.515625 160.78125 C 276.515625 160.351562 276.167969 160.007812 275.738281 160.007812 L 270.578125 160.007812 C 270.148438 160.007812 269.800781 160.351562 269.800781 160.78125 C 269.800781 161.207031 270.148438 161.558594 270.578125 161.558594 L 275.738281 161.558594 C 276.167969 161.558594 276.515625 161.207031 276.515625 160.78125 Z M 275.878906 165.847656 C 275.878906 165.417969 275.53125 165.070312 275.105469 165.070312 L 269.9375 165.070312 C 269.511719 165.070312 269.164062 165.417969 269.164062 165.847656 C 269.164062 166.277344 269.511719 166.621094 269.9375 166.621094 L 275.105469 166.621094 C 275.53125 166.621094 275.878906 166.277344 275.878906 165.847656 Z M 275.242188 170.914062 C 275.242188 170.484375 274.894531 170.136719 274.46875 170.136719 L 269.300781 170.136719 C 268.875 170.136719 268.527344 170.484375 268.527344 170.914062 C 268.527344 171.339844 268.875 171.6875 269.300781 171.6875 L 274.46875 171.6875 C 274.894531 171.6875 275.242188 171.339844 275.242188 170.914062 Z M 274.609375 175.976562 C 274.609375 175.550781 274.261719 175.203125 273.832031 175.203125 L 268.667969 175.203125 C 268.238281 175.203125 267.890625 175.550781 267.890625 175.976562 C 267.890625 176.40625 268.238281 176.753906 268.667969 176.753906 L 273.832031 176.753906 C 274.261719 176.753906 274.609375 176.40625 274.609375 175.976562 Z M 280.945312 170.914062 C 280.945312 171.339844 281.292969 171.6875 281.71875 171.6875 L 289.535156 171.6875 C 289.960938 171.6875 290.308594 171.339844 290.308594 170.914062 C 290.308594 170.484375 289.960938 170.136719 289.535156 170.136719 L 281.71875 170.136719 C 281.292969 170.136719 280.945312 170.484375 280.945312 170.914062 Z M 281.582031 165.847656 C 281.582031 166.277344 281.929688 166.621094 282.355469 166.621094 L 297.578125 166.621094 C 298.003906 166.621094 298.351562 166.277344 298.351562 165.847656 C 298.351562 165.417969 298.003906 165.070312 297.578125 165.070312 L 282.355469 165.070312 C 281.929688 165.070312 281.582031 165.417969 281.582031 165.847656 Z M 282.214844 160.78125 C 282.214844 161.207031 282.566406 161.558594 282.992188 161.558594 L 289.519531 161.558594 C 289.949219 161.558594 290.292969 161.207031 290.292969 160.78125 C 290.292969 160.351562 289.949219 160.007812 289.519531 160.007812 L 282.992188 160.007812 C 282.566406 160.007812 282.214844 160.351562 282.214844 160.78125 Z M 283.492188 150.648438 C 283.492188 151.078125 283.839844 151.425781 284.265625 151.425781 L 293.679688 151.425781 C 294.109375 151.425781 294.457031 151.078125 294.457031 150.648438 C 294.457031 150.21875 294.109375 149.875 293.679688 149.875 L 284.265625 149.875 C 283.839844 149.875 283.492188 150.21875 283.492188 150.648438 Z M 284.125 145.582031 C 284.125 146.011719 284.472656 146.359375 284.902344 146.359375 L 292.714844 146.359375 C 293.144531 146.359375 293.492188 146.011719 293.492188 145.582031 C 293.492188 145.15625 293.144531 144.808594 292.714844 144.808594 L 284.902344 144.808594 C 284.472656 144.808594 284.125 145.15625 284.125 145.582031 Z M 284.761719 140.519531 C 284.761719 140.945312 285.109375 141.292969 285.535156 141.292969 L 300.757812 141.292969 C 301.183594 141.292969 301.53125 140.945312 301.53125 140.519531 C 301.53125 140.089844 301.183594 139.742188 300.757812 139.742188 L 285.535156 139.742188 C 285.109375 139.742188 284.761719 140.089844 284.761719 140.519531 Z M 285.398438 135.453125 C 285.398438 135.878906 285.746094 136.226562 286.171875 136.226562 L 292.699219 136.226562 C 293.128906 136.226562 293.476562 135.878906 293.476562 135.453125 C 293.476562 135.023438 293.128906 134.675781 292.699219 134.675781 L 286.171875 134.675781 C 285.746094 134.675781 285.398438 135.023438 285.398438 135.453125 Z M 286.035156 130.382812 C 286.035156 130.816406 286.382812 131.160156 286.8125 131.160156 L 305.644531 131.160156 C 306.070312 131.160156 306.417969 130.816406 306.417969 130.382812 C 306.417969 129.957031 306.070312 129.609375 305.644531 129.609375 L 286.8125 129.609375 C 286.382812 129.609375 286.035156 129.957031 286.035156 130.382812 Z M 309.25 136.226562 C 309.679688 136.226562 310.023438 135.878906 310.023438 135.453125 C 310.023438 135.023438 309.679688 134.675781 309.25 134.675781 L 296.191406 134.675781 C 295.765625 134.675781 295.417969 135.023438 295.417969 135.453125 C 295.417969 135.878906 295.765625 136.226562 296.191406 136.226562 Z M 303.078125 145.582031 C 303.078125 145.15625 302.730469 144.808594 302.304688 144.808594 L 297.128906 144.808594 C 296.699219 144.808594 296.351562 145.15625 296.351562 145.582031 C 296.351562 146.011719 296.699219 146.359375 297.128906 146.359375 L 302.304688 146.359375 C 302.730469 146.359375 303.078125 146.011719 303.078125 145.582031 Z M 306.070312 160.007812 L 293.011719 160.007812 C 292.585938 160.007812 292.238281 160.351562 292.238281 160.78125 C 292.238281 161.207031 292.585938 161.558594 293.011719 161.558594 L 306.070312 161.558594 C 306.5 161.558594 306.84375 161.207031 306.84375 160.78125 C 306.84375 160.351562 306.5 160.007812 306.070312 160.007812 Z M 310.566406 151.425781 C 310.992188 151.425781 311.339844 151.078125 311.339844 150.648438 C 311.339844 150.21875 310.992188 149.875 310.566406 149.875 L 297.066406 149.875 C 296.640625 149.875 296.292969 150.21875 296.292969 150.648438 C 296.292969 151.078125 296.640625 151.425781 297.066406 151.425781 Z M 326.554688 182.542969 C 326.285156 184.683594 324.332031 186.421875 322.195312 186.421875 L 265.546875 186.421875 C 263.40625 186.421875 261.890625 184.683594 262.160156 182.542969 L 269.644531 122.960938 C 269.910156 120.820312 271.867188 119.085938 274.003906 119.085938 L 330.648438 119.085938 C 332.789062 119.085938 334.304688 120.820312 334.039062 122.960938 Z M 124.042969 142.933594 L 123.324219 136.984375 C 122.628906 131.207031 124.328125 125.75 127.59375 121.539062 L 95.859375 121.539062 L 95.859375 142.84375 C 95.859375 142.875 95.847656 142.902344 95.847656 142.933594 Z M 89.355469 120.824219 L 81.679688 120.824219 L 81.679688 139.40625 L 89.355469 139.40625 Z M 77.785156 121.539062 L 77.785156 118.496094 L 70.109375 118.496094 L 70.109375 139.40625 L 77.785156 139.40625 Z M 66.214844 123.613281 L 58.539062 123.613281 L 58.539062 139.40625 L 66.214844 139.40625 Z M 54.644531 132.945312 L 46.96875 132.945312 L 46.96875 139.40625 L 54.644531 139.40625 Z M 43.074219 129.660156 L 35.398438 129.660156 L 35.398438 139.40625 L 43.074219 139.40625 Z M 121.5 165.875 L 4.671875 165.875 C 4.65625 165.617188 4.632812 165.359375 4.617188 165.101562 L 121.71875 165.101562 L 123.839844 157.609375 C 124.753906 154.382812 125.019531 151.007812 124.617188 147.675781 L 124.136719 143.707031 L 95.753906 143.707031 C 95.359375 145.433594 93.824219 146.722656 91.984375 146.722656 L 34.796875 146.722656 C 32.957031 146.722656 31.421875 145.433594 31.027344 143.707031 L 4.898438 143.707031 C 4.921875 143.449219 4.953125 143.191406 4.980469 142.933594 L 30.933594 142.933594 C 30.933594 142.902344 30.925781 142.875 30.925781 142.84375 L 30.925781 121.539062 L 9.027344 121.539062 C 9.101562 121.277344 9.183594 121.023438 9.257812 120.761719 L 30.925781 120.761719 L 30.925781 112.824219 C 30.925781 110.683594 32.660156 108.945312 34.796875 108.945312 L 91.984375 108.945312 C 94.121094 108.945312 95.859375 110.683594 95.859375 112.824219 L 95.859375 120.761719 L 128.226562 120.761719 C 132.070312 116.261719 137.78125 113.367188 144.242188 113.367188 C 150.621094 113.367188 156.386719 116.214844 160.269531 120.761719 L 180.667969 120.761719 L 180.582031 121.539062 L 160.902344 121.539062 C 163.242188 124.558594 164.789062 128.238281 165.203125 132.289062 L 165.414062 134.339844 L 169.828125 142.933594 L 178.214844 142.933594 L 178.125 143.707031 L 170.109375 143.707031 C 170.128906 144.199219 169.824219 144.675781 169.3125 144.824219 L 167.582031 145.332031 C 167.074219 145.476562 166.746094 145.957031 166.785156 146.480469 C 167.050781 149.929688 167.828125 162.234375 165.414062 163.53125 C 162.605469 165.046875 149.195312 162.332031 149.195312 162.332031 C 148.941406 163.246094 148.730469 164.171875 148.554688 165.101562 L 175.753906 165.101562 L 175.671875 165.875 L 148.421875 165.875 C 147.949219 168.753906 147.828125 171.675781 148.078125 174.578125 C 145.074219 173.550781 141.054688 171.976562 134.808594 170.703125 C 128.824219 169.488281 123.050781 170.863281 119.777344 171.953125 Z M 103.929688 228.3125 C 102.976562 222.289062 101.722656 216.074219 100.148438 210.214844 L 100.152344 210.214844 C 100.125 210.113281 100.097656 210.011719 100.070312 209.910156 C 99.507812 207.839844 98.910156 205.8125 98.269531 203.859375 C 96.121094 197.328125 98.160156 190.691406 102.605469 186.402344 C 102.390625 186.5 102.171875 186.585938 101.960938 186.691406 C 101.597656 186.871094 101.25 187.070312 100.910156 187.269531 L 7.625 187.269531 C 7.679688 187.527344 7.730469 187.785156 7.785156 188.042969 L 99.71875 188.042969 C 93.015625 192.855469 90.855469 202.074219 95 209.441406 L 13.722656 209.441406 C 13.808594 209.695312 13.890625 209.957031 13.980469 210.214844 L 95.433594 210.214844 Z M 176.589844 342.949219 C 179.753906 342.949219 182.921875 342.777344 186.09375 342.453125 L 165.824219 342.453125 C 169.402344 342.769531 172.992188 342.949219 176.589844 342.949219 Z M 133.167969 320.308594 C 132.417969 320.308594 131.6875 320.300781 130.964844 320.285156 L 101.925781 320.285156 C 102.351562 320.546875 102.785156 320.800781 103.210938 321.058594 L 242.53125 321.058594 C 242.933594 320.804688 243.328125 320.542969 243.726562 320.285156 L 134.113281 320.285156 C 133.796875 320.289062 133.492188 320.308594 133.167969 320.308594 Z M 102.410156 298.113281 L 72.554688 298.113281 C 72.839844 298.375 73.125 298.632812 73.40625 298.890625 L 102.457031 298.890625 C 102.441406 298.632812 102.425781 298.375 102.410156 298.113281 Z M 167.863281 298.890625 L 270.96875 298.890625 C 271.25 298.632812 271.527344 298.375 271.804688 298.113281 L 168.136719 298.113281 C 168.050781 298.367188 167.960938 298.621094 167.863281 298.890625 Z M 103.023438 275.945312 L 51.429688 275.945312 C 51.648438 276.207031 51.867188 276.460938 52.085938 276.722656 L 102.945312 276.722656 C 102.96875 276.460938 102.996094 276.203125 103.023438 275.945312 Z M 106.238281 253.773438 L 35.277344 253.773438 C 35.441406 254.035156 35.609375 254.292969 35.777344 254.550781 L 106.238281 254.550781 C 106.238281 254.300781 106.238281 254.042969 106.238281 253.773438 Z M 225.625 264.898438 C 227.441406 265.191406 229.226562 265.472656 230.953125 265.734375 L 230.757812 265.429688 L 226.160156 264.453125 Z M 266.125 275.945312 L 277.785156 275.945312 L 274.097656 273.371094 L 267.5 274.878906 Z M 176.65625 231.605469 L 324.433594 231.605469 C 324.28125 231.863281 324.132812 232.125 323.984375 232.382812 L 177.050781 232.382812 C 181.960938 241.898438 186.460938 249.808594 189.175781 253.773438 L 310.210938 253.773438 C 310.03125 254.035156 309.847656 254.292969 309.667969 254.550781 L 189.71875 254.550781 C 190.425781 255.53125 190.980469 256.175781 191.339844 256.414062 C 194.21875 258.332031 201.332031 260.261719 209.644531 261.988281 L 222.828125 257.007812 C 224.175781 256.5 225.679688 256.675781 226.875 257.472656 L 233.390625 261.828125 L 236.109375 266.503906 C 241.191406 267.242188 245.371094 267.792969 247.699219 268.089844 L 254.917969 267.816406 L 270.398438 262.464844 C 271.789062 261.988281 273.324219 262.203125 274.523438 263.058594 L 281.046875 267.691406 L 285.535156 275.945312 L 293.019531 275.945312 C 292.796875 276.203125 292.578125 276.464844 292.355469 276.722656 L 285.957031 276.722656 L 286.109375 277 C 286.394531 277.53125 286.179688 278.195312 285.628906 278.445312 C 284.539062 278.371094 283.289062 277.824219 282.269531 277.0625 L 282.535156 278.847656 C 282.65625 279.664062 281.988281 280.382812 281.167969 280.324219 C 279.890625 280.230469 278.835938 279.28125 278.613281 278.015625 L 278.386719 276.722656 L 265.121094 276.722656 L 261.949219 279.179688 C 260.457031 280.332031 258.714844 281.105469 256.878906 281.441406 C 255.683594 281.660156 254.453125 281.621094 253.246094 281.457031 L 245.925781 280.445312 L 191.425781 280.058594 C 184.847656 279.785156 180 278.53125 176.316406 276.722656 L 162.414062 276.722656 C 162.375 276.597656 162.339844 276.472656 162.304688 276.347656 L 162.300781 276.347656 C 162.269531 276.242188 162.238281 276.140625 162.207031 276.035156 C 162.199219 276.007812 162.191406 275.976562 162.183594 275.945312 C 161.019531 271.992188 160.179688 267.890625 160.179688 264.265625 C 160.179688 262.203125 160.488281 260.03125 160.984375 257.777344 C 161.109375 257.800781 161.242188 257.824219 161.371094 257.847656 L 153.195312 242.058594 C 152.765625 242.148438 152.328125 242.195312 151.878906 242.195312 C 147.8125 242.195312 143.796875 238.378906 140.785156 232.382812 L 23.261719 232.382812 C 23.136719 232.125 23.007812 231.867188 22.878906 231.605469 L 140.40625 231.605469 C 138.195312 226.9375 136.566406 221.0625 135.945312 214.675781 C 135.445312 209.554688 135.652344 204.761719 136.425781 200.65625 C 136.367188 195.285156 137.8125 190.597656 141.8125 188.730469 C 142.132812 188.582031 142.457031 188.460938 142.777344 188.335938 C 143.921875 187.570312 145.167969 187.15625 146.507812 187.15625 C 147.050781 187.15625 147.59375 187.230469 148.132812 187.363281 C 153.5 187.484375 158.269531 190.914062 160.53125 196.601562 C 165.054688 207.984375 171.089844 220.777344 176.652344 231.605469 Z M 170.757812 210.214844 L 170.84375 209.441406 L 167.746094 209.441406 C 167.832031 209.695312 167.921875 209.957031 168.003906 210.214844 Z M 173.300781 187.269531 L 158.125 187.269531 C 158.214844 187.429688 158.304688 187.585938 158.386719 187.746094 C 158.433594 187.84375 158.488281 187.945312 158.535156 188.042969 L 173.214844 188.042969 Z M 355.082031 98.59375 L 18.414062 98.59375 C 18.277344 98.851562 18.140625 99.113281 18.003906 99.371094 L 355.269531 99.371094 C 355.203125 99.113281 355.144531 98.851562 355.082031 98.59375 "/>
</g>
<g clip-path="url(#clip4)" clip-rule="nonzero">
<path style=" stroke:none;fill-rule:nonzero;fill:rgb(35.688782%,33.729553%,33.729553%);fill-opacity:1;" d="M 270.742188 256.167969 L 248.917969 256.234375 L 238.007812 256.269531 L 227.097656 256.378906 L 227.097656 256.730469 L 238.007812 256.835938 L 248.917969 256.875 L 270.742188 256.941406 L 292.5625 256.859375 L 303.476562 256.816406 L 314.386719 256.703125 L 314.386719 256.40625 L 303.476562 256.296875 L 292.5625 256.25 Z M 261.589844 84.484375 L 253.707031 84.484375 L 253.707031 85.257812 L 261.589844 85.257812 Z M 265.699219 82.671875 L 265.699219 81.894531 L 260.679688 81.894531 L 260.679688 82.671875 Z M 258.726562 81.894531 L 253.707031 81.894531 L 253.707031 82.671875 L 258.726562 82.671875 Z M 265.699219 79.3125 L 253.707031 79.3125 L 253.707031 80.089844 L 265.699219 80.089844 Z M 271.082031 25.324219 C 272.203125 25.324219 273.109375 24.414062 273.109375 23.292969 C 273.109375 22.175781 272.203125 21.269531 271.082031 21.269531 C 269.960938 21.269531 269.058594 22.175781 269.058594 23.292969 C 269.058594 24.414062 269.960938 25.324219 271.082031 25.324219 Z M 160.941406 25.324219 C 162.0625 25.324219 162.96875 24.414062 162.96875 23.292969 C 162.96875 22.175781 162.0625 21.269531 160.941406 21.269531 C 159.820312 21.269531 158.914062 22.175781 158.914062 23.292969 C 158.914062 24.414062 159.820312 25.324219 160.941406 25.324219 Z M 81.769531 86.164062 L 73.882812 86.164062 L 73.882812 86.9375 L 81.769531 86.9375 Z M 85.878906 84.351562 L 85.878906 83.578125 L 80.855469 83.578125 L 80.855469 84.351562 Z M 78.902344 83.578125 L 73.882812 83.578125 L 73.882812 84.351562 L 78.902344 84.351562 Z M 85.878906 80.992188 L 73.882812 80.992188 L 73.882812 81.769531 L 85.878906 81.769531 Z M 53.261719 25.324219 C 54.378906 25.324219 55.289062 24.414062 55.289062 23.292969 C 55.289062 22.175781 54.378906 21.269531 53.261719 21.269531 C 52.144531 21.269531 51.234375 22.175781 51.234375 23.292969 C 51.234375 24.414062 52.144531 25.324219 53.261719 25.324219 Z M 38.847656 143.125 L 39.621094 143.125 L 39.621094 142.300781 L 50.417969 142.300781 L 50.417969 143.125 L 51.191406 143.125 L 51.191406 142.300781 L 61.988281 142.300781 L 61.988281 143.125 L 62.761719 143.125 L 62.761719 142.300781 L 73.558594 142.300781 L 73.558594 143.125 L 74.332031 143.125 L 74.332031 142.300781 L 85.128906 142.300781 L 85.128906 143.125 L 85.90625 143.125 L 85.90625 142.300781 L 89.429688 142.300781 L 89.429688 141.523438 L 85.90625 141.523438 L 85.90625 140.699219 L 85.128906 140.699219 L 85.128906 141.523438 L 74.332031 141.523438 L 74.332031 140.699219 L 73.558594 140.699219 L 73.558594 141.523438 L 62.761719 141.523438 L 62.761719 140.699219 L 61.988281 140.699219 L 61.988281 141.523438 L 51.191406 141.523438 L 51.191406 140.699219 L 50.417969 140.699219 L 50.417969 141.523438 L 39.621094 141.523438 L 39.621094 140.699219 L 38.847656 140.699219 L 38.847656 141.523438 L 35.398438 141.523438 L 35.398438 142.300781 L 38.847656 142.300781 Z M 290.386719 113.367188 C 290.386719 112.9375 290.039062 112.589844 289.609375 112.589844 L 189.511719 112.589844 C 189.082031 112.589844 188.738281 112.9375 188.738281 113.367188 C 188.738281 113.796875 189.082031 114.140625 189.511719 114.140625 L 289.609375 114.140625 C 290.039062 114.140625 290.386719 113.796875 290.386719 113.367188 Z M 267.75 223.640625 L 262.582031 223.640625 C 262.152344 223.640625 261.808594 223.988281 261.808594 224.417969 C 261.808594 224.847656 262.152344 225.191406 262.582031 225.191406 L 267.75 225.191406 C 268.175781 225.191406 268.523438 224.847656 268.523438 224.417969 C 268.523438 223.988281 268.175781 223.640625 267.75 223.640625 Z M 269.160156 219.351562 C 269.160156 218.921875 268.8125 218.578125 268.386719 218.578125 L 263.21875 218.578125 C 262.792969 218.578125 262.445312 218.921875 262.445312 219.351562 C 262.445312 219.78125 262.792969 220.128906 263.21875 220.128906 L 268.386719 220.128906 C 268.8125 220.128906 269.160156 219.78125 269.160156 219.351562 Z M 270.429688 209.21875 C 270.429688 208.792969 270.085938 208.441406 269.65625 208.441406 L 264.492188 208.441406 C 264.0625 208.441406 263.714844 208.792969 263.714844 209.21875 C 263.714844 209.648438 264.0625 209.992188 264.492188 209.992188 L 269.65625 209.992188 C 270.085938 209.992188 270.429688 209.648438 270.429688 209.21875 Z M 271.066406 204.152344 C 271.066406 203.726562 270.722656 203.378906 270.292969 203.378906 L 265.128906 203.378906 C 264.699219 203.378906 264.355469 203.726562 264.355469 204.152344 C 264.355469 204.582031 264.699219 204.929688 265.128906 204.929688 L 270.292969 204.929688 C 270.722656 204.929688 271.066406 204.582031 271.066406 204.152344 Z M 271.707031 199.089844 C 271.707031 198.660156 271.359375 198.316406 270.929688 198.316406 L 265.765625 198.316406 C 265.335938 198.316406 264.988281 198.660156 264.988281 199.089844 C 264.988281 199.515625 265.335938 199.867188 265.765625 199.867188 L 270.929688 199.867188 C 271.359375 199.867188 271.707031 199.515625 271.707031 199.089844 Z M 198.242188 196.09375 C 198.164062 196.726562 198.613281 197.242188 199.246094 197.242188 C 199.878906 197.242188 200.457031 196.726562 200.535156 196.09375 C 200.617188 195.460938 200.167969 194.945312 199.53125 194.945312 C 198.898438 194.945312 198.324219 195.460938 198.242188 196.09375 Z M 207.589844 124.734375 C 207.511719 125.367188 207.957031 125.878906 208.589844 125.878906 C 209.222656 125.878906 209.800781 125.367188 209.878906 124.734375 C 209.957031 124.101562 209.511719 123.589844 208.878906 123.589844 C 208.246094 123.589844 207.667969 124.101562 207.589844 124.734375 Z M 219.054688 151.976562 C 218.628906 151.976562 218.28125 152.320312 218.28125 152.753906 C 218.28125 153.179688 218.628906 153.527344 219.054688 153.527344 L 228.550781 153.527344 C 228.976562 153.527344 229.324219 153.179688 229.324219 152.753906 C 229.324219 152.320312 228.976562 151.976562 228.550781 151.976562 Z M 274.609375 175.976562 C 274.609375 175.550781 274.261719 175.203125 273.832031 175.203125 L 268.667969 175.203125 C 268.238281 175.203125 267.890625 175.550781 267.890625 175.976562 C 267.890625 176.40625 268.238281 176.753906 268.667969 176.753906 L 273.832031 176.753906 C 274.261719 176.753906 274.609375 176.40625 274.609375 175.976562 Z M 275.242188 170.914062 C 275.242188 170.484375 274.894531 170.136719 274.46875 170.136719 L 269.300781 170.136719 C 268.875 170.136719 268.527344 170.484375 268.527344 170.914062 C 268.527344 171.339844 268.875 171.6875 269.300781 171.6875 L 274.46875 171.6875 C 274.894531 171.6875 275.242188 171.339844 275.242188 170.914062 Z M 275.878906 165.847656 C 275.878906 165.417969 275.53125 165.070312 275.105469 165.070312 L 269.9375 165.070312 C 269.511719 165.070312 269.164062 165.417969 269.164062 165.847656 C 269.164062 166.277344 269.511719 166.621094 269.9375 166.621094 L 275.105469 166.621094 C 275.53125 166.621094 275.878906 166.277344 275.878906 165.847656 Z M 276.515625 160.78125 C 276.515625 160.351562 276.167969 160.007812 275.738281 160.007812 L 270.578125 160.007812 C 270.148438 160.007812 269.800781 160.351562 269.800781 160.78125 C 269.800781 161.207031 270.148438 161.558594 270.578125 161.558594 L 275.738281 161.558594 C 276.167969 161.558594 276.515625 161.207031 276.515625 160.78125 Z M 277.789062 150.648438 C 277.789062 150.21875 277.441406 149.875 277.015625 149.875 L 271.847656 149.875 C 271.421875 149.875 271.074219 150.21875 271.074219 150.648438 C 271.074219 151.078125 271.421875 151.425781 271.847656 151.425781 L 277.015625 151.425781 C 277.441406 151.425781 277.789062 151.078125 277.789062 150.648438 Z M 278.425781 145.582031 C 278.425781 145.15625 278.078125 144.808594 277.648438 144.808594 L 272.484375 144.808594 C 272.054688 144.808594 271.707031 145.15625 271.707031 145.582031 C 271.707031 146.011719 272.054688 146.359375 272.484375 146.359375 L 277.648438 146.359375 C 278.078125 146.359375 278.425781 146.011719 278.425781 145.582031 Z M 279.058594 140.519531 C 279.058594 140.089844 278.714844 139.742188 278.285156 139.742188 L 273.121094 139.742188 C 272.691406 139.742188 272.347656 140.089844 272.347656 140.519531 C 272.347656 140.945312 272.691406 141.292969 273.121094 141.292969 L 278.285156 141.292969 C 278.714844 141.292969 279.058594 140.945312 279.058594 140.519531 Z M 279.695312 135.453125 C 279.695312 135.023438 279.351562 134.675781 278.921875 134.675781 L 273.757812 134.675781 C 273.328125 134.675781 272.984375 135.023438 272.984375 135.453125 C 272.984375 135.878906 273.328125 136.226562 273.757812 136.226562 L 278.921875 136.226562 C 279.351562 136.226562 279.695312 135.878906 279.695312 135.453125 Z M 280.332031 130.382812 C 280.332031 129.957031 279.984375 129.609375 279.554688 129.609375 L 274.394531 129.609375 C 273.964844 129.609375 273.617188 129.957031 273.617188 130.382812 C 273.617188 130.816406 273.964844 131.160156 274.394531 131.160156 L 279.554688 131.160156 C 279.984375 131.160156 280.332031 130.816406 280.332031 130.382812 Z M 161.617188 134.023438 L 165.261719 133.839844 C 165.441406 131.714844 166.054688 129.753906 167.058594 129.257812 C 165.988281 129.144531 164.949219 129.175781 164.15625 129.523438 C 164.105469 126.835938 163.042969 125.402344 162.375 123.710938 C 162.363281 125.644531 162.890625 125.050781 162.6875 127.640625 C 162.574219 129.074219 162.867188 130.546875 162.53125 131.949219 C 162.355469 132.691406 162.007812 133.363281 161.617188 134.023438 Z M 166.039062 133.800781 L 169.074219 133.648438 C 168.847656 131.328125 168.105469 129.910156 167.566406 129.910156 C 167.015625 129.910156 166.253906 131.394531 166.039062 133.800781 Z M 169.132812 134.421875 L 165.988281 134.578125 C 165.984375 134.761719 165.980469 134.945312 165.980469 135.136719 C 165.980469 138.324219 166.917969 140.363281 167.566406 140.363281 C 168.210938 140.363281 169.152344 138.324219 169.152344 135.136719 C 169.152344 134.890625 169.144531 134.65625 169.132812 134.421875 Z M 96.078125 165.589844 C 95.234375 160.046875 96.851562 154.175781 100.414062 149.851562 C 101.71875 148.261719 103.332031 146.757812 103.734375 144.742188 C 104.144531 142.667969 103.160156 140.601562 102.710938 138.53125 C 101.855469 134.582031 103.074219 130.238281 105.863281 127.316406 C 108.003906 125.074219 110.96875 123.652344 112.773438 121.132812 C 114.289062 119.019531 114.824219 116.386719 115.859375 114.003906 C 118.773438 107.328125 126.144531 102.886719 133.402344 103.425781 C 135.421875 100.910156 139.324219 99.734375 142.496094 100.292969 C 145.667969 100.855469 148.488281 102.65625 150.957031 104.726562 C 158.71875 103.539062 168.476562 110.949219 171.1875 130.179688 C 170.460938 129.960938 169.441406 129.667969 168.371094 129.457031 C 169.386719 130.320312 169.925781 132.789062 169.925781 135.136719 C 169.925781 138.042969 169.097656 141.136719 167.566406 141.136719 C 166.03125 141.136719 165.207031 138.042969 165.207031 135.136719 C 165.207031 134.964844 165.207031 134.792969 165.214844 134.617188 L 163.457031 134.707031 C 163.792969 134.886719 164.046875 135.546875 164.046875 136.34375 C 164.046875 137.277344 163.699219 138.035156 163.277344 138.035156 C 162.851562 138.035156 162.507812 137.277344 162.507812 136.34375 C 162.507812 135.574219 162.746094 134.929688 163.066406 134.726562 L 161.121094 134.820312 C 160.664062 135.546875 160.195312 136.269531 159.882812 137.0625 C 158.445312 140.699219 160.480469 144.824219 159.910156 148.699219 C 159.546875 151.128906 158.191406 153.285156 157.453125 155.628906 C 156.414062 158.957031 157.144531 163.554688 158.675781 166.6875 L 147.921875 166.6875 C 147.25 164.152344 146.386719 161.855469 146.289062 159.234375 C 145.574219 161.976562 145.261719 164.472656 145.019531 167.300781 C 143.699219 163.726562 142.824219 160.25 142.738281 156.441406 C 142.359375 159.488281 142.226562 162.539062 141.847656 165.589844 Z M 168.730469 270.230469 C 169.921875 271.726562 171.226562 273.140625 172.652344 274.429688 C 174.074219 275.71875 175.648438 276.863281 177.390625 277.742188 C 178.265625 278.164062 179.1875 278.503906 180.136719 278.742188 C 181.109375 278.953125 182.042969 279.058594 182.984375 279.191406 C 184.875 279.429688 186.761719 279.664062 188.65625 279.835938 C 192.441406 280.195312 196.234375 280.433594 200.039062 280.5 C 200.132812 280.5 200.214844 280.429688 200.21875 280.335938 C 200.226562 280.238281 200.148438 280.15625 200.050781 280.148438 C 198.160156 280.042969 196.269531 279.890625 194.382812 279.71875 C 192.496094 279.554688 190.609375 279.367188 188.726562 279.152344 C 186.84375 278.929688 184.960938 278.714844 183.085938 278.453125 C 182.152344 278.316406 181.199219 278.203125 180.316406 278.003906 C 179.425781 277.773438 178.5625 277.449219 177.730469 277.046875 C 174.390625 275.390625 171.648438 272.6875 169.238281 269.816406 C 168.027344 268.371094 166.902344 266.847656 165.851562 265.277344 C 164.785156 263.714844 163.78125 262.105469 162.882812 260.445312 L 162.878906 260.4375 C 162.839844 260.367188 162.753906 260.339844 162.679688 260.378906 C 162.609375 260.414062 162.578125 260.503906 162.613281 260.574219 C 164.308594 263.996094 166.347656 267.238281 168.730469 270.230469 Z M 142.800781 223.363281 C 142.371094 223.105469 141.972656 222.804688 141.59375 222.480469 C 141.214844 222.152344 140.867188 221.777344 140.519531 221.386719 C 140.476562 221.34375 140.410156 221.324219 140.347656 221.347656 C 140.273438 221.378906 140.234375 221.46875 140.261719 221.542969 C 140.667969 222.558594 141.453125 223.429688 142.386719 224.019531 C 142.859375 224.3125 143.359375 224.554688 143.878906 224.71875 C 144.320312 224.855469 144.765625 224.949219 145.214844 225.007812 C 146.707031 228.410156 148.257812 231.785156 149.816406 235.15625 C 151.59375 238.90625 153.386719 242.652344 155.226562 246.371094 C 157.070312 250.089844 158.949219 253.789062 160.917969 257.445312 C 160.960938 257.53125 161.066406 257.5625 161.148438 257.523438 C 161.234375 257.480469 161.269531 257.375 161.226562 257.285156 C 160.3125 255.425781 159.417969 253.554688 158.527344 251.683594 L 155.84375 246.070312 L 150.515625 234.828125 C 148.734375 231.082031 146.996094 227.316406 145.28125 223.542969 C 144.421875 221.65625 143.582031 219.761719 142.769531 217.859375 C 141.964844 215.953125 141.136719 214.046875 140.53125 212.078125 L 140.53125 212.070312 C 140.507812 211.992188 140.425781 211.949219 140.347656 211.972656 C 140.269531 211.992188 140.222656 212.074219 140.25 212.152344 C 141.394531 216.171875 143.058594 219.988281 144.683594 223.808594 C 144.777344 224.019531 144.875 224.230469 144.96875 224.445312 C 144.683594 224.324219 144.402344 224.203125 144.132812 224.078125 C 143.671875 223.855469 143.21875 223.628906 142.800781 223.363281 Z M 163.136719 149.738281 C 163.429688 149.925781 163.757812 150.042969 164.09375 150.125 C 164.433594 150.191406 164.777344 150.226562 165.113281 150.191406 C 165.285156 150.179688 165.449219 150.148438 165.613281 150.125 C 165.777344 150.074219 165.9375 150.03125 166.09375 149.96875 C 166.140625 149.949219 166.175781 149.902344 166.1875 149.851562 C 166.199219 149.765625 166.140625 149.6875 166.054688 149.675781 C 165.417969 149.574219 164.832031 149.507812 164.265625 149.371094 C 163.984375 149.304688 163.714844 149.21875 163.4375 149.125 C 163.167969 149.03125 162.894531 148.898438 162.640625 148.777344 L 162.605469 148.757812 C 162.554688 148.734375 162.492188 148.734375 162.4375 148.765625 C 162.355469 148.816406 162.328125 148.925781 162.375 149.003906 C 162.570312 149.335938 162.839844 149.550781 163.136719 149.738281 Z M 323.445312 281.351562 L 310.03125 261.164062 L 310.03125 260.988281 L 300.328125 260.878906 L 290.625 260.847656 L 271.214844 260.777344 L 251.804688 260.863281 L 242.101562 260.90625 L 232.398438 261.015625 L 232.398438 261.3125 L 232.625 261.316406 L 233.390625 261.828125 L 235.960938 266.25 L 231.433594 265.605469 C 231.460938 265.59375 231.492188 265.585938 231.519531 265.570312 C 231.695312 265.480469 231.84375 265.347656 231.976562 265.207031 C 232.101562 265.054688 232.210938 264.890625 232.277344 264.707031 C 232.34375 264.519531 232.390625 264.328125 232.371094 264.121094 C 232.363281 264.085938 232.347656 264.046875 232.324219 264.015625 C 232.253906 263.933594 232.128906 263.925781 232.050781 263.996094 L 232.039062 264 C 231.898438 264.121094 231.792969 264.242188 231.6875 264.359375 C 231.578125 264.46875 231.484375 264.589844 231.390625 264.703125 C 231.296875 264.820312 231.195312 264.933594 231.105469 265.0625 C 231.007812 265.191406 230.90625 265.316406 230.8125 265.480469 L 230.804688 265.484375 C 230.804688 265.492188 230.804688 265.492188 230.800781 265.5 L 230.757812 265.429688 L 226.296875 264.484375 C 226.324219 264.375 226.351562 264.269531 226.375 264.164062 C 226.453125 263.792969 226.472656 263.414062 226.476562 263.035156 C 226.46875 262.652344 226.4375 262.273438 226.351562 261.90625 C 226.273438 261.535156 226.164062 261.167969 225.988281 260.828125 C 225.960938 260.773438 225.898438 260.734375 225.832031 260.734375 C 225.734375 260.730469 225.648438 260.8125 225.648438 260.910156 C 225.640625 261.28125 225.664062 261.636719 225.671875 261.988281 L 225.703125 263.046875 L 225.722656 264.101562 C 225.726562 264.332031 225.734375 264.5625 225.734375 264.792969 L 223.511719 264.476562 C 215.769531 263.316406 208.019531 262.136719 200.347656 260.625 C 198.4375 260.242188 196.515625 259.855469 194.664062 259.308594 C 194.210938 259.167969 193.746094 259.015625 193.359375 258.816406 C 193.148438 258.699219 193.113281 258.675781 192.957031 258.425781 L 192.566406 257.832031 C 192.050781 257.003906 191.539062 256.171875 191.039062 255.328125 C 189.035156 251.96875 187.074219 248.570312 185.117188 245.179688 L 178.1875 233.132812 L 260.957031 233.132812 L 265.511719 250.578125 L 298.355469 250.578125 L 293.800781 233.132812 L 343.671875 233.132812 C 348.535156 233.132812 352.621094 229.472656 353.160156 224.636719 L 365.160156 116.308594 C 365.785156 110.652344 361.359375 105.703125 355.671875 105.703125 L 187.621094 105.703125 C 182.757812 105.703125 178.671875 109.363281 178.132812 114.203125 L 167.625 209.089844 C 168.617188 211.996094 169.433594 214.828125 169.960938 217.429688 L 181.355469 114.5625 C 181.707031 111.359375 184.402344 108.945312 187.621094 108.945312 L 355.671875 108.945312 C 357.484375 108.945312 359.15625 109.695312 360.367188 111.046875 C 361.582031 112.402344 362.136719 114.144531 361.9375 115.953125 L 349.9375 224.277344 C 349.582031 227.476562 346.886719 229.890625 343.671875 229.890625 L 267.753906 229.890625 C 267.832031 229.773438 267.886719 229.636719 267.886719 229.484375 C 267.886719 229.054688 267.539062 228.707031 267.109375 228.707031 L 261.949219 228.707031 C 261.519531 228.707031 261.171875 229.054688 261.171875 229.484375 C 261.171875 229.636719 261.226562 229.773438 261.304688 229.890625 L 176.320312 229.890625 L 173.386719 224.796875 C 173.347656 224.730469 173.257812 224.703125 173.1875 224.742188 C 173.117188 224.785156 173.089844 224.875 173.128906 224.945312 L 175.863281 229.890625 L 175.773438 229.890625 C 176.332031 230.992188 176.890625 232.074219 177.441406 233.132812 L 177.648438 233.132812 L 178.8125 235.238281 L 184.589844 245.480469 C 186.527344 248.890625 188.460938 252.296875 190.445312 255.679688 C 190.941406 256.527344 191.449219 257.371094 191.960938 258.210938 L 192.375 258.84375 C 192.460938 258.957031 192.46875 259.03125 192.632812 259.183594 C 192.773438 259.324219 192.890625 259.378906 193.015625 259.453125 C 193.5 259.703125 193.972656 259.855469 194.449219 260.007812 C 196.355469 260.585938 198.277344 260.984375 200.199219 261.378906 C 207.910156 262.863281 215.667969 263.992188 223.421875 265.109375 L 235.066406 266.707031 L 246.730469 268.140625 C 246.824219 268.148438 246.914062 268.082031 246.925781 267.988281 C 246.941406 267.890625 246.871094 267.804688 246.777344 267.792969 L 242.464844 267.179688 L 246.277344 261.445312 L 251.804688 261.46875 L 271.214844 261.550781 L 290.625 261.484375 L 300.328125 261.449219 L 305.019531 261.394531 L 318.28125 281.351562 L 313.367188 281.351562 L 306.328125 273.378906 L 303.082031 275.515625 L 309.09375 281.351562 L 289.601562 281.351562 L 307.328125 270.09375 L 282.351562 270.09375 L 286.109375 277 C 286.394531 277.53125 286.179688 278.195312 285.628906 278.445312 C 284.617188 278.371094 283.46875 277.894531 282.496094 277.21875 C 282.496094 277.195312 282.503906 277.175781 282.496094 277.15625 C 282.078125 276.171875 282.066406 275.082031 281.933594 273.964844 C 281.875 273.402344 281.753906 272.828125 281.53125 272.269531 C 281.3125 271.710938 280.996094 271.207031 280.628906 270.75 C 279.878906 269.855469 278.96875 269.148438 278.050781 268.527344 C 277.136719 267.894531 276.21875 267.304688 275.394531 266.585938 C 275.34375 266.535156 275.261719 266.53125 275.203125 266.582031 C 275.140625 266.632812 275.132812 266.722656 275.183594 266.785156 C 275.898438 267.675781 276.800781 268.367188 277.664062 269.050781 C 278.527344 269.734375 279.382812 270.402344 280.03125 271.238281 C 280.363281 271.640625 280.648438 272.078125 280.84375 272.546875 C 281.050781 273.015625 281.148438 273.535156 281.257812 274.066406 C 281.417969 274.929688 281.515625 275.882812 281.894531 276.75 C 281.417969 276.34375 281.007812 275.894531 280.722656 275.425781 L 278.253906 271.292969 L 273.867188 270.234375 C 273.855469 270.222656 273.851562 270.210938 273.84375 270.199219 C 273.804688 270.15625 273.738281 270.128906 273.679688 270.152344 C 273.664062 270.15625 273.65625 270.171875 273.644531 270.179688 L 273.589844 270.167969 L 267.414062 274.945312 C 267.421875 274.910156 267.425781 274.878906 267.429688 274.84375 C 267.464844 274.519531 267.445312 274.195312 267.394531 273.875 C 267.339844 273.554688 267.257812 273.238281 267.125 272.941406 C 266.988281 272.648438 266.828125 272.363281 266.609375 272.121094 C 266.566406 272.078125 266.503906 272.054688 266.441406 272.066406 C 266.34375 272.082031 266.277344 272.179688 266.292969 272.277344 C 266.34375 272.585938 266.414062 272.867188 266.46875 273.152344 C 266.519531 273.441406 266.585938 273.71875 266.632812 274.003906 C 266.691406 274.285156 266.726562 274.570312 266.773438 274.859375 C 266.800781 275.027344 266.828125 275.203125 266.855469 275.378906 L 261.949219 279.179688 C 260.554688 280.257812 258.941406 280.984375 257.242188 281.351562 L 252.476562 281.351562 L 246.433594 280.515625 C 246.804688 280.1875 247.136719 279.800781 247.371094 279.347656 C 247.667969 278.792969 247.8125 278.140625 247.71875 277.527344 C 247.707031 277.453125 247.644531 277.390625 247.566406 277.378906 C 247.46875 277.367188 247.382812 277.433594 247.367188 277.53125 C 247.285156 278.074219 247.089844 278.570312 246.792969 279.003906 C 246.667969 279.179688 246.519531 279.347656 246.367188 279.511719 C 246.359375 279.152344 246.3125 278.800781 246.226562 278.457031 C 246.066406 277.789062 245.789062 277.15625 245.371094 276.628906 C 245.332031 276.574219 245.261719 276.554688 245.203125 276.578125 C 245.125 276.609375 245.085938 276.695312 245.113281 276.773438 C 245.339844 277.371094 245.5 277.964844 245.570312 278.574219 C 245.640625 279.183594 245.636719 279.792969 245.542969 280.386719 C 245.542969 280.40625 245.546875 280.425781 245.546875 280.445312 L 203.929688 280.148438 L 202.109375 281.351562 L 163.984375 281.351562 C 164.078125 281.613281 164.175781 281.871094 164.273438 282.128906 L 365.21875 282.128906 L 365.21875 281.351562 Z M 49.035156 281.351562 L 49.035156 282.128906 L 135.671875 282.128906 C 140.921875 282.128906 142.433594 281.351562 142.433594 281.351562 C 143.117188 281.167969 143.769531 280.917969 144.390625 280.617188 C 148.835938 278.4375 151.515625 273.371094 150.25 268.148438 L 135.421875 207.105469 C 134.222656 202.171875 129.8125 198.707031 124.746094 198.707031 L 41.914062 198.707031 C 34.796875 198.707031 29.558594 205.375 31.238281 212.296875 L 46.066406 273.339844 C 47.027344 277.304688 50.074219 280.320312 53.863281 281.351562 Z M 169.316406 293.457031 C 169.316406 293.457031 169.296875 293.601562 169.253906 293.847656 L 169.257812 293.847656 C 168.714844 297.085938 163.78125 320.308594 133.167969 320.308594 C 121.960938 320.308594 113.859375 318.457031 109.351562 317.058594 C 110.953125 326.230469 118.941406 333.203125 128.5625 333.203125 L 187.453125 333.203125 C 202.035156 333.203125 216.261719 327.125 216.261719 327.125 L 211.691406 354.246094 L 241.710938 354.246094 C 241.710938 354.246094 245.1875 327.125 246.683594 308.925781 C 247.5625 298.273438 239.722656 294.851562 233.070312 293.847656 L 287.082031 293.847656 L 283.574219 324.066406 L 294.675781 325.90625 L 298.398438 293.847656 L 338.375 293.847656 L 343.023438 333.921875 L 354.558594 335.835938 L 349.691406 293.847656 L 365.21875 293.847656 L 365.21875 293.070312 L 169.117188 293.070312 C 169.242188 293.320312 169.316406 293.457031 169.316406 293.457031 Z M 102.246094 293.070312 L 49.035156 293.070312 L 49.035156 293.847656 L 74.632812 293.847656 C 74.609375 293.960938 74.621094 294.082031 74.589844 294.199219 L 74.484375 294.980469 C 74.40625 295.5 74.378906 296.027344 74.328125 296.550781 L 74.238281 298.128906 L 74.199219 298.917969 L 74.175781 299.3125 C 74.1875 299.445312 74.089844 299.566406 74.339844 299.726562 C 74.625 299.628906 74.554688 299.488281 74.597656 299.363281 L 74.667969 298.972656 L 74.804688 298.191406 L 75.085938 296.640625 C 75.152344 296.113281 75.246094 295.597656 75.289062 295.074219 L 75.367188 294.289062 C 75.359375 294.140625 75.421875 293.996094 75.394531 293.847656 L 102.257812 293.847656 C 102.25 293.589844 102.246094 293.332031 102.246094 293.070312 Z M 233.863281 124.734375 C 233.863281 124.304688 233.515625 123.957031 233.089844 123.957031 L 221.554688 123.957031 C 221.125 123.957031 220.777344 124.304688 220.777344 124.734375 C 220.777344 125.164062 221.125 125.507812 221.554688 125.507812 L 233.089844 125.507812 C 233.515625 125.507812 233.863281 125.164062 233.863281 124.734375 Z M 203.25 124.734375 C 203.167969 125.367188 203.617188 125.878906 204.25 125.878906 C 204.882812 125.878906 205.460938 125.367188 205.539062 124.734375 C 205.621094 124.101562 205.171875 123.589844 204.539062 123.589844 C 203.910156 123.589844 203.332031 124.101562 203.25 124.734375 Z M 199.914062 125.878906 C 199.28125 125.878906 198.828125 125.367188 198.910156 124.734375 C 198.992188 124.101562 199.566406 123.589844 200.199219 123.589844 C 200.832031 123.589844 201.28125 124.101562 201.203125 124.734375 C 201.125 125.367188 200.546875 125.878906 199.914062 125.878906 "/>
</g>
<g clip-path="url(#clip5)" clip-rule="nonzero">
<path style=" stroke:none;fill-rule:nonzero;fill:rgb(98.429871%,76.469421%,63.139343%);fill-opacity:1;" d="M 308.417969 250.578125 L 302.175781 250.578125 L 297.621094 233.132812 L 293.800781 233.132812 L 298.355469 250.578125 L 233.066406 250.578125 C 229.769531 250.578125 227.097656 253.253906 227.097656 256.554688 L 314.386719 256.554688 C 314.386719 253.253906 311.714844 250.578125 308.417969 250.578125 Z M 97.273438 250.171875 L 84.414062 250.171875 C 83.589844 250.171875 82.894531 250.789062 82.800781 251.605469 L 72.386719 341.914062 C 72.277344 342.875 73.03125 343.726562 73.996094 343.726562 L 86.863281 343.726562 C 87.6875 343.726562 88.378906 343.105469 88.476562 342.285156 L 98.886719 251.980469 C 99 251.015625 98.246094 250.171875 97.273438 250.171875 Z M 289.015625 281.722656 L 294.238281 281.722656 L 306.125 273.90625 L 313.03125 281.722656 L 316.886719 281.722656 L 307.328125 270.09375 Z M 360.785156 105.703125 L 355.671875 105.703125 C 361.359375 105.703125 365.785156 110.652344 365.160156 116.308594 L 353.160156 224.636719 C 352.621094 229.472656 348.535156 233.132812 343.671875 233.132812 L 348.785156 233.132812 C 353.648438 233.132812 357.738281 229.472656 358.273438 224.636719 L 370.273438 116.308594 C 370.898438 110.652344 366.472656 105.703125 360.785156 105.703125 Z M 233.863281 124.734375 C 233.863281 124.304688 233.515625 123.957031 233.089844 123.957031 L 221.554688 123.957031 C 221.125 123.957031 220.777344 124.304688 220.777344 124.734375 C 220.777344 125.164062 221.125 125.507812 221.554688 125.507812 L 233.089844 125.507812 C 233.515625 125.507812 233.863281 125.164062 233.863281 124.734375 Z M 204.539062 123.589844 C 203.910156 123.589844 203.332031 124.101562 203.25 124.734375 C 203.167969 125.367188 203.617188 125.878906 204.25 125.878906 C 204.882812 125.878906 205.460938 125.367188 205.539062 124.734375 C 205.621094 124.101562 205.171875 123.589844 204.539062 123.589844 Z M 200.199219 123.589844 C 199.566406 123.589844 198.992188 124.101562 198.910156 124.734375 C 198.828125 125.367188 199.28125 125.878906 199.914062 125.878906 C 200.546875 125.878906 201.125 125.367188 201.203125 124.734375 C 201.28125 124.101562 200.832031 123.589844 200.199219 123.589844 Z M 209.878906 124.734375 C 209.800781 125.367188 209.222656 125.878906 208.589844 125.878906 C 207.957031 125.878906 207.511719 125.367188 207.589844 124.734375 C 207.667969 124.101562 208.246094 123.589844 208.878906 123.589844 C 209.511719 123.589844 209.957031 124.101562 209.878906 124.734375 "/>
</g>
</g>
</svg>
