<svg xmlns="http://www.w3.org/2000/svg" width="1000" height="323.7"><path fill="#00579f" d="M433 319h-81L403 6h81zM727 13c-16-6-41-13-73-13-80 0-136 43-136 104-1 45 40 70 71 85s42 25 42 39c-1 21-26 30-49 30-32 0-50-5-76-16l-11-5-11 70c19 9 54 16 90 17 85 0 141-42 141-107 1-36-21-63-68-86-28-14-45-24-45-38s14-27 46-27c27-1 46 5 61 12l7 3 11-68zM835 208l32-88 11-30 5 27 19 91h-67zM935 6h-63c-19 0-34 5-42 26L709 319h85l17-47h104l10 47h75L935 6zM285 6l-80 213-8-43C182 126 136 72 85 45l72 274h86L370 6h-85z"/><path d="M132 6H1l-1 6c102 26 169 89 197 164L168 32c-4-20-19-26-36-26z" fill="#faa61a"/></svg>
