<?xml version="1.0" encoding="UTF-8"?>
<svg xmlns="http://www.w3.org/2000/svg" xmlns:xlink="http://www.w3.org/1999/xlink" width="375pt" height="371.249998pt" viewBox="0 0 375 371.249998" version="1.2">
<defs>
<clipPath id="clip1">
  <path d="M 48.09375 5.304688 L 327.222656 5.304688 L 327.222656 326.332031 L 48.09375 326.332031 Z M 48.09375 5.304688 "/>
</clipPath>
<clipPath id="clip2">
  <path d="M 61 41.765625 L 309 41.765625 L 309 370.5 L 61 370.5 Z M 61 41.765625 "/>
</clipPath>
</defs>
<g id="surface1">
<g clip-path="url(#clip1)" clip-rule="nonzero">
<path style=" stroke:none;fill-rule:nonzero;fill:rgb(94.898987%,67.059326%,56.079102%);fill-opacity:1;" d="M 224.863281 326.179688 C 91.671875 326.179688 59.34375 271.898438 49.355469 225.984375 C 39.367188 180.066406 90.003906 20.402344 148.960938 7.601562 C 207.914062 -5.199219 298.121094 37.742188 319.152344 79.773438 C 338.222656 117.886719 329.691406 326.179688 224.863281 326.179688 "/>
</g>
<path style=" stroke:none;fill-rule:nonzero;fill:rgb(98.429871%,76.469421%,63.139343%);fill-opacity:1;" d="M 128.042969 61.375 L 127.894531 64.945312 C 128.53125 64.230469 129.285156 63.617188 130.109375 63.121094 C 130.558594 62.847656 131.035156 62.621094 131.519531 62.425781 C 132.125 62.183594 132.75 61.984375 133.390625 61.835938 C 134.542969 61.605469 135.734375 61.53125 136.90625 61.671875 C 137.328125 61.726562 137.746094 61.8125 138.15625 61.914062 C 138.832031 62.082031 139.488281 62.324219 140.101562 62.640625 L 139.527344 59.171875 C 139.527344 59.171875 142.910156 56.515625 143.480469 54.4375 C 144.054688 52.359375 145.667969 49.449219 145.71875 47.367188 C 145.773438 45.289062 142.492188 47.941406 141.765625 49.289062 C 141.035156 50.644531 139.527344 52.929688 139.527344 52.929688 C 139.527344 52.929688 138.691406 44.09375 138.484375 43.988281 L 136.410156 33.171875 C 136.234375 32.265625 134.984375 31.953125 134.519531 32.753906 C 134.484375 32.816406 134.449219 32.890625 134.429688 32.96875 C 134.21875 33.660156 134.671875 41.464844 134.925781 45.523438 C 134.777344 45.589844 134.628906 45.65625 134.476562 45.722656 L 131.003906 33.722656 C 130.742188 32.824219 129.457031 32.570312 129.074219 33.390625 C 129.046875 33.457031 129.019531 33.53125 129.003906 33.613281 C 128.847656 34.390625 130.378906 43.90625 130.945312 47.351562 C 130.933594 47.359375 130.921875 47.359375 130.910156 47.367188 L 126.570312 36.953125 C 126.214844 36.105469 124.925781 36.058594 124.640625 36.933594 C 124.617188 37.007812 124.601562 37.082031 124.589844 37.164062 C 124.53125 37.859375 126.449219 44.910156 127.558594 48.921875 C 127.449219 48.972656 127.339844 49.023438 127.234375 49.074219 L 123.988281 41.421875 C 123.628906 40.570312 122.339844 40.53125 122.054688 41.40625 C 122.03125 41.480469 122.015625 41.558594 122.007812 41.640625 C 121.957031 42.230469 123.351562 47.414062 124.460938 51.421875 C 124.566406 53.773438 125.128906 59.46875 128.042969 61.375 Z M 206.085938 150.78125 C 203.621094 149.441406 201.179688 148.058594 198.769531 146.617188 C 198.730469 146.597656 198.707031 146.558594 198.703125 146.519531 L 198.445312 146.390625 C 198.445312 146.390625 195.152344 150.042969 193.695312 151.914062 C 193.328125 152.386719 190.628906 153.0625 186.800781 153.808594 C 183.773438 154.398438 180.050781 155.03125 176.207031 155.640625 C 165.667969 157.320312 154.285156 158.832031 154.285156 158.832031 C 154.285156 158.832031 149.523438 153.996094 144.617188 153.996094 C 139.71875 153.996094 137.175781 153.945312 137.402344 155.035156 C 137.628906 156.128906 144.484375 158.726562 144.484375 158.726562 L 125.5625 158.832031 C 125.5625 158.832031 136.179688 165.589844 143.667969 165.695312 C 151.15625 165.796875 154.285156 165.695312 154.285156 165.695312 C 154.285156 165.695312 166.234375 165.695312 178.117188 165.695312 C 188.359375 165.695312 198.550781 165.695312 201.011719 165.695312 C 205.625 165.695312 211.429688 156.863281 212.871094 154.550781 C 210.625 153.273438 208.355469 152.03125 206.085938 150.78125 Z M 197.214844 65.191406 C 196.972656 64.992188 196.75 64.769531 196.558594 64.523438 C 196.824219 64.917969 197.050781 65.371094 197.160156 65.832031 C 197.175781 65.621094 197.195312 65.402344 197.214844 65.191406 Z M 176.046875 71.980469 L 176.058594 71.980469 C 176.359375 71.929688 176.632812 71.902344 176.910156 71.910156 C 177.183594 71.925781 177.449219 71.957031 177.707031 72.027344 C 177.96875 72.085938 178.21875 72.183594 178.464844 72.296875 C 178.710938 72.414062 178.9375 72.566406 179.179688 72.742188 L 179.1875 72.746094 C 179.238281 72.78125 179.300781 72.792969 179.363281 72.773438 C 179.457031 72.738281 179.507812 72.628906 179.472656 72.535156 C 179.355469 72.207031 179.121094 71.925781 178.84375 71.707031 C 178.566406 71.480469 178.234375 71.339844 177.894531 71.253906 C 177.207031 71.101562 176.421875 71.230469 175.914062 71.714844 C 175.882812 71.746094 175.859375 71.796875 175.867188 71.851562 C 175.882812 71.9375 175.964844 71.996094 176.046875 71.980469 Z M 176.785156 67.824219 L 176.792969 67.828125 C 177.046875 67.960938 177.289062 68.078125 177.511719 68.21875 C 177.730469 68.359375 177.953125 68.496094 178.148438 68.65625 C 178.359375 68.804688 178.546875 68.984375 178.738281 69.15625 C 178.929688 69.335938 179.109375 69.53125 179.304688 69.734375 L 179.308594 69.742188 C 179.347656 69.785156 179.40625 69.804688 179.46875 69.796875 C 179.574219 69.785156 179.644531 69.691406 179.632812 69.585938 C 179.589844 69.269531 179.453125 68.976562 179.28125 68.710938 C 179.109375 68.441406 178.882812 68.214844 178.625 68.023438 C 178.367188 67.835938 178.082031 67.683594 177.773438 67.601562 C 177.46875 67.515625 177.148438 67.476562 176.835938 67.527344 C 176.789062 67.535156 176.746094 67.566406 176.722656 67.609375 C 176.679688 67.683594 176.707031 67.78125 176.785156 67.824219 Z M 179.234375 74.597656 C 178.773438 75.269531 178.265625 75.960938 177.898438 76.78125 C 177.546875 77.589844 177.351562 78.558594 177.664062 79.472656 C 177.960938 80.375 178.8125 81.121094 179.773438 81.054688 C 179.84375 81.050781 179.902344 81 179.914062 80.929688 C 179.925781 80.84375 179.871094 80.765625 179.785156 80.753906 L 179.78125 80.753906 C 179.027344 80.632812 178.464844 79.96875 178.304688 79.289062 C 178.148438 78.574219 178.304688 77.800781 178.625 77.097656 C 178.9375 76.382812 179.414062 75.707031 179.832031 74.964844 C 180.25 74.226562 180.636719 73.398438 180.660156 72.503906 C 180.664062 72.421875 180.605469 72.34375 180.519531 72.324219 C 180.425781 72.300781 180.328125 72.359375 180.304688 72.457031 C 180.101562 73.230469 179.691406 73.921875 179.234375 74.597656 Z M 180.585938 84.441406 C 180.53125 84.5 180.535156 84.601562 180.59375 84.660156 C 181.007812 85.039062 181.597656 85.214844 182.160156 85.21875 C 182.730469 85.226562 183.289062 85.066406 183.789062 84.808594 C 184.28125 84.542969 184.710938 84.191406 185.066406 83.796875 C 185.425781 83.40625 185.738281 82.988281 186.007812 82.542969 C 186.042969 82.480469 186.039062 82.398438 185.992188 82.335938 C 185.929688 82.257812 185.816406 82.246094 185.738281 82.304688 C 185.371094 82.59375 185.035156 82.902344 184.699219 83.1875 C 184.660156 83.222656 184.621094 83.257812 184.582031 83.289062 C 184.300781 83.519531 184.015625 83.730469 183.71875 83.917969 C 183.617188 83.980469 183.519531 84.054688 183.414062 84.113281 C 182.617188 84.542969 181.660156 84.746094 180.757812 84.402344 L 180.753906 84.398438 C 180.699219 84.382812 180.632812 84.394531 180.585938 84.441406 Z M 184.753906 67.140625 C 184.761719 67.222656 184.835938 67.285156 184.921875 67.28125 C 185.46875 67.238281 185.996094 67.25 186.511719 67.335938 C 187.027344 67.429688 187.523438 67.578125 187.976562 67.804688 C 188.441406 68.027344 188.859375 68.328125 189.25 68.671875 C 189.632812 69.023438 189.964844 69.433594 190.269531 69.886719 C 190.308594 69.949219 190.390625 69.984375 190.464844 69.960938 C 190.5625 69.9375 190.621094 69.835938 190.597656 69.742188 C 190.449219 69.167969 190.144531 68.640625 189.753906 68.1875 C 189.367188 67.730469 188.871094 67.359375 188.324219 67.09375 C 187.773438 66.835938 187.179688 66.683594 186.578125 66.667969 C 185.980469 66.652344 185.378906 66.746094 184.84375 66.984375 C 184.785156 67.011719 184.75 67.074219 184.753906 67.140625 Z M 189.101562 72.101562 C 189.101562 71.5625 188.664062 71.121094 188.125 71.121094 C 187.585938 71.121094 187.144531 71.5625 187.144531 72.101562 C 187.144531 72.640625 187.585938 73.078125 188.125 73.078125 C 188.664062 73.078125 189.101562 72.640625 189.101562 72.101562 Z M 175.960938 85.871094 C 173.578125 78.867188 175.675781 65.664062 175.902344 60.648438 C 175.949219 59.574219 176.148438 58.507812 176.476562 57.488281 C 177.085938 56.957031 177.84375 56.578125 178.609375 56.4375 C 177.679688 58.753906 178.566406 61.449219 180.070312 63.4375 C 180.527344 64.039062 181.0625 64.617188 181.761719 64.90625 C 182.457031 65.199219 183.351562 65.128906 183.863281 64.574219 C 183.875 64.5625 183.878906 64.546875 183.894531 64.53125 C 184.132812 64.242188 184.21875 63.839844 184.152344 63.472656 C 184.820312 64.246094 185.671875 64.855469 186.625 65.222656 C 187.09375 65.402344 187.625 65.527344 188.105469 65.359375 C 188.675781 65.160156 189.042969 64.578125 189.160156 63.980469 C 189.269531 63.386719 189.175781 62.773438 189.078125 62.171875 C 190.171875 64.15625 191.765625 65.863281 193.671875 67.082031 C 194.269531 67.464844 194.929688 67.808594 195.640625 67.808594 C 196.21875 67.804688 196.816406 67.5 197.082031 67.007812 C 197.03125 68.003906 197.011719 69.003906 197.023438 70 C 197.574219 69.195312 198.175781 68.398438 199.042969 67.953125 C 199.988281 67.464844 201.332031 67.578125 201.894531 68.484375 C 202.324219 69.179688 202.164062 70.078125 201.933594 70.867188 C 201.535156 72.226562 200.949219 73.578125 199.945312 74.585938 C 199.273438 75.261719 198.382812 75.753906 197.449219 75.914062 C 197.835938 78.828125 198.492188 81.707031 199.40625 84.5 C 200.292969 87.199219 201.46875 89.890625 203.5 91.878906 C 203.648438 92.023438 203.8125 92.160156 203.980469 92.285156 C 204.160156 93.671875 204.332031 94.949219 204.46875 95.914062 C 204.621094 97 204.726562 97.6875 204.726562 97.6875 L 201.140625 99.355469 L 192.21875 103.488281 C 190.300781 104.378906 188.15625 102.8125 188.417969 100.710938 C 188.421875 100.691406 188.421875 100.671875 188.425781 100.648438 C 188.550781 99.601562 188.621094 98.460938 188.570312 97.289062 C 188.519531 96.128906 188.359375 94.941406 188.019531 93.789062 C 187.90625 93.394531 187.726562 93.101562 187.503906 92.878906 C 187.707031 92.878906 187.914062 92.882812 188.121094 92.875 C 189.25 92.820312 190.359375 92.550781 191.414062 92.15625 C 192.457031 91.726562 193.449219 91.160156 194.3125 90.429688 C 195.175781 89.703125 195.917969 88.835938 196.449219 87.855469 C 196.488281 87.777344 196.46875 87.679688 196.402344 87.625 C 196.320312 87.5625 196.210938 87.578125 196.148438 87.65625 C 195.484375 88.503906 194.726562 89.25 193.875 89.882812 C 193.03125 90.511719 192.105469 91.042969 191.121094 91.417969 C 190.148438 91.828125 189.113281 92.074219 188.066406 92.207031 C 187.4375 92.28125 186.808594 92.300781 186.175781 92.273438 C 183.691406 91.832031 179.4375 93.054688 176.527344 87.238281 C 176.316406 86.816406 176.128906 86.359375 175.960938 85.871094 Z M 140.097656 63.039062 C 139.039062 62.667969 137.941406 62.4375 136.839844 62.371094 C 136.292969 62.335938 135.738281 62.335938 135.191406 62.378906 C 135.144531 62.382812 135.097656 62.386719 135.050781 62.390625 C 134.546875 62.429688 134.046875 62.503906 133.550781 62.613281 C 132.464844 62.816406 131.421875 63.203125 130.4375 63.707031 C 129.511719 64.175781 128.65625 64.78125 127.871094 65.488281 L 125.957031 110.589844 L 144.859375 110.589844 C 147.648438 110.589844 150.03125 112.617188 150.46875 115.371094 L 151.070312 119.148438 L 154.535156 119.105469 L 146.554688 101.851562 L 140.164062 63.039062 C 140.140625 63.039062 140.117188 63.046875 140.097656 63.039062 Z M 163.164062 100.046875 L 150.070312 101.46875 Z M 163.164062 100.046875 "/>
<path style=" stroke:none;fill-rule:nonzero;fill:rgb(96.078491%,42.349243%,36.468506%);fill-opacity:1;" d="M 104.636719 192.382812 C 106.515625 192.382812 108.046875 193.910156 108.046875 195.792969 C 108.046875 197.671875 106.515625 199.195312 104.636719 199.195312 C 102.753906 199.195312 101.222656 197.671875 101.222656 195.792969 C 101.222656 193.910156 102.753906 192.382812 104.636719 192.382812 Z M 104.636719 199.988281 C 106.953125 199.988281 108.839844 198.105469 108.839844 195.792969 C 108.839844 193.476562 106.953125 191.589844 104.636719 191.589844 C 102.316406 191.589844 100.429688 193.476562 100.429688 195.792969 C 100.429688 198.105469 102.316406 199.988281 104.636719 199.988281 Z M 114.5 298.527344 L 98.558594 298.527344 C 98.140625 298.269531 97.742188 298.003906 97.332031 297.734375 L 114.5 297.734375 Z M 117.988281 297.734375 L 128.570312 297.734375 L 128.570312 298.527344 L 117.988281 298.527344 Z M 97.890625 293 L 128.570312 293 L 128.570312 293.792969 L 97.890625 293.792969 Z M 105.71875 288.265625 L 128.570312 288.265625 L 128.570312 289.058594 L 105.71875 289.058594 Z M 114.816406 307.207031 L 128.570312 307.207031 L 128.570312 308 L 116.574219 308 C 115.976562 307.738281 115.398438 307.472656 114.816406 307.207031 Z M 112.277344 302.472656 L 128.570312 302.472656 L 128.570312 303.265625 L 112.277344 303.265625 Z M 105.300781 302.472656 L 107.835938 302.472656 L 107.835938 303.265625 L 106.765625 303.265625 C 106.269531 303.003906 105.789062 302.738281 105.300781 302.472656 Z M 90.515625 293 L 94.402344 293 L 94.402344 293.792969 L 91.589844 293.792969 C 91.230469 293.527344 90.867188 293.265625 90.515625 293 Z M 102.226562 289.058594 L 85.5625 289.058594 C 85.261719 288.804688 84.964844 288.550781 84.667969 288.296875 L 84.667969 288.265625 L 102.226562 288.265625 Z M 84.667969 265.566406 L 114.5 265.566406 L 114.5 266.359375 L 84.667969 266.359375 Z M 117.988281 265.566406 L 128.570312 265.566406 L 128.570312 266.359375 L 117.988281 266.359375 Z M 97.890625 260.832031 L 128.570312 260.832031 L 128.570312 261.625 L 97.890625 261.625 Z M 105.71875 256.097656 L 128.570312 256.097656 L 128.570312 256.890625 L 105.71875 256.890625 Z M 84.667969 275.035156 L 128.570312 275.035156 L 128.570312 275.828125 L 84.667969 275.828125 Z M 117.988281 280.566406 L 84.667969 280.566406 L 84.667969 279.773438 L 117.988281 279.773438 Z M 112.277344 270.300781 L 128.570312 270.300781 L 128.570312 271.09375 L 112.277344 271.09375 Z M 84.667969 270.300781 L 107.835938 270.300781 L 107.835938 271.09375 L 84.667969 271.09375 Z M 84.667969 260.832031 L 94.402344 260.832031 L 94.402344 261.625 L 84.667969 261.625 Z M 84.667969 256.097656 L 102.226562 256.097656 L 102.226562 256.890625 L 84.667969 256.890625 Z M 84.667969 246.628906 L 93.445312 246.628906 L 93.445312 247.421875 L 84.667969 247.421875 Z M 102.226562 242.6875 L 84.667969 242.6875 L 84.667969 241.894531 L 102.226562 241.894531 Z M 78.980469 235.097656 L 134.785156 235.097656 L 134.785156 314.726562 C 134.519531 314.644531 134.257812 314.558594 133.992188 314.476562 L 133.992188 235.890625 L 79.777344 235.890625 L 79.777344 283.8125 C 79.507812 283.546875 79.246094 283.28125 78.980469 283.015625 Z M 79.777344 213.773438 L 93.800781 207.195312 L 115.316406 227.886719 L 79.777344 227.886719 Z M 79.777344 185.074219 L 133.992188 185.074219 L 133.992188 216.335938 L 118.691406 205.226562 L 118.503906 205.085938 L 101.085938 213.105469 L 93.953125 206.246094 L 79.777344 212.894531 Z M 133.992188 227.886719 L 116.457031 227.886719 L 101.699219 213.699219 L 118.410156 206.003906 L 133.992188 217.3125 Z M 78.980469 228.679688 L 134.785156 228.679688 L 134.785156 184.28125 L 78.980469 184.28125 Z M 275.265625 65.046875 C 275.265625 66.925781 273.734375 68.457031 271.851562 68.457031 C 269.972656 68.457031 268.445312 66.925781 268.445312 65.046875 C 268.445312 63.171875 269.972656 61.640625 271.851562 61.640625 C 273.734375 61.640625 275.265625 63.171875 275.265625 65.046875 Z M 267.652344 65.046875 C 267.652344 67.367188 269.535156 69.25 271.851562 69.25 C 274.175781 69.25 276.058594 67.367188 276.058594 65.046875 C 276.058594 62.730469 274.175781 60.847656 271.851562 60.847656 C 269.535156 60.847656 267.652344 62.730469 267.652344 65.046875 Z M 281.722656 167.789062 L 251.886719 167.789062 L 251.886719 166.996094 L 281.722656 166.996094 Z M 285.210938 166.996094 L 295.789062 166.996094 L 295.789062 167.789062 L 285.210938 167.789062 Z M 265.109375 162.261719 L 295.789062 162.261719 L 295.789062 163.054688 L 265.109375 163.054688 Z M 272.9375 157.523438 L 295.789062 157.523438 L 295.789062 158.316406 L 272.9375 158.316406 Z M 251.886719 176.46875 L 295.789062 176.46875 L 295.789062 177.257812 L 251.886719 177.257812 Z M 251.886719 181.199219 L 285.210938 181.199219 L 285.210938 181.992188 L 251.886719 181.992188 Z M 279.5 171.734375 L 295.789062 171.734375 L 295.789062 172.523438 L 279.5 172.523438 Z M 275.054688 172.523438 L 251.886719 172.523438 L 251.886719 171.734375 L 275.054688 171.734375 Z M 261.621094 163.054688 L 251.886719 163.054688 L 251.886719 162.261719 L 261.621094 162.261719 Z M 269.449219 158.316406 L 251.886719 158.316406 L 251.886719 157.523438 L 269.449219 157.523438 Z M 281.722656 135.621094 L 251.886719 135.621094 L 251.886719 134.828125 L 281.722656 134.828125 Z M 285.210938 134.828125 L 295.789062 134.828125 L 295.789062 135.621094 L 285.210938 135.621094 Z M 265.109375 130.09375 L 295.789062 130.09375 L 295.789062 130.886719 L 265.109375 130.886719 Z M 272.9375 125.355469 L 295.789062 125.355469 L 295.789062 126.148438 L 272.9375 126.148438 Z M 251.886719 144.296875 L 295.789062 144.296875 L 295.789062 145.089844 L 251.886719 145.089844 Z M 285.210938 149.824219 L 251.886719 149.824219 L 251.886719 149.03125 L 285.210938 149.03125 Z M 279.5 139.5625 L 295.789062 139.5625 L 295.789062 140.355469 L 279.5 140.355469 Z M 275.054688 140.355469 L 251.886719 140.355469 L 251.886719 139.5625 L 275.054688 139.5625 Z M 261.621094 130.886719 L 251.886719 130.886719 L 251.886719 130.09375 L 261.621094 130.09375 Z M 269.449219 126.148438 L 251.886719 126.148438 L 251.886719 125.355469 L 269.449219 125.355469 Z M 260.667969 116.679688 L 251.886719 116.679688 L 251.886719 115.886719 L 260.667969 115.886719 Z M 269.449219 111.941406 L 251.886719 111.941406 L 251.886719 111.148438 L 269.449219 111.148438 Z M 246.992188 105.152344 L 301.210938 105.152344 L 301.210938 191.226562 L 246.992188 191.226562 Z M 246.199219 192.019531 L 302.003906 192.019531 L 302.003906 104.359375 L 246.199219 104.359375 Z M 301.210938 97.148438 L 283.679688 97.148438 L 268.921875 82.957031 L 285.632812 75.261719 L 301.210938 86.574219 Z M 246.992188 97.148438 L 246.992188 83.03125 L 261.019531 76.453125 L 282.535156 97.148438 Z M 301.210938 56.902344 L 301.210938 85.59375 L 285.722656 74.347656 L 268.308594 82.363281 L 261.175781 75.507812 L 246.992188 82.15625 L 246.992188 54.332031 L 298.398438 54.332031 C 298.101562 54.066406 297.792969 53.804688 297.492188 53.542969 L 246.199219 53.542969 L 246.199219 97.941406 L 302.003906 97.941406 L 302.003906 57.660156 C 301.742188 57.410156 301.476562 57.15625 301.210938 56.902344 Z M 55.496094 44.625 L 103.046875 44.625 L 103.046875 93.085938 L 55.496094 93.085938 Z M 118.199219 139.214844 C 112.328125 137.523438 109.492188 130.207031 113.0625 130.207031 C 116.046875 130.207031 117.136719 131.992188 117.136719 131.992188 C 117.136719 131.992188 118.25 130.207031 120.515625 130.207031 C 124.089844 130.207031 123.539062 137.523438 118.199219 139.214844 Z M 238.398438 362.65625 C 238.222656 363.53125 237.699219 363.625 237.230469 362.867188 C 236.761719 362.113281 236.523438 360.789062 236.703125 359.914062 C 236.878906 359.042969 237.402344 358.949219 237.871094 359.707031 C 238.339844 360.460938 238.578125 361.785156 238.398438 362.65625 Z M 159.804688 362.191406 C 159.710938 363.359375 158.683594 364.308594 157.511719 364.308594 C 156.339844 364.308594 155.46875 363.359375 155.566406 362.191406 C 155.660156 361.019531 156.6875 360.070312 157.859375 360.070312 C 159.03125 360.070312 159.90625 361.019531 159.804688 362.191406 Z M 206.132812 99.316406 C 204.671875 100.136719 203.183594 100.910156 201.695312 101.675781 C 200.679688 102.199219 199.660156 102.707031 198.636719 103.214844 C 198.160156 103.453125 197.679688 103.6875 197.203125 103.929688 C 195.699219 104.632812 194.144531 105.4375 192.398438 105.667969 C 191.53125 105.78125 190.636719 105.742188 189.789062 105.5 C 188.949219 105.25 188.148438 104.796875 187.59375 104.117188 C 187.539062 104.050781 187.550781 103.957031 187.613281 103.902344 C 187.675781 103.855469 187.765625 103.859375 187.816406 103.914062 C 188.996094 105.035156 190.75 105.289062 192.296875 105.007812 C 193.882812 104.722656 195.359375 103.972656 196.855469 103.214844 C 197.71875 102.804688 198.582031 102.386719 199.441406 101.972656 C 200.089844 101.660156 200.738281 101.351562 201.386719 101.046875 C 202.90625 100.34375 204.429688 99.644531 205.976562 98.992188 C 206.066406 98.957031 206.171875 99 206.210938 99.089844 C 206.246094 99.175781 206.210938 99.269531 206.132812 99.316406 Z M 204.46875 95.914062 C 204.621094 97 204.726562 97.6875 204.726562 97.6875 L 201.140625 99.355469 L 192.21875 103.488281 C 190.300781 104.378906 188.15625 102.8125 188.417969 100.710938 C 188.421875 100.691406 188.421875 100.671875 188.425781 100.648438 C 188.550781 99.601562 188.621094 98.460938 188.570312 97.289062 L 163.164062 100.046875 L 150.070312 101.46875 C 150.753906 103.058594 151.414062 104.660156 152.058594 106.261719 C 152.765625 108.019531 153.429688 109.789062 154.121094 111.546875 L 156.082031 116.878906 C 156.347656 117.609375 156.605469 118.34375 156.859375 119.074219 C 157.226562 120.128906 157.589844 121.183594 157.929688 122.246094 C 157.960938 122.34375 157.910156 122.441406 157.8125 122.472656 C 157.726562 122.5 157.628906 122.457031 157.59375 122.375 C 157.117188 121.285156 156.664062 120.183594 156.214844 119.082031 C 155.953125 118.429688 155.6875 117.777344 155.425781 117.125 L 153.378906 111.832031 C 152.730469 110.054688 152.058594 108.28125 151.429688 106.5 C 150.84375 104.839844 150.265625 103.183594 149.722656 101.507812 L 146.554688 101.851562 L 154.535156 119.105469 L 156.074219 122.4375 L 173.289062 125.636719 C 173.496094 124.226562 173.796875 122.832031 174.171875 121.453125 C 174.621094 119.78125 175.210938 118.148438 175.871094 116.550781 C 176.558594 114.960938 177.324219 113.402344 178.207031 111.910156 C 179.089844 110.421875 180.0625 108.988281 181.152344 107.648438 C 181.214844 107.570312 181.328125 107.558594 181.402344 107.617188 C 181.476562 107.679688 181.492188 107.785156 181.441406 107.859375 C 180.511719 109.296875 179.625 110.753906 178.816406 112.257812 C 178.007812 113.757812 177.25 115.28125 176.601562 116.859375 C 176.046875 118.117188 175.574219 119.40625 175.132812 120.710938 C 175.027344 121.019531 174.914062 121.328125 174.816406 121.640625 C 174.410156 122.898438 174.066406 124.175781 173.742188 125.460938 C 173.722656 125.542969 173.699219 125.628906 173.679688 125.707031 L 173.707031 125.714844 C 172.910156 132.429688 174.167969 143.175781 175.660156 152.386719 L 186.964844 152.386719 C 186.964844 152.875 186.90625 153.347656 186.800781 153.808594 C 190.628906 153.0625 193.328125 152.386719 193.695312 151.914062 C 195.152344 150.042969 198.445312 146.390625 198.445312 146.390625 L 198.703125 146.519531 C 198.691406 146.484375 198.695312 146.445312 198.714844 146.410156 C 198.757812 146.34375 198.847656 146.316406 198.917969 146.355469 C 201.378906 147.695312 203.886719 148.949219 206.371094 150.246094 C 208.742188 151.46875 211.113281 152.707031 213.441406 154.019531 C 215.363281 149.996094 217.0625 145.867188 218.484375 141.640625 C 219.210938 139.464844 219.898438 137.273438 220.492188 135.054688 C 221.089844 132.835938 221.652344 130.605469 222.113281 128.355469 C 222.136719 128.257812 222.226562 128.195312 222.328125 128.214844 C 222.421875 128.234375 222.484375 128.324219 222.464844 128.421875 C 222.082031 130.695312 221.640625 132.964844 221.085938 135.207031 C 220.527344 137.449219 219.910156 139.679688 219.1875 141.871094 C 217.75 146.265625 216.015625 150.566406 213.945312 154.707031 L 213.769531 155.058594 L 213.429688 154.863281 C 213.242188 154.757812 213.058594 154.65625 212.871094 154.550781 C 211.429688 156.863281 205.625 165.695312 201.011719 165.695312 C 198.550781 165.695312 188.359375 165.695312 178.117188 165.695312 C 178.65625 168.3125 179.019531 169.902344 179.019531 169.902344 L 190.867188 169.902344 C 190.867188 169.867188 190.863281 169.832031 190.863281 169.796875 C 190.863281 169.707031 190.933594 169.640625 191.019531 169.640625 C 191.078125 169.640625 191.128906 169.675781 191.15625 169.722656 C 191.1875 169.78125 191.210938 169.84375 191.234375 169.902344 L 205.699219 169.902344 C 205.726562 169.84375 205.777344 169.796875 205.84375 169.804688 C 205.902344 169.808594 205.953125 169.847656 205.976562 169.894531 C 205.976562 169.898438 205.976562 169.898438 205.976562 169.902344 L 212.273438 169.902344 C 212.273438 169.902344 228.925781 136.632812 226.011719 118.332031 C 223.480469 102.433594 208.390625 97.054688 204.46875 95.914062 "/>
<path style=" stroke:none;fill-rule:nonzero;fill:rgb(91.758728%,91.758728%,91.758728%);fill-opacity:1;" d="M 60.15625 50.71875 L 98.386719 50.71875 L 98.386719 80.324219 L 60.15625 80.324219 Z M 253.894531 283.675781 L 308.910156 283.675781 L 308.910156 332.136719 L 253.894531 332.136719 Z M 308.910156 228.203125 L 308.910156 276.664062 L 253.894531 276.664062 L 253.894531 228.203125 Z M 191.5625 170.800781 C 191.480469 170.492188 191.375 170.195312 191.234375 169.902344 L 205.699219 169.902344 C 205.691406 169.917969 205.675781 169.925781 205.675781 169.945312 C 205.644531 170.34375 205.660156 170.730469 205.679688 171.121094 C 205.699219 171.511719 205.753906 171.898438 205.808594 172.28125 C 205.871094 172.664062 205.9375 173.046875 206.039062 173.421875 C 206.101562 173.675781 206.179688 173.929688 206.261719 174.183594 C 205.917969 174.179688 205.574219 174.167969 205.234375 174.164062 L 198.480469 174.121094 L 191.726562 174.183594 C 191.679688 174.183594 191.628906 174.183594 191.574219 174.183594 C 191.691406 173.824219 191.742188 173.449219 191.773438 173.078125 C 191.8125 172.695312 191.796875 172.3125 191.769531 171.929688 C 191.726562 171.550781 191.671875 171.171875 191.5625 170.800781 Z M 211.402344 278.28125 C 211.328125 278.332031 211.226562 278.316406 211.167969 278.25 C 210.328125 277.289062 209.585938 276.253906 208.902344 275.167969 C 208.226562 274.089844 207.640625 272.953125 207.101562 271.792969 C 206.59375 270.621094 206.128906 269.429688 205.777344 268.203125 C 205.421875 266.976562 205.136719 265.730469 204.976562 264.46875 C 204.96875 264.386719 205.027344 264.3125 205.109375 264.296875 C 205.183594 264.289062 205.257812 264.335938 205.273438 264.40625 C 205.625 265.621094 205.992188 266.820312 206.414062 267.996094 C 206.839844 269.171875 207.289062 270.339844 207.824219 271.46875 C 208.324219 272.613281 208.902344 273.71875 209.507812 274.8125 C 210.117188 275.910156 210.777344 276.976562 211.457031 278.035156 C 211.511719 278.117188 211.484375 278.230469 211.402344 278.28125 Z M 204.851562 191.625 C 204.835938 191.582031 204.84375 191.539062 204.863281 191.503906 C 204.972656 191.292969 205.117188 191.117188 205.261719 190.945312 C 205.40625 190.773438 205.574219 190.625 205.738281 190.480469 C 205.914062 190.34375 206.085938 190.207031 206.28125 190.101562 C 206.476562 189.988281 206.675781 189.882812 206.90625 189.816406 C 207.011719 189.789062 207.117188 189.847656 207.148438 189.953125 C 207.164062 190 207.152344 190.054688 207.132812 190.09375 C 207.019531 190.308594 206.875 190.476562 206.726562 190.644531 C 206.578125 190.816406 206.410156 190.957031 206.238281 191.097656 C 206.0625 191.230469 205.886719 191.363281 205.683594 191.464844 C 205.488281 191.574219 205.289062 191.675781 205.054688 191.742188 C 204.96875 191.765625 204.875 191.714844 204.851562 191.625 Z M 225.414062 257.242188 C 226.730469 243.933594 234.964844 224.074219 229.511719 206.96875 C 224.054688 189.863281 212.273438 169.902344 212.273438 169.902344 L 205.976562 169.902344 C 206.132812 170.269531 206.242188 170.640625 206.34375 171.015625 C 206.449219 171.390625 206.519531 171.773438 206.589844 172.152344 C 206.652344 172.539062 206.707031 172.921875 206.730469 173.308594 C 206.753906 173.601562 206.757812 173.898438 206.753906 174.195312 C 208.496094 174.226562 210.242188 174.261719 211.984375 174.332031 C 212.082031 174.339844 212.160156 174.421875 212.160156 174.523438 C 212.152344 174.613281 212.078125 174.691406 211.984375 174.695312 C 209.734375 174.789062 207.484375 174.828125 205.234375 174.867188 L 198.480469 174.910156 L 196.71875 174.894531 C 197.148438 176.21875 197.632812 177.519531 198.203125 178.78125 C 198.789062 180.078125 199.433594 181.347656 200.1875 182.550781 C 200.90625 183.769531 201.730469 184.933594 202.617188 186.046875 C 203.449219 187.109375 204.355469 188.113281 205.304688 189.085938 C 205.390625 189.011719 205.46875 188.9375 205.554688 188.863281 C 205.945312 188.535156 206.351562 188.21875 206.78125 187.949219 C 207.210938 187.667969 207.652344 187.414062 208.125 187.210938 C 208.21875 187.171875 208.324219 187.214844 208.363281 187.308594 C 208.394531 187.378906 208.378906 187.457031 208.324219 187.507812 C 207.957031 187.863281 207.578125 188.183594 207.199219 188.507812 L 206.0625 189.46875 L 204.914062 190.414062 C 204.523438 190.726562 204.140625 191.042969 203.726562 191.339844 C 203.652344 191.386719 203.558594 191.371094 203.511719 191.304688 C 203.472656 191.25 203.472656 191.183594 203.503906 191.132812 C 203.78125 190.699219 204.109375 190.304688 204.449219 189.925781 C 204.632812 189.722656 204.820312 189.535156 205.015625 189.347656 C 203.953125 188.492188 202.972656 187.527344 202.074219 186.492188 C 201.117188 185.394531 200.277344 184.199219 199.507812 182.960938 C 198.773438 181.699219 198.105469 180.398438 197.582031 179.039062 C 197.0625 177.691406 196.648438 176.304688 196.390625 174.890625 L 191.726562 174.851562 C 189.476562 174.808594 187.226562 174.765625 184.972656 174.664062 C 184.894531 174.660156 184.828125 174.589844 184.832031 174.507812 C 184.835938 174.429688 184.898438 174.367188 184.972656 174.363281 C 187.054688 174.269531 189.132812 174.226562 191.214844 174.191406 C 191.214844 174.1875 191.214844 174.1875 191.214844 174.1875 C 191.144531 173.8125 191.113281 173.449219 191.074219 173.082031 L 190.976562 172 L 190.902344 170.910156 C 190.886719 170.578125 190.863281 170.246094 190.867188 169.902344 L 179.019531 169.902344 L 198.503906 244.386719 L 227.472656 355.152344 C 228.316406 355.070312 229.160156 355.023438 230.003906 354.992188 C 230.941406 354.945312 231.882812 354.933594 232.820312 354.929688 C 233.761719 354.929688 234.703125 354.933594 235.640625 354.976562 C 236.582031 355.007812 237.519531 355.050781 238.457031 355.144531 C 238.558594 355.15625 238.632812 355.246094 238.621094 355.34375 C 238.613281 355.425781 238.542969 355.496094 238.457031 355.503906 C 237.519531 355.597656 236.582031 355.640625 235.640625 355.675781 C 234.703125 355.714844 233.761719 355.71875 232.820312 355.722656 C 231.882812 355.710938 230.941406 355.703125 230.003906 355.660156 C 229.191406 355.625 228.375 355.578125 227.566406 355.507812 L 228.078125 357.472656 L 238.496094 357.472656 C 238.496094 357.472656 242.667969 328.464844 236.089844 304.757812 C 229.515625 281.050781 224.09375 270.550781 225.414062 257.242188 "/>
<g clip-path="url(#clip2)" clip-rule="nonzero">
<path style=" stroke:none;fill-rule:nonzero;fill:rgb(35.688782%,33.729553%,33.729553%);fill-opacity:1;" d="M 274.492188 316.023438 C 273.714844 315.261719 272.292969 314.75 270.660156 314.75 C 268.203125 314.75 266.210938 315.90625 266.210938 317.328125 C 266.210938 318.757812 268.203125 319.910156 270.660156 319.910156 C 273.09375 319.910156 275.0625 318.777344 275.105469 317.375 L 275.136719 317.375 L 277.003906 300.960938 L 295.042969 298.679688 L 293.335938 313.644531 C 292.5625 312.882812 291.136719 312.371094 289.503906 312.371094 C 287.050781 312.371094 285.054688 313.523438 285.054688 314.953125 C 285.054688 316.375 287.050781 317.53125 289.503906 317.53125 C 291.9375 317.53125 293.90625 316.398438 293.949219 314.992188 L 293.980469 314.996094 L 295.945312 297.765625 L 276.289062 300.25 Z M 62.25 81.621094 L 99.6875 81.621094 L 99.6875 52.8125 L 62.25 52.8125 Z M 61.457031 52.019531 L 100.480469 52.019531 L 100.480469 82.414062 L 61.457031 82.414062 Z M 308.910156 269.34375 L 308.910156 270.136719 L 268.878906 270.136719 C 268.695312 271.058594 267.882812 271.75 266.910156 271.75 C 265.933594 271.75 265.125 271.058594 264.9375 270.136719 L 253.894531 270.136719 L 253.894531 269.34375 L 264.9375 269.34375 C 265.125 268.429688 265.933594 267.734375 266.910156 267.734375 C 267.882812 267.734375 268.695312 268.429688 268.878906 269.34375 Z M 188.125 71.121094 C 188.664062 71.121094 189.101562 71.5625 189.101562 72.101562 C 189.101562 72.640625 188.664062 73.078125 188.125 73.078125 C 187.585938 73.078125 187.144531 72.640625 187.144531 72.101562 C 187.144531 71.5625 187.585938 71.121094 188.125 71.121094 Z M 127.5 65.617188 C 127.449219 65.5625 127.445312 65.476562 127.488281 65.421875 C 127.617188 65.253906 127.753906 65.101562 127.894531 64.945312 C 128.53125 64.230469 129.285156 63.617188 130.109375 63.121094 C 130.558594 62.847656 131.035156 62.621094 131.519531 62.425781 C 132.125 62.183594 132.75 61.984375 133.390625 61.835938 C 134.542969 61.605469 135.734375 61.53125 136.90625 61.671875 C 137.328125 61.726562 137.746094 61.8125 138.15625 61.914062 C 138.832031 62.082031 139.488281 62.324219 140.101562 62.640625 C 140.148438 62.667969 140.199219 62.6875 140.246094 62.710938 C 140.332031 62.757812 140.363281 62.871094 140.316406 62.957031 C 140.28125 63.011719 140.222656 63.039062 140.164062 63.039062 C 140.140625 63.039062 140.117188 63.046875 140.097656 63.039062 C 139.039062 62.667969 137.941406 62.4375 136.839844 62.371094 C 136.292969 62.335938 135.738281 62.335938 135.191406 62.378906 C 135.144531 62.382812 135.097656 62.386719 135.050781 62.390625 C 134.546875 62.429688 134.046875 62.503906 133.550781 62.613281 C 132.464844 62.816406 131.421875 63.203125 130.4375 63.707031 C 129.511719 64.175781 128.65625 64.78125 127.871094 65.488281 C 127.816406 65.535156 127.765625 65.578125 127.710938 65.625 C 127.652344 65.683594 127.558594 65.679688 127.5 65.617188 Z M 227.050781 355.308594 C 227.054688 355.234375 227.117188 355.179688 227.1875 355.171875 C 227.28125 355.164062 227.375 355.15625 227.472656 355.152344 C 228.316406 355.070312 229.160156 355.023438 230.003906 354.992188 C 230.941406 354.945312 231.882812 354.933594 232.820312 354.929688 C 233.761719 354.929688 234.703125 354.933594 235.640625 354.976562 C 236.582031 355.007812 237.519531 355.050781 238.457031 355.144531 C 238.558594 355.15625 238.632812 355.246094 238.621094 355.34375 C 238.613281 355.425781 238.542969 355.496094 238.457031 355.503906 C 237.519531 355.597656 236.582031 355.640625 235.640625 355.675781 C 234.703125 355.714844 233.761719 355.71875 232.820312 355.722656 C 231.882812 355.710938 230.941406 355.703125 230.003906 355.660156 C 229.191406 355.625 228.375 355.578125 227.566406 355.507812 C 227.4375 355.496094 227.3125 355.488281 227.1875 355.476562 C 227.101562 355.46875 227.039062 355.394531 227.050781 355.308594 Z M 211.457031 278.035156 C 211.511719 278.117188 211.484375 278.230469 211.402344 278.28125 C 211.328125 278.332031 211.226562 278.316406 211.167969 278.25 C 210.328125 277.289062 209.585938 276.253906 208.902344 275.167969 C 208.226562 274.089844 207.640625 272.953125 207.101562 271.792969 C 206.59375 270.621094 206.128906 269.429688 205.777344 268.203125 C 205.421875 266.976562 205.136719 265.730469 204.976562 264.46875 C 204.96875 264.386719 205.027344 264.3125 205.109375 264.296875 C 205.183594 264.289062 205.257812 264.335938 205.273438 264.40625 C 205.625 265.621094 205.992188 266.820312 206.414062 267.996094 C 206.839844 269.171875 207.289062 270.339844 207.824219 271.46875 C 208.324219 272.613281 208.902344 273.71875 209.507812 274.8125 C 210.117188 275.910156 210.777344 276.976562 211.457031 278.035156 Z M 205.054688 191.742188 C 204.96875 191.765625 204.875 191.714844 204.851562 191.625 C 204.835938 191.582031 204.84375 191.539062 204.863281 191.503906 C 204.972656 191.292969 205.117188 191.117188 205.261719 190.945312 C 205.40625 190.773438 205.574219 190.625 205.738281 190.480469 C 205.914062 190.34375 206.085938 190.207031 206.28125 190.101562 C 206.476562 189.988281 206.675781 189.882812 206.90625 189.816406 C 207.011719 189.789062 207.117188 189.847656 207.148438 189.953125 C 207.164062 190 207.152344 190.054688 207.132812 190.09375 C 207.019531 190.308594 206.875 190.476562 206.726562 190.644531 C 206.578125 190.816406 206.410156 190.957031 206.238281 191.097656 C 206.0625 191.230469 205.886719 191.363281 205.683594 191.464844 C 205.488281 191.574219 205.289062 191.675781 205.054688 191.742188 Z M 212.160156 174.523438 C 212.152344 174.613281 212.078125 174.691406 211.984375 174.695312 C 209.734375 174.789062 207.484375 174.828125 205.234375 174.867188 L 198.480469 174.910156 L 196.71875 174.894531 C 197.148438 176.21875 197.632812 177.519531 198.203125 178.78125 C 198.789062 180.078125 199.433594 181.347656 200.1875 182.550781 C 200.90625 183.769531 201.730469 184.933594 202.617188 186.046875 C 203.449219 187.109375 204.355469 188.113281 205.304688 189.085938 C 205.390625 189.011719 205.46875 188.9375 205.554688 188.863281 C 205.945312 188.535156 206.351562 188.21875 206.78125 187.949219 C 207.210938 187.667969 207.652344 187.414062 208.125 187.210938 C 208.21875 187.171875 208.324219 187.214844 208.363281 187.308594 C 208.394531 187.378906 208.378906 187.457031 208.324219 187.507812 C 207.957031 187.863281 207.578125 188.183594 207.199219 188.507812 L 206.0625 189.46875 L 204.914062 190.414062 C 204.523438 190.726562 204.140625 191.042969 203.726562 191.339844 C 203.652344 191.386719 203.558594 191.371094 203.511719 191.304688 C 203.472656 191.25 203.472656 191.183594 203.503906 191.132812 C 203.78125 190.699219 204.109375 190.304688 204.449219 189.925781 C 204.632812 189.722656 204.820312 189.535156 205.015625 189.347656 C 203.953125 188.492188 202.972656 187.527344 202.074219 186.492188 C 201.117188 185.394531 200.277344 184.199219 199.507812 182.960938 C 198.773438 181.699219 198.105469 180.398438 197.582031 179.039062 C 197.0625 177.691406 196.648438 176.304688 196.390625 174.890625 L 191.726562 174.851562 C 189.476562 174.808594 187.226562 174.765625 184.972656 174.664062 C 184.894531 174.660156 184.828125 174.589844 184.832031 174.507812 C 184.835938 174.429688 184.898438 174.367188 184.972656 174.363281 C 187.054688 174.269531 189.132812 174.226562 191.214844 174.191406 C 191.214844 174.1875 191.214844 174.1875 191.214844 174.1875 C 191.144531 173.8125 191.113281 173.449219 191.074219 173.082031 L 190.976562 172 L 190.902344 170.910156 C 190.886719 170.578125 190.863281 170.246094 190.867188 169.902344 C 190.867188 169.867188 190.863281 169.832031 190.863281 169.796875 C 190.863281 169.707031 190.933594 169.640625 191.019531 169.640625 C 191.078125 169.640625 191.128906 169.675781 191.15625 169.722656 C 191.1875 169.78125 191.210938 169.84375 191.234375 169.902344 C 191.375 170.195312 191.480469 170.492188 191.5625 170.800781 C 191.671875 171.171875 191.726562 171.550781 191.769531 171.929688 C 191.796875 172.3125 191.8125 172.695312 191.773438 173.078125 C 191.742188 173.449219 191.691406 173.824219 191.574219 174.183594 C 191.628906 174.183594 191.679688 174.183594 191.726562 174.183594 L 198.480469 174.121094 L 205.234375 174.164062 C 205.574219 174.167969 205.917969 174.179688 206.261719 174.183594 C 206.179688 173.929688 206.101562 173.675781 206.039062 173.421875 C 205.9375 173.046875 205.871094 172.664062 205.808594 172.28125 C 205.753906 171.898438 205.699219 171.511719 205.679688 171.121094 C 205.660156 170.730469 205.644531 170.34375 205.675781 169.945312 C 205.675781 169.925781 205.691406 169.917969 205.699219 169.902344 C 205.726562 169.84375 205.777344 169.796875 205.84375 169.804688 C 205.902344 169.808594 205.953125 169.847656 205.976562 169.894531 C 205.976562 169.898438 205.976562 169.898438 205.976562 169.902344 C 206.132812 170.269531 206.242188 170.640625 206.34375 171.015625 C 206.449219 171.390625 206.519531 171.773438 206.589844 172.152344 C 206.652344 172.539062 206.707031 172.921875 206.730469 173.308594 C 206.753906 173.601562 206.757812 173.898438 206.753906 174.195312 C 208.496094 174.226562 210.242188 174.261719 211.984375 174.332031 C 212.082031 174.339844 212.160156 174.421875 212.160156 174.523438 Z M 222.464844 128.421875 C 222.082031 130.695312 221.640625 132.964844 221.085938 135.207031 C 220.527344 137.449219 219.910156 139.679688 219.1875 141.871094 C 217.75 146.265625 216.015625 150.566406 213.945312 154.707031 L 213.769531 155.058594 L 213.429688 154.863281 C 213.242188 154.757812 213.058594 154.65625 212.871094 154.550781 C 210.625 153.273438 208.355469 152.03125 206.085938 150.78125 C 203.621094 149.441406 201.179688 148.058594 198.769531 146.617188 C 198.730469 146.597656 198.707031 146.558594 198.703125 146.519531 C 198.691406 146.484375 198.695312 146.445312 198.714844 146.410156 C 198.757812 146.34375 198.847656 146.316406 198.917969 146.355469 C 201.378906 147.695312 203.886719 148.949219 206.371094 150.246094 C 208.742188 151.46875 211.113281 152.707031 213.441406 154.019531 C 215.363281 149.996094 217.0625 145.867188 218.484375 141.640625 C 219.210938 139.464844 219.898438 137.273438 220.492188 135.054688 C 221.089844 132.835938 221.652344 130.605469 222.113281 128.355469 C 222.136719 128.257812 222.226562 128.195312 222.328125 128.214844 C 222.421875 128.234375 222.484375 128.324219 222.464844 128.421875 Z M 149.722656 101.507812 C 149.679688 101.375 149.636719 101.253906 149.59375 101.121094 C 149.566406 101.042969 149.613281 100.957031 149.691406 100.933594 C 149.765625 100.910156 149.847656 100.945312 149.878906 101.019531 C 149.945312 101.167969 150.003906 101.316406 150.070312 101.46875 C 150.753906 103.058594 151.414062 104.660156 152.058594 106.261719 C 152.765625 108.019531 153.429688 109.789062 154.121094 111.546875 L 156.082031 116.878906 C 156.347656 117.609375 156.605469 118.34375 156.859375 119.074219 C 157.226562 120.128906 157.589844 121.183594 157.929688 122.246094 C 157.960938 122.34375 157.910156 122.441406 157.8125 122.472656 C 157.726562 122.5 157.628906 122.457031 157.59375 122.375 C 157.117188 121.285156 156.664062 120.183594 156.214844 119.082031 C 155.953125 118.429688 155.6875 117.777344 155.425781 117.125 L 153.378906 111.832031 C 152.730469 110.054688 152.058594 108.28125 151.429688 106.5 C 150.84375 104.839844 150.265625 103.183594 149.722656 101.507812 Z M 187.59375 104.117188 C 187.539062 104.050781 187.550781 103.957031 187.613281 103.902344 C 187.675781 103.855469 187.765625 103.859375 187.816406 103.914062 C 188.996094 105.035156 190.75 105.289062 192.296875 105.007812 C 193.882812 104.722656 195.359375 103.972656 196.855469 103.214844 C 197.71875 102.804688 198.582031 102.386719 199.441406 101.972656 C 200.089844 101.660156 200.738281 101.351562 201.386719 101.046875 C 202.90625 100.34375 204.429688 99.644531 205.976562 98.992188 C 206.066406 98.957031 206.171875 99 206.210938 99.089844 C 206.246094 99.175781 206.210938 99.269531 206.132812 99.316406 C 204.671875 100.136719 203.183594 100.910156 201.695312 101.675781 C 200.679688 102.199219 199.660156 102.707031 198.636719 103.214844 C 198.160156 103.453125 197.679688 103.6875 197.203125 103.929688 C 195.699219 104.632812 194.144531 105.4375 192.398438 105.667969 C 191.53125 105.78125 190.636719 105.742188 189.789062 105.5 C 188.949219 105.25 188.148438 104.796875 187.59375 104.117188 Z M 175.871094 116.550781 C 176.558594 114.960938 177.324219 113.402344 178.207031 111.910156 C 179.089844 110.421875 180.0625 108.988281 181.152344 107.648438 C 181.214844 107.570312 181.328125 107.558594 181.402344 107.617188 C 181.476562 107.679688 181.492188 107.785156 181.441406 107.859375 C 180.511719 109.296875 179.625 110.753906 178.816406 112.257812 C 178.007812 113.757812 177.25 115.28125 176.601562 116.859375 C 176.046875 118.117188 175.574219 119.40625 175.132812 120.710938 C 175.027344 121.019531 174.914062 121.328125 174.816406 121.640625 C 174.410156 122.898438 174.066406 124.175781 173.742188 125.460938 C 173.722656 125.542969 173.699219 125.628906 173.679688 125.707031 C 173.609375 126.003906 173.527344 126.292969 173.460938 126.585938 C 173.4375 126.667969 173.359375 126.71875 173.277344 126.699219 C 173.199219 126.679688 173.152344 126.609375 173.160156 126.535156 C 173.195312 126.234375 173.242188 125.933594 173.289062 125.636719 C 173.496094 124.226562 173.796875 122.832031 174.171875 121.453125 C 174.621094 119.78125 175.210938 118.148438 175.871094 116.550781 Z M 184.707031 92.257812 C 184.734375 92.191406 184.804688 92.148438 184.875 92.160156 C 185.304688 92.222656 185.738281 92.253906 186.175781 92.273438 C 186.808594 92.300781 187.4375 92.28125 188.066406 92.207031 C 189.113281 92.074219 190.148438 91.828125 191.121094 91.417969 C 192.105469 91.042969 193.03125 90.511719 193.875 89.882812 C 194.726562 89.25 195.484375 88.503906 196.148438 87.65625 C 196.210938 87.578125 196.320312 87.5625 196.402344 87.625 C 196.46875 87.679688 196.488281 87.777344 196.449219 87.855469 C 195.917969 88.835938 195.175781 89.703125 194.3125 90.429688 C 193.449219 91.160156 192.457031 91.726562 191.414062 92.15625 C 190.359375 92.550781 189.25 92.820312 188.121094 92.875 C 187.914062 92.882812 187.707031 92.878906 187.503906 92.878906 C 186.582031 92.871094 185.667969 92.742188 184.804688 92.453125 C 184.722656 92.425781 184.679688 92.339844 184.707031 92.257812 Z M 175.914062 71.714844 C 176.421875 71.230469 177.207031 71.101562 177.894531 71.253906 C 178.234375 71.339844 178.566406 71.480469 178.84375 71.707031 C 179.121094 71.925781 179.355469 72.207031 179.472656 72.535156 C 179.507812 72.628906 179.457031 72.738281 179.363281 72.773438 C 179.300781 72.792969 179.238281 72.78125 179.1875 72.746094 L 179.179688 72.742188 C 178.9375 72.566406 178.710938 72.414062 178.464844 72.296875 C 178.21875 72.183594 177.96875 72.085938 177.707031 72.027344 C 177.449219 71.957031 177.183594 71.925781 176.910156 71.910156 C 176.632812 71.902344 176.359375 71.929688 176.058594 71.980469 L 176.046875 71.980469 C 175.964844 71.996094 175.882812 71.9375 175.867188 71.851562 C 175.859375 71.796875 175.882812 71.746094 175.914062 71.714844 Z M 182.160156 85.21875 C 181.597656 85.214844 181.007812 85.039062 180.59375 84.660156 C 180.535156 84.601562 180.53125 84.5 180.585938 84.441406 C 180.632812 84.394531 180.699219 84.382812 180.753906 84.398438 L 180.757812 84.402344 C 181.660156 84.746094 182.617188 84.542969 183.414062 84.113281 C 183.519531 84.054688 183.617188 83.980469 183.71875 83.917969 C 184.015625 83.730469 184.300781 83.519531 184.582031 83.289062 C 184.621094 83.257812 184.660156 83.222656 184.699219 83.1875 C 185.035156 82.902344 185.371094 82.59375 185.738281 82.304688 C 185.816406 82.246094 185.929688 82.257812 185.992188 82.335938 C 186.039062 82.398438 186.042969 82.480469 186.007812 82.542969 C 185.738281 82.988281 185.425781 83.40625 185.066406 83.796875 C 184.710938 84.191406 184.28125 84.542969 183.789062 84.808594 C 183.289062 85.066406 182.730469 85.226562 182.160156 85.21875 Z M 179.28125 68.710938 C 179.453125 68.976562 179.589844 69.269531 179.632812 69.585938 C 179.644531 69.691406 179.574219 69.785156 179.46875 69.796875 C 179.40625 69.804688 179.347656 69.785156 179.308594 69.742188 L 179.304688 69.734375 C 179.109375 69.53125 178.929688 69.335938 178.738281 69.15625 C 178.546875 68.984375 178.359375 68.804688 178.148438 68.65625 C 177.953125 68.496094 177.730469 68.359375 177.511719 68.21875 C 177.289062 68.078125 177.046875 67.960938 176.792969 67.828125 L 176.785156 67.824219 C 176.707031 67.78125 176.679688 67.683594 176.722656 67.609375 C 176.746094 67.566406 176.789062 67.535156 176.835938 67.527344 C 177.148438 67.476562 177.46875 67.515625 177.773438 67.601562 C 178.082031 67.683594 178.367188 67.835938 178.625 68.023438 C 178.882812 68.214844 179.109375 68.441406 179.28125 68.710938 Z M 189.25 68.671875 C 188.859375 68.328125 188.441406 68.027344 187.976562 67.804688 C 187.523438 67.578125 187.027344 67.429688 186.511719 67.335938 C 185.996094 67.25 185.46875 67.238281 184.921875 67.28125 C 184.835938 67.285156 184.761719 67.222656 184.753906 67.140625 C 184.75 67.074219 184.785156 67.011719 184.84375 66.984375 C 185.378906 66.746094 185.980469 66.652344 186.578125 66.667969 C 187.179688 66.683594 187.773438 66.835938 188.324219 67.09375 C 188.871094 67.359375 189.367188 67.730469 189.753906 68.1875 C 190.144531 68.640625 190.449219 69.167969 190.597656 69.742188 C 190.621094 69.835938 190.5625 69.9375 190.464844 69.960938 C 190.390625 69.984375 190.308594 69.949219 190.269531 69.886719 C 189.964844 69.433594 189.632812 69.023438 189.25 68.671875 Z M 178.625 77.097656 C 178.304688 77.800781 178.148438 78.574219 178.304688 79.289062 C 178.464844 79.96875 179.027344 80.632812 179.78125 80.753906 L 179.785156 80.753906 C 179.871094 80.765625 179.925781 80.84375 179.914062 80.929688 C 179.902344 81 179.84375 81.050781 179.773438 81.054688 C 178.8125 81.121094 177.960938 80.375 177.664062 79.472656 C 177.351562 78.558594 177.546875 77.589844 177.898438 76.78125 C 178.265625 75.960938 178.773438 75.269531 179.234375 74.597656 C 179.691406 73.921875 180.101562 73.230469 180.304688 72.457031 C 180.328125 72.359375 180.425781 72.300781 180.519531 72.324219 C 180.605469 72.34375 180.664062 72.421875 180.660156 72.503906 C 180.636719 73.398438 180.25 74.226562 179.832031 74.964844 C 179.414062 75.707031 178.9375 76.382812 178.625 77.097656 Z M 238.398438 362.65625 C 238.222656 363.53125 237.699219 363.625 237.230469 362.867188 C 236.761719 362.113281 236.523438 360.789062 236.703125 359.914062 C 236.878906 359.042969 237.402344 358.949219 237.871094 359.707031 C 238.339844 360.460938 238.578125 361.785156 238.398438 362.65625 Z M 238.496094 357.472656 L 228.078125 357.472656 C 228.078125 357.472656 227.4375 361.355469 224.882812 363.328125 C 222.503906 365.175781 222.425781 370.570312 222.425781 370.570312 L 240.765625 370.570312 Z M 118.199219 139.214844 C 112.328125 137.523438 109.492188 130.207031 113.0625 130.207031 C 116.046875 130.207031 117.136719 131.992188 117.136719 131.992188 C 117.136719 131.992188 118.25 130.207031 120.515625 130.207031 C 124.089844 130.207031 123.539062 137.523438 118.199219 139.214844 Z M 137.402344 155.035156 C 137.175781 153.945312 139.71875 153.996094 144.617188 153.996094 C 149.523438 153.996094 154.285156 158.832031 154.285156 158.832031 C 154.285156 158.832031 165.667969 157.320312 176.207031 155.640625 C 180.050781 155.03125 183.773438 154.398438 186.800781 153.808594 C 186.90625 153.347656 186.964844 152.875 186.964844 152.386719 L 156.378906 152.386719 L 151.070312 119.148438 L 150.46875 115.371094 C 150.03125 112.617188 147.648438 110.589844 144.859375 110.589844 L 94.339844 110.589844 C 90.84375 110.589844 88.179688 113.710938 88.730469 117.160156 L 94.613281 154.050781 C 95.054688 156.804688 97.433594 158.832031 100.226562 158.832031 L 125.5625 158.832031 L 144.484375 158.726562 C 144.484375 158.726562 137.628906 156.128906 137.402344 155.035156 Z M 157.511719 364.308594 C 156.339844 364.308594 155.46875 363.359375 155.566406 362.191406 C 155.660156 361.019531 156.6875 360.070312 157.859375 360.070312 C 159.03125 360.070312 159.90625 361.019531 159.804688 362.191406 C 159.710938 363.359375 158.683594 364.308594 157.511719 364.308594 Z M 154.375 357.472656 L 154.398438 357.472656 C 154.398438 357.472656 152.921875 361.585938 145.144531 362.617188 C 137.855469 363.582031 132.894531 370.570312 132.894531 370.570312 L 161.929688 370.570312 L 164.816406 357.472656 L 164.792969 357.472656 C 164.792969 357.472656 180.367188 328.464844 183.101562 304.757812 C 185.839844 281.050781 184.546875 270.550781 191.09375 257.242188 C 192.972656 253.425781 195.636719 249.0625 198.503906 244.386719 L 179.019531 169.902344 Z M 197.214844 65.191406 C 197.195312 65.402344 197.175781 65.621094 197.160156 65.832031 C 197.050781 65.371094 196.824219 64.917969 196.558594 64.523438 C 196.75 64.769531 196.972656 64.992188 197.214844 65.191406 Z M 169.085938 83.246094 C 169.417969 83.085938 169.609375 82.738281 169.777344 82.40625 C 170.351562 81.285156 170.925781 80.160156 171.5 79.039062 C 171.320312 81.410156 172.460938 83.84375 174.410156 85.21875 C 174.863281 85.539062 175.417969 85.800781 175.960938 85.871094 C 173.578125 78.867188 175.675781 65.664062 175.902344 60.648438 C 175.949219 59.574219 176.148438 58.507812 176.476562 57.488281 C 177.085938 56.957031 177.84375 56.578125 178.609375 56.4375 C 177.679688 58.753906 178.566406 61.449219 180.070312 63.4375 C 180.527344 64.039062 181.0625 64.617188 181.761719 64.90625 C 182.457031 65.199219 183.351562 65.128906 183.863281 64.574219 C 183.875 64.5625 183.878906 64.546875 183.894531 64.53125 C 184.132812 64.242188 184.21875 63.839844 184.152344 63.472656 C 184.820312 64.246094 185.671875 64.855469 186.625 65.222656 C 187.09375 65.402344 187.625 65.527344 188.105469 65.359375 C 188.675781 65.160156 189.042969 64.578125 189.160156 63.980469 C 189.269531 63.386719 189.175781 62.773438 189.078125 62.171875 C 190.171875 64.15625 191.765625 65.863281 193.671875 67.082031 C 194.269531 67.464844 194.929688 67.808594 195.640625 67.808594 C 196.21875 67.804688 196.816406 67.5 197.082031 67.007812 C 197.03125 68.003906 197.011719 69.003906 197.023438 70 C 197.574219 69.195312 198.175781 68.398438 199.042969 67.953125 C 199.988281 67.464844 201.332031 67.578125 201.894531 68.484375 C 202.324219 69.179688 202.164062 70.078125 201.933594 70.867188 C 201.535156 72.226562 200.949219 73.578125 199.945312 74.585938 C 199.273438 75.261719 198.382812 75.753906 197.449219 75.914062 C 197.835938 78.828125 198.492188 81.707031 199.40625 84.5 C 200.292969 87.199219 201.46875 89.890625 203.5 91.878906 C 203.648438 92.023438 203.8125 92.160156 203.980469 92.285156 C 204.371094 92.5625 204.808594 92.746094 205.25 92.632812 C 206.082031 92.429688 206.355469 91.371094 206.273438 90.519531 C 206.1875 89.671875 205.910156 88.78125 206.230469 87.992188 C 207.339844 88.542969 207.757812 90.167969 208.972656 90.378906 C 209.945312 90.550781 210.824219 89.609375 210.960938 88.628906 C 211.097656 87.652344 210.714844 86.691406 210.332031 85.78125 C 211.738281 86.25 213.183594 86.726562 214.664062 86.695312 C 216.148438 86.660156 217.710938 86.007812 218.429688 84.710938 C 219.386719 82.996094 218.609375 80.871094 217.824219 79.070312 C 219.292969 79.902344 221.273438 79.71875 222.558594 78.625 C 223.847656 77.53125 224.355469 75.609375 223.769531 74.027344 C 223.640625 73.675781 223.457031 73.3125 223.53125 72.941406 C 223.632812 72.476562 224.097656 72.199219 224.460938 71.894531 C 225.847656 70.734375 226.074219 68.566406 225.316406 66.925781 C 224.558594 65.289062 223.011719 64.128906 221.359375 63.398438 C 219.710938 62.660156 217.929688 62.28125 216.195312 61.769531 C 214.464844 61.246094 212.730469 60.5625 211.40625 59.332031 C 210.875 58.839844 210.417969 58.265625 209.957031 57.695312 C 209.070312 55.117188 207.050781 52.910156 204.480469 51.949219 C 205.28125 51.960938 207.148438 52.367188 207.824219 51.949219 C 208.503906 51.527344 208.9375 50.613281 208.574219 49.90625 C 208.28125 49.339844 207.613281 49.089844 206.992188 48.925781 C 205.28125 48.480469 203.515625 48.179688 201.753906 48.261719 C 202.1875 48.09375 202.554688 47.710938 202.6875 47.253906 C 202.898438 46.550781 202.632812 45.769531 202.160156 45.207031 C 201.125 43.972656 199.3125 43.746094 197.707031 43.890625 C 196.230469 44.023438 194.863281 44.417969 193.507812 45.011719 C 194.089844 44.410156 193.898438 43.339844 193.296875 42.761719 C 192.695312 42.175781 191.820312 41.980469 190.988281 41.90625 C 189.394531 41.773438 187.742188 42.019531 186.355469 42.804688 C 184.960938 43.589844 183.96875 44.699219 183.679688 46.265625 C 183.347656 45.628906 183.007812 44.984375 182.5 44.476562 C 181.996094 43.96875 181.296875 43.609375 180.582031 43.683594 C 179.925781 43.753906 179.363281 44.175781 178.902344 44.652344 C 178.367188 45.207031 177.921875 45.894531 177.832031 46.664062 C 177.695312 47.945312 178.691406 49.289062 179.511719 50.285156 C 177.023438 50.449219 174.484375 50.625 172.160156 51.535156 C 171.871094 51.648438 171.578125 51.777344 171.355469 51.992188 C 171.132812 52.207031 170.988281 52.527344 171.054688 52.824219 C 171.125 53.136719 171.398438 53.359375 171.664062 53.535156 C 172.679688 54.207031 173.898438 54.4375 175.117188 54.40625 C 173.199219 56.035156 171.660156 58.191406 170.527344 60.367188 C 168.730469 63.816406 167.773438 67.636719 166.972656 71.441406 C 166.230469 74.984375 165.644531 78.839844 167.242188 82.097656 C 167.59375 82.820312 168.355469 83.59375 169.085938 83.246094 "/>
</g>
</g>
</svg>
