<svg width="108" height="17" fill="none" xmlns="http://www.w3.org/2000/svg"><g clip-path="url(#clip0)"><path d="M21.8.8H2.1a2 2 0 00-2 2v11.4c0 1.2 1 2 2 2h19.6a2 2 0 002-2V2.8a2 2 0 00-2-2z" fill="#fff" stroke="#000" stroke-opacity=".2" stroke-width=".5"/><path d="M2.8 6.4L1 5.7h2.8c.3 0 .6 0 .7.4L5.1 9l.2.8L7 5.6h1.8L6 11.8H4.3L2.8 6.4zm7.3 5.4H8.4l1-6.2h1.8L10 11.8zm6.2-6L16 7H16a3 3 0 00-1.3-.3c-.7 0-1 .3-1 .5 0 .3.4.5 1 .8 1 .4 1.4 1 1.4 1.7 0 1.2-1.2 2-3 2-.7 0-1.4 0-1.8-.3l.2-1.3h.2c.6.3 1 .4 1.6.4.5 0 1-.2 1-.6 0-.3-.2-.5-.8-.8-.7-.3-1.5-.8-1.5-1.7 0-1.2 1.2-2 2.8-2 .7 0 1.2.1 1.6.3zm2.2 3.8H20l-.4-1.8v-.5l-.3.6-.7 1.7zm2.1-4l1.4 6.2h-1.6l-.2-1H18l-.3 1h-1.8L18.4 6c.2-.4.5-.5 1-.5h1.2z" fill="#171E6C"/></g><g clip-path="url(#clip1)"><path d="M50 .5H30a2 2 0 00-2 2v12c0 1.1.9 2 2 2h20a2 2 0 002-2v-12a2 2 0 00-2-2z" fill="#252525"/><path d="M37 13.5a5 5 0 100-10 5 5 0 000 10z" fill="#EB001B"/><path d="M43 13.5a5 5 0 100-10 5 5 0 000 10z" fill="#F79E1B"/><path fill-rule="evenodd" clip-rule="evenodd" d="M40 4.5a5 5 0 010 8 5 5 0 010-8z" fill="#FF5F00"/></g><g clip-path="url(#clip2)"><path d="M78 .5H58a2 2 0 00-2 2v12c0 1.1.9 2 2 2h20a2 2 0 002-2v-12a2 2 0 00-2-2z" fill="#016FD0"/><path fill-rule="evenodd" clip-rule="evenodd" d="M69.8 13.9V8.2h10.1v1.6L78.7 11l1.2 1.3v1.6H78l-1-1.1-1 1.1h-6.2z" fill="#FFFFFE"/><path fill-rule="evenodd" clip-rule="evenodd" d="M70.4 13.3V8.8h3.8v1h-2.5v.7h2.5v1h-2.5v.7h2.5v1h-3.8zM74.2 13.3l2-2.3-2-2.2h1.6l1.3 1.4 1.3-1.4h1.5L78 11l2 2.2h-1.6l-1.2-1.4-1.3 1.5h-1.6z" fill="#016FD0"/><path fill-rule="evenodd" clip-rule="evenodd" d="M70.2 3.1h2.5l.8 2V3h3l.6 1.5.5-1.5H80v5.7H67.7l2.5-5.7z" fill="#FFFFFE"/><path fill-rule="evenodd" clip-rule="evenodd" d="M70.7 3.8l-2 4.4h1.4l.4-.9h2l.3.9h1.4l-2-4.4h-1.5zm.2 2.5l.6-1.4.6 1.4h-1.2z" fill="#016FD0"/><path fill-rule="evenodd" clip-rule="evenodd" d="M74.2 8.2V3.8h2l.9 2.7 1-2.7h1.8v4.4h-1.2v-3l-1 3h-1.2l-1-3v3h-1.3z" fill="#016FD0"/></g><g clip-path="url(#clip3)"><path d="M106 16.2h0c1 0 1.7-.7 1.8-1.7v-12c0-.5-.2-1-.6-1.2-.3-.4-.7-.6-1.2-.5H86c-.5 0-.9.1-1.2.5-.4.3-.5.7-.5 1.2v12c0 .5.1 1 .5 1.2.3.4.7.6 1.2.5h20zm0 .5s0 0 0 0h0z" fill="#fff" stroke="#000" stroke-opacity=".2" stroke-width=".5"/><path d="M96.6 16.5h9.4a2 2 0 002-2v-2.3c-3.5 2-7.4 3.5-11.4 4.3z" fill="#F27712"/><path d="M107.2 9.8h-.9l-1-1.3v1.3h-.7V6.7h1c.8 0 1.3.3 1.3.9 0 .5-.3.8-.8.9l1 1.3zm-1-2.2c0-.3-.3-.5-.7-.5h-.2v1h.2c.4 0 .6-.2.6-.5zm-4-1h2v.6h-1.4v.7h1.3v.5h-1.3v.9h1.3v.5h-2V6.7zM99.8 10l-1.5-3.3h.8l1 2.2.9-2.2h.7l-1.5 3.3h-.4zm-6.3 0c-1 0-1.9-.7-1.9-1.7 0-.9.9-1.6 2-1.6.2 0 .5 0 .8.2v.7c-.3-.2-.6-.4-.9-.4-.7 0-1.2.5-1.2 1.1 0 .7.5 1.1 1.2 1.1.4 0 .6 0 .9-.3v.7l-.9.2zm-2-1c0 .5-.6 1-1.3 1-.6 0-1-.2-1.3-.6l.5-.4c.2.3.4.4.7.4.4 0 .6-.2.6-.4s0-.3-.2-.4l-.5-.1c-.7-.3-.9-.5-.9-1 0-.4.5-.8 1.1-.8.4 0 .8.1 1 .3l-.3.5a.8.8 0 00-.5-.3c-.3 0-.6.2-.6.4l.6.4c.8.2 1 .4 1 1zM88 6.6h.7v3.1H88V6.7zm-2.2 3.1h-1V6.7h1c1 0 1.9.6 1.9 1.5 0 .5-.3 1-.7 1.2a2 2 0 01-1.3.4zm.8-2.4l-1-.2h-.2v2h.2c.5 0 .7 0 1-.2.2-.2.3-.5.3-.8a1 1 0 00-.3-.8z" fill="#000"/><path d="M96.4 6.6c-.9 0-1.6.7-1.6 1.6 0 1 .7 1.7 1.6 1.7 1 0 1.7-.7 1.7-1.7 0-.9-.8-1.6-1.7-1.6z" fill="#F27712"/></g><defs><clipPath id="clip0"><path fill="#fff" transform="translate(0 .5)" d="M0 0h24v16H0z"/></clipPath><clipPath id="clip1"><path fill="#fff" transform="translate(28 .5)" d="M0 0h24v16H0z"/></clipPath><clipPath id="clip2"><path fill="#fff" transform="translate(56 .5)" d="M0 0h24v16H0z"/></clipPath><clipPath id="clip3"><path fill="#fff" transform="translate(84 .5)" d="M0 0h24v16H0z"/></clipPath></defs></svg>
