<svg xmlns="http://www.w3.org/2000/svg" height="512" width="512"><path d="M315 92h-15V62h15c8 0 15 7 15 15h30c0-25-20-45-45-45h-15V0h-30v32h-15a45 45 0 000 90h15v30h-15c-8 0-15-7-15-15h-30c0 25 20 45 45 45h15v30h30v-30h15a45 45 0 000-90zm-60 0a15 15 0 010-30h15v30zm60 60h-15v-30h15a15 15 0 010 30z" fill="#ffdf40"/><path d="M60 452V0H0v32h30v60H0v30h30v60H0v30h30v60H0v30h30v60H0v30h30v60H0v30h30v30h30v-30h60v30h30v-30h60v30h30v-30h60v30h30v-30h60v30h30v-30h62v30h30v-60z" fill="#734545"/><path d="M120 92h30v45h-30zM120 227h30v45h-30zM210 242h30v45h-30zM210 377h30v45h-30z" fill="#ffbe40"/><path d="M330 212h30v45h-30zM330 347h30v45h-30zM420 62h30v45h-30zM420 197h30v45h-30z" fill="#ff9f40"/><g><path d="M180 242H90V122h90z" fill="#ffdf40"/></g><g><path d="M270 392h-90V272h90z" fill="#ffdf40"/></g><g><path d="M390 362h-90V242h90z" fill="#ffbe40"/></g><g><path d="M480 212h-90V92h90z" fill="#ffbe40"/></g><path d="M285 482h15v30h30v-30h60v30h30v-30h62v30h30v-60H285z" fill="#4d2e2e"/><path d="M315 62c8 0 15 7 15 15h30c0-25-20-45-45-45h-15V0h-15v212h15v-30h15a45 45 0 000-90h-15V62zm0 60a15 15 0 010 30h-15v-30z" fill="#ffbe40"/></svg>
