<svg width="2333" height="2569" fill="none" xmlns="http://www.w3.org/2000/svg"><path d="M1531 616s490 82 453 838c0 3 57 43 61 48 40 38 73 88 88 146 51 207-134 420-283 476-56 21-115 32-174 33-385 13-894-252-921-768v-56c2-98 24-193 57-282 0 0 214-575 719-435z" fill="#E2BA87"/><path d="M1997 1463c-6 14-11 32-13 42-7 44 7 90 31 122a154 154 0 00124 61 311 311 0 00-142-225zM1304 1795c92-22 150-126 130-232-20-105-111-173-203-150-93 22-151 126-131 232 20 105 111 172 204 150z" fill="#FCC3B8" opacity=".5"/><path opacity=".3" d="M1751 1499s78-80 138-5z" fill="#8B5E3C"/><path d="M1027 1888c-271 146-503-195-419-393 53-126 197-140 278-28 47 66 84 151 104 232" fill="#E2BA87"/><path opacity=".3" d="M816 1583c33 35 59 88 92 117-5-50-13-103-35-148-23-45-65-81-109-77-55 5-102 73-109 133 4-36 74-62 101-60 39 80 50 240 50 240 37-92 25-163 10-205z" fill="#8B5E3C"/><path d="M1784 1690c9 6 75-77 119-52 15 9 26 23 35 39 19 34 25 76 18 115-11 55-48 100-92 129-116 80-209 65-334 19-98-36-232-111-204-247 48-238 458-3 458-3z" fill="#873C41"/><path d="M1445 1675c32 20 71 22 105 14 7-1 12 4 14 11 17 65 113 100 161 58 4-4 11-5 14-1 26 25 68 32 99 15 43-24 43-90 31-136-38 12-78 58-85 54 0 0-252-144-384-92 3 32 18 60 45 77z" fill="#fff"/><path d="M1806 1931c-69-63-154-98-239-123-74-21-156-35-230-14 34 74 123 120 193 146 109 40 194 57 292 7l-16-16z" fill="#EE7E8B"/><path d="M1458 1279c0 50-28 91-84 83-41-11-68-39-68-92 0-55 33-91 68-91 46 0 84 49 84 100zM1844 1278c0 34-15 70-56 66-34-4-43-47-43-68 0-38 20-73 48-73 30 0 52 41 51 75z" fill="#2A1200"/><path d="M1483 1039c-54-26-123-24-178 6-17 10-29 33-20 52 9 18 31 30 50 19l17-8 9-3 2-1a174 174 0 0129-5h8a165 165 0 0126 3l2 1 9 2 17 7c18 9 43-3 49-22 8-22-1-42-20-51zM1864 1057c-32-17-70-21-104-11-9 2-17 10-21 19-4 8-5 20-1 29s11 18 20 23c10 4 20 6 30 3l5-1 15-1 19 5 6 3c9 4 20 5 29 3 9-3 18-11 22-19 3-9 5-20 0-30-4-9-10-18-20-23z" fill="#240F00"/><path d="M2008 812c-2-69-24-174-96-150-12 4-24 13-32 25-3-14-8-27-14-41-16-38-61-53-91-30-7 5-12 12-17 19a769 769 0 00-228-147 548 548 0 00-413 13 711 711 0 00-324 258 938 938 0 00-136 422c-4 44-6 88-7 133l1 30c35-88 170-69 170-69l78 101c18 27 37 194 62 174l10-6c17-13 9-121 9-146-2-161 58-328 154-426 98-99 239-136 367-144 108-7 213 25 306 93 30 22 58 47 84 75l29 34c63-36 89-124 88-205v-13z" fill="#0F0F0F"/><path d="M1530 488c82 32 158 85 228 147 3-6 8-11 13-15-10 12-18 28-24 44-29-28-64-43-101-31-34 12-59 44-74 83-82-56-170-78-271-58a479 479 0 00-299 240c-96 163-99 472-30 645l-11 10c-25 20-55-123-124-164-30-19-108-37-174 41-13-70-13-102-13-138 1-44 3-66 7-109v-2c15-152 56-302 136-422a711 711 0 01363-273c122-41 253-44 374 2z" fill="#000"/></svg>
