<svg width="512" height="512" fill="none" xmlns="http://www.w3.org/2000/svg"><g clip-path="url(#clip0)"><path d="M466 392h-60c-8 0-15-7-15-15V15c0-8 7-15 15-15h60c8 0 15 7 15 15v362c0 8-7 15-15 15zM346 62h-60c-8 0-15 7-15 15v300c0 8 7 15 15 15h60c8 0 15-7 15-15V77c0-8-7-15-15-15z" fill="#D3D3D8"/><path d="M361 77v300c0 8-7 15-15 15h-30V62h30c8 0 15 7 15 15z" fill="#D3D3D8"/><path d="M226 392h-60c-8 0-15-7-15-15V137c0-8 7-15 15-15h60c8 0 15 7 15 15v240c0 8-7 15-15 15zm-120 0H46c-8 0-15-7-15-15V197c0-8 7-15 15-15h60c8 0 15 7 15 15v180c0 8-7 15-15 15z" fill="#E42421"/><path d="M185 482H10c-3 0-5-2-7-4-2-3-3-7-3-11s1-8 3-11c2-2 4-4 7-4h175c3 0 5 2 7 4 2 3 3 7 3 11s-1 8-3 11c-2 2-4 4-7 4z" fill="#575F64"/><path d="M488 482H241c-6 0-12-2-17-4-4-3-7-7-7-11s3-8 7-11c5-2 11-4 17-4h247c6 0 12 2 17 4 4 3 7 7 7 11s-3 8-7 11c-5 2-11 4-17 4z" fill="#32393F"/><path d="M195 422a45 45 0 100 90 45 45 0 000-90z" fill="#ECECF1"/><path d="M240 467c0 25-20 45-45 45v-90c25 0 45 20 45 45z" fill="#D3D3D8"/></g><defs><clipPath id="clip0"><path fill="#fff" d="M0 0h512v512H0z"/></clipPath></defs></svg>
