<svg xmlns="http://www.w3.org/2000/svg" viewBox="0 0 512.1 512.1"><path d="M40 0h353c19 0 35 16 35 35v283c0 19-16 35-35 35H40c-20 0-36-16-36-35V35C4 16 20 0 40 0z" fill="#87ced9"/><g fill="#4398d1"><path d="M31 27h18v17H31zM66 27h18v17H66zM102 27h17v17h-17zM93 71h353c19 0 35 15 35 35v282c0 20-16 36-35 36H93c-20 0-36-16-36-36V106c0-20 16-35 36-35z"/></g><path d="M446 71h-42a608 608 0 01-268 353h310c19 0 35-16 35-36V106c0-20-16-35-35-35z" fill="#3f8fc4"/><g fill="#87ced9"><path d="M84 97h18v18H84zM119 97h18v18h-18zM155 97h17v18h-17z"/></g><g fill="#3685ba"><path d="M84 353h371v18H84zM102 283h17v53h-17zM137 230h18v105h-18zM172 256h18v79h-18zM207 194h18v141h-18zM243 177h18v159h-18zM278 185h18v62h-18zM313 150h18v97h-18zM349 132h17v115h-17zM384 168h18v167h-18zM419 203h18v132h-18z"/></g><path fill="#fdb62f" d="M508 486l-27 26-106-106 27-26z"/><path fill="#fa962a" d="M437 415l-26 26-36-35 27-26z"/><circle cx="322.2" cy="335.4" r="114.8" fill="#fdb62f"/><circle cx="322.2" cy="335.4" r="79.4" fill="#87ced9"/><g fill="#4398d1"><path d="M245 353l6 18h142l7-18H245zM331 335v-78h-18v78h18zM296 335v-74c-7 2-12 5-18 8v66h18zM366 335v-66l-17-8v74h17zM260 286a79 79 0 00-17 49h17v-49zM384 335h18c0-18-7-35-18-49v49z"/></g></svg>
