<svg width="2212" height="2304" fill="none" xmlns="http://www.w3.org/2000/svg"><path d="M1357 410s489 82 452 838c0 3 56 43 61 48 39 38 72 88 87 146 51 207-133 420-282 476-56 21-115 32-174 33-384 13-892-252-918-768v-56c2-98 24-193 57-282 0 0 213-575 717-435z" fill="#FFE4C0"/><path d="M1822 1257c-6 14-12 32-13 42-7 44 6 90 30 122a153 153 0 00124 61 310 310 0 00-141-225zM1130 1589c92-23 150-126 130-232-20-105-111-173-203-150-92 22-150 126-130 232 20 105 111 172 203 150z" fill="#FFE7E2" opacity=".5"/><path opacity=".3" d="M1577 1293s77-80 137-5z" fill="#CBA284"/><path d="M854 1687c-265 143-497-204-418-401 51-127 193-138 273-25 48 67 85 153 106 235" fill="#FFE4C0"/><path opacity=".3" d="M642 1377c33 36 60 90 93 119-6-50-15-104-37-149-23-46-65-83-108-79-54 4-99 71-106 132 4-36 73-62 99-59 39 82 53 242 53 242 35-91 22-163 6-206z" fill="#CBA284"/><path d="M1425 1229a222 222 0 00-185-26c92-94 162-22 185 26zM1749 1196c0 29-15 61-54 57-32-3-40-40-40-59 0-32 18-63 45-63 28 0 49 36 49 65z" fill="#2A1200"/><path d="M1392 968c-57-8-118 11-160 49-13 13-16 35-3 49 13 12 36 16 51 3l13-11c1-1 6-3 7-5l2-1a166 166 0 0125-11l7-2a171 171 0 0124-4h11l18 1c18 3 37-13 38-31 0-19-13-34-33-37zM1775 1026c-20-25-51-41-84-46-9-2-19 1-26 7-7 5-12 14-13 22-1 9 1 19 7 26 7 7 15 11 24 13l5 1 13 5 14 10 5 4a37 37 0 0050 6c7-5 12-13 13-22 0-9-2-18-8-26z" fill="#000"/><path d="M1818 622c-3-67-25-166-97-143-13 4-24 13-32 24-3-13-8-26-14-39-17-36-62-51-92-28-7 5-12 11-17 18a777 777 0 00-230-139 573 573 0 00-413 16 708 708 0 00-324 249 872 872 0 00-132 407c-4 42-6 84-6 127l1 28c34-84 170-67 170-67l78 96c19 26 40 186 64 167l11-6c16-13 7-116 7-140-3-154 55-315 151-409 97-96 238-133 367-142 109-7 214 23 308 87 30 21 59 45 85 71 2 2 27 33 29 33 63-36 88-120 87-197l-1-13z" fill="#292825"/><path d="M1336 315c83 30 159 80 230 139l13-14c-10 12-17 27-24 42-28-26-65-41-101-29-34 12-59 43-73 80-83-53-171-74-273-53a477 477 0 00-298 232c-95 157-96 454-24 619l-12 10c-24 19-55-118-125-156-31-19-109-35-174 40-14-67-14-98-14-133 0-41 2-63 5-104l1-1c13-146 54-290 132-407a708 708 0 01363-264c121-40 253-44 374-1z" fill="#000"/><path d="M1686 1515c29 1 57-7 81-32 13-13 26-20 44-9 43 26 54 93 42 138-13 48-52 88-96 114-120 69-212 53-335 9-97-35-227-105-194-226 41-149 218-78 317-37 43 17 93 42 141 43z" fill="#fff"/><mask id="a" maskUnits="userSpaceOnUse" x="1222" y="1418" width="636" height="355"><path d="M1686 1515c29 1 57-7 81-32 13-13 26-20 44-9 43 26 54 93 42 138-13 48-52 88-96 114-120 69-212 53-335 9-97-35-227-105-194-226 41-149 218-78 317-37 43 17 93 42 141 43z" fill="#fff"/></mask><g mask="url(#a)"><path fill-rule="evenodd" clip-rule="evenodd" d="M1285 1681l126-313 17 7-125 313-18-7zm258 101l87-328 18 5-86 328-19-5zm259-79l-48-241 18-3 48 241-18 3z" fill="#D1D3D4"/></g><path fill-rule="evenodd" clip-rule="evenodd" d="M1973 1210l-199-6-2-36 202 8-1 34z" fill="#000"/><path fill-rule="evenodd" clip-rule="evenodd" d="M1264 996c-110 15-187 110-167 215 20 106 127 177 237 162 111-15 187-110 167-215-19-106-127-176-237-162zm-210 178c2-104 85-196 204-212 135-18 260 69 283 190l14-4c14-3 33-5 52-2 3-43 17-82 41-113 30-38 75-65 128-67 54-3 102 20 138 55 36 36 59 85 64 140 4 55-11 106-41 144-30 39-74 65-128 68-53 2-102-20-137-56-35-34-59-82-64-135-14-5-29-4-42-1-9 2-16 5-21 8 1 107-83 201-204 218-135 18-261-69-284-190l-1-8-350-47c-65-8-131-5-179 8-49 14-75 65-75 96l-40-1c1-52 46-111 102-127s128-18 198-10l342 46zm628-122a191 191 0 0020 243c30 29 67 45 105 43 38-1 72-20 97-52a191 191 0 00-20-243c-30-29-68-45-106-43-37 2-72 20-96 52z" fill="#000"/></svg>
