<svg width="2245" height="2283" fill="none" xmlns="http://www.w3.org/2000/svg"><path d="M1410 399s489 82 452 838c0 3 56 43 61 48 39 38 72 88 87 146 51 207-133 420-282 476-56 21-115 32-174 33-384 13-892-252-918-768v-56c2-98 24-193 57-282 0 0 213-575 717-435z" fill="#FFE4C0"/><path d="M1875 1246c-6 14-12 32-13 42-7 44 6 90 30 122a153 153 0 00124 61 310 310 0 00-141-225zM1183 1578c92-23 150-126 130-232-20-105-111-173-203-150-92 22-150 126-130 232 20 105 111 172 203 150z" fill="#FFE7E2" opacity=".5"/><path opacity=".3" d="M1630 1282s77-80 137-5z" fill="#CBA284"/><path d="M907 1676c-265 143-497-204-418-401 51-127 193-138 273-25 48 67 85 153 106 235" fill="#FFE4C0"/><path opacity=".3" d="M695 1366c33 36 60 90 93 119-6-50-15-104-37-149-23-46-65-83-108-79-54 4-99 71-106 132 4-36 73-62 99-59 39 82 53 242 53 242 35-91 22-163 6-206z" fill="#CBA284"/><path d="M1476 360a594 594 0 01157 290c-80 72-183 235-315 329a844 844 0 01-324 134c-75 88-56 185-111 188-33-78-95-206-266-148-144 49-151 214-105 299 26 47 132 152 304 129l110 97c-11 21-31 50-96 79-83 36-465 3-500-232a423 423 0 01-75-546c47-76 114-131 192-166-1-31-1-68 1-109 7-228 217-413 382-452 164-40 514-26 646 108z" fill="#000"/><path d="M1807 820a518 518 0 00-178-171c-16-113-117-245-165-297 454-173 569 386 553 597 84 168 26 406-4 501a317 317 0 00-165-234c21-116-18-312-41-396z" fill="#000"/><path d="M1661 1488c9 6 75-77 119-52 15 9 26 23 35 39 19 34 25 76 18 115-11 55-48 100-92 129-116 80-209 65-334 19-98-36-232-111-204-247 48-238 458-3 458-3z" fill="#873C41"/><path d="M1322 1473c32 20 71 22 105 14 7-1 12 4 14 11 17 65 113 100 161 58 4-4 11-5 14-1 26 25 68 32 99 15 43-24 43-90 31-136-38 12-78 58-85 54 0 0-252-144-384-92 3 32 18 60 45 77z" fill="#fff"/><path d="M1683 1729c-69-63-154-98-239-123-74-21-156-35-230-14 34 74 123 120 193 146 109 40 194 57 292 7l-16-16z" fill="#EE7E8B"/><mask id="a" maskUnits="userSpaceOnUse" x="1198" y="1384" width="638" height="393"><path d="M1661 1488c9 6 75-77 119-52 15 9 26 23 35 39 19 34 25 76 18 115-11 55-48 100-92 129-116 80-209 65-334 19-98-36-232-111-204-247 48-238 458-3 458-3z" fill="#873C41"/></mask><g mask="url(#a)"><path fill-rule="evenodd" clip-rule="evenodd" d="M1283 1379c2-2 5-2 7-1 7 6 21 14 36 23l41 20 3 2c49 24 123 50 162 63l7 3c45 15 101 32 161 32a97 97 0 0047-13 5 5 0 014 8 106 106 0 01-50 15h-1c-62 0-119-18-164-33l-7-3c-39-13-114-39-163-63l-4-2-40-21c-16-8-30-17-38-23-2-2-3-5-1-7z" fill="#C4C4C4"/><rect width="37.6" height="37.6" rx="2" transform="rotate(3 -26333 31110)" fill="#A09E9E"/><rect width="37.6" height="37.6" rx="2" transform="rotate(15 -4819 6514)" fill="#A09E9E"/><rect width="37.6" height="37.6" rx="2" transform="rotate(26 -2318 3605)" fill="#A09E9E"/></g><path d="M1269 1185c37-2 74 9 106 24 19-17 28-46 20-76-11-41-51-69-88-61-37 9-58 49-47 91 2 8 5 15 9 22zM1748 1178c5-10 8-23 7-36-1-33-23-60-48-59-26 1-45 28-43 62 1 18 8 34 18 45 21-7 43-11 66-12z" fill="#2A1200"/><path d="M1400 934c-57-6-117 13-157 51-12 12-15 33-1 45 13 12 36 16 49 3l13-11c2-1 6-3 7-5l2-1a164 164 0 0124-11l8-2a175 175 0 0123-5h11l18 1c18 2 37-14 37-30 0-19-14-33-34-35zM1781 980c-21-24-51-39-84-42-9-1-19 2-26 7-6 5-12 14-12 22-1 8 2 17 8 24 6 6 14 10 24 11l5 1 13 5c5 2 10 5 14 9l4 4c6 7 15 11 24 12s20-2 26-7c7-6 12-14 13-22 0-9-2-17-9-24z" fill="#000"/></svg>
