<svg xmlns="http://www.w3.org/2000/svg" width="512" height="512" viewBox="0 0 472 472"><path xmlns="http://www.w3.org/2000/svg" d="M384 304H32V48c0-9 7-16 16-16h320c9 0 16 7 16 16zm0 0" fill="#565960" data-original="#e4e4e2"/><path xmlns="http://www.w3.org/2000/svg" d="M64 64h288v200H64zm0 0" fill="#f5fbf8" data-original="#aae5c8"/><path xmlns="http://www.w3.org/2000/svg" d="M16 296h384c9 0 16 7 16 16v32c0 9-7 16-16 16H16c-9 0-16-7-16-16v-32c0-9 7-16 16-16zm0 0" fill="#565960" data-original="#ebebeb"/><path xmlns="http://www.w3.org/2000/svg" d="M160 296h96v16c0 9-7 16-16 16h-64c-9 0-16-7-16-16zm0 0" fill="#7a7a7a" data-original="#dbdbdb"/><path xmlns="http://www.w3.org/2000/svg" d="M160 208l-4-1-48-24 8-14 42 21 60-67c3-3 7-4 11-1l58 44L434 26l11 12-152 144c-2 2-7 3-10 0l-58-43-59 66-6 3zm0 0" fill="#5ed954" data-original="#ffb1b5"/><path xmlns="http://www.w3.org/2000/svg" d="M448 48a24 24 0 110-48 24 24 0 010 48zm0 0M112 200a24 24 0 110-48 24 24 0 010 48zm0 0" fill="#69b0bb" data-original="#69b0bb"/><path xmlns="http://www.w3.org/2000/svg" d="M216 168h16v72h-16zm0 0" fill="#65eab8" data-original="#ea6b65"/><path xmlns="http://www.w3.org/2000/svg" d="M280 200h16v40h-16zm0 0" fill="#85bc94" data-original="#85bc94"/><path xmlns="http://www.w3.org/2000/svg" d="M152 224h16v16h-16zm0 0" fill="#2444bf" data-original="#e78244"/><path xmlns="http://www.w3.org/2000/svg" d="M104 216h16v24h-16zm0 0" fill="#718ee7" data-original="#fbb540"/></svg>
